<?xml version="1.0" encoding="UTF-8"?>
<!DOCTYPE svg
PUBLIC "-//W3C//DTD SVG 1.1//EN"
     "http://www.w3.org/Graphics/SVG/1.1/DTD/svg11.dtd">
     <!--Created with SF Symbol Generator (v1.0.0)-->

<svg version="1.1" xmlns="http://www.w3.org/2000/svg" xmlns:xlink="http://www.w3.org/1999/xlink" width="3300" height="2200">
<!--glyph: "3.weights.s.medium", point size: 100.0-->
<style>.SFSymbolsPreviewWireframe {fill:none;opacity:1.0;stroke:black;stroke-width:0.5}
</style>
<g id="Notes">
<rect height="2200" id="artboard" style="fill:white;opacity:1" width="3300" x="0" y="0"/>
<line style="fill:none;stroke:black;opacity:1;stroke-width:0.5;" x1="263" x2="3036" y1="292" y2="292"/>
<text style="stroke:none;fill:black;font-family:sans-serif;font-size:13;font-weight:bold;" transform="matrix(1 0 0 1 263 322)">Weight/Scale Variations</text>
<text style="stroke:none;fill:black;font-family:sans-serif;font-size:13;text-anchor:middle;" transform="matrix(1 0 0 1 559.711 322)">Ultralight</text>
<text style="stroke:none;fill:black;font-family:sans-serif;font-size:13;text-anchor:middle;" transform="matrix(1 0 0 1 856.422 322)">Thin</text>
<text style="stroke:none;fill:black;font-family:sans-serif;font-size:13;text-anchor:middle;" transform="matrix(1 0 0 1 1153.13 322)">Light</text>
<text style="stroke:none;fill:black;font-family:sans-serif;font-size:13;text-anchor:middle;" transform="matrix(1 0 0 1 1449.84 322)">Regular</text>
<text style="stroke:none;fill:black;font-family:sans-serif;font-size:13;text-anchor:middle;" transform="matrix(1 0 0 1 1746.56 322)">Medium</text>
<text style="stroke:none;fill:black;font-family:sans-serif;font-size:13;text-anchor:middle;" transform="matrix(1 0 0 1 2043.27 322)">Semibold</text>
<text style="stroke:none;fill:black;font-family:sans-serif;font-size:13;text-anchor:middle;" transform="matrix(1 0 0 1 2339.98 322)">Bold</text>
<text style="stroke:none;fill:black;font-family:sans-serif;font-size:13;text-anchor:middle;" transform="matrix(1 0 0 1 2636.69 322)">Heavy</text>
<text style="stroke:none;fill:black;font-family:sans-serif;font-size:13;text-anchor:middle;" transform="matrix(1 0 0 1 2933.4 322)">Black</text>
<line style="fill:none;stroke:black;opacity:1;stroke-width:0.5;" x1="263" x2="3036" y1="1903" y2="1903"/>
<text style="stroke:none;fill:black;font-family:sans-serif;font-size:13;font-weight:bold;" transform="matrix(1 0 0 1 263 1953)">Design Variations</text>
<text style="stroke:none;fill:black;font-family:sans-serif;font-size:13;" transform="matrix(1 0 0 1 263 1971)">Symbols are supported in up to nine weights and three scales.</text>
<text style="stroke:none;fill:black;font-family:sans-serif;font-size:13;" transform="matrix(1 0 0 1 263 1989)">For optimal layout with text and other symbols, vertically align</text>
<text style="stroke:none;fill:black;font-family:sans-serif;font-size:13;" transform="matrix(1 0 0 1 263 2007)">symbols with the adjacent text.</text>
<line style="fill:none;stroke:#00AEEF;stroke-width:0.5;opacity:1.0;" x1="776" x2="776" y1="1919" y2="1933"/>
<text style="stroke:none;fill:black;font-family:sans-serif;font-size:13;font-weight:bold;" transform="matrix(1 0 0 1 776 1953)">Margins</text>
<text style="stroke:none;fill:black;font-family:sans-serif;font-size:13;" transform="matrix(1 0 0 1 776 1971)">Leading and trailing margins on the left and right side of each symbol</text>
<text style="stroke:none;fill:black;font-family:sans-serif;font-size:13;" transform="matrix(1 0 0 1 776 1989)">can be adjusted by modifying the x-location of the margin guidelines.</text>
<text style="stroke:none;fill:black;font-family:sans-serif;font-size:13;" transform="matrix(1 0 0 1 776 2007)">Modifications are automatically applied proportionally to all</text>
<text style="stroke:none;fill:black;font-family:sans-serif;font-size:13;" transform="matrix(1 0 0 1 776 2025)">scales and weights.</text>
<text style="stroke:none;fill:black;font-family:sans-serif;font-size:13;font-weight:bold;" transform="matrix(1 0 0 1 1289 1953)">Exporting</text>
<text style="stroke:none;fill:black;font-family:sans-serif;font-size:13;" transform="matrix(1 0 0 1 1289 1971)">Symbols should be outlined when exporting to ensure the</text>
<text style="stroke:none;fill:black;font-family:sans-serif;font-size:13;" transform="matrix(1 0 0 1 1289 1989)">design is preserved when submitting to Xcode.</text>
<text id="template-version" style="stroke:none;fill:black;font-family:sans-serif;font-size:13;text-anchor:end;" transform="matrix(1 0 0 1 3036 1933)">Template v.5.0</text>
<text style="stroke:none;fill:black;font-family:sans-serif;font-size:13;text-anchor:end;" transform="matrix(1 0 0 1 3036 1951)">Requires Xcode 15 or greater</text>
<text id="descriptive-name" style="stroke:none;fill:black;font-family:sans-serif;font-size:13;text-anchor:end;" transform="matrix(1 0 0 1 3036 1969)">Generated from 3.weights.s</text>
<text style="stroke:none;fill:black;font-family:sans-serif;font-size:13;text-anchor:end;" transform="matrix(1 0 0 1 3036 1987)">Typeset at 100.0 points</text>
<text style="stroke:none;fill:black;font-family:sans-serif;font-size:13;" transform="matrix(1 0 0 1 263 726)">Small</text>
<text style="stroke:none;fill:black;font-family:sans-serif;font-size:13;" transform="matrix(1 0 0 1 263 1156)">Medium</text>
<text style="stroke:none;fill:black;font-family:sans-serif;font-size:13;" transform="matrix(1 0 0 1 263 1586)">Large</text>
</g>
<g id="Guides">
<g id="H-reference" style="fill:#27AAE1;stroke:none;" transform="matrix(1 0 0 1 339 696)">
 <path d="M0.993654 0L3.63775 0L29.3281-67.1323L30.0303-67.1323L30.0303-70.459L28.1226-70.459ZM11.6885-24.4799L46.9815-24.4799L46.2315-26.7285L12.4385-26.7285ZM55.1196 0L57.7637 0L30.6382-70.459L29.4326-70.459L29.4326-67.1323Z"/>
</g>
<line id="Baseline-S" style="fill:none;stroke:#27AAE1;opacity:1;stroke-width:0.5;" x1="263" x2="3036" y1="696" y2="696"/>
<line id="Capline-S" style="fill:none;stroke:#27AAE1;opacity:1;stroke-width:0.5;" x1="263" x2="3036" y1="625.541" y2="625.541"/>
<g id="H-reference" style="fill:#27AAE1;stroke:none;" transform="matrix(1 0 0 1 339 1126)">
 <path d="M0.993654 0L3.63775 0L29.3281-67.1323L30.0303-67.1323L30.0303-70.459L28.1226-70.459ZM11.6885-24.4799L46.9815-24.4799L46.2315-26.7285L12.4385-26.7285ZM55.1196 0L57.7637 0L30.6382-70.459L29.4326-70.459L29.4326-67.1323Z"/>
</g>
<line id="Baseline-M" style="fill:none;stroke:#27AAE1;opacity:1;stroke-width:0.5;" x1="263" x2="3036" y1="1126" y2="1126"/>
<line id="Capline-M" style="fill:none;stroke:#27AAE1;opacity:1;stroke-width:0.5;" x1="263" x2="3036" y1="1055.54" y2="1055.54"/>
<g id="H-reference" style="fill:#27AAE1;stroke:none;" transform="matrix(1 0 0 1 339 1556)">
 <path d="M0.993654 0L3.63775 0L29.3281-67.1323L30.0303-67.1323L30.0303-70.459L28.1226-70.459ZM11.6885-24.4799L46.9815-24.4799L46.2315-26.7285L12.4385-26.7285ZM55.1196 0L57.7637 0L30.6382-70.459L29.4326-70.459L29.4326-67.1323Z"/>
</g>
<line id="Baseline-L" style="fill:none;stroke:#27AAE1;opacity:1;stroke-width:0.5;" x1="263" x2="3036" y1="1556" y2="1556"/>
<line id="Capline-L" style="fill:none;stroke:#27AAE1;opacity:1;stroke-width:0.5;" x1="263" x2="3036" y1="1485.54" y2="1485.54"/>
<line id="left-margin-Ultralight-S" style="fill:none;stroke:#00AEEF;stroke-width:0.5;opacity:1.0;" x1="513.711" x2="513.711" y1="600.785" y2="720.121"/>
<line id="right-margin-Ultralight-S" style="fill:none;stroke:#00AEEF;stroke-width:0.5;opacity:1.0;" x1="605.711" x2="605.711" y1="600.785" y2="720.121"/>
<line id="left-margin-Regular-S" style="fill:none;stroke:#00AEEF;stroke-width:0.5;opacity:1.0;" x1="1403.84" x2="1403.84" y1="600.785" y2="720.121"/>
<line id="right-margin-Regular-S" style="fill:none;stroke:#00AEEF;stroke-width:0.5;opacity:1.0;" x1="1495.84" x2="1495.84" y1="600.785" y2="720.121"/>
<line id="left-margin-Black-S" style="fill:none;stroke:#00AEEF;stroke-width:0.5;opacity:1.0;" x1="2887.4" x2="2887.4" y1="600.785" y2="720.121"/>
<line id="right-margin-Black-S" style="fill:none;stroke:#00AEEF;stroke-width:0.5;opacity:1.0;" x1="2979.4" x2="2979.4" y1="600.785" y2="720.121"/>
</g>
<g id="Symbols">
<g id="Ultralight-S" transform="matrix(1 0 0 1 513.711 614.7705)">
<svg width="92" height="92" viewBox="0 0 92 92" fill="none" xmlns="http://www.w3.org/2000/svg">
<g id="3.weights.s">
<g id="Vector">
<path d="M16.8457 53.5916C20.6461 53.5916 20.5922 53.5826 21.4727 54.4092C23.1437 55.9724 22.6137 58.6228 20.4664 59.3955C20.0711 59.5302 20.0531 59.5842 20.3316 59.8447C20.7629 60.258 21.2211 60.4916 22.2094 60.7881C22.8383 60.9677 23.3953 61.5158 23.5121 62.0548C23.5481 62.2435 23.584 64.1123 23.584 66.2147C23.584 70.4912 23.584 70.4822 22.9731 71.0752C22.3262 71.6951 22.3261 71.6951 16.8547 71.6861C14.1775 71.6861 11.8686 71.6412 11.7157 71.5962C11.1676 71.4345 10.5746 70.9584 10.314 70.4463L10.0625 69.9701V66.0709C10.0625 61.7674 10.0625 61.7853 10.6195 61.2103C10.8262 60.9947 11.1047 60.851 11.6258 60.6893C12.3715 60.4647 13.0274 60.1052 13.3328 59.7549C13.4317 59.656 13.4856 59.5572 13.4676 59.5392C13.4496 59.5302 13.2071 59.4135 12.9286 59.2787C11.6258 58.6678 10.9879 57.4908 11.2215 56.1791C11.4282 55.074 12.0211 54.2924 13.0184 53.8252L13.5215 53.5916H16.8457Z" fill="black"/>
<path d="M26.7914 71.5244C26.1445 71.2998 25.6953 70.9135 25.4078 70.3385L25.1652 69.8533L25.1113 53.0525L25.3359 52.6572C25.6414 52.1182 25.9648 51.9475 27.1059 51.7498C28.3637 51.5252 29.334 51.058 30.1336 50.2764C30.6367 49.7912 31.1668 49.0096 31.059 48.9107C31.041 48.8838 30.7266 48.785 30.3762 48.6861C29.0195 48.3178 28.2289 47.7068 27.7348 46.6467C26.8184 44.6791 27.8336 42.2803 29.882 41.5975C30.4121 41.4178 30.6008 41.4088 35.8566 41.4357L41.2832 41.4627L41.7953 41.7142C42.5859 42.1006 43.1609 42.6756 43.5473 43.4662C43.8797 44.1221 43.8887 44.176 43.8887 45.1014C43.8887 46.0178 43.8797 46.0717 43.5473 46.7365C43.0262 47.7967 42.1367 48.4705 40.9508 48.7041C40.6543 48.767 40.3937 48.8658 40.3668 48.9287C40.223 49.315 41.5527 50.7166 42.532 51.2018C43.0531 51.4533 43.3316 51.5342 44.859 51.8396C45.5059 51.9654 46.018 52.4146 46.1707 52.9807C46.2426 53.2412 46.2695 55.7209 46.2516 61.5607L46.2246 69.7724L46 70.2127C45.8652 70.4732 45.5688 70.8146 45.2992 71.0392C44.4547 71.7221 44.9129 71.6951 35.5871 71.6951C27.7617 71.6861 27.2406 71.6771 26.7914 71.5244ZM44.0324 69.3682C44.1941 69.1705 44.2031 68.91 44.2031 61.4978V53.8342L43.8258 53.7713C41.3281 53.385 38.7406 51.2377 38.3633 49.2432C38.1207 47.9494 38.7766 47.0689 40.1602 46.8084C40.4746 46.7545 40.8879 46.6287 41.0766 46.5299C41.418 46.3592 41.7953 45.8201 41.9031 45.3439C42.0379 44.76 41.5258 43.8615 40.9059 43.61C40.6723 43.5111 39.6211 43.4842 35.65 43.4842C31.0051 43.4842 30.6547 43.5021 30.3133 43.6549C29.3879 44.0771 29.1184 45.2271 29.7473 46.0807C30.0707 46.5299 30.4121 46.7096 31.1488 46.8174C31.8137 46.9072 32.0922 47.042 32.4875 47.4283C32.9547 47.8865 33.0895 48.2728 33.0445 48.9646C32.9547 50.1326 31.8766 51.633 30.4301 52.5943C29.5406 53.1783 29.0734 53.385 28.202 53.5916C27.8336 53.6814 27.4652 53.7803 27.3664 53.8072C27.2047 53.8701 27.1957 54.1127 27.2137 61.5248C27.2227 65.7295 27.2496 69.2334 27.2766 69.3053C27.3035 69.3682 27.4113 69.467 27.5191 69.5209C27.6539 69.5928 30.2145 69.6107 35.7848 69.6017L43.8617 69.5838L44.0324 69.3682Z" fill="black"/>
<path d="M49.8004 71.5693C48.7582 71.2369 47.8867 70.3744 47.6801 69.449C47.6531 69.3232 47.6172 62.3334 47.6082 53.906C47.5902 42.2264 47.6082 38.4978 47.6891 38.2193C47.8328 37.7342 48.3898 37.1142 48.9289 36.8447C49.2793 36.665 49.5578 36.6111 50.5281 36.5572C52.3879 36.4494 53.7086 36.0271 55.1102 35.0928C56.5027 34.1674 57.7695 32.5142 57.7695 31.6158C57.7695 31.2924 57.7516 31.2654 57.4371 31.1846C57.2484 31.1396 56.8172 31.0498 56.4668 30.9959C55.2988 30.8072 54.1937 30.0975 53.3941 29.0283C52.2621 27.5279 52.0734 25.3717 52.9359 23.6377C53.3492 22.7842 54.4004 21.751 55.2629 21.3467C56.5746 20.7178 56.1613 20.7447 64.966 20.7717L72.9082 20.7986L73.5371 21.0592C75.6754 21.9396 76.9422 23.7455 76.9422 25.9197C76.9422 27.3842 76.466 28.4982 75.3789 29.5674C74.4176 30.5197 73.6359 30.8881 72.0367 31.1307C71.6055 31.1935 71.4887 31.4002 71.6234 31.8584C72.3242 34.4189 75.7113 36.5662 79.0625 36.5662C80.5719 36.5662 81.5961 37.4826 81.7578 38.965C81.7938 39.3514 81.8207 46.3412 81.8117 54.49L81.8027 69.3142L81.5512 69.8623C81.2367 70.5451 80.7066 71.0752 80.0059 71.3986L79.4668 71.6502L64.8223 71.6682C52.882 71.6771 50.1059 71.6592 49.8004 71.5693ZM79.1074 69.5029C79.2781 69.431 79.5027 69.2334 79.6016 69.0717C79.7812 68.7752 79.7812 68.6584 79.7812 53.9689V39.1627L79.5656 38.956C79.3949 38.7764 79.2242 38.7314 78.6492 38.6865C76.8523 38.5428 75.4059 38.1385 74.0582 37.4107C71.0305 35.7756 69.027 32.685 69.6469 30.6185C69.7816 30.1783 70.3477 29.5135 70.8059 29.2799C71.0035 29.181 71.4887 29.0642 71.902 29.0103C73.2047 28.8486 74.1121 28.2646 74.6242 27.2494C74.8488 26.7912 74.8848 26.6295 74.8848 25.9646C74.8848 25.2998 74.8488 25.1291 74.6242 24.6709C74.148 23.7096 73.3215 23.0986 72.2254 22.91C71.8391 22.8471 69.2785 22.8201 64.2832 22.8381L56.916 22.865L56.4039 23.0717C55.7211 23.3502 55.0562 23.9611 54.7418 24.599C54.5172 25.0482 54.4902 25.21 54.4902 25.9646C54.4902 26.6654 54.5262 26.89 54.6969 27.2314C55.218 28.2826 56.0805 28.8576 57.4012 29.0193C58.3445 29.1271 58.8746 29.3877 59.3059 29.9627C59.9168 30.7533 59.9887 31.5709 59.5664 32.7838C58.5332 35.7666 54.7508 38.426 51.3008 38.5967C50.1508 38.6596 49.8363 38.7494 49.6926 39.0459C49.6207 39.2076 49.5938 43.1068 49.5938 54.0049C49.5938 66.2775 49.6117 68.7842 49.7195 69.0267C49.9801 69.6736 48.857 69.6287 64.6246 69.6287C76.7625 69.6287 78.8469 69.6107 79.1074 69.5029Z" fill="black"/>
</g>
</g>
</svg>

</g>
<g id="Regular-S" transform="matrix(1 0 0 1 1403.84 614.7705)">
<svg width="92" height="92" viewBox="0 0 92 92" fill="none" xmlns="http://www.w3.org/2000/svg">
<g id="3.weights.s">
<g id="Vector">
<path d="M16.8457 53.5916C20.6461 53.5916 20.5922 53.5826 21.4727 54.4092C23.1437 55.9724 22.6137 58.6228 20.4664 59.3955C20.0711 59.5302 20.0531 59.5842 20.3316 59.8447C20.7629 60.258 21.2211 60.4916 22.2094 60.7881C22.8383 60.9677 23.3953 61.5158 23.5121 62.0548C23.5481 62.2435 23.584 64.1123 23.584 66.2147C23.584 70.4912 23.584 70.4822 22.9731 71.0752C22.3262 71.6951 22.3261 71.6951 16.8547 71.6861C14.1775 71.6861 11.8686 71.6412 11.7157 71.5962C11.1676 71.4345 10.5746 70.9584 10.314 70.4463L10.0625 69.9701V66.0709C10.0625 61.7674 10.0625 61.7853 10.6195 61.2103C10.8262 60.9947 11.1047 60.851 11.6258 60.6893C12.3715 60.4647 13.0274 60.1052 13.3328 59.7549C13.4317 59.656 13.4856 59.5572 13.4676 59.5392C13.4496 59.5302 13.2071 59.4135 12.9286 59.2787C11.6258 58.6678 10.9879 57.4908 11.2215 56.1791C11.4282 55.074 12.0211 54.2924 13.0184 53.8252L13.5215 53.5916H16.8457Z" fill="black"/>
<path d="M26.7914 71.5244C26.1445 71.2998 25.6953 70.9135 25.4078 70.3385L25.1652 69.8533L25.1113 53.0525L25.3359 52.6572C25.6414 52.1182 25.9648 51.9475 27.1059 51.7498C28.3637 51.5252 29.334 51.058 30.1336 50.2764C30.6367 49.7912 31.1668 49.0096 31.059 48.9107C31.041 48.8838 30.7266 48.785 30.3762 48.6861C29.0195 48.3178 28.2289 47.7068 27.7348 46.6467C26.8184 44.6791 27.8336 42.2803 29.882 41.5975C30.4121 41.4178 30.6008 41.4088 35.8566 41.4357L41.2832 41.4627L41.7953 41.7142C42.5859 42.1006 43.1609 42.6756 43.5473 43.4662C43.8797 44.1221 43.8887 44.176 43.8887 45.1014C43.8887 46.0178 43.8797 46.0717 43.5473 46.7365C43.0262 47.7967 42.1367 48.4705 40.9508 48.7041C40.6543 48.767 40.3937 48.8658 40.3668 48.9287C40.223 49.315 41.5527 50.7166 42.532 51.2018C43.0531 51.4533 43.3316 51.5342 44.859 51.8396C45.5059 51.9654 46.018 52.4146 46.1707 52.9807C46.2426 53.2412 46.2695 55.7209 46.2516 61.5607L46.2246 69.7724L46 70.2127C45.8652 70.4732 45.5688 70.8146 45.2992 71.0392C44.4547 71.7221 44.9129 71.6951 35.5871 71.6951C27.7617 71.6861 27.2406 71.6771 26.7914 71.5244ZM44.0324 69.3682C44.1941 69.1705 44.2031 68.91 44.2031 61.4978V53.8342L43.8258 53.7713C41.3281 53.385 38.7406 51.2377 38.3633 49.2432C38.1207 47.9494 38.7766 47.0689 40.1602 46.8084C40.4746 46.7545 40.8879 46.6287 41.0766 46.5299C41.418 46.3592 41.7953 45.8201 41.9031 45.3439C42.0379 44.76 41.5258 43.8615 40.9059 43.61C40.6723 43.5111 39.6211 43.4842 35.65 43.4842C31.0051 43.4842 30.6547 43.5021 30.3133 43.6549C29.3879 44.0771 29.1184 45.2271 29.7473 46.0807C30.0707 46.5299 30.4121 46.7096 31.1488 46.8174C31.8137 46.9072 32.0922 47.042 32.4875 47.4283C32.9547 47.8865 33.0895 48.2728 33.0445 48.9646C32.9547 50.1326 31.8766 51.633 30.4301 52.5943C29.5406 53.1783 29.0734 53.385 28.202 53.5916C27.8336 53.6814 27.4652 53.7803 27.3664 53.8072C27.2047 53.8701 27.1957 54.1127 27.2137 61.5248C27.2227 65.7295 27.2496 69.2334 27.2766 69.3053C27.3035 69.3682 27.4113 69.467 27.5191 69.5209C27.6539 69.5928 30.2145 69.6107 35.7848 69.6017L43.8617 69.5838L44.0324 69.3682Z" fill="black"/>
<path d="M49.8004 71.5693C48.7582 71.2369 47.8867 70.3744 47.6801 69.449C47.6531 69.3232 47.6172 62.3334 47.6082 53.906C47.5902 42.2264 47.6082 38.4978 47.6891 38.2193C47.8328 37.7342 48.3898 37.1142 48.9289 36.8447C49.2793 36.665 49.5578 36.6111 50.5281 36.5572C52.3879 36.4494 53.7086 36.0271 55.1102 35.0928C56.5027 34.1674 57.7695 32.5142 57.7695 31.6158C57.7695 31.2924 57.7516 31.2654 57.4371 31.1846C57.2484 31.1396 56.8172 31.0498 56.4668 30.9959C55.2988 30.8072 54.1937 30.0975 53.3941 29.0283C52.2621 27.5279 52.0734 25.3717 52.9359 23.6377C53.3492 22.7842 54.4004 21.751 55.2629 21.3467C56.5746 20.7178 56.1613 20.7447 64.966 20.7717L72.9082 20.7986L73.5371 21.0592C75.6754 21.9396 76.9422 23.7455 76.9422 25.9197C76.9422 27.3842 76.466 28.4982 75.3789 29.5674C74.4176 30.5197 73.6359 30.8881 72.0367 31.1307C71.6055 31.1935 71.4887 31.4002 71.6234 31.8584C72.3242 34.4189 75.7113 36.5662 79.0625 36.5662C80.5719 36.5662 81.5961 37.4826 81.7578 38.965C81.7938 39.3514 81.8207 46.3412 81.8117 54.49L81.8027 69.3142L81.5512 69.8623C81.2367 70.5451 80.7066 71.0752 80.0059 71.3986L79.4668 71.6502L64.8223 71.6682C52.882 71.6771 50.1059 71.6592 49.8004 71.5693ZM79.1074 69.5029C79.2781 69.431 79.5027 69.2334 79.6016 69.0717C79.7812 68.7752 79.7812 68.6584 79.7812 53.9689V39.1627L79.5656 38.956C79.3949 38.7764 79.2242 38.7314 78.6492 38.6865C76.8523 38.5428 75.4059 38.1385 74.0582 37.4107C71.0305 35.7756 69.027 32.685 69.6469 30.6185C69.7816 30.1783 70.3477 29.5135 70.8059 29.2799C71.0035 29.181 71.4887 29.0642 71.902 29.0103C73.2047 28.8486 74.1121 28.2646 74.6242 27.2494C74.8488 26.7912 74.8848 26.6295 74.8848 25.9646C74.8848 25.2998 74.8488 25.1291 74.6242 24.6709C74.148 23.7096 73.3215 23.0986 72.2254 22.91C71.8391 22.8471 69.2785 22.8201 64.2832 22.8381L56.916 22.865L56.4039 23.0717C55.7211 23.3502 55.0562 23.9611 54.7418 24.599C54.5172 25.0482 54.4902 25.21 54.4902 25.9646C54.4902 26.6654 54.5262 26.89 54.6969 27.2314C55.218 28.2826 56.0805 28.8576 57.4012 29.0193C58.3445 29.1271 58.8746 29.3877 59.3059 29.9627C59.9168 30.7533 59.9887 31.5709 59.5664 32.7838C58.5332 35.7666 54.7508 38.426 51.3008 38.5967C50.1508 38.6596 49.8363 38.7494 49.6926 39.0459C49.6207 39.2076 49.5938 43.1068 49.5938 54.0049C49.5938 66.2775 49.6117 68.7842 49.7195 69.0267C49.9801 69.6736 48.857 69.6287 64.6246 69.6287C76.7625 69.6287 78.8469 69.6107 79.1074 69.5029Z" fill="black"/>
</g>
</g>
</svg>

</g>
<g id="Black-S" transform="matrix(1 0 0 1 2887.4 614.7705)">
<svg width="92" height="92" viewBox="0 0 92 92" fill="none" xmlns="http://www.w3.org/2000/svg">
<g id="3.weights.s">
<g id="Vector">
<path d="M16.8457 53.5916C20.6461 53.5916 20.5922 53.5826 21.4727 54.4092C23.1437 55.9724 22.6137 58.6228 20.4664 59.3955C20.0711 59.5302 20.0531 59.5842 20.3316 59.8447C20.7629 60.258 21.2211 60.4916 22.2094 60.7881C22.8383 60.9677 23.3953 61.5158 23.5121 62.0548C23.5481 62.2435 23.584 64.1123 23.584 66.2147C23.584 70.4912 23.584 70.4822 22.9731 71.0752C22.3262 71.6951 22.3261 71.6951 16.8547 71.6861C14.1775 71.6861 11.8686 71.6412 11.7157 71.5962C11.1676 71.4345 10.5746 70.9584 10.314 70.4463L10.0625 69.9701V66.0709C10.0625 61.7674 10.0625 61.7853 10.6195 61.2103C10.8262 60.9947 11.1047 60.851 11.6258 60.6893C12.3715 60.4647 13.0274 60.1052 13.3328 59.7549C13.4317 59.656 13.4856 59.5572 13.4676 59.5392C13.4496 59.5302 13.2071 59.4135 12.9286 59.2787C11.6258 58.6678 10.9879 57.4908 11.2215 56.1791C11.4282 55.074 12.0211 54.2924 13.0184 53.8252L13.5215 53.5916H16.8457Z" fill="black"/>
<path d="M26.7914 71.5244C26.1445 71.2998 25.6953 70.9135 25.4078 70.3385L25.1652 69.8533L25.1113 53.0525L25.3359 52.6572C25.6414 52.1182 25.9648 51.9475 27.1059 51.7498C28.3637 51.5252 29.334 51.058 30.1336 50.2764C30.6367 49.7912 31.1668 49.0096 31.059 48.9107C31.041 48.8838 30.7266 48.785 30.3762 48.6861C29.0195 48.3178 28.2289 47.7068 27.7348 46.6467C26.8184 44.6791 27.8336 42.2803 29.882 41.5975C30.4121 41.4178 30.6008 41.4088 35.8566 41.4357L41.2832 41.4627L41.7953 41.7142C42.5859 42.1006 43.1609 42.6756 43.5473 43.4662C43.8797 44.1221 43.8887 44.176 43.8887 45.1014C43.8887 46.0178 43.8797 46.0717 43.5473 46.7365C43.0262 47.7967 42.1367 48.4705 40.9508 48.7041C40.6543 48.767 40.3937 48.8658 40.3668 48.9287C40.223 49.315 41.5527 50.7166 42.532 51.2018C43.0531 51.4533 43.3316 51.5342 44.859 51.8396C45.5059 51.9654 46.018 52.4146 46.1707 52.9807C46.2426 53.2412 46.2695 55.7209 46.2516 61.5607L46.2246 69.7724L46 70.2127C45.8652 70.4732 45.5688 70.8146 45.2992 71.0392C44.4547 71.7221 44.9129 71.6951 35.5871 71.6951C27.7617 71.6861 27.2406 71.6771 26.7914 71.5244ZM44.0324 69.3682C44.1941 69.1705 44.2031 68.91 44.2031 61.4978V53.8342L43.8258 53.7713C41.3281 53.385 38.7406 51.2377 38.3633 49.2432C38.1207 47.9494 38.7766 47.0689 40.1602 46.8084C40.4746 46.7545 40.8879 46.6287 41.0766 46.5299C41.418 46.3592 41.7953 45.8201 41.9031 45.3439C42.0379 44.76 41.5258 43.8615 40.9059 43.61C40.6723 43.5111 39.6211 43.4842 35.65 43.4842C31.0051 43.4842 30.6547 43.5021 30.3133 43.6549C29.3879 44.0771 29.1184 45.2271 29.7473 46.0807C30.0707 46.5299 30.4121 46.7096 31.1488 46.8174C31.8137 46.9072 32.0922 47.042 32.4875 47.4283C32.9547 47.8865 33.0895 48.2728 33.0445 48.9646C32.9547 50.1326 31.8766 51.633 30.4301 52.5943C29.5406 53.1783 29.0734 53.385 28.202 53.5916C27.8336 53.6814 27.4652 53.7803 27.3664 53.8072C27.2047 53.8701 27.1957 54.1127 27.2137 61.5248C27.2227 65.7295 27.2496 69.2334 27.2766 69.3053C27.3035 69.3682 27.4113 69.467 27.5191 69.5209C27.6539 69.5928 30.2145 69.6107 35.7848 69.6017L43.8617 69.5838L44.0324 69.3682Z" fill="black"/>
<path d="M49.8004 71.5693C48.7582 71.2369 47.8867 70.3744 47.6801 69.449C47.6531 69.3232 47.6172 62.3334 47.6082 53.906C47.5902 42.2264 47.6082 38.4978 47.6891 38.2193C47.8328 37.7342 48.3898 37.1142 48.9289 36.8447C49.2793 36.665 49.5578 36.6111 50.5281 36.5572C52.3879 36.4494 53.7086 36.0271 55.1102 35.0928C56.5027 34.1674 57.7695 32.5142 57.7695 31.6158C57.7695 31.2924 57.7516 31.2654 57.4371 31.1846C57.2484 31.1396 56.8172 31.0498 56.4668 30.9959C55.2988 30.8072 54.1937 30.0975 53.3941 29.0283C52.2621 27.5279 52.0734 25.3717 52.9359 23.6377C53.3492 22.7842 54.4004 21.751 55.2629 21.3467C56.5746 20.7178 56.1613 20.7447 64.966 20.7717L72.9082 20.7986L73.5371 21.0592C75.6754 21.9396 76.9422 23.7455 76.9422 25.9197C76.9422 27.3842 76.466 28.4982 75.3789 29.5674C74.4176 30.5197 73.6359 30.8881 72.0367 31.1307C71.6055 31.1935 71.4887 31.4002 71.6234 31.8584C72.3242 34.4189 75.7113 36.5662 79.0625 36.5662C80.5719 36.5662 81.5961 37.4826 81.7578 38.965C81.7938 39.3514 81.8207 46.3412 81.8117 54.49L81.8027 69.3142L81.5512 69.8623C81.2367 70.5451 80.7066 71.0752 80.0059 71.3986L79.4668 71.6502L64.8223 71.6682C52.882 71.6771 50.1059 71.6592 49.8004 71.5693ZM79.1074 69.5029C79.2781 69.431 79.5027 69.2334 79.6016 69.0717C79.7812 68.7752 79.7812 68.6584 79.7812 53.9689V39.1627L79.5656 38.956C79.3949 38.7764 79.2242 38.7314 78.6492 38.6865C76.8523 38.5428 75.4059 38.1385 74.0582 37.4107C71.0305 35.7756 69.027 32.685 69.6469 30.6185C69.7816 30.1783 70.3477 29.5135 70.8059 29.2799C71.0035 29.181 71.4887 29.0642 71.902 29.0103C73.2047 28.8486 74.1121 28.2646 74.6242 27.2494C74.8488 26.7912 74.8848 26.6295 74.8848 25.9646C74.8848 25.2998 74.8488 25.1291 74.6242 24.6709C74.148 23.7096 73.3215 23.0986 72.2254 22.91C71.8391 22.8471 69.2785 22.8201 64.2832 22.8381L56.916 22.865L56.4039 23.0717C55.7211 23.3502 55.0562 23.9611 54.7418 24.599C54.5172 25.0482 54.4902 25.21 54.4902 25.9646C54.4902 26.6654 54.5262 26.89 54.6969 27.2314C55.218 28.2826 56.0805 28.8576 57.4012 29.0193C58.3445 29.1271 58.8746 29.3877 59.3059 29.9627C59.9168 30.7533 59.9887 31.5709 59.5664 32.7838C58.5332 35.7666 54.7508 38.426 51.3008 38.5967C50.1508 38.6596 49.8363 38.7494 49.6926 39.0459C49.6207 39.2076 49.5938 43.1068 49.5938 54.0049C49.5938 66.2775 49.6117 68.7842 49.7195 69.0267C49.9801 69.6736 48.857 69.6287 64.6246 69.6287C76.7625 69.6287 78.8469 69.6107 79.1074 69.5029Z" fill="black"/>
</g>
</g>
</svg>

</g>
</g>
</svg>