<?xml version="1.0" encoding="UTF-8"?>
<!DOCTYPE svg
PUBLIC "-//W3C//DTD SVG 1.1//EN"
     "http://www.w3.org/Graphics/SVG/1.1/DTD/svg11.dtd">
     <!--Created with SF Symbol Generator (v1.0.0)-->

<svg version="1.1" xmlns="http://www.w3.org/2000/svg" xmlns:xlink="http://www.w3.org/1999/xlink" width="3300" height="2200">
<!--glyph: "3.weights.s.medium", point size: 100.0-->
<style>.SFSymbolsPreviewWireframe {fill:none;opacity:1.0;stroke:black;stroke-width:0.5}
</style>
<g id="Notes">
<rect height="2200" id="artboard" style="fill:white;opacity:1" width="3300" x="0" y="0"/>
<line style="fill:none;stroke:black;opacity:1;stroke-width:0.5;" x1="263" x2="3036" y1="292" y2="292"/>
<text style="stroke:none;fill:black;font-family:sans-serif;font-size:13;font-weight:bold;" transform="matrix(1 0 0 1 263 322)">Weight/Scale Variations</text>
<text style="stroke:none;fill:black;font-family:sans-serif;font-size:13;text-anchor:middle;" transform="matrix(1 0 0 1 559.711 322)">Ultralight</text>
<text style="stroke:none;fill:black;font-family:sans-serif;font-size:13;text-anchor:middle;" transform="matrix(1 0 0 1 856.422 322)">Thin</text>
<text style="stroke:none;fill:black;font-family:sans-serif;font-size:13;text-anchor:middle;" transform="matrix(1 0 0 1 1153.13 322)">Light</text>
<text style="stroke:none;fill:black;font-family:sans-serif;font-size:13;text-anchor:middle;" transform="matrix(1 0 0 1 1449.84 322)">Regular</text>
<text style="stroke:none;fill:black;font-family:sans-serif;font-size:13;text-anchor:middle;" transform="matrix(1 0 0 1 1746.56 322)">Medium</text>
<text style="stroke:none;fill:black;font-family:sans-serif;font-size:13;text-anchor:middle;" transform="matrix(1 0 0 1 2043.27 322)">Semibold</text>
<text style="stroke:none;fill:black;font-family:sans-serif;font-size:13;text-anchor:middle;" transform="matrix(1 0 0 1 2339.98 322)">Bold</text>
<text style="stroke:none;fill:black;font-family:sans-serif;font-size:13;text-anchor:middle;" transform="matrix(1 0 0 1 2636.69 322)">Heavy</text>
<text style="stroke:none;fill:black;font-family:sans-serif;font-size:13;text-anchor:middle;" transform="matrix(1 0 0 1 2933.4 322)">Black</text>
<line style="fill:none;stroke:black;opacity:1;stroke-width:0.5;" x1="263" x2="3036" y1="1903" y2="1903"/>
<text style="stroke:none;fill:black;font-family:sans-serif;font-size:13;font-weight:bold;" transform="matrix(1 0 0 1 263 1953)">Design Variations</text>
<text style="stroke:none;fill:black;font-family:sans-serif;font-size:13;" transform="matrix(1 0 0 1 263 1971)">Symbols are supported in up to nine weights and three scales.</text>
<text style="stroke:none;fill:black;font-family:sans-serif;font-size:13;" transform="matrix(1 0 0 1 263 1989)">For optimal layout with text and other symbols, vertically align</text>
<text style="stroke:none;fill:black;font-family:sans-serif;font-size:13;" transform="matrix(1 0 0 1 263 2007)">symbols with the adjacent text.</text>
<line style="fill:none;stroke:#00AEEF;stroke-width:0.5;opacity:1.0;" x1="776" x2="776" y1="1919" y2="1933"/>
<text style="stroke:none;fill:black;font-family:sans-serif;font-size:13;font-weight:bold;" transform="matrix(1 0 0 1 776 1953)">Margins</text>
<text style="stroke:none;fill:black;font-family:sans-serif;font-size:13;" transform="matrix(1 0 0 1 776 1971)">Leading and trailing margins on the left and right side of each symbol</text>
<text style="stroke:none;fill:black;font-family:sans-serif;font-size:13;" transform="matrix(1 0 0 1 776 1989)">can be adjusted by modifying the x-location of the margin guidelines.</text>
<text style="stroke:none;fill:black;font-family:sans-serif;font-size:13;" transform="matrix(1 0 0 1 776 2007)">Modifications are automatically applied proportionally to all</text>
<text style="stroke:none;fill:black;font-family:sans-serif;font-size:13;" transform="matrix(1 0 0 1 776 2025)">scales and weights.</text>
<text style="stroke:none;fill:black;font-family:sans-serif;font-size:13;font-weight:bold;" transform="matrix(1 0 0 1 1289 1953)">Exporting</text>
<text style="stroke:none;fill:black;font-family:sans-serif;font-size:13;" transform="matrix(1 0 0 1 1289 1971)">Symbols should be outlined when exporting to ensure the</text>
<text style="stroke:none;fill:black;font-family:sans-serif;font-size:13;" transform="matrix(1 0 0 1 1289 1989)">design is preserved when submitting to Xcode.</text>
<text id="template-version" style="stroke:none;fill:black;font-family:sans-serif;font-size:13;text-anchor:end;" transform="matrix(1 0 0 1 3036 1933)">Template v.5.0</text>
<text style="stroke:none;fill:black;font-family:sans-serif;font-size:13;text-anchor:end;" transform="matrix(1 0 0 1 3036 1951)">Requires Xcode 15 or greater</text>
<text id="descriptive-name" style="stroke:none;fill:black;font-family:sans-serif;font-size:13;text-anchor:end;" transform="matrix(1 0 0 1 3036 1969)">Generated from 3.weights.s</text>
<text style="stroke:none;fill:black;font-family:sans-serif;font-size:13;text-anchor:end;" transform="matrix(1 0 0 1 3036 1987)">Typeset at 100.0 points</text>
<text style="stroke:none;fill:black;font-family:sans-serif;font-size:13;" transform="matrix(1 0 0 1 263 726)">Small</text>
<text style="stroke:none;fill:black;font-family:sans-serif;font-size:13;" transform="matrix(1 0 0 1 263 1156)">Medium</text>
<text style="stroke:none;fill:black;font-family:sans-serif;font-size:13;" transform="matrix(1 0 0 1 263 1586)">Large</text>
</g>
<g id="Guides">
<g id="H-reference" style="fill:#27AAE1;stroke:none;" transform="matrix(1 0 0 1 339 696)">
 <path d="M0.993654 0L3.63775 0L29.3281-67.1323L30.0303-67.1323L30.0303-70.459L28.1226-70.459ZM11.6885-24.4799L46.9815-24.4799L46.2315-26.7285L12.4385-26.7285ZM55.1196 0L57.7637 0L30.6382-70.459L29.4326-70.459L29.4326-67.1323Z"/>
</g>
<line id="Baseline-S" style="fill:none;stroke:#27AAE1;opacity:1;stroke-width:0.5;" x1="263" x2="3036" y1="696" y2="696"/>
<line id="Capline-S" style="fill:none;stroke:#27AAE1;opacity:1;stroke-width:0.5;" x1="263" x2="3036" y1="625.541" y2="625.541"/>
<g id="H-reference" style="fill:#27AAE1;stroke:none;" transform="matrix(1 0 0 1 339 1126)">
 <path d="M0.993654 0L3.63775 0L29.3281-67.1323L30.0303-67.1323L30.0303-70.459L28.1226-70.459ZM11.6885-24.4799L46.9815-24.4799L46.2315-26.7285L12.4385-26.7285ZM55.1196 0L57.7637 0L30.6382-70.459L29.4326-70.459L29.4326-67.1323Z"/>
</g>
<line id="Baseline-M" style="fill:none;stroke:#27AAE1;opacity:1;stroke-width:0.5;" x1="263" x2="3036" y1="1126" y2="1126"/>
<line id="Capline-M" style="fill:none;stroke:#27AAE1;opacity:1;stroke-width:0.5;" x1="263" x2="3036" y1="1055.54" y2="1055.54"/>
<g id="H-reference" style="fill:#27AAE1;stroke:none;" transform="matrix(1 0 0 1 339 1556)">
 <path d="M0.993654 0L3.63775 0L29.3281-67.1323L30.0303-67.1323L30.0303-70.459L28.1226-70.459ZM11.6885-24.4799L46.9815-24.4799L46.2315-26.7285L12.4385-26.7285ZM55.1196 0L57.7637 0L30.6382-70.459L29.4326-70.459L29.4326-67.1323Z"/>
</g>
<line id="Baseline-L" style="fill:none;stroke:#27AAE1;opacity:1;stroke-width:0.5;" x1="263" x2="3036" y1="1556" y2="1556"/>
<line id="Capline-L" style="fill:none;stroke:#27AAE1;opacity:1;stroke-width:0.5;" x1="263" x2="3036" y1="1485.54" y2="1485.54"/>
<line id="left-margin-Ultralight-S" style="fill:none;stroke:#00AEEF;stroke-width:0.5;opacity:1.0;" x1="513.711" x2="513.711" y1="600.785" y2="720.121"/>
<line id="right-margin-Ultralight-S" style="fill:none;stroke:#00AEEF;stroke-width:0.5;opacity:1.0;" x1="605.711" x2="605.711" y1="600.785" y2="720.121"/>
<line id="left-margin-Regular-S" style="fill:none;stroke:#00AEEF;stroke-width:0.5;opacity:1.0;" x1="1403.84" x2="1403.84" y1="600.785" y2="720.121"/>
<line id="right-margin-Regular-S" style="fill:none;stroke:#00AEEF;stroke-width:0.5;opacity:1.0;" x1="1495.84" x2="1495.84" y1="600.785" y2="720.121"/>
<line id="left-margin-Black-S" style="fill:none;stroke:#00AEEF;stroke-width:0.5;opacity:1.0;" x1="2887.4" x2="2887.4" y1="600.785" y2="720.121"/>
<line id="right-margin-Black-S" style="fill:none;stroke:#00AEEF;stroke-width:0.5;opacity:1.0;" x1="2979.4" x2="2979.4" y1="600.785" y2="720.121"/>
</g>
<g id="Symbols">
<g id="Ultralight-S" transform="matrix(1 0 0 1 513.711 614.7705)">
<svg width="92" height="92" viewBox="0 0 92 92" fill="none" xmlns="http://www.w3.org/2000/svg">
<g id="3.weights.s" clip-path="url(#clip0_24_42)">
<g id="Vector">
<path d="M8.41187 55.7703C13.3015 55.7703 13.2322 55.7587 14.365 56.8222C16.515 58.8335 15.833 62.2435 13.0703 63.2376C12.5617 63.411 12.5386 63.4804 12.897 63.8156C13.4518 64.3473 14.0413 64.6478 15.3128 65.0293C16.122 65.2605 16.8387 65.9656 16.989 66.6592C17.0352 66.9019 17.0814 69.3063 17.0814 72.0112C17.0814 77.5134 17.0814 77.5019 16.2954 78.2648C15.4631 79.0624 15.4631 79.0624 8.42345 79.0509C4.97885 79.0509 2.00816 78.993 1.81152 78.9352C1.10639 78.7271 0.343458 78.1145 0.00823593 77.4556L-0.31543 76.843V71.8262C-0.31543 66.2894 -0.315431 66.3124 0.401215 65.5726C0.667078 65.2952 1.02544 65.1102 1.69588 64.9021C2.65531 64.6131 3.4992 64.1508 3.89222 63.6999C4.01936 63.5728 4.08871 63.4456 4.06559 63.4225C4.04248 63.411 3.73035 63.2607 3.37202 63.0874C1.69591 62.3013 0.875222 60.787 1.17577 59.0993C1.44164 57.6775 2.20451 56.6719 3.48758 56.0708L4.13491 55.7703H8.41187Z" fill="black"/>
<path d="M21.2081 78.8428C20.3758 78.5538 19.7979 78.0567 19.428 77.3169L19.1159 76.6927L19.0465 55.0767L19.3355 54.5681C19.7285 53.8745 20.1447 53.6549 21.6127 53.4006C23.231 53.1116 24.4794 52.5105 25.5082 51.5049C26.1555 50.8806 26.8375 49.875 26.6988 49.7478C26.6757 49.7132 26.2711 49.586 25.8203 49.4588C24.0748 48.9849 23.0576 48.1989 22.4219 46.8349C21.2428 44.3034 22.549 41.217 25.1845 40.3385C25.8666 40.1073 26.1093 40.0957 32.8715 40.1304L39.8534 40.1651L40.5123 40.4888C41.5295 40.9858 42.2693 41.7256 42.7664 42.7428C43.1941 43.5867 43.2056 43.656 43.2056 44.8467C43.2056 46.0257 43.1941 46.0951 42.7664 46.9505C42.0959 48.3145 40.9515 49.1814 39.4257 49.482C39.0442 49.5629 38.709 49.69 38.6743 49.7709C38.4894 50.268 40.2002 52.0713 41.4601 52.6955C42.1306 53.0191 42.4889 53.1232 44.454 53.5162C45.2863 53.678 45.9452 54.256 46.1417 54.9842C46.2342 55.3194 46.2688 58.5098 46.2457 66.0234L46.2111 76.5887L45.9221 77.1551C45.7487 77.4903 45.3672 77.9296 45.0204 78.2186C43.9339 79.0971 44.5234 79.0624 32.5248 79.0624C22.4565 79.0508 21.7861 79.0393 21.2081 78.8428ZM43.3906 76.0685C43.5986 75.8142 43.6102 75.479 43.6102 65.9425V56.0824L43.1247 56.0014C39.9112 55.5044 36.5821 52.7417 36.0966 50.1755C35.7845 48.511 36.6283 47.3782 38.4085 47.0429C38.8131 46.9736 39.3448 46.8117 39.5875 46.6846C40.0268 46.465 40.5123 45.7714 40.651 45.1588C40.8244 44.4074 40.1655 43.2515 39.3679 42.9278C39.0674 42.8006 37.7149 42.766 32.6057 42.766C26.6295 42.766 26.1787 42.7891 25.7394 42.9856C24.5488 43.5289 24.202 45.0085 25.0112 46.1066C25.4273 46.6846 25.8666 46.9158 26.8144 47.0545C27.6698 47.1701 28.0282 47.3435 28.5368 47.8405C29.1379 48.4301 29.3112 48.9271 29.2534 49.8172C29.1379 51.3199 27.7507 53.2503 25.8897 54.4872C24.7453 55.2385 24.1442 55.5044 23.0229 55.7703C22.549 55.8859 22.0751 56.013 21.9479 56.0477C21.7399 56.1286 21.7283 56.4407 21.7514 65.9772C21.763 71.387 21.7977 75.8951 21.8323 75.9876C21.867 76.0685 22.0057 76.1957 22.1444 76.265C22.3178 76.3575 25.6122 76.3806 32.7791 76.3691L43.1709 76.3459L43.3906 76.0685Z" fill="black"/>
<path d="M50.8117 78.9006C49.4708 78.4729 48.3496 77.3632 48.0837 76.1725C48.049 76.0107 48.0028 67.0175 47.9912 56.1748C47.9681 41.1476 47.9912 36.3505 48.0952 35.9922C48.2802 35.3679 48.9969 34.5703 49.6904 34.2236C50.1412 33.9924 50.4996 33.923 51.748 33.8537C54.1408 33.715 55.84 33.1717 57.6433 31.9695C59.435 30.7789 61.0649 28.6519 61.0649 27.496C61.0649 27.0799 61.0417 27.0452 60.6372 26.9412C60.3944 26.8834 59.8396 26.7678 59.3888 26.6984C57.886 26.4557 56.4642 25.5425 55.4354 24.1669C53.979 22.2365 53.7362 19.4622 54.8459 17.2313C55.3776 16.1331 56.7301 14.8038 57.8398 14.2836C59.5275 13.4745 58.9957 13.5092 70.3239 13.5438L80.5424 13.5785L81.3516 13.9137C84.1027 15.0466 85.7326 17.37 85.7326 20.1674C85.7326 22.0515 85.1199 23.4849 83.7212 24.8605C82.4844 26.0858 81.4787 26.5597 79.4211 26.8718C78.8663 26.9527 78.716 27.2186 78.8894 27.8081C79.7911 31.1025 84.1489 33.8652 88.4606 33.8652C90.4026 33.8652 91.7203 35.0443 91.9284 36.9516C91.9746 37.4486 92.0093 46.4418 91.9978 56.9262L91.9862 75.9991L91.6625 76.7043C91.2579 77.5828 90.5759 78.2648 89.6743 78.6809L88.9808 79.0046L70.139 79.0277C54.7766 79.0393 51.2047 79.0161 50.8117 78.9006ZM88.5184 76.2419C88.738 76.1494 89.027 75.8951 89.1541 75.687C89.3853 75.3056 89.3853 75.1553 89.3853 56.2557V37.2059L89.1079 36.94C88.8883 36.7088 88.6687 36.651 87.9289 36.5932C85.617 36.4083 83.7559 35.8881 82.022 34.9518C78.1265 32.848 75.5488 28.8716 76.3464 26.2129C76.5197 25.6465 77.248 24.7911 77.8375 24.4906C78.0918 24.3634 78.716 24.2131 79.2478 24.1438C80.9239 23.9357 82.0914 23.1844 82.7502 21.8782C83.0392 21.2886 83.0855 21.0806 83.0855 20.2252C83.0855 19.3698 83.0392 19.1501 82.7502 18.5606C82.1376 17.3238 81.0741 16.5377 79.6639 16.295C79.1668 16.2141 75.8724 16.1794 69.4454 16.2025L59.9667 16.2372L59.3078 16.503C58.4293 16.8614 57.5739 17.6474 57.1693 18.4681C56.8804 19.0461 56.8457 19.2542 56.8457 20.2252C56.8457 21.1268 56.8919 21.4158 57.1116 21.855C57.782 23.2075 58.8917 23.9473 60.5909 24.1554C61.8047 24.2941 62.4867 24.6293 63.0415 25.3691C63.8275 26.3863 63.92 27.4382 63.3767 28.9987C62.0474 32.8364 57.1809 36.258 52.7421 36.4776C51.2625 36.5586 50.8579 36.6742 50.673 37.0556C50.5805 37.2637 50.5458 42.2804 50.5458 56.302C50.5458 72.0921 50.5689 75.3171 50.7077 75.6292C51.0429 76.4615 49.598 76.4037 69.8847 76.4037C85.5014 76.4037 88.1832 76.3806 88.5184 76.2419Z" fill="black"/>
</g>
</g>
<defs>
<clipPath id="clip0_24_42">
<rect width="92" height="92" fill="white"/>
</clipPath>
</defs>
</svg>

</g>
<g id="Regular-S" transform="matrix(1 0 0 1 1403.84 614.7705)">
<svg width="92" height="92" viewBox="0 0 92 92" fill="none" xmlns="http://www.w3.org/2000/svg">
<g id="3.weights.s" clip-path="url(#clip0_24_42)">
<g id="Vector">
<path d="M8.41187 55.7703C13.3015 55.7703 13.2322 55.7587 14.365 56.8222C16.515 58.8335 15.833 62.2435 13.0703 63.2376C12.5617 63.411 12.5386 63.4804 12.897 63.8156C13.4518 64.3473 14.0413 64.6478 15.3128 65.0293C16.122 65.2605 16.8387 65.9656 16.989 66.6592C17.0352 66.9019 17.0814 69.3063 17.0814 72.0112C17.0814 77.5134 17.0814 77.5019 16.2954 78.2648C15.4631 79.0624 15.4631 79.0624 8.42345 79.0509C4.97885 79.0509 2.00816 78.993 1.81152 78.9352C1.10639 78.7271 0.343458 78.1145 0.00823593 77.4556L-0.31543 76.843V71.8262C-0.31543 66.2894 -0.315431 66.3124 0.401215 65.5726C0.667078 65.2952 1.02544 65.1102 1.69588 64.9021C2.65531 64.6131 3.4992 64.1508 3.89222 63.6999C4.01936 63.5728 4.08871 63.4456 4.06559 63.4225C4.04248 63.411 3.73035 63.2607 3.37202 63.0874C1.69591 62.3013 0.875222 60.787 1.17577 59.0993C1.44164 57.6775 2.20451 56.6719 3.48758 56.0708L4.13491 55.7703H8.41187Z" fill="black"/>
<path d="M21.2081 78.8428C20.3758 78.5538 19.7979 78.0567 19.428 77.3169L19.1159 76.6927L19.0465 55.0767L19.3355 54.5681C19.7285 53.8745 20.1447 53.6549 21.6127 53.4006C23.231 53.1116 24.4794 52.5105 25.5082 51.5049C26.1555 50.8806 26.8375 49.875 26.6988 49.7478C26.6757 49.7132 26.2711 49.586 25.8203 49.4588C24.0748 48.9849 23.0576 48.1989 22.4219 46.8349C21.2428 44.3034 22.549 41.217 25.1845 40.3385C25.8666 40.1073 26.1093 40.0957 32.8715 40.1304L39.8534 40.1651L40.5123 40.4888C41.5295 40.9858 42.2693 41.7256 42.7664 42.7428C43.1941 43.5867 43.2056 43.656 43.2056 44.8467C43.2056 46.0257 43.1941 46.0951 42.7664 46.9505C42.0959 48.3145 40.9515 49.1814 39.4257 49.482C39.0442 49.5629 38.709 49.69 38.6743 49.7709C38.4894 50.268 40.2002 52.0713 41.4601 52.6955C42.1306 53.0191 42.4889 53.1232 44.454 53.5162C45.2863 53.678 45.9452 54.256 46.1417 54.9842C46.2342 55.3194 46.2688 58.5098 46.2457 66.0234L46.2111 76.5887L45.9221 77.1551C45.7487 77.4903 45.3672 77.9296 45.0204 78.2186C43.9339 79.0971 44.5234 79.0624 32.5248 79.0624C22.4565 79.0508 21.7861 79.0393 21.2081 78.8428ZM43.3906 76.0685C43.5986 75.8142 43.6102 75.479 43.6102 65.9425V56.0824L43.1247 56.0014C39.9112 55.5044 36.5821 52.7417 36.0966 50.1755C35.7845 48.511 36.6283 47.3782 38.4085 47.0429C38.8131 46.9736 39.3448 46.8117 39.5875 46.6846C40.0268 46.465 40.5123 45.7714 40.651 45.1588C40.8244 44.4074 40.1655 43.2515 39.3679 42.9278C39.0674 42.8006 37.7149 42.766 32.6057 42.766C26.6295 42.766 26.1787 42.7891 25.7394 42.9856C24.5488 43.5289 24.202 45.0085 25.0112 46.1066C25.4273 46.6846 25.8666 46.9158 26.8144 47.0545C27.6698 47.1701 28.0282 47.3435 28.5368 47.8405C29.1379 48.4301 29.3112 48.9271 29.2534 49.8172C29.1379 51.3199 27.7507 53.2503 25.8897 54.4872C24.7453 55.2385 24.1442 55.5044 23.0229 55.7703C22.549 55.8859 22.0751 56.013 21.9479 56.0477C21.7399 56.1286 21.7283 56.4407 21.7514 65.9772C21.763 71.387 21.7977 75.8951 21.8323 75.9876C21.867 76.0685 22.0057 76.1957 22.1444 76.265C22.3178 76.3575 25.6122 76.3806 32.7791 76.3691L43.1709 76.3459L43.3906 76.0685Z" fill="black"/>
<path d="M50.8117 78.9006C49.4708 78.4729 48.3496 77.3632 48.0837 76.1725C48.049 76.0107 48.0028 67.0175 47.9912 56.1748C47.9681 41.1476 47.9912 36.3505 48.0952 35.9922C48.2802 35.3679 48.9969 34.5703 49.6904 34.2236C50.1412 33.9924 50.4996 33.923 51.748 33.8537C54.1408 33.715 55.84 33.1717 57.6433 31.9695C59.435 30.7789 61.0649 28.6519 61.0649 27.496C61.0649 27.0799 61.0417 27.0452 60.6372 26.9412C60.3944 26.8834 59.8396 26.7678 59.3888 26.6984C57.886 26.4557 56.4642 25.5425 55.4354 24.1669C53.979 22.2365 53.7362 19.4622 54.8459 17.2313C55.3776 16.1331 56.7301 14.8038 57.8398 14.2836C59.5275 13.4745 58.9957 13.5092 70.3239 13.5438L80.5424 13.5785L81.3516 13.9137C84.1027 15.0466 85.7326 17.37 85.7326 20.1674C85.7326 22.0515 85.1199 23.4849 83.7212 24.8605C82.4844 26.0858 81.4787 26.5597 79.4211 26.8718C78.8663 26.9527 78.716 27.2186 78.8894 27.8081C79.7911 31.1025 84.1489 33.8652 88.4606 33.8652C90.4026 33.8652 91.7203 35.0443 91.9284 36.9516C91.9746 37.4486 92.0093 46.4418 91.9978 56.9262L91.9862 75.9991L91.6625 76.7043C91.2579 77.5828 90.5759 78.2648 89.6743 78.6809L88.9808 79.0046L70.139 79.0277C54.7766 79.0393 51.2047 79.0161 50.8117 78.9006ZM88.5184 76.2419C88.738 76.1494 89.027 75.8951 89.1541 75.687C89.3853 75.3056 89.3853 75.1553 89.3853 56.2557V37.2059L89.1079 36.94C88.8883 36.7088 88.6687 36.651 87.9289 36.5932C85.617 36.4083 83.7559 35.8881 82.022 34.9518C78.1265 32.848 75.5488 28.8716 76.3464 26.2129C76.5197 25.6465 77.248 24.7911 77.8375 24.4906C78.0918 24.3634 78.716 24.2131 79.2478 24.1438C80.9239 23.9357 82.0914 23.1844 82.7502 21.8782C83.0392 21.2886 83.0855 21.0806 83.0855 20.2252C83.0855 19.3698 83.0392 19.1501 82.7502 18.5606C82.1376 17.3238 81.0741 16.5377 79.6639 16.295C79.1668 16.2141 75.8724 16.1794 69.4454 16.2025L59.9667 16.2372L59.3078 16.503C58.4293 16.8614 57.5739 17.6474 57.1693 18.4681C56.8804 19.0461 56.8457 19.2542 56.8457 20.2252C56.8457 21.1268 56.8919 21.4158 57.1116 21.855C57.782 23.2075 58.8917 23.9473 60.5909 24.1554C61.8047 24.2941 62.4867 24.6293 63.0415 25.3691C63.8275 26.3863 63.92 27.4382 63.3767 28.9987C62.0474 32.8364 57.1809 36.258 52.7421 36.4776C51.2625 36.5586 50.8579 36.6742 50.673 37.0556C50.5805 37.2637 50.5458 42.2804 50.5458 56.302C50.5458 72.0921 50.5689 75.3171 50.7077 75.6292C51.0429 76.4615 49.598 76.4037 69.8847 76.4037C85.5014 76.4037 88.1832 76.3806 88.5184 76.2419Z" fill="black"/>
</g>
</g>
<defs>
<clipPath id="clip0_24_42">
<rect width="92" height="92" fill="white"/>
</clipPath>
</defs>
</svg>

</g>
<g id="Black-S" transform="matrix(1 0 0 1 2887.4 614.7705)">
<svg width="92" height="92" viewBox="0 0 92 92" fill="none" xmlns="http://www.w3.org/2000/svg">
<g id="3.weights.s" clip-path="url(#clip0_24_42)">
<g id="Vector">
<path d="M8.41187 55.7703C13.3015 55.7703 13.2322 55.7587 14.365 56.8222C16.515 58.8335 15.833 62.2435 13.0703 63.2376C12.5617 63.411 12.5386 63.4804 12.897 63.8156C13.4518 64.3473 14.0413 64.6478 15.3128 65.0293C16.122 65.2605 16.8387 65.9656 16.989 66.6592C17.0352 66.9019 17.0814 69.3063 17.0814 72.0112C17.0814 77.5134 17.0814 77.5019 16.2954 78.2648C15.4631 79.0624 15.4631 79.0624 8.42345 79.0509C4.97885 79.0509 2.00816 78.993 1.81152 78.9352C1.10639 78.7271 0.343458 78.1145 0.00823593 77.4556L-0.31543 76.843V71.8262C-0.31543 66.2894 -0.315431 66.3124 0.401215 65.5726C0.667078 65.2952 1.02544 65.1102 1.69588 64.9021C2.65531 64.6131 3.4992 64.1508 3.89222 63.6999C4.01936 63.5728 4.08871 63.4456 4.06559 63.4225C4.04248 63.411 3.73035 63.2607 3.37202 63.0874C1.69591 62.3013 0.875222 60.787 1.17577 59.0993C1.44164 57.6775 2.20451 56.6719 3.48758 56.0708L4.13491 55.7703H8.41187Z" fill="black"/>
<path d="M21.2081 78.8428C20.3758 78.5538 19.7979 78.0567 19.428 77.3169L19.1159 76.6927L19.0465 55.0767L19.3355 54.5681C19.7285 53.8745 20.1447 53.6549 21.6127 53.4006C23.231 53.1116 24.4794 52.5105 25.5082 51.5049C26.1555 50.8806 26.8375 49.875 26.6988 49.7478C26.6757 49.7132 26.2711 49.586 25.8203 49.4588C24.0748 48.9849 23.0576 48.1989 22.4219 46.8349C21.2428 44.3034 22.549 41.217 25.1845 40.3385C25.8666 40.1073 26.1093 40.0957 32.8715 40.1304L39.8534 40.1651L40.5123 40.4888C41.5295 40.9858 42.2693 41.7256 42.7664 42.7428C43.1941 43.5867 43.2056 43.656 43.2056 44.8467C43.2056 46.0257 43.1941 46.0951 42.7664 46.9505C42.0959 48.3145 40.9515 49.1814 39.4257 49.482C39.0442 49.5629 38.709 49.69 38.6743 49.7709C38.4894 50.268 40.2002 52.0713 41.4601 52.6955C42.1306 53.0191 42.4889 53.1232 44.454 53.5162C45.2863 53.678 45.9452 54.256 46.1417 54.9842C46.2342 55.3194 46.2688 58.5098 46.2457 66.0234L46.2111 76.5887L45.9221 77.1551C45.7487 77.4903 45.3672 77.9296 45.0204 78.2186C43.9339 79.0971 44.5234 79.0624 32.5248 79.0624C22.4565 79.0508 21.7861 79.0393 21.2081 78.8428ZM43.3906 76.0685C43.5986 75.8142 43.6102 75.479 43.6102 65.9425V56.0824L43.1247 56.0014C39.9112 55.5044 36.5821 52.7417 36.0966 50.1755C35.7845 48.511 36.6283 47.3782 38.4085 47.0429C38.8131 46.9736 39.3448 46.8117 39.5875 46.6846C40.0268 46.465 40.5123 45.7714 40.651 45.1588C40.8244 44.4074 40.1655 43.2515 39.3679 42.9278C39.0674 42.8006 37.7149 42.766 32.6057 42.766C26.6295 42.766 26.1787 42.7891 25.7394 42.9856C24.5488 43.5289 24.202 45.0085 25.0112 46.1066C25.4273 46.6846 25.8666 46.9158 26.8144 47.0545C27.6698 47.1701 28.0282 47.3435 28.5368 47.8405C29.1379 48.4301 29.3112 48.9271 29.2534 49.8172C29.1379 51.3199 27.7507 53.2503 25.8897 54.4872C24.7453 55.2385 24.1442 55.5044 23.0229 55.7703C22.549 55.8859 22.0751 56.013 21.9479 56.0477C21.7399 56.1286 21.7283 56.4407 21.7514 65.9772C21.763 71.387 21.7977 75.8951 21.8323 75.9876C21.867 76.0685 22.0057 76.1957 22.1444 76.265C22.3178 76.3575 25.6122 76.3806 32.7791 76.3691L43.1709 76.3459L43.3906 76.0685Z" fill="black"/>
<path d="M50.8117 78.9006C49.4708 78.4729 48.3496 77.3632 48.0837 76.1725C48.049 76.0107 48.0028 67.0175 47.9912 56.1748C47.9681 41.1476 47.9912 36.3505 48.0952 35.9922C48.2802 35.3679 48.9969 34.5703 49.6904 34.2236C50.1412 33.9924 50.4996 33.923 51.748 33.8537C54.1408 33.715 55.84 33.1717 57.6433 31.9695C59.435 30.7789 61.0649 28.6519 61.0649 27.496C61.0649 27.0799 61.0417 27.0452 60.6372 26.9412C60.3944 26.8834 59.8396 26.7678 59.3888 26.6984C57.886 26.4557 56.4642 25.5425 55.4354 24.1669C53.979 22.2365 53.7362 19.4622 54.8459 17.2313C55.3776 16.1331 56.7301 14.8038 57.8398 14.2836C59.5275 13.4745 58.9957 13.5092 70.3239 13.5438L80.5424 13.5785L81.3516 13.9137C84.1027 15.0466 85.7326 17.37 85.7326 20.1674C85.7326 22.0515 85.1199 23.4849 83.7212 24.8605C82.4844 26.0858 81.4787 26.5597 79.4211 26.8718C78.8663 26.9527 78.716 27.2186 78.8894 27.8081C79.7911 31.1025 84.1489 33.8652 88.4606 33.8652C90.4026 33.8652 91.7203 35.0443 91.9284 36.9516C91.9746 37.4486 92.0093 46.4418 91.9978 56.9262L91.9862 75.9991L91.6625 76.7043C91.2579 77.5828 90.5759 78.2648 89.6743 78.6809L88.9808 79.0046L70.139 79.0277C54.7766 79.0393 51.2047 79.0161 50.8117 78.9006ZM88.5184 76.2419C88.738 76.1494 89.027 75.8951 89.1541 75.687C89.3853 75.3056 89.3853 75.1553 89.3853 56.2557V37.2059L89.1079 36.94C88.8883 36.7088 88.6687 36.651 87.9289 36.5932C85.617 36.4083 83.7559 35.8881 82.022 34.9518C78.1265 32.848 75.5488 28.8716 76.3464 26.2129C76.5197 25.6465 77.248 24.7911 77.8375 24.4906C78.0918 24.3634 78.716 24.2131 79.2478 24.1438C80.9239 23.9357 82.0914 23.1844 82.7502 21.8782C83.0392 21.2886 83.0855 21.0806 83.0855 20.2252C83.0855 19.3698 83.0392 19.1501 82.7502 18.5606C82.1376 17.3238 81.0741 16.5377 79.6639 16.295C79.1668 16.2141 75.8724 16.1794 69.4454 16.2025L59.9667 16.2372L59.3078 16.503C58.4293 16.8614 57.5739 17.6474 57.1693 18.4681C56.8804 19.0461 56.8457 19.2542 56.8457 20.2252C56.8457 21.1268 56.8919 21.4158 57.1116 21.855C57.782 23.2075 58.8917 23.9473 60.5909 24.1554C61.8047 24.2941 62.4867 24.6293 63.0415 25.3691C63.8275 26.3863 63.92 27.4382 63.3767 28.9987C62.0474 32.8364 57.1809 36.258 52.7421 36.4776C51.2625 36.5586 50.8579 36.6742 50.673 37.0556C50.5805 37.2637 50.5458 42.2804 50.5458 56.302C50.5458 72.0921 50.5689 75.3171 50.7077 75.6292C51.0429 76.4615 49.598 76.4037 69.8847 76.4037C85.5014 76.4037 88.1832 76.3806 88.5184 76.2419Z" fill="black"/>
</g>
</g>
<defs>
<clipPath id="clip0_24_42">
<rect width="92" height="92" fill="white"/>
</clipPath>
</defs>
</svg>

</g>
</g>
</svg>