<?xml version="1.0" encoding="UTF-8"?>
<!DOCTYPE svg
PUBLIC "-//W3C//DTD SVG 1.1//EN"
     "http://www.w3.org/Graphics/SVG/1.1/DTD/svg11.dtd">
     <!--Created with SF Symbol Generator (v1.0.0)-->

<svg version="1.1" xmlns="http://www.w3.org/2000/svg" xmlns:xlink="http://www.w3.org/1999/xlink" width="3300" height="2200">
<!--glyph: "liter.bottle.medium", point size: 100.0-->
<style>.SFSymbolsPreviewWireframe {fill:none;opacity:1.0;stroke:black;stroke-width:0.5}
</style>
<g id="Notes">
<rect height="2200" id="artboard" style="fill:white;opacity:1" width="3300" x="0" y="0"/>
<line style="fill:none;stroke:black;opacity:1;stroke-width:0.5;" x1="263" x2="3036" y1="292" y2="292"/>
<text style="stroke:none;fill:black;font-family:sans-serif;font-size:13;font-weight:bold;" transform="matrix(1 0 0 1 263 322)">Weight/Scale Variations</text>
<text style="stroke:none;fill:black;font-family:sans-serif;font-size:13;text-anchor:middle;" transform="matrix(1 0 0 1 559.711 322)">Ultralight</text>
<text style="stroke:none;fill:black;font-family:sans-serif;font-size:13;text-anchor:middle;" transform="matrix(1 0 0 1 856.422 322)">Thin</text>
<text style="stroke:none;fill:black;font-family:sans-serif;font-size:13;text-anchor:middle;" transform="matrix(1 0 0 1 1153.13 322)">Light</text>
<text style="stroke:none;fill:black;font-family:sans-serif;font-size:13;text-anchor:middle;" transform="matrix(1 0 0 1 1449.84 322)">Regular</text>
<text style="stroke:none;fill:black;font-family:sans-serif;font-size:13;text-anchor:middle;" transform="matrix(1 0 0 1 1746.56 322)">Medium</text>
<text style="stroke:none;fill:black;font-family:sans-serif;font-size:13;text-anchor:middle;" transform="matrix(1 0 0 1 2043.27 322)">Semibold</text>
<text style="stroke:none;fill:black;font-family:sans-serif;font-size:13;text-anchor:middle;" transform="matrix(1 0 0 1 2339.98 322)">Bold</text>
<text style="stroke:none;fill:black;font-family:sans-serif;font-size:13;text-anchor:middle;" transform="matrix(1 0 0 1 2636.69 322)">Heavy</text>
<text style="stroke:none;fill:black;font-family:sans-serif;font-size:13;text-anchor:middle;" transform="matrix(1 0 0 1 2933.4 322)">Black</text>
<line style="fill:none;stroke:black;opacity:1;stroke-width:0.5;" x1="263" x2="3036" y1="1903" y2="1903"/>
<text style="stroke:none;fill:black;font-family:sans-serif;font-size:13;font-weight:bold;" transform="matrix(1 0 0 1 263 1953)">Design Variations</text>
<text style="stroke:none;fill:black;font-family:sans-serif;font-size:13;" transform="matrix(1 0 0 1 263 1971)">Symbols are supported in up to nine weights and three scales.</text>
<text style="stroke:none;fill:black;font-family:sans-serif;font-size:13;" transform="matrix(1 0 0 1 263 1989)">For optimal layout with text and other symbols, vertically align</text>
<text style="stroke:none;fill:black;font-family:sans-serif;font-size:13;" transform="matrix(1 0 0 1 263 2007)">symbols with the adjacent text.</text>
<line style="fill:none;stroke:#00AEEF;stroke-width:0.5;opacity:1.0;" x1="776" x2="776" y1="1919" y2="1933"/>
<text style="stroke:none;fill:black;font-family:sans-serif;font-size:13;font-weight:bold;" transform="matrix(1 0 0 1 776 1953)">Margins</text>
<text style="stroke:none;fill:black;font-family:sans-serif;font-size:13;" transform="matrix(1 0 0 1 776 1971)">Leading and trailing margins on the left and right side of each symbol</text>
<text style="stroke:none;fill:black;font-family:sans-serif;font-size:13;" transform="matrix(1 0 0 1 776 1989)">can be adjusted by modifying the x-location of the margin guidelines.</text>
<text style="stroke:none;fill:black;font-family:sans-serif;font-size:13;" transform="matrix(1 0 0 1 776 2007)">Modifications are automatically applied proportionally to all</text>
<text style="stroke:none;fill:black;font-family:sans-serif;font-size:13;" transform="matrix(1 0 0 1 776 2025)">scales and weights.</text>
<text style="stroke:none;fill:black;font-family:sans-serif;font-size:13;font-weight:bold;" transform="matrix(1 0 0 1 1289 1953)">Exporting</text>
<text style="stroke:none;fill:black;font-family:sans-serif;font-size:13;" transform="matrix(1 0 0 1 1289 1971)">Symbols should be outlined when exporting to ensure the</text>
<text style="stroke:none;fill:black;font-family:sans-serif;font-size:13;" transform="matrix(1 0 0 1 1289 1989)">design is preserved when submitting to Xcode.</text>
<text id="template-version" style="stroke:none;fill:black;font-family:sans-serif;font-size:13;text-anchor:end;" transform="matrix(1 0 0 1 3036 1933)">Template v.5.0</text>
<text style="stroke:none;fill:black;font-family:sans-serif;font-size:13;text-anchor:end;" transform="matrix(1 0 0 1 3036 1951)">Requires Xcode 15 or greater</text>
<text id="descriptive-name" style="stroke:none;fill:black;font-family:sans-serif;font-size:13;text-anchor:end;" transform="matrix(1 0 0 1 3036 1969)">Generated from liter.bottle</text>
<text style="stroke:none;fill:black;font-family:sans-serif;font-size:13;text-anchor:end;" transform="matrix(1 0 0 1 3036 1987)">Typeset at 100.0 points</text>
<text style="stroke:none;fill:black;font-family:sans-serif;font-size:13;" transform="matrix(1 0 0 1 263 726)">Small</text>
<text style="stroke:none;fill:black;font-family:sans-serif;font-size:13;" transform="matrix(1 0 0 1 263 1156)">Medium</text>
<text style="stroke:none;fill:black;font-family:sans-serif;font-size:13;" transform="matrix(1 0 0 1 263 1586)">Large</text>
</g>
<g id="Guides">
<g id="H-reference" style="fill:#27AAE1;stroke:none;" transform="matrix(1 0 0 1 339 696)">
 <path d="M0.993654 0L3.63775 0L29.3281-67.1323L30.0303-67.1323L30.0303-70.459L28.1226-70.459ZM11.6885-24.4799L46.9815-24.4799L46.2315-26.7285L12.4385-26.7285ZM55.1196 0L57.7637 0L30.6382-70.459L29.4326-70.459L29.4326-67.1323Z"/>
</g>
<line id="Baseline-S" style="fill:none;stroke:#27AAE1;opacity:1;stroke-width:0.5;" x1="263" x2="3036" y1="696" y2="696"/>
<line id="Capline-S" style="fill:none;stroke:#27AAE1;opacity:1;stroke-width:0.5;" x1="263" x2="3036" y1="625.541" y2="625.541"/>
<g id="H-reference" style="fill:#27AAE1;stroke:none;" transform="matrix(1 0 0 1 339 1126)">
 <path d="M0.993654 0L3.63775 0L29.3281-67.1323L30.0303-67.1323L30.0303-70.459L28.1226-70.459ZM11.6885-24.4799L46.9815-24.4799L46.2315-26.7285L12.4385-26.7285ZM55.1196 0L57.7637 0L30.6382-70.459L29.4326-70.459L29.4326-67.1323Z"/>
</g>
<line id="Baseline-M" style="fill:none;stroke:#27AAE1;opacity:1;stroke-width:0.5;" x1="263" x2="3036" y1="1126" y2="1126"/>
<line id="Capline-M" style="fill:none;stroke:#27AAE1;opacity:1;stroke-width:0.5;" x1="263" x2="3036" y1="1055.54" y2="1055.54"/>
<g id="H-reference" style="fill:#27AAE1;stroke:none;" transform="matrix(1 0 0 1 339 1556)">
 <path d="M0.993654 0L3.63775 0L29.3281-67.1323L30.0303-67.1323L30.0303-70.459L28.1226-70.459ZM11.6885-24.4799L46.9815-24.4799L46.2315-26.7285L12.4385-26.7285ZM55.1196 0L57.7637 0L30.6382-70.459L29.4326-70.459L29.4326-67.1323Z"/>
</g>
<line id="Baseline-L" style="fill:none;stroke:#27AAE1;opacity:1;stroke-width:0.5;" x1="263" x2="3036" y1="1556" y2="1556"/>
<line id="Capline-L" style="fill:none;stroke:#27AAE1;opacity:1;stroke-width:0.5;" x1="263" x2="3036" y1="1485.54" y2="1485.54"/>
<line id="left-margin-Ultralight-S" style="fill:none;stroke:#00AEEF;stroke-width:0.5;opacity:1.0;" x1="513.711" x2="513.711" y1="600.785" y2="720.121"/>
<line id="right-margin-Ultralight-S" style="fill:none;stroke:#00AEEF;stroke-width:0.5;opacity:1.0;" x1="605.711" x2="605.711" y1="600.785" y2="720.121"/>
<line id="left-margin-Regular-S" style="fill:none;stroke:#00AEEF;stroke-width:0.5;opacity:1.0;" x1="1403.84" x2="1403.84" y1="600.785" y2="720.121"/>
<line id="right-margin-Regular-S" style="fill:none;stroke:#00AEEF;stroke-width:0.5;opacity:1.0;" x1="1495.84" x2="1495.84" y1="600.785" y2="720.121"/>
<line id="left-margin-Black-S" style="fill:none;stroke:#00AEEF;stroke-width:0.5;opacity:1.0;" x1="2887.4" x2="2887.4" y1="600.785" y2="720.121"/>
<line id="right-margin-Black-S" style="fill:none;stroke:#00AEEF;stroke-width:0.5;opacity:1.0;" x1="2979.4" x2="2979.4" y1="600.785" y2="720.121"/>
</g>
<g id="Symbols">
<g id="Ultralight-S" transform="matrix(1 0 0 1 513.711 614.7705)">
<svg width="92" height="92" viewBox="0 0 92 92" fill="none" xmlns="http://www.w3.org/2000/svg">
<g id="liter.bottle">
<path id="Union" fill-rule="evenodd" clip-rule="evenodd" d="M45.4222 0.000109388H46.0652C51.9648 0.000109416 52.7307 0.013405 53.0569 0.106623C54.1223 0.426247 54.7949 1.06553 55.1877 2.13092L55.3476 2.62734V7.62472L55.1278 8.0842C54.8681 8.63686 54.5485 9.04306 54.149 9.32938L53.8494 9.5425L53.8826 10.1152C53.9026 10.4281 53.9492 11.2139 53.9825 11.8531C54.0224 12.4989 54.0824 13.2181 54.1223 13.4512C54.2555 14.3302 54.6551 15.309 55.1678 16.0082C55.301 16.1946 56.3997 17.3533 57.6116 18.5786C60.5415 21.555 61.1275 22.221 61.9731 23.5061C62.9253 24.9577 63.5846 26.5824 63.9108 28.2538C63.9274 28.3389 63.9429 28.4142 63.9576 28.4852L63.9597 28.4955V28.4957C63.9708 28.5495 63.9815 28.6009 63.9916 28.6525C64.1996 29.712 64.2006 30.8125 64.2196 53.1561V53.1755L64.2197 53.1923C64.221 54.6962 64.2223 56.2962 64.2238 57.9987C64.2371 76.7961 64.2238 86.2716 64.1772 86.8315C64.0973 87.797 63.9242 88.4762 63.6045 89.1155C62.9254 90.4472 61.7534 91.3994 60.2086 91.8655C59.829 91.9787 59.1297 91.9854 46.2916 91.9987C38.8542 92.0054 32.5887 91.9854 32.3547 91.9521C31.7488 91.8722 31.3092 91.7323 30.67 91.4127C30.2105 91.1863 29.9907 91.0198 29.4647 90.4872C28.8921 89.9145 28.7855 89.7613 28.4859 89.1487C27.9332 87.9968 27.9265 87.9634 27.8866 84.9337C27.8133 79.9193 27.8667 30.4579 27.9399 29.6455C28.2063 26.962 29.1784 24.5847 30.8831 22.4406C31.5556 21.595 32.0152 21.1022 34.359 18.7117C36.9293 16.0949 37.2289 15.7219 37.6684 14.6099C37.9414 13.9307 38.0613 13.1915 38.1345 11.7865C38.1678 11.1073 38.2144 10.3083 38.2411 10.0087C38.2743 9.50266 38.2677 9.4626 38.1412 9.42265C37.9215 9.35606 37.3488 8.75008 37.1757 8.39717L37.1714 8.38883L37.1708 8.38769C37.0909 8.23048 37.0269 8.10445 36.9756 7.97348C36.7695 7.44688 36.7695 6.83953 36.7695 3.79767V3.79592C36.7695 3.01977 36.7695 2.7883 36.8179 2.5675C36.8385 2.47373 36.8678 2.3818 36.9095 2.25094L36.916 2.23085C37.0025 1.97784 37.1357 1.65153 37.2222 1.51833C37.4486 1.13878 37.9414 0.659295 38.3542 0.412917C38.379 0.397997 38.4025 0.383612 38.4251 0.36975C38.4923 0.328639 38.552 0.292122 38.6139 0.259639C39.1086 -0.000251818 39.7399 -0.000303387 45.4208 2.16499e-05L45.4222 0.000109388ZM30.2438 87.0645L30.3903 87.4973C30.7632 88.5893 31.6621 89.4218 32.6743 89.6215C33.1141 89.7081 58.7696 89.7081 59.2963 89.6282C60.5614 89.4218 61.6269 88.3297 61.8333 87.0312C61.8799 86.7445 61.9066 82.596 61.9066 74.7324V67.9219H30.1972L30.2438 87.0645ZM45.9653 41.8672C45.6 41.8672 45.4884 41.8875 45.3413 41.9741C45.1383 42.1013 45.0013 42.2439 44.9607 42.3814C44.9405 42.4373 44.9101 42.478 44.8898 42.478C44.8644 42.478 44.8187 42.5493 44.7832 42.6308C44.7498 42.712 44.7076 42.7752 44.6858 42.7828L44.6777 42.7842C44.6564 42.7906 44.6189 42.8439 44.5904 42.9108C44.5549 42.982 44.5042 43.0686 44.4788 43.1042C44.4128 43.1807 43.7533 44.1986 43.6417 44.3971C43.596 44.4735 43.3677 44.8502 43.1293 45.2269C42.8959 45.6036 42.6523 46.0109 42.5915 46.133C42.5306 46.25 42.4597 46.3467 42.4393 46.3468C42.419 46.3468 42.3987 46.3672 42.3987 46.3977C42.3986 46.4234 42.2617 46.6778 42.0943 46.9577C41.9269 47.2377 41.7899 47.4922 41.7899 47.5176C41.7899 47.5482 41.7696 47.5685 41.7443 47.5685C41.7189 47.5685 41.6884 47.6092 41.6732 47.6601C41.6428 47.7467 41.3079 48.3677 41.2369 48.4593C41.2115 48.4899 41.0949 48.7037 40.9731 48.9429C40.8514 49.1822 40.7397 49.3858 40.7245 49.4011C40.6886 49.4324 39.8924 51.0505 39.6591 51.5645C39.2177 52.5368 38.8423 53.6057 38.7205 54.237C38.6292 54.7154 38.543 55.5248 38.543 55.8913C38.543 56.4818 38.6698 57.3778 38.8372 58.0039C39.0503 58.7878 39.6896 60.0706 40.0498 60.4371C40.0853 60.4728 40.1157 60.5288 40.1157 60.5543C40.116 60.6309 41.2369 61.7403 41.4246 61.8472C41.516 61.9032 41.5869 61.9592 41.5869 61.9796C41.587 61.9999 41.658 62.0406 41.7392 62.0763C41.8254 62.1119 41.8914 62.1578 41.8914 62.1781C41.8919 62.2343 43.109 62.8245 43.5199 62.962C43.9156 63.0892 44.4027 63.2115 44.8847 63.2878C45.2601 63.3489 46.7668 63.3591 47.0307 63.3031C47.1473 63.2777 47.4061 63.2267 47.5989 63.1911C48.1976 63.0842 49.1463 62.7482 49.6029 62.4835C49.7297 62.4123 49.8666 62.3359 49.9072 62.3206C50.0138 62.2799 50.7241 61.7606 50.927 61.5774C50.9457 61.5606 50.966 61.5425 50.9869 61.5237C51.0741 61.4456 51.1741 61.3558 51.2314 61.3025C51.7235 60.8698 52.3932 59.9383 52.7331 59.2257C53.1035 58.4417 53.2405 58.0243 53.3825 57.2149C53.4688 56.7363 53.484 55.1431 53.4079 54.7358C53.2303 53.8298 53.1085 53.4021 52.7889 52.5826C52.4947 51.8345 52.4896 51.8241 51.8053 50.4457L51.8052 50.4456L51.8047 50.4446C51.1807 49.1822 50.9625 48.7698 50.6429 48.2302C50.5516 48.0775 50.4197 47.8484 50.3537 47.7212C50.1863 47.4208 49.334 45.9854 49.1209 45.6596C48.9839 45.4407 48.4918 44.6567 48.3345 44.4124C47.9743 43.8372 46.9192 42.2644 46.8176 42.1574C46.5995 41.9181 46.4523 41.8672 45.9653 41.8672ZM40.5916 10.5746C40.5916 10.8542 40.5783 11.1471 40.565 11.2205C40.5583 11.2937 40.525 11.7266 40.5051 12.1794C40.4185 13.9639 40.2187 14.8962 39.6994 15.935C39.1533 17.027 38.6871 17.6064 36.7828 19.584C35.784 20.6161 34.6187 21.8347 34.1858 22.3008C32.2348 24.385 31.236 25.9899 30.6833 27.9076C30.2838 29.2726 30.2638 29.5923 30.2305 33.5143L30.1972 37.09H61.9066V33.9803C61.9066 30.6776 61.8466 29.6654 61.5803 28.5667C61.1607 26.7955 60.375 25.2573 58.99 23.526C58.3973 22.7802 57.8779 22.2275 55.5207 19.8104C53.5031 17.7462 53.037 17.1669 52.451 15.9883C52.1181 15.3224 51.885 14.6032 51.7518 13.864C51.652 13.258 51.5188 11.4536 51.5188 10.5746V10.0552H40.5983L40.5916 10.5746Z" fill="black"/>
</g>
</svg>

</g>
<g id="Regular-S" transform="matrix(1 0 0 1 1403.84 614.7705)">
<svg width="92" height="92" viewBox="0 0 92 92" fill="none" xmlns="http://www.w3.org/2000/svg">
<g id="liter.bottle">
<path id="Union" fill-rule="evenodd" clip-rule="evenodd" d="M45.4222 0.000109388H46.0652C51.9648 0.000109416 52.7307 0.013405 53.0569 0.106623C54.1223 0.426247 54.7949 1.06553 55.1877 2.13092L55.3476 2.62734V7.62472L55.1278 8.0842C54.8681 8.63686 54.5485 9.04306 54.149 9.32938L53.8494 9.5425L53.8826 10.1152C53.9026 10.4281 53.9492 11.2139 53.9825 11.8531C54.0224 12.4989 54.0824 13.2181 54.1223 13.4512C54.2555 14.3302 54.6551 15.309 55.1678 16.0082C55.301 16.1946 56.3997 17.3533 57.6116 18.5786C60.5415 21.555 61.1275 22.221 61.9731 23.5061C62.9253 24.9577 63.5846 26.5824 63.9108 28.2538C63.9274 28.3389 63.9429 28.4142 63.9576 28.4852L63.9597 28.4955V28.4957C63.9708 28.5495 63.9815 28.6009 63.9916 28.6525C64.1996 29.712 64.2006 30.8125 64.2196 53.1561V53.1755L64.2197 53.1923C64.221 54.6962 64.2223 56.2962 64.2238 57.9987C64.2371 76.7961 64.2238 86.2716 64.1772 86.8315C64.0973 87.797 63.9242 88.4762 63.6045 89.1155C62.9254 90.4472 61.7534 91.3994 60.2086 91.8655C59.829 91.9787 59.1297 91.9854 46.2916 91.9987C38.8542 92.0054 32.5887 91.9854 32.3547 91.9521C31.7488 91.8722 31.3092 91.7323 30.67 91.4127C30.2105 91.1863 29.9907 91.0198 29.4647 90.4872C28.8921 89.9145 28.7855 89.7613 28.4859 89.1487C27.9332 87.9968 27.9265 87.9634 27.8866 84.9337C27.8133 79.9193 27.8667 30.4579 27.9399 29.6455C28.2063 26.962 29.1784 24.5847 30.8831 22.4406C31.5556 21.595 32.0152 21.1022 34.359 18.7117C36.9293 16.0949 37.2289 15.7219 37.6684 14.6099C37.9414 13.9307 38.0613 13.1915 38.1345 11.7865C38.1678 11.1073 38.2144 10.3083 38.2411 10.0087C38.2743 9.50266 38.2677 9.4626 38.1412 9.42265C37.9215 9.35606 37.3488 8.75008 37.1757 8.39717L37.1714 8.38883L37.1708 8.38769C37.0909 8.23048 37.0269 8.10445 36.9756 7.97348C36.7695 7.44688 36.7695 6.83953 36.7695 3.79767V3.79592C36.7695 3.01977 36.7695 2.7883 36.8179 2.5675C36.8385 2.47373 36.8678 2.3818 36.9095 2.25094L36.916 2.23085C37.0025 1.97784 37.1357 1.65153 37.2222 1.51833C37.4486 1.13878 37.9414 0.659295 38.3542 0.412917C38.379 0.397997 38.4025 0.383612 38.4251 0.36975C38.4923 0.328639 38.552 0.292122 38.6139 0.259639C39.1086 -0.000251818 39.7399 -0.000303387 45.4208 2.16499e-05L45.4222 0.000109388ZM30.2438 87.0645L30.3903 87.4973C30.7632 88.5893 31.6621 89.4218 32.6743 89.6215C33.1141 89.7081 58.7696 89.7081 59.2963 89.6282C60.5614 89.4218 61.6269 88.3297 61.8333 87.0312C61.8799 86.7445 61.9066 82.596 61.9066 74.7324V67.9219H30.1972L30.2438 87.0645ZM45.9653 41.8672C45.6 41.8672 45.4884 41.8875 45.3413 41.9741C45.1383 42.1013 45.0013 42.2439 44.9607 42.3814C44.9405 42.4373 44.9101 42.478 44.8898 42.478C44.8644 42.478 44.8187 42.5493 44.7832 42.6308C44.7498 42.712 44.7076 42.7752 44.6858 42.7828L44.6777 42.7842C44.6564 42.7906 44.6189 42.8439 44.5904 42.9108C44.5549 42.982 44.5042 43.0686 44.4788 43.1042C44.4128 43.1807 43.7533 44.1986 43.6417 44.3971C43.596 44.4735 43.3677 44.8502 43.1293 45.2269C42.8959 45.6036 42.6523 46.0109 42.5915 46.133C42.5306 46.25 42.4597 46.3467 42.4393 46.3468C42.419 46.3468 42.3987 46.3672 42.3987 46.3977C42.3986 46.4234 42.2617 46.6778 42.0943 46.9577C41.9269 47.2377 41.7899 47.4922 41.7899 47.5176C41.7899 47.5482 41.7696 47.5685 41.7443 47.5685C41.7189 47.5685 41.6884 47.6092 41.6732 47.6601C41.6428 47.7467 41.3079 48.3677 41.2369 48.4593C41.2115 48.4899 41.0949 48.7037 40.9731 48.9429C40.8514 49.1822 40.7397 49.3858 40.7245 49.4011C40.6886 49.4324 39.8924 51.0505 39.6591 51.5645C39.2177 52.5368 38.8423 53.6057 38.7205 54.237C38.6292 54.7154 38.543 55.5248 38.543 55.8913C38.543 56.4818 38.6698 57.3778 38.8372 58.0039C39.0503 58.7878 39.6896 60.0706 40.0498 60.4371C40.0853 60.4728 40.1157 60.5288 40.1157 60.5543C40.116 60.6309 41.2369 61.7403 41.4246 61.8472C41.516 61.9032 41.5869 61.9592 41.5869 61.9796C41.587 61.9999 41.658 62.0406 41.7392 62.0763C41.8254 62.1119 41.8914 62.1578 41.8914 62.1781C41.8919 62.2343 43.109 62.8245 43.5199 62.962C43.9156 63.0892 44.4027 63.2115 44.8847 63.2878C45.2601 63.3489 46.7668 63.3591 47.0307 63.3031C47.1473 63.2777 47.4061 63.2267 47.5989 63.1911C48.1976 63.0842 49.1463 62.7482 49.6029 62.4835C49.7297 62.4123 49.8666 62.3359 49.9072 62.3206C50.0138 62.2799 50.7241 61.7606 50.927 61.5774C50.9457 61.5606 50.966 61.5425 50.9869 61.5237C51.0741 61.4456 51.1741 61.3558 51.2314 61.3025C51.7235 60.8698 52.3932 59.9383 52.7331 59.2257C53.1035 58.4417 53.2405 58.0243 53.3825 57.2149C53.4688 56.7363 53.484 55.1431 53.4079 54.7358C53.2303 53.8298 53.1085 53.4021 52.7889 52.5826C52.4947 51.8345 52.4896 51.8241 51.8053 50.4457L51.8052 50.4456L51.8047 50.4446C51.1807 49.1822 50.9625 48.7698 50.6429 48.2302C50.5516 48.0775 50.4197 47.8484 50.3537 47.7212C50.1863 47.4208 49.334 45.9854 49.1209 45.6596C48.9839 45.4407 48.4918 44.6567 48.3345 44.4124C47.9743 43.8372 46.9192 42.2644 46.8176 42.1574C46.5995 41.9181 46.4523 41.8672 45.9653 41.8672ZM40.5916 10.5746C40.5916 10.8542 40.5783 11.1471 40.565 11.2205C40.5583 11.2937 40.525 11.7266 40.5051 12.1794C40.4185 13.9639 40.2187 14.8962 39.6994 15.935C39.1533 17.027 38.6871 17.6064 36.7828 19.584C35.784 20.6161 34.6187 21.8347 34.1858 22.3008C32.2348 24.385 31.236 25.9899 30.6833 27.9076C30.2838 29.2726 30.2638 29.5923 30.2305 33.5143L30.1972 37.09H61.9066V33.9803C61.9066 30.6776 61.8466 29.6654 61.5803 28.5667C61.1607 26.7955 60.375 25.2573 58.99 23.526C58.3973 22.7802 57.8779 22.2275 55.5207 19.8104C53.5031 17.7462 53.037 17.1669 52.451 15.9883C52.1181 15.3224 51.885 14.6032 51.7518 13.864C51.652 13.258 51.5188 11.4536 51.5188 10.5746V10.0552H40.5983L40.5916 10.5746Z" fill="black"/>
</g>
</svg>

</g>
<g id="Black-S" transform="matrix(1 0 0 1 2887.4 614.7705)">
<svg width="92" height="92" viewBox="0 0 92 92" fill="none" xmlns="http://www.w3.org/2000/svg">
<g id="liter.bottle">
<path id="Union" fill-rule="evenodd" clip-rule="evenodd" d="M45.4222 0.000109388H46.0652C51.9648 0.000109416 52.7307 0.013405 53.0569 0.106623C54.1223 0.426247 54.7949 1.06553 55.1877 2.13092L55.3476 2.62734V7.62472L55.1278 8.0842C54.8681 8.63686 54.5485 9.04306 54.149 9.32938L53.8494 9.5425L53.8826 10.1152C53.9026 10.4281 53.9492 11.2139 53.9825 11.8531C54.0224 12.4989 54.0824 13.2181 54.1223 13.4512C54.2555 14.3302 54.6551 15.309 55.1678 16.0082C55.301 16.1946 56.3997 17.3533 57.6116 18.5786C60.5415 21.555 61.1275 22.221 61.9731 23.5061C62.9253 24.9577 63.5846 26.5824 63.9108 28.2538C63.9274 28.3389 63.9429 28.4142 63.9576 28.4852L63.9597 28.4955V28.4957C63.9708 28.5495 63.9815 28.6009 63.9916 28.6525C64.1996 29.712 64.2006 30.8125 64.2196 53.1561V53.1755L64.2197 53.1923C64.221 54.6962 64.2223 56.2962 64.2238 57.9987C64.2371 76.7961 64.2238 86.2716 64.1772 86.8315C64.0973 87.797 63.9242 88.4762 63.6045 89.1155C62.9254 90.4472 61.7534 91.3994 60.2086 91.8655C59.829 91.9787 59.1297 91.9854 46.2916 91.9987C38.8542 92.0054 32.5887 91.9854 32.3547 91.9521C31.7488 91.8722 31.3092 91.7323 30.67 91.4127C30.2105 91.1863 29.9907 91.0198 29.4647 90.4872C28.8921 89.9145 28.7855 89.7613 28.4859 89.1487C27.9332 87.9968 27.9265 87.9634 27.8866 84.9337C27.8133 79.9193 27.8667 30.4579 27.9399 29.6455C28.2063 26.962 29.1784 24.5847 30.8831 22.4406C31.5556 21.595 32.0152 21.1022 34.359 18.7117C36.9293 16.0949 37.2289 15.7219 37.6684 14.6099C37.9414 13.9307 38.0613 13.1915 38.1345 11.7865C38.1678 11.1073 38.2144 10.3083 38.2411 10.0087C38.2743 9.50266 38.2677 9.4626 38.1412 9.42265C37.9215 9.35606 37.3488 8.75008 37.1757 8.39717L37.1714 8.38883L37.1708 8.38769C37.0909 8.23048 37.0269 8.10445 36.9756 7.97348C36.7695 7.44688 36.7695 6.83953 36.7695 3.79767V3.79592C36.7695 3.01977 36.7695 2.7883 36.8179 2.5675C36.8385 2.47373 36.8678 2.3818 36.9095 2.25094L36.916 2.23085C37.0025 1.97784 37.1357 1.65153 37.2222 1.51833C37.4486 1.13878 37.9414 0.659295 38.3542 0.412917C38.379 0.397997 38.4025 0.383612 38.4251 0.36975C38.4923 0.328639 38.552 0.292122 38.6139 0.259639C39.1086 -0.000251818 39.7399 -0.000303387 45.4208 2.16499e-05L45.4222 0.000109388ZM30.2438 87.0645L30.3903 87.4973C30.7632 88.5893 31.6621 89.4218 32.6743 89.6215C33.1141 89.7081 58.7696 89.7081 59.2963 89.6282C60.5614 89.4218 61.6269 88.3297 61.8333 87.0312C61.8799 86.7445 61.9066 82.596 61.9066 74.7324V67.9219H30.1972L30.2438 87.0645ZM45.9653 41.8672C45.6 41.8672 45.4884 41.8875 45.3413 41.9741C45.1383 42.1013 45.0013 42.2439 44.9607 42.3814C44.9405 42.4373 44.9101 42.478 44.8898 42.478C44.8644 42.478 44.8187 42.5493 44.7832 42.6308C44.7498 42.712 44.7076 42.7752 44.6858 42.7828L44.6777 42.7842C44.6564 42.7906 44.6189 42.8439 44.5904 42.9108C44.5549 42.982 44.5042 43.0686 44.4788 43.1042C44.4128 43.1807 43.7533 44.1986 43.6417 44.3971C43.596 44.4735 43.3677 44.8502 43.1293 45.2269C42.8959 45.6036 42.6523 46.0109 42.5915 46.133C42.5306 46.25 42.4597 46.3467 42.4393 46.3468C42.419 46.3468 42.3987 46.3672 42.3987 46.3977C42.3986 46.4234 42.2617 46.6778 42.0943 46.9577C41.9269 47.2377 41.7899 47.4922 41.7899 47.5176C41.7899 47.5482 41.7696 47.5685 41.7443 47.5685C41.7189 47.5685 41.6884 47.6092 41.6732 47.6601C41.6428 47.7467 41.3079 48.3677 41.2369 48.4593C41.2115 48.4899 41.0949 48.7037 40.9731 48.9429C40.8514 49.1822 40.7397 49.3858 40.7245 49.4011C40.6886 49.4324 39.8924 51.0505 39.6591 51.5645C39.2177 52.5368 38.8423 53.6057 38.7205 54.237C38.6292 54.7154 38.543 55.5248 38.543 55.8913C38.543 56.4818 38.6698 57.3778 38.8372 58.0039C39.0503 58.7878 39.6896 60.0706 40.0498 60.4371C40.0853 60.4728 40.1157 60.5288 40.1157 60.5543C40.116 60.6309 41.2369 61.7403 41.4246 61.8472C41.516 61.9032 41.5869 61.9592 41.5869 61.9796C41.587 61.9999 41.658 62.0406 41.7392 62.0763C41.8254 62.1119 41.8914 62.1578 41.8914 62.1781C41.8919 62.2343 43.109 62.8245 43.5199 62.962C43.9156 63.0892 44.4027 63.2115 44.8847 63.2878C45.2601 63.3489 46.7668 63.3591 47.0307 63.3031C47.1473 63.2777 47.4061 63.2267 47.5989 63.1911C48.1976 63.0842 49.1463 62.7482 49.6029 62.4835C49.7297 62.4123 49.8666 62.3359 49.9072 62.3206C50.0138 62.2799 50.7241 61.7606 50.927 61.5774C50.9457 61.5606 50.966 61.5425 50.9869 61.5237C51.0741 61.4456 51.1741 61.3558 51.2314 61.3025C51.7235 60.8698 52.3932 59.9383 52.7331 59.2257C53.1035 58.4417 53.2405 58.0243 53.3825 57.2149C53.4688 56.7363 53.484 55.1431 53.4079 54.7358C53.2303 53.8298 53.1085 53.4021 52.7889 52.5826C52.4947 51.8345 52.4896 51.8241 51.8053 50.4457L51.8052 50.4456L51.8047 50.4446C51.1807 49.1822 50.9625 48.7698 50.6429 48.2302C50.5516 48.0775 50.4197 47.8484 50.3537 47.7212C50.1863 47.4208 49.334 45.9854 49.1209 45.6596C48.9839 45.4407 48.4918 44.6567 48.3345 44.4124C47.9743 43.8372 46.9192 42.2644 46.8176 42.1574C46.5995 41.9181 46.4523 41.8672 45.9653 41.8672ZM40.5916 10.5746C40.5916 10.8542 40.5783 11.1471 40.565 11.2205C40.5583 11.2937 40.525 11.7266 40.5051 12.1794C40.4185 13.9639 40.2187 14.8962 39.6994 15.935C39.1533 17.027 38.6871 17.6064 36.7828 19.584C35.784 20.6161 34.6187 21.8347 34.1858 22.3008C32.2348 24.385 31.236 25.9899 30.6833 27.9076C30.2838 29.2726 30.2638 29.5923 30.2305 33.5143L30.1972 37.09H61.9066V33.9803C61.9066 30.6776 61.8466 29.6654 61.5803 28.5667C61.1607 26.7955 60.375 25.2573 58.99 23.526C58.3973 22.7802 57.8779 22.2275 55.5207 19.8104C53.5031 17.7462 53.037 17.1669 52.451 15.9883C52.1181 15.3224 51.885 14.6032 51.7518 13.864C51.652 13.258 51.5188 11.4536 51.5188 10.5746V10.0552H40.5983L40.5916 10.5746Z" fill="black"/>
</g>
</svg>

</g>
</g>
</svg>