<?xml version="1.0" encoding="UTF-8"?>
<!DOCTYPE svg
PUBLIC "-//W3C//DTD SVG 1.1//EN"
     "http://www.w3.org/Graphics/SVG/1.1/DTD/svg11.dtd">
     <!--Created with SF Symbol Generator (v1.0.0)-->

<svg version="1.1" xmlns="http://www.w3.org/2000/svg" xmlns:xlink="http://www.w3.org/1999/xlink" width="3300" height="2200">
<!--glyph: "liquid.measure.4.medium", point size: 100.0-->
<style>.SFSymbolsPreviewWireframe {fill:none;opacity:1.0;stroke:black;stroke-width:0.5}
</style>
<g id="Notes">
<rect height="2200" id="artboard" style="fill:white;opacity:1" width="3300" x="0" y="0"/>
<line style="fill:none;stroke:black;opacity:1;stroke-width:0.5;" x1="263" x2="3036" y1="292" y2="292"/>
<text style="stroke:none;fill:black;font-family:sans-serif;font-size:13;font-weight:bold;" transform="matrix(1 0 0 1 263 322)">Weight/Scale Variations</text>
<text style="stroke:none;fill:black;font-family:sans-serif;font-size:13;text-anchor:middle;" transform="matrix(1 0 0 1 559.711 322)">Ultralight</text>
<text style="stroke:none;fill:black;font-family:sans-serif;font-size:13;text-anchor:middle;" transform="matrix(1 0 0 1 856.422 322)">Thin</text>
<text style="stroke:none;fill:black;font-family:sans-serif;font-size:13;text-anchor:middle;" transform="matrix(1 0 0 1 1153.13 322)">Light</text>
<text style="stroke:none;fill:black;font-family:sans-serif;font-size:13;text-anchor:middle;" transform="matrix(1 0 0 1 1449.84 322)">Regular</text>
<text style="stroke:none;fill:black;font-family:sans-serif;font-size:13;text-anchor:middle;" transform="matrix(1 0 0 1 1746.56 322)">Medium</text>
<text style="stroke:none;fill:black;font-family:sans-serif;font-size:13;text-anchor:middle;" transform="matrix(1 0 0 1 2043.27 322)">Semibold</text>
<text style="stroke:none;fill:black;font-family:sans-serif;font-size:13;text-anchor:middle;" transform="matrix(1 0 0 1 2339.98 322)">Bold</text>
<text style="stroke:none;fill:black;font-family:sans-serif;font-size:13;text-anchor:middle;" transform="matrix(1 0 0 1 2636.69 322)">Heavy</text>
<text style="stroke:none;fill:black;font-family:sans-serif;font-size:13;text-anchor:middle;" transform="matrix(1 0 0 1 2933.4 322)">Black</text>
<line style="fill:none;stroke:black;opacity:1;stroke-width:0.5;" x1="263" x2="3036" y1="1903" y2="1903"/>
<text style="stroke:none;fill:black;font-family:sans-serif;font-size:13;font-weight:bold;" transform="matrix(1 0 0 1 263 1953)">Design Variations</text>
<text style="stroke:none;fill:black;font-family:sans-serif;font-size:13;" transform="matrix(1 0 0 1 263 1971)">Symbols are supported in up to nine weights and three scales.</text>
<text style="stroke:none;fill:black;font-family:sans-serif;font-size:13;" transform="matrix(1 0 0 1 263 1989)">For optimal layout with text and other symbols, vertically align</text>
<text style="stroke:none;fill:black;font-family:sans-serif;font-size:13;" transform="matrix(1 0 0 1 263 2007)">symbols with the adjacent text.</text>
<line style="fill:none;stroke:#00AEEF;stroke-width:0.5;opacity:1.0;" x1="776" x2="776" y1="1919" y2="1933"/>
<text style="stroke:none;fill:black;font-family:sans-serif;font-size:13;font-weight:bold;" transform="matrix(1 0 0 1 776 1953)">Margins</text>
<text style="stroke:none;fill:black;font-family:sans-serif;font-size:13;" transform="matrix(1 0 0 1 776 1971)">Leading and trailing margins on the left and right side of each symbol</text>
<text style="stroke:none;fill:black;font-family:sans-serif;font-size:13;" transform="matrix(1 0 0 1 776 1989)">can be adjusted by modifying the x-location of the margin guidelines.</text>
<text style="stroke:none;fill:black;font-family:sans-serif;font-size:13;" transform="matrix(1 0 0 1 776 2007)">Modifications are automatically applied proportionally to all</text>
<text style="stroke:none;fill:black;font-family:sans-serif;font-size:13;" transform="matrix(1 0 0 1 776 2025)">scales and weights.</text>
<text style="stroke:none;fill:black;font-family:sans-serif;font-size:13;font-weight:bold;" transform="matrix(1 0 0 1 1289 1953)">Exporting</text>
<text style="stroke:none;fill:black;font-family:sans-serif;font-size:13;" transform="matrix(1 0 0 1 1289 1971)">Symbols should be outlined when exporting to ensure the</text>
<text style="stroke:none;fill:black;font-family:sans-serif;font-size:13;" transform="matrix(1 0 0 1 1289 1989)">design is preserved when submitting to Xcode.</text>
<text id="template-version" style="stroke:none;fill:black;font-family:sans-serif;font-size:13;text-anchor:end;" transform="matrix(1 0 0 1 3036 1933)">Template v.5.0</text>
<text style="stroke:none;fill:black;font-family:sans-serif;font-size:13;text-anchor:end;" transform="matrix(1 0 0 1 3036 1951)">Requires Xcode 15 or greater</text>
<text id="descriptive-name" style="stroke:none;fill:black;font-family:sans-serif;font-size:13;text-anchor:end;" transform="matrix(1 0 0 1 3036 1969)">Generated from liquid.measure.4</text>
<text style="stroke:none;fill:black;font-family:sans-serif;font-size:13;text-anchor:end;" transform="matrix(1 0 0 1 3036 1987)">Typeset at 100.0 points</text>
<text style="stroke:none;fill:black;font-family:sans-serif;font-size:13;" transform="matrix(1 0 0 1 263 726)">Small</text>
<text style="stroke:none;fill:black;font-family:sans-serif;font-size:13;" transform="matrix(1 0 0 1 263 1156)">Medium</text>
<text style="stroke:none;fill:black;font-family:sans-serif;font-size:13;" transform="matrix(1 0 0 1 263 1586)">Large</text>
</g>
<g id="Guides">
<g id="H-reference" style="fill:#27AAE1;stroke:none;" transform="matrix(1 0 0 1 339 696)">
 <path d="M0.993654 0L3.63775 0L29.3281-67.1323L30.0303-67.1323L30.0303-70.459L28.1226-70.459ZM11.6885-24.4799L46.9815-24.4799L46.2315-26.7285L12.4385-26.7285ZM55.1196 0L57.7637 0L30.6382-70.459L29.4326-70.459L29.4326-67.1323Z"/>
</g>
<line id="Baseline-S" style="fill:none;stroke:#27AAE1;opacity:1;stroke-width:0.5;" x1="263" x2="3036" y1="696" y2="696"/>
<line id="Capline-S" style="fill:none;stroke:#27AAE1;opacity:1;stroke-width:0.5;" x1="263" x2="3036" y1="625.541" y2="625.541"/>
<g id="H-reference" style="fill:#27AAE1;stroke:none;" transform="matrix(1 0 0 1 339 1126)">
 <path d="M0.993654 0L3.63775 0L29.3281-67.1323L30.0303-67.1323L30.0303-70.459L28.1226-70.459ZM11.6885-24.4799L46.9815-24.4799L46.2315-26.7285L12.4385-26.7285ZM55.1196 0L57.7637 0L30.6382-70.459L29.4326-70.459L29.4326-67.1323Z"/>
</g>
<line id="Baseline-M" style="fill:none;stroke:#27AAE1;opacity:1;stroke-width:0.5;" x1="263" x2="3036" y1="1126" y2="1126"/>
<line id="Capline-M" style="fill:none;stroke:#27AAE1;opacity:1;stroke-width:0.5;" x1="263" x2="3036" y1="1055.54" y2="1055.54"/>
<g id="H-reference" style="fill:#27AAE1;stroke:none;" transform="matrix(1 0 0 1 339 1556)">
 <path d="M0.993654 0L3.63775 0L29.3281-67.1323L30.0303-67.1323L30.0303-70.459L28.1226-70.459ZM11.6885-24.4799L46.9815-24.4799L46.2315-26.7285L12.4385-26.7285ZM55.1196 0L57.7637 0L30.6382-70.459L29.4326-70.459L29.4326-67.1323Z"/>
</g>
<line id="Baseline-L" style="fill:none;stroke:#27AAE1;opacity:1;stroke-width:0.5;" x1="263" x2="3036" y1="1556" y2="1556"/>
<line id="Capline-L" style="fill:none;stroke:#27AAE1;opacity:1;stroke-width:0.5;" x1="263" x2="3036" y1="1485.54" y2="1485.54"/>
<line id="left-margin-Ultralight-S" style="fill:none;stroke:#00AEEF;stroke-width:0.5;opacity:1.0;" x1="513.711" x2="513.711" y1="600.785" y2="720.121"/>
<line id="right-margin-Ultralight-S" style="fill:none;stroke:#00AEEF;stroke-width:0.5;opacity:1.0;" x1="605.711" x2="605.711" y1="600.785" y2="720.121"/>
<line id="left-margin-Regular-S" style="fill:none;stroke:#00AEEF;stroke-width:0.5;opacity:1.0;" x1="1403.84" x2="1403.84" y1="600.785" y2="720.121"/>
<line id="right-margin-Regular-S" style="fill:none;stroke:#00AEEF;stroke-width:0.5;opacity:1.0;" x1="1495.84" x2="1495.84" y1="600.785" y2="720.121"/>
<line id="left-margin-Black-S" style="fill:none;stroke:#00AEEF;stroke-width:0.5;opacity:1.0;" x1="2887.4" x2="2887.4" y1="600.785" y2="720.121"/>
<line id="right-margin-Black-S" style="fill:none;stroke:#00AEEF;stroke-width:0.5;opacity:1.0;" x1="2979.4" x2="2979.4" y1="600.785" y2="720.121"/>
</g>
<g id="Symbols">
<g id="Ultralight-S" transform="matrix(1 0 0 1 513.711 614.7705)">
<svg width="92" height="92" viewBox="0 0 92 92" fill="none" xmlns="http://www.w3.org/2000/svg">
<g id="liquid.measure.4">
<path id="Union" fill-rule="evenodd" clip-rule="evenodd" d="M43.5798 13.5749C82.4233 13.5528 86.6149 13.5638 87.2232 13.7297C89.2577 14.2494 91.0823 16.0739 91.7678 18.2965C91.989 19.0152 91.9889 19.2477 92 32.5162V46.0061L91.6904 46.6365C91.2923 47.4436 90.3745 48.295 89.6005 48.5714C88.7159 48.87 86.5819 48.8479 85.7415 48.5051C84.9012 48.1844 84.1714 47.521 83.7954 46.747L83.4858 46.1167L83.4305 33.9758C83.3752 22.0787 83.3753 21.8237 83.1542 21.6689C82.9772 21.5362 82.1479 21.5141 78.0124 21.5362L73.0919 21.5694L72.9593 22.5093C72.8376 23.3718 72.5501 25.7713 70.6593 41.3621C69.83 48.2398 68.6469 57.8707 67.7291 65.3012C67.3089 68.6737 66.8556 72.3116 66.734 73.3731C66.6013 74.4346 66.4686 75.4298 66.4354 75.5846C66.1921 76.6129 65.1859 77.7076 64.1023 78.1499L63.4721 78.4042L41.9654 78.4153C30.1341 78.4263 20.1714 78.3932 19.8286 78.3379C18.6897 78.172 17.8162 77.6523 17.2081 76.7567C16.5888 75.8721 16.7436 76.7567 14.7091 62.371C14.1894 58.7221 13.1942 51.7339 12.4976 46.8354C11.801 41.937 11.1265 37.1934 11.0049 36.2757C10.5515 32.9032 10.5736 32.9584 5.443 24.2784C3.10991 20.331 0.754726 16.2951 0.3677 15.5542C-0.118822 14.6365 -0.118814 14.36 0.34559 13.8846L0.610998 13.6081L43.5798 13.5749ZM2.29171 15.5653C2.38019 15.7091 2.76719 16.3724 3.15417 17.0358C3.54118 17.7103 5.05602 20.2867 6.52665 22.7857C8.05737 25.3886 9.13049 27.2154 9.89763 28.5477L10.0701 28.4802H40.4266C61.4937 28.4874 68.2208 28.4762 70.4685 28.6255C70.6899 26.8035 70.9185 24.926 71.1458 23.0732L71.4554 20.4858L71.8093 20.1651L72.1521 19.8555H77.7913C81.4955 19.8555 83.519 19.8998 83.7291 19.9772C84.1714 20.143 84.6358 20.6074 84.8791 21.1271C85.0781 21.5472 85.0891 22.1223 85.0891 33.456C85.0891 40.9306 85.1334 45.4862 85.1998 45.7407C85.4541 46.6364 86.2723 47.0566 87.7761 47.0566C89.0366 47.0566 89.6448 46.8023 90.0318 46.1056L90.2861 45.6744V32.671C90.2861 24.3338 90.2419 19.4463 90.1756 19.0704C89.9212 17.7325 88.8818 16.3503 87.6212 15.6979L87.0242 15.3772L2.13685 15.322L2.29171 15.5653Z" fill="black"/>
<path id="Vector" d="M55.5506 72.3512C55.6315 72.3332 55.7752 72.3332 55.8651 72.3512C55.9459 72.3781 55.8741 72.3961 55.7034 72.3961C55.5327 72.3961 55.4608 72.3781 55.5506 72.3512Z" fill="white"/>
</g>
</svg>

</g>
<g id="Regular-S" transform="matrix(1 0 0 1 1403.84 614.7705)">
<svg width="92" height="92" viewBox="0 0 92 92" fill="none" xmlns="http://www.w3.org/2000/svg">
<g id="liquid.measure.4">
<path id="Union" fill-rule="evenodd" clip-rule="evenodd" d="M43.5798 13.5749C82.4233 13.5528 86.6149 13.5638 87.2232 13.7297C89.2577 14.2494 91.0823 16.0739 91.7678 18.2965C91.989 19.0152 91.9889 19.2477 92 32.5162V46.0061L91.6904 46.6365C91.2923 47.4436 90.3745 48.295 89.6005 48.5714C88.7159 48.87 86.5819 48.8479 85.7415 48.5051C84.9012 48.1844 84.1714 47.521 83.7954 46.747L83.4858 46.1167L83.4305 33.9758C83.3752 22.0787 83.3753 21.8237 83.1542 21.6689C82.9772 21.5362 82.1479 21.5141 78.0124 21.5362L73.0919 21.5694L72.9593 22.5093C72.8376 23.3718 72.5501 25.7713 70.6593 41.3621C69.83 48.2398 68.6469 57.8707 67.7291 65.3012C67.3089 68.6737 66.8556 72.3116 66.734 73.3731C66.6013 74.4346 66.4686 75.4298 66.4354 75.5846C66.1921 76.6129 65.1859 77.7076 64.1023 78.1499L63.4721 78.4042L41.9654 78.4153C30.1341 78.4263 20.1714 78.3932 19.8286 78.3379C18.6897 78.172 17.8162 77.6523 17.2081 76.7567C16.5888 75.8721 16.7436 76.7567 14.7091 62.371C14.1894 58.7221 13.1942 51.7339 12.4976 46.8354C11.801 41.937 11.1265 37.1934 11.0049 36.2757C10.5515 32.9032 10.5736 32.9584 5.443 24.2784C3.10991 20.331 0.754726 16.2951 0.3677 15.5542C-0.118822 14.6365 -0.118814 14.36 0.34559 13.8846L0.610998 13.6081L43.5798 13.5749ZM2.29171 15.5653C2.38019 15.7091 2.76719 16.3724 3.15417 17.0358C3.54118 17.7103 5.05602 20.2867 6.52665 22.7857C8.05737 25.3886 9.13049 27.2154 9.89763 28.5477L10.0701 28.4802H40.4266C61.4937 28.4874 68.2208 28.4762 70.4685 28.6255C70.6899 26.8035 70.9185 24.926 71.1458 23.0732L71.4554 20.4858L71.8093 20.1651L72.1521 19.8555H77.7913C81.4955 19.8555 83.519 19.8998 83.7291 19.9772C84.1714 20.143 84.6358 20.6074 84.8791 21.1271C85.0781 21.5472 85.0891 22.1223 85.0891 33.456C85.0891 40.9306 85.1334 45.4862 85.1998 45.7407C85.4541 46.6364 86.2723 47.0566 87.7761 47.0566C89.0366 47.0566 89.6448 46.8023 90.0318 46.1056L90.2861 45.6744V32.671C90.2861 24.3338 90.2419 19.4463 90.1756 19.0704C89.9212 17.7325 88.8818 16.3503 87.6212 15.6979L87.0242 15.3772L2.13685 15.322L2.29171 15.5653Z" fill="black"/>
<path id="Vector" d="M55.5506 72.3512C55.6315 72.3332 55.7752 72.3332 55.8651 72.3512C55.9459 72.3781 55.8741 72.3961 55.7034 72.3961C55.5327 72.3961 55.4608 72.3781 55.5506 72.3512Z" fill="white"/>
</g>
</svg>

</g>
<g id="Black-S" transform="matrix(1 0 0 1 2887.4 614.7705)">
<svg width="92" height="92" viewBox="0 0 92 92" fill="none" xmlns="http://www.w3.org/2000/svg">
<g id="liquid.measure.4">
<path id="Union" fill-rule="evenodd" clip-rule="evenodd" d="M43.5798 13.5749C82.4233 13.5528 86.6149 13.5638 87.2232 13.7297C89.2577 14.2494 91.0823 16.0739 91.7678 18.2965C91.989 19.0152 91.9889 19.2477 92 32.5162V46.0061L91.6904 46.6365C91.2923 47.4436 90.3745 48.295 89.6005 48.5714C88.7159 48.87 86.5819 48.8479 85.7415 48.5051C84.9012 48.1844 84.1714 47.521 83.7954 46.747L83.4858 46.1167L83.4305 33.9758C83.3752 22.0787 83.3753 21.8237 83.1542 21.6689C82.9772 21.5362 82.1479 21.5141 78.0124 21.5362L73.0919 21.5694L72.9593 22.5093C72.8376 23.3718 72.5501 25.7713 70.6593 41.3621C69.83 48.2398 68.6469 57.8707 67.7291 65.3012C67.3089 68.6737 66.8556 72.3116 66.734 73.3731C66.6013 74.4346 66.4686 75.4298 66.4354 75.5846C66.1921 76.6129 65.1859 77.7076 64.1023 78.1499L63.4721 78.4042L41.9654 78.4153C30.1341 78.4263 20.1714 78.3932 19.8286 78.3379C18.6897 78.172 17.8162 77.6523 17.2081 76.7567C16.5888 75.8721 16.7436 76.7567 14.7091 62.371C14.1894 58.7221 13.1942 51.7339 12.4976 46.8354C11.801 41.937 11.1265 37.1934 11.0049 36.2757C10.5515 32.9032 10.5736 32.9584 5.443 24.2784C3.10991 20.331 0.754726 16.2951 0.3677 15.5542C-0.118822 14.6365 -0.118814 14.36 0.34559 13.8846L0.610998 13.6081L43.5798 13.5749ZM2.29171 15.5653C2.38019 15.7091 2.76719 16.3724 3.15417 17.0358C3.54118 17.7103 5.05602 20.2867 6.52665 22.7857C8.05737 25.3886 9.13049 27.2154 9.89763 28.5477L10.0701 28.4802H40.4266C61.4937 28.4874 68.2208 28.4762 70.4685 28.6255C70.6899 26.8035 70.9185 24.926 71.1458 23.0732L71.4554 20.4858L71.8093 20.1651L72.1521 19.8555H77.7913C81.4955 19.8555 83.519 19.8998 83.7291 19.9772C84.1714 20.143 84.6358 20.6074 84.8791 21.1271C85.0781 21.5472 85.0891 22.1223 85.0891 33.456C85.0891 40.9306 85.1334 45.4862 85.1998 45.7407C85.4541 46.6364 86.2723 47.0566 87.7761 47.0566C89.0366 47.0566 89.6448 46.8023 90.0318 46.1056L90.2861 45.6744V32.671C90.2861 24.3338 90.2419 19.4463 90.1756 19.0704C89.9212 17.7325 88.8818 16.3503 87.6212 15.6979L87.0242 15.3772L2.13685 15.322L2.29171 15.5653Z" fill="black"/>
<path id="Vector" d="M55.5506 72.3512C55.6315 72.3332 55.7752 72.3332 55.8651 72.3512C55.9459 72.3781 55.8741 72.3961 55.7034 72.3961C55.5327 72.3961 55.4608 72.3781 55.5506 72.3512Z" fill="white"/>
</g>
</svg>

</g>
</g>
</svg>