<?xml version="1.0" encoding="UTF-8"?>
<!--Generator: Apple Native CoreSVG 341-->
<!DOCTYPE svg
PUBLIC "-//W3C//DTD SVG 1.1//EN"
       "http://www.w3.org/Graphics/SVG/1.1/DTD/svg11.dtd">
<svg version="1.1" xmlns="http://www.w3.org/2000/svg" xmlns:xlink="http://www.w3.org/1999/xlink" viewBox="0 0 3300 2200">
 <!--glyph: "", point size: 100.0, font version: "21.0d6e2", template writer version: "138.0.0"-->
 <style>.defaults {-sfsymbols-variable-value-mode:color;-sfsymbols-draw-reverses-motion-groups:true}

.monochrome-0 {-sfsymbols-motion-group:0;-sfsymbols-layer-tags:-2508355f83611ae3}

.multicolor-0:tintColor {-sfsymbols-motion-group:0;-sfsymbols-layer-tags:-2508355f83611ae3}

.hierarchical-0:primary {-sfsymbols-motion-group:0;-sfsymbols-layer-tags:-2508355f83611ae3}

.SFSymbolsPreviewWireframe {fill:none;opacity:1.0;stroke:black;stroke-width:0.5}
</style>
 <g id="Notes">
  <rect height="2200" id="artboard" style="fill:white;opacity:1" width="3300" x="0" y="0"/>
  <line style="fill:none;stroke:black;opacity:1;stroke-width:0.5;" x1="263" x2="3036" y1="292" y2="292"/>
  <text style="stroke:none;fill:black;font-family:sans-serif;font-size:13;font-weight:bold;" transform="matrix(1 0 0 1 263 322)">Weight/Scale Variations</text>
  <text style="stroke:none;fill:black;font-family:sans-serif;font-size:13;text-anchor:middle;" transform="matrix(1 0 0 1 559.711 322)">Ultralight</text>
  <text style="stroke:none;fill:black;font-family:sans-serif;font-size:13;text-anchor:middle;" transform="matrix(1 0 0 1 856.422 322)">Thin</text>
  <text style="stroke:none;fill:black;font-family:sans-serif;font-size:13;text-anchor:middle;" transform="matrix(1 0 0 1 1153.13 322)">Light</text>
  <text style="stroke:none;fill:black;font-family:sans-serif;font-size:13;text-anchor:middle;" transform="matrix(1 0 0 1 1449.84 322)">Regular</text>
  <text style="stroke:none;fill:black;font-family:sans-serif;font-size:13;text-anchor:middle;" transform="matrix(1 0 0 1 1746.56 322)">Medium</text>
  <text style="stroke:none;fill:black;font-family:sans-serif;font-size:13;text-anchor:middle;" transform="matrix(1 0 0 1 2043.27 322)">Semibold</text>
  <text style="stroke:none;fill:black;font-family:sans-serif;font-size:13;text-anchor:middle;" transform="matrix(1 0 0 1 2339.98 322)">Bold</text>
  <text style="stroke:none;fill:black;font-family:sans-serif;font-size:13;text-anchor:middle;" transform="matrix(1 0 0 1 2636.69 322)">Heavy</text>
  <text style="stroke:none;fill:black;font-family:sans-serif;font-size:13;text-anchor:middle;" transform="matrix(1 0 0 1 2933.4 322)">Black</text>
  <line style="fill:none;stroke:black;opacity:1;stroke-width:0.5;" x1="263" x2="3036" y1="1903" y2="1903"/>
  <g transform="matrix(0.2 0 0 0.2 263 1933)">
   <path d="m46.2402 4.15039c21.7773 0 39.4531-17.627 39.4531-39.4043s-17.6758-39.4043-39.4531-39.4043c-21.7285 0-39.4043 17.627-39.4043 39.4043s17.6758 39.4043 39.4043 39.4043Zm0-7.42188c-17.6758 0-31.9336-14.3066-31.9336-31.9824s14.2578-31.9824 31.9336-31.9824 31.9824 14.3066 31.9824 31.9824-14.3066 31.9824-31.9824 31.9824Zm3.61328-17.7734v-28.4668c0-2.24609-1.46484-3.75977-3.71094-3.75977-2.14844 0-3.61328 1.51367-3.61328 3.75977v28.4668c0 2.19727 1.46484 3.71094 3.61328 3.71094 2.24609 0 3.71094-1.51367 3.71094-3.71094Zm-17.8223-10.5957h28.418c2.19727 0 3.71094-1.46484 3.71094-3.61328 0-2.19727-1.51367-3.71094-3.71094-3.71094h-28.418c-2.24609 0-3.75977 1.51367-3.75977 3.71094 0 2.14844 1.51367 3.61328 3.75977 3.61328Z"/>
  </g>
  <g transform="matrix(0.2 0 0 0.2 281.506 1933)">
   <path d="m58.5449 14.5508c27.4902 0 49.8047-22.3145 49.8047-49.8047s-22.3145-49.8047-49.8047-49.8047-49.8047 22.3145-49.8047 49.8047 22.3145 49.8047 49.8047 49.8047Zm0-8.30078c-22.9492 0-41.5039-18.5547-41.5039-41.5039s18.5547-41.5039 41.5039-41.5039 41.5039 18.5547 41.5039 41.5039-18.5547 41.5039-41.5039 41.5039Zm4.05273-23.0957v-36.9141c0-2.49023-1.70898-4.19922-4.15039-4.19922-2.39258 0-4.05273 1.70898-4.05273 4.19922v36.9141c0 2.44141 1.66016 4.15039 4.05273 4.15039 2.44141 0 4.15039-1.66016 4.15039-4.15039Zm-22.5586-14.4043h36.9629c2.44141 0 4.15039-1.61133 4.15039-4.00391 0-2.44141-1.70898-4.15039-4.15039-4.15039h-36.9629c-2.49023 0-4.15039 1.70898-4.15039 4.15039 0 2.39258 1.66016 4.00391 4.15039 4.00391Z"/>
  </g>
  <g transform="matrix(0.2 0 0 0.2 304.924 1933)">
   <path d="m74.8535 28.3203c35.1074 0 63.623-28.4668 63.623-63.5742s-28.5156-63.623-63.623-63.623-63.5742 28.5156-63.5742 63.623 28.4668 63.5742 63.5742 63.5742Zm0-9.08203c-30.127 0-54.4922-24.3652-54.4922-54.4922s24.3652-54.4922 54.4922-54.4922 54.4922 24.3652 54.4922 54.4922-24.3652 54.4922-54.4922 54.4922Zm4.44336-30.3223v-48.4863c0-2.73438-1.85547-4.63867-4.54102-4.63867-2.58789 0-4.44336 1.9043-4.44336 4.63867v48.4863c0 2.68555 1.85547 4.58984 4.44336 4.58984 2.68555 0 4.54102-1.85547 4.54102-4.58984Zm-28.7109-19.7754h48.4863c2.68555 0 4.58984-1.80664 4.58984-4.39453 0-2.73438-1.85547-4.58984-4.58984-4.58984h-48.4863c-2.73438 0-4.58984 1.85547-4.58984 4.58984 0 2.58789 1.85547 4.39453 4.58984 4.39453Z"/>
  </g>
  <text style="stroke:none;fill:black;font-family:sans-serif;font-size:13;font-weight:bold;" transform="matrix(1 0 0 1 263 1953)">Design Variations</text>
  <text style="stroke:none;fill:black;font-family:sans-serif;font-size:13;" transform="matrix(1 0 0 1 263 1971)">Symbols are supported in up to nine weights and three scales.</text>
  <text style="stroke:none;fill:black;font-family:sans-serif;font-size:13;" transform="matrix(1 0 0 1 263 1989)">For optimal layout with text and other symbols, vertically align</text>
  <text style="stroke:none;fill:black;font-family:sans-serif;font-size:13;" transform="matrix(1 0 0 1 263 2007)">symbols with the adjacent text.</text>
  <line style="fill:none;stroke:#00AEEF;stroke-width:0.5;opacity:1.0;" x1="776" x2="776" y1="1919" y2="1933"/>
  <g transform="matrix(0.2 0 0 0.2 776 1933)">
   <path d="m16.5527 0.78125c2.58789 0 3.85742-0.976562 4.78516-3.71094l20.5566-57.5195h0.244141l20.6055 57.5195c0.927734 2.73438 2.19727 3.71094 4.73633 3.71094 2.58789 0 4.24805-1.5625 4.24805-4.00391 0-0.830078-0.146484-1.61133-0.537109-2.63672l-22.9004-60.9863c-1.12305-2.97852-3.125-4.49219-6.25-4.49219-3.02734 0-5.07812 1.46484-6.15234 4.44336l-22.9004 61.084c-0.390625 1.02539-0.537109 1.80664-0.537109 2.63672 0 2.44141 1.5625 3.95508 4.10156 3.95508Zm10.2051-20.9473h30.6641c2.00195 0 3.66211-1.66016 3.66211-3.66211 0-2.05078-1.66016-3.66211-3.66211-3.66211h-30.6641c-2.00195 0-3.66211 1.61133-3.66211 3.66211 0 2.00195 1.66016 3.66211 3.66211 3.66211Z"/>
  </g>
  <line style="fill:none;stroke:#00AEEF;stroke-width:0.5;opacity:1.0;" x1="792.836" x2="792.836" y1="1919" y2="1933"/>
  <text style="stroke:none;fill:black;font-family:sans-serif;font-size:13;font-weight:bold;" transform="matrix(1 0 0 1 776 1953)">Margins</text>
  <text style="stroke:none;fill:black;font-family:sans-serif;font-size:13;" transform="matrix(1 0 0 1 776 1971)">Leading and trailing margins on the left and right side of each symbol</text>
  <text style="stroke:none;fill:black;font-family:sans-serif;font-size:13;" transform="matrix(1 0 0 1 776 1989)">can be adjusted by modifying the x-location of the margin guidelines.</text>
  <text style="stroke:none;fill:black;font-family:sans-serif;font-size:13;" transform="matrix(1 0 0 1 776 2007)">Modifications are automatically applied proportionally to all</text>
  <text style="stroke:none;fill:black;font-family:sans-serif;font-size:13;" transform="matrix(1 0 0 1 776 2025)">scales and weights.</text>
  <g transform="matrix(0.2 0 0 0.2 1289 1933)">
   <path d="m14.209 13.1348 7.86133 7.86133c4.29688 4.39453 9.32617 4.10156 13.8672-1.02539l60.6934-68.2129-4.88281-4.88281-60.2539 67.6758c-1.80664 1.95312-3.4668 2.44141-5.81055 0.0976562l-5.17578-5.12695c-2.29492-2.29492-1.80664-3.95508 0.195312-5.81055l67.4805-62.1582-4.88281-4.83398-68.0664 62.5977c-4.98047 4.58984-5.32227 9.47266-1.02539 13.8184Zm44.873-97.4609c-2.05078 2.00195-2.24609 4.88281-1.07422 6.78711 1.12305 1.80664 3.4668 3.02734 6.5918 2.24609 5.85938-1.66016 12.5977-2.39258 18.8965 0.927734l-2.68555 7.12891c-1.61133 4.00391-0.732422 6.88477 1.70898 9.42383l10.2539 10.3027c2.34375 2.39258 4.54102 2.44141 7.08008 1.95312l4.44336-0.732422 2.58789 2.53906-0.195312 2.24609c-0.0976562 2.29492 0.537109 4.29688 2.7832 6.49414l3.36914 3.32031c2.29492 2.29492 5.51758 2.49023 7.8125 0.195312l12.9883-13.0371c2.29492-2.34375 2.14844-5.37109-0.195312-7.66602l-3.41797-3.41797c-2.19727-2.19727-4.05273-3.02734-6.34766-2.88086l-2.34375 0.244141-2.44141-2.44141 1.02539-4.6875c0.634766-2.73438-0.244141-4.98047-2.88086-7.61719l-11.2793-11.1816c-12.9395-12.8418-35.5957-11.0352-46.6797-0.146484Zm7.08008 2.05078c8.78906-6.39648 25.9766-5.66406 33.6914 1.95312l12.3047 12.207c1.02539 1.02539 1.2207 1.80664 0.927734 3.32031l-1.46484 6.64062 6.73828 6.68945 4.39453-0.244141c1.12305-0.0488281 1.51367 0.0488281 2.34375 0.878906l2.53906 2.49023-10.8398 10.8398-2.49023-2.49023c-0.830078-0.878906-0.976562-1.2207-0.927734-2.39258l0.292969-4.3457-6.68945-6.73828-6.83594 1.17188c-1.41602 0.292969-2.05078 0.195312-3.17383-0.878906l-8.93555-8.88672c-1.07422-1.02539-1.17188-1.70898-0.488281-3.36914l4.58984-11.4746c-6.10352-6.34766-17.041-7.51953-25.5859-4.58984-0.683594 0.244141-0.927734-0.390625-0.390625-0.78125Z"/>
  </g>
  <text style="stroke:none;fill:black;font-family:sans-serif;font-size:13;font-weight:bold;" transform="matrix(1 0 0 1 1289 1953)">Exporting</text>
  <text style="stroke:none;fill:black;font-family:sans-serif;font-size:13;" transform="matrix(1 0 0 1 1289 1971)">Symbols should be outlined when exporting to ensure the</text>
  <text style="stroke:none;fill:black;font-family:sans-serif;font-size:13;" transform="matrix(1 0 0 1 1289 1989)">design is preserved when submitting to Xcode.</text>
  <text id="template-version" style="stroke:none;fill:black;font-family:sans-serif;font-size:13;text-anchor:end;" transform="matrix(1 0 0 1 3036 1933)">Template v.7.0</text>
  <text style="stroke:none;fill:black;font-family:sans-serif;font-size:13;text-anchor:end;" transform="matrix(1 0 0 1 3036 1951)">Requires Xcode 17 or greater</text>
  <text id="descriptive-name" style="stroke:none;fill:black;font-family:sans-serif;font-size:13;text-anchor:end;" transform="matrix(1 0 0 1 3036 1969)">Generated from jug</text>
  <text style="stroke:none;fill:black;font-family:sans-serif;font-size:13;text-anchor:end;" transform="matrix(1 0 0 1 3036 1987)">Typeset at 100.0 points</text>
  <text style="stroke:none;fill:black;font-family:sans-serif;font-size:13;" transform="matrix(1 0 0 1 263 726)">Small</text>
  <text style="stroke:none;fill:black;font-family:sans-serif;font-size:13;" transform="matrix(1 0 0 1 263 1156)">Medium</text>
  <text style="stroke:none;fill:black;font-family:sans-serif;font-size:13;" transform="matrix(1 0 0 1 263 1586)">Large</text>
 </g>
 <g id="Guides">
  <g id="H-reference" style="fill:#27AAE1;stroke:none;" transform="matrix(1 0 0 1 339 696)">
   <path d="M0.993654 0L3.63775 0L29.3281-67.1323L30.0303-67.1323L30.0303-70.459L28.1226-70.459ZM11.6885-24.4799L46.9815-24.4799L46.2315-26.7285L12.4385-26.7285ZM55.1196 0L57.7637 0L30.6382-70.459L29.4326-70.459L29.4326-67.1323Z"/>
  </g>
  <line id="Baseline-S" style="fill:none;stroke:#27AAE1;opacity:1;stroke-width:0.5;" x1="263" x2="3036" y1="696" y2="696"/>
  <line id="Capline-S" style="fill:none;stroke:#27AAE1;opacity:1;stroke-width:0.5;" x1="263" x2="3036" y1="625.541" y2="625.541"/>
  <g id="H-reference" style="fill:#27AAE1;stroke:none;" transform="matrix(1 0 0 1 339 1126)">
   <path d="M0.993654 0L3.63775 0L29.3281-67.1323L30.0303-67.1323L30.0303-70.459L28.1226-70.459ZM11.6885-24.4799L46.9815-24.4799L46.2315-26.7285L12.4385-26.7285ZM55.1196 0L57.7637 0L30.6382-70.459L29.4326-70.459L29.4326-67.1323Z"/>
  </g>
  <line id="Baseline-M" style="fill:none;stroke:#27AAE1;opacity:1;stroke-width:0.5;" x1="263" x2="3036" y1="1126" y2="1126"/>
  <line id="Capline-M" style="fill:none;stroke:#27AAE1;opacity:1;stroke-width:0.5;" x1="263" x2="3036" y1="1055.54" y2="1055.54"/>
  <g id="H-reference" style="fill:#27AAE1;stroke:none;" transform="matrix(1 0 0 1 339 1556)">
   <path d="M0.993654 0L3.63775 0L29.3281-67.1323L30.0303-67.1323L30.0303-70.459L28.1226-70.459ZM11.6885-24.4799L46.9815-24.4799L46.2315-26.7285L12.4385-26.7285ZM55.1196 0L57.7637 0L30.6382-70.459L29.4326-70.459L29.4326-67.1323Z"/>
  </g>
  <line id="Baseline-L" style="fill:none;stroke:#27AAE1;opacity:1;stroke-width:0.5;" x1="263" x2="3036" y1="1556" y2="1556"/>
  <line id="Capline-L" style="fill:none;stroke:#27AAE1;opacity:1;stroke-width:0.5;" x1="263" x2="3036" y1="1485.54" y2="1485.54"/>
  <line id="right-margin-Black-S" style="fill:none;stroke:#00AEEF;stroke-width:0.5;opacity:1.0;" x1="2979.4" x2="2979.4" y1="600.785" y2="720.121"/>
  <line id="left-margin-Black-S" style="fill:none;stroke:#00AEEF;stroke-width:0.5;opacity:1.0;" x1="2887.4" x2="2887.4" y1="600.785" y2="720.121"/>
  <line id="right-margin-Regular-S" style="fill:none;stroke:#00AEEF;stroke-width:0.5;opacity:1.0;" x1="1495.84" x2="1495.84" y1="600.785" y2="720.121"/>
  <line id="left-margin-Regular-S" style="fill:none;stroke:#00AEEF;stroke-width:0.5;opacity:1.0;" x1="1403.84" x2="1403.84" y1="600.785" y2="720.121"/>
  <line id="right-margin-Ultralight-S" style="fill:none;stroke:#00AEEF;stroke-width:0.5;opacity:1.0;" x1="605.711" x2="605.711" y1="600.785" y2="720.121"/>
  <line id="left-margin-Ultralight-S" style="fill:none;stroke:#00AEEF;stroke-width:0.5;opacity:1.0;" x1="513.711" x2="513.711" y1="600.785" y2="720.121"/>
 </g>
 <g id="Symbols">
  <g id="Black-S" transform="matrix(1 0 0 1 2887.4 696)">
   <path class="monochrome-0 multicolor-0:tintColor hierarchical-0:primary SFSymbolsPreviewWireframe" d="M41.1035-35.6426C48.0079-35.6606 55.3886-35.674 57.5-35.6651C61.3093-35.6516 61.3408-35.6516 61.5789-35.5572C62.347-35.2428 62.8906-34.6409 63.0209-33.9491C63.0703-33.6796 63.1018-10.0484 63.0524-9.7811C62.985-9.4172 62.8862-9.1881 62.6481-8.8556C62.4594-8.5906 62.0685-8.2806 61.7855-8.1594C61.269-7.9393 62.1715-7.9528 45.1914-7.9438C36.4586-7.9438 29.1498-7.9528 28.9521-7.9662C28.5074-8.0022 28.3457-8.0516 28.0133-8.2538C27.5237-8.5502 27.1373-9.0353 26.9666-9.5744C26.8902-9.8125 26.8857-10.446 26.8857-21.8202C26.8857-34.3309 26.8812-33.9311 27.0564-34.3309C27.3035-34.8744 27.7797-35.3282 28.3322-35.5258C28.5344-35.6022 29.24-35.6111 41.1035-35.6426ZM44.9803-30.9618C44.6568-30.9618 44.558-30.9437 44.4277-30.8674C44.248-30.7551 44.1267-30.6293 44.0908-30.508C44.0728-30.4586 44.0459-30.4227 44.028-30.4227C44.0055-30.4227 43.965-30.3598 43.9336-30.2879C43.9021-30.2116 43.8617-30.1532 43.8437-30.1532C43.8257-30.1531 43.7898-30.1037 43.7629-30.0409C43.7315-29.978 43.6865-29.9016 43.664-29.8701C43.6055-29.8026 43.0216-28.9043 42.9228-28.7291C42.8823-28.6616 42.6802-28.3293 42.4691-27.9969C42.2625-27.6645 42.0469-27.3051 41.993-27.1973C41.9391-27.094 41.8762-27.0086 41.8582-27.0086C41.8402-27.0086 41.8222-26.9907 41.8222-26.9637C41.8222-26.9413 41.7009-26.7166 41.5527-26.4696C41.4045-26.2226 41.2833-25.9981 41.2832-25.9754C41.2832-25.9485 41.2652-25.9305 41.2428-25.9305C41.2203-25.9305 41.1934-25.8945 41.1799-25.8496C41.1529-25.7733 40.8565-25.2254 40.7936-25.1444C40.7711-25.1174 40.6677-24.9288 40.5599-24.7176C40.4521-24.5065 40.3533-24.3268 40.3398-24.3133C40.3083-24.2862 39.6031-22.8579 39.3964-22.4042C39.0056-21.5462 38.6732-20.6028 38.5654-20.0458C38.4845-19.6235 38.4082-18.9092 38.4082-18.5858C38.4082-18.0647 38.5205-17.2741 38.6687-16.7215C38.8574-16.0297 39.4234-14.8977 39.7424-14.5742C39.7738-14.5428 39.8007-14.4933 39.8007-14.4709C39.8011-14.4032 40.7935-13.4243 40.9598-13.3299C41.0406-13.2805 41.1035-13.231 41.1035-13.2131C41.1036-13.1951 41.1664-13.1592 41.2382-13.1278C41.3146-13.0964 41.3729-13.0559 41.373-13.0379C41.373-12.9885 42.4512-12.4674 42.8151-12.3461C43.1654-12.2338 43.5967-12.126 44.0234-12.0586C44.3558-12.0047 45.69-11.9957 45.9236-12.0451C46.0269-12.0676 46.256-12.1125 46.4267-12.144C46.9568-12.2383 47.7968-12.5348 48.2011-12.7684C48.3134-12.8313 48.4347-12.8986 48.4707-12.9121C48.565-12.9481 49.194-13.4062 49.3737-13.568C49.459-13.6443 49.5803-13.7522 49.6432-13.8106C50.0789-14.1924 50.6719-15.0145 50.9729-15.6434C51.3008-16.3352 51.422-16.7036 51.5478-17.4178C51.6242-17.8401 51.6377-19.2461 51.5703-19.6055C51.413-20.4051 51.3053-20.7825 51.0223-21.5057C50.7618-22.1659 50.7572-22.175 50.1512-23.3915L50.1508-23.3924C49.5982-24.5065 49.405-24.8704 49.122-25.3465C49.0412-25.4813 48.9244-25.6835 48.866-25.7958C48.7177-26.0609 47.963-27.3276 47.7744-27.6151C47.653-27.8083 47.2173-28.5001 47.0781-28.7157C46.7591-29.2233 45.825-30.6111 45.735-30.7057C45.5418-30.9168 45.4115-30.9618 44.9803-30.9618ZM55.0517-57.7577C55.8693-57.7577 55.8559-57.7621 56.9295-57.268C57.118-57.1782 57.2841-57.1064 57.2933-57.1063C57.3023-57.1063 57.4865-57.0254 57.6976-56.9266C57.9086-56.8278 58.0883-56.747 58.1019-56.7469C58.1109-56.7469 58.2951-56.6661 58.5062-56.5672C58.7172-56.4685 58.9012-56.3877 58.915-56.3875C58.9869-56.3875 60.1234-55.8125 60.3435-55.6598C60.7344-55.3947 61.3498-54.7704 61.4621-54.5188C61.4891-54.4605 61.5249-54.4111 61.5429-54.411C61.5834-54.411 61.9472-53.6294 61.9472-53.5395C61.9472-53.5036 61.9652-53.4631 61.9877-53.4496C62.0056-53.4362 62.0371-53.3283 62.0551-53.2115C62.073-53.0902 62.1045-52.8522 62.1315-52.6815C62.1539-52.5063 62.1943-52.2143 62.2168-52.0301C62.2392-51.8459 62.2796-51.5359 62.3066-51.3428C62.3291-51.1541 62.3695-50.8486 62.392-50.669C62.4459-50.2602 62.5267-49.6672 62.5761-49.2899C62.5986-49.1282 62.639-48.8452 62.666-48.661C62.6884-48.4768 62.7289-48.1938 62.7513-48.0321C62.8367-47.4481 62.8996-47.0168 62.9401-46.7158C62.9625-46.5496 62.9984-46.2801 63.0209-46.1094C63.0433-45.9432 63.0882-45.6467 63.1152-45.4491C63.1421-45.2514 63.1871-44.9414 63.2096-44.7617C63.277-44.2362 63.3578-43.6073 63.4746-42.7987C63.5015-42.601 63.542-42.291 63.5644-42.1113C63.5914-41.9361 63.6273-41.6397 63.6543-41.46C63.7666-40.602 63.7936-40.3908 63.8205-40.0449C63.8789-39.2364 63.6273-38.5266 63.1018-37.9965C62.6885-37.5832 62.4728-37.462 61.9113-37.3137C61.6373-37.2419 60.6535-37.2373 60.4423-37.3047C60.3705-37.3272 60.2357-37.3676 60.1503-37.3945C60.065-37.417 59.9122-37.4754 59.8134-37.5204C59.3777-37.718 59.0767-37.8527 58.8476-37.9561C58.3086-38.1986 57.6574-38.5265 57.6438-38.5625C57.6348-38.5805 57.6078-38.5985 57.5853-38.5985C57.5447-38.5986 56.8755-39.0298 56.8261-39.0882C56.8125-39.1017 56.7272-39.169 56.6375-39.2408C56.4129-39.407 56.0714-39.7485 55.8828-39.9911C55.7974-40.1034 55.7166-40.2022 55.7031-40.2157C55.6805-40.2383 55.5143-40.4898 55.3392-40.7772C55.2314-40.9479 55.1416-41.1321 54.9978-41.4735C54.9619-41.5588 54.9125-41.6711 54.89-41.7206C54.8406-41.8374 54.7193-42.2866 54.6609-42.5741C54.6385-42.6954 54.598-42.8885 54.5756-43.0008C54.5486-43.1131 54.5217-43.2614 54.5082-43.3377C54.4947-43.4096 54.4677-43.5534 54.4453-43.6522C54.4273-43.751 54.3824-43.9532 54.3554-44.1014C54.3285-44.2497 54.288-44.4518 54.2656-44.5506C54.2117-44.7977 54.1533-45.1077 53.9961-45.9207C53.8343-46.7697 53.7759-47.0573 53.7265-47.2909C53.7041-47.3897 53.6636-47.6008 53.6367-47.7625C53.5873-48.0321 53.5558-48.1938 53.457-48.6834C53.4345-48.7823 53.3941-48.9844 53.3671-49.1327C53.3402-49.2809 53.2998-49.4831 53.2773-49.5819C53.2548-49.6807 53.219-49.8783 53.192-50.0176C53.1651-50.1613 53.1201-50.3949 53.0931-50.5342C53.0033-51.0014 52.9673-51.1946 52.9179-51.4686C52.8865-51.6168 52.8505-51.819 52.8281-51.9178C52.8056-52.0167 52.7473-52.3177 52.6979-52.5916C52.6485-52.8612 52.5945-53.1442 52.581-53.2206C52.5675-53.2924 52.5361-53.4542 52.5136-53.5799C52.4912-53.7012 52.4418-53.9753 52.4059-54.1864C52.316-54.676 52.3115-55.4486 52.4013-55.79C52.6304-56.684 53.2369-57.3354 54.1757-57.6992C54.2835-57.7397 54.5576-57.7577 55.0517-57.7577ZM56.1748-55.3319C55.1955-55.7766 55.0113-55.826 54.7912-55.7047C54.6475-55.6283 54.4003-55.3723 54.4003-55.3004C54.4003-55.2644 54.3779-55.215 54.3465-55.1836C54.3105-55.1477 54.3061-55.0713 54.3465-54.8961C54.3734-54.7658 54.4183-54.5143 54.4453-54.3436C54.4722-54.1684 54.5172-53.9663 54.5397-53.8899C54.5621-53.8136 54.58-53.7057 54.58-53.6473C54.58-53.5934 54.598-53.4721 54.625-53.3823C54.6474-53.2924 54.7283-52.8881 54.8046-52.4793C54.881-52.0706 54.9619-51.6573 54.9843-51.5584C55.0023-51.4596 55.0427-51.2619 55.0697-51.1182C55.0967-50.9789 55.1416-50.7453 55.1686-50.6016C55.1955-50.4623 55.2314-50.2647 55.2539-50.1659C55.2763-50.067 55.3168-49.8649 55.3437-49.7166C55.3707-49.5684 55.4111-49.3663 55.4336-49.2674C55.456-49.1686 55.4964-48.9664 55.5234-48.8182C55.5503-48.67 55.5908-48.4678 55.6132-48.369C55.6357-48.2702 55.6717-48.077 55.6986-47.9422C55.7795-47.4975 55.8423-47.1606 55.8828-46.9764C55.9052-46.8776 55.9457-46.6754 55.9726-46.5272C55.9996-46.379 56.0445-46.1768 56.0625-46.078C56.0849-45.9792 56.1253-45.777 56.1523-45.6288C56.1837-45.4805 56.2242-45.2784 56.2467-45.1795C56.2871-44.9819 56.4219-44.3485 56.4533-44.1688C56.4668-44.1059 56.5072-43.9038 56.5432-43.7196C56.5836-43.5354 56.6285-43.3018 56.651-43.203C56.7229-42.8481 56.7722-42.6594 56.8486-42.4393C56.9474-42.1608 57.1721-41.7025 57.2575-41.6217C57.2934-41.5857 57.3203-41.5408 57.3203-41.5229C57.3203-41.46 57.9268-40.8625 58.2008-40.6514C58.4569-40.4582 59.0363-40.1438 59.5799-39.9057C60.0111-39.717 60.2222-39.6182 60.4648-39.5103C60.5995-39.4475 60.7927-39.3577 60.8916-39.3128C61.1072-39.2184 61.242-39.2094 61.3768-39.2813C61.525-39.3576 61.7182-39.5822 61.7496-39.708C61.7811-39.8203 61.763-39.9911 61.6777-40.62C61.6507-40.8042 61.6103-41.1096 61.5834-41.2938C61.5609-41.478 61.5205-41.77 61.498-41.9452C61.4711-42.1159 61.4351-42.4124 61.4082-42.5965C61.3857-42.7807 61.3453-43.0862 61.3183-43.2704C61.2914-43.4545 61.2509-43.76 61.2285-43.9442C61.1701-44.4114 61.0937-44.9864 61.0443-45.3592C61.0219-45.5299 60.9814-45.8264 60.9589-46.0106C60.9005-46.5002 60.8242-47.0663 60.7748-47.4256C60.7523-47.5963 60.7119-47.8928 60.6894-48.077C60.6669-48.2612 60.6265-48.5667 60.5996-48.7508C60.5457-49.1506 60.4783-49.6717 60.4199-50.1659C60.3929-50.3635 60.3525-50.687 60.33-50.8846C60.3031-51.0823 60.2627-51.3967 60.2402-51.5809C60.1099-52.65 60.0336-52.9106 59.7282-53.3778C59.4451-53.8045 59.0228-54.092 58.1289-54.4693C58.0435-54.5053 57.8549-54.5907 57.7111-54.6536C57.5674-54.7165 57.4416-54.7704 57.4326-54.7704C57.4232-54.7705 57.2886-54.8289 57.1316-54.9006C56.9744-54.9725 56.7498-55.0758 56.624-55.1297C56.5027-55.1836 56.3005-55.278 56.1748-55.3319ZM42.9228-74.8774C49.2522-74.9043 49.6027-74.8998 50.0205-74.7516C50.7437-74.5045 51.2244-74.0014 51.4715-73.2332C51.5074-73.1209 51.5254-72.3348 51.5344-70.7176C51.5434-68.4132 51.5389-68.3547 51.4445-68.0897C51.3008-67.6809 51.1525-67.4428 50.865-67.1598C50.591-66.8947 50.2092-66.6746 49.8498-66.5802C49.6477-66.5219 49.6386-66.5129 49.6386-66.3602C49.6386-66.1311 49.8229-65.6728 49.9801-65.5201C50.0431-65.4572 50.3441-65.3089 51.413-64.8329C51.5388-64.779 51.7635-64.6756 51.9207-64.6037C52.0777-64.5319 52.2123-64.4737 52.2216-64.4735C52.2441-64.4735 52.6215-64.3027 53.0842-64.0871C53.2638-64.0018 53.4164-63.9345 53.4301-63.9344C53.439-63.9344 53.5963-63.867 53.7805-63.7817C53.9602-63.7008 54.3015-63.5436 54.5351-63.4403C54.7687-63.337 55.1236-63.1752 55.3212-63.0809C55.5189-62.9911 55.7615-62.8788 55.8603-62.8338C55.9591-62.7889 56.1927-62.6856 56.3769-62.5957C56.5611-62.5104 56.8396-62.3801 56.9969-62.3128C57.1496-62.2409 57.4056-62.1196 57.5673-62.0477C57.7291-61.9758 57.9941-61.8501 58.1648-61.7737C58.331-61.6973 58.6365-61.5535 58.8476-61.4547C59.5035-61.1447 60.4783-60.6911 60.7254-60.5833C60.8017-60.5473 60.9365-60.4934 61.0174-60.4574C61.6058-60.1969 62.4323-59.8016 62.7109-59.6399C62.9355-59.5096 63.3398-59.2625 63.4072-59.2086C63.4341-59.1861 63.5554-59.0963 63.6767-59.0064C64.1124-58.683 64.6291-58.171 64.948-57.7532C65.7342-56.72 66.0576-55.9293 66.3046-54.4649C66.3271-54.3121 66.3675-54.0695 66.3945-53.9258C66.4169-53.7865 66.4574-53.526 66.4843-53.3553C66.5113-53.1801 66.5517-52.9286 66.5742-52.7938C66.5966-52.659 66.6371-52.3984 66.6595-52.2232C66.6865-52.0435 66.7315-51.7471 66.7584-51.5719C66.7809-51.3922 66.8213-51.1317 66.8437-50.9969C66.8662-50.8622 66.9066-50.5971 66.9336-50.4129C66.9605-50.2288 67.0009-49.9637 67.0234-49.829C67.0459-49.6942 67.0863-49.4291 67.1132-49.245C67.1402-49.0608 67.1806-48.7958 67.2031-48.661C67.2255-48.5262 67.266-48.2612 67.2929-48.077C67.3199-47.8928 67.3603-47.6368 67.3828-47.5155C67.4052-47.3897 67.4367-47.21 67.4457-47.1112C67.4592-47.0124 67.4906-46.8012 67.5175-46.6395C67.54-46.4778 67.5849-46.2038 67.6074-46.0331C67.7332-45.1975 67.7916-44.7977 67.8769-44.2586C67.9039-44.0745 67.9488-43.8004 67.9668-43.6522C67.9892-43.504 68.0296-43.2389 68.0566-43.0682C68.0836-42.893 68.124-42.61 68.1464-42.4393C68.1734-42.2641 68.2093-41.9946 68.2363-41.8329C68.2587-41.6712 68.2992-41.3971 68.3261-41.2264C68.3486-41.0512 68.389-40.7907 68.416-40.6424C68.4429-40.4942 68.4834-40.2291 68.5058-40.0584C68.5283-39.8833 68.5687-39.6137 68.5957-39.452C68.6226-39.2903 68.663-39.0163 68.6855-38.8456C68.7709-38.2661 68.8113-37.9965 68.8652-37.6551C68.9191-37.3137 68.9595-37.0442 69.0449-36.4647C69.0673-36.2895 69.1123-36.02 69.1347-35.8583C69.1617-35.6965 69.2021-35.436 69.2246-35.2743C69.247-35.1125 69.2875-34.8565 69.3099-34.6992C69.5929-33.0192 69.5795-33.8008 69.5615-20.6522C69.548-14.0803 69.53-8.5101 69.5166-8.2762C69.4896-7.8629 69.4357-7.4811 69.3593-7.1532C69.3369-7.0678 69.2965-6.8926 69.265-6.7713C69.2156-6.5422 69.0673-6.0796 69-5.9178C68.982-5.8684 68.9191-5.7067 68.8607-5.5585C68.7574-5.2845 68.3353-4.4088 68.2858-4.368C68.2723-4.3545 68.2094-4.2557 68.151-4.1434C68.0881-4.0311 68.0117-3.9143 67.9803-3.8828C67.9488-3.8514 67.9219-3.8065 67.9218-3.784C67.9218-3.6897 67.1852-2.8137 66.691-2.3196C66.1116-1.7401 65.6308-1.3583 65.0379-0.9944C64.3057-0.5452 63.3892-0.1588 62.7109-0.0106C62.5761 0.0164 62.3919 0.0613 62.3066 0.0883C62.0366 0.1691 57.2298 0.205 46.6469 0.2095C36.0947 0.214 36.3328 0.2185 35.4658 0.0388C35.1918-0.0196 34.8054-0.1229 34.473-0.2262C33.9025-0.4059 32.3438-1.1605 31.6565-1.5963C31.5352-1.6726 31.423-1.7131 31.4049-1.6907C31.3825-1.6682 31.1488-1.3583 30.8837-0.9989C30.4255-0.3835 29.8371 0.2589 29.5361 0.4656C29.2171 0.6902 28.8712 0.8339 28.3906 0.9552C28.1255 1.0226 27.1597 1.0406 26.9306 0.9822C26.8587 0.9597 26.6835 0.9193 26.5488 0.8878C26.414 0.8564 26.1804 0.7755 26.0322 0.7037C25.884 0.6318 25.7492 0.5734 25.7312 0.5734C25.6997 0.5734 25.2416 0.2994 25.2011 0.2589C25.1876 0.2454 25.1067 0.1825 25.0214 0.1242C24.8418-0.0016 24.725-0.096 24.442-0.3475C24.1545-0.6036 24.0916-0.6665 23.7636-1.0438C23.6019-1.228 23.4627-1.3897 23.4492-1.4032C23.4356-1.4168 23.3548-1.5156 23.2695-1.6278C23.1841-1.7401 23.0988-1.8479 23.0764-1.8749C23.0584-1.8974 22.9326-2.0725 22.8024-2.2567C21.8815-3.5774 21.1852-5.1047 20.8932-6.4569C20.5787-7.9034 20.5967-7.3284 20.6012-16.3622C20.6012-20.8723 20.6281-25.7508 20.6551-27.2108C20.6865-28.6663 20.7314-30.9303 20.7539-32.242C20.8302-36.2985 20.974-40.5616 21.1132-43.0907C21.1357-43.5219 21.1761-44.2991 21.2031-44.8202C21.23-45.3368 21.2705-46.087 21.2929-46.4823C21.3154-46.8776 21.3558-47.5829 21.3828-48.0545C21.4502-49.2719 21.513-50.3051 21.6523-52.5332C21.7107-53.4182 21.7602-53.7237 21.9309-54.2538C22.1959-55.0578 22.5732-55.7227 23.247-56.5672C23.4582-56.8323 24.4824-57.8115 25.0888-58.3237C25.1876-58.409 25.2775-58.4854 25.291-58.4989C25.3045-58.5123 25.4257-58.6112 25.5605-58.7235C25.6952-58.8358 25.8165-58.9346 25.83-58.9481C25.8435-58.9616 25.9648-59.0604 26.0996-59.1727C26.2343-59.285 26.3556-59.3838 26.3691-59.3973C26.3826-59.4108 26.4814-59.4917 26.5937-59.577C26.706-59.6623 26.8048-59.7432 26.8183-59.7567C26.8318-59.7747 27.2136-60.0622 27.6718-60.4036C28.13-60.745 28.5389-61.0504 28.5838-61.0864C28.8488-61.302 30.9377-62.6451 31.4723-62.9506C31.5576-62.9955 31.6969-63.0764 31.7867-63.1258C31.8721-63.1752 31.9889-63.2471 32.0428-63.2786C32.1687-63.3595 33.9159-64.3386 34.3652-64.5768C34.5494-64.6756 34.7561-64.7924 34.8234-64.8418C34.8863-64.8867 34.9536-64.9227 34.9672-64.9227C34.9851-64.9227 35.1424-65.0125 35.3221-65.1203C35.4972-65.2281 35.7083-65.3449 35.7802-65.3853C35.8566-65.4258 35.969-65.5022 36.0363-65.5606C36.1981-65.7088 36.4316-66.1804 36.4316-66.3736C36.4316-66.5174 36.4182-66.5308 36.2789-66.5578C35.8162-66.6476 35.1963-67.1014 34.8864-67.5865C34.5584-68.0941 34.5674-68.0178 34.5539-70.5379C34.5449-72.1551 34.5539-72.8784 34.5898-73.0536C34.738-73.7453 35.1828-74.3338 35.7578-74.6078C36.0318-74.7426 36.1935-74.7921 36.4226-74.8235C36.526-74.8415 39.4549-74.8639 42.9228-74.8774ZM38.498-66.3018C38.498-66.0098 38.3947-65.4932 38.2689-65.1832C38.0039-64.5049 37.4693-63.9164 36.791-63.5435C36.6562-63.4672 36.472-63.3683 36.3867-63.3189C36.3013-63.2695 36.0992-63.1618 35.9375-63.0809C35.7757-62.9956 35.596-62.8967 35.5332-62.8563C35.4703-62.8159 35.2681-62.699 35.0839-62.6002C34.8998-62.5014 34.5943-62.3307 34.4101-62.2274C34.2259-62.1241 33.9744-61.9803 33.8486-61.9129C33.7273-61.8411 33.3545-61.6209 33.0221-61.4233C32.6942-61.2211 32.4156-61.0594 32.4066-61.0594C32.3973-61.0592 32.2043-60.938 31.9754-60.7899C31.7463-60.6416 31.5261-60.5024 31.4902-60.4799C31.2386-60.3226 29.891-59.4198 29.873-59.3973C29.8594-59.3838 29.6394-59.2221 29.3789-59.0379C29.1183-58.8538 28.8982-58.692 28.8847-58.6786C28.8712-58.6651 28.7904-58.6022 28.705-58.5438C28.6197-58.4809 28.4984-58.3865 28.4355-58.3326C28.3726-58.2742 28.3098-58.2293 28.2918-58.2293C28.2783-58.2293 28.2334-58.2023 28.2019-58.1709C28.1705-58.1395 28.0537-58.0452 27.9414-57.9598C27.8291-57.8745 27.7302-57.7936 27.7168-57.7801C27.7032-57.7666 27.6044-57.6858 27.4921-57.6004C27.3798-57.5151 27.2586-57.4163 27.2226-57.3758C27.1867-57.3399 27.0609-57.232 26.9441-57.1377C26.8273-57.0434 26.706-56.9445 26.6746-56.9131C26.6431-56.8816 26.4859-56.7469 26.3242-56.6122C26.1625-56.4774 25.9334-56.2753 25.8076-56.1585C25.6863-56.0462 25.4841-55.862 25.3584-55.7542C25.1203-55.5385 24.8104-55.2196 24.6531-55.013C24.5947-54.9411 24.5273-54.8557 24.4959-54.8242C24.4689-54.7973 24.4285-54.7299 24.415-54.6805C24.4015-54.6311 24.3701-54.5907 24.3567-54.5907C24.3252-54.5907 23.9748-53.9213 23.8984-53.7147C23.7187-53.243 23.6648-52.8746 23.5839-51.5494C23.4851-50.0041 23.4492-49.4561 23.4043-48.7733C23.283-46.954 23.2021-45.5434 23.1347-44.1463C23.0224-41.8913 23-41.3432 22.955-40.2831C22.8068-36.6983 22.7574-34.7127 22.6855-30.243C22.6091-25.3016 22.5552-20.3243 22.5238-14.745C22.4879-8.8917 22.4924-8.7479 22.7575-7.4452C22.8158-7.1532 22.8427-7.0453 22.9506-6.6455C23.0135-6.4074 23.2246-5.7966 23.301-5.6258C23.4986-5.1766 23.6828-4.7858 23.7277-4.7049C23.7547-4.6555 23.84-4.5028 23.9164-4.368C23.9882-4.2333 24.0647-4.103 24.0871-4.076C24.1096-4.0536 24.2129-3.9008 24.3162-3.7391C24.5273-3.4203 24.8461-2.9667 24.8867-2.9305C24.9002-2.917 24.981-2.8182 25.0664-2.7059C25.3089-2.396 26.0188-1.6997 26.3332-1.4706C27.007-0.9719 27.6359-0.8372 28.1346-1.0887C28.449-1.246 28.6422-1.4571 29.3924-2.4588C30.0302-3.3078 30.4121-3.7436 30.6142-3.8559C30.6636-3.8828 30.8434-3.9323 31.0096-3.9637C31.2566-4.0131 31.3645-4.0131 31.5846-3.9682C31.8092-3.9233 32.3167-3.6942 32.3886-3.6088C32.4515-3.5325 33.5251-2.9171 34.1181-2.6161C35.0435-2.1489 35.4388-1.9961 35.9599-1.8973C36.1082-1.8704 36.3283-1.83 36.4451-1.803C36.5799-1.7805 40.1018-1.7625 45.5418-1.767C55.9089-1.7715 61.7711-1.8164 61.9697-1.8883C62.046-1.9152 62.2482-1.9782 62.4189-2.0321C62.9085-2.1803 63.3713-2.3959 63.9013-2.7193C64.2023-2.9035 64.5617-3.1551 64.6425-3.245C64.656-3.2585 64.7549-3.3393 64.8671-3.4291C65.1546-3.6627 65.3074-3.811 65.5859-4.1434C65.7207-4.3051 65.8465-4.4444 65.86-4.4579C65.923-4.5164 66.399-5.235 66.5293-5.4731C66.7763-5.9178 66.7943-5.9538 66.9246-6.2547C67.257-7.0049 67.4636-7.827 67.5625-8.8153C67.6343-9.5255 67.5985-32.6868 67.5266-33.118C67.4412-33.6256 67.3918-33.9401 67.3379-34.286C67.3109-34.4702 67.266-34.7442 67.2435-34.8924C67.2211-35.0407 67.1806-35.3012 67.1582-35.4764C67.1312-35.6471 67.0908-35.9166 67.0683-36.0693C66.992-36.568 66.8662-37.417 66.7988-37.8797C66.7314-38.3694 66.6685-38.7872 66.6191-39.0926C66.5921-39.2543 66.5517-39.5149 66.5293-39.6766C66.5068-39.8383 66.4664-40.1079 66.4394-40.2831C66.408-40.4538 66.372-40.7098 66.3496-40.8446C66.3271-40.9794 66.2912-41.2219 66.2688-41.3836C66.2014-41.7924 66.1294-42.2911 66.08-42.6639C66.0576-42.8346 66.0171-43.1087 65.9902-43.2704C65.9408-43.5578 65.9093-43.769 65.8105-44.4383C65.7836-44.6225 65.7431-44.9055 65.7162-45.0672C65.6937-45.229 65.6533-45.4895 65.6308-45.6512C65.6084-45.8129 65.568-46.0735 65.5455-46.2352C65.5186-46.3969 65.4781-46.6619 65.4511-46.8281C65.4287-46.9988 65.3882-47.2594 65.3613-47.4121C65.3388-47.5693 65.2984-47.8254 65.2714-47.9872C65.2445-48.1489 65.2041-48.4094 65.1816-48.5711C65.1187-49.0159 65.0513-49.4606 65.0019-49.784C64.975-49.9458 64.9345-50.2063 64.9076-50.368C64.8851-50.5297 64.8447-50.7813 64.8222-50.9295C64.7998-51.0778 64.7593-51.3338 64.7324-51.5C64.7099-51.6707 64.6695-51.9313 64.6425-52.084C64.6201-52.2412 64.5796-52.5063 64.5527-52.6815C64.2832-54.4514 64.1799-54.9455 63.9957-55.3184C63.9553-55.3947 63.9238-55.4711 63.9238-55.4936C63.9237-55.5296 63.5599-56.1719 63.5195-56.2079C63.5059-56.2214 63.4431-56.3023 63.3847-56.3875C63.0702-56.8458 62.1583-57.6319 61.6552-57.87C61.5834-57.9059 61.5115-57.9463 61.498-57.9643C61.4754-57.9868 61.2552-58.0946 60.7793-58.3057C60.4648-58.4494 60.1593-58.5887 59.791-58.7594C59.6293-58.8357 59.3777-58.9481 59.2295-59.0155C59.0812-59.0829 58.8117-59.2086 58.632-59.2895C58.4568-59.3748 58.1918-59.4961 58.0481-59.559C57.9088-59.6264 57.6662-59.7342 57.509-59.8061C57.244-59.9274 56.9879-60.0487 56.3455-60.3451C56.1883-60.417 55.9367-60.5339 55.784-60.6057C55.6268-60.6776 55.3842-60.7899 55.2449-60.8528C54.9664-60.9786 54.6519-61.1223 54.2342-61.311C54.0904-61.3783 53.8029-61.5041 53.5918-61.5985C53.3806-61.6928 53.0976-61.8186 52.9628-61.8814C52.8281-61.9398 52.563-62.0567 52.3789-62.1375C52.1947-62.2184 51.9431-62.3262 51.8173-62.3846C51.3996-62.5733 51.1435-62.6856 50.9863-62.7529C50.9009-62.7934 50.6853-62.8922 50.5057-62.9731C50.3262-63.0583 50.1691-63.1257 50.1598-63.1258C50.0789-63.1258 48.956-63.6693 48.884-63.7412C48.8526-63.7727 48.8121-63.7996 48.7942-63.7997C48.7223-63.8041 48.3853-64.159 48.2191-64.4061C47.8642-64.9362 47.698-65.4393 47.6396-66.1445L47.6082-66.5399L38.498-66.5399L38.498-66.3018Z"/>
  </g>
  <g id="Regular-S" transform="matrix(1 0 0 1 1403.84 696)">
   <path class="monochrome-0 multicolor-0:tintColor hierarchical-0:primary SFSymbolsPreviewWireframe" d="M41.1035-35.6426C48.0079-35.6606 55.3886-35.674 57.5-35.6651C61.3093-35.6516 61.3408-35.6516 61.5789-35.5572C62.347-35.2428 62.8906-34.6409 63.0209-33.9491C63.0703-33.6796 63.1018-10.0484 63.0524-9.7811C62.985-9.4172 62.8862-9.1881 62.6481-8.8556C62.4594-8.5906 62.0685-8.2806 61.7855-8.1594C61.269-7.9393 62.1715-7.9528 45.1914-7.9438C36.4586-7.9438 29.1498-7.9528 28.9521-7.9662C28.5074-8.0022 28.3457-8.0516 28.0133-8.2538C27.5237-8.5502 27.1373-9.0353 26.9666-9.5744C26.8902-9.8125 26.8857-10.446 26.8857-21.8202C26.8857-34.3309 26.8812-33.9311 27.0564-34.3309C27.3035-34.8744 27.7797-35.3282 28.3322-35.5258C28.5344-35.6022 29.24-35.6111 41.1035-35.6426ZM44.9803-30.9618C44.6568-30.9618 44.558-30.9437 44.4277-30.8674C44.248-30.7551 44.1267-30.6293 44.0908-30.508C44.0728-30.4586 44.0459-30.4227 44.028-30.4227C44.0055-30.4227 43.965-30.3598 43.9336-30.2879C43.9021-30.2116 43.8617-30.1532 43.8437-30.1532C43.8257-30.1531 43.7898-30.1037 43.7629-30.0409C43.7315-29.978 43.6865-29.9016 43.664-29.8701C43.6055-29.8026 43.0216-28.9043 42.9228-28.7291C42.8823-28.6616 42.6802-28.3293 42.4691-27.9969C42.2625-27.6645 42.0469-27.3051 41.993-27.1973C41.9391-27.094 41.8762-27.0086 41.8582-27.0086C41.8402-27.0086 41.8222-26.9907 41.8222-26.9637C41.8222-26.9413 41.7009-26.7166 41.5527-26.4696C41.4045-26.2226 41.2833-25.9981 41.2832-25.9754C41.2832-25.9485 41.2652-25.9305 41.2428-25.9305C41.2203-25.9305 41.1934-25.8945 41.1799-25.8496C41.1529-25.7733 40.8565-25.2254 40.7936-25.1444C40.7711-25.1174 40.6677-24.9288 40.5599-24.7176C40.4521-24.5065 40.3533-24.3268 40.3398-24.3133C40.3083-24.2862 39.6031-22.8579 39.3964-22.4042C39.0056-21.5462 38.6732-20.6028 38.5654-20.0458C38.4845-19.6235 38.4082-18.9092 38.4082-18.5858C38.4082-18.0647 38.5205-17.2741 38.6687-16.7215C38.8574-16.0297 39.4234-14.8977 39.7424-14.5742C39.7738-14.5428 39.8007-14.4933 39.8007-14.4709C39.8011-14.4032 40.7935-13.4243 40.9598-13.3299C41.0406-13.2805 41.1035-13.231 41.1035-13.2131C41.1036-13.1951 41.1664-13.1592 41.2382-13.1278C41.3146-13.0964 41.3729-13.0559 41.373-13.0379C41.373-12.9885 42.4512-12.4674 42.8151-12.3461C43.1654-12.2338 43.5967-12.126 44.0234-12.0586C44.3558-12.0047 45.69-11.9957 45.9236-12.0451C46.0269-12.0676 46.256-12.1125 46.4267-12.144C46.9568-12.2383 47.7968-12.5348 48.2011-12.7684C48.3134-12.8313 48.4347-12.8986 48.4707-12.9121C48.565-12.9481 49.194-13.4062 49.3737-13.568C49.459-13.6443 49.5803-13.7522 49.6432-13.8106C50.0789-14.1924 50.6719-15.0145 50.9729-15.6434C51.3008-16.3352 51.422-16.7036 51.5478-17.4178C51.6242-17.8401 51.6377-19.2461 51.5703-19.6055C51.413-20.4051 51.3053-20.7825 51.0223-21.5057C50.7618-22.1659 50.7572-22.175 50.1512-23.3915L50.1508-23.3924C49.5982-24.5065 49.405-24.8704 49.122-25.3465C49.0412-25.4813 48.9244-25.6835 48.866-25.7958C48.7177-26.0609 47.963-27.3276 47.7744-27.6151C47.653-27.8083 47.2173-28.5001 47.0781-28.7157C46.7591-29.2233 45.825-30.6111 45.735-30.7057C45.5418-30.9168 45.4115-30.9618 44.9803-30.9618ZM55.0517-57.7577C55.8693-57.7577 55.8559-57.7621 56.9295-57.268C57.118-57.1782 57.2841-57.1064 57.2933-57.1063C57.3023-57.1063 57.4865-57.0254 57.6976-56.9266C57.9086-56.8278 58.0883-56.747 58.1019-56.7469C58.1109-56.7469 58.2951-56.6661 58.5062-56.5672C58.7172-56.4685 58.9012-56.3877 58.915-56.3875C58.9869-56.3875 60.1234-55.8125 60.3435-55.6598C60.7344-55.3947 61.3498-54.7704 61.4621-54.5188C61.4891-54.4605 61.5249-54.4111 61.5429-54.411C61.5834-54.411 61.9472-53.6294 61.9472-53.5395C61.9472-53.5036 61.9652-53.4631 61.9877-53.4496C62.0056-53.4362 62.0371-53.3283 62.0551-53.2115C62.073-53.0902 62.1045-52.8522 62.1315-52.6815C62.1539-52.5063 62.1943-52.2143 62.2168-52.0301C62.2392-51.8459 62.2796-51.5359 62.3066-51.3428C62.3291-51.1541 62.3695-50.8486 62.392-50.669C62.4459-50.2602 62.5267-49.6672 62.5761-49.2899C62.5986-49.1282 62.639-48.8452 62.666-48.661C62.6884-48.4768 62.7289-48.1938 62.7513-48.0321C62.8367-47.4481 62.8996-47.0168 62.9401-46.7158C62.9625-46.5496 62.9984-46.2801 63.0209-46.1094C63.0433-45.9432 63.0882-45.6467 63.1152-45.4491C63.1421-45.2514 63.1871-44.9414 63.2096-44.7617C63.277-44.2362 63.3578-43.6073 63.4746-42.7987C63.5015-42.601 63.542-42.291 63.5644-42.1113C63.5914-41.9361 63.6273-41.6397 63.6543-41.46C63.7666-40.602 63.7936-40.3908 63.8205-40.0449C63.8789-39.2364 63.6273-38.5266 63.1018-37.9965C62.6885-37.5832 62.4728-37.462 61.9113-37.3137C61.6373-37.2419 60.6535-37.2373 60.4423-37.3047C60.3705-37.3272 60.2357-37.3676 60.1503-37.3945C60.065-37.417 59.9122-37.4754 59.8134-37.5204C59.3777-37.718 59.0767-37.8527 58.8476-37.9561C58.3086-38.1986 57.6574-38.5265 57.6438-38.5625C57.6348-38.5805 57.6078-38.5985 57.5853-38.5985C57.5447-38.5986 56.8755-39.0298 56.8261-39.0882C56.8125-39.1017 56.7272-39.169 56.6375-39.2408C56.4129-39.407 56.0714-39.7485 55.8828-39.9911C55.7974-40.1034 55.7166-40.2022 55.7031-40.2157C55.6805-40.2383 55.5143-40.4898 55.3392-40.7772C55.2314-40.9479 55.1416-41.1321 54.9978-41.4735C54.9619-41.5588 54.9125-41.6711 54.89-41.7206C54.8406-41.8374 54.7193-42.2866 54.6609-42.5741C54.6385-42.6954 54.598-42.8885 54.5756-43.0008C54.5486-43.1131 54.5217-43.2614 54.5082-43.3377C54.4947-43.4096 54.4677-43.5534 54.4453-43.6522C54.4273-43.751 54.3824-43.9532 54.3554-44.1014C54.3285-44.2497 54.288-44.4518 54.2656-44.5506C54.2117-44.7977 54.1533-45.1077 53.9961-45.9207C53.8343-46.7697 53.7759-47.0573 53.7265-47.2909C53.7041-47.3897 53.6636-47.6008 53.6367-47.7625C53.5873-48.0321 53.5558-48.1938 53.457-48.6834C53.4345-48.7823 53.3941-48.9844 53.3671-49.1327C53.3402-49.2809 53.2998-49.4831 53.2773-49.5819C53.2548-49.6807 53.219-49.8783 53.192-50.0176C53.1651-50.1613 53.1201-50.3949 53.0931-50.5342C53.0033-51.0014 52.9673-51.1946 52.9179-51.4686C52.8865-51.6168 52.8505-51.819 52.8281-51.9178C52.8056-52.0167 52.7473-52.3177 52.6979-52.5916C52.6485-52.8612 52.5945-53.1442 52.581-53.2206C52.5675-53.2924 52.5361-53.4542 52.5136-53.5799C52.4912-53.7012 52.4418-53.9753 52.4059-54.1864C52.316-54.676 52.3115-55.4486 52.4013-55.79C52.6304-56.684 53.2369-57.3354 54.1757-57.6992C54.2835-57.7397 54.5576-57.7577 55.0517-57.7577ZM56.1748-55.3319C55.1955-55.7766 55.0113-55.826 54.7912-55.7047C54.6475-55.6283 54.4003-55.3723 54.4003-55.3004C54.4003-55.2644 54.3779-55.215 54.3465-55.1836C54.3105-55.1477 54.3061-55.0713 54.3465-54.8961C54.3734-54.7658 54.4183-54.5143 54.4453-54.3436C54.4722-54.1684 54.5172-53.9663 54.5397-53.8899C54.5621-53.8136 54.58-53.7057 54.58-53.6473C54.58-53.5934 54.598-53.4721 54.625-53.3823C54.6474-53.2924 54.7283-52.8881 54.8046-52.4793C54.881-52.0706 54.9619-51.6573 54.9843-51.5584C55.0023-51.4596 55.0427-51.2619 55.0697-51.1182C55.0967-50.9789 55.1416-50.7453 55.1686-50.6016C55.1955-50.4623 55.2314-50.2647 55.2539-50.1659C55.2763-50.067 55.3168-49.8649 55.3437-49.7166C55.3707-49.5684 55.4111-49.3663 55.4336-49.2674C55.456-49.1686 55.4964-48.9664 55.5234-48.8182C55.5503-48.67 55.5908-48.4678 55.6132-48.369C55.6357-48.2702 55.6717-48.077 55.6986-47.9422C55.7795-47.4975 55.8423-47.1606 55.8828-46.9764C55.9052-46.8776 55.9457-46.6754 55.9726-46.5272C55.9996-46.379 56.0445-46.1768 56.0625-46.078C56.0849-45.9792 56.1253-45.777 56.1523-45.6288C56.1837-45.4805 56.2242-45.2784 56.2467-45.1795C56.2871-44.9819 56.4219-44.3485 56.4533-44.1688C56.4668-44.1059 56.5072-43.9038 56.5432-43.7196C56.5836-43.5354 56.6285-43.3018 56.651-43.203C56.7229-42.8481 56.7722-42.6594 56.8486-42.4393C56.9474-42.1608 57.1721-41.7025 57.2575-41.6217C57.2934-41.5857 57.3203-41.5408 57.3203-41.5229C57.3203-41.46 57.9268-40.8625 58.2008-40.6514C58.4569-40.4582 59.0363-40.1438 59.5799-39.9057C60.0111-39.717 60.2222-39.6182 60.4648-39.5103C60.5995-39.4475 60.7927-39.3577 60.8916-39.3128C61.1072-39.2184 61.242-39.2094 61.3768-39.2813C61.525-39.3576 61.7182-39.5822 61.7496-39.708C61.7811-39.8203 61.763-39.9911 61.6777-40.62C61.6507-40.8042 61.6103-41.1096 61.5834-41.2938C61.5609-41.478 61.5205-41.77 61.498-41.9452C61.4711-42.1159 61.4351-42.4124 61.4082-42.5965C61.3857-42.7807 61.3453-43.0862 61.3183-43.2704C61.2914-43.4545 61.2509-43.76 61.2285-43.9442C61.1701-44.4114 61.0937-44.9864 61.0443-45.3592C61.0219-45.5299 60.9814-45.8264 60.9589-46.0106C60.9005-46.5002 60.8242-47.0663 60.7748-47.4256C60.7523-47.5963 60.7119-47.8928 60.6894-48.077C60.6669-48.2612 60.6265-48.5667 60.5996-48.7508C60.5457-49.1506 60.4783-49.6717 60.4199-50.1659C60.3929-50.3635 60.3525-50.687 60.33-50.8846C60.3031-51.0823 60.2627-51.3967 60.2402-51.5809C60.1099-52.65 60.0336-52.9106 59.7282-53.3778C59.4451-53.8045 59.0228-54.092 58.1289-54.4693C58.0435-54.5053 57.8549-54.5907 57.7111-54.6536C57.5674-54.7165 57.4416-54.7704 57.4326-54.7704C57.4232-54.7705 57.2886-54.8289 57.1316-54.9006C56.9744-54.9725 56.7498-55.0758 56.624-55.1297C56.5027-55.1836 56.3005-55.278 56.1748-55.3319ZM42.9228-74.8774C49.2522-74.9043 49.6027-74.8998 50.0205-74.7516C50.7437-74.5045 51.2244-74.0014 51.4715-73.2332C51.5074-73.1209 51.5254-72.3348 51.5344-70.7176C51.5434-68.4132 51.5389-68.3547 51.4445-68.0897C51.3008-67.6809 51.1525-67.4428 50.865-67.1598C50.591-66.8947 50.2092-66.6746 49.8498-66.5802C49.6477-66.5219 49.6386-66.5129 49.6386-66.3602C49.6386-66.1311 49.8229-65.6728 49.9801-65.5201C50.0431-65.4572 50.3441-65.3089 51.413-64.8329C51.5388-64.779 51.7635-64.6756 51.9207-64.6037C52.0777-64.5319 52.2123-64.4737 52.2216-64.4735C52.2441-64.4735 52.6215-64.3027 53.0842-64.0871C53.2638-64.0018 53.4164-63.9345 53.4301-63.9344C53.439-63.9344 53.5963-63.867 53.7805-63.7817C53.9602-63.7008 54.3015-63.5436 54.5351-63.4403C54.7687-63.337 55.1236-63.1752 55.3212-63.0809C55.5189-62.9911 55.7615-62.8788 55.8603-62.8338C55.9591-62.7889 56.1927-62.6856 56.3769-62.5957C56.5611-62.5104 56.8396-62.3801 56.9969-62.3128C57.1496-62.2409 57.4056-62.1196 57.5673-62.0477C57.7291-61.9758 57.9941-61.8501 58.1648-61.7737C58.331-61.6973 58.6365-61.5535 58.8476-61.4547C59.5035-61.1447 60.4783-60.6911 60.7254-60.5833C60.8017-60.5473 60.9365-60.4934 61.0174-60.4574C61.6058-60.1969 62.4323-59.8016 62.7109-59.6399C62.9355-59.5096 63.3398-59.2625 63.4072-59.2086C63.4341-59.1861 63.5554-59.0963 63.6767-59.0064C64.1124-58.683 64.6291-58.171 64.948-57.7532C65.7342-56.72 66.0576-55.9293 66.3046-54.4649C66.3271-54.3121 66.3675-54.0695 66.3945-53.9258C66.4169-53.7865 66.4574-53.526 66.4843-53.3553C66.5113-53.1801 66.5517-52.9286 66.5742-52.7938C66.5966-52.659 66.6371-52.3984 66.6595-52.2232C66.6865-52.0435 66.7315-51.7471 66.7584-51.5719C66.7809-51.3922 66.8213-51.1317 66.8437-50.9969C66.8662-50.8622 66.9066-50.5971 66.9336-50.4129C66.9605-50.2288 67.0009-49.9637 67.0234-49.829C67.0459-49.6942 67.0863-49.4291 67.1132-49.245C67.1402-49.0608 67.1806-48.7958 67.2031-48.661C67.2255-48.5262 67.266-48.2612 67.2929-48.077C67.3199-47.8928 67.3603-47.6368 67.3828-47.5155C67.4052-47.3897 67.4367-47.21 67.4457-47.1112C67.4592-47.0124 67.4906-46.8012 67.5175-46.6395C67.54-46.4778 67.5849-46.2038 67.6074-46.0331C67.7332-45.1975 67.7916-44.7977 67.8769-44.2586C67.9039-44.0745 67.9488-43.8004 67.9668-43.6522C67.9892-43.504 68.0296-43.2389 68.0566-43.0682C68.0836-42.893 68.124-42.61 68.1464-42.4393C68.1734-42.2641 68.2093-41.9946 68.2363-41.8329C68.2587-41.6712 68.2992-41.3971 68.3261-41.2264C68.3486-41.0512 68.389-40.7907 68.416-40.6424C68.4429-40.4942 68.4834-40.2291 68.5058-40.0584C68.5283-39.8833 68.5687-39.6137 68.5957-39.452C68.6226-39.2903 68.663-39.0163 68.6855-38.8456C68.7709-38.2661 68.8113-37.9965 68.8652-37.6551C68.9191-37.3137 68.9595-37.0442 69.0449-36.4647C69.0673-36.2895 69.1123-36.02 69.1347-35.8583C69.1617-35.6965 69.2021-35.436 69.2246-35.2743C69.247-35.1125 69.2875-34.8565 69.3099-34.6992C69.5929-33.0192 69.5795-33.8008 69.5615-20.6522C69.548-14.0803 69.53-8.5101 69.5166-8.2762C69.4896-7.8629 69.4357-7.4811 69.3593-7.1532C69.3369-7.0678 69.2965-6.8926 69.265-6.7713C69.2156-6.5422 69.0673-6.0796 69-5.9178C68.982-5.8684 68.9191-5.7067 68.8607-5.5585C68.7574-5.2845 68.3353-4.4088 68.2858-4.368C68.2723-4.3545 68.2094-4.2557 68.151-4.1434C68.0881-4.0311 68.0117-3.9143 67.9803-3.8828C67.9488-3.8514 67.9219-3.8065 67.9218-3.784C67.9218-3.6897 67.1852-2.8137 66.691-2.3196C66.1116-1.7401 65.6308-1.3583 65.0379-0.9944C64.3057-0.5452 63.3892-0.1588 62.7109-0.0106C62.5761 0.0164 62.3919 0.0613 62.3066 0.0883C62.0366 0.1691 57.2298 0.205 46.6469 0.2095C36.0947 0.214 36.3328 0.2185 35.4658 0.0388C35.1918-0.0196 34.8054-0.1229 34.473-0.2262C33.9025-0.4059 32.3438-1.1605 31.6565-1.5963C31.5352-1.6726 31.423-1.7131 31.4049-1.6907C31.3825-1.6682 31.1488-1.3583 30.8837-0.9989C30.4255-0.3835 29.8371 0.2589 29.5361 0.4656C29.2171 0.6902 28.8712 0.8339 28.3906 0.9552C28.1255 1.0226 27.1597 1.0406 26.9306 0.9822C26.8587 0.9597 26.6835 0.9193 26.5488 0.8878C26.414 0.8564 26.1804 0.7755 26.0322 0.7037C25.884 0.6318 25.7492 0.5734 25.7312 0.5734C25.6997 0.5734 25.2416 0.2994 25.2011 0.2589C25.1876 0.2454 25.1067 0.1825 25.0214 0.1242C24.8418-0.0016 24.725-0.096 24.442-0.3475C24.1545-0.6036 24.0916-0.6665 23.7636-1.0438C23.6019-1.228 23.4627-1.3897 23.4492-1.4032C23.4356-1.4168 23.3548-1.5156 23.2695-1.6278C23.1841-1.7401 23.0988-1.8479 23.0764-1.8749C23.0584-1.8974 22.9326-2.0725 22.8024-2.2567C21.8815-3.5774 21.1852-5.1047 20.8932-6.4569C20.5787-7.9034 20.5967-7.3284 20.6012-16.3622C20.6012-20.8723 20.6281-25.7508 20.6551-27.2108C20.6865-28.6663 20.7314-30.9303 20.7539-32.242C20.8302-36.2985 20.974-40.5616 21.1132-43.0907C21.1357-43.5219 21.1761-44.2991 21.2031-44.8202C21.23-45.3368 21.2705-46.087 21.2929-46.4823C21.3154-46.8776 21.3558-47.5829 21.3828-48.0545C21.4502-49.2719 21.513-50.3051 21.6523-52.5332C21.7107-53.4182 21.7602-53.7237 21.9309-54.2538C22.1959-55.0578 22.5732-55.7227 23.247-56.5672C23.4582-56.8323 24.4824-57.8115 25.0888-58.3237C25.1876-58.409 25.2775-58.4854 25.291-58.4989C25.3045-58.5123 25.4257-58.6112 25.5605-58.7235C25.6952-58.8358 25.8165-58.9346 25.83-58.9481C25.8435-58.9616 25.9648-59.0604 26.0996-59.1727C26.2343-59.285 26.3556-59.3838 26.3691-59.3973C26.3826-59.4108 26.4814-59.4917 26.5937-59.577C26.706-59.6623 26.8048-59.7432 26.8183-59.7567C26.8318-59.7747 27.2136-60.0622 27.6718-60.4036C28.13-60.745 28.5389-61.0504 28.5838-61.0864C28.8488-61.302 30.9377-62.6451 31.4723-62.9506C31.5576-62.9955 31.6969-63.0764 31.7867-63.1258C31.8721-63.1752 31.9889-63.2471 32.0428-63.2786C32.1687-63.3595 33.9159-64.3386 34.3652-64.5768C34.5494-64.6756 34.7561-64.7924 34.8234-64.8418C34.8863-64.8867 34.9536-64.9227 34.9672-64.9227C34.9851-64.9227 35.1424-65.0125 35.3221-65.1203C35.4972-65.2281 35.7083-65.3449 35.7802-65.3853C35.8566-65.4258 35.969-65.5022 36.0363-65.5606C36.1981-65.7088 36.4316-66.1804 36.4316-66.3736C36.4316-66.5174 36.4182-66.5308 36.2789-66.5578C35.8162-66.6476 35.1963-67.1014 34.8864-67.5865C34.5584-68.0941 34.5674-68.0178 34.5539-70.5379C34.5449-72.1551 34.5539-72.8784 34.5898-73.0536C34.738-73.7453 35.1828-74.3338 35.7578-74.6078C36.0318-74.7426 36.1935-74.7921 36.4226-74.8235C36.526-74.8415 39.4549-74.8639 42.9228-74.8774ZM38.498-66.3018C38.498-66.0098 38.3947-65.4932 38.2689-65.1832C38.0039-64.5049 37.4693-63.9164 36.791-63.5435C36.6562-63.4672 36.472-63.3683 36.3867-63.3189C36.3013-63.2695 36.0992-63.1618 35.9375-63.0809C35.7757-62.9956 35.596-62.8967 35.5332-62.8563C35.4703-62.8159 35.2681-62.699 35.0839-62.6002C34.8998-62.5014 34.5943-62.3307 34.4101-62.2274C34.2259-62.1241 33.9744-61.9803 33.8486-61.9129C33.7273-61.8411 33.3545-61.6209 33.0221-61.4233C32.6942-61.2211 32.4156-61.0594 32.4066-61.0594C32.3973-61.0592 32.2043-60.938 31.9754-60.7899C31.7463-60.6416 31.5261-60.5024 31.4902-60.4799C31.2386-60.3226 29.891-59.4198 29.873-59.3973C29.8594-59.3838 29.6394-59.2221 29.3789-59.0379C29.1183-58.8538 28.8982-58.692 28.8847-58.6786C28.8712-58.6651 28.7904-58.6022 28.705-58.5438C28.6197-58.4809 28.4984-58.3865 28.4355-58.3326C28.3726-58.2742 28.3098-58.2293 28.2918-58.2293C28.2783-58.2293 28.2334-58.2023 28.2019-58.1709C28.1705-58.1395 28.0537-58.0452 27.9414-57.9598C27.8291-57.8745 27.7302-57.7936 27.7168-57.7801C27.7032-57.7666 27.6044-57.6858 27.4921-57.6004C27.3798-57.5151 27.2586-57.4163 27.2226-57.3758C27.1867-57.3399 27.0609-57.232 26.9441-57.1377C26.8273-57.0434 26.706-56.9445 26.6746-56.9131C26.6431-56.8816 26.4859-56.7469 26.3242-56.6122C26.1625-56.4774 25.9334-56.2753 25.8076-56.1585C25.6863-56.0462 25.4841-55.862 25.3584-55.7542C25.1203-55.5385 24.8104-55.2196 24.6531-55.013C24.5947-54.9411 24.5273-54.8557 24.4959-54.8242C24.4689-54.7973 24.4285-54.7299 24.415-54.6805C24.4015-54.6311 24.3701-54.5907 24.3567-54.5907C24.3252-54.5907 23.9748-53.9213 23.8984-53.7147C23.7187-53.243 23.6648-52.8746 23.5839-51.5494C23.4851-50.0041 23.4492-49.4561 23.4043-48.7733C23.283-46.954 23.2021-45.5434 23.1347-44.1463C23.0224-41.8913 23-41.3432 22.955-40.2831C22.8068-36.6983 22.7574-34.7127 22.6855-30.243C22.6091-25.3016 22.5552-20.3243 22.5238-14.745C22.4879-8.8917 22.4924-8.7479 22.7575-7.4452C22.8158-7.1532 22.8427-7.0453 22.9506-6.6455C23.0135-6.4074 23.2246-5.7966 23.301-5.6258C23.4986-5.1766 23.6828-4.7858 23.7277-4.7049C23.7547-4.6555 23.84-4.5028 23.9164-4.368C23.9882-4.2333 24.0647-4.103 24.0871-4.076C24.1096-4.0536 24.2129-3.9008 24.3162-3.7391C24.5273-3.4203 24.8461-2.9667 24.8867-2.9305C24.9002-2.917 24.981-2.8182 25.0664-2.7059C25.3089-2.396 26.0188-1.6997 26.3332-1.4706C27.007-0.9719 27.6359-0.8372 28.1346-1.0887C28.449-1.246 28.6422-1.4571 29.3924-2.4588C30.0302-3.3078 30.4121-3.7436 30.6142-3.8559C30.6636-3.8828 30.8434-3.9323 31.0096-3.9637C31.2566-4.0131 31.3645-4.0131 31.5846-3.9682C31.8092-3.9233 32.3167-3.6942 32.3886-3.6088C32.4515-3.5325 33.5251-2.9171 34.1181-2.6161C35.0435-2.1489 35.4388-1.9961 35.9599-1.8973C36.1082-1.8704 36.3283-1.83 36.4451-1.803C36.5799-1.7805 40.1018-1.7625 45.5418-1.767C55.9089-1.7715 61.7711-1.8164 61.9697-1.8883C62.046-1.9152 62.2482-1.9782 62.4189-2.0321C62.9085-2.1803 63.3713-2.3959 63.9013-2.7193C64.2023-2.9035 64.5617-3.1551 64.6425-3.245C64.656-3.2585 64.7549-3.3393 64.8671-3.4291C65.1546-3.6627 65.3074-3.811 65.5859-4.1434C65.7207-4.3051 65.8465-4.4444 65.86-4.4579C65.923-4.5164 66.399-5.235 66.5293-5.4731C66.7763-5.9178 66.7943-5.9538 66.9246-6.2547C67.257-7.0049 67.4636-7.827 67.5625-8.8153C67.6343-9.5255 67.5985-32.6868 67.5266-33.118C67.4412-33.6256 67.3918-33.9401 67.3379-34.286C67.3109-34.4702 67.266-34.7442 67.2435-34.8924C67.2211-35.0407 67.1806-35.3012 67.1582-35.4764C67.1312-35.6471 67.0908-35.9166 67.0683-36.0693C66.992-36.568 66.8662-37.417 66.7988-37.8797C66.7314-38.3694 66.6685-38.7872 66.6191-39.0926C66.5921-39.2543 66.5517-39.5149 66.5293-39.6766C66.5068-39.8383 66.4664-40.1079 66.4394-40.2831C66.408-40.4538 66.372-40.7098 66.3496-40.8446C66.3271-40.9794 66.2912-41.2219 66.2688-41.3836C66.2014-41.7924 66.1294-42.2911 66.08-42.6639C66.0576-42.8346 66.0171-43.1087 65.9902-43.2704C65.9408-43.5578 65.9093-43.769 65.8105-44.4383C65.7836-44.6225 65.7431-44.9055 65.7162-45.0672C65.6937-45.229 65.6533-45.4895 65.6308-45.6512C65.6084-45.8129 65.568-46.0735 65.5455-46.2352C65.5186-46.3969 65.4781-46.6619 65.4511-46.8281C65.4287-46.9988 65.3882-47.2594 65.3613-47.4121C65.3388-47.5693 65.2984-47.8254 65.2714-47.9872C65.2445-48.1489 65.2041-48.4094 65.1816-48.5711C65.1187-49.0159 65.0513-49.4606 65.0019-49.784C64.975-49.9458 64.9345-50.2063 64.9076-50.368C64.8851-50.5297 64.8447-50.7813 64.8222-50.9295C64.7998-51.0778 64.7593-51.3338 64.7324-51.5C64.7099-51.6707 64.6695-51.9313 64.6425-52.084C64.6201-52.2412 64.5796-52.5063 64.5527-52.6815C64.2832-54.4514 64.1799-54.9455 63.9957-55.3184C63.9553-55.3947 63.9238-55.4711 63.9238-55.4936C63.9237-55.5296 63.5599-56.1719 63.5195-56.2079C63.5059-56.2214 63.4431-56.3023 63.3847-56.3875C63.0702-56.8458 62.1583-57.6319 61.6552-57.87C61.5834-57.9059 61.5115-57.9463 61.498-57.9643C61.4754-57.9868 61.2552-58.0946 60.7793-58.3057C60.4648-58.4494 60.1593-58.5887 59.791-58.7594C59.6293-58.8357 59.3777-58.9481 59.2295-59.0155C59.0812-59.0829 58.8117-59.2086 58.632-59.2895C58.4568-59.3748 58.1918-59.4961 58.0481-59.559C57.9088-59.6264 57.6662-59.7342 57.509-59.8061C57.244-59.9274 56.9879-60.0487 56.3455-60.3451C56.1883-60.417 55.9367-60.5339 55.784-60.6057C55.6268-60.6776 55.3842-60.7899 55.2449-60.8528C54.9664-60.9786 54.6519-61.1223 54.2342-61.311C54.0904-61.3783 53.8029-61.5041 53.5918-61.5985C53.3806-61.6928 53.0976-61.8186 52.9628-61.8814C52.8281-61.9398 52.563-62.0567 52.3789-62.1375C52.1947-62.2184 51.9431-62.3262 51.8173-62.3846C51.3996-62.5733 51.1435-62.6856 50.9863-62.7529C50.9009-62.7934 50.6853-62.8922 50.5057-62.9731C50.3262-63.0583 50.1691-63.1257 50.1598-63.1258C50.0789-63.1258 48.956-63.6693 48.884-63.7412C48.8526-63.7727 48.8121-63.7996 48.7942-63.7997C48.7223-63.8041 48.3853-64.159 48.2191-64.4061C47.8642-64.9362 47.698-65.4393 47.6396-66.1445L47.6082-66.5399L38.498-66.5399L38.498-66.3018Z"/>
  </g>
  <g id="Ultralight-S" transform="matrix(1 0 0 1 513.711 696)">
   <path class="monochrome-0 multicolor-0:tintColor hierarchical-0:primary SFSymbolsPreviewWireframe" d="M41.1035-35.6426C48.0079-35.6606 55.3886-35.674 57.5-35.6651C61.3093-35.6516 61.3408-35.6516 61.5789-35.5572C62.347-35.2428 62.8906-34.6409 63.0209-33.9491C63.0703-33.6796 63.1018-10.0484 63.0524-9.7811C62.985-9.4172 62.8862-9.1881 62.6481-8.8556C62.4594-8.5906 62.0685-8.2806 61.7855-8.1594C61.269-7.9393 62.1715-7.9528 45.1914-7.9438C36.4586-7.9438 29.1498-7.9528 28.9521-7.9662C28.5074-8.0022 28.3457-8.0516 28.0133-8.2538C27.5237-8.5502 27.1373-9.0353 26.9666-9.5744C26.8902-9.8125 26.8857-10.446 26.8857-21.8202C26.8857-34.3309 26.8812-33.9311 27.0564-34.3309C27.3035-34.8744 27.7797-35.3282 28.3322-35.5258C28.5344-35.6022 29.24-35.6111 41.1035-35.6426ZM44.9803-30.9618C44.6568-30.9618 44.558-30.9437 44.4277-30.8674C44.248-30.7551 44.1267-30.6293 44.0908-30.508C44.0728-30.4586 44.0459-30.4227 44.028-30.4227C44.0055-30.4227 43.965-30.3598 43.9336-30.2879C43.9021-30.2116 43.8617-30.1532 43.8437-30.1532C43.8257-30.1531 43.7898-30.1037 43.7629-30.0409C43.7315-29.978 43.6865-29.9016 43.664-29.8701C43.6055-29.8026 43.0216-28.9043 42.9228-28.7291C42.8823-28.6616 42.6802-28.3293 42.4691-27.9969C42.2625-27.6645 42.0469-27.3051 41.993-27.1973C41.9391-27.094 41.8762-27.0086 41.8582-27.0086C41.8402-27.0086 41.8222-26.9907 41.8222-26.9637C41.8222-26.9413 41.7009-26.7166 41.5527-26.4696C41.4045-26.2226 41.2833-25.9981 41.2832-25.9754C41.2832-25.9485 41.2652-25.9305 41.2428-25.9305C41.2203-25.9305 41.1934-25.8945 41.1799-25.8496C41.1529-25.7733 40.8565-25.2254 40.7936-25.1444C40.7711-25.1174 40.6677-24.9288 40.5599-24.7176C40.4521-24.5065 40.3533-24.3268 40.3398-24.3133C40.3083-24.2862 39.6031-22.8579 39.3964-22.4042C39.0056-21.5462 38.6732-20.6028 38.5654-20.0458C38.4845-19.6235 38.4082-18.9092 38.4082-18.5858C38.4082-18.0647 38.5205-17.2741 38.6687-16.7215C38.8574-16.0297 39.4234-14.8977 39.7424-14.5742C39.7738-14.5428 39.8007-14.4933 39.8007-14.4709C39.8011-14.4032 40.7935-13.4243 40.9598-13.3299C41.0406-13.2805 41.1035-13.231 41.1035-13.2131C41.1036-13.1951 41.1664-13.1592 41.2382-13.1278C41.3146-13.0964 41.3729-13.0559 41.373-13.0379C41.373-12.9885 42.4512-12.4674 42.8151-12.3461C43.1654-12.2338 43.5967-12.126 44.0234-12.0586C44.3558-12.0047 45.69-11.9957 45.9236-12.0451C46.0269-12.0676 46.256-12.1125 46.4267-12.144C46.9568-12.2383 47.7968-12.5348 48.2011-12.7684C48.3134-12.8313 48.4347-12.8986 48.4707-12.9121C48.565-12.9481 49.194-13.4062 49.3737-13.568C49.459-13.6443 49.5803-13.7522 49.6432-13.8106C50.0789-14.1924 50.6719-15.0145 50.9729-15.6434C51.3008-16.3352 51.422-16.7036 51.5478-17.4178C51.6242-17.8401 51.6377-19.2461 51.5703-19.6055C51.413-20.4051 51.3053-20.7825 51.0223-21.5057C50.7618-22.1659 50.7572-22.175 50.1512-23.3915L50.1508-23.3924C49.5982-24.5065 49.405-24.8704 49.122-25.3465C49.0412-25.4813 48.9244-25.6835 48.866-25.7958C48.7177-26.0609 47.963-27.3276 47.7744-27.6151C47.653-27.8083 47.2173-28.5001 47.0781-28.7157C46.7591-29.2233 45.825-30.6111 45.735-30.7057C45.5418-30.9168 45.4115-30.9618 44.9803-30.9618ZM55.0517-57.7577C55.8693-57.7577 55.8559-57.7621 56.9295-57.268C57.118-57.1782 57.2841-57.1064 57.2933-57.1063C57.3023-57.1063 57.4865-57.0254 57.6976-56.9266C57.9086-56.8278 58.0883-56.747 58.1019-56.7469C58.1109-56.7469 58.2951-56.6661 58.5062-56.5672C58.7172-56.4685 58.9012-56.3877 58.915-56.3875C58.9869-56.3875 60.1234-55.8125 60.3435-55.6598C60.7344-55.3947 61.3498-54.7704 61.4621-54.5188C61.4891-54.4605 61.5249-54.4111 61.5429-54.411C61.5834-54.411 61.9472-53.6294 61.9472-53.5395C61.9472-53.5036 61.9652-53.4631 61.9877-53.4496C62.0056-53.4362 62.0371-53.3283 62.0551-53.2115C62.073-53.0902 62.1045-52.8522 62.1315-52.6815C62.1539-52.5063 62.1943-52.2143 62.2168-52.0301C62.2392-51.8459 62.2796-51.5359 62.3066-51.3428C62.3291-51.1541 62.3695-50.8486 62.392-50.669C62.4459-50.2602 62.5267-49.6672 62.5761-49.2899C62.5986-49.1282 62.639-48.8452 62.666-48.661C62.6884-48.4768 62.7289-48.1938 62.7513-48.0321C62.8367-47.4481 62.8996-47.0168 62.9401-46.7158C62.9625-46.5496 62.9984-46.2801 63.0209-46.1094C63.0433-45.9432 63.0882-45.6467 63.1152-45.4491C63.1421-45.2514 63.1871-44.9414 63.2096-44.7617C63.277-44.2362 63.3578-43.6073 63.4746-42.7987C63.5015-42.601 63.542-42.291 63.5644-42.1113C63.5914-41.9361 63.6273-41.6397 63.6543-41.46C63.7666-40.602 63.7936-40.3908 63.8205-40.0449C63.8789-39.2364 63.6273-38.5266 63.1018-37.9965C62.6885-37.5832 62.4728-37.462 61.9113-37.3137C61.6373-37.2419 60.6535-37.2373 60.4423-37.3047C60.3705-37.3272 60.2357-37.3676 60.1503-37.3945C60.065-37.417 59.9122-37.4754 59.8134-37.5204C59.3777-37.718 59.0767-37.8527 58.8476-37.9561C58.3086-38.1986 57.6574-38.5265 57.6438-38.5625C57.6348-38.5805 57.6078-38.5985 57.5853-38.5985C57.5447-38.5986 56.8755-39.0298 56.8261-39.0882C56.8125-39.1017 56.7272-39.169 56.6375-39.2408C56.4129-39.407 56.0714-39.7485 55.8828-39.9911C55.7974-40.1034 55.7166-40.2022 55.7031-40.2157C55.6805-40.2383 55.5143-40.4898 55.3392-40.7772C55.2314-40.9479 55.1416-41.1321 54.9978-41.4735C54.9619-41.5588 54.9125-41.6711 54.89-41.7206C54.8406-41.8374 54.7193-42.2866 54.6609-42.5741C54.6385-42.6954 54.598-42.8885 54.5756-43.0008C54.5486-43.1131 54.5217-43.2614 54.5082-43.3377C54.4947-43.4096 54.4677-43.5534 54.4453-43.6522C54.4273-43.751 54.3824-43.9532 54.3554-44.1014C54.3285-44.2497 54.288-44.4518 54.2656-44.5506C54.2117-44.7977 54.1533-45.1077 53.9961-45.9207C53.8343-46.7697 53.7759-47.0573 53.7265-47.2909C53.7041-47.3897 53.6636-47.6008 53.6367-47.7625C53.5873-48.0321 53.5558-48.1938 53.457-48.6834C53.4345-48.7823 53.3941-48.9844 53.3671-49.1327C53.3402-49.2809 53.2998-49.4831 53.2773-49.5819C53.2548-49.6807 53.219-49.8783 53.192-50.0176C53.1651-50.1613 53.1201-50.3949 53.0931-50.5342C53.0033-51.0014 52.9673-51.1946 52.9179-51.4686C52.8865-51.6168 52.8505-51.819 52.8281-51.9178C52.8056-52.0167 52.7473-52.3177 52.6979-52.5916C52.6485-52.8612 52.5945-53.1442 52.581-53.2206C52.5675-53.2924 52.5361-53.4542 52.5136-53.5799C52.4912-53.7012 52.4418-53.9753 52.4059-54.1864C52.316-54.676 52.3115-55.4486 52.4013-55.79C52.6304-56.684 53.2369-57.3354 54.1757-57.6992C54.2835-57.7397 54.5576-57.7577 55.0517-57.7577ZM56.1748-55.3319C55.1955-55.7766 55.0113-55.826 54.7912-55.7047C54.6475-55.6283 54.4003-55.3723 54.4003-55.3004C54.4003-55.2644 54.3779-55.215 54.3465-55.1836C54.3105-55.1477 54.3061-55.0713 54.3465-54.8961C54.3734-54.7658 54.4183-54.5143 54.4453-54.3436C54.4722-54.1684 54.5172-53.9663 54.5397-53.8899C54.5621-53.8136 54.58-53.7057 54.58-53.6473C54.58-53.5934 54.598-53.4721 54.625-53.3823C54.6474-53.2924 54.7283-52.8881 54.8046-52.4793C54.881-52.0706 54.9619-51.6573 54.9843-51.5584C55.0023-51.4596 55.0427-51.2619 55.0697-51.1182C55.0967-50.9789 55.1416-50.7453 55.1686-50.6016C55.1955-50.4623 55.2314-50.2647 55.2539-50.1659C55.2763-50.067 55.3168-49.8649 55.3437-49.7166C55.3707-49.5684 55.4111-49.3663 55.4336-49.2674C55.456-49.1686 55.4964-48.9664 55.5234-48.8182C55.5503-48.67 55.5908-48.4678 55.6132-48.369C55.6357-48.2702 55.6717-48.077 55.6986-47.9422C55.7795-47.4975 55.8423-47.1606 55.8828-46.9764C55.9052-46.8776 55.9457-46.6754 55.9726-46.5272C55.9996-46.379 56.0445-46.1768 56.0625-46.078C56.0849-45.9792 56.1253-45.777 56.1523-45.6288C56.1837-45.4805 56.2242-45.2784 56.2467-45.1795C56.2871-44.9819 56.4219-44.3485 56.4533-44.1688C56.4668-44.1059 56.5072-43.9038 56.5432-43.7196C56.5836-43.5354 56.6285-43.3018 56.651-43.203C56.7229-42.8481 56.7722-42.6594 56.8486-42.4393C56.9474-42.1608 57.1721-41.7025 57.2575-41.6217C57.2934-41.5857 57.3203-41.5408 57.3203-41.5229C57.3203-41.46 57.9268-40.8625 58.2008-40.6514C58.4569-40.4582 59.0363-40.1438 59.5799-39.9057C60.0111-39.717 60.2222-39.6182 60.4648-39.5103C60.5995-39.4475 60.7927-39.3577 60.8916-39.3128C61.1072-39.2184 61.242-39.2094 61.3768-39.2813C61.525-39.3576 61.7182-39.5822 61.7496-39.708C61.7811-39.8203 61.763-39.9911 61.6777-40.62C61.6507-40.8042 61.6103-41.1096 61.5834-41.2938C61.5609-41.478 61.5205-41.77 61.498-41.9452C61.4711-42.1159 61.4351-42.4124 61.4082-42.5965C61.3857-42.7807 61.3453-43.0862 61.3183-43.2704C61.2914-43.4545 61.2509-43.76 61.2285-43.9442C61.1701-44.4114 61.0937-44.9864 61.0443-45.3592C61.0219-45.5299 60.9814-45.8264 60.9589-46.0106C60.9005-46.5002 60.8242-47.0663 60.7748-47.4256C60.7523-47.5963 60.7119-47.8928 60.6894-48.077C60.6669-48.2612 60.6265-48.5667 60.5996-48.7508C60.5457-49.1506 60.4783-49.6717 60.4199-50.1659C60.3929-50.3635 60.3525-50.687 60.33-50.8846C60.3031-51.0823 60.2627-51.3967 60.2402-51.5809C60.1099-52.65 60.0336-52.9106 59.7282-53.3778C59.4451-53.8045 59.0228-54.092 58.1289-54.4693C58.0435-54.5053 57.8549-54.5907 57.7111-54.6536C57.5674-54.7165 57.4416-54.7704 57.4326-54.7704C57.4232-54.7705 57.2886-54.8289 57.1316-54.9006C56.9744-54.9725 56.7498-55.0758 56.624-55.1297C56.5027-55.1836 56.3005-55.278 56.1748-55.3319ZM42.9228-74.8774C49.2522-74.9043 49.6027-74.8998 50.0205-74.7516C50.7437-74.5045 51.2244-74.0014 51.4715-73.2332C51.5074-73.1209 51.5254-72.3348 51.5344-70.7176C51.5434-68.4132 51.5389-68.3547 51.4445-68.0897C51.3008-67.6809 51.1525-67.4428 50.865-67.1598C50.591-66.8947 50.2092-66.6746 49.8498-66.5802C49.6477-66.5219 49.6386-66.5129 49.6386-66.3602C49.6386-66.1311 49.8229-65.6728 49.9801-65.5201C50.0431-65.4572 50.3441-65.3089 51.413-64.8329C51.5388-64.779 51.7635-64.6756 51.9207-64.6037C52.0777-64.5319 52.2123-64.4737 52.2216-64.4735C52.2441-64.4735 52.6215-64.3027 53.0842-64.0871C53.2638-64.0018 53.4164-63.9345 53.4301-63.9344C53.439-63.9344 53.5963-63.867 53.7805-63.7817C53.9602-63.7008 54.3015-63.5436 54.5351-63.4403C54.7687-63.337 55.1236-63.1752 55.3212-63.0809C55.5189-62.9911 55.7615-62.8788 55.8603-62.8338C55.9591-62.7889 56.1927-62.6856 56.3769-62.5957C56.5611-62.5104 56.8396-62.3801 56.9969-62.3128C57.1496-62.2409 57.4056-62.1196 57.5673-62.0477C57.7291-61.9758 57.9941-61.8501 58.1648-61.7737C58.331-61.6973 58.6365-61.5535 58.8476-61.4547C59.5035-61.1447 60.4783-60.6911 60.7254-60.5833C60.8017-60.5473 60.9365-60.4934 61.0174-60.4574C61.6058-60.1969 62.4323-59.8016 62.7109-59.6399C62.9355-59.5096 63.3398-59.2625 63.4072-59.2086C63.4341-59.1861 63.5554-59.0963 63.6767-59.0064C64.1124-58.683 64.6291-58.171 64.948-57.7532C65.7342-56.72 66.0576-55.9293 66.3046-54.4649C66.3271-54.3121 66.3675-54.0695 66.3945-53.9258C66.4169-53.7865 66.4574-53.526 66.4843-53.3553C66.5113-53.1801 66.5517-52.9286 66.5742-52.7938C66.5966-52.659 66.6371-52.3984 66.6595-52.2232C66.6865-52.0435 66.7315-51.7471 66.7584-51.5719C66.7809-51.3922 66.8213-51.1317 66.8437-50.9969C66.8662-50.8622 66.9066-50.5971 66.9336-50.4129C66.9605-50.2288 67.0009-49.9637 67.0234-49.829C67.0459-49.6942 67.0863-49.4291 67.1132-49.245C67.1402-49.0608 67.1806-48.7958 67.2031-48.661C67.2255-48.5262 67.266-48.2612 67.2929-48.077C67.3199-47.8928 67.3603-47.6368 67.3828-47.5155C67.4052-47.3897 67.4367-47.21 67.4457-47.1112C67.4592-47.0124 67.4906-46.8012 67.5175-46.6395C67.54-46.4778 67.5849-46.2038 67.6074-46.0331C67.7332-45.1975 67.7916-44.7977 67.8769-44.2586C67.9039-44.0745 67.9488-43.8004 67.9668-43.6522C67.9892-43.504 68.0296-43.2389 68.0566-43.0682C68.0836-42.893 68.124-42.61 68.1464-42.4393C68.1734-42.2641 68.2093-41.9946 68.2363-41.8329C68.2587-41.6712 68.2992-41.3971 68.3261-41.2264C68.3486-41.0512 68.389-40.7907 68.416-40.6424C68.4429-40.4942 68.4834-40.2291 68.5058-40.0584C68.5283-39.8833 68.5687-39.6137 68.5957-39.452C68.6226-39.2903 68.663-39.0163 68.6855-38.8456C68.7709-38.2661 68.8113-37.9965 68.8652-37.6551C68.9191-37.3137 68.9595-37.0442 69.0449-36.4647C69.0673-36.2895 69.1123-36.02 69.1347-35.8583C69.1617-35.6965 69.2021-35.436 69.2246-35.2743C69.247-35.1125 69.2875-34.8565 69.3099-34.6992C69.5929-33.0192 69.5795-33.8008 69.5615-20.6522C69.548-14.0803 69.53-8.5101 69.5166-8.2762C69.4896-7.8629 69.4357-7.4811 69.3593-7.1532C69.3369-7.0678 69.2965-6.8926 69.265-6.7713C69.2156-6.5422 69.0673-6.0796 69-5.9178C68.982-5.8684 68.9191-5.7067 68.8607-5.5585C68.7574-5.2845 68.3353-4.4088 68.2858-4.368C68.2723-4.3545 68.2094-4.2557 68.151-4.1434C68.0881-4.0311 68.0117-3.9143 67.9803-3.8828C67.9488-3.8514 67.9219-3.8065 67.9218-3.784C67.9218-3.6897 67.1852-2.8137 66.691-2.3196C66.1116-1.7401 65.6308-1.3583 65.0379-0.9944C64.3057-0.5452 63.3892-0.1588 62.7109-0.0106C62.5761 0.0164 62.3919 0.0613 62.3066 0.0883C62.0366 0.1691 57.2298 0.205 46.6469 0.2095C36.0947 0.214 36.3328 0.2185 35.4658 0.0388C35.1918-0.0196 34.8054-0.1229 34.473-0.2262C33.9025-0.4059 32.3438-1.1605 31.6565-1.5963C31.5352-1.6726 31.423-1.7131 31.4049-1.6907C31.3825-1.6682 31.1488-1.3583 30.8837-0.9989C30.4255-0.3835 29.8371 0.2589 29.5361 0.4656C29.2171 0.6902 28.8712 0.8339 28.3906 0.9552C28.1255 1.0226 27.1597 1.0406 26.9306 0.9822C26.8587 0.9597 26.6835 0.9193 26.5488 0.8878C26.414 0.8564 26.1804 0.7755 26.0322 0.7037C25.884 0.6318 25.7492 0.5734 25.7312 0.5734C25.6997 0.5734 25.2416 0.2994 25.2011 0.2589C25.1876 0.2454 25.1067 0.1825 25.0214 0.1242C24.8418-0.0016 24.725-0.096 24.442-0.3475C24.1545-0.6036 24.0916-0.6665 23.7636-1.0438C23.6019-1.228 23.4627-1.3897 23.4492-1.4032C23.4356-1.4168 23.3548-1.5156 23.2695-1.6278C23.1841-1.7401 23.0988-1.8479 23.0764-1.8749C23.0584-1.8974 22.9326-2.0725 22.8024-2.2567C21.8815-3.5774 21.1852-5.1047 20.8932-6.4569C20.5787-7.9034 20.5967-7.3284 20.6012-16.3622C20.6012-20.8723 20.6281-25.7508 20.6551-27.2108C20.6865-28.6663 20.7314-30.9303 20.7539-32.242C20.8302-36.2985 20.974-40.5616 21.1132-43.0907C21.1357-43.5219 21.1761-44.2991 21.2031-44.8202C21.23-45.3368 21.2705-46.087 21.2929-46.4823C21.3154-46.8776 21.3558-47.5829 21.3828-48.0545C21.4502-49.2719 21.513-50.3051 21.6523-52.5332C21.7107-53.4182 21.7602-53.7237 21.9309-54.2538C22.1959-55.0578 22.5732-55.7227 23.247-56.5672C23.4582-56.8323 24.4824-57.8115 25.0888-58.3237C25.1876-58.409 25.2775-58.4854 25.291-58.4989C25.3045-58.5123 25.4257-58.6112 25.5605-58.7235C25.6952-58.8358 25.8165-58.9346 25.83-58.9481C25.8435-58.9616 25.9648-59.0604 26.0996-59.1727C26.2343-59.285 26.3556-59.3838 26.3691-59.3973C26.3826-59.4108 26.4814-59.4917 26.5937-59.577C26.706-59.6623 26.8048-59.7432 26.8183-59.7567C26.8318-59.7747 27.2136-60.0622 27.6718-60.4036C28.13-60.745 28.5389-61.0504 28.5838-61.0864C28.8488-61.302 30.9377-62.6451 31.4723-62.9506C31.5576-62.9955 31.6969-63.0764 31.7867-63.1258C31.8721-63.1752 31.9889-63.2471 32.0428-63.2786C32.1687-63.3595 33.9159-64.3386 34.3652-64.5768C34.5494-64.6756 34.7561-64.7924 34.8234-64.8418C34.8863-64.8867 34.9536-64.9227 34.9672-64.9227C34.9851-64.9227 35.1424-65.0125 35.3221-65.1203C35.4972-65.2281 35.7083-65.3449 35.7802-65.3853C35.8566-65.4258 35.969-65.5022 36.0363-65.5606C36.1981-65.7088 36.4316-66.1804 36.4316-66.3736C36.4316-66.5174 36.4182-66.5308 36.2789-66.5578C35.8162-66.6476 35.1963-67.1014 34.8864-67.5865C34.5584-68.0941 34.5674-68.0178 34.5539-70.5379C34.5449-72.1551 34.5539-72.8784 34.5898-73.0536C34.738-73.7453 35.1828-74.3338 35.7578-74.6078C36.0318-74.7426 36.1935-74.7921 36.4226-74.8235C36.526-74.8415 39.4549-74.8639 42.9228-74.8774ZM38.498-66.3018C38.498-66.0098 38.3947-65.4932 38.2689-65.1832C38.0039-64.5049 37.4693-63.9164 36.791-63.5435C36.6562-63.4672 36.472-63.3683 36.3867-63.3189C36.3013-63.2695 36.0992-63.1618 35.9375-63.0809C35.7757-62.9956 35.596-62.8967 35.5332-62.8563C35.4703-62.8159 35.2681-62.699 35.0839-62.6002C34.8998-62.5014 34.5943-62.3307 34.4101-62.2274C34.2259-62.1241 33.9744-61.9803 33.8486-61.9129C33.7273-61.8411 33.3545-61.6209 33.0221-61.4233C32.6942-61.2211 32.4156-61.0594 32.4066-61.0594C32.3973-61.0592 32.2043-60.938 31.9754-60.7899C31.7463-60.6416 31.5261-60.5024 31.4902-60.4799C31.2386-60.3226 29.891-59.4198 29.873-59.3973C29.8594-59.3838 29.6394-59.2221 29.3789-59.0379C29.1183-58.8538 28.8982-58.692 28.8847-58.6786C28.8712-58.6651 28.7904-58.6022 28.705-58.5438C28.6197-58.4809 28.4984-58.3865 28.4355-58.3326C28.3726-58.2742 28.3098-58.2293 28.2918-58.2293C28.2783-58.2293 28.2334-58.2023 28.2019-58.1709C28.1705-58.1395 28.0537-58.0452 27.9414-57.9598C27.8291-57.8745 27.7302-57.7936 27.7168-57.7801C27.7032-57.7666 27.6044-57.6858 27.4921-57.6004C27.3798-57.5151 27.2586-57.4163 27.2226-57.3758C27.1867-57.3399 27.0609-57.232 26.9441-57.1377C26.8273-57.0434 26.706-56.9445 26.6746-56.9131C26.6431-56.8816 26.4859-56.7469 26.3242-56.6122C26.1625-56.4774 25.9334-56.2753 25.8076-56.1585C25.6863-56.0462 25.4841-55.862 25.3584-55.7542C25.1203-55.5385 24.8104-55.2196 24.6531-55.013C24.5947-54.9411 24.5273-54.8557 24.4959-54.8242C24.4689-54.7973 24.4285-54.7299 24.415-54.6805C24.4015-54.6311 24.3701-54.5907 24.3567-54.5907C24.3252-54.5907 23.9748-53.9213 23.8984-53.7147C23.7187-53.243 23.6648-52.8746 23.5839-51.5494C23.4851-50.0041 23.4492-49.4561 23.4043-48.7733C23.283-46.954 23.2021-45.5434 23.1347-44.1463C23.0224-41.8913 23-41.3432 22.955-40.2831C22.8068-36.6983 22.7574-34.7127 22.6855-30.243C22.6091-25.3016 22.5552-20.3243 22.5238-14.745C22.4879-8.8917 22.4924-8.7479 22.7575-7.4452C22.8158-7.1532 22.8427-7.0453 22.9506-6.6455C23.0135-6.4074 23.2246-5.7966 23.301-5.6258C23.4986-5.1766 23.6828-4.7858 23.7277-4.7049C23.7547-4.6555 23.84-4.5028 23.9164-4.368C23.9882-4.2333 24.0647-4.103 24.0871-4.076C24.1096-4.0536 24.2129-3.9008 24.3162-3.7391C24.5273-3.4203 24.8461-2.9667 24.8867-2.9305C24.9002-2.917 24.981-2.8182 25.0664-2.7059C25.3089-2.396 26.0188-1.6997 26.3332-1.4706C27.007-0.9719 27.6359-0.8372 28.1346-1.0887C28.449-1.246 28.6422-1.4571 29.3924-2.4588C30.0302-3.3078 30.4121-3.7436 30.6142-3.8559C30.6636-3.8828 30.8434-3.9323 31.0096-3.9637C31.2566-4.0131 31.3645-4.0131 31.5846-3.9682C31.8092-3.9233 32.3167-3.6942 32.3886-3.6088C32.4515-3.5325 33.5251-2.9171 34.1181-2.6161C35.0435-2.1489 35.4388-1.9961 35.9599-1.8973C36.1082-1.8704 36.3283-1.83 36.4451-1.803C36.5799-1.7805 40.1018-1.7625 45.5418-1.767C55.9089-1.7715 61.7711-1.8164 61.9697-1.8883C62.046-1.9152 62.2482-1.9782 62.4189-2.0321C62.9085-2.1803 63.3713-2.3959 63.9013-2.7193C64.2023-2.9035 64.5617-3.1551 64.6425-3.245C64.656-3.2585 64.7549-3.3393 64.8671-3.4291C65.1546-3.6627 65.3074-3.811 65.5859-4.1434C65.7207-4.3051 65.8465-4.4444 65.86-4.4579C65.923-4.5164 66.399-5.235 66.5293-5.4731C66.7763-5.9178 66.7943-5.9538 66.9246-6.2547C67.257-7.0049 67.4636-7.827 67.5625-8.8153C67.6343-9.5255 67.5985-32.6868 67.5266-33.118C67.4412-33.6256 67.3918-33.9401 67.3379-34.286C67.3109-34.4702 67.266-34.7442 67.2435-34.8924C67.2211-35.0407 67.1806-35.3012 67.1582-35.4764C67.1312-35.6471 67.0908-35.9166 67.0683-36.0693C66.992-36.568 66.8662-37.417 66.7988-37.8797C66.7314-38.3694 66.6685-38.7872 66.6191-39.0926C66.5921-39.2543 66.5517-39.5149 66.5293-39.6766C66.5068-39.8383 66.4664-40.1079 66.4394-40.2831C66.408-40.4538 66.372-40.7098 66.3496-40.8446C66.3271-40.9794 66.2912-41.2219 66.2688-41.3836C66.2014-41.7924 66.1294-42.2911 66.08-42.6639C66.0576-42.8346 66.0171-43.1087 65.9902-43.2704C65.9408-43.5578 65.9093-43.769 65.8105-44.4383C65.7836-44.6225 65.7431-44.9055 65.7162-45.0672C65.6937-45.229 65.6533-45.4895 65.6308-45.6512C65.6084-45.8129 65.568-46.0735 65.5455-46.2352C65.5186-46.3969 65.4781-46.6619 65.4511-46.8281C65.4287-46.9988 65.3882-47.2594 65.3613-47.4121C65.3388-47.5693 65.2984-47.8254 65.2714-47.9872C65.2445-48.1489 65.2041-48.4094 65.1816-48.5711C65.1187-49.0159 65.0513-49.4606 65.0019-49.784C64.975-49.9458 64.9345-50.2063 64.9076-50.368C64.8851-50.5297 64.8447-50.7813 64.8222-50.9295C64.7998-51.0778 64.7593-51.3338 64.7324-51.5C64.7099-51.6707 64.6695-51.9313 64.6425-52.084C64.6201-52.2412 64.5796-52.5063 64.5527-52.6815C64.2832-54.4514 64.1799-54.9455 63.9957-55.3184C63.9553-55.3947 63.9238-55.4711 63.9238-55.4936C63.9237-55.5296 63.5599-56.1719 63.5195-56.2079C63.5059-56.2214 63.4431-56.3023 63.3847-56.3875C63.0702-56.8458 62.1583-57.6319 61.6552-57.87C61.5834-57.9059 61.5115-57.9463 61.498-57.9643C61.4754-57.9868 61.2552-58.0946 60.7793-58.3057C60.4648-58.4494 60.1593-58.5887 59.791-58.7594C59.6293-58.8357 59.3777-58.9481 59.2295-59.0155C59.0812-59.0829 58.8117-59.2086 58.632-59.2895C58.4568-59.3748 58.1918-59.4961 58.0481-59.559C57.9088-59.6264 57.6662-59.7342 57.509-59.8061C57.244-59.9274 56.9879-60.0487 56.3455-60.3451C56.1883-60.417 55.9367-60.5339 55.784-60.6057C55.6268-60.6776 55.3842-60.7899 55.2449-60.8528C54.9664-60.9786 54.6519-61.1223 54.2342-61.311C54.0904-61.3783 53.8029-61.5041 53.5918-61.5985C53.3806-61.6928 53.0976-61.8186 52.9628-61.8814C52.8281-61.9398 52.563-62.0567 52.3789-62.1375C52.1947-62.2184 51.9431-62.3262 51.8173-62.3846C51.3996-62.5733 51.1435-62.6856 50.9863-62.7529C50.9009-62.7934 50.6853-62.8922 50.5057-62.9731C50.3262-63.0583 50.1691-63.1257 50.1598-63.1258C50.0789-63.1258 48.956-63.6693 48.884-63.7412C48.8526-63.7727 48.8121-63.7996 48.7942-63.7997C48.7223-63.8041 48.3853-64.159 48.2191-64.4061C47.8642-64.9362 47.698-65.4393 47.6396-66.1445L47.6082-66.5399L38.498-66.5399L38.498-66.3018Z"/>
  </g>
 </g>
</svg>
