<?xml version="1.0" encoding="UTF-8"?>
<!DOCTYPE svg
PUBLIC "-//W3C//DTD SVG 1.1//EN"
     "http://www.w3.org/Graphics/SVG/1.1/DTD/svg11.dtd">
     <!--Created with SF Symbol Generator (v1.0.0)-->

<svg version="1.1" xmlns="http://www.w3.org/2000/svg" xmlns:xlink="http://www.w3.org/1999/xlink" width="3300" height="2200">
<!--glyph: "3.weights.m.medium", point size: 100.0-->
<style>.SFSymbolsPreviewWireframe {fill:none;opacity:1.0;stroke:black;stroke-width:0.5}
</style>
<g id="Notes">
<rect height="2200" id="artboard" style="fill:white;opacity:1" width="3300" x="0" y="0"/>
<line style="fill:none;stroke:black;opacity:1;stroke-width:0.5;" x1="263" x2="3036" y1="292" y2="292"/>
<text style="stroke:none;fill:black;font-family:sans-serif;font-size:13;font-weight:bold;" transform="matrix(1 0 0 1 263 322)">Weight/Scale Variations</text>
<text style="stroke:none;fill:black;font-family:sans-serif;font-size:13;text-anchor:middle;" transform="matrix(1 0 0 1 559.711 322)">Ultralight</text>
<text style="stroke:none;fill:black;font-family:sans-serif;font-size:13;text-anchor:middle;" transform="matrix(1 0 0 1 856.422 322)">Thin</text>
<text style="stroke:none;fill:black;font-family:sans-serif;font-size:13;text-anchor:middle;" transform="matrix(1 0 0 1 1153.13 322)">Light</text>
<text style="stroke:none;fill:black;font-family:sans-serif;font-size:13;text-anchor:middle;" transform="matrix(1 0 0 1 1449.84 322)">Regular</text>
<text style="stroke:none;fill:black;font-family:sans-serif;font-size:13;text-anchor:middle;" transform="matrix(1 0 0 1 1746.56 322)">Medium</text>
<text style="stroke:none;fill:black;font-family:sans-serif;font-size:13;text-anchor:middle;" transform="matrix(1 0 0 1 2043.27 322)">Semibold</text>
<text style="stroke:none;fill:black;font-family:sans-serif;font-size:13;text-anchor:middle;" transform="matrix(1 0 0 1 2339.98 322)">Bold</text>
<text style="stroke:none;fill:black;font-family:sans-serif;font-size:13;text-anchor:middle;" transform="matrix(1 0 0 1 2636.69 322)">Heavy</text>
<text style="stroke:none;fill:black;font-family:sans-serif;font-size:13;text-anchor:middle;" transform="matrix(1 0 0 1 2933.4 322)">Black</text>
<line style="fill:none;stroke:black;opacity:1;stroke-width:0.5;" x1="263" x2="3036" y1="1903" y2="1903"/>
<text style="stroke:none;fill:black;font-family:sans-serif;font-size:13;font-weight:bold;" transform="matrix(1 0 0 1 263 1953)">Design Variations</text>
<text style="stroke:none;fill:black;font-family:sans-serif;font-size:13;" transform="matrix(1 0 0 1 263 1971)">Symbols are supported in up to nine weights and three scales.</text>
<text style="stroke:none;fill:black;font-family:sans-serif;font-size:13;" transform="matrix(1 0 0 1 263 1989)">For optimal layout with text and other symbols, vertically align</text>
<text style="stroke:none;fill:black;font-family:sans-serif;font-size:13;" transform="matrix(1 0 0 1 263 2007)">symbols with the adjacent text.</text>
<line style="fill:none;stroke:#00AEEF;stroke-width:0.5;opacity:1.0;" x1="776" x2="776" y1="1919" y2="1933"/>
<text style="stroke:none;fill:black;font-family:sans-serif;font-size:13;font-weight:bold;" transform="matrix(1 0 0 1 776 1953)">Margins</text>
<text style="stroke:none;fill:black;font-family:sans-serif;font-size:13;" transform="matrix(1 0 0 1 776 1971)">Leading and trailing margins on the left and right side of each symbol</text>
<text style="stroke:none;fill:black;font-family:sans-serif;font-size:13;" transform="matrix(1 0 0 1 776 1989)">can be adjusted by modifying the x-location of the margin guidelines.</text>
<text style="stroke:none;fill:black;font-family:sans-serif;font-size:13;" transform="matrix(1 0 0 1 776 2007)">Modifications are automatically applied proportionally to all</text>
<text style="stroke:none;fill:black;font-family:sans-serif;font-size:13;" transform="matrix(1 0 0 1 776 2025)">scales and weights.</text>
<text style="stroke:none;fill:black;font-family:sans-serif;font-size:13;font-weight:bold;" transform="matrix(1 0 0 1 1289 1953)">Exporting</text>
<text style="stroke:none;fill:black;font-family:sans-serif;font-size:13;" transform="matrix(1 0 0 1 1289 1971)">Symbols should be outlined when exporting to ensure the</text>
<text style="stroke:none;fill:black;font-family:sans-serif;font-size:13;" transform="matrix(1 0 0 1 1289 1989)">design is preserved when submitting to Xcode.</text>
<text id="template-version" style="stroke:none;fill:black;font-family:sans-serif;font-size:13;text-anchor:end;" transform="matrix(1 0 0 1 3036 1933)">Template v.5.0</text>
<text style="stroke:none;fill:black;font-family:sans-serif;font-size:13;text-anchor:end;" transform="matrix(1 0 0 1 3036 1951)">Requires Xcode 15 or greater</text>
<text id="descriptive-name" style="stroke:none;fill:black;font-family:sans-serif;font-size:13;text-anchor:end;" transform="matrix(1 0 0 1 3036 1969)">Generated from 3.weights.m</text>
<text style="stroke:none;fill:black;font-family:sans-serif;font-size:13;text-anchor:end;" transform="matrix(1 0 0 1 3036 1987)">Typeset at 100.0 points</text>
<text style="stroke:none;fill:black;font-family:sans-serif;font-size:13;" transform="matrix(1 0 0 1 263 726)">Small</text>
<text style="stroke:none;fill:black;font-family:sans-serif;font-size:13;" transform="matrix(1 0 0 1 263 1156)">Medium</text>
<text style="stroke:none;fill:black;font-family:sans-serif;font-size:13;" transform="matrix(1 0 0 1 263 1586)">Large</text>
</g>
<g id="Guides">
<g id="H-reference" style="fill:#27AAE1;stroke:none;" transform="matrix(1 0 0 1 339 696)">
 <path d="M0.993654 0L3.63775 0L29.3281-67.1323L30.0303-67.1323L30.0303-70.459L28.1226-70.459ZM11.6885-24.4799L46.9815-24.4799L46.2315-26.7285L12.4385-26.7285ZM55.1196 0L57.7637 0L30.6382-70.459L29.4326-70.459L29.4326-67.1323Z"/>
</g>
<line id="Baseline-S" style="fill:none;stroke:#27AAE1;opacity:1;stroke-width:0.5;" x1="263" x2="3036" y1="696" y2="696"/>
<line id="Capline-S" style="fill:none;stroke:#27AAE1;opacity:1;stroke-width:0.5;" x1="263" x2="3036" y1="625.541" y2="625.541"/>
<g id="H-reference" style="fill:#27AAE1;stroke:none;" transform="matrix(1 0 0 1 339 1126)">
 <path d="M0.993654 0L3.63775 0L29.3281-67.1323L30.0303-67.1323L30.0303-70.459L28.1226-70.459ZM11.6885-24.4799L46.9815-24.4799L46.2315-26.7285L12.4385-26.7285ZM55.1196 0L57.7637 0L30.6382-70.459L29.4326-70.459L29.4326-67.1323Z"/>
</g>
<line id="Baseline-M" style="fill:none;stroke:#27AAE1;opacity:1;stroke-width:0.5;" x1="263" x2="3036" y1="1126" y2="1126"/>
<line id="Capline-M" style="fill:none;stroke:#27AAE1;opacity:1;stroke-width:0.5;" x1="263" x2="3036" y1="1055.54" y2="1055.54"/>
<g id="H-reference" style="fill:#27AAE1;stroke:none;" transform="matrix(1 0 0 1 339 1556)">
 <path d="M0.993654 0L3.63775 0L29.3281-67.1323L30.0303-67.1323L30.0303-70.459L28.1226-70.459ZM11.6885-24.4799L46.9815-24.4799L46.2315-26.7285L12.4385-26.7285ZM55.1196 0L57.7637 0L30.6382-70.459L29.4326-70.459L29.4326-67.1323Z"/>
</g>
<line id="Baseline-L" style="fill:none;stroke:#27AAE1;opacity:1;stroke-width:0.5;" x1="263" x2="3036" y1="1556" y2="1556"/>
<line id="Capline-L" style="fill:none;stroke:#27AAE1;opacity:1;stroke-width:0.5;" x1="263" x2="3036" y1="1485.54" y2="1485.54"/>
<line id="left-margin-Ultralight-S" style="fill:none;stroke:#00AEEF;stroke-width:0.5;opacity:1.0;" x1="513.711" x2="513.711" y1="600.785" y2="720.121"/>
<line id="right-margin-Ultralight-S" style="fill:none;stroke:#00AEEF;stroke-width:0.5;opacity:1.0;" x1="605.711" x2="605.711" y1="600.785" y2="720.121"/>
<line id="left-margin-Regular-S" style="fill:none;stroke:#00AEEF;stroke-width:0.5;opacity:1.0;" x1="1403.84" x2="1403.84" y1="600.785" y2="720.121"/>
<line id="right-margin-Regular-S" style="fill:none;stroke:#00AEEF;stroke-width:0.5;opacity:1.0;" x1="1495.84" x2="1495.84" y1="600.785" y2="720.121"/>
<line id="left-margin-Black-S" style="fill:none;stroke:#00AEEF;stroke-width:0.5;opacity:1.0;" x1="2887.4" x2="2887.4" y1="600.785" y2="720.121"/>
<line id="right-margin-Black-S" style="fill:none;stroke:#00AEEF;stroke-width:0.5;opacity:1.0;" x1="2979.4" x2="2979.4" y1="600.785" y2="720.121"/>
</g>
<g id="Symbols">
<g id="Ultralight-S" transform="matrix(1 0 0 1 513.711 614.7705)">
<svg width="92" height="92" viewBox="0 0 92 92" fill="none" xmlns="http://www.w3.org/2000/svg">
<g id="3.weights.m">
<g id="Vector">
<path d="M2.11966 78.7118C1.41694 78.5044 0.656634 77.8938 0.322557 77.2372L0 76.6267V71.627C0 66.109 -3.42727e-07 66.132 0.714232 65.3948C0.97919 65.1183 1.33631 64.934 2.00446 64.7266C2.96061 64.4386 3.80156 63.9778 4.19324 63.5286C4.31995 63.4018 4.38907 63.2751 4.36603 63.2521C4.34299 63.2406 4.03196 63.0908 3.67484 62.918C2.00446 62.1347 1.18655 60.6255 1.48607 58.9436C1.75102 57.5267 2.51133 56.5245 3.79004 55.9254L4.43515 55.6259H8.69751C13.5704 55.6259 13.5013 55.6144 14.6303 56.6742C16.7729 58.6787 16.0933 62.077 13.34 63.0678C12.8331 63.2406 12.8101 63.3097 13.1672 63.6438C13.7202 64.1737 14.3077 64.4732 15.5749 64.8533C16.3813 65.0837 17.0955 65.7865 17.2453 66.4776C17.2913 66.7196 17.3374 69.1157 17.3374 71.8114C17.3374 77.2948 17.3374 77.2833 16.5541 78.0436C15.7246 78.8385 15.7246 78.8385 8.70903 78.827C5.27611 78.827 2.3155 78.7694 2.11966 78.7118ZM14.7224 71.7307L14.6878 67.2725L13.8584 66.9615C12.764 66.5583 12.0037 66.0629 11.278 65.2681C10.5522 64.4732 10.2181 63.7705 10.2181 62.9986C10.2066 61.9734 10.7596 61.2707 11.8424 60.9251C12.6949 60.6601 13.0866 60.3721 13.2479 59.8998C13.3976 59.439 13.2133 58.886 12.7871 58.5059C12.5452 58.287 12.3493 58.2755 8.87031 58.2409C4.78075 58.2064 4.55035 58.2409 4.20476 58.9206C3.96284 59.3814 4.04348 59.992 4.38908 60.3721C4.53883 60.5219 4.98811 60.7407 5.40282 60.8675C6.54329 61.2131 7.25753 62.0079 7.25753 62.918C7.25753 64.4271 5.09179 66.6389 3.22557 67.0306C3.00669 67.0767 2.75325 67.1688 2.68413 67.2264C2.56893 67.3186 2.53437 68.3669 2.53437 71.7653V76.1889H14.7454L14.7224 71.7307Z" fill="black"/>
<path d="M25.4129 40.247C26.0926 40.0166 26.3345 40.005 33.0736 40.0395L40.0316 40.0741L40.6883 40.3967C41.702 40.8921 42.4393 41.6294 42.9346 42.6431C43.3608 43.484 43.3723 43.5531 43.3723 44.7397C43.3723 45.9147 43.3608 45.9838 42.9346 46.8363C42.2665 48.1956 41.126 49.0596 39.6054 49.3592C39.2253 49.4398 38.8912 49.5665 38.8566 49.6471C38.6722 50.1425 40.3772 51.9396 41.6328 52.5617C42.301 52.8843 42.6581 52.9879 44.6165 53.3796C45.4459 53.5409 46.1026 54.1169 46.2984 54.8426C46.3906 55.1767 46.4252 58.3562 46.4021 65.8441L46.3675 76.3733L46.0795 76.9378C45.9067 77.2719 45.5266 77.7096 45.181 77.9976C44.0981 78.8731 44.6856 78.8385 32.728 78.8385C22.6942 78.827 22.026 78.8155 21.45 78.6196C20.6206 78.3316 20.0446 77.8363 19.676 77.099L19.3649 76.477L19.2958 54.9347L19.5838 54.4279C19.9755 53.7367 20.3902 53.5178 21.8532 53.2644C23.466 52.9764 24.7101 52.3774 25.7354 51.3751C26.3805 50.7531 27.0601 49.7509 26.922 49.6241C26.8989 49.5896 26.4957 49.4628 26.0464 49.3361C24.307 48.8638 23.2932 48.0805 22.6596 46.7212C21.4846 44.1983 22.7864 41.1225 25.4129 40.247Z" fill="black"/>
<path d="M50.9524 78.6772C49.6161 78.251 48.4987 77.1451 48.2337 75.9585C48.1992 75.7972 48.1531 66.8348 48.1416 56.0291C48.1185 41.0533 48.1416 36.2725 48.2453 35.9154C48.4296 35.2933 49.1438 34.4985 49.835 34.1529C50.2843 33.9225 50.6414 33.8533 51.8855 33.7842C54.2702 33.646 55.9636 33.1046 57.7607 31.9065C59.5463 30.7199 61.1706 28.6003 61.1706 27.4483C61.1706 27.0336 61.1475 26.999 60.7443 26.8953C60.5024 26.8377 59.9495 26.7225 59.5002 26.6534C58.0026 26.4115 56.5857 25.5014 55.5604 24.1306C54.1089 22.2067 53.867 19.442 54.9729 17.2186C55.5028 16.1243 56.8506 14.7995 57.9565 14.2811C59.6384 13.4747 59.1085 13.5092 70.398 13.5438L80.5816 13.5784L81.388 13.9124C84.1297 15.0414 85.754 17.3569 85.754 20.1447C85.754 22.0224 85.1434 23.4509 83.7495 24.8218C82.5169 26.0429 81.5147 26.5152 79.4641 26.8262C78.9112 26.9069 78.7614 27.1718 78.9342 27.7593C79.8328 31.0425 84.1758 33.7958 88.4727 33.7958C90.408 33.7958 91.7213 34.9708 91.9286 36.8716C91.9747 37.3669 92.0093 46.3294 91.9978 56.7779L91.9862 75.7857L91.6637 76.4884C91.2605 77.3639 90.5808 78.0436 89.6823 78.4583L88.9911 78.7809L70.2137 78.8039C54.9038 78.8154 51.3441 78.7924 50.9524 78.6772ZM88.5303 76.0276C88.7492 75.9355 89.0372 75.682 89.1639 75.4747C89.3943 75.0945 89.3943 74.9448 89.3943 56.1098V37.125L89.1178 36.86C88.8989 36.6296 88.68 36.572 87.9428 36.5144C85.6388 36.3301 83.7841 35.8117 82.0561 34.8786C78.1739 32.782 75.605 28.8192 76.3998 26.1696C76.5726 25.6051 77.2984 24.7526 77.8859 24.4531C78.1393 24.3264 78.7614 24.1766 79.2913 24.1075C80.9617 23.9002 82.1252 23.1514 82.7819 21.8496C83.0699 21.2621 83.1159 21.0548 83.1159 20.2023C83.1159 19.3498 83.0699 19.1309 82.7819 18.5434C82.1713 17.3108 81.1115 16.5274 79.7061 16.2855C79.2107 16.2049 75.9275 16.1703 69.5225 16.1934L60.0762 16.2279L59.4195 16.4929C58.544 16.85 57.6916 17.6334 57.2884 18.4513C57.0004 19.0273 56.9658 19.2346 56.9658 20.2023C56.9658 21.1008 57.0119 21.3888 57.2308 21.8266C57.8989 23.1744 59.0048 23.9117 60.6983 24.119C61.9078 24.2573 62.5875 24.5914 63.1405 25.3286C63.9238 26.3424 64.016 27.3907 63.4745 28.9459C62.1498 32.7705 57.2999 36.1804 52.8762 36.3992C51.4017 36.4799 50.9985 36.5951 50.8142 36.9752C50.722 37.1826 50.6875 42.1822 50.6875 56.1558C50.6875 71.892 50.7105 75.106 50.8488 75.4171C51.1828 76.2465 49.7428 76.1889 69.9602 76.1889C85.5236 76.1889 88.1962 76.1659 88.5303 76.0276Z" fill="black"/>
</g>
</g>
</svg>

</g>
<g id="Regular-S" transform="matrix(1 0 0 1 1403.84 614.7705)">
<svg width="92" height="92" viewBox="0 0 92 92" fill="none" xmlns="http://www.w3.org/2000/svg">
<g id="3.weights.m">
<g id="Vector">
<path d="M2.11966 78.7118C1.41694 78.5044 0.656634 77.8938 0.322557 77.2372L0 76.6267V71.627C0 66.109 -3.42727e-07 66.132 0.714232 65.3948C0.97919 65.1183 1.33631 64.934 2.00446 64.7266C2.96061 64.4386 3.80156 63.9778 4.19324 63.5286C4.31995 63.4018 4.38907 63.2751 4.36603 63.2521C4.34299 63.2406 4.03196 63.0908 3.67484 62.918C2.00446 62.1347 1.18655 60.6255 1.48607 58.9436C1.75102 57.5267 2.51133 56.5245 3.79004 55.9254L4.43515 55.6259H8.69751C13.5704 55.6259 13.5013 55.6144 14.6303 56.6742C16.7729 58.6787 16.0933 62.077 13.34 63.0678C12.8331 63.2406 12.8101 63.3097 13.1672 63.6438C13.7202 64.1737 14.3077 64.4732 15.5749 64.8533C16.3813 65.0837 17.0955 65.7865 17.2453 66.4776C17.2913 66.7196 17.3374 69.1157 17.3374 71.8114C17.3374 77.2948 17.3374 77.2833 16.5541 78.0436C15.7246 78.8385 15.7246 78.8385 8.70903 78.827C5.27611 78.827 2.3155 78.7694 2.11966 78.7118ZM14.7224 71.7307L14.6878 67.2725L13.8584 66.9615C12.764 66.5583 12.0037 66.0629 11.278 65.2681C10.5522 64.4732 10.2181 63.7705 10.2181 62.9986C10.2066 61.9734 10.7596 61.2707 11.8424 60.9251C12.6949 60.6601 13.0866 60.3721 13.2479 59.8998C13.3976 59.439 13.2133 58.886 12.7871 58.5059C12.5452 58.287 12.3493 58.2755 8.87031 58.2409C4.78075 58.2064 4.55035 58.2409 4.20476 58.9206C3.96284 59.3814 4.04348 59.992 4.38908 60.3721C4.53883 60.5219 4.98811 60.7407 5.40282 60.8675C6.54329 61.2131 7.25753 62.0079 7.25753 62.918C7.25753 64.4271 5.09179 66.6389 3.22557 67.0306C3.00669 67.0767 2.75325 67.1688 2.68413 67.2264C2.56893 67.3186 2.53437 68.3669 2.53437 71.7653V76.1889H14.7454L14.7224 71.7307Z" fill="black"/>
<path d="M25.4129 40.247C26.0926 40.0166 26.3345 40.005 33.0736 40.0395L40.0316 40.0741L40.6883 40.3967C41.702 40.8921 42.4393 41.6294 42.9346 42.6431C43.3608 43.484 43.3723 43.5531 43.3723 44.7397C43.3723 45.9147 43.3608 45.9838 42.9346 46.8363C42.2665 48.1956 41.126 49.0596 39.6054 49.3592C39.2253 49.4398 38.8912 49.5665 38.8566 49.6471C38.6722 50.1425 40.3772 51.9396 41.6328 52.5617C42.301 52.8843 42.6581 52.9879 44.6165 53.3796C45.4459 53.5409 46.1026 54.1169 46.2984 54.8426C46.3906 55.1767 46.4252 58.3562 46.4021 65.8441L46.3675 76.3733L46.0795 76.9378C45.9067 77.2719 45.5266 77.7096 45.181 77.9976C44.0981 78.8731 44.6856 78.8385 32.728 78.8385C22.6942 78.827 22.026 78.8155 21.45 78.6196C20.6206 78.3316 20.0446 77.8363 19.676 77.099L19.3649 76.477L19.2958 54.9347L19.5838 54.4279C19.9755 53.7367 20.3902 53.5178 21.8532 53.2644C23.466 52.9764 24.7101 52.3774 25.7354 51.3751C26.3805 50.7531 27.0601 49.7509 26.922 49.6241C26.8989 49.5896 26.4957 49.4628 26.0464 49.3361C24.307 48.8638 23.2932 48.0805 22.6596 46.7212C21.4846 44.1983 22.7864 41.1225 25.4129 40.247Z" fill="black"/>
<path d="M50.9524 78.6772C49.6161 78.251 48.4987 77.1451 48.2337 75.9585C48.1992 75.7972 48.1531 66.8348 48.1416 56.0291C48.1185 41.0533 48.1416 36.2725 48.2453 35.9154C48.4296 35.2933 49.1438 34.4985 49.835 34.1529C50.2843 33.9225 50.6414 33.8533 51.8855 33.7842C54.2702 33.646 55.9636 33.1046 57.7607 31.9065C59.5463 30.7199 61.1706 28.6003 61.1706 27.4483C61.1706 27.0336 61.1475 26.999 60.7443 26.8953C60.5024 26.8377 59.9495 26.7225 59.5002 26.6534C58.0026 26.4115 56.5857 25.5014 55.5604 24.1306C54.1089 22.2067 53.867 19.442 54.9729 17.2186C55.5028 16.1243 56.8506 14.7995 57.9565 14.2811C59.6384 13.4747 59.1085 13.5092 70.398 13.5438L80.5816 13.5784L81.388 13.9124C84.1297 15.0414 85.754 17.3569 85.754 20.1447C85.754 22.0224 85.1434 23.4509 83.7495 24.8218C82.5169 26.0429 81.5147 26.5152 79.4641 26.8262C78.9112 26.9069 78.7614 27.1718 78.9342 27.7593C79.8328 31.0425 84.1758 33.7958 88.4727 33.7958C90.408 33.7958 91.7213 34.9708 91.9286 36.8716C91.9747 37.3669 92.0093 46.3294 91.9978 56.7779L91.9862 75.7857L91.6637 76.4884C91.2605 77.3639 90.5808 78.0436 89.6823 78.4583L88.9911 78.7809L70.2137 78.8039C54.9038 78.8154 51.3441 78.7924 50.9524 78.6772ZM88.5303 76.0276C88.7492 75.9355 89.0372 75.682 89.1639 75.4747C89.3943 75.0945 89.3943 74.9448 89.3943 56.1098V37.125L89.1178 36.86C88.8989 36.6296 88.68 36.572 87.9428 36.5144C85.6388 36.3301 83.7841 35.8117 82.0561 34.8786C78.1739 32.782 75.605 28.8192 76.3998 26.1696C76.5726 25.6051 77.2984 24.7526 77.8859 24.4531C78.1393 24.3264 78.7614 24.1766 79.2913 24.1075C80.9617 23.9002 82.1252 23.1514 82.7819 21.8496C83.0699 21.2621 83.1159 21.0548 83.1159 20.2023C83.1159 19.3498 83.0699 19.1309 82.7819 18.5434C82.1713 17.3108 81.1115 16.5274 79.7061 16.2855C79.2107 16.2049 75.9275 16.1703 69.5225 16.1934L60.0762 16.2279L59.4195 16.4929C58.544 16.85 57.6916 17.6334 57.2884 18.4513C57.0004 19.0273 56.9658 19.2346 56.9658 20.2023C56.9658 21.1008 57.0119 21.3888 57.2308 21.8266C57.8989 23.1744 59.0048 23.9117 60.6983 24.119C61.9078 24.2573 62.5875 24.5914 63.1405 25.3286C63.9238 26.3424 64.016 27.3907 63.4745 28.9459C62.1498 32.7705 57.2999 36.1804 52.8762 36.3992C51.4017 36.4799 50.9985 36.5951 50.8142 36.9752C50.722 37.1826 50.6875 42.1822 50.6875 56.1558C50.6875 71.892 50.7105 75.106 50.8488 75.4171C51.1828 76.2465 49.7428 76.1889 69.9602 76.1889C85.5236 76.1889 88.1962 76.1659 88.5303 76.0276Z" fill="black"/>
</g>
</g>
</svg>

</g>
<g id="Black-S" transform="matrix(1 0 0 1 2887.4 614.7705)">
<svg width="92" height="92" viewBox="0 0 92 92" fill="none" xmlns="http://www.w3.org/2000/svg">
<g id="3.weights.m">
<g id="Vector">
<path d="M2.11966 78.7118C1.41694 78.5044 0.656634 77.8938 0.322557 77.2372L0 76.6267V71.627C0 66.109 -3.42727e-07 66.132 0.714232 65.3948C0.97919 65.1183 1.33631 64.934 2.00446 64.7266C2.96061 64.4386 3.80156 63.9778 4.19324 63.5286C4.31995 63.4018 4.38907 63.2751 4.36603 63.2521C4.34299 63.2406 4.03196 63.0908 3.67484 62.918C2.00446 62.1347 1.18655 60.6255 1.48607 58.9436C1.75102 57.5267 2.51133 56.5245 3.79004 55.9254L4.43515 55.6259H8.69751C13.5704 55.6259 13.5013 55.6144 14.6303 56.6742C16.7729 58.6787 16.0933 62.077 13.34 63.0678C12.8331 63.2406 12.8101 63.3097 13.1672 63.6438C13.7202 64.1737 14.3077 64.4732 15.5749 64.8533C16.3813 65.0837 17.0955 65.7865 17.2453 66.4776C17.2913 66.7196 17.3374 69.1157 17.3374 71.8114C17.3374 77.2948 17.3374 77.2833 16.5541 78.0436C15.7246 78.8385 15.7246 78.8385 8.70903 78.827C5.27611 78.827 2.3155 78.7694 2.11966 78.7118ZM14.7224 71.7307L14.6878 67.2725L13.8584 66.9615C12.764 66.5583 12.0037 66.0629 11.278 65.2681C10.5522 64.4732 10.2181 63.7705 10.2181 62.9986C10.2066 61.9734 10.7596 61.2707 11.8424 60.9251C12.6949 60.6601 13.0866 60.3721 13.2479 59.8998C13.3976 59.439 13.2133 58.886 12.7871 58.5059C12.5452 58.287 12.3493 58.2755 8.87031 58.2409C4.78075 58.2064 4.55035 58.2409 4.20476 58.9206C3.96284 59.3814 4.04348 59.992 4.38908 60.3721C4.53883 60.5219 4.98811 60.7407 5.40282 60.8675C6.54329 61.2131 7.25753 62.0079 7.25753 62.918C7.25753 64.4271 5.09179 66.6389 3.22557 67.0306C3.00669 67.0767 2.75325 67.1688 2.68413 67.2264C2.56893 67.3186 2.53437 68.3669 2.53437 71.7653V76.1889H14.7454L14.7224 71.7307Z" fill="black"/>
<path d="M25.4129 40.247C26.0926 40.0166 26.3345 40.005 33.0736 40.0395L40.0316 40.0741L40.6883 40.3967C41.702 40.8921 42.4393 41.6294 42.9346 42.6431C43.3608 43.484 43.3723 43.5531 43.3723 44.7397C43.3723 45.9147 43.3608 45.9838 42.9346 46.8363C42.2665 48.1956 41.126 49.0596 39.6054 49.3592C39.2253 49.4398 38.8912 49.5665 38.8566 49.6471C38.6722 50.1425 40.3772 51.9396 41.6328 52.5617C42.301 52.8843 42.6581 52.9879 44.6165 53.3796C45.4459 53.5409 46.1026 54.1169 46.2984 54.8426C46.3906 55.1767 46.4252 58.3562 46.4021 65.8441L46.3675 76.3733L46.0795 76.9378C45.9067 77.2719 45.5266 77.7096 45.181 77.9976C44.0981 78.8731 44.6856 78.8385 32.728 78.8385C22.6942 78.827 22.026 78.8155 21.45 78.6196C20.6206 78.3316 20.0446 77.8363 19.676 77.099L19.3649 76.477L19.2958 54.9347L19.5838 54.4279C19.9755 53.7367 20.3902 53.5178 21.8532 53.2644C23.466 52.9764 24.7101 52.3774 25.7354 51.3751C26.3805 50.7531 27.0601 49.7509 26.922 49.6241C26.8989 49.5896 26.4957 49.4628 26.0464 49.3361C24.307 48.8638 23.2932 48.0805 22.6596 46.7212C21.4846 44.1983 22.7864 41.1225 25.4129 40.247Z" fill="black"/>
<path d="M50.9524 78.6772C49.6161 78.251 48.4987 77.1451 48.2337 75.9585C48.1992 75.7972 48.1531 66.8348 48.1416 56.0291C48.1185 41.0533 48.1416 36.2725 48.2453 35.9154C48.4296 35.2933 49.1438 34.4985 49.835 34.1529C50.2843 33.9225 50.6414 33.8533 51.8855 33.7842C54.2702 33.646 55.9636 33.1046 57.7607 31.9065C59.5463 30.7199 61.1706 28.6003 61.1706 27.4483C61.1706 27.0336 61.1475 26.999 60.7443 26.8953C60.5024 26.8377 59.9495 26.7225 59.5002 26.6534C58.0026 26.4115 56.5857 25.5014 55.5604 24.1306C54.1089 22.2067 53.867 19.442 54.9729 17.2186C55.5028 16.1243 56.8506 14.7995 57.9565 14.2811C59.6384 13.4747 59.1085 13.5092 70.398 13.5438L80.5816 13.5784L81.388 13.9124C84.1297 15.0414 85.754 17.3569 85.754 20.1447C85.754 22.0224 85.1434 23.4509 83.7495 24.8218C82.5169 26.0429 81.5147 26.5152 79.4641 26.8262C78.9112 26.9069 78.7614 27.1718 78.9342 27.7593C79.8328 31.0425 84.1758 33.7958 88.4727 33.7958C90.408 33.7958 91.7213 34.9708 91.9286 36.8716C91.9747 37.3669 92.0093 46.3294 91.9978 56.7779L91.9862 75.7857L91.6637 76.4884C91.2605 77.3639 90.5808 78.0436 89.6823 78.4583L88.9911 78.7809L70.2137 78.8039C54.9038 78.8154 51.3441 78.7924 50.9524 78.6772ZM88.5303 76.0276C88.7492 75.9355 89.0372 75.682 89.1639 75.4747C89.3943 75.0945 89.3943 74.9448 89.3943 56.1098V37.125L89.1178 36.86C88.8989 36.6296 88.68 36.572 87.9428 36.5144C85.6388 36.3301 83.7841 35.8117 82.0561 34.8786C78.1739 32.782 75.605 28.8192 76.3998 26.1696C76.5726 25.6051 77.2984 24.7526 77.8859 24.4531C78.1393 24.3264 78.7614 24.1766 79.2913 24.1075C80.9617 23.9002 82.1252 23.1514 82.7819 21.8496C83.0699 21.2621 83.1159 21.0548 83.1159 20.2023C83.1159 19.3498 83.0699 19.1309 82.7819 18.5434C82.1713 17.3108 81.1115 16.5274 79.7061 16.2855C79.2107 16.2049 75.9275 16.1703 69.5225 16.1934L60.0762 16.2279L59.4195 16.4929C58.544 16.85 57.6916 17.6334 57.2884 18.4513C57.0004 19.0273 56.9658 19.2346 56.9658 20.2023C56.9658 21.1008 57.0119 21.3888 57.2308 21.8266C57.8989 23.1744 59.0048 23.9117 60.6983 24.119C61.9078 24.2573 62.5875 24.5914 63.1405 25.3286C63.9238 26.3424 64.016 27.3907 63.4745 28.9459C62.1498 32.7705 57.2999 36.1804 52.8762 36.3992C51.4017 36.4799 50.9985 36.5951 50.8142 36.9752C50.722 37.1826 50.6875 42.1822 50.6875 56.1558C50.6875 71.892 50.7105 75.106 50.8488 75.4171C51.1828 76.2465 49.7428 76.1889 69.9602 76.1889C85.5236 76.1889 88.1962 76.1659 88.5303 76.0276Z" fill="black"/>
</g>
</g>
</svg>

</g>
</g>
</svg>