<?xml version="1.0" encoding="UTF-8"?>
<!DOCTYPE svg
PUBLIC "-//W3C//DTD SVG 1.1//EN"
     "http://www.w3.org/Graphics/SVG/1.1/DTD/svg11.dtd">
     <!--Created with SF Symbol Generator (v1.0.0)-->

<svg version="1.1" xmlns="http://www.w3.org/2000/svg" xmlns:xlink="http://www.w3.org/1999/xlink" width="3300" height="2200">
<!--glyph: "drymeasure.fill.medium", point size: 100.0-->
<style>.SFSymbolsPreviewWireframe {fill:none;opacity:1.0;stroke:black;stroke-width:0.5}
</style>
<g id="Notes">
<rect height="2200" id="artboard" style="fill:white;opacity:1" width="3300" x="0" y="0"/>
<line style="fill:none;stroke:black;opacity:1;stroke-width:0.5;" x1="263" x2="3036" y1="292" y2="292"/>
<text style="stroke:none;fill:black;font-family:sans-serif;font-size:13;font-weight:bold;" transform="matrix(1 0 0 1 263 322)">Weight/Scale Variations</text>
<text style="stroke:none;fill:black;font-family:sans-serif;font-size:13;text-anchor:middle;" transform="matrix(1 0 0 1 559.711 322)">Ultralight</text>
<text style="stroke:none;fill:black;font-family:sans-serif;font-size:13;text-anchor:middle;" transform="matrix(1 0 0 1 856.422 322)">Thin</text>
<text style="stroke:none;fill:black;font-family:sans-serif;font-size:13;text-anchor:middle;" transform="matrix(1 0 0 1 1153.13 322)">Light</text>
<text style="stroke:none;fill:black;font-family:sans-serif;font-size:13;text-anchor:middle;" transform="matrix(1 0 0 1 1449.84 322)">Regular</text>
<text style="stroke:none;fill:black;font-family:sans-serif;font-size:13;text-anchor:middle;" transform="matrix(1 0 0 1 1746.56 322)">Medium</text>
<text style="stroke:none;fill:black;font-family:sans-serif;font-size:13;text-anchor:middle;" transform="matrix(1 0 0 1 2043.27 322)">Semibold</text>
<text style="stroke:none;fill:black;font-family:sans-serif;font-size:13;text-anchor:middle;" transform="matrix(1 0 0 1 2339.98 322)">Bold</text>
<text style="stroke:none;fill:black;font-family:sans-serif;font-size:13;text-anchor:middle;" transform="matrix(1 0 0 1 2636.69 322)">Heavy</text>
<text style="stroke:none;fill:black;font-family:sans-serif;font-size:13;text-anchor:middle;" transform="matrix(1 0 0 1 2933.4 322)">Black</text>
<line style="fill:none;stroke:black;opacity:1;stroke-width:0.5;" x1="263" x2="3036" y1="1903" y2="1903"/>
<text style="stroke:none;fill:black;font-family:sans-serif;font-size:13;font-weight:bold;" transform="matrix(1 0 0 1 263 1953)">Design Variations</text>
<text style="stroke:none;fill:black;font-family:sans-serif;font-size:13;" transform="matrix(1 0 0 1 263 1971)">Symbols are supported in up to nine weights and three scales.</text>
<text style="stroke:none;fill:black;font-family:sans-serif;font-size:13;" transform="matrix(1 0 0 1 263 1989)">For optimal layout with text and other symbols, vertically align</text>
<text style="stroke:none;fill:black;font-family:sans-serif;font-size:13;" transform="matrix(1 0 0 1 263 2007)">symbols with the adjacent text.</text>
<line style="fill:none;stroke:#00AEEF;stroke-width:0.5;opacity:1.0;" x1="776" x2="776" y1="1919" y2="1933"/>
<text style="stroke:none;fill:black;font-family:sans-serif;font-size:13;font-weight:bold;" transform="matrix(1 0 0 1 776 1953)">Margins</text>
<text style="stroke:none;fill:black;font-family:sans-serif;font-size:13;" transform="matrix(1 0 0 1 776 1971)">Leading and trailing margins on the left and right side of each symbol</text>
<text style="stroke:none;fill:black;font-family:sans-serif;font-size:13;" transform="matrix(1 0 0 1 776 1989)">can be adjusted by modifying the x-location of the margin guidelines.</text>
<text style="stroke:none;fill:black;font-family:sans-serif;font-size:13;" transform="matrix(1 0 0 1 776 2007)">Modifications are automatically applied proportionally to all</text>
<text style="stroke:none;fill:black;font-family:sans-serif;font-size:13;" transform="matrix(1 0 0 1 776 2025)">scales and weights.</text>
<text style="stroke:none;fill:black;font-family:sans-serif;font-size:13;font-weight:bold;" transform="matrix(1 0 0 1 1289 1953)">Exporting</text>
<text style="stroke:none;fill:black;font-family:sans-serif;font-size:13;" transform="matrix(1 0 0 1 1289 1971)">Symbols should be outlined when exporting to ensure the</text>
<text style="stroke:none;fill:black;font-family:sans-serif;font-size:13;" transform="matrix(1 0 0 1 1289 1989)">design is preserved when submitting to Xcode.</text>
<text id="template-version" style="stroke:none;fill:black;font-family:sans-serif;font-size:13;text-anchor:end;" transform="matrix(1 0 0 1 3036 1933)">Template v.5.0</text>
<text style="stroke:none;fill:black;font-family:sans-serif;font-size:13;text-anchor:end;" transform="matrix(1 0 0 1 3036 1951)">Requires Xcode 15 or greater</text>
<text id="descriptive-name" style="stroke:none;fill:black;font-family:sans-serif;font-size:13;text-anchor:end;" transform="matrix(1 0 0 1 3036 1969)">Generated from drymeasure.fill</text>
<text style="stroke:none;fill:black;font-family:sans-serif;font-size:13;text-anchor:end;" transform="matrix(1 0 0 1 3036 1987)">Typeset at 100.0 points</text>
<text style="stroke:none;fill:black;font-family:sans-serif;font-size:13;" transform="matrix(1 0 0 1 263 726)">Small</text>
<text style="stroke:none;fill:black;font-family:sans-serif;font-size:13;" transform="matrix(1 0 0 1 263 1156)">Medium</text>
<text style="stroke:none;fill:black;font-family:sans-serif;font-size:13;" transform="matrix(1 0 0 1 263 1586)">Large</text>
</g>
<g id="Guides">
<g id="H-reference" style="fill:#27AAE1;stroke:none;" transform="matrix(1 0 0 1 339 696)">
 <path d="M0.993654 0L3.63775 0L29.3281-67.1323L30.0303-67.1323L30.0303-70.459L28.1226-70.459ZM11.6885-24.4799L46.9815-24.4799L46.2315-26.7285L12.4385-26.7285ZM55.1196 0L57.7637 0L30.6382-70.459L29.4326-70.459L29.4326-67.1323Z"/>
</g>
<line id="Baseline-S" style="fill:none;stroke:#27AAE1;opacity:1;stroke-width:0.5;" x1="263" x2="3036" y1="696" y2="696"/>
<line id="Capline-S" style="fill:none;stroke:#27AAE1;opacity:1;stroke-width:0.5;" x1="263" x2="3036" y1="625.541" y2="625.541"/>
<g id="H-reference" style="fill:#27AAE1;stroke:none;" transform="matrix(1 0 0 1 339 1126)">
 <path d="M0.993654 0L3.63775 0L29.3281-67.1323L30.0303-67.1323L30.0303-70.459L28.1226-70.459ZM11.6885-24.4799L46.9815-24.4799L46.2315-26.7285L12.4385-26.7285ZM55.1196 0L57.7637 0L30.6382-70.459L29.4326-70.459L29.4326-67.1323Z"/>
</g>
<line id="Baseline-M" style="fill:none;stroke:#27AAE1;opacity:1;stroke-width:0.5;" x1="263" x2="3036" y1="1126" y2="1126"/>
<line id="Capline-M" style="fill:none;stroke:#27AAE1;opacity:1;stroke-width:0.5;" x1="263" x2="3036" y1="1055.54" y2="1055.54"/>
<g id="H-reference" style="fill:#27AAE1;stroke:none;" transform="matrix(1 0 0 1 339 1556)">
 <path d="M0.993654 0L3.63775 0L29.3281-67.1323L30.0303-67.1323L30.0303-70.459L28.1226-70.459ZM11.6885-24.4799L46.9815-24.4799L46.2315-26.7285L12.4385-26.7285ZM55.1196 0L57.7637 0L30.6382-70.459L29.4326-70.459L29.4326-67.1323Z"/>
</g>
<line id="Baseline-L" style="fill:none;stroke:#27AAE1;opacity:1;stroke-width:0.5;" x1="263" x2="3036" y1="1556" y2="1556"/>
<line id="Capline-L" style="fill:none;stroke:#27AAE1;opacity:1;stroke-width:0.5;" x1="263" x2="3036" y1="1485.54" y2="1485.54"/>
<line id="left-margin-Ultralight-S" style="fill:none;stroke:#00AEEF;stroke-width:0.5;opacity:1.0;" x1="513.711" x2="513.711" y1="600.785" y2="720.121"/>
<line id="right-margin-Ultralight-S" style="fill:none;stroke:#00AEEF;stroke-width:0.5;opacity:1.0;" x1="605.711" x2="605.711" y1="600.785" y2="720.121"/>
<line id="left-margin-Regular-S" style="fill:none;stroke:#00AEEF;stroke-width:0.5;opacity:1.0;" x1="1403.84" x2="1403.84" y1="600.785" y2="720.121"/>
<line id="right-margin-Regular-S" style="fill:none;stroke:#00AEEF;stroke-width:0.5;opacity:1.0;" x1="1495.84" x2="1495.84" y1="600.785" y2="720.121"/>
<line id="left-margin-Black-S" style="fill:none;stroke:#00AEEF;stroke-width:0.5;opacity:1.0;" x1="2887.4" x2="2887.4" y1="600.785" y2="720.121"/>
<line id="right-margin-Black-S" style="fill:none;stroke:#00AEEF;stroke-width:0.5;opacity:1.0;" x1="2979.4" x2="2979.4" y1="600.785" y2="720.121"/>
</g>
<g id="Symbols">
<g id="Ultralight-S" transform="matrix(1 0 0 1 513.711 614.7705)">
<svg width="92" height="92" viewBox="0 0 92 92" fill="none" xmlns="http://www.w3.org/2000/svg">
<g id="drymeasure.fill" clip-path="url(#clip0_28_166)">
<g id="Union" filter="url(#filter0_d_28_166)">
<path fill-rule="evenodd" clip-rule="evenodd" d="M81.9732 7.8651C85.717 7.294 88.569 7.78487 90.4023 9.44377L90.4889 9.52379L90.5153 9.54862L90.5396 9.57547C91.2151 10.3218 91.7346 11.186 91.916 12.1762C92.1003 13.1818 91.919 14.226 91.3479 15.2852C90.2393 17.3414 87.6276 19.5206 83.0893 21.9362L83.0735 21.9446L59.0856 33.52C60.463 35.2832 61.2488 37.2395 61.2488 39.3393V68.6705L61.2481 68.7778C61.1902 73.3153 57.462 77.1758 52.0344 79.8546C46.5058 82.5833 38.9335 84.2461 30.6244 84.2461C22.3153 84.2461 14.7431 82.5833 9.21453 79.8546C3.74416 77.1547 1.52588e-05 73.2545 1.52588e-05 68.6705V39.3393C1.52588e-05 36.2471 1.7178 33.4576 4.47764 31.1648C7.23953 28.8703 11.1236 26.9994 15.6914 25.7139C20.1105 24.4705 25.2073 23.7639 30.6244 23.7639C35.2715 23.7639 39.6882 24.2841 43.6457 25.2199C43.6578 25.213 43.67 25.2063 43.6824 25.1999L66.9753 13.1885L66.9849 13.1837C73.1973 10.1657 78.1485 8.44855 81.9732 7.8651ZM30.6244 25.5834C25.3608 25.5835 20.4309 26.2706 16.1844 27.4654C11.7793 28.7052 8.14926 30.48 5.64034 32.5643C3.12938 34.6504 1.81961 36.9732 1.81961 39.3393C1.81963 42.8496 4.73276 46.2824 10.0197 48.8918C15.2484 51.4724 22.5337 53.0953 30.6244 53.0953C32.958 53.0953 35.2268 52.9603 37.4001 52.7056C43.8497 51.9496 49.4218 50.1444 53.3526 47.7216C57.3103 45.2823 59.4292 42.34 59.4292 39.3393C59.4292 35.8291 56.516 32.3964 51.2291 29.787C46.0004 27.2064 38.7152 25.5835 30.6244 25.5834Z" fill="black"/>
<path fill-rule="evenodd" clip-rule="evenodd" d="M81.9732 7.8651C85.717 7.294 88.569 7.78487 90.4023 9.44377L90.4889 9.52379L90.5153 9.54862L90.5396 9.57547C91.2151 10.3218 91.7346 11.186 91.916 12.1762C92.1003 13.1818 91.919 14.226 91.3479 15.2852C90.2393 17.3414 87.6276 19.5206 83.0893 21.9362L83.0735 21.9446L59.0856 33.52C60.463 35.2832 61.2488 37.2395 61.2488 39.3393V68.6705L61.2481 68.7778C61.1902 73.3153 57.462 77.1758 52.0344 79.8546C46.5058 82.5833 38.9335 84.2461 30.6244 84.2461C22.3153 84.2461 14.7431 82.5833 9.21453 79.8546C3.74416 77.1547 1.52588e-05 73.2545 1.52588e-05 68.6705V39.3393C1.52588e-05 36.2471 1.7178 33.4576 4.47764 31.1648C7.23953 28.8703 11.1236 26.9994 15.6914 25.7139C20.1105 24.4705 25.2073 23.7639 30.6244 23.7639C35.2715 23.7639 39.6882 24.2841 43.6457 25.2199C43.6578 25.213 43.67 25.2063 43.6824 25.1999L66.9753 13.1885L66.9849 13.1837C73.1973 10.1657 78.1485 8.44855 81.9732 7.8651ZM30.6244 25.5834C25.3608 25.5835 20.4309 26.2706 16.1844 27.4654C11.7793 28.7052 8.14926 30.48 5.64034 32.5643C3.12938 34.6504 1.81961 36.9732 1.81961 39.3393C1.81963 42.8496 4.73276 46.2824 10.0197 48.8918C15.2484 51.4724 22.5337 53.0953 30.6244 53.0953C32.958 53.0953 35.2268 52.9603 37.4001 52.7056C43.8497 51.9496 49.4218 50.1444 53.3526 47.7216C57.3103 45.2823 59.4292 42.34 59.4292 39.3393C59.4292 35.8291 56.516 32.3964 51.2291 29.787C46.0004 27.2064 38.7152 25.5835 30.6244 25.5834Z" fill="black" fill-opacity="0.2"/>
</g>
</g>
<defs>
<filter id="filter0_d_28_166" x="-3.99998" y="7.63678" width="99.9853" height="84.6093" filterUnits="userSpaceOnUse" color-interpolation-filters="sRGB">
<feFlood flood-opacity="0" result="BackgroundImageFix"/>
<feColorMatrix in="SourceAlpha" type="matrix" values="0 0 0 0 0 0 0 0 0 0 0 0 0 0 0 0 0 0 127 0" result="hardAlpha"/>
<feOffset dy="4"/>
<feGaussianBlur stdDeviation="2"/>
<feComposite in2="hardAlpha" operator="out"/>
<feColorMatrix type="matrix" values="0 0 0 0 0 0 0 0 0 0 0 0 0 0 0 0 0 0 0.25 0"/>
<feBlend mode="normal" in2="BackgroundImageFix" result="effect1_dropShadow_28_166"/>
<feBlend mode="normal" in="SourceGraphic" in2="effect1_dropShadow_28_166" result="shape"/>
</filter>
<clipPath id="clip0_28_166">
<rect width="92" height="92" fill="white"/>
</clipPath>
</defs>
</svg>

</g>
<g id="Regular-S" transform="matrix(1 0 0 1 1403.84 614.7705)">
<svg width="92" height="92" viewBox="0 0 92 92" fill="none" xmlns="http://www.w3.org/2000/svg">
<g id="drymeasure.fill" clip-path="url(#clip0_28_166)">
<g id="Union" filter="url(#filter0_d_28_166)">
<path fill-rule="evenodd" clip-rule="evenodd" d="M81.9732 7.8651C85.717 7.294 88.569 7.78487 90.4023 9.44377L90.4889 9.52379L90.5153 9.54862L90.5396 9.57547C91.2151 10.3218 91.7346 11.186 91.916 12.1762C92.1003 13.1818 91.919 14.226 91.3479 15.2852C90.2393 17.3414 87.6276 19.5206 83.0893 21.9362L83.0735 21.9446L59.0856 33.52C60.463 35.2832 61.2488 37.2395 61.2488 39.3393V68.6705L61.2481 68.7778C61.1902 73.3153 57.462 77.1758 52.0344 79.8546C46.5058 82.5833 38.9335 84.2461 30.6244 84.2461C22.3153 84.2461 14.7431 82.5833 9.21453 79.8546C3.74416 77.1547 1.52588e-05 73.2545 1.52588e-05 68.6705V39.3393C1.52588e-05 36.2471 1.7178 33.4576 4.47764 31.1648C7.23953 28.8703 11.1236 26.9994 15.6914 25.7139C20.1105 24.4705 25.2073 23.7639 30.6244 23.7639C35.2715 23.7639 39.6882 24.2841 43.6457 25.2199C43.6578 25.213 43.67 25.2063 43.6824 25.1999L66.9753 13.1885L66.9849 13.1837C73.1973 10.1657 78.1485 8.44855 81.9732 7.8651ZM30.6244 25.5834C25.3608 25.5835 20.4309 26.2706 16.1844 27.4654C11.7793 28.7052 8.14926 30.48 5.64034 32.5643C3.12938 34.6504 1.81961 36.9732 1.81961 39.3393C1.81963 42.8496 4.73276 46.2824 10.0197 48.8918C15.2484 51.4724 22.5337 53.0953 30.6244 53.0953C32.958 53.0953 35.2268 52.9603 37.4001 52.7056C43.8497 51.9496 49.4218 50.1444 53.3526 47.7216C57.3103 45.2823 59.4292 42.34 59.4292 39.3393C59.4292 35.8291 56.516 32.3964 51.2291 29.787C46.0004 27.2064 38.7152 25.5835 30.6244 25.5834Z" fill="black"/>
<path fill-rule="evenodd" clip-rule="evenodd" d="M81.9732 7.8651C85.717 7.294 88.569 7.78487 90.4023 9.44377L90.4889 9.52379L90.5153 9.54862L90.5396 9.57547C91.2151 10.3218 91.7346 11.186 91.916 12.1762C92.1003 13.1818 91.919 14.226 91.3479 15.2852C90.2393 17.3414 87.6276 19.5206 83.0893 21.9362L83.0735 21.9446L59.0856 33.52C60.463 35.2832 61.2488 37.2395 61.2488 39.3393V68.6705L61.2481 68.7778C61.1902 73.3153 57.462 77.1758 52.0344 79.8546C46.5058 82.5833 38.9335 84.2461 30.6244 84.2461C22.3153 84.2461 14.7431 82.5833 9.21453 79.8546C3.74416 77.1547 1.52588e-05 73.2545 1.52588e-05 68.6705V39.3393C1.52588e-05 36.2471 1.7178 33.4576 4.47764 31.1648C7.23953 28.8703 11.1236 26.9994 15.6914 25.7139C20.1105 24.4705 25.2073 23.7639 30.6244 23.7639C35.2715 23.7639 39.6882 24.2841 43.6457 25.2199C43.6578 25.213 43.67 25.2063 43.6824 25.1999L66.9753 13.1885L66.9849 13.1837C73.1973 10.1657 78.1485 8.44855 81.9732 7.8651ZM30.6244 25.5834C25.3608 25.5835 20.4309 26.2706 16.1844 27.4654C11.7793 28.7052 8.14926 30.48 5.64034 32.5643C3.12938 34.6504 1.81961 36.9732 1.81961 39.3393C1.81963 42.8496 4.73276 46.2824 10.0197 48.8918C15.2484 51.4724 22.5337 53.0953 30.6244 53.0953C32.958 53.0953 35.2268 52.9603 37.4001 52.7056C43.8497 51.9496 49.4218 50.1444 53.3526 47.7216C57.3103 45.2823 59.4292 42.34 59.4292 39.3393C59.4292 35.8291 56.516 32.3964 51.2291 29.787C46.0004 27.2064 38.7152 25.5835 30.6244 25.5834Z" fill="black" fill-opacity="0.2"/>
</g>
</g>
<defs>
<filter id="filter0_d_28_166" x="-3.99998" y="7.63678" width="99.9853" height="84.6093" filterUnits="userSpaceOnUse" color-interpolation-filters="sRGB">
<feFlood flood-opacity="0" result="BackgroundImageFix"/>
<feColorMatrix in="SourceAlpha" type="matrix" values="0 0 0 0 0 0 0 0 0 0 0 0 0 0 0 0 0 0 127 0" result="hardAlpha"/>
<feOffset dy="4"/>
<feGaussianBlur stdDeviation="2"/>
<feComposite in2="hardAlpha" operator="out"/>
<feColorMatrix type="matrix" values="0 0 0 0 0 0 0 0 0 0 0 0 0 0 0 0 0 0 0.25 0"/>
<feBlend mode="normal" in2="BackgroundImageFix" result="effect1_dropShadow_28_166"/>
<feBlend mode="normal" in="SourceGraphic" in2="effect1_dropShadow_28_166" result="shape"/>
</filter>
<clipPath id="clip0_28_166">
<rect width="92" height="92" fill="white"/>
</clipPath>
</defs>
</svg>

</g>
<g id="Black-S" transform="matrix(1 0 0 1 2887.4 614.7705)">
<svg width="92" height="92" viewBox="0 0 92 92" fill="none" xmlns="http://www.w3.org/2000/svg">
<g id="drymeasure.fill" clip-path="url(#clip0_28_166)">
<g id="Union" filter="url(#filter0_d_28_166)">
<path fill-rule="evenodd" clip-rule="evenodd" d="M81.9732 7.8651C85.717 7.294 88.569 7.78487 90.4023 9.44377L90.4889 9.52379L90.5153 9.54862L90.5396 9.57547C91.2151 10.3218 91.7346 11.186 91.916 12.1762C92.1003 13.1818 91.919 14.226 91.3479 15.2852C90.2393 17.3414 87.6276 19.5206 83.0893 21.9362L83.0735 21.9446L59.0856 33.52C60.463 35.2832 61.2488 37.2395 61.2488 39.3393V68.6705L61.2481 68.7778C61.1902 73.3153 57.462 77.1758 52.0344 79.8546C46.5058 82.5833 38.9335 84.2461 30.6244 84.2461C22.3153 84.2461 14.7431 82.5833 9.21453 79.8546C3.74416 77.1547 1.52588e-05 73.2545 1.52588e-05 68.6705V39.3393C1.52588e-05 36.2471 1.7178 33.4576 4.47764 31.1648C7.23953 28.8703 11.1236 26.9994 15.6914 25.7139C20.1105 24.4705 25.2073 23.7639 30.6244 23.7639C35.2715 23.7639 39.6882 24.2841 43.6457 25.2199C43.6578 25.213 43.67 25.2063 43.6824 25.1999L66.9753 13.1885L66.9849 13.1837C73.1973 10.1657 78.1485 8.44855 81.9732 7.8651ZM30.6244 25.5834C25.3608 25.5835 20.4309 26.2706 16.1844 27.4654C11.7793 28.7052 8.14926 30.48 5.64034 32.5643C3.12938 34.6504 1.81961 36.9732 1.81961 39.3393C1.81963 42.8496 4.73276 46.2824 10.0197 48.8918C15.2484 51.4724 22.5337 53.0953 30.6244 53.0953C32.958 53.0953 35.2268 52.9603 37.4001 52.7056C43.8497 51.9496 49.4218 50.1444 53.3526 47.7216C57.3103 45.2823 59.4292 42.34 59.4292 39.3393C59.4292 35.8291 56.516 32.3964 51.2291 29.787C46.0004 27.2064 38.7152 25.5835 30.6244 25.5834Z" fill="black"/>
<path fill-rule="evenodd" clip-rule="evenodd" d="M81.9732 7.8651C85.717 7.294 88.569 7.78487 90.4023 9.44377L90.4889 9.52379L90.5153 9.54862L90.5396 9.57547C91.2151 10.3218 91.7346 11.186 91.916 12.1762C92.1003 13.1818 91.919 14.226 91.3479 15.2852C90.2393 17.3414 87.6276 19.5206 83.0893 21.9362L83.0735 21.9446L59.0856 33.52C60.463 35.2832 61.2488 37.2395 61.2488 39.3393V68.6705L61.2481 68.7778C61.1902 73.3153 57.462 77.1758 52.0344 79.8546C46.5058 82.5833 38.9335 84.2461 30.6244 84.2461C22.3153 84.2461 14.7431 82.5833 9.21453 79.8546C3.74416 77.1547 1.52588e-05 73.2545 1.52588e-05 68.6705V39.3393C1.52588e-05 36.2471 1.7178 33.4576 4.47764 31.1648C7.23953 28.8703 11.1236 26.9994 15.6914 25.7139C20.1105 24.4705 25.2073 23.7639 30.6244 23.7639C35.2715 23.7639 39.6882 24.2841 43.6457 25.2199C43.6578 25.213 43.67 25.2063 43.6824 25.1999L66.9753 13.1885L66.9849 13.1837C73.1973 10.1657 78.1485 8.44855 81.9732 7.8651ZM30.6244 25.5834C25.3608 25.5835 20.4309 26.2706 16.1844 27.4654C11.7793 28.7052 8.14926 30.48 5.64034 32.5643C3.12938 34.6504 1.81961 36.9732 1.81961 39.3393C1.81963 42.8496 4.73276 46.2824 10.0197 48.8918C15.2484 51.4724 22.5337 53.0953 30.6244 53.0953C32.958 53.0953 35.2268 52.9603 37.4001 52.7056C43.8497 51.9496 49.4218 50.1444 53.3526 47.7216C57.3103 45.2823 59.4292 42.34 59.4292 39.3393C59.4292 35.8291 56.516 32.3964 51.2291 29.787C46.0004 27.2064 38.7152 25.5835 30.6244 25.5834Z" fill="black" fill-opacity="0.2"/>
</g>
</g>
<defs>
<filter id="filter0_d_28_166" x="-3.99998" y="7.63678" width="99.9853" height="84.6093" filterUnits="userSpaceOnUse" color-interpolation-filters="sRGB">
<feFlood flood-opacity="0" result="BackgroundImageFix"/>
<feColorMatrix in="SourceAlpha" type="matrix" values="0 0 0 0 0 0 0 0 0 0 0 0 0 0 0 0 0 0 127 0" result="hardAlpha"/>
<feOffset dy="4"/>
<feGaussianBlur stdDeviation="2"/>
<feComposite in2="hardAlpha" operator="out"/>
<feColorMatrix type="matrix" values="0 0 0 0 0 0 0 0 0 0 0 0 0 0 0 0 0 0 0.25 0"/>
<feBlend mode="normal" in2="BackgroundImageFix" result="effect1_dropShadow_28_166"/>
<feBlend mode="normal" in="SourceGraphic" in2="effect1_dropShadow_28_166" result="shape"/>
</filter>
<clipPath id="clip0_28_166">
<rect width="92" height="92" fill="white"/>
</clipPath>
</defs>
</svg>

</g>
</g>
</svg>