<?xml version="1.0" encoding="UTF-8"?>
<!--Generator: Apple Native CoreSVG 341-->
<!DOCTYPE svg
PUBLIC "-//W3C//DTD SVG 1.1//EN"
       "http://www.w3.org/Graphics/SVG/1.1/DTD/svg11.dtd">
<svg version="1.1" xmlns="http://www.w3.org/2000/svg" xmlns:xlink="http://www.w3.org/1999/xlink" viewBox="0 0 3300 2200">
 <!--glyph: "", point size: 100.0, font version: "21.0d6e2", template writer version: "138.0.0"-->
 <style>.defaults {-sfsymbols-variable-value-mode:color;-sfsymbols-draw-reverses-motion-groups:true}

.monochrome-0 {-sfsymbols-motion-group:0;-sfsymbols-layer-tags:-d82954dd22f7c02}

.multicolor-0:tintColor {-sfsymbols-motion-group:0;-sfsymbols-layer-tags:-d82954dd22f7c02}

.hierarchical-0:primary {-sfsymbols-motion-group:0;-sfsymbols-layer-tags:-d82954dd22f7c02}

.SFSymbolsPreviewWireframe {fill:none;opacity:1.0;stroke:black;stroke-width:0.5}
</style>
 <g id="Notes">
  <rect height="2200" id="artboard" style="fill:white;opacity:1" width="3300" x="0" y="0"/>
  <line style="fill:none;stroke:black;opacity:1;stroke-width:0.5;" x1="263" x2="3036" y1="292" y2="292"/>
  <text style="stroke:none;fill:black;font-family:sans-serif;font-size:13;font-weight:bold;" transform="matrix(1 0 0 1 263 322)">Weight/Scale Variations</text>
  <text style="stroke:none;fill:black;font-family:sans-serif;font-size:13;text-anchor:middle;" transform="matrix(1 0 0 1 559.711 322)">Ultralight</text>
  <text style="stroke:none;fill:black;font-family:sans-serif;font-size:13;text-anchor:middle;" transform="matrix(1 0 0 1 856.422 322)">Thin</text>
  <text style="stroke:none;fill:black;font-family:sans-serif;font-size:13;text-anchor:middle;" transform="matrix(1 0 0 1 1153.13 322)">Light</text>
  <text style="stroke:none;fill:black;font-family:sans-serif;font-size:13;text-anchor:middle;" transform="matrix(1 0 0 1 1449.84 322)">Regular</text>
  <text style="stroke:none;fill:black;font-family:sans-serif;font-size:13;text-anchor:middle;" transform="matrix(1 0 0 1 1746.56 322)">Medium</text>
  <text style="stroke:none;fill:black;font-family:sans-serif;font-size:13;text-anchor:middle;" transform="matrix(1 0 0 1 2043.27 322)">Semibold</text>
  <text style="stroke:none;fill:black;font-family:sans-serif;font-size:13;text-anchor:middle;" transform="matrix(1 0 0 1 2339.98 322)">Bold</text>
  <text style="stroke:none;fill:black;font-family:sans-serif;font-size:13;text-anchor:middle;" transform="matrix(1 0 0 1 2636.69 322)">Heavy</text>
  <text style="stroke:none;fill:black;font-family:sans-serif;font-size:13;text-anchor:middle;" transform="matrix(1 0 0 1 2933.4 322)">Black</text>
  <line style="fill:none;stroke:black;opacity:1;stroke-width:0.5;" x1="263" x2="3036" y1="1903" y2="1903"/>
  <g transform="matrix(0.2 0 0 0.2 263 1933)">
   <path d="m46.2402 4.15039c21.7773 0 39.4531-17.627 39.4531-39.4043s-17.6758-39.4043-39.4531-39.4043c-21.7285 0-39.4043 17.627-39.4043 39.4043s17.6758 39.4043 39.4043 39.4043Zm0-7.42188c-17.6758 0-31.9336-14.3066-31.9336-31.9824s14.2578-31.9824 31.9336-31.9824 31.9824 14.3066 31.9824 31.9824-14.3066 31.9824-31.9824 31.9824Zm3.61328-17.7734v-28.4668c0-2.24609-1.46484-3.75977-3.71094-3.75977-2.14844 0-3.61328 1.51367-3.61328 3.75977v28.4668c0 2.19727 1.46484 3.71094 3.61328 3.71094 2.24609 0 3.71094-1.51367 3.71094-3.71094Zm-17.8223-10.5957h28.418c2.19727 0 3.71094-1.46484 3.71094-3.61328 0-2.19727-1.51367-3.71094-3.71094-3.71094h-28.418c-2.24609 0-3.75977 1.51367-3.75977 3.71094 0 2.14844 1.51367 3.61328 3.75977 3.61328Z"/>
  </g>
  <g transform="matrix(0.2 0 0 0.2 281.506 1933)">
   <path d="m58.5449 14.5508c27.4902 0 49.8047-22.3145 49.8047-49.8047s-22.3145-49.8047-49.8047-49.8047-49.8047 22.3145-49.8047 49.8047 22.3145 49.8047 49.8047 49.8047Zm0-8.30078c-22.9492 0-41.5039-18.5547-41.5039-41.5039s18.5547-41.5039 41.5039-41.5039 41.5039 18.5547 41.5039 41.5039-18.5547 41.5039-41.5039 41.5039Zm4.05273-23.0957v-36.9141c0-2.49023-1.70898-4.19922-4.15039-4.19922-2.39258 0-4.05273 1.70898-4.05273 4.19922v36.9141c0 2.44141 1.66016 4.15039 4.05273 4.15039 2.44141 0 4.15039-1.66016 4.15039-4.15039Zm-22.5586-14.4043h36.9629c2.44141 0 4.15039-1.61133 4.15039-4.00391 0-2.44141-1.70898-4.15039-4.15039-4.15039h-36.9629c-2.49023 0-4.15039 1.70898-4.15039 4.15039 0 2.39258 1.66016 4.00391 4.15039 4.00391Z"/>
  </g>
  <g transform="matrix(0.2 0 0 0.2 304.924 1933)">
   <path d="m74.8535 28.3203c35.1074 0 63.623-28.4668 63.623-63.5742s-28.5156-63.623-63.623-63.623-63.5742 28.5156-63.5742 63.623 28.4668 63.5742 63.5742 63.5742Zm0-9.08203c-30.127 0-54.4922-24.3652-54.4922-54.4922s24.3652-54.4922 54.4922-54.4922 54.4922 24.3652 54.4922 54.4922-24.3652 54.4922-54.4922 54.4922Zm4.44336-30.3223v-48.4863c0-2.73438-1.85547-4.63867-4.54102-4.63867-2.58789 0-4.44336 1.9043-4.44336 4.63867v48.4863c0 2.68555 1.85547 4.58984 4.44336 4.58984 2.68555 0 4.54102-1.85547 4.54102-4.58984Zm-28.7109-19.7754h48.4863c2.68555 0 4.58984-1.80664 4.58984-4.39453 0-2.73438-1.85547-4.58984-4.58984-4.58984h-48.4863c-2.73438 0-4.58984 1.85547-4.58984 4.58984 0 2.58789 1.85547 4.39453 4.58984 4.39453Z"/>
  </g>
  <text style="stroke:none;fill:black;font-family:sans-serif;font-size:13;font-weight:bold;" transform="matrix(1 0 0 1 263 1953)">Design Variations</text>
  <text style="stroke:none;fill:black;font-family:sans-serif;font-size:13;" transform="matrix(1 0 0 1 263 1971)">Symbols are supported in up to nine weights and three scales.</text>
  <text style="stroke:none;fill:black;font-family:sans-serif;font-size:13;" transform="matrix(1 0 0 1 263 1989)">For optimal layout with text and other symbols, vertically align</text>
  <text style="stroke:none;fill:black;font-family:sans-serif;font-size:13;" transform="matrix(1 0 0 1 263 2007)">symbols with the adjacent text.</text>
  <line style="fill:none;stroke:#00AEEF;stroke-width:0.5;opacity:1.0;" x1="776" x2="776" y1="1919" y2="1933"/>
  <g transform="matrix(0.2 0 0 0.2 776 1933)">
   <path d="m16.5527 0.78125c2.58789 0 3.85742-0.976562 4.78516-3.71094l20.5566-57.5195h0.244141l20.6055 57.5195c0.927734 2.73438 2.19727 3.71094 4.73633 3.71094 2.58789 0 4.24805-1.5625 4.24805-4.00391 0-0.830078-0.146484-1.61133-0.537109-2.63672l-22.9004-60.9863c-1.12305-2.97852-3.125-4.49219-6.25-4.49219-3.02734 0-5.07812 1.46484-6.15234 4.44336l-22.9004 61.084c-0.390625 1.02539-0.537109 1.80664-0.537109 2.63672 0 2.44141 1.5625 3.95508 4.10156 3.95508Zm10.2051-20.9473h30.6641c2.00195 0 3.66211-1.66016 3.66211-3.66211 0-2.05078-1.66016-3.66211-3.66211-3.66211h-30.6641c-2.00195 0-3.66211 1.61133-3.66211 3.66211 0 2.00195 1.66016 3.66211 3.66211 3.66211Z"/>
  </g>
  <line style="fill:none;stroke:#00AEEF;stroke-width:0.5;opacity:1.0;" x1="792.836" x2="792.836" y1="1919" y2="1933"/>
  <text style="stroke:none;fill:black;font-family:sans-serif;font-size:13;font-weight:bold;" transform="matrix(1 0 0 1 776 1953)">Margins</text>
  <text style="stroke:none;fill:black;font-family:sans-serif;font-size:13;" transform="matrix(1 0 0 1 776 1971)">Leading and trailing margins on the left and right side of each symbol</text>
  <text style="stroke:none;fill:black;font-family:sans-serif;font-size:13;" transform="matrix(1 0 0 1 776 1989)">can be adjusted by modifying the x-location of the margin guidelines.</text>
  <text style="stroke:none;fill:black;font-family:sans-serif;font-size:13;" transform="matrix(1 0 0 1 776 2007)">Modifications are automatically applied proportionally to all</text>
  <text style="stroke:none;fill:black;font-family:sans-serif;font-size:13;" transform="matrix(1 0 0 1 776 2025)">scales and weights.</text>
  <g transform="matrix(0.2 0 0 0.2 1289 1933)">
   <path d="m14.209 13.1348 7.86133 7.86133c4.29688 4.39453 9.32617 4.10156 13.8672-1.02539l60.6934-68.2129-4.88281-4.88281-60.2539 67.6758c-1.80664 1.95312-3.4668 2.44141-5.81055 0.0976562l-5.17578-5.12695c-2.29492-2.29492-1.80664-3.95508 0.195312-5.81055l67.4805-62.1582-4.88281-4.83398-68.0664 62.5977c-4.98047 4.58984-5.32227 9.47266-1.02539 13.8184Zm44.873-97.4609c-2.05078 2.00195-2.24609 4.88281-1.07422 6.78711 1.12305 1.80664 3.4668 3.02734 6.5918 2.24609 5.85938-1.66016 12.5977-2.39258 18.8965 0.927734l-2.68555 7.12891c-1.61133 4.00391-0.732422 6.88477 1.70898 9.42383l10.2539 10.3027c2.34375 2.39258 4.54102 2.44141 7.08008 1.95312l4.44336-0.732422 2.58789 2.53906-0.195312 2.24609c-0.0976562 2.29492 0.537109 4.29688 2.7832 6.49414l3.36914 3.32031c2.29492 2.29492 5.51758 2.49023 7.8125 0.195312l12.9883-13.0371c2.29492-2.34375 2.14844-5.37109-0.195312-7.66602l-3.41797-3.41797c-2.19727-2.19727-4.05273-3.02734-6.34766-2.88086l-2.34375 0.244141-2.44141-2.44141 1.02539-4.6875c0.634766-2.73438-0.244141-4.98047-2.88086-7.61719l-11.2793-11.1816c-12.9395-12.8418-35.5957-11.0352-46.6797-0.146484Zm7.08008 2.05078c8.78906-6.39648 25.9766-5.66406 33.6914 1.95312l12.3047 12.207c1.02539 1.02539 1.2207 1.80664 0.927734 3.32031l-1.46484 6.64062 6.73828 6.68945 4.39453-0.244141c1.12305-0.0488281 1.51367 0.0488281 2.34375 0.878906l2.53906 2.49023-10.8398 10.8398-2.49023-2.49023c-0.830078-0.878906-0.976562-1.2207-0.927734-2.39258l0.292969-4.3457-6.68945-6.73828-6.83594 1.17188c-1.41602 0.292969-2.05078 0.195312-3.17383-0.878906l-8.93555-8.88672c-1.07422-1.02539-1.17188-1.70898-0.488281-3.36914l4.58984-11.4746c-6.10352-6.34766-17.041-7.51953-25.5859-4.58984-0.683594 0.244141-0.927734-0.390625-0.390625-0.78125Z"/>
  </g>
  <text style="stroke:none;fill:black;font-family:sans-serif;font-size:13;font-weight:bold;" transform="matrix(1 0 0 1 1289 1953)">Exporting</text>
  <text style="stroke:none;fill:black;font-family:sans-serif;font-size:13;" transform="matrix(1 0 0 1 1289 1971)">Symbols should be outlined when exporting to ensure the</text>
  <text style="stroke:none;fill:black;font-family:sans-serif;font-size:13;" transform="matrix(1 0 0 1 1289 1989)">design is preserved when submitting to Xcode.</text>
  <text id="template-version" style="stroke:none;fill:black;font-family:sans-serif;font-size:13;text-anchor:end;" transform="matrix(1 0 0 1 3036 1933)">Template v.7.0</text>
  <text style="stroke:none;fill:black;font-family:sans-serif;font-size:13;text-anchor:end;" transform="matrix(1 0 0 1 3036 1951)">Requires Xcode 17 or greater</text>
  <text id="descriptive-name" style="stroke:none;fill:black;font-family:sans-serif;font-size:13;text-anchor:end;" transform="matrix(1 0 0 1 3036 1969)">Generated from weights.small</text>
  <text style="stroke:none;fill:black;font-family:sans-serif;font-size:13;text-anchor:end;" transform="matrix(1 0 0 1 3036 1987)">Typeset at 100.0 points</text>
  <text style="stroke:none;fill:black;font-family:sans-serif;font-size:13;" transform="matrix(1 0 0 1 263 726)">Small</text>
  <text style="stroke:none;fill:black;font-family:sans-serif;font-size:13;" transform="matrix(1 0 0 1 263 1156)">Medium</text>
  <text style="stroke:none;fill:black;font-family:sans-serif;font-size:13;" transform="matrix(1 0 0 1 263 1586)">Large</text>
 </g>
 <g id="Guides">
  <g id="H-reference" style="fill:#27AAE1;stroke:none;" transform="matrix(1 0 0 1 339 696)">
   <path d="M0.993654 0L3.63775 0L29.3281-67.1323L30.0303-67.1323L30.0303-70.459L28.1226-70.459ZM11.6885-24.4799L46.9815-24.4799L46.2315-26.7285L12.4385-26.7285ZM55.1196 0L57.7637 0L30.6382-70.459L29.4326-70.459L29.4326-67.1323Z"/>
  </g>
  <line id="Baseline-S" style="fill:none;stroke:#27AAE1;opacity:1;stroke-width:0.5;" x1="263" x2="3036" y1="696" y2="696"/>
  <line id="Capline-S" style="fill:none;stroke:#27AAE1;opacity:1;stroke-width:0.5;" x1="263" x2="3036" y1="625.541" y2="625.541"/>
  <g id="H-reference" style="fill:#27AAE1;stroke:none;" transform="matrix(1 0 0 1 339 1126)">
   <path d="M0.993654 0L3.63775 0L29.3281-67.1323L30.0303-67.1323L30.0303-70.459L28.1226-70.459ZM11.6885-24.4799L46.9815-24.4799L46.2315-26.7285L12.4385-26.7285ZM55.1196 0L57.7637 0L30.6382-70.459L29.4326-70.459L29.4326-67.1323Z"/>
  </g>
  <line id="Baseline-M" style="fill:none;stroke:#27AAE1;opacity:1;stroke-width:0.5;" x1="263" x2="3036" y1="1126" y2="1126"/>
  <line id="Capline-M" style="fill:none;stroke:#27AAE1;opacity:1;stroke-width:0.5;" x1="263" x2="3036" y1="1055.54" y2="1055.54"/>
  <g id="H-reference" style="fill:#27AAE1;stroke:none;" transform="matrix(1 0 0 1 339 1556)">
   <path d="M0.993654 0L3.63775 0L29.3281-67.1323L30.0303-67.1323L30.0303-70.459L28.1226-70.459ZM11.6885-24.4799L46.9815-24.4799L46.2315-26.7285L12.4385-26.7285ZM55.1196 0L57.7637 0L30.6382-70.459L29.4326-70.459L29.4326-67.1323Z"/>
  </g>
  <line id="Baseline-L" style="fill:none;stroke:#27AAE1;opacity:1;stroke-width:0.5;" x1="263" x2="3036" y1="1556" y2="1556"/>
  <line id="Capline-L" style="fill:none;stroke:#27AAE1;opacity:1;stroke-width:0.5;" x1="263" x2="3036" y1="1485.54" y2="1485.54"/>
  <line id="right-margin-Black-S" style="fill:none;stroke:#00AEEF;stroke-width:0.5;opacity:1.0;" x1="2979.4" x2="2979.4" y1="600.785" y2="720.121"/>
  <line id="left-margin-Black-S" style="fill:none;stroke:#00AEEF;stroke-width:0.5;opacity:1.0;" x1="2887.4" x2="2887.4" y1="600.785" y2="720.121"/>
  <line id="right-margin-Regular-S" style="fill:none;stroke:#00AEEF;stroke-width:0.5;opacity:1.0;" x1="1495.84" x2="1495.84" y1="600.785" y2="720.121"/>
  <line id="left-margin-Regular-S" style="fill:none;stroke:#00AEEF;stroke-width:0.5;opacity:1.0;" x1="1403.84" x2="1403.84" y1="600.785" y2="720.121"/>
  <line id="right-margin-Ultralight-S" style="fill:none;stroke:#00AEEF;stroke-width:0.5;opacity:1.0;" x1="605.711" x2="605.711" y1="600.785" y2="720.121"/>
  <line id="left-margin-Ultralight-S" style="fill:none;stroke:#00AEEF;stroke-width:0.5;opacity:1.0;" x1="513.711" x2="513.711" y1="600.785" y2="720.121"/>
 </g>
 <g id="Symbols">
  <g id="Black-S" transform="matrix(1 0 0 1 2887.4 696)">
   <path class="monochrome-0 multicolor-0:tintColor hierarchical-0:primary SFSymbolsPreviewWireframe" d="M18.3191-6.0303C16.5941-6.237 15.6598-6.7042 15.1117-7.6385L14.8691-8.0518L14.8691-17.4225L15.1387-17.8088C15.4801-18.294 15.8215-18.4917 16.684-18.7163C17.4656-18.9139 17.9508-19.1385 18.4539-19.5338C19.0828-20.028 19.4691-20.8366 19.2445-21.187C19.2086-21.2409 18.8941-21.4026 18.5527-21.5374C17.7172-21.8788 16.9895-22.5796 16.7559-23.2803C16.2797-24.6819 16.8367-26.1194 18.0945-26.7573C18.5527-26.9909 18.6066-26.9999 20.8707-27.1436C20.9066-27.1436 20.9336-27.3323 20.9336-27.5659C20.9336-28.0331 21.1582-28.5991 21.4637-28.9135C21.8051-29.2729 22.3262-29.4706 23.1887-29.5694C24.3297-29.7042 24.743-29.812 25.4707-30.1893C26.2523-30.5936 27.1059-31.4202 27.4383-32.112C27.6988-32.642 27.7617-33.1721 27.582-33.3878C27.5281-33.4506 27.1598-33.6393 26.7645-33.7831C25.8211-34.1424 25.318-34.5018 24.8328-35.1577C23.6109-36.8198 23.9254-39.0838 25.5336-40.3057C26.5129-41.0514 26.3063-41.0245 32.2539-41.0245L37.5098-41.0245L38.0938-40.746C38.8664-40.3866 39.5133-39.7397 39.8996-38.9581C40.1871-38.3651 40.2051-38.2842 40.2051-37.3858C40.2051-36.5952 40.1691-36.3706 39.9984-36.0022C39.5133-34.9421 38.6418-34.1694 37.5098-33.7921C36.9168-33.5944 36.5664-33.2889 36.5664-32.9745C36.5664-32.5612 36.9617-31.7796 37.4469-31.2674C38.4262-30.2073 39.2258-29.821 40.8879-29.6143C42.0289-29.4796 42.4871-29.2999 42.9184-28.8327C43.4035-28.3116 43.3945-28.5182 43.3945-19.5518C43.3945-11.7354 43.3855-11.2233 43.2328-10.7202C42.9363-9.7768 42.3164-9.094 41.1484-8.4292C40.1152-7.8452 38.2016-7.3061 36.4586-7.1174C35.9734-7.0635 34.3922-7.0186 32.9367-7.0186L30.2863-7.0186L29.6754-6.7042C28.9117-6.3088 28.2379-6.1381 27.0879-6.0303C26.0188-5.9315 19.1727-5.9315 18.3191-6.0303ZM28.2559-7.2163C28.8309-7.387 29.3789-7.6745 29.5766-7.8811C29.6574-7.9799 29.7652-8.2135 29.8191-8.4112C29.9539-8.9053 29.9539-16.6768 29.8191-17.0631C29.6934-17.4315 29.4508-17.5753 28.5613-17.7999C27.591-18.0514 27.034-18.3569 26.4051-18.9678C25.8301-19.5338 25.4707-20.1717 25.3809-20.7647C25.2641-21.5463 25.6504-22.0674 26.6207-22.4358C27.6988-22.8491 28.1211-23.3792 28.1211-24.3225C28.1211-24.9514 27.8336-25.4995 27.3395-25.8139L26.998-26.0206L23.0898-26.0475C18.993-26.0745 18.7324-26.0565 18.2203-25.6792C17.5375-25.176 17.3578-24.1338 17.807-23.3522C18.0855-22.894 18.391-22.6694 19.1547-22.3819C19.7027-22.1842 20.1699-21.744 20.2688-21.3397C20.3496-21.0253 20.2508-20.2885 20.0891-19.9831C19.4691-18.7792 18.5168-18.1503 16.5492-17.6202C16.2707-17.5483 16.118-17.4405 15.9922-17.2338C15.8215-16.9553 15.8125-16.7487 15.8125-12.7506C15.8125-10.0104 15.8484-8.4741 15.9113-8.3034C16.1359-7.7014 16.7289-7.3331 17.798-7.1174C18.0137-7.0725 20.3586-7.0456 23-7.0546C27.007-7.0725 27.8785-7.0995 28.2559-7.2163ZM37.375-8.2674C39.9535-8.7436 41.6336-9.6241 42.1727-10.7921C42.3613-11.1874 42.3613-11.2952 42.3883-19.3991C42.4062-26.8831 42.3973-27.6288 42.2625-27.9163C42.0648-28.3385 41.7414-28.4823 40.807-28.5901C39.0371-28.7878 38.0668-29.228 36.9707-30.3331C35.8207-31.4741 35.3625-32.651 35.7039-33.5585C35.9105-34.0975 36.3148-34.4389 37.1234-34.7264C38.4801-35.2206 39.1629-36.0381 39.2437-37.242C39.2797-37.7721 39.2438-37.9788 39.091-38.3202C38.7855-39.021 38.4082-39.4163 37.7523-39.7397L37.1504-40.0362L32.3977-40.0631C27.8246-40.0901 27.618-40.0811 27.034-39.9014C26.3422-39.6948 25.6324-39.1198 25.309-38.5178C25.0395-38.0057 25.0305-36.8917 25.3-36.2987C25.6773-35.4901 26.3062-34.978 27.2945-34.6815C27.8156-34.5288 28.4355-33.9717 28.6152-33.4866C28.9207-32.678 28.4355-31.4202 27.4023-30.378C26.3422-29.3088 25.1383-28.7518 23.4762-28.5901C22.434-28.4823 22.1375-28.3385 22.0117-27.8534C21.9578-27.6557 21.9219-27.4042 21.9398-27.2964C21.9668-27.0987 21.9848-27.0987 23.6738-27.1256C26.0008-27.1616 27.1957-27.0448 27.6988-26.7573C28.5613-26.2452 29.0465-25.4635 29.0914-24.4932C29.1363-23.7296 29.0195-23.2713 28.6602-22.7233C28.3098-22.1932 27.8785-21.8698 27.1418-21.5733C26.3781-21.2678 26.2344-21.0253 26.4859-20.4772C26.8812-19.6057 27.7258-19.0217 29.0375-18.6983C29.7652-18.5096 29.9-18.4467 30.2863-18.0784C30.5738-17.7999 30.7445-17.5393 30.8074-17.2878C30.8793-17.0272 30.9062-15.5358 30.8883-12.4452L30.8613-7.9889L33.6016-8.0338C35.8566-8.0698 36.5215-8.1147 37.375-8.2674ZM53.0527-7.1174C50.9324-7.3061 49.7914-7.5128 48.2102-7.971C45.8113-8.6807 44.4906-9.6151 43.9156-11.0346L43.709-11.5557L43.682-27.3592C43.6551-45.1483 43.6012-43.7378 44.3469-44.5643C45.0566-45.3549 45.5508-45.5436 47.2219-45.6514C48.6684-45.7503 49.3152-45.903 50.3574-46.4151C52.1812-47.3135 53.6727-49.0206 54.041-50.6378C54.2836-51.662 54.05-52.0393 52.918-52.4436C51.2828-53.0276 50.3484-53.7823 49.6117-55.103C49.0457-56.1092 48.875-57.8163 49.2344-58.9573C49.7285-60.5655 51.0223-61.8682 52.6844-62.4342L53.4121-62.6768L60.7254-62.7038C68.8742-62.7307 68.9102-62.7307 70.15-62.1378C71.0215-61.7245 72.0098-60.7811 72.441-59.9546C72.9172-59.0471 73.0789-58.4003 73.0789-57.421C73.0789-56.1542 72.7645-55.2288 72.0277-54.3213C71.309-53.4409 70.4734-52.8928 69.2336-52.4796C68.407-52.21 68.1016-51.9225 68.0387-51.3745C67.85-49.7663 69.557-47.4842 71.7762-46.3702C72.6117-45.9569 73.5461-45.7413 74.9836-45.6604C75.9629-45.5975 76.3492-45.5346 76.6816-45.3909C77.3465-45.0944 77.8496-44.6362 78.1371-44.0612C78.3617-43.603 78.3887-43.4233 78.4336-42.3721C78.4605-41.7342 78.4785-34.5737 78.4785-26.4698C78.4785-12.1936 78.4695-11.7174 78.3078-11.2862C78.0652-10.6573 77.7598-10.1991 77.2566-9.7049C75.891-8.3753 72.9891-7.4139 69.4043-7.1085C68.1285-7.0006 54.2566-7.0096 53.0527-7.1174ZM70.0781-8.2225C74.0672-8.7346 76.466-9.8038 77.2027-11.403L77.4004-11.8253L77.4453-43.0999L77.2027-43.585C76.8254-44.3217 76.4301-44.4924 74.8578-44.5823C73.3934-44.6721 72.7105-44.8069 71.7313-45.2202C69.0359-46.3702 67.0145-48.9038 66.9875-51.1768C66.9785-51.8147 67.0055-51.9495 67.2301-52.3268C67.5355-52.8389 68.0566-53.1983 68.9012-53.4768C69.7008-53.7374 70.0332-53.9171 70.5992-54.3753C71.1832-54.8514 71.6234-55.4983 71.875-56.262C72.0367-56.7292 72.0637-56.9897 72.0367-57.6456C72.0098-58.3553 71.9559-58.544 71.6684-59.137C71.273-59.9546 70.5902-60.6823 69.8266-61.0866C68.7574-61.6526 68.9641-61.6436 61.0938-61.6436C53.3672-61.6436 53.493-61.6526 52.4238-61.1585C50.7437-60.3858 49.7285-58.3463 50.1688-56.6393C50.5641-55.067 51.4715-54.1237 53.1965-53.4678C53.6906-53.2792 54.2387-53.0186 54.4094-52.8838C55.9637-51.6979 54.9395-48.4725 52.334-46.4061C51.5613-45.7952 49.9441-44.9866 49.0996-44.7889C48.7582-44.717 47.9406-44.6182 47.2938-44.5823C46.3145-44.5194 46.0359-44.4745 45.6766-44.2948C45.1555-44.0432 44.877-43.6569 44.7422-43.019C44.6793-42.6866 44.6523-37.9338 44.6703-27.1885L44.6973-11.8253L44.9129-11.3491C45.7215-9.5522 48.7852-8.4561 54.1309-8.0698C54.3824-8.0518 57.7965-8.0428 61.7227-8.0518C67.9309-8.0608 69.027-8.0788 70.0781-8.2225Z"/>
  </g>
  <g id="Regular-S" transform="matrix(1 0 0 1 1403.84 696)">
   <path class="monochrome-0 multicolor-0:tintColor hierarchical-0:primary SFSymbolsPreviewWireframe" d="M18.3191-6.0303C16.5941-6.237 15.6598-6.7042 15.1117-7.6385L14.8691-8.0518L14.8691-17.4225L15.1387-17.8088C15.4801-18.294 15.8215-18.4917 16.684-18.7163C17.4656-18.9139 17.9508-19.1385 18.4539-19.5338C19.0828-20.028 19.4691-20.8366 19.2445-21.187C19.2086-21.2409 18.8941-21.4026 18.5527-21.5374C17.7172-21.8788 16.9895-22.5796 16.7559-23.2803C16.2797-24.6819 16.8367-26.1194 18.0945-26.7573C18.5527-26.9909 18.6066-26.9999 20.8707-27.1436C20.9066-27.1436 20.9336-27.3323 20.9336-27.5659C20.9336-28.0331 21.1582-28.5991 21.4637-28.9135C21.8051-29.2729 22.3262-29.4706 23.1887-29.5694C24.3297-29.7042 24.743-29.812 25.4707-30.1893C26.2523-30.5936 27.1059-31.4202 27.4383-32.112C27.6988-32.642 27.7617-33.1721 27.582-33.3878C27.5281-33.4506 27.1598-33.6393 26.7645-33.7831C25.8211-34.1424 25.318-34.5018 24.8328-35.1577C23.6109-36.8198 23.9254-39.0838 25.5336-40.3057C26.5129-41.0514 26.3063-41.0245 32.2539-41.0245L37.5098-41.0245L38.0938-40.746C38.8664-40.3866 39.5133-39.7397 39.8996-38.9581C40.1871-38.3651 40.2051-38.2842 40.2051-37.3858C40.2051-36.5952 40.1691-36.3706 39.9984-36.0022C39.5133-34.9421 38.6418-34.1694 37.5098-33.7921C36.9168-33.5944 36.5664-33.2889 36.5664-32.9745C36.5664-32.5612 36.9617-31.7796 37.4469-31.2674C38.4262-30.2073 39.2258-29.821 40.8879-29.6143C42.0289-29.4796 42.4871-29.2999 42.9184-28.8327C43.4035-28.3116 43.3945-28.5182 43.3945-19.5518C43.3945-11.7354 43.3855-11.2233 43.2328-10.7202C42.9363-9.7768 42.3164-9.094 41.1484-8.4292C40.1152-7.8452 38.2016-7.3061 36.4586-7.1174C35.9734-7.0635 34.3922-7.0186 32.9367-7.0186L30.2863-7.0186L29.6754-6.7042C28.9117-6.3088 28.2379-6.1381 27.0879-6.0303C26.0188-5.9315 19.1727-5.9315 18.3191-6.0303ZM28.2559-7.2163C28.8309-7.387 29.3789-7.6745 29.5766-7.8811C29.6574-7.9799 29.7652-8.2135 29.8191-8.4112C29.9539-8.9053 29.9539-16.6768 29.8191-17.0631C29.6934-17.4315 29.4508-17.5753 28.5613-17.7999C27.591-18.0514 27.034-18.3569 26.4051-18.9678C25.8301-19.5338 25.4707-20.1717 25.3809-20.7647C25.2641-21.5463 25.6504-22.0674 26.6207-22.4358C27.6988-22.8491 28.1211-23.3792 28.1211-24.3225C28.1211-24.9514 27.8336-25.4995 27.3395-25.8139L26.998-26.0206L23.0898-26.0475C18.993-26.0745 18.7324-26.0565 18.2203-25.6792C17.5375-25.176 17.3578-24.1338 17.807-23.3522C18.0855-22.894 18.391-22.6694 19.1547-22.3819C19.7027-22.1842 20.1699-21.744 20.2688-21.3397C20.3496-21.0253 20.2508-20.2885 20.0891-19.9831C19.4691-18.7792 18.5168-18.1503 16.5492-17.6202C16.2707-17.5483 16.118-17.4405 15.9922-17.2338C15.8215-16.9553 15.8125-16.7487 15.8125-12.7506C15.8125-10.0104 15.8484-8.4741 15.9113-8.3034C16.1359-7.7014 16.7289-7.3331 17.798-7.1174C18.0137-7.0725 20.3586-7.0456 23-7.0546C27.007-7.0725 27.8785-7.0995 28.2559-7.2163ZM37.375-8.2674C39.9535-8.7436 41.6336-9.6241 42.1727-10.7921C42.3613-11.1874 42.3613-11.2952 42.3883-19.3991C42.4062-26.8831 42.3973-27.6288 42.2625-27.9163C42.0648-28.3385 41.7414-28.4823 40.807-28.5901C39.0371-28.7878 38.0668-29.228 36.9707-30.3331C35.8207-31.4741 35.3625-32.651 35.7039-33.5585C35.9105-34.0975 36.3148-34.4389 37.1234-34.7264C38.4801-35.2206 39.1629-36.0381 39.2437-37.242C39.2797-37.7721 39.2438-37.9788 39.091-38.3202C38.7855-39.021 38.4082-39.4163 37.7523-39.7397L37.1504-40.0362L32.3977-40.0631C27.8246-40.0901 27.618-40.0811 27.034-39.9014C26.3422-39.6948 25.6324-39.1198 25.309-38.5178C25.0395-38.0057 25.0305-36.8917 25.3-36.2987C25.6773-35.4901 26.3062-34.978 27.2945-34.6815C27.8156-34.5288 28.4355-33.9717 28.6152-33.4866C28.9207-32.678 28.4355-31.4202 27.4023-30.378C26.3422-29.3088 25.1383-28.7518 23.4762-28.5901C22.434-28.4823 22.1375-28.3385 22.0117-27.8534C21.9578-27.6557 21.9219-27.4042 21.9398-27.2964C21.9668-27.0987 21.9848-27.0987 23.6738-27.1256C26.0008-27.1616 27.1957-27.0448 27.6988-26.7573C28.5613-26.2452 29.0465-25.4635 29.0914-24.4932C29.1363-23.7296 29.0195-23.2713 28.6602-22.7233C28.3098-22.1932 27.8785-21.8698 27.1418-21.5733C26.3781-21.2678 26.2344-21.0253 26.4859-20.4772C26.8812-19.6057 27.7258-19.0217 29.0375-18.6983C29.7652-18.5096 29.9-18.4467 30.2863-18.0784C30.5738-17.7999 30.7445-17.5393 30.8074-17.2878C30.8793-17.0272 30.9062-15.5358 30.8883-12.4452L30.8613-7.9889L33.6016-8.0338C35.8566-8.0698 36.5215-8.1147 37.375-8.2674ZM53.0527-7.1174C50.9324-7.3061 49.7914-7.5128 48.2102-7.971C45.8113-8.6807 44.4906-9.6151 43.9156-11.0346L43.709-11.5557L43.682-27.3592C43.6551-45.1483 43.6012-43.7378 44.3469-44.5643C45.0566-45.3549 45.5508-45.5436 47.2219-45.6514C48.6684-45.7503 49.3152-45.903 50.3574-46.4151C52.1812-47.3135 53.6727-49.0206 54.041-50.6378C54.2836-51.662 54.05-52.0393 52.918-52.4436C51.2828-53.0276 50.3484-53.7823 49.6117-55.103C49.0457-56.1092 48.875-57.8163 49.2344-58.9573C49.7285-60.5655 51.0223-61.8682 52.6844-62.4342L53.4121-62.6768L60.7254-62.7038C68.8742-62.7307 68.9102-62.7307 70.15-62.1378C71.0215-61.7245 72.0098-60.7811 72.441-59.9546C72.9172-59.0471 73.0789-58.4003 73.0789-57.421C73.0789-56.1542 72.7645-55.2288 72.0277-54.3213C71.309-53.4409 70.4734-52.8928 69.2336-52.4796C68.407-52.21 68.1016-51.9225 68.0387-51.3745C67.85-49.7663 69.557-47.4842 71.7762-46.3702C72.6117-45.9569 73.5461-45.7413 74.9836-45.6604C75.9629-45.5975 76.3492-45.5346 76.6816-45.3909C77.3465-45.0944 77.8496-44.6362 78.1371-44.0612C78.3617-43.603 78.3887-43.4233 78.4336-42.3721C78.4605-41.7342 78.4785-34.5737 78.4785-26.4698C78.4785-12.1936 78.4695-11.7174 78.3078-11.2862C78.0652-10.6573 77.7598-10.1991 77.2566-9.7049C75.891-8.3753 72.9891-7.4139 69.4043-7.1085C68.1285-7.0006 54.2566-7.0096 53.0527-7.1174ZM70.0781-8.2225C74.0672-8.7346 76.466-9.8038 77.2027-11.403L77.4004-11.8253L77.4453-43.0999L77.2027-43.585C76.8254-44.3217 76.4301-44.4924 74.8578-44.5823C73.3934-44.6721 72.7105-44.8069 71.7313-45.2202C69.0359-46.3702 67.0145-48.9038 66.9875-51.1768C66.9785-51.8147 67.0055-51.9495 67.2301-52.3268C67.5355-52.8389 68.0566-53.1983 68.9012-53.4768C69.7008-53.7374 70.0332-53.9171 70.5992-54.3753C71.1832-54.8514 71.6234-55.4983 71.875-56.262C72.0367-56.7292 72.0637-56.9897 72.0367-57.6456C72.0098-58.3553 71.9559-58.544 71.6684-59.137C71.273-59.9546 70.5902-60.6823 69.8266-61.0866C68.7574-61.6526 68.9641-61.6436 61.0938-61.6436C53.3672-61.6436 53.493-61.6526 52.4238-61.1585C50.7437-60.3858 49.7285-58.3463 50.1688-56.6393C50.5641-55.067 51.4715-54.1237 53.1965-53.4678C53.6906-53.2792 54.2387-53.0186 54.4094-52.8838C55.9637-51.6979 54.9395-48.4725 52.334-46.4061C51.5613-45.7952 49.9441-44.9866 49.0996-44.7889C48.7582-44.717 47.9406-44.6182 47.2938-44.5823C46.3145-44.5194 46.0359-44.4745 45.6766-44.2948C45.1555-44.0432 44.877-43.6569 44.7422-43.019C44.6793-42.6866 44.6523-37.9338 44.6703-27.1885L44.6973-11.8253L44.9129-11.3491C45.7215-9.5522 48.7852-8.4561 54.1309-8.0698C54.3824-8.0518 57.7965-8.0428 61.7227-8.0518C67.9309-8.0608 69.027-8.0788 70.0781-8.2225Z"/>
  </g>
  <g id="Ultralight-S" transform="matrix(1 0 0 1 513.711 696)">
   <path class="monochrome-0 multicolor-0:tintColor hierarchical-0:primary SFSymbolsPreviewWireframe" d="M18.3191-6.0303C16.5941-6.237 15.6598-6.7042 15.1117-7.6385L14.8691-8.0518L14.8691-17.4225L15.1387-17.8088C15.4801-18.294 15.8215-18.4917 16.684-18.7163C17.4656-18.9139 17.9508-19.1385 18.4539-19.5338C19.0828-20.028 19.4691-20.8366 19.2445-21.187C19.2086-21.2409 18.8941-21.4026 18.5527-21.5374C17.7172-21.8788 16.9895-22.5796 16.7559-23.2803C16.2797-24.6819 16.8367-26.1194 18.0945-26.7573C18.5527-26.9909 18.6066-26.9999 20.8707-27.1436C20.9066-27.1436 20.9336-27.3323 20.9336-27.5659C20.9336-28.0331 21.1582-28.5991 21.4637-28.9135C21.8051-29.2729 22.3262-29.4706 23.1887-29.5694C24.3297-29.7042 24.743-29.812 25.4707-30.1893C26.2523-30.5936 27.1059-31.4202 27.4383-32.112C27.6988-32.642 27.7617-33.1721 27.582-33.3878C27.5281-33.4506 27.1598-33.6393 26.7645-33.7831C25.8211-34.1424 25.318-34.5018 24.8328-35.1577C23.6109-36.8198 23.9254-39.0838 25.5336-40.3057C26.5129-41.0514 26.3063-41.0245 32.2539-41.0245L37.5098-41.0245L38.0938-40.746C38.8664-40.3866 39.5133-39.7397 39.8996-38.9581C40.1871-38.3651 40.2051-38.2842 40.2051-37.3858C40.2051-36.5952 40.1691-36.3706 39.9984-36.0022C39.5133-34.9421 38.6418-34.1694 37.5098-33.7921C36.9168-33.5944 36.5664-33.2889 36.5664-32.9745C36.5664-32.5612 36.9617-31.7796 37.4469-31.2674C38.4262-30.2073 39.2258-29.821 40.8879-29.6143C42.0289-29.4796 42.4871-29.2999 42.9184-28.8327C43.4035-28.3116 43.3945-28.5182 43.3945-19.5518C43.3945-11.7354 43.3855-11.2233 43.2328-10.7202C42.9363-9.7768 42.3164-9.094 41.1484-8.4292C40.1152-7.8452 38.2016-7.3061 36.4586-7.1174C35.9734-7.0635 34.3922-7.0186 32.9367-7.0186L30.2863-7.0186L29.6754-6.7042C28.9117-6.3088 28.2379-6.1381 27.0879-6.0303C26.0188-5.9315 19.1727-5.9315 18.3191-6.0303ZM28.2559-7.2163C28.8309-7.387 29.3789-7.6745 29.5766-7.8811C29.6574-7.9799 29.7652-8.2135 29.8191-8.4112C29.9539-8.9053 29.9539-16.6768 29.8191-17.0631C29.6934-17.4315 29.4508-17.5753 28.5613-17.7999C27.591-18.0514 27.034-18.3569 26.4051-18.9678C25.8301-19.5338 25.4707-20.1717 25.3809-20.7647C25.2641-21.5463 25.6504-22.0674 26.6207-22.4358C27.6988-22.8491 28.1211-23.3792 28.1211-24.3225C28.1211-24.9514 27.8336-25.4995 27.3395-25.8139L26.998-26.0206L23.0898-26.0475C18.993-26.0745 18.7324-26.0565 18.2203-25.6792C17.5375-25.176 17.3578-24.1338 17.807-23.3522C18.0855-22.894 18.391-22.6694 19.1547-22.3819C19.7027-22.1842 20.1699-21.744 20.2688-21.3397C20.3496-21.0253 20.2508-20.2885 20.0891-19.9831C19.4691-18.7792 18.5168-18.1503 16.5492-17.6202C16.2707-17.5483 16.118-17.4405 15.9922-17.2338C15.8215-16.9553 15.8125-16.7487 15.8125-12.7506C15.8125-10.0104 15.8484-8.4741 15.9113-8.3034C16.1359-7.7014 16.7289-7.3331 17.798-7.1174C18.0137-7.0725 20.3586-7.0456 23-7.0546C27.007-7.0725 27.8785-7.0995 28.2559-7.2163ZM37.375-8.2674C39.9535-8.7436 41.6336-9.6241 42.1727-10.7921C42.3613-11.1874 42.3613-11.2952 42.3883-19.3991C42.4062-26.8831 42.3973-27.6288 42.2625-27.9163C42.0648-28.3385 41.7414-28.4823 40.807-28.5901C39.0371-28.7878 38.0668-29.228 36.9707-30.3331C35.8207-31.4741 35.3625-32.651 35.7039-33.5585C35.9105-34.0975 36.3148-34.4389 37.1234-34.7264C38.4801-35.2206 39.1629-36.0381 39.2437-37.242C39.2797-37.7721 39.2438-37.9788 39.091-38.3202C38.7855-39.021 38.4082-39.4163 37.7523-39.7397L37.1504-40.0362L32.3977-40.0631C27.8246-40.0901 27.618-40.0811 27.034-39.9014C26.3422-39.6948 25.6324-39.1198 25.309-38.5178C25.0395-38.0057 25.0305-36.8917 25.3-36.2987C25.6773-35.4901 26.3062-34.978 27.2945-34.6815C27.8156-34.5288 28.4355-33.9717 28.6152-33.4866C28.9207-32.678 28.4355-31.4202 27.4023-30.378C26.3422-29.3088 25.1383-28.7518 23.4762-28.5901C22.434-28.4823 22.1375-28.3385 22.0117-27.8534C21.9578-27.6557 21.9219-27.4042 21.9398-27.2964C21.9668-27.0987 21.9848-27.0987 23.6738-27.1256C26.0008-27.1616 27.1957-27.0448 27.6988-26.7573C28.5613-26.2452 29.0465-25.4635 29.0914-24.4932C29.1363-23.7296 29.0195-23.2713 28.6602-22.7233C28.3098-22.1932 27.8785-21.8698 27.1418-21.5733C26.3781-21.2678 26.2344-21.0253 26.4859-20.4772C26.8812-19.6057 27.7258-19.0217 29.0375-18.6983C29.7652-18.5096 29.9-18.4467 30.2863-18.0784C30.5738-17.7999 30.7445-17.5393 30.8074-17.2878C30.8793-17.0272 30.9062-15.5358 30.8883-12.4452L30.8613-7.9889L33.6016-8.0338C35.8566-8.0698 36.5215-8.1147 37.375-8.2674ZM53.0527-7.1174C50.9324-7.3061 49.7914-7.5128 48.2102-7.971C45.8113-8.6807 44.4906-9.6151 43.9156-11.0346L43.709-11.5557L43.682-27.3592C43.6551-45.1483 43.6012-43.7378 44.3469-44.5643C45.0566-45.3549 45.5508-45.5436 47.2219-45.6514C48.6684-45.7503 49.3152-45.903 50.3574-46.4151C52.1812-47.3135 53.6727-49.0206 54.041-50.6378C54.2836-51.662 54.05-52.0393 52.918-52.4436C51.2828-53.0276 50.3484-53.7823 49.6117-55.103C49.0457-56.1092 48.875-57.8163 49.2344-58.9573C49.7285-60.5655 51.0223-61.8682 52.6844-62.4342L53.4121-62.6768L60.7254-62.7038C68.8742-62.7307 68.9102-62.7307 70.15-62.1378C71.0215-61.7245 72.0098-60.7811 72.441-59.9546C72.9172-59.0471 73.0789-58.4003 73.0789-57.421C73.0789-56.1542 72.7645-55.2288 72.0277-54.3213C71.309-53.4409 70.4734-52.8928 69.2336-52.4796C68.407-52.21 68.1016-51.9225 68.0387-51.3745C67.85-49.7663 69.557-47.4842 71.7762-46.3702C72.6117-45.9569 73.5461-45.7413 74.9836-45.6604C75.9629-45.5975 76.3492-45.5346 76.6816-45.3909C77.3465-45.0944 77.8496-44.6362 78.1371-44.0612C78.3617-43.603 78.3887-43.4233 78.4336-42.3721C78.4605-41.7342 78.4785-34.5737 78.4785-26.4698C78.4785-12.1936 78.4695-11.7174 78.3078-11.2862C78.0652-10.6573 77.7598-10.1991 77.2566-9.7049C75.891-8.3753 72.9891-7.4139 69.4043-7.1085C68.1285-7.0006 54.2566-7.0096 53.0527-7.1174ZM70.0781-8.2225C74.0672-8.7346 76.466-9.8038 77.2027-11.403L77.4004-11.8253L77.4453-43.0999L77.2027-43.585C76.8254-44.3217 76.4301-44.4924 74.8578-44.5823C73.3934-44.6721 72.7105-44.8069 71.7313-45.2202C69.0359-46.3702 67.0145-48.9038 66.9875-51.1768C66.9785-51.8147 67.0055-51.9495 67.2301-52.3268C67.5355-52.8389 68.0566-53.1983 68.9012-53.4768C69.7008-53.7374 70.0332-53.9171 70.5992-54.3753C71.1832-54.8514 71.6234-55.4983 71.875-56.262C72.0367-56.7292 72.0637-56.9897 72.0367-57.6456C72.0098-58.3553 71.9559-58.544 71.6684-59.137C71.273-59.9546 70.5902-60.6823 69.8266-61.0866C68.7574-61.6526 68.9641-61.6436 61.0938-61.6436C53.3672-61.6436 53.493-61.6526 52.4238-61.1585C50.7437-60.3858 49.7285-58.3463 50.1688-56.6393C50.5641-55.067 51.4715-54.1237 53.1965-53.4678C53.6906-53.2792 54.2387-53.0186 54.4094-52.8838C55.9637-51.6979 54.9395-48.4725 52.334-46.4061C51.5613-45.7952 49.9441-44.9866 49.0996-44.7889C48.7582-44.717 47.9406-44.6182 47.2938-44.5823C46.3145-44.5194 46.0359-44.4745 45.6766-44.2948C45.1555-44.0432 44.877-43.6569 44.7422-43.019C44.6793-42.6866 44.6523-37.9338 44.6703-27.1885L44.6973-11.8253L44.9129-11.3491C45.7215-9.5522 48.7852-8.4561 54.1309-8.0698C54.3824-8.0518 57.7965-8.0428 61.7227-8.0518C67.9309-8.0608 69.027-8.0788 70.0781-8.2225Z"/>
  </g>
 </g>
</svg>
