<?xml version="1.0" encoding="UTF-8"?>
<!DOCTYPE svg
PUBLIC "-//W3C//DTD SVG 1.1//EN"
     "http://www.w3.org/Graphics/SVG/1.1/DTD/svg11.dtd">
     <!--Created with SF Symbol Generator (v1.0.0)-->

<svg version="1.1" xmlns="http://www.w3.org/2000/svg" xmlns:xlink="http://www.w3.org/1999/xlink" width="3300" height="2200">
<!--glyph: "liquid.measure.0.medium", point size: 100.0-->
<style>.SFSymbolsPreviewWireframe {fill:none;opacity:1.0;stroke:black;stroke-width:0.5}
</style>
<g id="Notes">
<rect height="2200" id="artboard" style="fill:white;opacity:1" width="3300" x="0" y="0"/>
<line style="fill:none;stroke:black;opacity:1;stroke-width:0.5;" x1="263" x2="3036" y1="292" y2="292"/>
<text style="stroke:none;fill:black;font-family:sans-serif;font-size:13;font-weight:bold;" transform="matrix(1 0 0 1 263 322)">Weight/Scale Variations</text>
<text style="stroke:none;fill:black;font-family:sans-serif;font-size:13;text-anchor:middle;" transform="matrix(1 0 0 1 559.711 322)">Ultralight</text>
<text style="stroke:none;fill:black;font-family:sans-serif;font-size:13;text-anchor:middle;" transform="matrix(1 0 0 1 856.422 322)">Thin</text>
<text style="stroke:none;fill:black;font-family:sans-serif;font-size:13;text-anchor:middle;" transform="matrix(1 0 0 1 1153.13 322)">Light</text>
<text style="stroke:none;fill:black;font-family:sans-serif;font-size:13;text-anchor:middle;" transform="matrix(1 0 0 1 1449.84 322)">Regular</text>
<text style="stroke:none;fill:black;font-family:sans-serif;font-size:13;text-anchor:middle;" transform="matrix(1 0 0 1 1746.56 322)">Medium</text>
<text style="stroke:none;fill:black;font-family:sans-serif;font-size:13;text-anchor:middle;" transform="matrix(1 0 0 1 2043.27 322)">Semibold</text>
<text style="stroke:none;fill:black;font-family:sans-serif;font-size:13;text-anchor:middle;" transform="matrix(1 0 0 1 2339.98 322)">Bold</text>
<text style="stroke:none;fill:black;font-family:sans-serif;font-size:13;text-anchor:middle;" transform="matrix(1 0 0 1 2636.69 322)">Heavy</text>
<text style="stroke:none;fill:black;font-family:sans-serif;font-size:13;text-anchor:middle;" transform="matrix(1 0 0 1 2933.4 322)">Black</text>
<line style="fill:none;stroke:black;opacity:1;stroke-width:0.5;" x1="263" x2="3036" y1="1903" y2="1903"/>
<text style="stroke:none;fill:black;font-family:sans-serif;font-size:13;font-weight:bold;" transform="matrix(1 0 0 1 263 1953)">Design Variations</text>
<text style="stroke:none;fill:black;font-family:sans-serif;font-size:13;" transform="matrix(1 0 0 1 263 1971)">Symbols are supported in up to nine weights and three scales.</text>
<text style="stroke:none;fill:black;font-family:sans-serif;font-size:13;" transform="matrix(1 0 0 1 263 1989)">For optimal layout with text and other symbols, vertically align</text>
<text style="stroke:none;fill:black;font-family:sans-serif;font-size:13;" transform="matrix(1 0 0 1 263 2007)">symbols with the adjacent text.</text>
<line style="fill:none;stroke:#00AEEF;stroke-width:0.5;opacity:1.0;" x1="776" x2="776" y1="1919" y2="1933"/>
<text style="stroke:none;fill:black;font-family:sans-serif;font-size:13;font-weight:bold;" transform="matrix(1 0 0 1 776 1953)">Margins</text>
<text style="stroke:none;fill:black;font-family:sans-serif;font-size:13;" transform="matrix(1 0 0 1 776 1971)">Leading and trailing margins on the left and right side of each symbol</text>
<text style="stroke:none;fill:black;font-family:sans-serif;font-size:13;" transform="matrix(1 0 0 1 776 1989)">can be adjusted by modifying the x-location of the margin guidelines.</text>
<text style="stroke:none;fill:black;font-family:sans-serif;font-size:13;" transform="matrix(1 0 0 1 776 2007)">Modifications are automatically applied proportionally to all</text>
<text style="stroke:none;fill:black;font-family:sans-serif;font-size:13;" transform="matrix(1 0 0 1 776 2025)">scales and weights.</text>
<text style="stroke:none;fill:black;font-family:sans-serif;font-size:13;font-weight:bold;" transform="matrix(1 0 0 1 1289 1953)">Exporting</text>
<text style="stroke:none;fill:black;font-family:sans-serif;font-size:13;" transform="matrix(1 0 0 1 1289 1971)">Symbols should be outlined when exporting to ensure the</text>
<text style="stroke:none;fill:black;font-family:sans-serif;font-size:13;" transform="matrix(1 0 0 1 1289 1989)">design is preserved when submitting to Xcode.</text>
<text id="template-version" style="stroke:none;fill:black;font-family:sans-serif;font-size:13;text-anchor:end;" transform="matrix(1 0 0 1 3036 1933)">Template v.5.0</text>
<text style="stroke:none;fill:black;font-family:sans-serif;font-size:13;text-anchor:end;" transform="matrix(1 0 0 1 3036 1951)">Requires Xcode 15 or greater</text>
<text id="descriptive-name" style="stroke:none;fill:black;font-family:sans-serif;font-size:13;text-anchor:end;" transform="matrix(1 0 0 1 3036 1969)">Generated from liquid.measure.0</text>
<text style="stroke:none;fill:black;font-family:sans-serif;font-size:13;text-anchor:end;" transform="matrix(1 0 0 1 3036 1987)">Typeset at 100.0 points</text>
<text style="stroke:none;fill:black;font-family:sans-serif;font-size:13;" transform="matrix(1 0 0 1 263 726)">Small</text>
<text style="stroke:none;fill:black;font-family:sans-serif;font-size:13;" transform="matrix(1 0 0 1 263 1156)">Medium</text>
<text style="stroke:none;fill:black;font-family:sans-serif;font-size:13;" transform="matrix(1 0 0 1 263 1586)">Large</text>
</g>
<g id="Guides">
<g id="H-reference" style="fill:#27AAE1;stroke:none;" transform="matrix(1 0 0 1 339 696)">
 <path d="M0.993654 0L3.63775 0L29.3281-67.1323L30.0303-67.1323L30.0303-70.459L28.1226-70.459ZM11.6885-24.4799L46.9815-24.4799L46.2315-26.7285L12.4385-26.7285ZM55.1196 0L57.7637 0L30.6382-70.459L29.4326-70.459L29.4326-67.1323Z"/>
</g>
<line id="Baseline-S" style="fill:none;stroke:#27AAE1;opacity:1;stroke-width:0.5;" x1="263" x2="3036" y1="696" y2="696"/>
<line id="Capline-S" style="fill:none;stroke:#27AAE1;opacity:1;stroke-width:0.5;" x1="263" x2="3036" y1="625.541" y2="625.541"/>
<g id="H-reference" style="fill:#27AAE1;stroke:none;" transform="matrix(1 0 0 1 339 1126)">
 <path d="M0.993654 0L3.63775 0L29.3281-67.1323L30.0303-67.1323L30.0303-70.459L28.1226-70.459ZM11.6885-24.4799L46.9815-24.4799L46.2315-26.7285L12.4385-26.7285ZM55.1196 0L57.7637 0L30.6382-70.459L29.4326-70.459L29.4326-67.1323Z"/>
</g>
<line id="Baseline-M" style="fill:none;stroke:#27AAE1;opacity:1;stroke-width:0.5;" x1="263" x2="3036" y1="1126" y2="1126"/>
<line id="Capline-M" style="fill:none;stroke:#27AAE1;opacity:1;stroke-width:0.5;" x1="263" x2="3036" y1="1055.54" y2="1055.54"/>
<g id="H-reference" style="fill:#27AAE1;stroke:none;" transform="matrix(1 0 0 1 339 1556)">
 <path d="M0.993654 0L3.63775 0L29.3281-67.1323L30.0303-67.1323L30.0303-70.459L28.1226-70.459ZM11.6885-24.4799L46.9815-24.4799L46.2315-26.7285L12.4385-26.7285ZM55.1196 0L57.7637 0L30.6382-70.459L29.4326-70.459L29.4326-67.1323Z"/>
</g>
<line id="Baseline-L" style="fill:none;stroke:#27AAE1;opacity:1;stroke-width:0.5;" x1="263" x2="3036" y1="1556" y2="1556"/>
<line id="Capline-L" style="fill:none;stroke:#27AAE1;opacity:1;stroke-width:0.5;" x1="263" x2="3036" y1="1485.54" y2="1485.54"/>
<line id="left-margin-Ultralight-S" style="fill:none;stroke:#00AEEF;stroke-width:0.5;opacity:1.0;" x1="513.711" x2="513.711" y1="600.785" y2="720.121"/>
<line id="right-margin-Ultralight-S" style="fill:none;stroke:#00AEEF;stroke-width:0.5;opacity:1.0;" x1="605.711" x2="605.711" y1="600.785" y2="720.121"/>
<line id="left-margin-Regular-S" style="fill:none;stroke:#00AEEF;stroke-width:0.5;opacity:1.0;" x1="1403.84" x2="1403.84" y1="600.785" y2="720.121"/>
<line id="right-margin-Regular-S" style="fill:none;stroke:#00AEEF;stroke-width:0.5;opacity:1.0;" x1="1495.84" x2="1495.84" y1="600.785" y2="720.121"/>
<line id="left-margin-Black-S" style="fill:none;stroke:#00AEEF;stroke-width:0.5;opacity:1.0;" x1="2887.4" x2="2887.4" y1="600.785" y2="720.121"/>
<line id="right-margin-Black-S" style="fill:none;stroke:#00AEEF;stroke-width:0.5;opacity:1.0;" x1="2979.4" x2="2979.4" y1="600.785" y2="720.121"/>
</g>
<g id="Symbols">
<g id="Ultralight-S" transform="matrix(1 0 0 1 513.711 614.7705)">
<svg width="92" height="92" viewBox="0 0 92 92" fill="none" xmlns="http://www.w3.org/2000/svg">
<g id="liquid.measure.0">
<g id="Vector">
<path d="M24.689 72.3152C23.7636 72.1805 23.0539 71.7582 22.5597 71.0305C22.0566 70.3117 22.1824 71.0305 20.5293 59.3418C20.107 56.377 19.2984 50.6988 18.7324 46.7187C18.1664 42.7387 17.6183 38.8844 17.5195 38.1387C17.1511 35.3984 17.1691 35.4434 13.0004 28.3906C11.1047 25.1832 9.19098 21.9039 8.87653 21.302C8.48122 20.5562 8.48122 20.3316 8.85856 19.9453L9.07418 19.7207L43.9875 19.6937C75.5496 19.6758 78.9547 19.6848 79.4488 19.8195C81.1019 20.2418 82.5843 21.7242 83.1414 23.5301C83.3211 24.1141 83.3211 24.3027 83.33 35.084V46.0449L83.0785 46.557C82.755 47.2129 82.0093 47.9047 81.3804 48.1293C80.6617 48.3719 78.9277 48.3539 78.2449 48.0754C77.5621 47.8148 76.9691 47.2758 76.6636 46.6469L76.4121 46.1348L76.3672 36.2699C76.3222 26.6027 76.3222 26.3961 76.1425 26.2703C75.9988 26.1625 75.325 26.1445 71.9648 26.1625L67.9668 26.1895L67.859 26.9531C67.7601 27.6539 67.5265 29.6035 65.9902 42.2715C65.3164 47.8598 64.355 55.6852 63.6093 61.7227C63.2679 64.4629 62.8996 67.4187 62.8007 68.2812C62.6929 69.1437 62.5851 69.9523 62.5582 70.0781C62.3605 70.9137 61.5429 71.8031 60.6625 72.1625L60.1504 72.3691L42.6757 72.3781C33.0625 72.3871 24.9675 72.3602 24.689 72.3152ZM60.2582 70.8238C60.6265 70.6262 61.0039 70.2039 61.1297 69.8625C61.2105 69.6379 62.9265 55.8738 64.2922 44.6074C64.4089 43.5742 64.6965 41.2652 64.9121 39.4863C65.2984 36.3687 65.8465 31.8047 66.3855 27.4113L66.6371 25.309L66.9246 25.0484L67.2031 24.7969H71.7851C74.7949 24.7969 76.439 24.8328 76.6097 24.8957C76.9691 25.0305 77.3464 25.4078 77.5441 25.8301C77.7058 26.1715 77.7148 26.6387 77.7148 35.8477C77.7148 41.9211 77.7507 45.6227 77.8047 45.8293C78.0113 46.557 78.6761 46.8984 79.898 46.8984C80.9222 46.8984 81.4164 46.6918 81.7308 46.1258L81.9375 45.7754V35.2098C81.9375 28.4355 81.9015 24.4645 81.8476 24.159C81.641 23.0719 80.7965 21.9488 79.7722 21.4187L79.2871 21.1582L10.314 21.1133L10.4398 21.3109C10.5117 21.4277 10.8261 21.9668 11.1406 22.5059C11.455 23.0539 12.6859 25.1473 13.8808 27.1777C17.9597 34.1137 18.0406 34.2664 18.4629 35.7129C18.6246 36.2609 18.939 38.2645 19.4601 41.957C21.3199 55.2539 23.3773 69.4402 23.5031 69.8176C23.6918 70.4195 24.2039 70.8418 24.8867 70.9855C25.0574 71.0215 32.9996 71.0394 42.541 71.0305L59.8808 71.0215L60.2582 70.8238Z" fill="black"/>
<path d="M37.6894 61.8125C37.1953 61.6148 37.0965 61.0219 37.5007 60.6715L37.7433 60.4648H43.1609C48.5066 60.4648 48.5875 60.4648 48.8211 60.6535C49.2343 60.9769 49.1086 61.6238 48.5965 61.8035C48.2551 61.9203 37.9769 61.9383 37.6894 61.8125Z" fill="black"/>
<path d="M35.0031 52.1004C34.6976 51.8578 34.6797 51.4086 34.9761 51.1391L35.1828 50.9414H43.1519C51.0043 50.9414 51.1211 50.9414 51.3007 51.1211C51.5703 51.3906 51.5433 51.8668 51.2468 52.1004C51.0043 52.2891 50.9593 52.2891 43.125 52.2891C35.2906 52.2891 35.2457 52.2891 35.0031 52.1004Z" fill="black"/>
<path d="M34.8144 42.7477C34.3562 42.4871 34.2754 41.993 34.6347 41.6426L34.8504 41.418H43.0621C51.2379 41.418 51.2738 41.418 51.5164 41.6066C51.8039 41.8312 51.8308 42.2805 51.5793 42.5949L51.4086 42.8105L43.1968 42.8285C37.1234 42.8465 34.9492 42.8285 34.8144 42.7477Z" fill="black"/>
<path d="M30.475 32.9457C30.1965 32.6492 30.2144 32.227 30.5109 31.9934L30.7535 31.8047H43.1609C56.4847 31.8137 55.775 31.7867 55.9636 32.2629C56.0625 32.5324 55.8918 33.0086 55.6582 33.0984C55.5773 33.1254 49.9172 33.1523 43.089 33.1523H30.6636L30.475 32.9457Z" fill="black"/>
</g>
<path id="Vector_2" d="M55.5504 72.3512C55.6312 72.3332 55.775 72.3332 55.8648 72.3512C55.9457 72.3781 55.8738 72.3961 55.7031 72.3961C55.5324 72.3961 55.4605 72.3781 55.5504 72.3512Z" fill="white"/>
</g>
</svg>

</g>
<g id="Regular-S" transform="matrix(1 0 0 1 1403.84 614.7705)">
<svg width="92" height="92" viewBox="0 0 92 92" fill="none" xmlns="http://www.w3.org/2000/svg">
<g id="liquid.measure.0">
<g id="Vector">
<path d="M24.689 72.3152C23.7636 72.1805 23.0539 71.7582 22.5597 71.0305C22.0566 70.3117 22.1824 71.0305 20.5293 59.3418C20.107 56.377 19.2984 50.6988 18.7324 46.7187C18.1664 42.7387 17.6183 38.8844 17.5195 38.1387C17.1511 35.3984 17.1691 35.4434 13.0004 28.3906C11.1047 25.1832 9.19098 21.9039 8.87653 21.302C8.48122 20.5562 8.48122 20.3316 8.85856 19.9453L9.07418 19.7207L43.9875 19.6937C75.5496 19.6758 78.9547 19.6848 79.4488 19.8195C81.1019 20.2418 82.5843 21.7242 83.1414 23.5301C83.3211 24.1141 83.3211 24.3027 83.33 35.084V46.0449L83.0785 46.557C82.755 47.2129 82.0093 47.9047 81.3804 48.1293C80.6617 48.3719 78.9277 48.3539 78.2449 48.0754C77.5621 47.8148 76.9691 47.2758 76.6636 46.6469L76.4121 46.1348L76.3672 36.2699C76.3222 26.6027 76.3222 26.3961 76.1425 26.2703C75.9988 26.1625 75.325 26.1445 71.9648 26.1625L67.9668 26.1895L67.859 26.9531C67.7601 27.6539 67.5265 29.6035 65.9902 42.2715C65.3164 47.8598 64.355 55.6852 63.6093 61.7227C63.2679 64.4629 62.8996 67.4187 62.8007 68.2812C62.6929 69.1437 62.5851 69.9523 62.5582 70.0781C62.3605 70.9137 61.5429 71.8031 60.6625 72.1625L60.1504 72.3691L42.6757 72.3781C33.0625 72.3871 24.9675 72.3602 24.689 72.3152ZM60.2582 70.8238C60.6265 70.6262 61.0039 70.2039 61.1297 69.8625C61.2105 69.6379 62.9265 55.8738 64.2922 44.6074C64.4089 43.5742 64.6965 41.2652 64.9121 39.4863C65.2984 36.3687 65.8465 31.8047 66.3855 27.4113L66.6371 25.309L66.9246 25.0484L67.2031 24.7969H71.7851C74.7949 24.7969 76.439 24.8328 76.6097 24.8957C76.9691 25.0305 77.3464 25.4078 77.5441 25.8301C77.7058 26.1715 77.7148 26.6387 77.7148 35.8477C77.7148 41.9211 77.7507 45.6227 77.8047 45.8293C78.0113 46.557 78.6761 46.8984 79.898 46.8984C80.9222 46.8984 81.4164 46.6918 81.7308 46.1258L81.9375 45.7754V35.2098C81.9375 28.4355 81.9015 24.4645 81.8476 24.159C81.641 23.0719 80.7965 21.9488 79.7722 21.4187L79.2871 21.1582L10.314 21.1133L10.4398 21.3109C10.5117 21.4277 10.8261 21.9668 11.1406 22.5059C11.455 23.0539 12.6859 25.1473 13.8808 27.1777C17.9597 34.1137 18.0406 34.2664 18.4629 35.7129C18.6246 36.2609 18.939 38.2645 19.4601 41.957C21.3199 55.2539 23.3773 69.4402 23.5031 69.8176C23.6918 70.4195 24.2039 70.8418 24.8867 70.9855C25.0574 71.0215 32.9996 71.0394 42.541 71.0305L59.8808 71.0215L60.2582 70.8238Z" fill="black"/>
<path d="M37.6894 61.8125C37.1953 61.6148 37.0965 61.0219 37.5007 60.6715L37.7433 60.4648H43.1609C48.5066 60.4648 48.5875 60.4648 48.8211 60.6535C49.2343 60.9769 49.1086 61.6238 48.5965 61.8035C48.2551 61.9203 37.9769 61.9383 37.6894 61.8125Z" fill="black"/>
<path d="M35.0031 52.1004C34.6976 51.8578 34.6797 51.4086 34.9761 51.1391L35.1828 50.9414H43.1519C51.0043 50.9414 51.1211 50.9414 51.3007 51.1211C51.5703 51.3906 51.5433 51.8668 51.2468 52.1004C51.0043 52.2891 50.9593 52.2891 43.125 52.2891C35.2906 52.2891 35.2457 52.2891 35.0031 52.1004Z" fill="black"/>
<path d="M34.8144 42.7477C34.3562 42.4871 34.2754 41.993 34.6347 41.6426L34.8504 41.418H43.0621C51.2379 41.418 51.2738 41.418 51.5164 41.6066C51.8039 41.8312 51.8308 42.2805 51.5793 42.5949L51.4086 42.8105L43.1968 42.8285C37.1234 42.8465 34.9492 42.8285 34.8144 42.7477Z" fill="black"/>
<path d="M30.475 32.9457C30.1965 32.6492 30.2144 32.227 30.5109 31.9934L30.7535 31.8047H43.1609C56.4847 31.8137 55.775 31.7867 55.9636 32.2629C56.0625 32.5324 55.8918 33.0086 55.6582 33.0984C55.5773 33.1254 49.9172 33.1523 43.089 33.1523H30.6636L30.475 32.9457Z" fill="black"/>
</g>
<path id="Vector_2" d="M55.5504 72.3512C55.6312 72.3332 55.775 72.3332 55.8648 72.3512C55.9457 72.3781 55.8738 72.3961 55.7031 72.3961C55.5324 72.3961 55.4605 72.3781 55.5504 72.3512Z" fill="white"/>
</g>
</svg>

</g>
<g id="Black-S" transform="matrix(1 0 0 1 2887.4 614.7705)">
<svg width="92" height="92" viewBox="0 0 92 92" fill="none" xmlns="http://www.w3.org/2000/svg">
<g id="liquid.measure.0">
<g id="Vector">
<path d="M24.689 72.3152C23.7636 72.1805 23.0539 71.7582 22.5597 71.0305C22.0566 70.3117 22.1824 71.0305 20.5293 59.3418C20.107 56.377 19.2984 50.6988 18.7324 46.7187C18.1664 42.7387 17.6183 38.8844 17.5195 38.1387C17.1511 35.3984 17.1691 35.4434 13.0004 28.3906C11.1047 25.1832 9.19098 21.9039 8.87653 21.302C8.48122 20.5562 8.48122 20.3316 8.85856 19.9453L9.07418 19.7207L43.9875 19.6937C75.5496 19.6758 78.9547 19.6848 79.4488 19.8195C81.1019 20.2418 82.5843 21.7242 83.1414 23.5301C83.3211 24.1141 83.3211 24.3027 83.33 35.084V46.0449L83.0785 46.557C82.755 47.2129 82.0093 47.9047 81.3804 48.1293C80.6617 48.3719 78.9277 48.3539 78.2449 48.0754C77.5621 47.8148 76.9691 47.2758 76.6636 46.6469L76.4121 46.1348L76.3672 36.2699C76.3222 26.6027 76.3222 26.3961 76.1425 26.2703C75.9988 26.1625 75.325 26.1445 71.9648 26.1625L67.9668 26.1895L67.859 26.9531C67.7601 27.6539 67.5265 29.6035 65.9902 42.2715C65.3164 47.8598 64.355 55.6852 63.6093 61.7227C63.2679 64.4629 62.8996 67.4187 62.8007 68.2812C62.6929 69.1437 62.5851 69.9523 62.5582 70.0781C62.3605 70.9137 61.5429 71.8031 60.6625 72.1625L60.1504 72.3691L42.6757 72.3781C33.0625 72.3871 24.9675 72.3602 24.689 72.3152ZM60.2582 70.8238C60.6265 70.6262 61.0039 70.2039 61.1297 69.8625C61.2105 69.6379 62.9265 55.8738 64.2922 44.6074C64.4089 43.5742 64.6965 41.2652 64.9121 39.4863C65.2984 36.3687 65.8465 31.8047 66.3855 27.4113L66.6371 25.309L66.9246 25.0484L67.2031 24.7969H71.7851C74.7949 24.7969 76.439 24.8328 76.6097 24.8957C76.9691 25.0305 77.3464 25.4078 77.5441 25.8301C77.7058 26.1715 77.7148 26.6387 77.7148 35.8477C77.7148 41.9211 77.7507 45.6227 77.8047 45.8293C78.0113 46.557 78.6761 46.8984 79.898 46.8984C80.9222 46.8984 81.4164 46.6918 81.7308 46.1258L81.9375 45.7754V35.2098C81.9375 28.4355 81.9015 24.4645 81.8476 24.159C81.641 23.0719 80.7965 21.9488 79.7722 21.4187L79.2871 21.1582L10.314 21.1133L10.4398 21.3109C10.5117 21.4277 10.8261 21.9668 11.1406 22.5059C11.455 23.0539 12.6859 25.1473 13.8808 27.1777C17.9597 34.1137 18.0406 34.2664 18.4629 35.7129C18.6246 36.2609 18.939 38.2645 19.4601 41.957C21.3199 55.2539 23.3773 69.4402 23.5031 69.8176C23.6918 70.4195 24.2039 70.8418 24.8867 70.9855C25.0574 71.0215 32.9996 71.0394 42.541 71.0305L59.8808 71.0215L60.2582 70.8238Z" fill="black"/>
<path d="M37.6894 61.8125C37.1953 61.6148 37.0965 61.0219 37.5007 60.6715L37.7433 60.4648H43.1609C48.5066 60.4648 48.5875 60.4648 48.8211 60.6535C49.2343 60.9769 49.1086 61.6238 48.5965 61.8035C48.2551 61.9203 37.9769 61.9383 37.6894 61.8125Z" fill="black"/>
<path d="M35.0031 52.1004C34.6976 51.8578 34.6797 51.4086 34.9761 51.1391L35.1828 50.9414H43.1519C51.0043 50.9414 51.1211 50.9414 51.3007 51.1211C51.5703 51.3906 51.5433 51.8668 51.2468 52.1004C51.0043 52.2891 50.9593 52.2891 43.125 52.2891C35.2906 52.2891 35.2457 52.2891 35.0031 52.1004Z" fill="black"/>
<path d="M34.8144 42.7477C34.3562 42.4871 34.2754 41.993 34.6347 41.6426L34.8504 41.418H43.0621C51.2379 41.418 51.2738 41.418 51.5164 41.6066C51.8039 41.8312 51.8308 42.2805 51.5793 42.5949L51.4086 42.8105L43.1968 42.8285C37.1234 42.8465 34.9492 42.8285 34.8144 42.7477Z" fill="black"/>
<path d="M30.475 32.9457C30.1965 32.6492 30.2144 32.227 30.5109 31.9934L30.7535 31.8047H43.1609C56.4847 31.8137 55.775 31.7867 55.9636 32.2629C56.0625 32.5324 55.8918 33.0086 55.6582 33.0984C55.5773 33.1254 49.9172 33.1523 43.089 33.1523H30.6636L30.475 32.9457Z" fill="black"/>
</g>
<path id="Vector_2" d="M55.5504 72.3512C55.6312 72.3332 55.775 72.3332 55.8648 72.3512C55.9457 72.3781 55.8738 72.3961 55.7031 72.3961C55.5324 72.3961 55.4605 72.3781 55.5504 72.3512Z" fill="white"/>
</g>
</svg>

</g>
</g>
</svg>