<?xml version="1.0" encoding="UTF-8"?>
<!DOCTYPE svg
PUBLIC "-//W3C//DTD SVG 1.1//EN"
     "http://www.w3.org/Graphics/SVG/1.1/DTD/svg11.dtd">
     <!--Created with SF Symbol Generator (v1.0.0)-->

<svg version="1.1" xmlns="http://www.w3.org/2000/svg" xmlns:xlink="http://www.w3.org/1999/xlink" width="3300" height="2200">
<!--glyph: "3.weights.l.medium", point size: 100.0-->
<style>.SFSymbolsPreviewWireframe {fill:none;opacity:1.0;stroke:black;stroke-width:0.5}
</style>
<g id="Notes">
<rect height="2200" id="artboard" style="fill:white;opacity:1" width="3300" x="0" y="0"/>
<line style="fill:none;stroke:black;opacity:1;stroke-width:0.5;" x1="263" x2="3036" y1="292" y2="292"/>
<text style="stroke:none;fill:black;font-family:sans-serif;font-size:13;font-weight:bold;" transform="matrix(1 0 0 1 263 322)">Weight/Scale Variations</text>
<text style="stroke:none;fill:black;font-family:sans-serif;font-size:13;text-anchor:middle;" transform="matrix(1 0 0 1 559.711 322)">Ultralight</text>
<text style="stroke:none;fill:black;font-family:sans-serif;font-size:13;text-anchor:middle;" transform="matrix(1 0 0 1 856.422 322)">Thin</text>
<text style="stroke:none;fill:black;font-family:sans-serif;font-size:13;text-anchor:middle;" transform="matrix(1 0 0 1 1153.13 322)">Light</text>
<text style="stroke:none;fill:black;font-family:sans-serif;font-size:13;text-anchor:middle;" transform="matrix(1 0 0 1 1449.84 322)">Regular</text>
<text style="stroke:none;fill:black;font-family:sans-serif;font-size:13;text-anchor:middle;" transform="matrix(1 0 0 1 1746.56 322)">Medium</text>
<text style="stroke:none;fill:black;font-family:sans-serif;font-size:13;text-anchor:middle;" transform="matrix(1 0 0 1 2043.27 322)">Semibold</text>
<text style="stroke:none;fill:black;font-family:sans-serif;font-size:13;text-anchor:middle;" transform="matrix(1 0 0 1 2339.98 322)">Bold</text>
<text style="stroke:none;fill:black;font-family:sans-serif;font-size:13;text-anchor:middle;" transform="matrix(1 0 0 1 2636.69 322)">Heavy</text>
<text style="stroke:none;fill:black;font-family:sans-serif;font-size:13;text-anchor:middle;" transform="matrix(1 0 0 1 2933.4 322)">Black</text>
<line style="fill:none;stroke:black;opacity:1;stroke-width:0.5;" x1="263" x2="3036" y1="1903" y2="1903"/>
<text style="stroke:none;fill:black;font-family:sans-serif;font-size:13;font-weight:bold;" transform="matrix(1 0 0 1 263 1953)">Design Variations</text>
<text style="stroke:none;fill:black;font-family:sans-serif;font-size:13;" transform="matrix(1 0 0 1 263 1971)">Symbols are supported in up to nine weights and three scales.</text>
<text style="stroke:none;fill:black;font-family:sans-serif;font-size:13;" transform="matrix(1 0 0 1 263 1989)">For optimal layout with text and other symbols, vertically align</text>
<text style="stroke:none;fill:black;font-family:sans-serif;font-size:13;" transform="matrix(1 0 0 1 263 2007)">symbols with the adjacent text.</text>
<line style="fill:none;stroke:#00AEEF;stroke-width:0.5;opacity:1.0;" x1="776" x2="776" y1="1919" y2="1933"/>
<text style="stroke:none;fill:black;font-family:sans-serif;font-size:13;font-weight:bold;" transform="matrix(1 0 0 1 776 1953)">Margins</text>
<text style="stroke:none;fill:black;font-family:sans-serif;font-size:13;" transform="matrix(1 0 0 1 776 1971)">Leading and trailing margins on the left and right side of each symbol</text>
<text style="stroke:none;fill:black;font-family:sans-serif;font-size:13;" transform="matrix(1 0 0 1 776 1989)">can be adjusted by modifying the x-location of the margin guidelines.</text>
<text style="stroke:none;fill:black;font-family:sans-serif;font-size:13;" transform="matrix(1 0 0 1 776 2007)">Modifications are automatically applied proportionally to all</text>
<text style="stroke:none;fill:black;font-family:sans-serif;font-size:13;" transform="matrix(1 0 0 1 776 2025)">scales and weights.</text>
<text style="stroke:none;fill:black;font-family:sans-serif;font-size:13;font-weight:bold;" transform="matrix(1 0 0 1 1289 1953)">Exporting</text>
<text style="stroke:none;fill:black;font-family:sans-serif;font-size:13;" transform="matrix(1 0 0 1 1289 1971)">Symbols should be outlined when exporting to ensure the</text>
<text style="stroke:none;fill:black;font-family:sans-serif;font-size:13;" transform="matrix(1 0 0 1 1289 1989)">design is preserved when submitting to Xcode.</text>
<text id="template-version" style="stroke:none;fill:black;font-family:sans-serif;font-size:13;text-anchor:end;" transform="matrix(1 0 0 1 3036 1933)">Template v.5.0</text>
<text style="stroke:none;fill:black;font-family:sans-serif;font-size:13;text-anchor:end;" transform="matrix(1 0 0 1 3036 1951)">Requires Xcode 15 or greater</text>
<text id="descriptive-name" style="stroke:none;fill:black;font-family:sans-serif;font-size:13;text-anchor:end;" transform="matrix(1 0 0 1 3036 1969)">Generated from 3.weights.l</text>
<text style="stroke:none;fill:black;font-family:sans-serif;font-size:13;text-anchor:end;" transform="matrix(1 0 0 1 3036 1987)">Typeset at 100.0 points</text>
<text style="stroke:none;fill:black;font-family:sans-serif;font-size:13;" transform="matrix(1 0 0 1 263 726)">Small</text>
<text style="stroke:none;fill:black;font-family:sans-serif;font-size:13;" transform="matrix(1 0 0 1 263 1156)">Medium</text>
<text style="stroke:none;fill:black;font-family:sans-serif;font-size:13;" transform="matrix(1 0 0 1 263 1586)">Large</text>
</g>
<g id="Guides">
<g id="H-reference" style="fill:#27AAE1;stroke:none;" transform="matrix(1 0 0 1 339 696)">
 <path d="M0.993654 0L3.63775 0L29.3281-67.1323L30.0303-67.1323L30.0303-70.459L28.1226-70.459ZM11.6885-24.4799L46.9815-24.4799L46.2315-26.7285L12.4385-26.7285ZM55.1196 0L57.7637 0L30.6382-70.459L29.4326-70.459L29.4326-67.1323Z"/>
</g>
<line id="Baseline-S" style="fill:none;stroke:#27AAE1;opacity:1;stroke-width:0.5;" x1="263" x2="3036" y1="696" y2="696"/>
<line id="Capline-S" style="fill:none;stroke:#27AAE1;opacity:1;stroke-width:0.5;" x1="263" x2="3036" y1="625.541" y2="625.541"/>
<g id="H-reference" style="fill:#27AAE1;stroke:none;" transform="matrix(1 0 0 1 339 1126)">
 <path d="M0.993654 0L3.63775 0L29.3281-67.1323L30.0303-67.1323L30.0303-70.459L28.1226-70.459ZM11.6885-24.4799L46.9815-24.4799L46.2315-26.7285L12.4385-26.7285ZM55.1196 0L57.7637 0L30.6382-70.459L29.4326-70.459L29.4326-67.1323Z"/>
</g>
<line id="Baseline-M" style="fill:none;stroke:#27AAE1;opacity:1;stroke-width:0.5;" x1="263" x2="3036" y1="1126" y2="1126"/>
<line id="Capline-M" style="fill:none;stroke:#27AAE1;opacity:1;stroke-width:0.5;" x1="263" x2="3036" y1="1055.54" y2="1055.54"/>
<g id="H-reference" style="fill:#27AAE1;stroke:none;" transform="matrix(1 0 0 1 339 1556)">
 <path d="M0.993654 0L3.63775 0L29.3281-67.1323L30.0303-67.1323L30.0303-70.459L28.1226-70.459ZM11.6885-24.4799L46.9815-24.4799L46.2315-26.7285L12.4385-26.7285ZM55.1196 0L57.7637 0L30.6382-70.459L29.4326-70.459L29.4326-67.1323Z"/>
</g>
<line id="Baseline-L" style="fill:none;stroke:#27AAE1;opacity:1;stroke-width:0.5;" x1="263" x2="3036" y1="1556" y2="1556"/>
<line id="Capline-L" style="fill:none;stroke:#27AAE1;opacity:1;stroke-width:0.5;" x1="263" x2="3036" y1="1485.54" y2="1485.54"/>
<line id="left-margin-Ultralight-S" style="fill:none;stroke:#00AEEF;stroke-width:0.5;opacity:1.0;" x1="513.711" x2="513.711" y1="600.785" y2="720.121"/>
<line id="right-margin-Ultralight-S" style="fill:none;stroke:#00AEEF;stroke-width:0.5;opacity:1.0;" x1="605.711" x2="605.711" y1="600.785" y2="720.121"/>
<line id="left-margin-Regular-S" style="fill:none;stroke:#00AEEF;stroke-width:0.5;opacity:1.0;" x1="1403.84" x2="1403.84" y1="600.785" y2="720.121"/>
<line id="right-margin-Regular-S" style="fill:none;stroke:#00AEEF;stroke-width:0.5;opacity:1.0;" x1="1495.84" x2="1495.84" y1="600.785" y2="720.121"/>
<line id="left-margin-Black-S" style="fill:none;stroke:#00AEEF;stroke-width:0.5;opacity:1.0;" x1="2887.4" x2="2887.4" y1="600.785" y2="720.121"/>
<line id="right-margin-Black-S" style="fill:none;stroke:#00AEEF;stroke-width:0.5;opacity:1.0;" x1="2979.4" x2="2979.4" y1="600.785" y2="720.121"/>
</g>
<g id="Symbols">
<g id="Ultralight-S" transform="matrix(1 0 0 1 513.711 614.7705)">
<svg width="92" height="92" viewBox="0 0 92 92" fill="none" xmlns="http://www.w3.org/2000/svg">
<g id="3.weights.l">
<g id="Vector">
<path d="M2.11966 78.7997C1.41694 78.5923 0.656633 77.9818 0.322557 77.3251L0 76.7146V71.7149C0 66.1969 -3.42727e-07 66.22 0.714232 65.4827C0.979189 65.2062 1.33631 65.0219 2.00446 64.8145C2.96061 64.5265 3.80156 64.0657 4.19324 63.6165C4.31995 63.4897 4.38907 63.363 4.36603 63.34C4.34299 63.3285 4.03196 63.1787 3.67484 63.0059C2.00446 62.2226 1.18655 60.7135 1.48606 59.0316C1.75102 57.6146 2.51133 56.6124 3.79004 56.0133L4.43515 55.7138H8.69751C13.5704 55.7138 13.5013 55.7023 14.6302 56.7621C16.7729 58.7666 16.0933 62.165 13.34 63.1557C12.8331 63.3285 12.8101 63.3976 13.1672 63.7317C13.7202 64.2616 14.3077 64.5611 15.5749 64.9413C16.3813 65.1716 17.0955 65.8744 17.2453 66.5656C17.2913 66.8075 17.3374 69.2036 17.3374 71.8993C17.3374 77.3827 17.3374 77.3712 16.5541 78.1315C15.7246 78.9264 15.7246 78.9264 8.70903 78.9149C5.27611 78.9149 2.3155 78.8573 2.11966 78.7997ZM14.7224 71.8186L14.6878 67.3604L13.8584 67.0494C12.764 66.6462 12.0037 66.1508 11.278 65.356C10.5522 64.5611 10.2181 63.8584 10.2181 63.0866C10.2066 62.0613 10.7596 61.3586 11.8424 61.013C12.6949 60.748 13.0866 60.46 13.2479 59.9877C13.3976 59.5269 13.2133 58.974 12.7871 58.5938C12.5451 58.3749 12.3493 58.3634 8.87031 58.3288C4.78075 58.2943 4.55035 58.3288 4.20476 59.0085C3.96284 59.4693 4.04348 60.0799 4.38907 60.46C4.53883 60.6098 4.98811 60.8287 5.40282 60.9554C6.54329 61.301 7.25752 62.0958 7.25752 63.0059C7.25752 64.515 5.09179 66.7268 3.22557 67.1185C3.00669 67.1646 2.75325 67.2568 2.68413 67.3144C2.56893 67.4065 2.53437 68.4548 2.53437 71.8532V76.2768H14.7454L14.7224 71.8186Z" fill="black"/>
<path d="M21.45 78.7075C20.6206 78.4195 20.0446 77.9242 19.676 77.1869L19.3649 76.5648L19.2958 55.0226L19.5838 54.5158C19.9755 53.8246 20.3902 53.6057 21.8532 53.3523C23.466 53.0643 24.7101 52.4652 25.7354 51.463C26.3805 50.8409 27.0602 49.8387 26.922 49.712C26.8989 49.6774 26.4957 49.5507 26.0464 49.424C24.3069 48.9517 23.2932 48.1683 22.6596 46.809C21.4846 44.2861 22.7863 41.2103 25.4129 40.3348C26.0925 40.1044 26.3344 40.0929 33.0736 40.1274L40.0316 40.162L40.6882 40.4845C41.702 40.9799 42.4392 41.7172 42.9346 42.7309C43.3608 43.5719 43.3723 43.641 43.3723 44.8275C43.3723 46.0026 43.3608 46.0717 42.9346 46.9242C42.2664 48.2835 41.126 49.1475 39.6053 49.447C39.2252 49.5276 38.8911 49.6544 38.8566 49.735C38.6722 50.2304 40.3772 52.0275 41.6328 52.6495C42.301 52.9721 42.6581 53.0758 44.6165 53.4675C45.4459 53.6287 46.1026 54.2047 46.2984 54.9305C46.3906 55.2646 46.4251 58.444 46.4021 65.932L46.3675 76.4611L46.0795 77.0256C45.9067 77.3597 45.5266 77.7974 45.181 78.0854C44.0981 78.9609 44.6856 78.9264 32.728 78.9264C22.6942 78.9149 22.026 78.9033 21.45 78.7075ZM43.5567 75.9427C43.764 75.6893 43.7755 75.3552 43.7755 65.8513V56.0249L43.2917 55.9442C40.0892 55.4489 36.7715 52.6956 36.2876 50.1382C35.9766 48.4793 36.8175 47.3504 38.5916 47.0163C38.9948 46.9472 39.5247 46.7859 39.7666 46.6592C40.2044 46.4403 40.6882 45.7491 40.8265 45.1386C40.9993 44.3898 40.3426 43.2378 39.5477 42.9152C39.2482 42.7885 37.9004 42.754 32.8086 42.754C26.8528 42.754 26.4036 42.777 25.9658 42.9728C24.7793 43.5143 24.4337 44.9888 25.2401 46.0832C25.6548 46.6592 26.0925 46.8896 27.0372 47.0278C27.8896 47.143 28.2467 47.3158 28.7536 47.8112C29.3527 48.3987 29.5255 48.8941 29.4679 49.7811C29.3527 51.2787 27.9703 53.2025 26.1156 54.4351C24.9751 55.1839 24.3761 55.4489 23.2586 55.7138C22.7863 55.829 22.314 55.9557 22.1873 55.9903C21.9799 56.0709 21.9684 56.382 21.9914 65.8859C22.003 71.2772 22.0375 75.7699 22.0721 75.8621C22.1066 75.9427 22.2449 76.0695 22.3831 76.1386C22.5559 76.2307 25.8391 76.2538 32.9814 76.2423L43.3378 76.2192L43.5567 75.9427Z" fill="black"/>
<path d="M57.9565 14.3689C59.6384 13.5626 59.1086 13.5971 70.398 13.6317L80.5816 13.6663L81.388 14.0004C84.1297 15.1293 85.754 17.4448 85.754 20.2326C85.754 22.1103 85.1434 23.5388 83.7495 24.9096C82.5169 26.1307 81.5147 26.6031 79.4641 26.9141C78.9112 26.9947 78.7614 27.2597 78.9342 27.8472C79.8327 31.1303 84.1758 33.8836 88.4727 33.8836C90.408 33.8837 91.7213 35.0587 91.9286 36.9595C91.9747 37.4552 92.0093 46.4175 91.9978 56.8658L91.9863 75.8736L91.6637 76.5763C91.2605 77.4518 90.5808 78.1315 89.6823 78.5462L88.9911 78.8688L70.2136 78.8918C54.9037 78.9033 51.3441 78.8803 50.9524 78.7651C49.6161 78.3388 48.4987 77.233 48.2338 76.0464C48.1992 75.8851 48.1531 66.9226 48.1416 56.117C48.1185 41.1413 48.1416 36.3605 48.2453 36.0033C48.4296 35.3812 49.1438 34.5863 49.835 34.2407C50.2843 34.0103 50.6414 33.9413 51.8855 33.8722C54.2701 33.7339 55.9636 33.1925 57.7607 31.9944C59.5463 30.8078 61.1706 28.6881 61.1706 27.5361C61.1706 27.1215 61.1475 27.0869 60.7443 26.9832C60.5024 26.9256 59.9495 26.8105 59.5002 26.7413C58.0026 26.4994 56.5857 25.5893 55.5604 24.2184C54.1089 22.2946 53.8669 19.5298 54.9728 17.3065C55.5028 16.2121 56.8506 14.8873 57.9565 14.3689Z" fill="black"/>
</g>
</g>
</svg>

</g>
<g id="Regular-S" transform="matrix(1 0 0 1 1403.84 614.7705)">
<svg width="92" height="92" viewBox="0 0 92 92" fill="none" xmlns="http://www.w3.org/2000/svg">
<g id="3.weights.l">
<g id="Vector">
<path d="M2.11966 78.7997C1.41694 78.5923 0.656633 77.9818 0.322557 77.3251L0 76.7146V71.7149C0 66.1969 -3.42727e-07 66.22 0.714232 65.4827C0.979189 65.2062 1.33631 65.0219 2.00446 64.8145C2.96061 64.5265 3.80156 64.0657 4.19324 63.6165C4.31995 63.4897 4.38907 63.363 4.36603 63.34C4.34299 63.3285 4.03196 63.1787 3.67484 63.0059C2.00446 62.2226 1.18655 60.7135 1.48606 59.0316C1.75102 57.6146 2.51133 56.6124 3.79004 56.0133L4.43515 55.7138H8.69751C13.5704 55.7138 13.5013 55.7023 14.6302 56.7621C16.7729 58.7666 16.0933 62.165 13.34 63.1557C12.8331 63.3285 12.8101 63.3976 13.1672 63.7317C13.7202 64.2616 14.3077 64.5611 15.5749 64.9413C16.3813 65.1716 17.0955 65.8744 17.2453 66.5656C17.2913 66.8075 17.3374 69.2036 17.3374 71.8993C17.3374 77.3827 17.3374 77.3712 16.5541 78.1315C15.7246 78.9264 15.7246 78.9264 8.70903 78.9149C5.27611 78.9149 2.3155 78.8573 2.11966 78.7997ZM14.7224 71.8186L14.6878 67.3604L13.8584 67.0494C12.764 66.6462 12.0037 66.1508 11.278 65.356C10.5522 64.5611 10.2181 63.8584 10.2181 63.0866C10.2066 62.0613 10.7596 61.3586 11.8424 61.013C12.6949 60.748 13.0866 60.46 13.2479 59.9877C13.3976 59.5269 13.2133 58.974 12.7871 58.5938C12.5451 58.3749 12.3493 58.3634 8.87031 58.3288C4.78075 58.2943 4.55035 58.3288 4.20476 59.0085C3.96284 59.4693 4.04348 60.0799 4.38907 60.46C4.53883 60.6098 4.98811 60.8287 5.40282 60.9554C6.54329 61.301 7.25752 62.0958 7.25752 63.0059C7.25752 64.515 5.09179 66.7268 3.22557 67.1185C3.00669 67.1646 2.75325 67.2568 2.68413 67.3144C2.56893 67.4065 2.53437 68.4548 2.53437 71.8532V76.2768H14.7454L14.7224 71.8186Z" fill="black"/>
<path d="M21.45 78.7075C20.6206 78.4195 20.0446 77.9242 19.676 77.1869L19.3649 76.5648L19.2958 55.0226L19.5838 54.5158C19.9755 53.8246 20.3902 53.6057 21.8532 53.3523C23.466 53.0643 24.7101 52.4652 25.7354 51.463C26.3805 50.8409 27.0602 49.8387 26.922 49.712C26.8989 49.6774 26.4957 49.5507 26.0464 49.424C24.3069 48.9517 23.2932 48.1683 22.6596 46.809C21.4846 44.2861 22.7863 41.2103 25.4129 40.3348C26.0925 40.1044 26.3344 40.0929 33.0736 40.1274L40.0316 40.162L40.6882 40.4845C41.702 40.9799 42.4392 41.7172 42.9346 42.7309C43.3608 43.5719 43.3723 43.641 43.3723 44.8275C43.3723 46.0026 43.3608 46.0717 42.9346 46.9242C42.2664 48.2835 41.126 49.1475 39.6053 49.447C39.2252 49.5276 38.8911 49.6544 38.8566 49.735C38.6722 50.2304 40.3772 52.0275 41.6328 52.6495C42.301 52.9721 42.6581 53.0758 44.6165 53.4675C45.4459 53.6287 46.1026 54.2047 46.2984 54.9305C46.3906 55.2646 46.4251 58.444 46.4021 65.932L46.3675 76.4611L46.0795 77.0256C45.9067 77.3597 45.5266 77.7974 45.181 78.0854C44.0981 78.9609 44.6856 78.9264 32.728 78.9264C22.6942 78.9149 22.026 78.9033 21.45 78.7075ZM43.5567 75.9427C43.764 75.6893 43.7755 75.3552 43.7755 65.8513V56.0249L43.2917 55.9442C40.0892 55.4489 36.7715 52.6956 36.2876 50.1382C35.9766 48.4793 36.8175 47.3504 38.5916 47.0163C38.9948 46.9472 39.5247 46.7859 39.7666 46.6592C40.2044 46.4403 40.6882 45.7491 40.8265 45.1386C40.9993 44.3898 40.3426 43.2378 39.5477 42.9152C39.2482 42.7885 37.9004 42.754 32.8086 42.754C26.8528 42.754 26.4036 42.777 25.9658 42.9728C24.7793 43.5143 24.4337 44.9888 25.2401 46.0832C25.6548 46.6592 26.0925 46.8896 27.0372 47.0278C27.8896 47.143 28.2467 47.3158 28.7536 47.8112C29.3527 48.3987 29.5255 48.8941 29.4679 49.7811C29.3527 51.2787 27.9703 53.2025 26.1156 54.4351C24.9751 55.1839 24.3761 55.4489 23.2586 55.7138C22.7863 55.829 22.314 55.9557 22.1873 55.9903C21.9799 56.0709 21.9684 56.382 21.9914 65.8859C22.003 71.2772 22.0375 75.7699 22.0721 75.8621C22.1066 75.9427 22.2449 76.0695 22.3831 76.1386C22.5559 76.2307 25.8391 76.2538 32.9814 76.2423L43.3378 76.2192L43.5567 75.9427Z" fill="black"/>
<path d="M57.9565 14.3689C59.6384 13.5626 59.1086 13.5971 70.398 13.6317L80.5816 13.6663L81.388 14.0004C84.1297 15.1293 85.754 17.4448 85.754 20.2326C85.754 22.1103 85.1434 23.5388 83.7495 24.9096C82.5169 26.1307 81.5147 26.6031 79.4641 26.9141C78.9112 26.9947 78.7614 27.2597 78.9342 27.8472C79.8327 31.1303 84.1758 33.8836 88.4727 33.8836C90.408 33.8837 91.7213 35.0587 91.9286 36.9595C91.9747 37.4552 92.0093 46.4175 91.9978 56.8658L91.9863 75.8736L91.6637 76.5763C91.2605 77.4518 90.5808 78.1315 89.6823 78.5462L88.9911 78.8688L70.2136 78.8918C54.9037 78.9033 51.3441 78.8803 50.9524 78.7651C49.6161 78.3388 48.4987 77.233 48.2338 76.0464C48.1992 75.8851 48.1531 66.9226 48.1416 56.117C48.1185 41.1413 48.1416 36.3605 48.2453 36.0033C48.4296 35.3812 49.1438 34.5863 49.835 34.2407C50.2843 34.0103 50.6414 33.9413 51.8855 33.8722C54.2701 33.7339 55.9636 33.1925 57.7607 31.9944C59.5463 30.8078 61.1706 28.6881 61.1706 27.5361C61.1706 27.1215 61.1475 27.0869 60.7443 26.9832C60.5024 26.9256 59.9495 26.8105 59.5002 26.7413C58.0026 26.4994 56.5857 25.5893 55.5604 24.2184C54.1089 22.2946 53.8669 19.5298 54.9728 17.3065C55.5028 16.2121 56.8506 14.8873 57.9565 14.3689Z" fill="black"/>
</g>
</g>
</svg>

</g>
<g id="Black-S" transform="matrix(1 0 0 1 2887.4 614.7705)">
<svg width="92" height="92" viewBox="0 0 92 92" fill="none" xmlns="http://www.w3.org/2000/svg">
<g id="3.weights.l">
<g id="Vector">
<path d="M2.11966 78.7997C1.41694 78.5923 0.656633 77.9818 0.322557 77.3251L0 76.7146V71.7149C0 66.1969 -3.42727e-07 66.22 0.714232 65.4827C0.979189 65.2062 1.33631 65.0219 2.00446 64.8145C2.96061 64.5265 3.80156 64.0657 4.19324 63.6165C4.31995 63.4897 4.38907 63.363 4.36603 63.34C4.34299 63.3285 4.03196 63.1787 3.67484 63.0059C2.00446 62.2226 1.18655 60.7135 1.48606 59.0316C1.75102 57.6146 2.51133 56.6124 3.79004 56.0133L4.43515 55.7138H8.69751C13.5704 55.7138 13.5013 55.7023 14.6302 56.7621C16.7729 58.7666 16.0933 62.165 13.34 63.1557C12.8331 63.3285 12.8101 63.3976 13.1672 63.7317C13.7202 64.2616 14.3077 64.5611 15.5749 64.9413C16.3813 65.1716 17.0955 65.8744 17.2453 66.5656C17.2913 66.8075 17.3374 69.2036 17.3374 71.8993C17.3374 77.3827 17.3374 77.3712 16.5541 78.1315C15.7246 78.9264 15.7246 78.9264 8.70903 78.9149C5.27611 78.9149 2.3155 78.8573 2.11966 78.7997ZM14.7224 71.8186L14.6878 67.3604L13.8584 67.0494C12.764 66.6462 12.0037 66.1508 11.278 65.356C10.5522 64.5611 10.2181 63.8584 10.2181 63.0866C10.2066 62.0613 10.7596 61.3586 11.8424 61.013C12.6949 60.748 13.0866 60.46 13.2479 59.9877C13.3976 59.5269 13.2133 58.974 12.7871 58.5938C12.5451 58.3749 12.3493 58.3634 8.87031 58.3288C4.78075 58.2943 4.55035 58.3288 4.20476 59.0085C3.96284 59.4693 4.04348 60.0799 4.38907 60.46C4.53883 60.6098 4.98811 60.8287 5.40282 60.9554C6.54329 61.301 7.25752 62.0958 7.25752 63.0059C7.25752 64.515 5.09179 66.7268 3.22557 67.1185C3.00669 67.1646 2.75325 67.2568 2.68413 67.3144C2.56893 67.4065 2.53437 68.4548 2.53437 71.8532V76.2768H14.7454L14.7224 71.8186Z" fill="black"/>
<path d="M21.45 78.7075C20.6206 78.4195 20.0446 77.9242 19.676 77.1869L19.3649 76.5648L19.2958 55.0226L19.5838 54.5158C19.9755 53.8246 20.3902 53.6057 21.8532 53.3523C23.466 53.0643 24.7101 52.4652 25.7354 51.463C26.3805 50.8409 27.0602 49.8387 26.922 49.712C26.8989 49.6774 26.4957 49.5507 26.0464 49.424C24.3069 48.9517 23.2932 48.1683 22.6596 46.809C21.4846 44.2861 22.7863 41.2103 25.4129 40.3348C26.0925 40.1044 26.3344 40.0929 33.0736 40.1274L40.0316 40.162L40.6882 40.4845C41.702 40.9799 42.4392 41.7172 42.9346 42.7309C43.3608 43.5719 43.3723 43.641 43.3723 44.8275C43.3723 46.0026 43.3608 46.0717 42.9346 46.9242C42.2664 48.2835 41.126 49.1475 39.6053 49.447C39.2252 49.5276 38.8911 49.6544 38.8566 49.735C38.6722 50.2304 40.3772 52.0275 41.6328 52.6495C42.301 52.9721 42.6581 53.0758 44.6165 53.4675C45.4459 53.6287 46.1026 54.2047 46.2984 54.9305C46.3906 55.2646 46.4251 58.444 46.4021 65.932L46.3675 76.4611L46.0795 77.0256C45.9067 77.3597 45.5266 77.7974 45.181 78.0854C44.0981 78.9609 44.6856 78.9264 32.728 78.9264C22.6942 78.9149 22.026 78.9033 21.45 78.7075ZM43.5567 75.9427C43.764 75.6893 43.7755 75.3552 43.7755 65.8513V56.0249L43.2917 55.9442C40.0892 55.4489 36.7715 52.6956 36.2876 50.1382C35.9766 48.4793 36.8175 47.3504 38.5916 47.0163C38.9948 46.9472 39.5247 46.7859 39.7666 46.6592C40.2044 46.4403 40.6882 45.7491 40.8265 45.1386C40.9993 44.3898 40.3426 43.2378 39.5477 42.9152C39.2482 42.7885 37.9004 42.754 32.8086 42.754C26.8528 42.754 26.4036 42.777 25.9658 42.9728C24.7793 43.5143 24.4337 44.9888 25.2401 46.0832C25.6548 46.6592 26.0925 46.8896 27.0372 47.0278C27.8896 47.143 28.2467 47.3158 28.7536 47.8112C29.3527 48.3987 29.5255 48.8941 29.4679 49.7811C29.3527 51.2787 27.9703 53.2025 26.1156 54.4351C24.9751 55.1839 24.3761 55.4489 23.2586 55.7138C22.7863 55.829 22.314 55.9557 22.1873 55.9903C21.9799 56.0709 21.9684 56.382 21.9914 65.8859C22.003 71.2772 22.0375 75.7699 22.0721 75.8621C22.1066 75.9427 22.2449 76.0695 22.3831 76.1386C22.5559 76.2307 25.8391 76.2538 32.9814 76.2423L43.3378 76.2192L43.5567 75.9427Z" fill="black"/>
<path d="M57.9565 14.3689C59.6384 13.5626 59.1086 13.5971 70.398 13.6317L80.5816 13.6663L81.388 14.0004C84.1297 15.1293 85.754 17.4448 85.754 20.2326C85.754 22.1103 85.1434 23.5388 83.7495 24.9096C82.5169 26.1307 81.5147 26.6031 79.4641 26.9141C78.9112 26.9947 78.7614 27.2597 78.9342 27.8472C79.8327 31.1303 84.1758 33.8836 88.4727 33.8836C90.408 33.8837 91.7213 35.0587 91.9286 36.9595C91.9747 37.4552 92.0093 46.4175 91.9978 56.8658L91.9863 75.8736L91.6637 76.5763C91.2605 77.4518 90.5808 78.1315 89.6823 78.5462L88.9911 78.8688L70.2136 78.8918C54.9037 78.9033 51.3441 78.8803 50.9524 78.7651C49.6161 78.3388 48.4987 77.233 48.2338 76.0464C48.1992 75.8851 48.1531 66.9226 48.1416 56.117C48.1185 41.1413 48.1416 36.3605 48.2453 36.0033C48.4296 35.3812 49.1438 34.5863 49.835 34.2407C50.2843 34.0103 50.6414 33.9413 51.8855 33.8722C54.2701 33.7339 55.9636 33.1925 57.7607 31.9944C59.5463 30.8078 61.1706 28.6881 61.1706 27.5361C61.1706 27.1215 61.1475 27.0869 60.7443 26.9832C60.5024 26.9256 59.9495 26.8105 59.5002 26.7413C58.0026 26.4994 56.5857 25.5893 55.5604 24.2184C54.1089 22.2946 53.8669 19.5298 54.9728 17.3065C55.5028 16.2121 56.8506 14.8873 57.9565 14.3689Z" fill="black"/>
</g>
</g>
</svg>

</g>
</g>
</svg>