<?xml version="1.0" encoding="UTF-8"?>
<!DOCTYPE svg
PUBLIC "-//W3C//DTD SVG 1.1//EN"
     "http://www.w3.org/Graphics/SVG/1.1/DTD/svg11.dtd">
     <!--Created with SF Symbol Generator (v1.0.0)-->

<svg version="1.1" xmlns="http://www.w3.org/2000/svg" xmlns:xlink="http://www.w3.org/1999/xlink" width="3300" height="2200">
<!--glyph: "3.weights.l.medium", point size: 100.0-->
<style>.SFSymbolsPreviewWireframe {fill:none;opacity:1.0;stroke:black;stroke-width:0.5}
</style>
<g id="Notes">
<rect height="2200" id="artboard" style="fill:white;opacity:1" width="3300" x="0" y="0"/>
<line style="fill:none;stroke:black;opacity:1;stroke-width:0.5;" x1="263" x2="3036" y1="292" y2="292"/>
<text style="stroke:none;fill:black;font-family:sans-serif;font-size:13;font-weight:bold;" transform="matrix(1 0 0 1 263 322)">Weight/Scale Variations</text>
<text style="stroke:none;fill:black;font-family:sans-serif;font-size:13;text-anchor:middle;" transform="matrix(1 0 0 1 559.711 322)">Ultralight</text>
<text style="stroke:none;fill:black;font-family:sans-serif;font-size:13;text-anchor:middle;" transform="matrix(1 0 0 1 856.422 322)">Thin</text>
<text style="stroke:none;fill:black;font-family:sans-serif;font-size:13;text-anchor:middle;" transform="matrix(1 0 0 1 1153.13 322)">Light</text>
<text style="stroke:none;fill:black;font-family:sans-serif;font-size:13;text-anchor:middle;" transform="matrix(1 0 0 1 1449.84 322)">Regular</text>
<text style="stroke:none;fill:black;font-family:sans-serif;font-size:13;text-anchor:middle;" transform="matrix(1 0 0 1 1746.56 322)">Medium</text>
<text style="stroke:none;fill:black;font-family:sans-serif;font-size:13;text-anchor:middle;" transform="matrix(1 0 0 1 2043.27 322)">Semibold</text>
<text style="stroke:none;fill:black;font-family:sans-serif;font-size:13;text-anchor:middle;" transform="matrix(1 0 0 1 2339.98 322)">Bold</text>
<text style="stroke:none;fill:black;font-family:sans-serif;font-size:13;text-anchor:middle;" transform="matrix(1 0 0 1 2636.69 322)">Heavy</text>
<text style="stroke:none;fill:black;font-family:sans-serif;font-size:13;text-anchor:middle;" transform="matrix(1 0 0 1 2933.4 322)">Black</text>
<line style="fill:none;stroke:black;opacity:1;stroke-width:0.5;" x1="263" x2="3036" y1="1903" y2="1903"/>
<text style="stroke:none;fill:black;font-family:sans-serif;font-size:13;font-weight:bold;" transform="matrix(1 0 0 1 263 1953)">Design Variations</text>
<text style="stroke:none;fill:black;font-family:sans-serif;font-size:13;" transform="matrix(1 0 0 1 263 1971)">Symbols are supported in up to nine weights and three scales.</text>
<text style="stroke:none;fill:black;font-family:sans-serif;font-size:13;" transform="matrix(1 0 0 1 263 1989)">For optimal layout with text and other symbols, vertically align</text>
<text style="stroke:none;fill:black;font-family:sans-serif;font-size:13;" transform="matrix(1 0 0 1 263 2007)">symbols with the adjacent text.</text>
<line style="fill:none;stroke:#00AEEF;stroke-width:0.5;opacity:1.0;" x1="776" x2="776" y1="1919" y2="1933"/>
<text style="stroke:none;fill:black;font-family:sans-serif;font-size:13;font-weight:bold;" transform="matrix(1 0 0 1 776 1953)">Margins</text>
<text style="stroke:none;fill:black;font-family:sans-serif;font-size:13;" transform="matrix(1 0 0 1 776 1971)">Leading and trailing margins on the left and right side of each symbol</text>
<text style="stroke:none;fill:black;font-family:sans-serif;font-size:13;" transform="matrix(1 0 0 1 776 1989)">can be adjusted by modifying the x-location of the margin guidelines.</text>
<text style="stroke:none;fill:black;font-family:sans-serif;font-size:13;" transform="matrix(1 0 0 1 776 2007)">Modifications are automatically applied proportionally to all</text>
<text style="stroke:none;fill:black;font-family:sans-serif;font-size:13;" transform="matrix(1 0 0 1 776 2025)">scales and weights.</text>
<text style="stroke:none;fill:black;font-family:sans-serif;font-size:13;font-weight:bold;" transform="matrix(1 0 0 1 1289 1953)">Exporting</text>
<text style="stroke:none;fill:black;font-family:sans-serif;font-size:13;" transform="matrix(1 0 0 1 1289 1971)">Symbols should be outlined when exporting to ensure the</text>
<text style="stroke:none;fill:black;font-family:sans-serif;font-size:13;" transform="matrix(1 0 0 1 1289 1989)">design is preserved when submitting to Xcode.</text>
<text id="template-version" style="stroke:none;fill:black;font-family:sans-serif;font-size:13;text-anchor:end;" transform="matrix(1 0 0 1 3036 1933)">Template v.5.0</text>
<text style="stroke:none;fill:black;font-family:sans-serif;font-size:13;text-anchor:end;" transform="matrix(1 0 0 1 3036 1951)">Requires Xcode 15 or greater</text>
<text id="descriptive-name" style="stroke:none;fill:black;font-family:sans-serif;font-size:13;text-anchor:end;" transform="matrix(1 0 0 1 3036 1969)">Generated from 3.weights.l</text>
<text style="stroke:none;fill:black;font-family:sans-serif;font-size:13;text-anchor:end;" transform="matrix(1 0 0 1 3036 1987)">Typeset at 100.0 points</text>
<text style="stroke:none;fill:black;font-family:sans-serif;font-size:13;" transform="matrix(1 0 0 1 263 726)">Small</text>
<text style="stroke:none;fill:black;font-family:sans-serif;font-size:13;" transform="matrix(1 0 0 1 263 1156)">Medium</text>
<text style="stroke:none;fill:black;font-family:sans-serif;font-size:13;" transform="matrix(1 0 0 1 263 1586)">Large</text>
</g>
<g id="Guides">
<g id="H-reference" style="fill:#27AAE1;stroke:none;" transform="matrix(1 0 0 1 339 696)">
 <path d="M0.993654 0L3.63775 0L29.3281-67.1323L30.0303-67.1323L30.0303-70.459L28.1226-70.459ZM11.6885-24.4799L46.9815-24.4799L46.2315-26.7285L12.4385-26.7285ZM55.1196 0L57.7637 0L30.6382-70.459L29.4326-70.459L29.4326-67.1323Z"/>
</g>
<line id="Baseline-S" style="fill:none;stroke:#27AAE1;opacity:1;stroke-width:0.5;" x1="263" x2="3036" y1="696" y2="696"/>
<line id="Capline-S" style="fill:none;stroke:#27AAE1;opacity:1;stroke-width:0.5;" x1="263" x2="3036" y1="625.541" y2="625.541"/>
<g id="H-reference" style="fill:#27AAE1;stroke:none;" transform="matrix(1 0 0 1 339 1126)">
 <path d="M0.993654 0L3.63775 0L29.3281-67.1323L30.0303-67.1323L30.0303-70.459L28.1226-70.459ZM11.6885-24.4799L46.9815-24.4799L46.2315-26.7285L12.4385-26.7285ZM55.1196 0L57.7637 0L30.6382-70.459L29.4326-70.459L29.4326-67.1323Z"/>
</g>
<line id="Baseline-M" style="fill:none;stroke:#27AAE1;opacity:1;stroke-width:0.5;" x1="263" x2="3036" y1="1126" y2="1126"/>
<line id="Capline-M" style="fill:none;stroke:#27AAE1;opacity:1;stroke-width:0.5;" x1="263" x2="3036" y1="1055.54" y2="1055.54"/>
<g id="H-reference" style="fill:#27AAE1;stroke:none;" transform="matrix(1 0 0 1 339 1556)">
 <path d="M0.993654 0L3.63775 0L29.3281-67.1323L30.0303-67.1323L30.0303-70.459L28.1226-70.459ZM11.6885-24.4799L46.9815-24.4799L46.2315-26.7285L12.4385-26.7285ZM55.1196 0L57.7637 0L30.6382-70.459L29.4326-70.459L29.4326-67.1323Z"/>
</g>
<line id="Baseline-L" style="fill:none;stroke:#27AAE1;opacity:1;stroke-width:0.5;" x1="263" x2="3036" y1="1556" y2="1556"/>
<line id="Capline-L" style="fill:none;stroke:#27AAE1;opacity:1;stroke-width:0.5;" x1="263" x2="3036" y1="1485.54" y2="1485.54"/>
<line id="left-margin-Ultralight-S" style="fill:none;stroke:#00AEEF;stroke-width:0.5;opacity:1.0;" x1="513.711" x2="513.711" y1="600.785" y2="720.121"/>
<line id="right-margin-Ultralight-S" style="fill:none;stroke:#00AEEF;stroke-width:0.5;opacity:1.0;" x1="605.711" x2="605.711" y1="600.785" y2="720.121"/>
<line id="left-margin-Regular-S" style="fill:none;stroke:#00AEEF;stroke-width:0.5;opacity:1.0;" x1="1403.84" x2="1403.84" y1="600.785" y2="720.121"/>
<line id="right-margin-Regular-S" style="fill:none;stroke:#00AEEF;stroke-width:0.5;opacity:1.0;" x1="1495.84" x2="1495.84" y1="600.785" y2="720.121"/>
<line id="left-margin-Black-S" style="fill:none;stroke:#00AEEF;stroke-width:0.5;opacity:1.0;" x1="2887.4" x2="2887.4" y1="600.785" y2="720.121"/>
<line id="right-margin-Black-S" style="fill:none;stroke:#00AEEF;stroke-width:0.5;opacity:1.0;" x1="2979.4" x2="2979.4" y1="600.785" y2="720.121"/>
</g>
<g id="Symbols">
<g id="Ultralight-S" transform="matrix(1 0 0 1 513.711 614.7705)">
<svg width="92" height="92" viewBox="0 0 92 92" fill="none" xmlns="http://www.w3.org/2000/svg">
<g id="3.weights.l">
<g id="Vector">
<path d="M11.7156 71.5963C11.1676 71.4345 10.5746 70.9584 10.3141 70.4462L10.0625 69.9701V66.0709C10.0625 61.7673 10.0625 61.7853 10.6195 61.2103C10.8262 60.9947 11.1047 60.8509 11.6258 60.6892C12.3715 60.4646 13.0273 60.1052 13.3328 59.7548C13.4316 59.656 13.4855 59.5572 13.4676 59.5392C13.4496 59.5302 13.207 59.4134 12.9285 59.2787C11.6258 58.6677 10.9879 57.4908 11.2215 56.1791C11.4281 55.074 12.0211 54.2923 13.0184 53.8252L13.5215 53.5916H16.8457C20.6461 53.5916 20.5922 53.5826 21.4727 54.4091C23.1438 55.9724 22.6137 58.6228 20.4664 59.3955C20.0711 59.5302 20.0531 59.5841 20.3316 59.8447C20.7629 60.258 21.2211 60.4916 22.2094 60.788C22.8383 60.9677 23.3953 61.5158 23.5121 62.0548C23.548 62.2435 23.584 64.1123 23.584 66.2146C23.584 70.4912 23.584 70.4822 22.973 71.0752C22.3262 71.6951 22.3262 71.6951 16.8547 71.6861C14.1773 71.6861 11.8684 71.6412 11.7156 71.5963ZM21.5445 66.1517L21.5176 62.6748L20.8707 62.4322C20.0172 62.1177 19.4242 61.7314 18.8582 61.1115C18.2922 60.4916 18.0316 59.9435 18.0316 59.3416C18.0227 58.542 18.4539 57.9939 19.2984 57.7244C19.9633 57.5177 20.2688 57.2931 20.3945 56.9248C20.5113 56.5654 20.3676 56.1341 20.0352 55.8377C19.8465 55.667 19.6938 55.658 16.9805 55.631C13.791 55.6041 13.6113 55.631 13.3418 56.1611C13.1531 56.5205 13.216 56.9966 13.4855 57.2931C13.6023 57.4099 13.9527 57.5806 14.2762 57.6795C15.1656 57.949 15.7227 58.5689 15.7227 59.2787C15.7227 60.4556 14.0336 62.1806 12.5781 62.4861C12.4074 62.522 12.2098 62.5939 12.1559 62.6388C12.066 62.7107 12.0391 63.5283 12.0391 66.1787V69.6287H21.5625L21.5445 66.1517Z" fill="black"/>
<path d="M26.7914 71.5244C26.1445 71.2998 25.6953 70.9134 25.4078 70.3384L25.1652 69.8533L25.1113 53.0525L25.3359 52.6572C25.6414 52.1181 25.9648 51.9474 27.1059 51.7498C28.3637 51.5252 29.334 51.058 30.1336 50.2763C30.6367 49.7912 31.1668 49.0095 31.059 48.9107C31.041 48.8838 30.7266 48.7849 30.3762 48.6861C29.0195 48.3177 28.2289 47.7068 27.7348 46.6466C26.8184 44.6791 27.8336 42.2802 29.882 41.5974C30.4121 41.4177 30.6008 41.4088 35.8566 41.4357L41.2832 41.4627L41.7953 41.7142C42.5859 42.1006 43.1609 42.6756 43.5473 43.4662C43.8797 44.122 43.8887 44.1759 43.8887 45.1013C43.8887 46.0177 43.8797 46.0716 43.5473 46.7365C43.0262 47.7966 42.1367 48.4705 40.9508 48.7041C40.6543 48.767 40.3937 48.8658 40.3668 48.9287C40.223 49.315 41.5527 50.7166 42.532 51.2017C43.0531 51.4533 43.3316 51.5341 44.859 51.8396C45.5059 51.9654 46.018 52.4146 46.1707 52.9806C46.2426 53.2412 46.2695 55.7209 46.2516 61.5607L46.2246 69.7724L46 70.2127C45.8652 70.4732 45.5688 70.8146 45.2992 71.0392C44.4547 71.722 44.9129 71.6951 35.5871 71.6951C27.7617 71.6861 27.2406 71.6771 26.7914 71.5244ZM44.0324 69.3681C44.1941 69.1705 44.2031 68.9099 44.2031 61.4978V53.8341L43.8258 53.7713C41.3281 53.3849 38.7406 51.2377 38.3633 49.2431C38.1207 47.9494 38.7766 47.0689 40.1602 46.8084C40.4746 46.7545 40.8879 46.6287 41.0766 46.5299C41.418 46.3591 41.7953 45.8201 41.9031 45.3439C42.0379 44.7599 41.5258 43.8615 40.9059 43.6099C40.6723 43.5111 39.6211 43.4841 35.65 43.4841C31.0051 43.4841 30.6547 43.5021 30.3133 43.6548C29.3879 44.0771 29.1184 45.2271 29.7473 46.0806C30.0707 46.5299 30.4121 46.7095 31.1488 46.8173C31.8137 46.9072 32.0922 47.042 32.4875 47.4283C32.9547 47.8865 33.0895 48.2728 33.0445 48.9646C32.9547 50.1326 31.8766 51.633 30.4301 52.5943C29.5406 53.1783 29.0734 53.3849 28.202 53.5916C27.8336 53.6814 27.4652 53.7802 27.3664 53.8072C27.2047 53.8701 27.1957 54.1127 27.2137 61.5248C27.2227 65.7295 27.2496 69.2334 27.2766 69.3052C27.3035 69.3681 27.4113 69.467 27.5191 69.5209C27.6539 69.5927 30.2145 69.6107 35.7848 69.6017L43.8617 69.5838L44.0324 69.3681Z" fill="black"/>
<path d="M55.2629 21.3466C56.5746 20.7177 56.1615 20.7447 64.9661 20.7717L72.9082 20.7986L73.5371 21.0591C75.6754 21.9396 76.9422 23.7455 76.9422 25.9197C76.9422 27.3841 76.466 28.4982 75.3789 29.5673C74.4176 30.5197 73.6359 30.8881 72.0367 31.1306C71.6055 31.1935 71.4887 31.4002 71.6234 31.8583C72.3242 34.4189 75.7113 36.5662 79.0625 36.5662C80.5719 36.5662 81.5961 37.4826 81.7578 38.965C81.7937 39.3516 81.8207 46.3414 81.8118 54.49L81.8027 69.3142L81.5512 69.8622C81.2367 70.5451 80.7066 71.0752 80.0058 71.3986L79.4668 71.6502L64.8222 71.6682C52.882 71.6771 50.1058 71.6591 49.8004 71.5693C48.7582 71.2368 47.8867 70.3744 47.6801 69.449C47.6531 69.3232 47.6172 62.3334 47.6082 53.906C47.5903 42.2263 47.6082 38.4978 47.689 38.2193C47.8328 37.7341 48.3899 37.1142 48.9289 36.8447C49.2793 36.665 49.5579 36.6111 50.5281 36.5572C52.3879 36.4493 53.7086 36.0271 55.1102 35.0927C56.5027 34.1673 57.7695 32.5142 57.7695 31.6157C57.7695 31.2923 57.7515 31.2654 57.4371 31.1845C57.2484 31.1396 56.8171 31.0498 56.4668 30.9959C55.2988 30.8072 54.1937 30.0974 53.3941 29.0283C52.2621 27.5279 52.0734 25.3716 52.9359 23.6376C53.3492 22.7841 54.4004 21.7509 55.2629 21.3466Z" fill="black"/>
</g>
</g>
</svg>

</g>
<g id="Regular-S" transform="matrix(1 0 0 1 1403.84 614.7705)">
<svg width="92" height="92" viewBox="0 0 92 92" fill="none" xmlns="http://www.w3.org/2000/svg">
<g id="3.weights.l">
<g id="Vector">
<path d="M11.7156 71.5963C11.1676 71.4345 10.5746 70.9584 10.3141 70.4462L10.0625 69.9701V66.0709C10.0625 61.7673 10.0625 61.7853 10.6195 61.2103C10.8262 60.9947 11.1047 60.8509 11.6258 60.6892C12.3715 60.4646 13.0273 60.1052 13.3328 59.7548C13.4316 59.656 13.4855 59.5572 13.4676 59.5392C13.4496 59.5302 13.207 59.4134 12.9285 59.2787C11.6258 58.6677 10.9879 57.4908 11.2215 56.1791C11.4281 55.074 12.0211 54.2923 13.0184 53.8252L13.5215 53.5916H16.8457C20.6461 53.5916 20.5922 53.5826 21.4727 54.4091C23.1438 55.9724 22.6137 58.6228 20.4664 59.3955C20.0711 59.5302 20.0531 59.5841 20.3316 59.8447C20.7629 60.258 21.2211 60.4916 22.2094 60.788C22.8383 60.9677 23.3953 61.5158 23.5121 62.0548C23.548 62.2435 23.584 64.1123 23.584 66.2146C23.584 70.4912 23.584 70.4822 22.973 71.0752C22.3262 71.6951 22.3262 71.6951 16.8547 71.6861C14.1773 71.6861 11.8684 71.6412 11.7156 71.5963ZM21.5445 66.1517L21.5176 62.6748L20.8707 62.4322C20.0172 62.1177 19.4242 61.7314 18.8582 61.1115C18.2922 60.4916 18.0316 59.9435 18.0316 59.3416C18.0227 58.542 18.4539 57.9939 19.2984 57.7244C19.9633 57.5177 20.2688 57.2931 20.3945 56.9248C20.5113 56.5654 20.3676 56.1341 20.0352 55.8377C19.8465 55.667 19.6938 55.658 16.9805 55.631C13.791 55.6041 13.6113 55.631 13.3418 56.1611C13.1531 56.5205 13.216 56.9966 13.4855 57.2931C13.6023 57.4099 13.9527 57.5806 14.2762 57.6795C15.1656 57.949 15.7227 58.5689 15.7227 59.2787C15.7227 60.4556 14.0336 62.1806 12.5781 62.4861C12.4074 62.522 12.2098 62.5939 12.1559 62.6388C12.066 62.7107 12.0391 63.5283 12.0391 66.1787V69.6287H21.5625L21.5445 66.1517Z" fill="black"/>
<path d="M26.7914 71.5244C26.1445 71.2998 25.6953 70.9134 25.4078 70.3384L25.1652 69.8533L25.1113 53.0525L25.3359 52.6572C25.6414 52.1181 25.9648 51.9474 27.1059 51.7498C28.3637 51.5252 29.334 51.058 30.1336 50.2763C30.6367 49.7912 31.1668 49.0095 31.059 48.9107C31.041 48.8838 30.7266 48.7849 30.3762 48.6861C29.0195 48.3177 28.2289 47.7068 27.7348 46.6466C26.8184 44.6791 27.8336 42.2802 29.882 41.5974C30.4121 41.4177 30.6008 41.4088 35.8566 41.4357L41.2832 41.4627L41.7953 41.7142C42.5859 42.1006 43.1609 42.6756 43.5473 43.4662C43.8797 44.122 43.8887 44.1759 43.8887 45.1013C43.8887 46.0177 43.8797 46.0716 43.5473 46.7365C43.0262 47.7966 42.1367 48.4705 40.9508 48.7041C40.6543 48.767 40.3937 48.8658 40.3668 48.9287C40.223 49.315 41.5527 50.7166 42.532 51.2017C43.0531 51.4533 43.3316 51.5341 44.859 51.8396C45.5059 51.9654 46.018 52.4146 46.1707 52.9806C46.2426 53.2412 46.2695 55.7209 46.2516 61.5607L46.2246 69.7724L46 70.2127C45.8652 70.4732 45.5688 70.8146 45.2992 71.0392C44.4547 71.722 44.9129 71.6951 35.5871 71.6951C27.7617 71.6861 27.2406 71.6771 26.7914 71.5244ZM44.0324 69.3681C44.1941 69.1705 44.2031 68.9099 44.2031 61.4978V53.8341L43.8258 53.7713C41.3281 53.3849 38.7406 51.2377 38.3633 49.2431C38.1207 47.9494 38.7766 47.0689 40.1602 46.8084C40.4746 46.7545 40.8879 46.6287 41.0766 46.5299C41.418 46.3591 41.7953 45.8201 41.9031 45.3439C42.0379 44.7599 41.5258 43.8615 40.9059 43.6099C40.6723 43.5111 39.6211 43.4841 35.65 43.4841C31.0051 43.4841 30.6547 43.5021 30.3133 43.6548C29.3879 44.0771 29.1184 45.2271 29.7473 46.0806C30.0707 46.5299 30.4121 46.7095 31.1488 46.8173C31.8137 46.9072 32.0922 47.042 32.4875 47.4283C32.9547 47.8865 33.0895 48.2728 33.0445 48.9646C32.9547 50.1326 31.8766 51.633 30.4301 52.5943C29.5406 53.1783 29.0734 53.3849 28.202 53.5916C27.8336 53.6814 27.4652 53.7802 27.3664 53.8072C27.2047 53.8701 27.1957 54.1127 27.2137 61.5248C27.2227 65.7295 27.2496 69.2334 27.2766 69.3052C27.3035 69.3681 27.4113 69.467 27.5191 69.5209C27.6539 69.5927 30.2145 69.6107 35.7848 69.6017L43.8617 69.5838L44.0324 69.3681Z" fill="black"/>
<path d="M55.2629 21.3466C56.5746 20.7177 56.1615 20.7447 64.9661 20.7717L72.9082 20.7986L73.5371 21.0591C75.6754 21.9396 76.9422 23.7455 76.9422 25.9197C76.9422 27.3841 76.466 28.4982 75.3789 29.5673C74.4176 30.5197 73.6359 30.8881 72.0367 31.1306C71.6055 31.1935 71.4887 31.4002 71.6234 31.8583C72.3242 34.4189 75.7113 36.5662 79.0625 36.5662C80.5719 36.5662 81.5961 37.4826 81.7578 38.965C81.7937 39.3516 81.8207 46.3414 81.8118 54.49L81.8027 69.3142L81.5512 69.8622C81.2367 70.5451 80.7066 71.0752 80.0058 71.3986L79.4668 71.6502L64.8222 71.6682C52.882 71.6771 50.1058 71.6591 49.8004 71.5693C48.7582 71.2368 47.8867 70.3744 47.6801 69.449C47.6531 69.3232 47.6172 62.3334 47.6082 53.906C47.5903 42.2263 47.6082 38.4978 47.689 38.2193C47.8328 37.7341 48.3899 37.1142 48.9289 36.8447C49.2793 36.665 49.5579 36.6111 50.5281 36.5572C52.3879 36.4493 53.7086 36.0271 55.1102 35.0927C56.5027 34.1673 57.7695 32.5142 57.7695 31.6157C57.7695 31.2923 57.7515 31.2654 57.4371 31.1845C57.2484 31.1396 56.8171 31.0498 56.4668 30.9959C55.2988 30.8072 54.1937 30.0974 53.3941 29.0283C52.2621 27.5279 52.0734 25.3716 52.9359 23.6376C53.3492 22.7841 54.4004 21.7509 55.2629 21.3466Z" fill="black"/>
</g>
</g>
</svg>

</g>
<g id="Black-S" transform="matrix(1 0 0 1 2887.4 614.7705)">
<svg width="92" height="92" viewBox="0 0 92 92" fill="none" xmlns="http://www.w3.org/2000/svg">
<g id="3.weights.l">
<g id="Vector">
<path d="M11.7156 71.5963C11.1676 71.4345 10.5746 70.9584 10.3141 70.4462L10.0625 69.9701V66.0709C10.0625 61.7673 10.0625 61.7853 10.6195 61.2103C10.8262 60.9947 11.1047 60.8509 11.6258 60.6892C12.3715 60.4646 13.0273 60.1052 13.3328 59.7548C13.4316 59.656 13.4855 59.5572 13.4676 59.5392C13.4496 59.5302 13.207 59.4134 12.9285 59.2787C11.6258 58.6677 10.9879 57.4908 11.2215 56.1791C11.4281 55.074 12.0211 54.2923 13.0184 53.8252L13.5215 53.5916H16.8457C20.6461 53.5916 20.5922 53.5826 21.4727 54.4091C23.1438 55.9724 22.6137 58.6228 20.4664 59.3955C20.0711 59.5302 20.0531 59.5841 20.3316 59.8447C20.7629 60.258 21.2211 60.4916 22.2094 60.788C22.8383 60.9677 23.3953 61.5158 23.5121 62.0548C23.548 62.2435 23.584 64.1123 23.584 66.2146C23.584 70.4912 23.584 70.4822 22.973 71.0752C22.3262 71.6951 22.3262 71.6951 16.8547 71.6861C14.1773 71.6861 11.8684 71.6412 11.7156 71.5963ZM21.5445 66.1517L21.5176 62.6748L20.8707 62.4322C20.0172 62.1177 19.4242 61.7314 18.8582 61.1115C18.2922 60.4916 18.0316 59.9435 18.0316 59.3416C18.0227 58.542 18.4539 57.9939 19.2984 57.7244C19.9633 57.5177 20.2688 57.2931 20.3945 56.9248C20.5113 56.5654 20.3676 56.1341 20.0352 55.8377C19.8465 55.667 19.6938 55.658 16.9805 55.631C13.791 55.6041 13.6113 55.631 13.3418 56.1611C13.1531 56.5205 13.216 56.9966 13.4855 57.2931C13.6023 57.4099 13.9527 57.5806 14.2762 57.6795C15.1656 57.949 15.7227 58.5689 15.7227 59.2787C15.7227 60.4556 14.0336 62.1806 12.5781 62.4861C12.4074 62.522 12.2098 62.5939 12.1559 62.6388C12.066 62.7107 12.0391 63.5283 12.0391 66.1787V69.6287H21.5625L21.5445 66.1517Z" fill="black"/>
<path d="M26.7914 71.5244C26.1445 71.2998 25.6953 70.9134 25.4078 70.3384L25.1652 69.8533L25.1113 53.0525L25.3359 52.6572C25.6414 52.1181 25.9648 51.9474 27.1059 51.7498C28.3637 51.5252 29.334 51.058 30.1336 50.2763C30.6367 49.7912 31.1668 49.0095 31.059 48.9107C31.041 48.8838 30.7266 48.7849 30.3762 48.6861C29.0195 48.3177 28.2289 47.7068 27.7348 46.6466C26.8184 44.6791 27.8336 42.2802 29.882 41.5974C30.4121 41.4177 30.6008 41.4088 35.8566 41.4357L41.2832 41.4627L41.7953 41.7142C42.5859 42.1006 43.1609 42.6756 43.5473 43.4662C43.8797 44.122 43.8887 44.1759 43.8887 45.1013C43.8887 46.0177 43.8797 46.0716 43.5473 46.7365C43.0262 47.7966 42.1367 48.4705 40.9508 48.7041C40.6543 48.767 40.3937 48.8658 40.3668 48.9287C40.223 49.315 41.5527 50.7166 42.532 51.2017C43.0531 51.4533 43.3316 51.5341 44.859 51.8396C45.5059 51.9654 46.018 52.4146 46.1707 52.9806C46.2426 53.2412 46.2695 55.7209 46.2516 61.5607L46.2246 69.7724L46 70.2127C45.8652 70.4732 45.5688 70.8146 45.2992 71.0392C44.4547 71.722 44.9129 71.6951 35.5871 71.6951C27.7617 71.6861 27.2406 71.6771 26.7914 71.5244ZM44.0324 69.3681C44.1941 69.1705 44.2031 68.9099 44.2031 61.4978V53.8341L43.8258 53.7713C41.3281 53.3849 38.7406 51.2377 38.3633 49.2431C38.1207 47.9494 38.7766 47.0689 40.1602 46.8084C40.4746 46.7545 40.8879 46.6287 41.0766 46.5299C41.418 46.3591 41.7953 45.8201 41.9031 45.3439C42.0379 44.7599 41.5258 43.8615 40.9059 43.6099C40.6723 43.5111 39.6211 43.4841 35.65 43.4841C31.0051 43.4841 30.6547 43.5021 30.3133 43.6548C29.3879 44.0771 29.1184 45.2271 29.7473 46.0806C30.0707 46.5299 30.4121 46.7095 31.1488 46.8173C31.8137 46.9072 32.0922 47.042 32.4875 47.4283C32.9547 47.8865 33.0895 48.2728 33.0445 48.9646C32.9547 50.1326 31.8766 51.633 30.4301 52.5943C29.5406 53.1783 29.0734 53.3849 28.202 53.5916C27.8336 53.6814 27.4652 53.7802 27.3664 53.8072C27.2047 53.8701 27.1957 54.1127 27.2137 61.5248C27.2227 65.7295 27.2496 69.2334 27.2766 69.3052C27.3035 69.3681 27.4113 69.467 27.5191 69.5209C27.6539 69.5927 30.2145 69.6107 35.7848 69.6017L43.8617 69.5838L44.0324 69.3681Z" fill="black"/>
<path d="M55.2629 21.3466C56.5746 20.7177 56.1615 20.7447 64.9661 20.7717L72.9082 20.7986L73.5371 21.0591C75.6754 21.9396 76.9422 23.7455 76.9422 25.9197C76.9422 27.3841 76.466 28.4982 75.3789 29.5673C74.4176 30.5197 73.6359 30.8881 72.0367 31.1306C71.6055 31.1935 71.4887 31.4002 71.6234 31.8583C72.3242 34.4189 75.7113 36.5662 79.0625 36.5662C80.5719 36.5662 81.5961 37.4826 81.7578 38.965C81.7937 39.3516 81.8207 46.3414 81.8118 54.49L81.8027 69.3142L81.5512 69.8622C81.2367 70.5451 80.7066 71.0752 80.0058 71.3986L79.4668 71.6502L64.8222 71.6682C52.882 71.6771 50.1058 71.6591 49.8004 71.5693C48.7582 71.2368 47.8867 70.3744 47.6801 69.449C47.6531 69.3232 47.6172 62.3334 47.6082 53.906C47.5903 42.2263 47.6082 38.4978 47.689 38.2193C47.8328 37.7341 48.3899 37.1142 48.9289 36.8447C49.2793 36.665 49.5579 36.6111 50.5281 36.5572C52.3879 36.4493 53.7086 36.0271 55.1102 35.0927C56.5027 34.1673 57.7695 32.5142 57.7695 31.6157C57.7695 31.2923 57.7515 31.2654 57.4371 31.1845C57.2484 31.1396 56.8171 31.0498 56.4668 30.9959C55.2988 30.8072 54.1937 30.0974 53.3941 29.0283C52.2621 27.5279 52.0734 25.3716 52.9359 23.6376C53.3492 22.7841 54.4004 21.7509 55.2629 21.3466Z" fill="black"/>
</g>
</g>
</svg>

</g>
</g>
</svg>