<?xml version="1.0" encoding="UTF-8"?>
<!DOCTYPE svg
PUBLIC "-//W3C//DTD SVG 1.1//EN"
     "http://www.w3.org/Graphics/SVG/1.1/DTD/svg11.dtd">
     <!--Created with SF Symbol Generator (v1.0.0)-->

<svg version="1.1" xmlns="http://www.w3.org/2000/svg" xmlns:xlink="http://www.w3.org/1999/xlink" width="3300" height="2200">
<!--glyph: "spoons.large.fill.medium", point size: 100.0-->
<style>.SFSymbolsPreviewWireframe {fill:none;opacity:1.0;stroke:black;stroke-width:0.5}
</style>
<g id="Notes">
<rect height="2200" id="artboard" style="fill:white;opacity:1" width="3300" x="0" y="0"/>
<line style="fill:none;stroke:black;opacity:1;stroke-width:0.5;" x1="263" x2="3036" y1="292" y2="292"/>
<text style="stroke:none;fill:black;font-family:sans-serif;font-size:13;font-weight:bold;" transform="matrix(1 0 0 1 263 322)">Weight/Scale Variations</text>
<text style="stroke:none;fill:black;font-family:sans-serif;font-size:13;text-anchor:middle;" transform="matrix(1 0 0 1 559.711 322)">Ultralight</text>
<text style="stroke:none;fill:black;font-family:sans-serif;font-size:13;text-anchor:middle;" transform="matrix(1 0 0 1 856.422 322)">Thin</text>
<text style="stroke:none;fill:black;font-family:sans-serif;font-size:13;text-anchor:middle;" transform="matrix(1 0 0 1 1153.13 322)">Light</text>
<text style="stroke:none;fill:black;font-family:sans-serif;font-size:13;text-anchor:middle;" transform="matrix(1 0 0 1 1449.84 322)">Regular</text>
<text style="stroke:none;fill:black;font-family:sans-serif;font-size:13;text-anchor:middle;" transform="matrix(1 0 0 1 1746.56 322)">Medium</text>
<text style="stroke:none;fill:black;font-family:sans-serif;font-size:13;text-anchor:middle;" transform="matrix(1 0 0 1 2043.27 322)">Semibold</text>
<text style="stroke:none;fill:black;font-family:sans-serif;font-size:13;text-anchor:middle;" transform="matrix(1 0 0 1 2339.98 322)">Bold</text>
<text style="stroke:none;fill:black;font-family:sans-serif;font-size:13;text-anchor:middle;" transform="matrix(1 0 0 1 2636.69 322)">Heavy</text>
<text style="stroke:none;fill:black;font-family:sans-serif;font-size:13;text-anchor:middle;" transform="matrix(1 0 0 1 2933.4 322)">Black</text>
<line style="fill:none;stroke:black;opacity:1;stroke-width:0.5;" x1="263" x2="3036" y1="1903" y2="1903"/>
<text style="stroke:none;fill:black;font-family:sans-serif;font-size:13;font-weight:bold;" transform="matrix(1 0 0 1 263 1953)">Design Variations</text>
<text style="stroke:none;fill:black;font-family:sans-serif;font-size:13;" transform="matrix(1 0 0 1 263 1971)">Symbols are supported in up to nine weights and three scales.</text>
<text style="stroke:none;fill:black;font-family:sans-serif;font-size:13;" transform="matrix(1 0 0 1 263 1989)">For optimal layout with text and other symbols, vertically align</text>
<text style="stroke:none;fill:black;font-family:sans-serif;font-size:13;" transform="matrix(1 0 0 1 263 2007)">symbols with the adjacent text.</text>
<line style="fill:none;stroke:#00AEEF;stroke-width:0.5;opacity:1.0;" x1="776" x2="776" y1="1919" y2="1933"/>
<text style="stroke:none;fill:black;font-family:sans-serif;font-size:13;font-weight:bold;" transform="matrix(1 0 0 1 776 1953)">Margins</text>
<text style="stroke:none;fill:black;font-family:sans-serif;font-size:13;" transform="matrix(1 0 0 1 776 1971)">Leading and trailing margins on the left and right side of each symbol</text>
<text style="stroke:none;fill:black;font-family:sans-serif;font-size:13;" transform="matrix(1 0 0 1 776 1989)">can be adjusted by modifying the x-location of the margin guidelines.</text>
<text style="stroke:none;fill:black;font-family:sans-serif;font-size:13;" transform="matrix(1 0 0 1 776 2007)">Modifications are automatically applied proportionally to all</text>
<text style="stroke:none;fill:black;font-family:sans-serif;font-size:13;" transform="matrix(1 0 0 1 776 2025)">scales and weights.</text>
<text style="stroke:none;fill:black;font-family:sans-serif;font-size:13;font-weight:bold;" transform="matrix(1 0 0 1 1289 1953)">Exporting</text>
<text style="stroke:none;fill:black;font-family:sans-serif;font-size:13;" transform="matrix(1 0 0 1 1289 1971)">Symbols should be outlined when exporting to ensure the</text>
<text style="stroke:none;fill:black;font-family:sans-serif;font-size:13;" transform="matrix(1 0 0 1 1289 1989)">design is preserved when submitting to Xcode.</text>
<text id="template-version" style="stroke:none;fill:black;font-family:sans-serif;font-size:13;text-anchor:end;" transform="matrix(1 0 0 1 3036 1933)">Template v.5.0</text>
<text style="stroke:none;fill:black;font-family:sans-serif;font-size:13;text-anchor:end;" transform="matrix(1 0 0 1 3036 1951)">Requires Xcode 15 or greater</text>
<text id="descriptive-name" style="stroke:none;fill:black;font-family:sans-serif;font-size:13;text-anchor:end;" transform="matrix(1 0 0 1 3036 1969)">Generated from spoons.large.fill</text>
<text style="stroke:none;fill:black;font-family:sans-serif;font-size:13;text-anchor:end;" transform="matrix(1 0 0 1 3036 1987)">Typeset at 100.0 points</text>
<text style="stroke:none;fill:black;font-family:sans-serif;font-size:13;" transform="matrix(1 0 0 1 263 726)">Small</text>
<text style="stroke:none;fill:black;font-family:sans-serif;font-size:13;" transform="matrix(1 0 0 1 263 1156)">Medium</text>
<text style="stroke:none;fill:black;font-family:sans-serif;font-size:13;" transform="matrix(1 0 0 1 263 1586)">Large</text>
</g>
<g id="Guides">
<g id="H-reference" style="fill:#27AAE1;stroke:none;" transform="matrix(1 0 0 1 339 696)">
 <path d="M0.993654 0L3.63775 0L29.3281-67.1323L30.0303-67.1323L30.0303-70.459L28.1226-70.459ZM11.6885-24.4799L46.9815-24.4799L46.2315-26.7285L12.4385-26.7285ZM55.1196 0L57.7637 0L30.6382-70.459L29.4326-70.459L29.4326-67.1323Z"/>
</g>
<line id="Baseline-S" style="fill:none;stroke:#27AAE1;opacity:1;stroke-width:0.5;" x1="263" x2="3036" y1="696" y2="696"/>
<line id="Capline-S" style="fill:none;stroke:#27AAE1;opacity:1;stroke-width:0.5;" x1="263" x2="3036" y1="625.541" y2="625.541"/>
<g id="H-reference" style="fill:#27AAE1;stroke:none;" transform="matrix(1 0 0 1 339 1126)">
 <path d="M0.993654 0L3.63775 0L29.3281-67.1323L30.0303-67.1323L30.0303-70.459L28.1226-70.459ZM11.6885-24.4799L46.9815-24.4799L46.2315-26.7285L12.4385-26.7285ZM55.1196 0L57.7637 0L30.6382-70.459L29.4326-70.459L29.4326-67.1323Z"/>
</g>
<line id="Baseline-M" style="fill:none;stroke:#27AAE1;opacity:1;stroke-width:0.5;" x1="263" x2="3036" y1="1126" y2="1126"/>
<line id="Capline-M" style="fill:none;stroke:#27AAE1;opacity:1;stroke-width:0.5;" x1="263" x2="3036" y1="1055.54" y2="1055.54"/>
<g id="H-reference" style="fill:#27AAE1;stroke:none;" transform="matrix(1 0 0 1 339 1556)">
 <path d="M0.993654 0L3.63775 0L29.3281-67.1323L30.0303-67.1323L30.0303-70.459L28.1226-70.459ZM11.6885-24.4799L46.9815-24.4799L46.2315-26.7285L12.4385-26.7285ZM55.1196 0L57.7637 0L30.6382-70.459L29.4326-70.459L29.4326-67.1323Z"/>
</g>
<line id="Baseline-L" style="fill:none;stroke:#27AAE1;opacity:1;stroke-width:0.5;" x1="263" x2="3036" y1="1556" y2="1556"/>
<line id="Capline-L" style="fill:none;stroke:#27AAE1;opacity:1;stroke-width:0.5;" x1="263" x2="3036" y1="1485.54" y2="1485.54"/>
<line id="left-margin-Ultralight-S" style="fill:none;stroke:#00AEEF;stroke-width:0.5;opacity:1.0;" x1="513.711" x2="513.711" y1="600.785" y2="720.121"/>
<line id="right-margin-Ultralight-S" style="fill:none;stroke:#00AEEF;stroke-width:0.5;opacity:1.0;" x1="605.711" x2="605.711" y1="600.785" y2="720.121"/>
<line id="left-margin-Regular-S" style="fill:none;stroke:#00AEEF;stroke-width:0.5;opacity:1.0;" x1="1403.84" x2="1403.84" y1="600.785" y2="720.121"/>
<line id="right-margin-Regular-S" style="fill:none;stroke:#00AEEF;stroke-width:0.5;opacity:1.0;" x1="1495.84" x2="1495.84" y1="600.785" y2="720.121"/>
<line id="left-margin-Black-S" style="fill:none;stroke:#00AEEF;stroke-width:0.5;opacity:1.0;" x1="2887.4" x2="2887.4" y1="600.785" y2="720.121"/>
<line id="right-margin-Black-S" style="fill:none;stroke:#00AEEF;stroke-width:0.5;opacity:1.0;" x1="2979.4" x2="2979.4" y1="600.785" y2="720.121"/>
</g>
<g id="Symbols">
<g id="Ultralight-S" transform="matrix(1 0 0 1 513.711 614.7705)">
<svg width="92" height="92" viewBox="0 0 92 92" fill="none" xmlns="http://www.w3.org/2000/svg">
<g id="spoons.large.fill">
<g id="Union">
<path fill-rule="evenodd" clip-rule="evenodd" d="M75.5605 16.9549C77.0332 16.3277 78.4461 16.3173 79.6597 16.761C80.9392 17.2289 81.9378 18.1796 82.5348 19.3112C83.1313 20.4419 83.3466 21.791 83.0092 23.0782C82.7507 24.0644 82.1769 24.9768 81.2668 25.7009C79.0974 29.2242 73.9077 37.2712 69.2108 44.5128C66.7942 48.2389 64.5052 51.756 62.8206 54.3414C61.9783 55.6341 61.2872 56.6942 60.8065 57.4309C60.5708 57.792 60.3854 58.0755 60.258 58.2707C63.198 63.6081 62.034 70.4298 58.5143 75.4529C56.2393 78.6997 52.9409 81.2752 49.0147 82.2956C45.8922 83.1071 42.4134 82.9237 38.7972 81.3631C37.4709 81.0815 36.2715 80.5104 35.2699 79.6299C31.0814 75.9474 31.813 68.1424 36.7166 61.5256C35.2283 62.6501 33.5983 63.6268 31.8741 64.4295C22.5528 68.7693 10.2708 68.1077 2.4529 58.1028C1.55365 57.2002 0.875864 56.1543 0.463436 54.9732C-1.97525 47.9893 5.44427 40.2607 17.2249 35.5624C25.1777 32.7854 33.141 32.1799 38.389 34.3167L39.7385 33.6891L39.7461 33.6855L39.8322 33.6455L39.8356 33.6439C40.6937 33.2448 41.8723 32.6966 43.2814 32.0408C46.3151 30.6289 50.418 28.7186 54.6944 26.7251C61.6987 23.4599 69.1631 19.9739 73.1619 18.0869C73.1444 18.7129 73.1711 19.2774 73.2388 19.8005L73.2529 19.9046L73.2708 20.0255C73.3642 20.6262 73.5135 21.174 73.7136 21.7016C73.8546 22.0732 74.0208 22.4348 74.2103 22.7978C74.1431 22.8786 74.086 22.959 74.0392 23.0372C73.832 23.3835 73.8881 23.5546 73.9045 23.5885C73.9209 23.6224 74.0201 23.7728 74.4204 23.8255C74.8096 23.8768 75.3511 23.8035 75.9186 23.5292C76.486 23.2549 76.8796 22.8761 77.0812 22.5392C77.2885 22.1927 77.2322 22.0216 77.2159 21.9878C77.1994 21.9538 77.1002 21.8036 76.7001 21.7509C76.5461 21.7306 76.3684 21.7298 76.1746 21.7531C75.9908 21.4135 75.8369 21.0593 75.7148 20.693C75.524 20.1208 75.4107 19.5193 75.3815 18.8981C75.352 18.2672 75.4092 17.616 75.5605 16.9549ZM60.0306 61.4098C60.0235 65.4546 58.1173 70.235 54.5108 74.3372L54.3678 74.4984C51.141 78.1076 47.2249 80.4489 43.5868 81.2566C45.3734 81.4822 47.0758 81.3503 48.6619 80.9381C52.2147 80.0147 55.2493 77.6685 57.3657 74.6481C60.1345 70.6965 61.2657 65.7259 60.0306 61.4098ZM52.067 54.3244C51.0342 54.284 49.9034 54.4222 48.6989 54.7535C45.5764 55.6125 42.1748 57.7328 39.3191 60.9809C36.4635 64.229 34.7962 67.8741 34.3442 71.0809C33.8898 74.3044 34.672 76.8632 36.381 78.3658C38.0901 79.8685 40.7282 80.3166 43.8671 79.4532C46.9896 78.5942 50.3913 76.474 53.2469 73.2259C56.1025 69.9778 57.7698 66.3326 58.2218 63.1258C58.6762 59.9023 57.8939 57.3433 56.1848 55.8407C55.1474 54.9286 53.7675 54.4051 52.1413 54.3276L52.1259 54.3512C52.1241 54.3539 52.1228 54.3562 52.1219 54.3576L52.121 54.3591L52.1207 54.3595L52.067 54.3244ZM33.8628 34.8999C29.362 34.3206 23.6381 35.1102 17.8133 37.1395C12.0945 39.4249 7.5582 42.3991 4.76839 45.5302C1.97105 48.6699 1.11067 51.7217 2.05228 54.4184C2.99166 57.1085 5.83162 59.1813 10.2715 60.0397C14.6636 60.8887 20.2881 60.4555 26.0602 58.4399C31.8323 56.4243 36.5039 53.2622 39.4127 49.8637C42.3532 46.4282 43.2857 43.0381 42.3463 40.348C41.306 37.3689 38.3914 35.4828 33.8628 34.8999ZM78.2439 27.3592C75.4493 28.7277 70.8466 30.9082 65.8976 33.2325C62.7172 38.1184 59.275 43.3972 56.6269 47.4558C55.3014 49.4874 54.1748 51.2133 53.3796 52.4314L53.179 52.7386C54.7401 52.9647 56.1479 53.5675 57.2959 54.5767L57.4014 54.6713C57.6105 54.8624 57.8068 55.0642 57.9905 55.2757C58.4569 55.7385 58.8785 56.2227 59.257 56.7252C59.3014 56.6572 59.3483 56.5858 59.3971 56.511C59.8776 55.7746 60.5687 54.715 61.4108 53.4227C63.0949 50.8379 65.383 47.3219 67.7988 43.5971C71.5798 37.7675 75.667 31.4359 78.2439 27.3592ZM63.0058 34.5889C61.9775 35.0705 60.9465 35.5528 59.9253 36.03C55.6555 38.025 51.5479 39.9351 48.508 41.3465C46.9881 42.0522 45.7349 42.6332 44.8617 43.0379L44.8026 43.0653C45.5436 46.9602 44.8682 50.6852 43.1893 53.9827C42.7448 54.8559 42.2301 55.6979 41.6541 56.505C44.7831 54.1236 48.1898 52.7783 51.2291 52.6467L51.9704 51.5113C52.7655 50.2933 53.8921 48.5674 55.2175 46.5361C57.4585 43.1015 60.2677 38.7931 63.0058 34.5889Z" fill="black"/>
<path d="M81.9254 9.19669C84.0341 9.01919 86.14 9.56967 87.8921 10.7562C89.6442 11.9428 90.9369 13.6938 91.5547 15.7177C92.1726 17.7416 92.0784 19.9162 91.2877 21.879C90.4969 23.8419 89.0574 25.4746 87.2092 26.505C85.3609 27.5355 82.7717 27.9277 80.6864 27.5683L81.6681 25.9555C83.3743 26.2495 84.8774 25.8781 86.3896 25.0351C87.9018 24.192 89.0796 22.8561 89.7265 21.2501C90.3735 19.6442 90.4506 17.8651 89.9451 16.2092C89.4396 14.5532 88.382 13.1204 86.9484 12.1496C85.5148 11.1788 83.7919 10.7285 82.0667 10.8737C80.3414 11.0189 78.7178 11.751 77.4667 12.9478C76.3392 14.0265 75.5754 15.4239 75.2734 16.9464L75.2593 17.019C75.2543 17.0454 75.2495 17.0719 75.2448 17.0985C75.224 17.2153 75.206 17.3329 75.1908 17.4511C75.1235 17.9725 75.1065 18.4956 75.1407 19.0126C75.1799 19.605 75.2864 20.1895 75.462 20.7542C75.5624 21.0771 75.6853 21.3935 75.831 21.7012C75.8484 21.7357 75.8661 21.7701 75.884 21.8044L75.8812 21.805C75.9776 22.0002 76.0833 22.1919 76.1985 22.3792C76.5686 22.9817 75.0152 23.6214 74.7259 23.1505C74.6699 23.0595 74.6158 22.9679 74.5636 22.8758C74.5096 22.7804 74.4576 22.6844 74.4076 22.5879C74.2254 22.2366 74.0697 21.8781 73.9398 21.5134C73.9014 21.4054 73.8652 21.2969 73.8312 21.1878C73.6877 20.7271 73.5842 20.257 73.5193 19.779L73.5189 19.7793C73.5169 19.7645 73.515 19.7497 73.5132 19.7349C73.5111 19.7186 73.5091 19.7023 73.5071 19.6859C73.4551 19.2705 73.4321 18.8492 73.4371 18.4233C73.4375 18.2703 73.4408 18.1135 73.4469 17.9523C73.4494 17.9512 73.4519 17.9499 73.4544 17.9487C73.4685 17.7123 73.4909 17.4746 73.5217 17.2358C73.7925 15.137 74.7743 13.1944 76.3034 11.7316C77.8325 10.2688 79.8167 9.3742 81.9254 9.19669Z" fill="black"/>
</g>
</g>
</svg>

</g>
<g id="Regular-S" transform="matrix(1 0 0 1 1403.84 614.7705)">
<svg width="92" height="92" viewBox="0 0 92 92" fill="none" xmlns="http://www.w3.org/2000/svg">
<g id="spoons.large.fill">
<g id="Union">
<path fill-rule="evenodd" clip-rule="evenodd" d="M75.5605 16.9549C77.0332 16.3277 78.4461 16.3173 79.6597 16.761C80.9392 17.2289 81.9378 18.1796 82.5348 19.3112C83.1313 20.4419 83.3466 21.791 83.0092 23.0782C82.7507 24.0644 82.1769 24.9768 81.2668 25.7009C79.0974 29.2242 73.9077 37.2712 69.2108 44.5128C66.7942 48.2389 64.5052 51.756 62.8206 54.3414C61.9783 55.6341 61.2872 56.6942 60.8065 57.4309C60.5708 57.792 60.3854 58.0755 60.258 58.2707C63.198 63.6081 62.034 70.4298 58.5143 75.4529C56.2393 78.6997 52.9409 81.2752 49.0147 82.2956C45.8922 83.1071 42.4134 82.9237 38.7972 81.3631C37.4709 81.0815 36.2715 80.5104 35.2699 79.6299C31.0814 75.9474 31.813 68.1424 36.7166 61.5256C35.2283 62.6501 33.5983 63.6268 31.8741 64.4295C22.5528 68.7693 10.2708 68.1077 2.4529 58.1028C1.55365 57.2002 0.875864 56.1543 0.463436 54.9732C-1.97525 47.9893 5.44427 40.2607 17.2249 35.5624C25.1777 32.7854 33.141 32.1799 38.389 34.3167L39.7385 33.6891L39.7461 33.6855L39.8322 33.6455L39.8356 33.6439C40.6937 33.2448 41.8723 32.6966 43.2814 32.0408C46.3151 30.6289 50.418 28.7186 54.6944 26.7251C61.6987 23.4599 69.1631 19.9739 73.1619 18.0869C73.1444 18.7129 73.1711 19.2774 73.2388 19.8005L73.2529 19.9046L73.2708 20.0255C73.3642 20.6262 73.5135 21.174 73.7136 21.7016C73.8546 22.0732 74.0208 22.4348 74.2103 22.7978C74.1431 22.8786 74.086 22.959 74.0392 23.0372C73.832 23.3835 73.8881 23.5546 73.9045 23.5885C73.9209 23.6224 74.0201 23.7728 74.4204 23.8255C74.8096 23.8768 75.3511 23.8035 75.9186 23.5292C76.486 23.2549 76.8796 22.8761 77.0812 22.5392C77.2885 22.1927 77.2322 22.0216 77.2159 21.9878C77.1994 21.9538 77.1002 21.8036 76.7001 21.7509C76.5461 21.7306 76.3684 21.7298 76.1746 21.7531C75.9908 21.4135 75.8369 21.0593 75.7148 20.693C75.524 20.1208 75.4107 19.5193 75.3815 18.8981C75.352 18.2672 75.4092 17.616 75.5605 16.9549ZM60.0306 61.4098C60.0235 65.4546 58.1173 70.235 54.5108 74.3372L54.3678 74.4984C51.141 78.1076 47.2249 80.4489 43.5868 81.2566C45.3734 81.4822 47.0758 81.3503 48.6619 80.9381C52.2147 80.0147 55.2493 77.6685 57.3657 74.6481C60.1345 70.6965 61.2657 65.7259 60.0306 61.4098ZM52.067 54.3244C51.0342 54.284 49.9034 54.4222 48.6989 54.7535C45.5764 55.6125 42.1748 57.7328 39.3191 60.9809C36.4635 64.229 34.7962 67.8741 34.3442 71.0809C33.8898 74.3044 34.672 76.8632 36.381 78.3658C38.0901 79.8685 40.7282 80.3166 43.8671 79.4532C46.9896 78.5942 50.3913 76.474 53.2469 73.2259C56.1025 69.9778 57.7698 66.3326 58.2218 63.1258C58.6762 59.9023 57.8939 57.3433 56.1848 55.8407C55.1474 54.9286 53.7675 54.4051 52.1413 54.3276L52.1259 54.3512C52.1241 54.3539 52.1228 54.3562 52.1219 54.3576L52.121 54.3591L52.1207 54.3595L52.067 54.3244ZM33.8628 34.8999C29.362 34.3206 23.6381 35.1102 17.8133 37.1395C12.0945 39.4249 7.5582 42.3991 4.76839 45.5302C1.97105 48.6699 1.11067 51.7217 2.05228 54.4184C2.99166 57.1085 5.83162 59.1813 10.2715 60.0397C14.6636 60.8887 20.2881 60.4555 26.0602 58.4399C31.8323 56.4243 36.5039 53.2622 39.4127 49.8637C42.3532 46.4282 43.2857 43.0381 42.3463 40.348C41.306 37.3689 38.3914 35.4828 33.8628 34.8999ZM78.2439 27.3592C75.4493 28.7277 70.8466 30.9082 65.8976 33.2325C62.7172 38.1184 59.275 43.3972 56.6269 47.4558C55.3014 49.4874 54.1748 51.2133 53.3796 52.4314L53.179 52.7386C54.7401 52.9647 56.1479 53.5675 57.2959 54.5767L57.4014 54.6713C57.6105 54.8624 57.8068 55.0642 57.9905 55.2757C58.4569 55.7385 58.8785 56.2227 59.257 56.7252C59.3014 56.6572 59.3483 56.5858 59.3971 56.511C59.8776 55.7746 60.5687 54.715 61.4108 53.4227C63.0949 50.8379 65.383 47.3219 67.7988 43.5971C71.5798 37.7675 75.667 31.4359 78.2439 27.3592ZM63.0058 34.5889C61.9775 35.0705 60.9465 35.5528 59.9253 36.03C55.6555 38.025 51.5479 39.9351 48.508 41.3465C46.9881 42.0522 45.7349 42.6332 44.8617 43.0379L44.8026 43.0653C45.5436 46.9602 44.8682 50.6852 43.1893 53.9827C42.7448 54.8559 42.2301 55.6979 41.6541 56.505C44.7831 54.1236 48.1898 52.7783 51.2291 52.6467L51.9704 51.5113C52.7655 50.2933 53.8921 48.5674 55.2175 46.5361C57.4585 43.1015 60.2677 38.7931 63.0058 34.5889Z" fill="black"/>
<path d="M81.9254 9.19669C84.0341 9.01919 86.14 9.56967 87.8921 10.7562C89.6442 11.9428 90.9369 13.6938 91.5547 15.7177C92.1726 17.7416 92.0784 19.9162 91.2877 21.879C90.4969 23.8419 89.0574 25.4746 87.2092 26.505C85.3609 27.5355 82.7717 27.9277 80.6864 27.5683L81.6681 25.9555C83.3743 26.2495 84.8774 25.8781 86.3896 25.0351C87.9018 24.192 89.0796 22.8561 89.7265 21.2501C90.3735 19.6442 90.4506 17.8651 89.9451 16.2092C89.4396 14.5532 88.382 13.1204 86.9484 12.1496C85.5148 11.1788 83.7919 10.7285 82.0667 10.8737C80.3414 11.0189 78.7178 11.751 77.4667 12.9478C76.3392 14.0265 75.5754 15.4239 75.2734 16.9464L75.2593 17.019C75.2543 17.0454 75.2495 17.0719 75.2448 17.0985C75.224 17.2153 75.206 17.3329 75.1908 17.4511C75.1235 17.9725 75.1065 18.4956 75.1407 19.0126C75.1799 19.605 75.2864 20.1895 75.462 20.7542C75.5624 21.0771 75.6853 21.3935 75.831 21.7012C75.8484 21.7357 75.8661 21.7701 75.884 21.8044L75.8812 21.805C75.9776 22.0002 76.0833 22.1919 76.1985 22.3792C76.5686 22.9817 75.0152 23.6214 74.7259 23.1505C74.6699 23.0595 74.6158 22.9679 74.5636 22.8758C74.5096 22.7804 74.4576 22.6844 74.4076 22.5879C74.2254 22.2366 74.0697 21.8781 73.9398 21.5134C73.9014 21.4054 73.8652 21.2969 73.8312 21.1878C73.6877 20.7271 73.5842 20.257 73.5193 19.779L73.5189 19.7793C73.5169 19.7645 73.515 19.7497 73.5132 19.7349C73.5111 19.7186 73.5091 19.7023 73.5071 19.6859C73.4551 19.2705 73.4321 18.8492 73.4371 18.4233C73.4375 18.2703 73.4408 18.1135 73.4469 17.9523C73.4494 17.9512 73.4519 17.9499 73.4544 17.9487C73.4685 17.7123 73.4909 17.4746 73.5217 17.2358C73.7925 15.137 74.7743 13.1944 76.3034 11.7316C77.8325 10.2688 79.8167 9.3742 81.9254 9.19669Z" fill="black"/>
</g>
</g>
</svg>

</g>
<g id="Black-S" transform="matrix(1 0 0 1 2887.4 614.7705)">
<svg width="92" height="92" viewBox="0 0 92 92" fill="none" xmlns="http://www.w3.org/2000/svg">
<g id="spoons.large.fill">
<g id="Union">
<path fill-rule="evenodd" clip-rule="evenodd" d="M75.5605 16.9549C77.0332 16.3277 78.4461 16.3173 79.6597 16.761C80.9392 17.2289 81.9378 18.1796 82.5348 19.3112C83.1313 20.4419 83.3466 21.791 83.0092 23.0782C82.7507 24.0644 82.1769 24.9768 81.2668 25.7009C79.0974 29.2242 73.9077 37.2712 69.2108 44.5128C66.7942 48.2389 64.5052 51.756 62.8206 54.3414C61.9783 55.6341 61.2872 56.6942 60.8065 57.4309C60.5708 57.792 60.3854 58.0755 60.258 58.2707C63.198 63.6081 62.034 70.4298 58.5143 75.4529C56.2393 78.6997 52.9409 81.2752 49.0147 82.2956C45.8922 83.1071 42.4134 82.9237 38.7972 81.3631C37.4709 81.0815 36.2715 80.5104 35.2699 79.6299C31.0814 75.9474 31.813 68.1424 36.7166 61.5256C35.2283 62.6501 33.5983 63.6268 31.8741 64.4295C22.5528 68.7693 10.2708 68.1077 2.4529 58.1028C1.55365 57.2002 0.875864 56.1543 0.463436 54.9732C-1.97525 47.9893 5.44427 40.2607 17.2249 35.5624C25.1777 32.7854 33.141 32.1799 38.389 34.3167L39.7385 33.6891L39.7461 33.6855L39.8322 33.6455L39.8356 33.6439C40.6937 33.2448 41.8723 32.6966 43.2814 32.0408C46.3151 30.6289 50.418 28.7186 54.6944 26.7251C61.6987 23.4599 69.1631 19.9739 73.1619 18.0869C73.1444 18.7129 73.1711 19.2774 73.2388 19.8005L73.2529 19.9046L73.2708 20.0255C73.3642 20.6262 73.5135 21.174 73.7136 21.7016C73.8546 22.0732 74.0208 22.4348 74.2103 22.7978C74.1431 22.8786 74.086 22.959 74.0392 23.0372C73.832 23.3835 73.8881 23.5546 73.9045 23.5885C73.9209 23.6224 74.0201 23.7728 74.4204 23.8255C74.8096 23.8768 75.3511 23.8035 75.9186 23.5292C76.486 23.2549 76.8796 22.8761 77.0812 22.5392C77.2885 22.1927 77.2322 22.0216 77.2159 21.9878C77.1994 21.9538 77.1002 21.8036 76.7001 21.7509C76.5461 21.7306 76.3684 21.7298 76.1746 21.7531C75.9908 21.4135 75.8369 21.0593 75.7148 20.693C75.524 20.1208 75.4107 19.5193 75.3815 18.8981C75.352 18.2672 75.4092 17.616 75.5605 16.9549ZM60.0306 61.4098C60.0235 65.4546 58.1173 70.235 54.5108 74.3372L54.3678 74.4984C51.141 78.1076 47.2249 80.4489 43.5868 81.2566C45.3734 81.4822 47.0758 81.3503 48.6619 80.9381C52.2147 80.0147 55.2493 77.6685 57.3657 74.6481C60.1345 70.6965 61.2657 65.7259 60.0306 61.4098ZM52.067 54.3244C51.0342 54.284 49.9034 54.4222 48.6989 54.7535C45.5764 55.6125 42.1748 57.7328 39.3191 60.9809C36.4635 64.229 34.7962 67.8741 34.3442 71.0809C33.8898 74.3044 34.672 76.8632 36.381 78.3658C38.0901 79.8685 40.7282 80.3166 43.8671 79.4532C46.9896 78.5942 50.3913 76.474 53.2469 73.2259C56.1025 69.9778 57.7698 66.3326 58.2218 63.1258C58.6762 59.9023 57.8939 57.3433 56.1848 55.8407C55.1474 54.9286 53.7675 54.4051 52.1413 54.3276L52.1259 54.3512C52.1241 54.3539 52.1228 54.3562 52.1219 54.3576L52.121 54.3591L52.1207 54.3595L52.067 54.3244ZM33.8628 34.8999C29.362 34.3206 23.6381 35.1102 17.8133 37.1395C12.0945 39.4249 7.5582 42.3991 4.76839 45.5302C1.97105 48.6699 1.11067 51.7217 2.05228 54.4184C2.99166 57.1085 5.83162 59.1813 10.2715 60.0397C14.6636 60.8887 20.2881 60.4555 26.0602 58.4399C31.8323 56.4243 36.5039 53.2622 39.4127 49.8637C42.3532 46.4282 43.2857 43.0381 42.3463 40.348C41.306 37.3689 38.3914 35.4828 33.8628 34.8999ZM78.2439 27.3592C75.4493 28.7277 70.8466 30.9082 65.8976 33.2325C62.7172 38.1184 59.275 43.3972 56.6269 47.4558C55.3014 49.4874 54.1748 51.2133 53.3796 52.4314L53.179 52.7386C54.7401 52.9647 56.1479 53.5675 57.2959 54.5767L57.4014 54.6713C57.6105 54.8624 57.8068 55.0642 57.9905 55.2757C58.4569 55.7385 58.8785 56.2227 59.257 56.7252C59.3014 56.6572 59.3483 56.5858 59.3971 56.511C59.8776 55.7746 60.5687 54.715 61.4108 53.4227C63.0949 50.8379 65.383 47.3219 67.7988 43.5971C71.5798 37.7675 75.667 31.4359 78.2439 27.3592ZM63.0058 34.5889C61.9775 35.0705 60.9465 35.5528 59.9253 36.03C55.6555 38.025 51.5479 39.9351 48.508 41.3465C46.9881 42.0522 45.7349 42.6332 44.8617 43.0379L44.8026 43.0653C45.5436 46.9602 44.8682 50.6852 43.1893 53.9827C42.7448 54.8559 42.2301 55.6979 41.6541 56.505C44.7831 54.1236 48.1898 52.7783 51.2291 52.6467L51.9704 51.5113C52.7655 50.2933 53.8921 48.5674 55.2175 46.5361C57.4585 43.1015 60.2677 38.7931 63.0058 34.5889Z" fill="black"/>
<path d="M81.9254 9.19669C84.0341 9.01919 86.14 9.56967 87.8921 10.7562C89.6442 11.9428 90.9369 13.6938 91.5547 15.7177C92.1726 17.7416 92.0784 19.9162 91.2877 21.879C90.4969 23.8419 89.0574 25.4746 87.2092 26.505C85.3609 27.5355 82.7717 27.9277 80.6864 27.5683L81.6681 25.9555C83.3743 26.2495 84.8774 25.8781 86.3896 25.0351C87.9018 24.192 89.0796 22.8561 89.7265 21.2501C90.3735 19.6442 90.4506 17.8651 89.9451 16.2092C89.4396 14.5532 88.382 13.1204 86.9484 12.1496C85.5148 11.1788 83.7919 10.7285 82.0667 10.8737C80.3414 11.0189 78.7178 11.751 77.4667 12.9478C76.3392 14.0265 75.5754 15.4239 75.2734 16.9464L75.2593 17.019C75.2543 17.0454 75.2495 17.0719 75.2448 17.0985C75.224 17.2153 75.206 17.3329 75.1908 17.4511C75.1235 17.9725 75.1065 18.4956 75.1407 19.0126C75.1799 19.605 75.2864 20.1895 75.462 20.7542C75.5624 21.0771 75.6853 21.3935 75.831 21.7012C75.8484 21.7357 75.8661 21.7701 75.884 21.8044L75.8812 21.805C75.9776 22.0002 76.0833 22.1919 76.1985 22.3792C76.5686 22.9817 75.0152 23.6214 74.7259 23.1505C74.6699 23.0595 74.6158 22.9679 74.5636 22.8758C74.5096 22.7804 74.4576 22.6844 74.4076 22.5879C74.2254 22.2366 74.0697 21.8781 73.9398 21.5134C73.9014 21.4054 73.8652 21.2969 73.8312 21.1878C73.6877 20.7271 73.5842 20.257 73.5193 19.779L73.5189 19.7793C73.5169 19.7645 73.515 19.7497 73.5132 19.7349C73.5111 19.7186 73.5091 19.7023 73.5071 19.6859C73.4551 19.2705 73.4321 18.8492 73.4371 18.4233C73.4375 18.2703 73.4408 18.1135 73.4469 17.9523C73.4494 17.9512 73.4519 17.9499 73.4544 17.9487C73.4685 17.7123 73.4909 17.4746 73.5217 17.2358C73.7925 15.137 74.7743 13.1944 76.3034 11.7316C77.8325 10.2688 79.8167 9.3742 81.9254 9.19669Z" fill="black"/>
</g>
</g>
</svg>

</g>
</g>
</svg>