<?xml version="1.0" encoding="UTF-8"?>
<!--Generator: Apple Native CoreSVG 341-->
<!DOCTYPE svg
PUBLIC "-//W3C//DTD SVG 1.1//EN"
       "http://www.w3.org/Graphics/SVG/1.1/DTD/svg11.dtd">
<svg version="1.1" xmlns="http://www.w3.org/2000/svg" xmlns:xlink="http://www.w3.org/1999/xlink" viewBox="0 0 3300 2200">
 <!--glyph: "", point size: 100.0, font version: "21.0d6e2", template writer version: "138.0.0"-->
 <style>.defaults {-sfsymbols-variable-value-mode:color;-sfsymbols-draw-reverses-motion-groups:true}

.monochrome-0 {-sfsymbols-motion-group:0;-sfsymbols-layer-tags:25b4f564f35715da}

.multicolor-0:tintColor {-sfsymbols-motion-group:0;-sfsymbols-layer-tags:25b4f564f35715da}

.hierarchical-0:primary {-sfsymbols-motion-group:0;-sfsymbols-layer-tags:25b4f564f35715da}

.SFSymbolsPreviewWireframe {fill:none;opacity:1.0;stroke:black;stroke-width:0.5}
</style>
 <g id="Notes">
  <rect height="2200" id="artboard" style="fill:white;opacity:1" width="3300" x="0" y="0"/>
  <line style="fill:none;stroke:black;opacity:1;stroke-width:0.5;" x1="263" x2="3036" y1="292" y2="292"/>
  <text style="stroke:none;fill:black;font-family:sans-serif;font-size:13;font-weight:bold;" transform="matrix(1 0 0 1 263 322)">Weight/Scale Variations</text>
  <text style="stroke:none;fill:black;font-family:sans-serif;font-size:13;text-anchor:middle;" transform="matrix(1 0 0 1 559.711 322)">Ultralight</text>
  <text style="stroke:none;fill:black;font-family:sans-serif;font-size:13;text-anchor:middle;" transform="matrix(1 0 0 1 856.422 322)">Thin</text>
  <text style="stroke:none;fill:black;font-family:sans-serif;font-size:13;text-anchor:middle;" transform="matrix(1 0 0 1 1153.13 322)">Light</text>
  <text style="stroke:none;fill:black;font-family:sans-serif;font-size:13;text-anchor:middle;" transform="matrix(1 0 0 1 1449.84 322)">Regular</text>
  <text style="stroke:none;fill:black;font-family:sans-serif;font-size:13;text-anchor:middle;" transform="matrix(1 0 0 1 1746.56 322)">Medium</text>
  <text style="stroke:none;fill:black;font-family:sans-serif;font-size:13;text-anchor:middle;" transform="matrix(1 0 0 1 2043.27 322)">Semibold</text>
  <text style="stroke:none;fill:black;font-family:sans-serif;font-size:13;text-anchor:middle;" transform="matrix(1 0 0 1 2339.98 322)">Bold</text>
  <text style="stroke:none;fill:black;font-family:sans-serif;font-size:13;text-anchor:middle;" transform="matrix(1 0 0 1 2636.69 322)">Heavy</text>
  <text style="stroke:none;fill:black;font-family:sans-serif;font-size:13;text-anchor:middle;" transform="matrix(1 0 0 1 2933.4 322)">Black</text>
  <line style="fill:none;stroke:black;opacity:1;stroke-width:0.5;" x1="263" x2="3036" y1="1903" y2="1903"/>
  <g transform="matrix(0.2 0 0 0.2 263 1933)">
   <path d="m46.2402 4.15039c21.7773 0 39.4531-17.627 39.4531-39.4043s-17.6758-39.4043-39.4531-39.4043c-21.7285 0-39.4043 17.627-39.4043 39.4043s17.6758 39.4043 39.4043 39.4043Zm0-7.42188c-17.6758 0-31.9336-14.3066-31.9336-31.9824s14.2578-31.9824 31.9336-31.9824 31.9824 14.3066 31.9824 31.9824-14.3066 31.9824-31.9824 31.9824Zm3.61328-17.7734v-28.4668c0-2.24609-1.46484-3.75977-3.71094-3.75977-2.14844 0-3.61328 1.51367-3.61328 3.75977v28.4668c0 2.19727 1.46484 3.71094 3.61328 3.71094 2.24609 0 3.71094-1.51367 3.71094-3.71094Zm-17.8223-10.5957h28.418c2.19727 0 3.71094-1.46484 3.71094-3.61328 0-2.19727-1.51367-3.71094-3.71094-3.71094h-28.418c-2.24609 0-3.75977 1.51367-3.75977 3.71094 0 2.14844 1.51367 3.61328 3.75977 3.61328Z"/>
  </g>
  <g transform="matrix(0.2 0 0 0.2 281.506 1933)">
   <path d="m58.5449 14.5508c27.4902 0 49.8047-22.3145 49.8047-49.8047s-22.3145-49.8047-49.8047-49.8047-49.8047 22.3145-49.8047 49.8047 22.3145 49.8047 49.8047 49.8047Zm0-8.30078c-22.9492 0-41.5039-18.5547-41.5039-41.5039s18.5547-41.5039 41.5039-41.5039 41.5039 18.5547 41.5039 41.5039-18.5547 41.5039-41.5039 41.5039Zm4.05273-23.0957v-36.9141c0-2.49023-1.70898-4.19922-4.15039-4.19922-2.39258 0-4.05273 1.70898-4.05273 4.19922v36.9141c0 2.44141 1.66016 4.15039 4.05273 4.15039 2.44141 0 4.15039-1.66016 4.15039-4.15039Zm-22.5586-14.4043h36.9629c2.44141 0 4.15039-1.61133 4.15039-4.00391 0-2.44141-1.70898-4.15039-4.15039-4.15039h-36.9629c-2.49023 0-4.15039 1.70898-4.15039 4.15039 0 2.39258 1.66016 4.00391 4.15039 4.00391Z"/>
  </g>
  <g transform="matrix(0.2 0 0 0.2 304.924 1933)">
   <path d="m74.8535 28.3203c35.1074 0 63.623-28.4668 63.623-63.5742s-28.5156-63.623-63.623-63.623-63.5742 28.5156-63.5742 63.623 28.4668 63.5742 63.5742 63.5742Zm0-9.08203c-30.127 0-54.4922-24.3652-54.4922-54.4922s24.3652-54.4922 54.4922-54.4922 54.4922 24.3652 54.4922 54.4922-24.3652 54.4922-54.4922 54.4922Zm4.44336-30.3223v-48.4863c0-2.73438-1.85547-4.63867-4.54102-4.63867-2.58789 0-4.44336 1.9043-4.44336 4.63867v48.4863c0 2.68555 1.85547 4.58984 4.44336 4.58984 2.68555 0 4.54102-1.85547 4.54102-4.58984Zm-28.7109-19.7754h48.4863c2.68555 0 4.58984-1.80664 4.58984-4.39453 0-2.73438-1.85547-4.58984-4.58984-4.58984h-48.4863c-2.73438 0-4.58984 1.85547-4.58984 4.58984 0 2.58789 1.85547 4.39453 4.58984 4.39453Z"/>
  </g>
  <text style="stroke:none;fill:black;font-family:sans-serif;font-size:13;font-weight:bold;" transform="matrix(1 0 0 1 263 1953)">Design Variations</text>
  <text style="stroke:none;fill:black;font-family:sans-serif;font-size:13;" transform="matrix(1 0 0 1 263 1971)">Symbols are supported in up to nine weights and three scales.</text>
  <text style="stroke:none;fill:black;font-family:sans-serif;font-size:13;" transform="matrix(1 0 0 1 263 1989)">For optimal layout with text and other symbols, vertically align</text>
  <text style="stroke:none;fill:black;font-family:sans-serif;font-size:13;" transform="matrix(1 0 0 1 263 2007)">symbols with the adjacent text.</text>
  <line style="fill:none;stroke:#00AEEF;stroke-width:0.5;opacity:1.0;" x1="776" x2="776" y1="1919" y2="1933"/>
  <g transform="matrix(0.2 0 0 0.2 776 1933)">
   <path d="m16.5527 0.78125c2.58789 0 3.85742-0.976562 4.78516-3.71094l20.5566-57.5195h0.244141l20.6055 57.5195c0.927734 2.73438 2.19727 3.71094 4.73633 3.71094 2.58789 0 4.24805-1.5625 4.24805-4.00391 0-0.830078-0.146484-1.61133-0.537109-2.63672l-22.9004-60.9863c-1.12305-2.97852-3.125-4.49219-6.25-4.49219-3.02734 0-5.07812 1.46484-6.15234 4.44336l-22.9004 61.084c-0.390625 1.02539-0.537109 1.80664-0.537109 2.63672 0 2.44141 1.5625 3.95508 4.10156 3.95508Zm10.2051-20.9473h30.6641c2.00195 0 3.66211-1.66016 3.66211-3.66211 0-2.05078-1.66016-3.66211-3.66211-3.66211h-30.6641c-2.00195 0-3.66211 1.61133-3.66211 3.66211 0 2.00195 1.66016 3.66211 3.66211 3.66211Z"/>
  </g>
  <line style="fill:none;stroke:#00AEEF;stroke-width:0.5;opacity:1.0;" x1="792.836" x2="792.836" y1="1919" y2="1933"/>
  <text style="stroke:none;fill:black;font-family:sans-serif;font-size:13;font-weight:bold;" transform="matrix(1 0 0 1 776 1953)">Margins</text>
  <text style="stroke:none;fill:black;font-family:sans-serif;font-size:13;" transform="matrix(1 0 0 1 776 1971)">Leading and trailing margins on the left and right side of each symbol</text>
  <text style="stroke:none;fill:black;font-family:sans-serif;font-size:13;" transform="matrix(1 0 0 1 776 1989)">can be adjusted by modifying the x-location of the margin guidelines.</text>
  <text style="stroke:none;fill:black;font-family:sans-serif;font-size:13;" transform="matrix(1 0 0 1 776 2007)">Modifications are automatically applied proportionally to all</text>
  <text style="stroke:none;fill:black;font-family:sans-serif;font-size:13;" transform="matrix(1 0 0 1 776 2025)">scales and weights.</text>
  <g transform="matrix(0.2 0 0 0.2 1289 1933)">
   <path d="m14.209 13.1348 7.86133 7.86133c4.29688 4.39453 9.32617 4.10156 13.8672-1.02539l60.6934-68.2129-4.88281-4.88281-60.2539 67.6758c-1.80664 1.95312-3.4668 2.44141-5.81055 0.0976562l-5.17578-5.12695c-2.29492-2.29492-1.80664-3.95508 0.195312-5.81055l67.4805-62.1582-4.88281-4.83398-68.0664 62.5977c-4.98047 4.58984-5.32227 9.47266-1.02539 13.8184Zm44.873-97.4609c-2.05078 2.00195-2.24609 4.88281-1.07422 6.78711 1.12305 1.80664 3.4668 3.02734 6.5918 2.24609 5.85938-1.66016 12.5977-2.39258 18.8965 0.927734l-2.68555 7.12891c-1.61133 4.00391-0.732422 6.88477 1.70898 9.42383l10.2539 10.3027c2.34375 2.39258 4.54102 2.44141 7.08008 1.95312l4.44336-0.732422 2.58789 2.53906-0.195312 2.24609c-0.0976562 2.29492 0.537109 4.29688 2.7832 6.49414l3.36914 3.32031c2.29492 2.29492 5.51758 2.49023 7.8125 0.195312l12.9883-13.0371c2.29492-2.34375 2.14844-5.37109-0.195312-7.66602l-3.41797-3.41797c-2.19727-2.19727-4.05273-3.02734-6.34766-2.88086l-2.34375 0.244141-2.44141-2.44141 1.02539-4.6875c0.634766-2.73438-0.244141-4.98047-2.88086-7.61719l-11.2793-11.1816c-12.9395-12.8418-35.5957-11.0352-46.6797-0.146484Zm7.08008 2.05078c8.78906-6.39648 25.9766-5.66406 33.6914 1.95312l12.3047 12.207c1.02539 1.02539 1.2207 1.80664 0.927734 3.32031l-1.46484 6.64062 6.73828 6.68945 4.39453-0.244141c1.12305-0.0488281 1.51367 0.0488281 2.34375 0.878906l2.53906 2.49023-10.8398 10.8398-2.49023-2.49023c-0.830078-0.878906-0.976562-1.2207-0.927734-2.39258l0.292969-4.3457-6.68945-6.73828-6.83594 1.17188c-1.41602 0.292969-2.05078 0.195312-3.17383-0.878906l-8.93555-8.88672c-1.07422-1.02539-1.17188-1.70898-0.488281-3.36914l4.58984-11.4746c-6.10352-6.34766-17.041-7.51953-25.5859-4.58984-0.683594 0.244141-0.927734-0.390625-0.390625-0.78125Z"/>
  </g>
  <text style="stroke:none;fill:black;font-family:sans-serif;font-size:13;font-weight:bold;" transform="matrix(1 0 0 1 1289 1953)">Exporting</text>
  <text style="stroke:none;fill:black;font-family:sans-serif;font-size:13;" transform="matrix(1 0 0 1 1289 1971)">Symbols should be outlined when exporting to ensure the</text>
  <text style="stroke:none;fill:black;font-family:sans-serif;font-size:13;" transform="matrix(1 0 0 1 1289 1989)">design is preserved when submitting to Xcode.</text>
  <text id="template-version" style="stroke:none;fill:black;font-family:sans-serif;font-size:13;text-anchor:end;" transform="matrix(1 0 0 1 3036 1933)">Template v.7.0</text>
  <text style="stroke:none;fill:black;font-family:sans-serif;font-size:13;text-anchor:end;" transform="matrix(1 0 0 1 3036 1951)">Requires Xcode 17 or greater</text>
  <text id="descriptive-name" style="stroke:none;fill:black;font-family:sans-serif;font-size:13;text-anchor:end;" transform="matrix(1 0 0 1 3036 1969)">Generated from measure.cup.liquid.fill</text>
  <text style="stroke:none;fill:black;font-family:sans-serif;font-size:13;text-anchor:end;" transform="matrix(1 0 0 1 3036 1987)">Typeset at 100.0 points</text>
  <text style="stroke:none;fill:black;font-family:sans-serif;font-size:13;" transform="matrix(1 0 0 1 263 726)">Small</text>
  <text style="stroke:none;fill:black;font-family:sans-serif;font-size:13;" transform="matrix(1 0 0 1 263 1156)">Medium</text>
  <text style="stroke:none;fill:black;font-family:sans-serif;font-size:13;" transform="matrix(1 0 0 1 263 1586)">Large</text>
 </g>
 <g id="Guides">
  <g id="H-reference" style="fill:#27AAE1;stroke:none;" transform="matrix(1 0 0 1 339 696)">
   <path d="M0.993654 0L3.63775 0L29.3281-67.1323L30.0303-67.1323L30.0303-70.459L28.1226-70.459ZM11.6885-24.4799L46.9815-24.4799L46.2315-26.7285L12.4385-26.7285ZM55.1196 0L57.7637 0L30.6382-70.459L29.4326-70.459L29.4326-67.1323Z"/>
  </g>
  <line id="Baseline-S" style="fill:none;stroke:#27AAE1;opacity:1;stroke-width:0.5;" x1="263" x2="3036" y1="696" y2="696"/>
  <line id="Capline-S" style="fill:none;stroke:#27AAE1;opacity:1;stroke-width:0.5;" x1="263" x2="3036" y1="625.541" y2="625.541"/>
  <g id="H-reference" style="fill:#27AAE1;stroke:none;" transform="matrix(1 0 0 1 339 1126)">
   <path d="M0.993654 0L3.63775 0L29.3281-67.1323L30.0303-67.1323L30.0303-70.459L28.1226-70.459ZM11.6885-24.4799L46.9815-24.4799L46.2315-26.7285L12.4385-26.7285ZM55.1196 0L57.7637 0L30.6382-70.459L29.4326-70.459L29.4326-67.1323Z"/>
  </g>
  <line id="Baseline-M" style="fill:none;stroke:#27AAE1;opacity:1;stroke-width:0.5;" x1="263" x2="3036" y1="1126" y2="1126"/>
  <line id="Capline-M" style="fill:none;stroke:#27AAE1;opacity:1;stroke-width:0.5;" x1="263" x2="3036" y1="1055.54" y2="1055.54"/>
  <g id="H-reference" style="fill:#27AAE1;stroke:none;" transform="matrix(1 0 0 1 339 1556)">
   <path d="M0.993654 0L3.63775 0L29.3281-67.1323L30.0303-67.1323L30.0303-70.459L28.1226-70.459ZM11.6885-24.4799L46.9815-24.4799L46.2315-26.7285L12.4385-26.7285ZM55.1196 0L57.7637 0L30.6382-70.459L29.4326-70.459L29.4326-67.1323Z"/>
  </g>
  <line id="Baseline-L" style="fill:none;stroke:#27AAE1;opacity:1;stroke-width:0.5;" x1="263" x2="3036" y1="1556" y2="1556"/>
  <line id="Capline-L" style="fill:none;stroke:#27AAE1;opacity:1;stroke-width:0.5;" x1="263" x2="3036" y1="1485.54" y2="1485.54"/>
  <line id="right-margin-Black-S" style="fill:none;stroke:#00AEEF;stroke-width:0.5;opacity:1.0;" x1="2979.4" x2="2979.4" y1="600.785" y2="720.121"/>
  <line id="left-margin-Black-S" style="fill:none;stroke:#00AEEF;stroke-width:0.5;opacity:1.0;" x1="2887.4" x2="2887.4" y1="600.785" y2="720.121"/>
  <line id="right-margin-Regular-S" style="fill:none;stroke:#00AEEF;stroke-width:0.5;opacity:1.0;" x1="1495.84" x2="1495.84" y1="600.785" y2="720.121"/>
  <line id="left-margin-Regular-S" style="fill:none;stroke:#00AEEF;stroke-width:0.5;opacity:1.0;" x1="1403.84" x2="1403.84" y1="600.785" y2="720.121"/>
  <line id="right-margin-Ultralight-S" style="fill:none;stroke:#00AEEF;stroke-width:0.5;opacity:1.0;" x1="605.711" x2="605.711" y1="600.785" y2="720.121"/>
  <line id="left-margin-Ultralight-S" style="fill:none;stroke:#00AEEF;stroke-width:0.5;opacity:1.0;" x1="513.711" x2="513.711" y1="600.785" y2="720.121"/>
 </g>
 <g id="Symbols">
  <g id="Black-S" transform="matrix(1 0 0 1 2887.4 696)">
   <path class="monochrome-0 multicolor-0:tintColor hierarchical-0:primary SFSymbolsPreviewWireframe" d="M70.9373-62.1932C73.8647-62.187 76.0045-62.1785 77.4334-62.1668C78.1478-62.161 78.6831-62.1546 79.0496-62.1473C79.2331-62.1436 79.3726-62.1404 79.4695-62.1365C79.5909-62.1317 79.6-62.1273 79.5701-62.1336L79.572-62.1336C80.7512-61.8899 82.0979-60.8155 82.7302-59.5594L82.7302-59.5604C82.9285-59.1591 83.025-59.0108 83.1052-58.7274C83.1853-58.4442 83.2452-58.0225 83.282-57.1541C83.3555-55.4185 83.3334-52.0653 83.3064-44.8455C83.2749-37.8058 83.27-34.5464 83.2009-32.9578C83.1657-32.1482 83.1147-31.839 83.0642-31.6951C83.0457-31.6425 83.0397-31.6289 83.0115-31.5985L82.8298-31.4012C82.5931-31.1334 82.4495-31.0304 82.199-30.9627C81.8934-30.8802 81.4255-30.8517 80.5134-30.8426C79.3146-30.8346 79.007-30.8588 78.7771-30.9295L78.6814-30.9627C78.518-31.0269 78.3016-31.1807 78.1062-31.3885C77.9115-31.5956 77.7982-31.7933 77.7644-31.9139C77.764-31.9191 77.7639-31.9253 77.7634-31.9324C77.7606-31.975 77.757-32.038 77.7537-32.1219C77.7471-32.2889 77.7407-32.5279 77.7341-32.8328C77.721-33.4422 77.7084-34.3078 77.6961-35.3778C77.6837-36.4478 77.6718-37.7211 77.6609-39.1444L77.6306-43.8123C77.5948-50.3007 77.5908-53.3373 77.5125-54.7996C77.4928-55.1674 77.4672-55.4503 77.4334-55.6697C77.4001-55.885 77.3539-56.0712 77.2761-56.2274C77.1884-56.4035 77.0744-56.5161 76.9539-56.5985C76.9039-56.6326 76.8517-56.6619 76.8211-56.6795L76.7361-56.7313L76.4461-56.9324L76.3172-57.0223L71.5154-57.0223C69.2669-57.0223 68.093-57.0199 67.4597-56.9959C67.1498-56.9841 66.9319-56.9667 66.7722-56.9305C66.6853-56.9108 66.601-56.8825 66.5203-56.8387C66.4384-56.7942 66.3811-56.7451 66.3465-56.7137L66.3289-56.6961C66.2313-56.5985 66.1498-56.4727 66.0916-56.3621C66.0331-56.2511 65.9728-56.1083 65.947-55.9627L65.9461-55.9578C65.9288-55.854 65.8431-54.986 65.7224-53.7205L65.2673-48.8416C64.405-39.4901 63.6511-31.5848 62.7078-21.8914L62.7068-21.8895L62.1228-15.7801C61.8577-12.9893 61.706-11.4342 61.6023-10.534C61.4959-9.6105 61.445-9.4341 61.406-9.3416L61.405-9.3416L61.4011-9.3319C61.3481-9.1981 61.2123-8.9951 61.0173-8.786C60.8248-8.5794 60.6185-8.414 60.4636-8.3319L60.4617-8.3309L60.2039-8.1922L42.0017-8.1746C36.962-8.1701 32.3555-8.1743 28.9939-8.1844C27.3131-8.1894 25.9435-8.1965 24.9871-8.2039C24.5088-8.2076 24.1345-8.2115 23.8767-8.2156C23.7476-8.2177 23.6495-8.2195 23.5828-8.2215C23.5719-8.2218 23.5622-8.2231 23.5535-8.2235C23.0226-8.4056 22.5447-8.8576 22.3543-9.3592C22.3589-9.3468 22.3521-9.3663 22.3338-9.451C22.3181-9.5235 22.298-9.6223 22.2752-9.7459C22.2295-9.9929 22.173-10.328 22.1082-10.7283C21.9785-11.5284 21.8187-12.5808 21.6619-13.6922L21.6619-13.6942L20.6804-20.5301C20.2245-23.7214 19.6763-27.5686 19.1463-31.3016C18.6161-35.0306 18.1222-38.4573 17.7537-40.9715C17.5695-42.2284 17.4167-43.2584 17.3064-43.9842C17.2513-44.3468 17.2062-44.6348 17.1736-44.8377C17.1573-44.9388 17.1441-45.0209 17.1336-45.0809C17.1284-45.1104 17.1233-45.137 17.1189-45.159C17.117-45.1688 17.1089-45.2125 17.0955-45.2528L17.0916-45.2645L17.0867-45.2752L17.032-45.3983C16.9578-45.5499 16.8313-45.7829 16.6892-46.0389C16.4885-46.4007 16.2278-46.8579 15.9568-47.3231L15.9558-47.325L12.3006-53.4715C10.7528-56.0695 9.19749-58.6752 8.60426-59.6639C8.17056-60.3867 7.73886-61.1276 7.63942-61.3182C7.43542-61.7133 7.50442-61.9858 7.60231-62.0994L7.60329-62.0994L7.66872-62.1776L43.323-62.2039C56.0807-62.2084 65.0824-62.2055 70.9373-62.1932ZM42.7654-22.2528C40.6902-22.2528 39.1642-22.2461 38.1404-22.2303C37.6293-22.2224 37.2383-22.2121 36.9656-22.199C36.8301-22.1926 36.7167-22.1856 36.6297-22.1766C36.5869-22.1721 36.5427-22.1667 36.5017-22.159C36.4871-22.1563 36.4314-22.146 36.367-22.1199L36.3093-22.0936C36.1652-22.015 36.0543-21.8872 35.9861-21.7967C35.9084-21.6937 35.8353-21.5706 35.782-21.4442L35.781-21.4412C35.724-21.3033 35.6619-21.1372 35.6619-20.9442C35.6619-20.7513 35.724-20.5859 35.781-20.4481L35.782-20.4451C35.8326-20.3249 35.9013-20.2042 35.9763-20.1004C36.0394-20.0132 36.1446-19.8856 36.2879-19.8035L36.2879-19.8026C36.2894-19.8017 36.2912-19.8015 36.2927-19.8006C36.2952-19.7992 36.2971-19.7971 36.2996-19.7957L36.2996-19.7977C36.3562-19.7666 36.4059-19.751 36.4246-19.7459C36.4522-19.7385 36.4783-19.7336 36.4978-19.7303C36.5371-19.7236 36.5802-19.7186 36.6218-19.7147C36.7067-19.7068 36.8186-19.7 36.9539-19.6942C37.2267-19.6823 37.62-19.6727 38.1355-19.6649C39.1678-19.6491 40.7072-19.6401 42.7918-19.6356L49.0974-19.6356L49.2449-19.7899L49.4607-20.0145L49.4597-20.0154C49.9964-20.5505 49.9237-21.3386 49.4168-21.8455L49.157-22.1063L49.0105-22.2528L42.7654-22.2528ZM42.784-31.4168C38.0167-31.4168 35.6085-31.4169 34.365-31.3944C33.7502-31.3832 33.3936-31.3665 33.1726-31.3367C33.0594-31.3215 32.9544-31.2997 32.8572-31.2606C32.7491-31.217 32.6783-31.1628 32.6404-31.1336L32.6336-31.1278C32.2233-30.7995 32.0912-30.2929 32.1609-29.8592C32.2308-29.4248 32.5197-28.978 33.0408-28.8279L33.0525-28.825C33.1187-28.8077 33.1966-28.8032 33.2215-28.8016C33.2685-28.7984 33.3285-28.7954 33.3982-28.7928C33.5385-28.7876 33.7329-28.7836 33.9754-28.7791C34.4611-28.7702 35.1498-28.7619 36.0066-28.7557C37.7209-28.7433 40.115-28.7371 42.9187-28.7371L42.9197-28.7371L52.3797-28.7547L52.5925-28.7557L52.739-28.908L52.9558-29.1356L52.9568-29.1346C53.1582-29.336 53.3292-29.6716 53.3826-29.952L53.3845-29.9656C53.4097-30.1215 53.4323-30.323 53.3504-30.5379C53.2767-30.7308 53.1377-30.8792 53.0271-30.994L52.6043-31.4168L42.784-31.4168ZM42.8103-41.2098C38.6225-41.2098 36.5139-41.2102 35.4226-41.1658C34.8896-41.1442 34.5451-41.1109 34.3103-41.0418C34.1794-41.0033 34.0625-40.9485 33.9588-40.8651C33.9108-40.8265 33.8711-40.7848 33.8396-40.7488L33.7713-40.6649C33.521-40.3402 33.5211-39.9146 33.5945-39.6092C33.6679-39.3037 33.8613-38.9258 34.2312-38.7498C34.306-38.7142 34.3781-38.7034 34.3865-38.702C34.414-38.6973 34.4422-38.6937 34.4666-38.6912C34.5164-38.6861 34.5782-38.6814 34.6472-38.6776C34.7871-38.6697 34.9794-38.6626 35.2136-38.6561C35.6835-38.6431 36.3376-38.6327 37.1121-38.6238C38.6617-38.6061 40.7035-38.5967 42.7449-38.5955C44.7864-38.5944 46.8297-38.601 48.3816-38.617C49.1572-38.625 49.8125-38.6358 50.284-38.6483C50.5191-38.6545 50.7124-38.6611 50.8533-38.6688C50.9227-38.6726 50.9848-38.6764 51.0349-38.6815C51.0595-38.6839 51.0878-38.6877 51.115-38.6922C51.1256-38.694 51.1943-38.7038 51.2654-38.7362L51.2644-38.7371C52.1145-39.1223 52.1703-40.2053 51.573-40.8026L51.3132-41.0633L51.1668-41.2098L42.8103-41.2098ZM29.1804-50.3104C29.0698-50.1955 28.9309-50.0474 28.8572-49.8543C28.7752-49.6393 28.7969-49.438 28.822-49.2821L28.823-49.2781C28.8704-49.0006 28.9988-48.7414 29.1648-48.5399C29.3254-48.345 29.5644-48.1533 29.8621-48.0975L29.864-48.0975C29.8964-48.0916 29.9262-48.0899 29.9295-48.0897C29.9397-48.089 29.9508-48.0881 29.9597-48.0877C29.9779-48.087 30.0006-48.0864 30.0261-48.0858C30.0784-48.0845 30.1515-48.0831 30.2429-48.0819C30.4262-48.0794 30.6895-48.0776 31.0232-48.075C31.6911-48.0698 32.6451-48.0644 33.8132-48.0594C36.1497-48.0493 39.3461-48.0395 42.8367-48.035C48.5136-48.0305 51.6981-48.0334 53.4929-48.0526C54.3884-48.0621 54.9474-48.0756 55.2996-48.0955C55.4746-48.1054 55.6101-48.1177 55.7156-48.1336C55.8121-48.1482 55.9235-48.1726 56.0271-48.2254L56.0281-48.2244L56.0291-48.2254C56.03-48.2259 56.0311-48.2259 56.032-48.2264L56.031-48.2274C56.8738-48.6587 57.0103-49.8522 56.2869-50.4529L56.2879-50.4529C56.2856-50.4549 56.2833-50.4569 56.281-50.4588L56.28-50.4588C56.1805-50.541 56.0712-50.5836 55.9646-50.6092C55.8635-50.6335 55.739-50.6483 55.5877-50.66C55.2812-50.6837 54.7711-50.6991 53.9021-50.7098C52.1563-50.7312 48.9045-50.7332 42.7927-50.7332L29.6033-50.7332L29.1804-50.3104Z"/>
  </g>
  <g id="Regular-S" transform="matrix(1 0 0 1 1403.84 696)">
   <path class="monochrome-0 multicolor-0:tintColor hierarchical-0:primary SFSymbolsPreviewWireframe" d="M70.9373-62.1932C73.8647-62.187 76.0045-62.1785 77.4334-62.1668C78.1478-62.161 78.6831-62.1546 79.0496-62.1473C79.2331-62.1436 79.3726-62.1404 79.4695-62.1365C79.5909-62.1317 79.6-62.1273 79.5701-62.1336L79.572-62.1336C80.7512-61.8899 82.0979-60.8155 82.7302-59.5594L82.7302-59.5604C82.9285-59.1591 83.025-59.0108 83.1052-58.7274C83.1853-58.4442 83.2452-58.0225 83.282-57.1541C83.3555-55.4185 83.3334-52.0653 83.3064-44.8455C83.2749-37.8058 83.27-34.5464 83.2009-32.9578C83.1657-32.1482 83.1147-31.839 83.0642-31.6951C83.0457-31.6425 83.0397-31.6289 83.0115-31.5985L82.8298-31.4012C82.5931-31.1334 82.4495-31.0304 82.199-30.9627C81.8934-30.8802 81.4255-30.8517 80.5134-30.8426C79.3146-30.8346 79.007-30.8588 78.7771-30.9295L78.6814-30.9627C78.518-31.0269 78.3016-31.1807 78.1062-31.3885C77.9115-31.5956 77.7982-31.7933 77.7644-31.9139C77.764-31.9191 77.7639-31.9253 77.7634-31.9324C77.7606-31.975 77.757-32.038 77.7537-32.1219C77.7471-32.2889 77.7407-32.5279 77.7341-32.8328C77.721-33.4422 77.7084-34.3078 77.6961-35.3778C77.6837-36.4478 77.6718-37.7211 77.6609-39.1444L77.6306-43.8123C77.5948-50.3007 77.5908-53.3373 77.5125-54.7996C77.4928-55.1674 77.4672-55.4503 77.4334-55.6697C77.4001-55.885 77.3539-56.0712 77.2761-56.2274C77.1884-56.4035 77.0744-56.5161 76.9539-56.5985C76.9039-56.6326 76.8517-56.6619 76.8211-56.6795L76.7361-56.7313L76.4461-56.9324L76.3172-57.0223L71.5154-57.0223C69.2669-57.0223 68.093-57.0199 67.4597-56.9959C67.1498-56.9841 66.9319-56.9667 66.7722-56.9305C66.6853-56.9108 66.601-56.8825 66.5203-56.8387C66.4384-56.7942 66.3811-56.7451 66.3465-56.7137L66.3289-56.6961C66.2313-56.5985 66.1498-56.4727 66.0916-56.3621C66.0331-56.2511 65.9728-56.1083 65.947-55.9627L65.9461-55.9578C65.9288-55.854 65.8431-54.986 65.7224-53.7205L65.2673-48.8416C64.405-39.4901 63.6511-31.5848 62.7078-21.8914L62.7068-21.8895L62.1228-15.7801C61.8577-12.9893 61.706-11.4342 61.6023-10.534C61.4959-9.6105 61.445-9.4341 61.406-9.3416L61.405-9.3416L61.4011-9.3319C61.3481-9.1981 61.2123-8.9951 61.0173-8.786C60.8248-8.5794 60.6185-8.414 60.4636-8.3319L60.4617-8.3309L60.2039-8.1922L42.0017-8.1746C36.962-8.1701 32.3555-8.1743 28.9939-8.1844C27.3131-8.1894 25.9435-8.1965 24.9871-8.2039C24.5088-8.2076 24.1345-8.2115 23.8767-8.2156C23.7476-8.2177 23.6495-8.2195 23.5828-8.2215C23.5719-8.2218 23.5622-8.2231 23.5535-8.2235C23.0226-8.4056 22.5447-8.8576 22.3543-9.3592C22.3589-9.3468 22.3521-9.3663 22.3338-9.451C22.3181-9.5235 22.298-9.6223 22.2752-9.7459C22.2295-9.9929 22.173-10.328 22.1082-10.7283C21.9785-11.5284 21.8187-12.5808 21.6619-13.6922L21.6619-13.6942L20.6804-20.5301C20.2245-23.7214 19.6763-27.5686 19.1463-31.3016C18.6161-35.0306 18.1222-38.4573 17.7537-40.9715C17.5695-42.2284 17.4167-43.2584 17.3064-43.9842C17.2513-44.3468 17.2062-44.6348 17.1736-44.8377C17.1573-44.9388 17.1441-45.0209 17.1336-45.0809C17.1284-45.1104 17.1233-45.137 17.1189-45.159C17.117-45.1688 17.1089-45.2125 17.0955-45.2528L17.0916-45.2645L17.0867-45.2752L17.032-45.3983C16.9578-45.5499 16.8313-45.7829 16.6892-46.0389C16.4885-46.4007 16.2278-46.8579 15.9568-47.3231L15.9558-47.325L12.3006-53.4715C10.7528-56.0695 9.19749-58.6752 8.60426-59.6639C8.17056-60.3867 7.73886-61.1276 7.63942-61.3182C7.43542-61.7133 7.50442-61.9858 7.60231-62.0994L7.60329-62.0994L7.66872-62.1776L43.323-62.2039C56.0807-62.2084 65.0824-62.2055 70.9373-62.1932ZM42.7654-22.2528C40.6902-22.2528 39.1642-22.2461 38.1404-22.2303C37.6293-22.2224 37.2383-22.2121 36.9656-22.199C36.8301-22.1926 36.7167-22.1856 36.6297-22.1766C36.5869-22.1721 36.5427-22.1667 36.5017-22.159C36.4871-22.1563 36.4314-22.146 36.367-22.1199L36.3093-22.0936C36.1652-22.015 36.0543-21.8872 35.9861-21.7967C35.9084-21.6937 35.8353-21.5706 35.782-21.4442L35.781-21.4412C35.724-21.3033 35.6619-21.1372 35.6619-20.9442C35.6619-20.7513 35.724-20.5859 35.781-20.4481L35.782-20.4451C35.8326-20.3249 35.9013-20.2042 35.9763-20.1004C36.0394-20.0132 36.1446-19.8856 36.2879-19.8035L36.2879-19.8026C36.2894-19.8017 36.2912-19.8015 36.2927-19.8006C36.2952-19.7992 36.2971-19.7971 36.2996-19.7957L36.2996-19.7977C36.3562-19.7666 36.4059-19.751 36.4246-19.7459C36.4522-19.7385 36.4783-19.7336 36.4978-19.7303C36.5371-19.7236 36.5802-19.7186 36.6218-19.7147C36.7067-19.7068 36.8186-19.7 36.9539-19.6942C37.2267-19.6823 37.62-19.6727 38.1355-19.6649C39.1678-19.6491 40.7072-19.6401 42.7918-19.6356L49.0974-19.6356L49.2449-19.7899L49.4607-20.0145L49.4597-20.0154C49.9964-20.5505 49.9237-21.3386 49.4168-21.8455L49.157-22.1063L49.0105-22.2528L42.7654-22.2528ZM42.784-31.4168C38.0167-31.4168 35.6085-31.4169 34.365-31.3944C33.7502-31.3832 33.3936-31.3665 33.1726-31.3367C33.0594-31.3215 32.9544-31.2997 32.8572-31.2606C32.7491-31.217 32.6783-31.1628 32.6404-31.1336L32.6336-31.1278C32.2233-30.7995 32.0912-30.2929 32.1609-29.8592C32.2308-29.4248 32.5197-28.978 33.0408-28.8279L33.0525-28.825C33.1187-28.8077 33.1966-28.8032 33.2215-28.8016C33.2685-28.7984 33.3285-28.7954 33.3982-28.7928C33.5385-28.7876 33.7329-28.7836 33.9754-28.7791C34.4611-28.7702 35.1498-28.7619 36.0066-28.7557C37.7209-28.7433 40.115-28.7371 42.9187-28.7371L42.9197-28.7371L52.3797-28.7547L52.5925-28.7557L52.739-28.908L52.9558-29.1356L52.9568-29.1346C53.1582-29.336 53.3292-29.6716 53.3826-29.952L53.3845-29.9656C53.4097-30.1215 53.4323-30.323 53.3504-30.5379C53.2767-30.7308 53.1377-30.8792 53.0271-30.994L52.6043-31.4168L42.784-31.4168ZM42.8103-41.2098C38.6225-41.2098 36.5139-41.2102 35.4226-41.1658C34.8896-41.1442 34.5451-41.1109 34.3103-41.0418C34.1794-41.0033 34.0625-40.9485 33.9588-40.8651C33.9108-40.8265 33.8711-40.7848 33.8396-40.7488L33.7713-40.6649C33.521-40.3402 33.5211-39.9146 33.5945-39.6092C33.6679-39.3037 33.8613-38.9258 34.2312-38.7498C34.306-38.7142 34.3781-38.7034 34.3865-38.702C34.414-38.6973 34.4422-38.6937 34.4666-38.6912C34.5164-38.6861 34.5782-38.6814 34.6472-38.6776C34.7871-38.6697 34.9794-38.6626 35.2136-38.6561C35.6835-38.6431 36.3376-38.6327 37.1121-38.6238C38.6617-38.6061 40.7035-38.5967 42.7449-38.5955C44.7864-38.5944 46.8297-38.601 48.3816-38.617C49.1572-38.625 49.8125-38.6358 50.284-38.6483C50.5191-38.6545 50.7124-38.6611 50.8533-38.6688C50.9227-38.6726 50.9848-38.6764 51.0349-38.6815C51.0595-38.6839 51.0878-38.6877 51.115-38.6922C51.1256-38.694 51.1943-38.7038 51.2654-38.7362L51.2644-38.7371C52.1145-39.1223 52.1703-40.2053 51.573-40.8026L51.3132-41.0633L51.1668-41.2098L42.8103-41.2098ZM29.1804-50.3104C29.0698-50.1955 28.9309-50.0474 28.8572-49.8543C28.7752-49.6393 28.7969-49.438 28.822-49.2821L28.823-49.2781C28.8704-49.0006 28.9988-48.7414 29.1648-48.5399C29.3254-48.345 29.5644-48.1533 29.8621-48.0975L29.864-48.0975C29.8964-48.0916 29.9262-48.0899 29.9295-48.0897C29.9397-48.089 29.9508-48.0881 29.9597-48.0877C29.9779-48.087 30.0006-48.0864 30.0261-48.0858C30.0784-48.0845 30.1515-48.0831 30.2429-48.0819C30.4262-48.0794 30.6895-48.0776 31.0232-48.075C31.6911-48.0698 32.6451-48.0644 33.8132-48.0594C36.1497-48.0493 39.3461-48.0395 42.8367-48.035C48.5136-48.0305 51.6981-48.0334 53.4929-48.0526C54.3884-48.0621 54.9474-48.0756 55.2996-48.0955C55.4746-48.1054 55.6101-48.1177 55.7156-48.1336C55.8121-48.1482 55.9235-48.1726 56.0271-48.2254L56.0281-48.2244L56.0291-48.2254C56.03-48.2259 56.0311-48.2259 56.032-48.2264L56.031-48.2274C56.8738-48.6587 57.0103-49.8522 56.2869-50.4529L56.2879-50.4529C56.2856-50.4549 56.2833-50.4569 56.281-50.4588L56.28-50.4588C56.1805-50.541 56.0712-50.5836 55.9646-50.6092C55.8635-50.6335 55.739-50.6483 55.5877-50.66C55.2812-50.6837 54.7711-50.6991 53.9021-50.7098C52.1563-50.7312 48.9045-50.7332 42.7927-50.7332L29.6033-50.7332L29.1804-50.3104Z"/>
  </g>
  <g id="Ultralight-S" transform="matrix(1 0 0 1 513.711 696)">
   <path class="monochrome-0 multicolor-0:tintColor hierarchical-0:primary SFSymbolsPreviewWireframe" d="M70.9373-62.1932C73.8647-62.187 76.0045-62.1785 77.4334-62.1668C78.1478-62.161 78.6831-62.1546 79.0496-62.1473C79.2331-62.1436 79.3726-62.1404 79.4695-62.1365C79.5909-62.1317 79.6-62.1273 79.5701-62.1336L79.572-62.1336C80.7512-61.8899 82.0979-60.8155 82.7302-59.5594L82.7302-59.5604C82.9285-59.1591 83.025-59.0108 83.1052-58.7274C83.1853-58.4442 83.2452-58.0225 83.282-57.1541C83.3555-55.4185 83.3334-52.0653 83.3064-44.8455C83.2749-37.8058 83.27-34.5464 83.2009-32.9578C83.1657-32.1482 83.1147-31.839 83.0642-31.6951C83.0457-31.6425 83.0397-31.6289 83.0115-31.5985L82.8298-31.4012C82.5931-31.1334 82.4495-31.0304 82.199-30.9627C81.8934-30.8802 81.4255-30.8517 80.5134-30.8426C79.3146-30.8346 79.007-30.8588 78.7771-30.9295L78.6814-30.9627C78.518-31.0269 78.3016-31.1807 78.1062-31.3885C77.9115-31.5956 77.7982-31.7933 77.7644-31.9139C77.764-31.9191 77.7639-31.9253 77.7634-31.9324C77.7606-31.975 77.757-32.038 77.7537-32.1219C77.7471-32.2889 77.7407-32.5279 77.7341-32.8328C77.721-33.4422 77.7084-34.3078 77.6961-35.3778C77.6837-36.4478 77.6718-37.7211 77.6609-39.1444L77.6306-43.8123C77.5948-50.3007 77.5908-53.3373 77.5125-54.7996C77.4928-55.1674 77.4672-55.4503 77.4334-55.6697C77.4001-55.885 77.3539-56.0712 77.2761-56.2274C77.1884-56.4035 77.0744-56.5161 76.9539-56.5985C76.9039-56.6326 76.8517-56.6619 76.8211-56.6795L76.7361-56.7313L76.4461-56.9324L76.3172-57.0223L71.5154-57.0223C69.2669-57.0223 68.093-57.0199 67.4597-56.9959C67.1498-56.9841 66.9319-56.9667 66.7722-56.9305C66.6853-56.9108 66.601-56.8825 66.5203-56.8387C66.4384-56.7942 66.3811-56.7451 66.3465-56.7137L66.3289-56.6961C66.2313-56.5985 66.1498-56.4727 66.0916-56.3621C66.0331-56.2511 65.9728-56.1083 65.947-55.9627L65.9461-55.9578C65.9288-55.854 65.8431-54.986 65.7224-53.7205L65.2673-48.8416C64.405-39.4901 63.6511-31.5848 62.7078-21.8914L62.7068-21.8895L62.1228-15.7801C61.8577-12.9893 61.706-11.4342 61.6023-10.534C61.4959-9.6105 61.445-9.4341 61.406-9.3416L61.405-9.3416L61.4011-9.3319C61.3481-9.1981 61.2123-8.9951 61.0173-8.786C60.8248-8.5794 60.6185-8.414 60.4636-8.3319L60.4617-8.3309L60.2039-8.1922L42.0017-8.1746C36.962-8.1701 32.3555-8.1743 28.9939-8.1844C27.3131-8.1894 25.9435-8.1965 24.9871-8.2039C24.5088-8.2076 24.1345-8.2115 23.8767-8.2156C23.7476-8.2177 23.6495-8.2195 23.5828-8.2215C23.5719-8.2218 23.5622-8.2231 23.5535-8.2235C23.0226-8.4056 22.5447-8.8576 22.3543-9.3592C22.3589-9.3468 22.3521-9.3663 22.3338-9.451C22.3181-9.5235 22.298-9.6223 22.2752-9.7459C22.2295-9.9929 22.173-10.328 22.1082-10.7283C21.9785-11.5284 21.8187-12.5808 21.6619-13.6922L21.6619-13.6942L20.6804-20.5301C20.2245-23.7214 19.6763-27.5686 19.1463-31.3016C18.6161-35.0306 18.1222-38.4573 17.7537-40.9715C17.5695-42.2284 17.4167-43.2584 17.3064-43.9842C17.2513-44.3468 17.2062-44.6348 17.1736-44.8377C17.1573-44.9388 17.1441-45.0209 17.1336-45.0809C17.1284-45.1104 17.1233-45.137 17.1189-45.159C17.117-45.1688 17.1089-45.2125 17.0955-45.2528L17.0916-45.2645L17.0867-45.2752L17.032-45.3983C16.9578-45.5499 16.8313-45.7829 16.6892-46.0389C16.4885-46.4007 16.2278-46.8579 15.9568-47.3231L15.9558-47.325L12.3006-53.4715C10.7528-56.0695 9.19749-58.6752 8.60426-59.6639C8.17056-60.3867 7.73886-61.1276 7.63942-61.3182C7.43542-61.7133 7.50442-61.9858 7.60231-62.0994L7.60329-62.0994L7.66872-62.1776L43.323-62.2039C56.0807-62.2084 65.0824-62.2055 70.9373-62.1932ZM42.7654-22.2528C40.6902-22.2528 39.1642-22.2461 38.1404-22.2303C37.6293-22.2224 37.2383-22.2121 36.9656-22.199C36.8301-22.1926 36.7167-22.1856 36.6297-22.1766C36.5869-22.1721 36.5427-22.1667 36.5017-22.159C36.4871-22.1563 36.4314-22.146 36.367-22.1199L36.3093-22.0936C36.1652-22.015 36.0543-21.8872 35.9861-21.7967C35.9084-21.6937 35.8353-21.5706 35.782-21.4442L35.781-21.4412C35.724-21.3033 35.6619-21.1372 35.6619-20.9442C35.6619-20.7513 35.724-20.5859 35.781-20.4481L35.782-20.4451C35.8326-20.3249 35.9013-20.2042 35.9763-20.1004C36.0394-20.0132 36.1446-19.8856 36.2879-19.8035L36.2879-19.8026C36.2894-19.8017 36.2912-19.8015 36.2927-19.8006C36.2952-19.7992 36.2971-19.7971 36.2996-19.7957L36.2996-19.7977C36.3562-19.7666 36.4059-19.751 36.4246-19.7459C36.4522-19.7385 36.4783-19.7336 36.4978-19.7303C36.5371-19.7236 36.5802-19.7186 36.6218-19.7147C36.7067-19.7068 36.8186-19.7 36.9539-19.6942C37.2267-19.6823 37.62-19.6727 38.1355-19.6649C39.1678-19.6491 40.7072-19.6401 42.7918-19.6356L49.0974-19.6356L49.2449-19.7899L49.4607-20.0145L49.4597-20.0154C49.9964-20.5505 49.9237-21.3386 49.4168-21.8455L49.157-22.1063L49.0105-22.2528L42.7654-22.2528ZM42.784-31.4168C38.0167-31.4168 35.6085-31.4169 34.365-31.3944C33.7502-31.3832 33.3936-31.3665 33.1726-31.3367C33.0594-31.3215 32.9544-31.2997 32.8572-31.2606C32.7491-31.217 32.6783-31.1628 32.6404-31.1336L32.6336-31.1278C32.2233-30.7995 32.0912-30.2929 32.1609-29.8592C32.2308-29.4248 32.5197-28.978 33.0408-28.8279L33.0525-28.825C33.1187-28.8077 33.1966-28.8032 33.2215-28.8016C33.2685-28.7984 33.3285-28.7954 33.3982-28.7928C33.5385-28.7876 33.7329-28.7836 33.9754-28.7791C34.4611-28.7702 35.1498-28.7619 36.0066-28.7557C37.7209-28.7433 40.115-28.7371 42.9187-28.7371L42.9197-28.7371L52.3797-28.7547L52.5925-28.7557L52.739-28.908L52.9558-29.1356L52.9568-29.1346C53.1582-29.336 53.3292-29.6716 53.3826-29.952L53.3845-29.9656C53.4097-30.1215 53.4323-30.323 53.3504-30.5379C53.2767-30.7308 53.1377-30.8792 53.0271-30.994L52.6043-31.4168L42.784-31.4168ZM42.8103-41.2098C38.6225-41.2098 36.5139-41.2102 35.4226-41.1658C34.8896-41.1442 34.5451-41.1109 34.3103-41.0418C34.1794-41.0033 34.0625-40.9485 33.9588-40.8651C33.9108-40.8265 33.8711-40.7848 33.8396-40.7488L33.7713-40.6649C33.521-40.3402 33.5211-39.9146 33.5945-39.6092C33.6679-39.3037 33.8613-38.9258 34.2312-38.7498C34.306-38.7142 34.3781-38.7034 34.3865-38.702C34.414-38.6973 34.4422-38.6937 34.4666-38.6912C34.5164-38.6861 34.5782-38.6814 34.6472-38.6776C34.7871-38.6697 34.9794-38.6626 35.2136-38.6561C35.6835-38.6431 36.3376-38.6327 37.1121-38.6238C38.6617-38.6061 40.7035-38.5967 42.7449-38.5955C44.7864-38.5944 46.8297-38.601 48.3816-38.617C49.1572-38.625 49.8125-38.6358 50.284-38.6483C50.5191-38.6545 50.7124-38.6611 50.8533-38.6688C50.9227-38.6726 50.9848-38.6764 51.0349-38.6815C51.0595-38.6839 51.0878-38.6877 51.115-38.6922C51.1256-38.694 51.1943-38.7038 51.2654-38.7362L51.2644-38.7371C52.1145-39.1223 52.1703-40.2053 51.573-40.8026L51.3132-41.0633L51.1668-41.2098L42.8103-41.2098ZM29.1804-50.3104C29.0698-50.1955 28.9309-50.0474 28.8572-49.8543C28.7752-49.6393 28.7969-49.438 28.822-49.2821L28.823-49.2781C28.8704-49.0006 28.9988-48.7414 29.1648-48.5399C29.3254-48.345 29.5644-48.1533 29.8621-48.0975L29.864-48.0975C29.8964-48.0916 29.9262-48.0899 29.9295-48.0897C29.9397-48.089 29.9508-48.0881 29.9597-48.0877C29.9779-48.087 30.0006-48.0864 30.0261-48.0858C30.0784-48.0845 30.1515-48.0831 30.2429-48.0819C30.4262-48.0794 30.6895-48.0776 31.0232-48.075C31.6911-48.0698 32.6451-48.0644 33.8132-48.0594C36.1497-48.0493 39.3461-48.0395 42.8367-48.035C48.5136-48.0305 51.6981-48.0334 53.4929-48.0526C54.3884-48.0621 54.9474-48.0756 55.2996-48.0955C55.4746-48.1054 55.6101-48.1177 55.7156-48.1336C55.8121-48.1482 55.9235-48.1726 56.0271-48.2254L56.0281-48.2244L56.0291-48.2254C56.03-48.2259 56.0311-48.2259 56.032-48.2264L56.031-48.2274C56.8738-48.6587 57.0103-49.8522 56.2869-50.4529L56.2879-50.4529C56.2856-50.4549 56.2833-50.4569 56.281-50.4588L56.28-50.4588C56.1805-50.541 56.0712-50.5836 55.9646-50.6092C55.8635-50.6335 55.739-50.6483 55.5877-50.66C55.2812-50.6837 54.7711-50.6991 53.9021-50.7098C52.1563-50.7312 48.9045-50.7332 42.7927-50.7332L29.6033-50.7332L29.1804-50.3104Z"/>
  </g>
 </g>
</svg>
