<?xml version="1.0" encoding="UTF-8"?>
<!DOCTYPE svg
PUBLIC "-//W3C//DTD SVG 1.1//EN"
     "http://www.w3.org/Graphics/SVG/1.1/DTD/svg11.dtd">
     <!--Created with SF Symbol Generator (v1.0.0)-->

<svg version="1.1" xmlns="http://www.w3.org/2000/svg" xmlns:xlink="http://www.w3.org/1999/xlink" width="3300" height="2200">
<!--glyph: "liquid.measure.3.medium", point size: 100.0-->
<style>.SFSymbolsPreviewWireframe {fill:none;opacity:1.0;stroke:black;stroke-width:0.5}
</style>
<g id="Notes">
<rect height="2200" id="artboard" style="fill:white;opacity:1" width="3300" x="0" y="0"/>
<line style="fill:none;stroke:black;opacity:1;stroke-width:0.5;" x1="263" x2="3036" y1="292" y2="292"/>
<text style="stroke:none;fill:black;font-family:sans-serif;font-size:13;font-weight:bold;" transform="matrix(1 0 0 1 263 322)">Weight/Scale Variations</text>
<text style="stroke:none;fill:black;font-family:sans-serif;font-size:13;text-anchor:middle;" transform="matrix(1 0 0 1 559.711 322)">Ultralight</text>
<text style="stroke:none;fill:black;font-family:sans-serif;font-size:13;text-anchor:middle;" transform="matrix(1 0 0 1 856.422 322)">Thin</text>
<text style="stroke:none;fill:black;font-family:sans-serif;font-size:13;text-anchor:middle;" transform="matrix(1 0 0 1 1153.13 322)">Light</text>
<text style="stroke:none;fill:black;font-family:sans-serif;font-size:13;text-anchor:middle;" transform="matrix(1 0 0 1 1449.84 322)">Regular</text>
<text style="stroke:none;fill:black;font-family:sans-serif;font-size:13;text-anchor:middle;" transform="matrix(1 0 0 1 1746.56 322)">Medium</text>
<text style="stroke:none;fill:black;font-family:sans-serif;font-size:13;text-anchor:middle;" transform="matrix(1 0 0 1 2043.27 322)">Semibold</text>
<text style="stroke:none;fill:black;font-family:sans-serif;font-size:13;text-anchor:middle;" transform="matrix(1 0 0 1 2339.98 322)">Bold</text>
<text style="stroke:none;fill:black;font-family:sans-serif;font-size:13;text-anchor:middle;" transform="matrix(1 0 0 1 2636.69 322)">Heavy</text>
<text style="stroke:none;fill:black;font-family:sans-serif;font-size:13;text-anchor:middle;" transform="matrix(1 0 0 1 2933.4 322)">Black</text>
<line style="fill:none;stroke:black;opacity:1;stroke-width:0.5;" x1="263" x2="3036" y1="1903" y2="1903"/>
<text style="stroke:none;fill:black;font-family:sans-serif;font-size:13;font-weight:bold;" transform="matrix(1 0 0 1 263 1953)">Design Variations</text>
<text style="stroke:none;fill:black;font-family:sans-serif;font-size:13;" transform="matrix(1 0 0 1 263 1971)">Symbols are supported in up to nine weights and three scales.</text>
<text style="stroke:none;fill:black;font-family:sans-serif;font-size:13;" transform="matrix(1 0 0 1 263 1989)">For optimal layout with text and other symbols, vertically align</text>
<text style="stroke:none;fill:black;font-family:sans-serif;font-size:13;" transform="matrix(1 0 0 1 263 2007)">symbols with the adjacent text.</text>
<line style="fill:none;stroke:#00AEEF;stroke-width:0.5;opacity:1.0;" x1="776" x2="776" y1="1919" y2="1933"/>
<text style="stroke:none;fill:black;font-family:sans-serif;font-size:13;font-weight:bold;" transform="matrix(1 0 0 1 776 1953)">Margins</text>
<text style="stroke:none;fill:black;font-family:sans-serif;font-size:13;" transform="matrix(1 0 0 1 776 1971)">Leading and trailing margins on the left and right side of each symbol</text>
<text style="stroke:none;fill:black;font-family:sans-serif;font-size:13;" transform="matrix(1 0 0 1 776 1989)">can be adjusted by modifying the x-location of the margin guidelines.</text>
<text style="stroke:none;fill:black;font-family:sans-serif;font-size:13;" transform="matrix(1 0 0 1 776 2007)">Modifications are automatically applied proportionally to all</text>
<text style="stroke:none;fill:black;font-family:sans-serif;font-size:13;" transform="matrix(1 0 0 1 776 2025)">scales and weights.</text>
<text style="stroke:none;fill:black;font-family:sans-serif;font-size:13;font-weight:bold;" transform="matrix(1 0 0 1 1289 1953)">Exporting</text>
<text style="stroke:none;fill:black;font-family:sans-serif;font-size:13;" transform="matrix(1 0 0 1 1289 1971)">Symbols should be outlined when exporting to ensure the</text>
<text style="stroke:none;fill:black;font-family:sans-serif;font-size:13;" transform="matrix(1 0 0 1 1289 1989)">design is preserved when submitting to Xcode.</text>
<text id="template-version" style="stroke:none;fill:black;font-family:sans-serif;font-size:13;text-anchor:end;" transform="matrix(1 0 0 1 3036 1933)">Template v.5.0</text>
<text style="stroke:none;fill:black;font-family:sans-serif;font-size:13;text-anchor:end;" transform="matrix(1 0 0 1 3036 1951)">Requires Xcode 15 or greater</text>
<text id="descriptive-name" style="stroke:none;fill:black;font-family:sans-serif;font-size:13;text-anchor:end;" transform="matrix(1 0 0 1 3036 1969)">Generated from liquid.measure.3</text>
<text style="stroke:none;fill:black;font-family:sans-serif;font-size:13;text-anchor:end;" transform="matrix(1 0 0 1 3036 1987)">Typeset at 100.0 points</text>
<text style="stroke:none;fill:black;font-family:sans-serif;font-size:13;" transform="matrix(1 0 0 1 263 726)">Small</text>
<text style="stroke:none;fill:black;font-family:sans-serif;font-size:13;" transform="matrix(1 0 0 1 263 1156)">Medium</text>
<text style="stroke:none;fill:black;font-family:sans-serif;font-size:13;" transform="matrix(1 0 0 1 263 1586)">Large</text>
</g>
<g id="Guides">
<g id="H-reference" style="fill:#27AAE1;stroke:none;" transform="matrix(1 0 0 1 339 696)">
 <path d="M0.993654 0L3.63775 0L29.3281-67.1323L30.0303-67.1323L30.0303-70.459L28.1226-70.459ZM11.6885-24.4799L46.9815-24.4799L46.2315-26.7285L12.4385-26.7285ZM55.1196 0L57.7637 0L30.6382-70.459L29.4326-70.459L29.4326-67.1323Z"/>
</g>
<line id="Baseline-S" style="fill:none;stroke:#27AAE1;opacity:1;stroke-width:0.5;" x1="263" x2="3036" y1="696" y2="696"/>
<line id="Capline-S" style="fill:none;stroke:#27AAE1;opacity:1;stroke-width:0.5;" x1="263" x2="3036" y1="625.541" y2="625.541"/>
<g id="H-reference" style="fill:#27AAE1;stroke:none;" transform="matrix(1 0 0 1 339 1126)">
 <path d="M0.993654 0L3.63775 0L29.3281-67.1323L30.0303-67.1323L30.0303-70.459L28.1226-70.459ZM11.6885-24.4799L46.9815-24.4799L46.2315-26.7285L12.4385-26.7285ZM55.1196 0L57.7637 0L30.6382-70.459L29.4326-70.459L29.4326-67.1323Z"/>
</g>
<line id="Baseline-M" style="fill:none;stroke:#27AAE1;opacity:1;stroke-width:0.5;" x1="263" x2="3036" y1="1126" y2="1126"/>
<line id="Capline-M" style="fill:none;stroke:#27AAE1;opacity:1;stroke-width:0.5;" x1="263" x2="3036" y1="1055.54" y2="1055.54"/>
<g id="H-reference" style="fill:#27AAE1;stroke:none;" transform="matrix(1 0 0 1 339 1556)">
 <path d="M0.993654 0L3.63775 0L29.3281-67.1323L30.0303-67.1323L30.0303-70.459L28.1226-70.459ZM11.6885-24.4799L46.9815-24.4799L46.2315-26.7285L12.4385-26.7285ZM55.1196 0L57.7637 0L30.6382-70.459L29.4326-70.459L29.4326-67.1323Z"/>
</g>
<line id="Baseline-L" style="fill:none;stroke:#27AAE1;opacity:1;stroke-width:0.5;" x1="263" x2="3036" y1="1556" y2="1556"/>
<line id="Capline-L" style="fill:none;stroke:#27AAE1;opacity:1;stroke-width:0.5;" x1="263" x2="3036" y1="1485.54" y2="1485.54"/>
<line id="left-margin-Ultralight-S" style="fill:none;stroke:#00AEEF;stroke-width:0.5;opacity:1.0;" x1="513.711" x2="513.711" y1="600.785" y2="720.121"/>
<line id="right-margin-Ultralight-S" style="fill:none;stroke:#00AEEF;stroke-width:0.5;opacity:1.0;" x1="605.711" x2="605.711" y1="600.785" y2="720.121"/>
<line id="left-margin-Regular-S" style="fill:none;stroke:#00AEEF;stroke-width:0.5;opacity:1.0;" x1="1403.84" x2="1403.84" y1="600.785" y2="720.121"/>
<line id="right-margin-Regular-S" style="fill:none;stroke:#00AEEF;stroke-width:0.5;opacity:1.0;" x1="1495.84" x2="1495.84" y1="600.785" y2="720.121"/>
<line id="left-margin-Black-S" style="fill:none;stroke:#00AEEF;stroke-width:0.5;opacity:1.0;" x1="2887.4" x2="2887.4" y1="600.785" y2="720.121"/>
<line id="right-margin-Black-S" style="fill:none;stroke:#00AEEF;stroke-width:0.5;opacity:1.0;" x1="2979.4" x2="2979.4" y1="600.785" y2="720.121"/>
</g>
<g id="Symbols">
<g id="Ultralight-S" transform="matrix(1 0 0 1 513.711 614.7705)">
<svg width="92" height="92" viewBox="0 0 92 92" fill="none" xmlns="http://www.w3.org/2000/svg">
<g id="liquid.measure.3">
<g id="Vector">
<path fill-rule="evenodd" clip-rule="evenodd" d="M43.5798 13.5749C82.4242 13.5528 86.615 13.5639 87.2232 13.7298C89.2577 14.2495 91.0822 16.0739 91.7677 18.2965C91.9889 19.0152 91.9888 19.2475 91.9999 32.5162V46.0061L91.6904 46.6365C91.2923 47.4436 90.3745 48.295 89.6005 48.5714C88.716 48.87 86.5818 48.8479 85.7415 48.5051C84.9011 48.1844 84.1714 47.521 83.7954 46.747L83.4858 46.1167L83.4305 33.9758C83.3752 22.0785 83.3752 21.8237 83.1541 21.6689C82.9771 21.5362 82.1478 21.5142 78.0124 21.5363L73.0919 21.5694L72.9592 22.5093C72.8375 23.3718 72.5501 25.7713 70.6593 41.3621C69.83 48.2397 68.6469 57.8707 67.7291 65.3012C67.3089 68.6737 66.8555 72.3115 66.7339 73.373C66.6012 74.4345 66.4685 75.4297 66.4353 75.5846C66.192 76.6129 65.1859 77.7075 64.1023 78.1498L63.472 78.4042L41.9654 78.4153C30.1345 78.4263 20.172 78.3931 19.8286 78.3378C18.6897 78.1719 17.8162 77.6523 17.208 76.7567C16.5888 75.8721 16.7436 76.7566 14.7091 62.371C14.1894 58.7221 13.1943 51.7338 12.4977 46.8354C11.801 41.937 11.1265 37.1934 11.0049 36.2756C10.5515 32.9032 10.5737 32.9584 5.44308 24.2784C3.10999 20.331 0.754717 16.2951 0.367697 15.5542C-0.118817 14.6365 -0.118816 14.36 0.345587 13.8845L0.610994 13.6081L43.5798 13.5749ZM2.2917 15.5653C2.38017 15.709 2.76717 16.3725 3.15417 17.0359C3.5412 17.7105 5.05604 20.2868 6.52664 22.7857C11.5467 31.322 11.6462 31.51 12.1659 33.2902C12.3567 33.9366 12.7199 36.2282 13.3143 40.4181L13.5896 40.3116H41.1838C63.5277 40.3116 67.7794 40.3116 69.0267 40.4383C69.1308 39.5881 69.2372 38.7192 69.3323 37.9342C69.8078 34.0973 70.4824 28.4802 71.1458 23.0732L71.4554 20.4858L71.8093 20.1651L72.152 19.8556H77.7913C81.4953 19.8556 83.5188 19.8998 83.729 19.9772C84.1713 20.143 84.6357 20.6075 84.879 21.1271C85.078 21.5473 85.0891 22.1226 85.0891 33.4561C85.0891 40.9306 85.1333 45.4861 85.1997 45.7407C85.454 46.6364 86.2722 47.0566 87.776 47.0566C89.0365 47.0566 89.6448 46.8022 90.0318 46.1056L90.286 45.6744V32.671C90.286 24.334 90.2418 19.4467 90.1755 19.0705C89.9212 17.7325 88.8818 16.3503 87.6212 15.6979L87.0241 15.3773L2.13685 15.322L2.2917 15.5653Z" fill="black"/>
<path d="M26.9495 29.8845C26.6067 29.5196 26.6288 28.9999 26.9937 28.7125L27.2923 28.4803H42.5625C58.9605 28.4913 58.087 28.4581 58.3192 29.0442C58.4408 29.3759 58.2307 29.9619 57.9432 30.0725C57.8437 30.1057 50.8776 30.1389 42.474 30.1389H27.1817L26.9495 29.8845Z" fill="black"/>
</g>
<path id="Vector_2" d="M55.5506 72.3512C55.6315 72.3332 55.7752 72.3332 55.8651 72.3512C55.9459 72.3781 55.8741 72.3961 55.7034 72.3961C55.5327 72.3961 55.4608 72.3781 55.5506 72.3512Z" fill="white"/>
</g>
</svg>

</g>
<g id="Regular-S" transform="matrix(1 0 0 1 1403.84 614.7705)">
<svg width="92" height="92" viewBox="0 0 92 92" fill="none" xmlns="http://www.w3.org/2000/svg">
<g id="liquid.measure.3">
<g id="Vector">
<path fill-rule="evenodd" clip-rule="evenodd" d="M43.5798 13.5749C82.4242 13.5528 86.615 13.5639 87.2232 13.7298C89.2577 14.2495 91.0822 16.0739 91.7677 18.2965C91.9889 19.0152 91.9888 19.2475 91.9999 32.5162V46.0061L91.6904 46.6365C91.2923 47.4436 90.3745 48.295 89.6005 48.5714C88.716 48.87 86.5818 48.8479 85.7415 48.5051C84.9011 48.1844 84.1714 47.521 83.7954 46.747L83.4858 46.1167L83.4305 33.9758C83.3752 22.0785 83.3752 21.8237 83.1541 21.6689C82.9771 21.5362 82.1478 21.5142 78.0124 21.5363L73.0919 21.5694L72.9592 22.5093C72.8375 23.3718 72.5501 25.7713 70.6593 41.3621C69.83 48.2397 68.6469 57.8707 67.7291 65.3012C67.3089 68.6737 66.8555 72.3115 66.7339 73.373C66.6012 74.4345 66.4685 75.4297 66.4353 75.5846C66.192 76.6129 65.1859 77.7075 64.1023 78.1498L63.472 78.4042L41.9654 78.4153C30.1345 78.4263 20.172 78.3931 19.8286 78.3378C18.6897 78.1719 17.8162 77.6523 17.208 76.7567C16.5888 75.8721 16.7436 76.7566 14.7091 62.371C14.1894 58.7221 13.1943 51.7338 12.4977 46.8354C11.801 41.937 11.1265 37.1934 11.0049 36.2756C10.5515 32.9032 10.5737 32.9584 5.44308 24.2784C3.10999 20.331 0.754717 16.2951 0.367697 15.5542C-0.118817 14.6365 -0.118816 14.36 0.345587 13.8845L0.610994 13.6081L43.5798 13.5749ZM2.2917 15.5653C2.38017 15.709 2.76717 16.3725 3.15417 17.0359C3.5412 17.7105 5.05604 20.2868 6.52664 22.7857C11.5467 31.322 11.6462 31.51 12.1659 33.2902C12.3567 33.9366 12.7199 36.2282 13.3143 40.4181L13.5896 40.3116H41.1838C63.5277 40.3116 67.7794 40.3116 69.0267 40.4383C69.1308 39.5881 69.2372 38.7192 69.3323 37.9342C69.8078 34.0973 70.4824 28.4802 71.1458 23.0732L71.4554 20.4858L71.8093 20.1651L72.152 19.8556H77.7913C81.4953 19.8556 83.5188 19.8998 83.729 19.9772C84.1713 20.143 84.6357 20.6075 84.879 21.1271C85.078 21.5473 85.0891 22.1226 85.0891 33.4561C85.0891 40.9306 85.1333 45.4861 85.1997 45.7407C85.454 46.6364 86.2722 47.0566 87.776 47.0566C89.0365 47.0566 89.6448 46.8022 90.0318 46.1056L90.286 45.6744V32.671C90.286 24.334 90.2418 19.4467 90.1755 19.0705C89.9212 17.7325 88.8818 16.3503 87.6212 15.6979L87.0241 15.3773L2.13685 15.322L2.2917 15.5653Z" fill="black"/>
<path d="M26.9495 29.8845C26.6067 29.5196 26.6288 28.9999 26.9937 28.7125L27.2923 28.4803H42.5625C58.9605 28.4913 58.087 28.4581 58.3192 29.0442C58.4408 29.3759 58.2307 29.9619 57.9432 30.0725C57.8437 30.1057 50.8776 30.1389 42.474 30.1389H27.1817L26.9495 29.8845Z" fill="black"/>
</g>
<path id="Vector_2" d="M55.5506 72.3512C55.6315 72.3332 55.7752 72.3332 55.8651 72.3512C55.9459 72.3781 55.8741 72.3961 55.7034 72.3961C55.5327 72.3961 55.4608 72.3781 55.5506 72.3512Z" fill="white"/>
</g>
</svg>

</g>
<g id="Black-S" transform="matrix(1 0 0 1 2887.4 614.7705)">
<svg width="92" height="92" viewBox="0 0 92 92" fill="none" xmlns="http://www.w3.org/2000/svg">
<g id="liquid.measure.3">
<g id="Vector">
<path fill-rule="evenodd" clip-rule="evenodd" d="M43.5798 13.5749C82.4242 13.5528 86.615 13.5639 87.2232 13.7298C89.2577 14.2495 91.0822 16.0739 91.7677 18.2965C91.9889 19.0152 91.9888 19.2475 91.9999 32.5162V46.0061L91.6904 46.6365C91.2923 47.4436 90.3745 48.295 89.6005 48.5714C88.716 48.87 86.5818 48.8479 85.7415 48.5051C84.9011 48.1844 84.1714 47.521 83.7954 46.747L83.4858 46.1167L83.4305 33.9758C83.3752 22.0785 83.3752 21.8237 83.1541 21.6689C82.9771 21.5362 82.1478 21.5142 78.0124 21.5363L73.0919 21.5694L72.9592 22.5093C72.8375 23.3718 72.5501 25.7713 70.6593 41.3621C69.83 48.2397 68.6469 57.8707 67.7291 65.3012C67.3089 68.6737 66.8555 72.3115 66.7339 73.373C66.6012 74.4345 66.4685 75.4297 66.4353 75.5846C66.192 76.6129 65.1859 77.7075 64.1023 78.1498L63.472 78.4042L41.9654 78.4153C30.1345 78.4263 20.172 78.3931 19.8286 78.3378C18.6897 78.1719 17.8162 77.6523 17.208 76.7567C16.5888 75.8721 16.7436 76.7566 14.7091 62.371C14.1894 58.7221 13.1943 51.7338 12.4977 46.8354C11.801 41.937 11.1265 37.1934 11.0049 36.2756C10.5515 32.9032 10.5737 32.9584 5.44308 24.2784C3.10999 20.331 0.754717 16.2951 0.367697 15.5542C-0.118817 14.6365 -0.118816 14.36 0.345587 13.8845L0.610994 13.6081L43.5798 13.5749ZM2.2917 15.5653C2.38017 15.709 2.76717 16.3725 3.15417 17.0359C3.5412 17.7105 5.05604 20.2868 6.52664 22.7857C11.5467 31.322 11.6462 31.51 12.1659 33.2902C12.3567 33.9366 12.7199 36.2282 13.3143 40.4181L13.5896 40.3116H41.1838C63.5277 40.3116 67.7794 40.3116 69.0267 40.4383C69.1308 39.5881 69.2372 38.7192 69.3323 37.9342C69.8078 34.0973 70.4824 28.4802 71.1458 23.0732L71.4554 20.4858L71.8093 20.1651L72.152 19.8556H77.7913C81.4953 19.8556 83.5188 19.8998 83.729 19.9772C84.1713 20.143 84.6357 20.6075 84.879 21.1271C85.078 21.5473 85.0891 22.1226 85.0891 33.4561C85.0891 40.9306 85.1333 45.4861 85.1997 45.7407C85.454 46.6364 86.2722 47.0566 87.776 47.0566C89.0365 47.0566 89.6448 46.8022 90.0318 46.1056L90.286 45.6744V32.671C90.286 24.334 90.2418 19.4467 90.1755 19.0705C89.9212 17.7325 88.8818 16.3503 87.6212 15.6979L87.0241 15.3773L2.13685 15.322L2.2917 15.5653Z" fill="black"/>
<path d="M26.9495 29.8845C26.6067 29.5196 26.6288 28.9999 26.9937 28.7125L27.2923 28.4803H42.5625C58.9605 28.4913 58.087 28.4581 58.3192 29.0442C58.4408 29.3759 58.2307 29.9619 57.9432 30.0725C57.8437 30.1057 50.8776 30.1389 42.474 30.1389H27.1817L26.9495 29.8845Z" fill="black"/>
</g>
<path id="Vector_2" d="M55.5506 72.3512C55.6315 72.3332 55.7752 72.3332 55.8651 72.3512C55.9459 72.3781 55.8741 72.3961 55.7034 72.3961C55.5327 72.3961 55.4608 72.3781 55.5506 72.3512Z" fill="white"/>
</g>
</svg>

</g>
</g>
</svg>