<?xml version="1.0" encoding="UTF-8"?>
<!--Generator: Apple Native CoreSVG 341-->
<!DOCTYPE svg
PUBLIC "-//W3C//DTD SVG 1.1//EN"
       "http://www.w3.org/Graphics/SVG/1.1/DTD/svg11.dtd">
<svg version="1.1" xmlns="http://www.w3.org/2000/svg" xmlns:xlink="http://www.w3.org/1999/xlink" viewBox="0 0 3300 2200">
 <!--glyph: "", point size: 100.0, font version: "21.0d6e2", template writer version: "138.0.0"-->
 <style>.defaults {-sfsymbols-variable-value-mode:color;-sfsymbols-draw-reverses-motion-groups:true}

.monochrome-0 {-sfsymbols-motion-group:0;-sfsymbols-layer-tags:700c4b6a7440f689}

.multicolor-0:tintColor {-sfsymbols-motion-group:0;-sfsymbols-layer-tags:700c4b6a7440f689}

.hierarchical-0:primary {-sfsymbols-motion-group:0;-sfsymbols-layer-tags:700c4b6a7440f689}

.SFSymbolsPreviewWireframe {fill:none;opacity:1.0;stroke:black;stroke-width:0.5}
</style>
 <g id="Notes">
  <rect height="2200" id="artboard" style="fill:white;opacity:1" width="3300" x="0" y="0"/>
  <line style="fill:none;stroke:black;opacity:1;stroke-width:0.5;" x1="263" x2="3036" y1="292" y2="292"/>
  <text style="stroke:none;fill:black;font-family:sans-serif;font-size:13;font-weight:bold;" transform="matrix(1 0 0 1 263 322)">Weight/Scale Variations</text>
  <text style="stroke:none;fill:black;font-family:sans-serif;font-size:13;text-anchor:middle;" transform="matrix(1 0 0 1 559.711 322)">Ultralight</text>
  <text style="stroke:none;fill:black;font-family:sans-serif;font-size:13;text-anchor:middle;" transform="matrix(1 0 0 1 856.422 322)">Thin</text>
  <text style="stroke:none;fill:black;font-family:sans-serif;font-size:13;text-anchor:middle;" transform="matrix(1 0 0 1 1153.13 322)">Light</text>
  <text style="stroke:none;fill:black;font-family:sans-serif;font-size:13;text-anchor:middle;" transform="matrix(1 0 0 1 1449.84 322)">Regular</text>
  <text style="stroke:none;fill:black;font-family:sans-serif;font-size:13;text-anchor:middle;" transform="matrix(1 0 0 1 1746.56 322)">Medium</text>
  <text style="stroke:none;fill:black;font-family:sans-serif;font-size:13;text-anchor:middle;" transform="matrix(1 0 0 1 2043.27 322)">Semibold</text>
  <text style="stroke:none;fill:black;font-family:sans-serif;font-size:13;text-anchor:middle;" transform="matrix(1 0 0 1 2339.98 322)">Bold</text>
  <text style="stroke:none;fill:black;font-family:sans-serif;font-size:13;text-anchor:middle;" transform="matrix(1 0 0 1 2636.69 322)">Heavy</text>
  <text style="stroke:none;fill:black;font-family:sans-serif;font-size:13;text-anchor:middle;" transform="matrix(1 0 0 1 2933.4 322)">Black</text>
  <line style="fill:none;stroke:black;opacity:1;stroke-width:0.5;" x1="263" x2="3036" y1="1903" y2="1903"/>
  <g transform="matrix(0.2 0 0 0.2 263 1933)">
   <path d="m46.2402 4.15039c21.7773 0 39.4531-17.627 39.4531-39.4043s-17.6758-39.4043-39.4531-39.4043c-21.7285 0-39.4043 17.627-39.4043 39.4043s17.6758 39.4043 39.4043 39.4043Zm0-7.42188c-17.6758 0-31.9336-14.3066-31.9336-31.9824s14.2578-31.9824 31.9336-31.9824 31.9824 14.3066 31.9824 31.9824-14.3066 31.9824-31.9824 31.9824Zm3.61328-17.7734v-28.4668c0-2.24609-1.46484-3.75977-3.71094-3.75977-2.14844 0-3.61328 1.51367-3.61328 3.75977v28.4668c0 2.19727 1.46484 3.71094 3.61328 3.71094 2.24609 0 3.71094-1.51367 3.71094-3.71094Zm-17.8223-10.5957h28.418c2.19727 0 3.71094-1.46484 3.71094-3.61328 0-2.19727-1.51367-3.71094-3.71094-3.71094h-28.418c-2.24609 0-3.75977 1.51367-3.75977 3.71094 0 2.14844 1.51367 3.61328 3.75977 3.61328Z"/>
  </g>
  <g transform="matrix(0.2 0 0 0.2 281.506 1933)">
   <path d="m58.5449 14.5508c27.4902 0 49.8047-22.3145 49.8047-49.8047s-22.3145-49.8047-49.8047-49.8047-49.8047 22.3145-49.8047 49.8047 22.3145 49.8047 49.8047 49.8047Zm0-8.30078c-22.9492 0-41.5039-18.5547-41.5039-41.5039s18.5547-41.5039 41.5039-41.5039 41.5039 18.5547 41.5039 41.5039-18.5547 41.5039-41.5039 41.5039Zm4.05273-23.0957v-36.9141c0-2.49023-1.70898-4.19922-4.15039-4.19922-2.39258 0-4.05273 1.70898-4.05273 4.19922v36.9141c0 2.44141 1.66016 4.15039 4.05273 4.15039 2.44141 0 4.15039-1.66016 4.15039-4.15039Zm-22.5586-14.4043h36.9629c2.44141 0 4.15039-1.61133 4.15039-4.00391 0-2.44141-1.70898-4.15039-4.15039-4.15039h-36.9629c-2.49023 0-4.15039 1.70898-4.15039 4.15039 0 2.39258 1.66016 4.00391 4.15039 4.00391Z"/>
  </g>
  <g transform="matrix(0.2 0 0 0.2 304.924 1933)">
   <path d="m74.8535 28.3203c35.1074 0 63.623-28.4668 63.623-63.5742s-28.5156-63.623-63.623-63.623-63.5742 28.5156-63.5742 63.623 28.4668 63.5742 63.5742 63.5742Zm0-9.08203c-30.127 0-54.4922-24.3652-54.4922-54.4922s24.3652-54.4922 54.4922-54.4922 54.4922 24.3652 54.4922 54.4922-24.3652 54.4922-54.4922 54.4922Zm4.44336-30.3223v-48.4863c0-2.73438-1.85547-4.63867-4.54102-4.63867-2.58789 0-4.44336 1.9043-4.44336 4.63867v48.4863c0 2.68555 1.85547 4.58984 4.44336 4.58984 2.68555 0 4.54102-1.85547 4.54102-4.58984Zm-28.7109-19.7754h48.4863c2.68555 0 4.58984-1.80664 4.58984-4.39453 0-2.73438-1.85547-4.58984-4.58984-4.58984h-48.4863c-2.73438 0-4.58984 1.85547-4.58984 4.58984 0 2.58789 1.85547 4.39453 4.58984 4.39453Z"/>
  </g>
  <text style="stroke:none;fill:black;font-family:sans-serif;font-size:13;font-weight:bold;" transform="matrix(1 0 0 1 263 1953)">Design Variations</text>
  <text style="stroke:none;fill:black;font-family:sans-serif;font-size:13;" transform="matrix(1 0 0 1 263 1971)">Symbols are supported in up to nine weights and three scales.</text>
  <text style="stroke:none;fill:black;font-family:sans-serif;font-size:13;" transform="matrix(1 0 0 1 263 1989)">For optimal layout with text and other symbols, vertically align</text>
  <text style="stroke:none;fill:black;font-family:sans-serif;font-size:13;" transform="matrix(1 0 0 1 263 2007)">symbols with the adjacent text.</text>
  <line style="fill:none;stroke:#00AEEF;stroke-width:0.5;opacity:1.0;" x1="776" x2="776" y1="1919" y2="1933"/>
  <g transform="matrix(0.2 0 0 0.2 776 1933)">
   <path d="m16.5527 0.78125c2.58789 0 3.85742-0.976562 4.78516-3.71094l20.5566-57.5195h0.244141l20.6055 57.5195c0.927734 2.73438 2.19727 3.71094 4.73633 3.71094 2.58789 0 4.24805-1.5625 4.24805-4.00391 0-0.830078-0.146484-1.61133-0.537109-2.63672l-22.9004-60.9863c-1.12305-2.97852-3.125-4.49219-6.25-4.49219-3.02734 0-5.07812 1.46484-6.15234 4.44336l-22.9004 61.084c-0.390625 1.02539-0.537109 1.80664-0.537109 2.63672 0 2.44141 1.5625 3.95508 4.10156 3.95508Zm10.2051-20.9473h30.6641c2.00195 0 3.66211-1.66016 3.66211-3.66211 0-2.05078-1.66016-3.66211-3.66211-3.66211h-30.6641c-2.00195 0-3.66211 1.61133-3.66211 3.66211 0 2.00195 1.66016 3.66211 3.66211 3.66211Z"/>
  </g>
  <line style="fill:none;stroke:#00AEEF;stroke-width:0.5;opacity:1.0;" x1="792.836" x2="792.836" y1="1919" y2="1933"/>
  <text style="stroke:none;fill:black;font-family:sans-serif;font-size:13;font-weight:bold;" transform="matrix(1 0 0 1 776 1953)">Margins</text>
  <text style="stroke:none;fill:black;font-family:sans-serif;font-size:13;" transform="matrix(1 0 0 1 776 1971)">Leading and trailing margins on the left and right side of each symbol</text>
  <text style="stroke:none;fill:black;font-family:sans-serif;font-size:13;" transform="matrix(1 0 0 1 776 1989)">can be adjusted by modifying the x-location of the margin guidelines.</text>
  <text style="stroke:none;fill:black;font-family:sans-serif;font-size:13;" transform="matrix(1 0 0 1 776 2007)">Modifications are automatically applied proportionally to all</text>
  <text style="stroke:none;fill:black;font-family:sans-serif;font-size:13;" transform="matrix(1 0 0 1 776 2025)">scales and weights.</text>
  <g transform="matrix(0.2 0 0 0.2 1289 1933)">
   <path d="m14.209 13.1348 7.86133 7.86133c4.29688 4.39453 9.32617 4.10156 13.8672-1.02539l60.6934-68.2129-4.88281-4.88281-60.2539 67.6758c-1.80664 1.95312-3.4668 2.44141-5.81055 0.0976562l-5.17578-5.12695c-2.29492-2.29492-1.80664-3.95508 0.195312-5.81055l67.4805-62.1582-4.88281-4.83398-68.0664 62.5977c-4.98047 4.58984-5.32227 9.47266-1.02539 13.8184Zm44.873-97.4609c-2.05078 2.00195-2.24609 4.88281-1.07422 6.78711 1.12305 1.80664 3.4668 3.02734 6.5918 2.24609 5.85938-1.66016 12.5977-2.39258 18.8965 0.927734l-2.68555 7.12891c-1.61133 4.00391-0.732422 6.88477 1.70898 9.42383l10.2539 10.3027c2.34375 2.39258 4.54102 2.44141 7.08008 1.95312l4.44336-0.732422 2.58789 2.53906-0.195312 2.24609c-0.0976562 2.29492 0.537109 4.29688 2.7832 6.49414l3.36914 3.32031c2.29492 2.29492 5.51758 2.49023 7.8125 0.195312l12.9883-13.0371c2.29492-2.34375 2.14844-5.37109-0.195312-7.66602l-3.41797-3.41797c-2.19727-2.19727-4.05273-3.02734-6.34766-2.88086l-2.34375 0.244141-2.44141-2.44141 1.02539-4.6875c0.634766-2.73438-0.244141-4.98047-2.88086-7.61719l-11.2793-11.1816c-12.9395-12.8418-35.5957-11.0352-46.6797-0.146484Zm7.08008 2.05078c8.78906-6.39648 25.9766-5.66406 33.6914 1.95312l12.3047 12.207c1.02539 1.02539 1.2207 1.80664 0.927734 3.32031l-1.46484 6.64062 6.73828 6.68945 4.39453-0.244141c1.12305-0.0488281 1.51367 0.0488281 2.34375 0.878906l2.53906 2.49023-10.8398 10.8398-2.49023-2.49023c-0.830078-0.878906-0.976562-1.2207-0.927734-2.39258l0.292969-4.3457-6.68945-6.73828-6.83594 1.17188c-1.41602 0.292969-2.05078 0.195312-3.17383-0.878906l-8.93555-8.88672c-1.07422-1.02539-1.17188-1.70898-0.488281-3.36914l4.58984-11.4746c-6.10352-6.34766-17.041-7.51953-25.5859-4.58984-0.683594 0.244141-0.927734-0.390625-0.390625-0.78125Z"/>
  </g>
  <text style="stroke:none;fill:black;font-family:sans-serif;font-size:13;font-weight:bold;" transform="matrix(1 0 0 1 1289 1953)">Exporting</text>
  <text style="stroke:none;fill:black;font-family:sans-serif;font-size:13;" transform="matrix(1 0 0 1 1289 1971)">Symbols should be outlined when exporting to ensure the</text>
  <text style="stroke:none;fill:black;font-family:sans-serif;font-size:13;" transform="matrix(1 0 0 1 1289 1989)">design is preserved when submitting to Xcode.</text>
  <text id="template-version" style="stroke:none;fill:black;font-family:sans-serif;font-size:13;text-anchor:end;" transform="matrix(1 0 0 1 3036 1933)">Template v.7.0</text>
  <text style="stroke:none;fill:black;font-family:sans-serif;font-size:13;text-anchor:end;" transform="matrix(1 0 0 1 3036 1951)">Requires Xcode 17 or greater</text>
  <text id="descriptive-name" style="stroke:none;fill:black;font-family:sans-serif;font-size:13;text-anchor:end;" transform="matrix(1 0 0 1 3036 1969)">Generated from measure.cup.liquid</text>
  <text style="stroke:none;fill:black;font-family:sans-serif;font-size:13;text-anchor:end;" transform="matrix(1 0 0 1 3036 1987)">Typeset at 100.0 points</text>
  <text style="stroke:none;fill:black;font-family:sans-serif;font-size:13;" transform="matrix(1 0 0 1 263 726)">Small</text>
  <text style="stroke:none;fill:black;font-family:sans-serif;font-size:13;" transform="matrix(1 0 0 1 263 1156)">Medium</text>
  <text style="stroke:none;fill:black;font-family:sans-serif;font-size:13;" transform="matrix(1 0 0 1 263 1586)">Large</text>
 </g>
 <g id="Guides">
  <g id="H-reference" style="fill:#27AAE1;stroke:none;" transform="matrix(1 0 0 1 339 696)">
   <path d="M0.993654 0L3.63775 0L29.3281-67.1323L30.0303-67.1323L30.0303-70.459L28.1226-70.459ZM11.6885-24.4799L46.9815-24.4799L46.2315-26.7285L12.4385-26.7285ZM55.1196 0L57.7637 0L30.6382-70.459L29.4326-70.459L29.4326-67.1323Z"/>
  </g>
  <line id="Baseline-S" style="fill:none;stroke:#27AAE1;opacity:1;stroke-width:0.5;" x1="263" x2="3036" y1="696" y2="696"/>
  <line id="Capline-S" style="fill:none;stroke:#27AAE1;opacity:1;stroke-width:0.5;" x1="263" x2="3036" y1="625.541" y2="625.541"/>
  <g id="H-reference" style="fill:#27AAE1;stroke:none;" transform="matrix(1 0 0 1 339 1126)">
   <path d="M0.993654 0L3.63775 0L29.3281-67.1323L30.0303-67.1323L30.0303-70.459L28.1226-70.459ZM11.6885-24.4799L46.9815-24.4799L46.2315-26.7285L12.4385-26.7285ZM55.1196 0L57.7637 0L30.6382-70.459L29.4326-70.459L29.4326-67.1323Z"/>
  </g>
  <line id="Baseline-M" style="fill:none;stroke:#27AAE1;opacity:1;stroke-width:0.5;" x1="263" x2="3036" y1="1126" y2="1126"/>
  <line id="Capline-M" style="fill:none;stroke:#27AAE1;opacity:1;stroke-width:0.5;" x1="263" x2="3036" y1="1055.54" y2="1055.54"/>
  <g id="H-reference" style="fill:#27AAE1;stroke:none;" transform="matrix(1 0 0 1 339 1556)">
   <path d="M0.993654 0L3.63775 0L29.3281-67.1323L30.0303-67.1323L30.0303-70.459L28.1226-70.459ZM11.6885-24.4799L46.9815-24.4799L46.2315-26.7285L12.4385-26.7285ZM55.1196 0L57.7637 0L30.6382-70.459L29.4326-70.459L29.4326-67.1323Z"/>
  </g>
  <line id="Baseline-L" style="fill:none;stroke:#27AAE1;opacity:1;stroke-width:0.5;" x1="263" x2="3036" y1="1556" y2="1556"/>
  <line id="Capline-L" style="fill:none;stroke:#27AAE1;opacity:1;stroke-width:0.5;" x1="263" x2="3036" y1="1485.54" y2="1485.54"/>
  <line id="right-margin-Black-S" style="fill:none;stroke:#00AEEF;stroke-width:0.5;opacity:1.0;" x1="2979.4" x2="2979.4" y1="600.785" y2="720.121"/>
  <line id="left-margin-Black-S" style="fill:none;stroke:#00AEEF;stroke-width:0.5;opacity:1.0;" x1="2887.4" x2="2887.4" y1="600.785" y2="720.121"/>
  <line id="right-margin-Regular-S" style="fill:none;stroke:#00AEEF;stroke-width:0.5;opacity:1.0;" x1="1495.84" x2="1495.84" y1="600.785" y2="720.121"/>
  <line id="left-margin-Regular-S" style="fill:none;stroke:#00AEEF;stroke-width:0.5;opacity:1.0;" x1="1403.84" x2="1403.84" y1="600.785" y2="720.121"/>
  <line id="right-margin-Ultralight-S" style="fill:none;stroke:#00AEEF;stroke-width:0.5;opacity:1.0;" x1="605.711" x2="605.711" y1="600.785" y2="720.121"/>
  <line id="left-margin-Ultralight-S" style="fill:none;stroke:#00AEEF;stroke-width:0.5;opacity:1.0;" x1="513.711" x2="513.711" y1="600.785" y2="720.121"/>
 </g>
 <g id="Symbols">
  <g id="Black-S" transform="matrix(1 0 0 1 2887.4 696)">
   <path class="monochrome-0 multicolor-0:tintColor hierarchical-0:primary SFSymbolsPreviewWireframe" d="M24.6891-8.9143C23.7637-9.049 23.0539-9.4713 22.5598-10.199C22.0566-10.9178 22.1824-10.199 20.5293-21.8877C20.107-24.8525 19.2984-30.5307 18.7324-34.5108C18.1664-38.4908 17.6184-42.3451 17.5195-43.0908C17.1512-45.8311 17.1691-45.7861 13.0004-52.8389C11.1047-56.0463 9.19101-59.3256 8.87656-59.9275C8.48125-60.6733 8.48125-60.8979 8.85859-61.2842C9.07421-61.5088 9.07421-61.5088 43.9875-61.5358C75.5496-61.5537 78.9547-61.5447 79.4488-61.41C81.1019-60.9877 82.5844-59.5053 83.1414-57.6994C83.3211-57.1154 83.3211-56.9268 83.3301-46.1455C83.3301-35.1846 83.3301-35.1846 83.0785-34.6725C82.7551-34.0166 82.0094-33.3248 81.3805-33.1002C80.6617-32.8576 78.9277-32.8756 78.2449-33.1541C77.5621-33.4147 76.9691-33.9537 76.6637-34.5826C76.4121-35.0947 76.4121-35.0947 76.3672-44.9596C76.3223-54.6268 76.3223-54.8334 76.1426-54.9592C75.9988-55.067 75.325-55.085 71.9648-55.067C67.9668-55.04 67.9668-55.04 67.859-54.2764C67.7602-53.5756 67.5266-51.626 65.9902-38.958C65.3164-33.3697 64.3551-25.5443 63.6094-19.5068C63.268-16.7666 62.8996-13.8108 62.8008-12.9483C62.693-12.0858 62.5852-11.2772 62.5582-11.1514C62.3605-10.3158 61.543-9.4264 60.6625-9.067C60.1504-8.8604 60.1504-8.8604 42.6758-8.8514C33.0625-8.8424 24.9676-8.8693 24.6891-8.9143ZM60.2582-10.4057C60.6266-10.6033 61.0039-11.0256 61.1297-11.367C61.2105-11.5916 62.9266-25.3557 64.2922-36.6221C64.409-37.6553 64.6965-39.9643 64.9121-41.7432C65.2984-44.8608 65.8465-49.4248 66.3855-53.8182C66.6371-55.9205 66.6371-55.9205 66.9246-56.1811C67.2031-56.4326 67.2031-56.4326 71.7852-56.4326C74.7949-56.4326 76.4391-56.3967 76.6098-56.3338C76.9691-56.199 77.3465-55.8217 77.5441-55.3994C77.7059-55.058 77.7148-54.5908 77.7148-45.3818C77.7148-39.3084 77.7508-35.6068 77.8047-35.4002C78.0113-34.6725 78.6762-34.3311 79.898-34.3311C80.9223-34.3311 81.4164-34.5377 81.7309-35.1037C81.9375-35.4541 81.9375-35.4541 81.9375-46.0197C81.9375-52.794 81.9016-56.765 81.8477-57.0705C81.641-58.1576 80.7965-59.2807 79.7723-59.8108C79.2871-60.0713 79.2871-60.0713 44.7961-60.0983C10.3141-60.1162 10.3141-60.1162 10.4398-59.9186C10.5117-59.8018 10.8262-59.2627 11.1406-58.7236C11.4551-58.1756 12.6859-56.0822 13.8809-54.0518C17.9598-47.1158 18.0406-46.9631 18.4629-45.5166C18.6246-44.9686 18.9391-42.965 19.4602-39.2725C21.3199-25.9756 23.3773-11.7893 23.5031-11.4119C23.6918-10.81 24.2039-10.3877 24.8867-10.244C25.0574-10.208 32.9996-10.1901 42.541-10.199C59.8809-10.208 59.8809-10.208 60.2582-10.4057ZM37.6895-19.417C37.1953-19.6147 37.0965-20.2076 37.5008-20.558C37.7434-20.7647 37.7434-20.7647 43.1609-20.7647C48.5066-20.7647 48.5875-20.7647 48.8211-20.576C49.2344-20.2526 49.1086-19.6057 48.5965-19.426C48.2551-19.3092 37.977-19.2912 37.6895-19.417ZM35.0031-29.1291C34.6977-29.3717 34.6797-29.8209 34.9762-30.0904C35.1828-30.2881 35.1828-30.2881 43.1519-30.2881C51.0043-30.2881 51.1211-30.2881 51.3008-30.1084C51.5703-29.8389 51.5434-29.3627 51.2469-29.1291C51.0043-28.9404 50.9594-28.9404 43.125-28.9404C35.2906-28.9404 35.2457-28.9404 35.0031-29.1291ZM34.8145-38.4818C34.3562-38.7424 34.2754-39.2365 34.6348-39.5869C34.8504-39.8115 34.8504-39.8115 43.0621-39.8115C51.2379-39.8115 51.2738-39.8115 51.5164-39.6229C51.8039-39.3983 51.8309-38.949 51.5793-38.6346C51.4086-38.419 51.4086-38.419 43.1969-38.401C37.1234-38.383 34.9492-38.401 34.8145-38.4818ZM30.475-48.2838C30.1965-48.5803 30.2145-49.0025 30.5109-49.2361C30.7535-49.4248 30.7535-49.4248 43.1609-49.4248C56.4848-49.4158 55.775-49.4428 55.9637-48.9666C56.0625-48.6971 55.8918-48.2209 55.6582-48.1311C55.5773-48.1041 49.9172-48.0772 43.0891-48.0772C30.6637-48.0772 30.6637-48.0772 30.475-48.2838Z"/>
  </g>
  <g id="Regular-S" transform="matrix(1 0 0 1 1403.84 696)">
   <path class="monochrome-0 multicolor-0:tintColor hierarchical-0:primary SFSymbolsPreviewWireframe" d="M24.6891-8.9143C23.7637-9.049 23.0539-9.4713 22.5598-10.199C22.0566-10.9178 22.1824-10.199 20.5293-21.8877C20.107-24.8525 19.2984-30.5307 18.7324-34.5108C18.1664-38.4908 17.6184-42.3451 17.5195-43.0908C17.1512-45.8311 17.1691-45.7861 13.0004-52.8389C11.1047-56.0463 9.19101-59.3256 8.87656-59.9275C8.48125-60.6733 8.48125-60.8979 8.85859-61.2842C9.07421-61.5088 9.07421-61.5088 43.9875-61.5358C75.5496-61.5537 78.9547-61.5447 79.4488-61.41C81.1019-60.9877 82.5844-59.5053 83.1414-57.6994C83.3211-57.1154 83.3211-56.9268 83.3301-46.1455C83.3301-35.1846 83.3301-35.1846 83.0785-34.6725C82.7551-34.0166 82.0094-33.3248 81.3805-33.1002C80.6617-32.8576 78.9277-32.8756 78.2449-33.1541C77.5621-33.4147 76.9691-33.9537 76.6637-34.5826C76.4121-35.0947 76.4121-35.0947 76.3672-44.9596C76.3223-54.6268 76.3223-54.8334 76.1426-54.9592C75.9988-55.067 75.325-55.085 71.9648-55.067C67.9668-55.04 67.9668-55.04 67.859-54.2764C67.7602-53.5756 67.5266-51.626 65.9902-38.958C65.3164-33.3697 64.3551-25.5443 63.6094-19.5068C63.268-16.7666 62.8996-13.8108 62.8008-12.9483C62.693-12.0858 62.5852-11.2772 62.5582-11.1514C62.3605-10.3158 61.543-9.4264 60.6625-9.067C60.1504-8.8604 60.1504-8.8604 42.6758-8.8514C33.0625-8.8424 24.9676-8.8693 24.6891-8.9143ZM60.2582-10.4057C60.6266-10.6033 61.0039-11.0256 61.1297-11.367C61.2105-11.5916 62.9266-25.3557 64.2922-36.6221C64.409-37.6553 64.6965-39.9643 64.9121-41.7432C65.2984-44.8608 65.8465-49.4248 66.3855-53.8182C66.6371-55.9205 66.6371-55.9205 66.9246-56.1811C67.2031-56.4326 67.2031-56.4326 71.7852-56.4326C74.7949-56.4326 76.4391-56.3967 76.6098-56.3338C76.9691-56.199 77.3465-55.8217 77.5441-55.3994C77.7059-55.058 77.7148-54.5908 77.7148-45.3818C77.7148-39.3084 77.7508-35.6068 77.8047-35.4002C78.0113-34.6725 78.6762-34.3311 79.898-34.3311C80.9223-34.3311 81.4164-34.5377 81.7309-35.1037C81.9375-35.4541 81.9375-35.4541 81.9375-46.0197C81.9375-52.794 81.9016-56.765 81.8477-57.0705C81.641-58.1576 80.7965-59.2807 79.7723-59.8108C79.2871-60.0713 79.2871-60.0713 44.7961-60.0983C10.3141-60.1162 10.3141-60.1162 10.4398-59.9186C10.5117-59.8018 10.8262-59.2627 11.1406-58.7236C11.4551-58.1756 12.6859-56.0822 13.8809-54.0518C17.9598-47.1158 18.0406-46.9631 18.4629-45.5166C18.6246-44.9686 18.9391-42.965 19.4602-39.2725C21.3199-25.9756 23.3773-11.7893 23.5031-11.4119C23.6918-10.81 24.2039-10.3877 24.8867-10.244C25.0574-10.208 32.9996-10.1901 42.541-10.199C59.8809-10.208 59.8809-10.208 60.2582-10.4057ZM37.6895-19.417C37.1953-19.6147 37.0965-20.2076 37.5008-20.558C37.7434-20.7647 37.7434-20.7647 43.1609-20.7647C48.5066-20.7647 48.5875-20.7647 48.8211-20.576C49.2344-20.2526 49.1086-19.6057 48.5965-19.426C48.2551-19.3092 37.977-19.2912 37.6895-19.417ZM35.0031-29.1291C34.6977-29.3717 34.6797-29.8209 34.9762-30.0904C35.1828-30.2881 35.1828-30.2881 43.1519-30.2881C51.0043-30.2881 51.1211-30.2881 51.3008-30.1084C51.5703-29.8389 51.5434-29.3627 51.2469-29.1291C51.0043-28.9404 50.9594-28.9404 43.125-28.9404C35.2906-28.9404 35.2457-28.9404 35.0031-29.1291ZM34.8145-38.4818C34.3562-38.7424 34.2754-39.2365 34.6348-39.5869C34.8504-39.8115 34.8504-39.8115 43.0621-39.8115C51.2379-39.8115 51.2738-39.8115 51.5164-39.6229C51.8039-39.3983 51.8309-38.949 51.5793-38.6346C51.4086-38.419 51.4086-38.419 43.1969-38.401C37.1234-38.383 34.9492-38.401 34.8145-38.4818ZM30.475-48.2838C30.1965-48.5803 30.2145-49.0025 30.5109-49.2361C30.7535-49.4248 30.7535-49.4248 43.1609-49.4248C56.4848-49.4158 55.775-49.4428 55.9637-48.9666C56.0625-48.6971 55.8918-48.2209 55.6582-48.1311C55.5773-48.1041 49.9172-48.0772 43.0891-48.0772C30.6637-48.0772 30.6637-48.0772 30.475-48.2838Z"/>
  </g>
  <g id="Ultralight-S" transform="matrix(1 0 0 1 513.711 696)">
   <path class="monochrome-0 multicolor-0:tintColor hierarchical-0:primary SFSymbolsPreviewWireframe" d="M24.6891-8.9143C23.7637-9.049 23.0539-9.4713 22.5598-10.199C22.0566-10.9178 22.1824-10.199 20.5293-21.8877C20.107-24.8525 19.2984-30.5307 18.7324-34.5108C18.1664-38.4908 17.6184-42.3451 17.5195-43.0908C17.1512-45.8311 17.1691-45.7861 13.0004-52.8389C11.1047-56.0463 9.19101-59.3256 8.87656-59.9275C8.48125-60.6733 8.48125-60.8979 8.85859-61.2842C9.07421-61.5088 9.07421-61.5088 43.9875-61.5358C75.5496-61.5537 78.9547-61.5447 79.4488-61.41C81.1019-60.9877 82.5844-59.5053 83.1414-57.6994C83.3211-57.1154 83.3211-56.9268 83.3301-46.1455C83.3301-35.1846 83.3301-35.1846 83.0785-34.6725C82.7551-34.0166 82.0094-33.3248 81.3805-33.1002C80.6617-32.8576 78.9277-32.8756 78.2449-33.1541C77.5621-33.4147 76.9691-33.9537 76.6637-34.5826C76.4121-35.0947 76.4121-35.0947 76.3672-44.9596C76.3223-54.6268 76.3223-54.8334 76.1426-54.9592C75.9988-55.067 75.325-55.085 71.9648-55.067C67.9668-55.04 67.9668-55.04 67.859-54.2764C67.7602-53.5756 67.5266-51.626 65.9902-38.958C65.3164-33.3697 64.3551-25.5443 63.6094-19.5068C63.268-16.7666 62.8996-13.8108 62.8008-12.9483C62.693-12.0858 62.5852-11.2772 62.5582-11.1514C62.3605-10.3158 61.543-9.4264 60.6625-9.067C60.1504-8.8604 60.1504-8.8604 42.6758-8.8514C33.0625-8.8424 24.9676-8.8693 24.6891-8.9143ZM60.2582-10.4057C60.6266-10.6033 61.0039-11.0256 61.1297-11.367C61.2105-11.5916 62.9266-25.3557 64.2922-36.6221C64.409-37.6553 64.6965-39.9643 64.9121-41.7432C65.2984-44.8608 65.8465-49.4248 66.3855-53.8182C66.6371-55.9205 66.6371-55.9205 66.9246-56.1811C67.2031-56.4326 67.2031-56.4326 71.7852-56.4326C74.7949-56.4326 76.4391-56.3967 76.6098-56.3338C76.9691-56.199 77.3465-55.8217 77.5441-55.3994C77.7059-55.058 77.7148-54.5908 77.7148-45.3818C77.7148-39.3084 77.7508-35.6068 77.8047-35.4002C78.0113-34.6725 78.6762-34.3311 79.898-34.3311C80.9223-34.3311 81.4164-34.5377 81.7309-35.1037C81.9375-35.4541 81.9375-35.4541 81.9375-46.0197C81.9375-52.794 81.9016-56.765 81.8477-57.0705C81.641-58.1576 80.7965-59.2807 79.7723-59.8108C79.2871-60.0713 79.2871-60.0713 44.7961-60.0983C10.3141-60.1162 10.3141-60.1162 10.4398-59.9186C10.5117-59.8018 10.8262-59.2627 11.1406-58.7236C11.4551-58.1756 12.6859-56.0822 13.8809-54.0518C17.9598-47.1158 18.0406-46.9631 18.4629-45.5166C18.6246-44.9686 18.9391-42.965 19.4602-39.2725C21.3199-25.9756 23.3773-11.7893 23.5031-11.4119C23.6918-10.81 24.2039-10.3877 24.8867-10.244C25.0574-10.208 32.9996-10.1901 42.541-10.199C59.8809-10.208 59.8809-10.208 60.2582-10.4057ZM37.6895-19.417C37.1953-19.6147 37.0965-20.2076 37.5008-20.558C37.7434-20.7647 37.7434-20.7647 43.1609-20.7647C48.5066-20.7647 48.5875-20.7647 48.8211-20.576C49.2344-20.2526 49.1086-19.6057 48.5965-19.426C48.2551-19.3092 37.977-19.2912 37.6895-19.417ZM35.0031-29.1291C34.6977-29.3717 34.6797-29.8209 34.9762-30.0904C35.1828-30.2881 35.1828-30.2881 43.1519-30.2881C51.0043-30.2881 51.1211-30.2881 51.3008-30.1084C51.5703-29.8389 51.5434-29.3627 51.2469-29.1291C51.0043-28.9404 50.9594-28.9404 43.125-28.9404C35.2906-28.9404 35.2457-28.9404 35.0031-29.1291ZM34.8145-38.4818C34.3562-38.7424 34.2754-39.2365 34.6348-39.5869C34.8504-39.8115 34.8504-39.8115 43.0621-39.8115C51.2379-39.8115 51.2738-39.8115 51.5164-39.6229C51.8039-39.3983 51.8309-38.949 51.5793-38.6346C51.4086-38.419 51.4086-38.419 43.1969-38.401C37.1234-38.383 34.9492-38.401 34.8145-38.4818ZM30.475-48.2838C30.1965-48.5803 30.2145-49.0025 30.5109-49.2361C30.7535-49.4248 30.7535-49.4248 43.1609-49.4248C56.4848-49.4158 55.775-49.4428 55.9637-48.9666C56.0625-48.6971 55.8918-48.2209 55.6582-48.1311C55.5773-48.1041 49.9172-48.0772 43.0891-48.0772C30.6637-48.0772 30.6637-48.0772 30.475-48.2838Z"/>
  </g>
 </g>
</svg>
