<?xml version="1.0" encoding="UTF-8"?>
<!DOCTYPE svg
PUBLIC "-//W3C//DTD SVG 1.1//EN"
     "http://www.w3.org/Graphics/SVG/1.1/DTD/svg11.dtd">
     <!--Created with SF Symbol Generator (v1.0.0)-->

<svg version="1.1" xmlns="http://www.w3.org/2000/svg" xmlns:xlink="http://www.w3.org/1999/xlink" width="3300" height="2200">
<!--glyph: "spoons.small.fill.medium", point size: 100.0-->
<style>.SFSymbolsPreviewWireframe {fill:none;opacity:1.0;stroke:black;stroke-width:0.5}
</style>
<g id="Notes">
<rect height="2200" id="artboard" style="fill:white;opacity:1" width="3300" x="0" y="0"/>
<line style="fill:none;stroke:black;opacity:1;stroke-width:0.5;" x1="263" x2="3036" y1="292" y2="292"/>
<text style="stroke:none;fill:black;font-family:sans-serif;font-size:13;font-weight:bold;" transform="matrix(1 0 0 1 263 322)">Weight/Scale Variations</text>
<text style="stroke:none;fill:black;font-family:sans-serif;font-size:13;text-anchor:middle;" transform="matrix(1 0 0 1 559.711 322)">Ultralight</text>
<text style="stroke:none;fill:black;font-family:sans-serif;font-size:13;text-anchor:middle;" transform="matrix(1 0 0 1 856.422 322)">Thin</text>
<text style="stroke:none;fill:black;font-family:sans-serif;font-size:13;text-anchor:middle;" transform="matrix(1 0 0 1 1153.13 322)">Light</text>
<text style="stroke:none;fill:black;font-family:sans-serif;font-size:13;text-anchor:middle;" transform="matrix(1 0 0 1 1449.84 322)">Regular</text>
<text style="stroke:none;fill:black;font-family:sans-serif;font-size:13;text-anchor:middle;" transform="matrix(1 0 0 1 1746.56 322)">Medium</text>
<text style="stroke:none;fill:black;font-family:sans-serif;font-size:13;text-anchor:middle;" transform="matrix(1 0 0 1 2043.27 322)">Semibold</text>
<text style="stroke:none;fill:black;font-family:sans-serif;font-size:13;text-anchor:middle;" transform="matrix(1 0 0 1 2339.98 322)">Bold</text>
<text style="stroke:none;fill:black;font-family:sans-serif;font-size:13;text-anchor:middle;" transform="matrix(1 0 0 1 2636.69 322)">Heavy</text>
<text style="stroke:none;fill:black;font-family:sans-serif;font-size:13;text-anchor:middle;" transform="matrix(1 0 0 1 2933.4 322)">Black</text>
<line style="fill:none;stroke:black;opacity:1;stroke-width:0.5;" x1="263" x2="3036" y1="1903" y2="1903"/>
<text style="stroke:none;fill:black;font-family:sans-serif;font-size:13;font-weight:bold;" transform="matrix(1 0 0 1 263 1953)">Design Variations</text>
<text style="stroke:none;fill:black;font-family:sans-serif;font-size:13;" transform="matrix(1 0 0 1 263 1971)">Symbols are supported in up to nine weights and three scales.</text>
<text style="stroke:none;fill:black;font-family:sans-serif;font-size:13;" transform="matrix(1 0 0 1 263 1989)">For optimal layout with text and other symbols, vertically align</text>
<text style="stroke:none;fill:black;font-family:sans-serif;font-size:13;" transform="matrix(1 0 0 1 263 2007)">symbols with the adjacent text.</text>
<line style="fill:none;stroke:#00AEEF;stroke-width:0.5;opacity:1.0;" x1="776" x2="776" y1="1919" y2="1933"/>
<text style="stroke:none;fill:black;font-family:sans-serif;font-size:13;font-weight:bold;" transform="matrix(1 0 0 1 776 1953)">Margins</text>
<text style="stroke:none;fill:black;font-family:sans-serif;font-size:13;" transform="matrix(1 0 0 1 776 1971)">Leading and trailing margins on the left and right side of each symbol</text>
<text style="stroke:none;fill:black;font-family:sans-serif;font-size:13;" transform="matrix(1 0 0 1 776 1989)">can be adjusted by modifying the x-location of the margin guidelines.</text>
<text style="stroke:none;fill:black;font-family:sans-serif;font-size:13;" transform="matrix(1 0 0 1 776 2007)">Modifications are automatically applied proportionally to all</text>
<text style="stroke:none;fill:black;font-family:sans-serif;font-size:13;" transform="matrix(1 0 0 1 776 2025)">scales and weights.</text>
<text style="stroke:none;fill:black;font-family:sans-serif;font-size:13;font-weight:bold;" transform="matrix(1 0 0 1 1289 1953)">Exporting</text>
<text style="stroke:none;fill:black;font-family:sans-serif;font-size:13;" transform="matrix(1 0 0 1 1289 1971)">Symbols should be outlined when exporting to ensure the</text>
<text style="stroke:none;fill:black;font-family:sans-serif;font-size:13;" transform="matrix(1 0 0 1 1289 1989)">design is preserved when submitting to Xcode.</text>
<text id="template-version" style="stroke:none;fill:black;font-family:sans-serif;font-size:13;text-anchor:end;" transform="matrix(1 0 0 1 3036 1933)">Template v.5.0</text>
<text style="stroke:none;fill:black;font-family:sans-serif;font-size:13;text-anchor:end;" transform="matrix(1 0 0 1 3036 1951)">Requires Xcode 15 or greater</text>
<text id="descriptive-name" style="stroke:none;fill:black;font-family:sans-serif;font-size:13;text-anchor:end;" transform="matrix(1 0 0 1 3036 1969)">Generated from spoons.small.fill</text>
<text style="stroke:none;fill:black;font-family:sans-serif;font-size:13;text-anchor:end;" transform="matrix(1 0 0 1 3036 1987)">Typeset at 100.0 points</text>
<text style="stroke:none;fill:black;font-family:sans-serif;font-size:13;" transform="matrix(1 0 0 1 263 726)">Small</text>
<text style="stroke:none;fill:black;font-family:sans-serif;font-size:13;" transform="matrix(1 0 0 1 263 1156)">Medium</text>
<text style="stroke:none;fill:black;font-family:sans-serif;font-size:13;" transform="matrix(1 0 0 1 263 1586)">Large</text>
</g>
<g id="Guides">
<g id="H-reference" style="fill:#27AAE1;stroke:none;" transform="matrix(1 0 0 1 339 696)">
 <path d="M0.993654 0L3.63775 0L29.3281-67.1323L30.0303-67.1323L30.0303-70.459L28.1226-70.459ZM11.6885-24.4799L46.9815-24.4799L46.2315-26.7285L12.4385-26.7285ZM55.1196 0L57.7637 0L30.6382-70.459L29.4326-70.459L29.4326-67.1323Z"/>
</g>
<line id="Baseline-S" style="fill:none;stroke:#27AAE1;opacity:1;stroke-width:0.5;" x1="263" x2="3036" y1="696" y2="696"/>
<line id="Capline-S" style="fill:none;stroke:#27AAE1;opacity:1;stroke-width:0.5;" x1="263" x2="3036" y1="625.541" y2="625.541"/>
<g id="H-reference" style="fill:#27AAE1;stroke:none;" transform="matrix(1 0 0 1 339 1126)">
 <path d="M0.993654 0L3.63775 0L29.3281-67.1323L30.0303-67.1323L30.0303-70.459L28.1226-70.459ZM11.6885-24.4799L46.9815-24.4799L46.2315-26.7285L12.4385-26.7285ZM55.1196 0L57.7637 0L30.6382-70.459L29.4326-70.459L29.4326-67.1323Z"/>
</g>
<line id="Baseline-M" style="fill:none;stroke:#27AAE1;opacity:1;stroke-width:0.5;" x1="263" x2="3036" y1="1126" y2="1126"/>
<line id="Capline-M" style="fill:none;stroke:#27AAE1;opacity:1;stroke-width:0.5;" x1="263" x2="3036" y1="1055.54" y2="1055.54"/>
<g id="H-reference" style="fill:#27AAE1;stroke:none;" transform="matrix(1 0 0 1 339 1556)">
 <path d="M0.993654 0L3.63775 0L29.3281-67.1323L30.0303-67.1323L30.0303-70.459L28.1226-70.459ZM11.6885-24.4799L46.9815-24.4799L46.2315-26.7285L12.4385-26.7285ZM55.1196 0L57.7637 0L30.6382-70.459L29.4326-70.459L29.4326-67.1323Z"/>
</g>
<line id="Baseline-L" style="fill:none;stroke:#27AAE1;opacity:1;stroke-width:0.5;" x1="263" x2="3036" y1="1556" y2="1556"/>
<line id="Capline-L" style="fill:none;stroke:#27AAE1;opacity:1;stroke-width:0.5;" x1="263" x2="3036" y1="1485.54" y2="1485.54"/>
<line id="left-margin-Ultralight-S" style="fill:none;stroke:#00AEEF;stroke-width:0.5;opacity:1.0;" x1="513.711" x2="513.711" y1="600.785" y2="720.121"/>
<line id="right-margin-Ultralight-S" style="fill:none;stroke:#00AEEF;stroke-width:0.5;opacity:1.0;" x1="605.711" x2="605.711" y1="600.785" y2="720.121"/>
<line id="left-margin-Regular-S" style="fill:none;stroke:#00AEEF;stroke-width:0.5;opacity:1.0;" x1="1403.84" x2="1403.84" y1="600.785" y2="720.121"/>
<line id="right-margin-Regular-S" style="fill:none;stroke:#00AEEF;stroke-width:0.5;opacity:1.0;" x1="1495.84" x2="1495.84" y1="600.785" y2="720.121"/>
<line id="left-margin-Black-S" style="fill:none;stroke:#00AEEF;stroke-width:0.5;opacity:1.0;" x1="2887.4" x2="2887.4" y1="600.785" y2="720.121"/>
<line id="right-margin-Black-S" style="fill:none;stroke:#00AEEF;stroke-width:0.5;opacity:1.0;" x1="2979.4" x2="2979.4" y1="600.785" y2="720.121"/>
</g>
<g id="Symbols">
<g id="Ultralight-S" transform="matrix(1 0 0 1 513.711 614.7705)">
<svg width="92" height="92" viewBox="0 0 92 92" fill="none" xmlns="http://www.w3.org/2000/svg">
<g id="spoons.small.fill" clip-path="url(#clip0_31_583)">
<g id="Union">
<path fill-rule="evenodd" clip-rule="evenodd" d="M75.6104 16.9601C77.0841 16.3325 78.4978 16.3221 79.7122 16.7661C80.9926 17.2342 81.9918 18.1855 82.5893 19.3179C83.1862 20.4494 83.4016 21.7993 83.064 23.0873C82.8054 24.0742 82.2312 24.9872 81.3205 25.7118C79.1496 29.2374 73.9565 37.2897 69.2565 44.5362C66.8382 48.2647 64.5478 51.7841 62.8621 54.3713C62.0192 55.6648 61.3277 56.7255 60.8466 57.4627C60.6108 57.8241 60.4253 58.1078 60.2977 58.3031C63.2398 63.6441 62.0748 70.4703 58.5529 75.4967C56.2763 78.7456 52.9758 81.3228 49.047 82.3439C45.9225 83.1559 42.4414 82.9724 38.8228 81.4107C37.4956 81.129 36.2954 80.5576 35.2931 79.6764C31.1018 75.9915 31.8339 68.1814 36.7408 61.5602C35.2515 62.6855 33.6205 63.6628 31.8951 64.4661C22.5676 68.8087 10.2776 68.1466 2.45451 58.1351C1.55466 57.2319 0.876441 56.1853 0.463737 55.0034C-1.97654 48.0149 5.44784 40.2811 17.2363 35.5798C25.1943 32.8009 33.1628 32.1951 38.4143 34.3333L39.6704 33.7491L39.7302 33.7213L39.7647 33.7053L39.7723 33.7018L39.7989 33.6893L39.8584 33.6617L39.8618 33.6601C40.7204 33.2607 41.8998 32.712 43.3098 32.0558C46.3455 30.643 50.4512 28.7316 54.7305 26.7367C61.7394 23.4693 69.2086 19.981 73.2101 18.0928C73.1914 18.761 73.2231 19.3591 73.3012 19.9117C69.1712 21.8572 62.0939 25.162 55.4419 28.263C51.1622 30.258 47.0563 32.1698 44.0204 33.5827C42.5025 34.2891 41.2519 34.871 40.3809 35.2761L40.3479 35.2914L40.3163 35.3061C42.0246 36.392 43.2903 37.884 43.9641 39.8134C44.0793 40.1433 44.1717 40.4778 44.242 40.8162C44.3083 41.0171 44.3705 41.2179 44.4291 41.4182C45.2853 41.0214 46.4477 40.4826 47.8309 39.8405C50.8721 38.4285 54.981 36.5176 59.252 34.522C67.8069 30.5249 76.9765 26.2043 79.5522 24.8587C79.7337 24.7638 79.9005 24.6625 80.0538 24.5562C80.055 24.5543 80.0563 24.5523 80.0575 24.5504L80.0595 24.5472L80.061 24.5448L80.0659 24.5479C80.8349 24.0107 81.2565 23.3408 81.4349 22.6603C81.6542 21.8235 81.5224 20.9046 81.0999 20.1037C80.6779 19.3038 79.9853 18.659 79.1338 18.3477C78.2967 18.0417 77.2459 18.0355 76.0444 18.6118C75.866 18.6974 75.6609 18.7953 75.4312 18.9046C75.4016 18.2732 75.459 17.6217 75.6104 16.9601ZM52.1013 54.3543C51.0679 54.3138 49.9363 54.4521 48.731 54.7836C45.6064 55.6431 42.2026 57.7649 39.345 61.0151C36.4875 64.2654 34.8191 67.9129 34.3668 71.1218C33.9121 74.3474 34.6948 76.908 36.405 78.4116C38.1153 79.9152 40.7551 80.3636 43.896 79.4996C47.0206 78.6401 50.4245 76.5184 53.282 73.2682C56.1395 70.018 57.8079 66.3704 58.2602 63.1615C58.7148 59.9358 57.9321 57.3751 56.2219 55.8715C55.1837 54.9588 53.803 54.435 52.1757 54.3574L52.1602 54.3811C52.1585 54.3838 52.1572 54.386 52.1563 54.3874L52.1553 54.3889L52.155 54.3893L52.1013 54.3543ZM43.7265 46.0706C41.6856 51.5311 35.2547 57.0516 26.6326 60.0624C19.3979 62.5887 12.2707 62.7718 7.21255 60.9912C14.3751 66.7474 23.7836 66.6946 31.3029 63.1939C35.9652 61.0232 39.8434 57.5465 41.967 53.3754C43.1143 51.122 43.7538 48.6587 43.7265 46.0706ZM33.8852 34.9169C29.3813 34.3371 23.6536 35.1273 17.825 37.1579C12.1024 39.4449 7.56306 42.4211 4.77141 45.5543C1.97223 48.696 1.11139 51.7499 2.05364 54.4483C2.99364 57.1402 5.83544 59.2143 10.2782 60.0732C14.6732 60.9228 20.3014 60.4894 26.0774 58.4725C31.8533 56.4556 36.5279 53.2913 39.4387 49.8906C42.3812 46.4528 43.3141 43.0605 42.3742 40.3686C41.3332 37.3876 38.4167 35.5002 33.8852 34.9169ZM63.0474 34.6056C62.0184 35.0876 60.9867 35.5703 59.9648 36.0477C55.6922 38.044 51.5819 39.9555 48.54 41.3678C47.019 42.0739 45.765 42.6554 44.8913 43.0603L44.8321 43.0876C45.5736 46.9851 44.8978 50.7126 43.2178 54.0123C42.7729 54.886 42.258 55.7286 41.6816 56.5362C44.8127 54.1533 48.2215 52.8071 51.2628 52.6754L52.0047 51.5393C52.8003 50.3205 53.9276 48.5935 55.2539 46.5607C57.4963 43.1239 60.3074 38.8127 63.0474 34.6056Z" fill="black"/>
<path d="M81.9794 9.19672C84.0895 9.01909 86.1967 9.56988 87.9501 10.7572C89.7033 11.9446 90.9969 13.6968 91.6151 15.7221C92.2334 17.7473 92.1391 19.9233 91.3479 21.8874C90.5566 23.8516 89.1162 25.4854 87.2667 26.5166C85.4172 27.5476 82.8263 27.9401 80.7396 27.5805L81.722 25.9666C83.4293 26.2608 84.9335 25.8892 86.4467 25.0455C87.9599 24.2019 89.1383 22.8652 89.7857 21.2582C90.4331 19.6511 90.5103 17.8708 90.0044 16.2138C89.4986 14.5568 88.4403 13.123 87.0057 12.1516C85.5712 11.1801 83.8471 10.7296 82.1207 10.8749C80.3943 11.0202 78.7698 11.7527 77.5178 12.9503C76.3895 14.0297 75.6252 15.428 75.323 16.9515L75.3089 17.0242C75.304 17.0507 75.2992 17.0772 75.2945 17.1038C75.2737 17.2207 75.2557 17.3383 75.2404 17.4565C75.1731 17.9783 75.156 18.5017 75.1902 19.0191C75.2295 19.6119 75.3361 20.1968 75.5118 20.7619C75.6122 21.085 75.7352 21.4016 75.8811 21.7095C75.8985 21.744 75.9161 21.7785 75.9341 21.8127L75.9313 21.8134L75.9679 21.8864C76.0544 22.0566 76.1479 22.2239 76.2487 22.388C76.6191 22.9908 75.0646 23.631 74.7751 23.1598C74.7192 23.0687 74.665 22.977 74.6128 22.8848C74.5587 22.7893 74.5067 22.6933 74.4566 22.5967C74.2744 22.2452 74.1186 21.8865 73.9887 21.5215C73.9502 21.4135 73.9139 21.3049 73.8799 21.1958C73.7364 20.7347 73.6328 20.2642 73.5678 19.786L73.5673 19.7863C73.5654 19.7715 73.5635 19.7567 73.5616 19.7419C73.5596 19.7256 73.5576 19.7093 73.5557 19.6929C73.5036 19.2771 73.4805 18.8556 73.4856 18.4294C73.4859 18.2763 73.4891 18.1194 73.4953 17.9581C73.4978 17.957 73.5003 17.9557 73.5028 17.9546C73.5169 17.718 73.5394 17.4801 73.5702 17.2411C73.8412 15.141 74.8236 13.1971 76.3537 11.7333C77.8839 10.2696 79.8694 9.37435 81.9794 9.19672Z" fill="black"/>
<path d="M75.7647 20.7006C76.8918 20.4653 77.9156 20.7588 78.2776 21.5075C78.7455 22.4754 77.9305 23.8374 76.4573 24.5496L76.3882 24.5824C74.9351 25.2552 73.4031 25.0394 72.9425 24.0866C72.5957 23.3692 72.9538 22.4353 73.7623 21.7099C73.9033 22.0818 74.0696 22.4436 74.2592 22.8068C74.192 22.8877 74.1349 22.9682 74.0881 23.0463C73.8806 23.393 73.9368 23.5642 73.9532 23.5981C73.9696 23.6321 74.069 23.7824 74.4695 23.8352C74.859 23.8865 75.4008 23.8132 75.9686 23.5387C76.5364 23.2642 76.9303 22.8851 77.132 22.548C77.3394 22.2014 77.2832 22.0303 77.2668 21.9963C77.2504 21.9624 77.1512 21.8119 76.7506 21.7591C76.5966 21.7389 76.4187 21.738 76.2248 21.7614C76.0409 21.4216 75.8869 21.0671 75.7647 20.7006Z" fill="black"/>
</g>
</g>
<defs>
<clipPath id="clip0_31_583">
<rect width="92" height="92" fill="white"/>
</clipPath>
</defs>
</svg>

</g>
<g id="Regular-S" transform="matrix(1 0 0 1 1403.84 614.7705)">
<svg width="92" height="92" viewBox="0 0 92 92" fill="none" xmlns="http://www.w3.org/2000/svg">
<g id="spoons.small.fill" clip-path="url(#clip0_31_583)">
<g id="Union">
<path fill-rule="evenodd" clip-rule="evenodd" d="M75.6104 16.9601C77.0841 16.3325 78.4978 16.3221 79.7122 16.7661C80.9926 17.2342 81.9918 18.1855 82.5893 19.3179C83.1862 20.4494 83.4016 21.7993 83.064 23.0873C82.8054 24.0742 82.2312 24.9872 81.3205 25.7118C79.1496 29.2374 73.9565 37.2897 69.2565 44.5362C66.8382 48.2647 64.5478 51.7841 62.8621 54.3713C62.0192 55.6648 61.3277 56.7255 60.8466 57.4627C60.6108 57.8241 60.4253 58.1078 60.2977 58.3031C63.2398 63.6441 62.0748 70.4703 58.5529 75.4967C56.2763 78.7456 52.9758 81.3228 49.047 82.3439C45.9225 83.1559 42.4414 82.9724 38.8228 81.4107C37.4956 81.129 36.2954 80.5576 35.2931 79.6764C31.1018 75.9915 31.8339 68.1814 36.7408 61.5602C35.2515 62.6855 33.6205 63.6628 31.8951 64.4661C22.5676 68.8087 10.2776 68.1466 2.45451 58.1351C1.55466 57.2319 0.876441 56.1853 0.463737 55.0034C-1.97654 48.0149 5.44784 40.2811 17.2363 35.5798C25.1943 32.8009 33.1628 32.1951 38.4143 34.3333L39.6704 33.7491L39.7302 33.7213L39.7647 33.7053L39.7723 33.7018L39.7989 33.6893L39.8584 33.6617L39.8618 33.6601C40.7204 33.2607 41.8998 32.712 43.3098 32.0558C46.3455 30.643 50.4512 28.7316 54.7305 26.7367C61.7394 23.4693 69.2086 19.981 73.2101 18.0928C73.1914 18.761 73.2231 19.3591 73.3012 19.9117C69.1712 21.8572 62.0939 25.162 55.4419 28.263C51.1622 30.258 47.0563 32.1698 44.0204 33.5827C42.5025 34.2891 41.2519 34.871 40.3809 35.2761L40.3479 35.2914L40.3163 35.3061C42.0246 36.392 43.2903 37.884 43.9641 39.8134C44.0793 40.1433 44.1717 40.4778 44.242 40.8162C44.3083 41.0171 44.3705 41.2179 44.4291 41.4182C45.2853 41.0214 46.4477 40.4826 47.8309 39.8405C50.8721 38.4285 54.981 36.5176 59.252 34.522C67.8069 30.5249 76.9765 26.2043 79.5522 24.8587C79.7337 24.7638 79.9005 24.6625 80.0538 24.5562C80.055 24.5543 80.0563 24.5523 80.0575 24.5504L80.0595 24.5472L80.061 24.5448L80.0659 24.5479C80.8349 24.0107 81.2565 23.3408 81.4349 22.6603C81.6542 21.8235 81.5224 20.9046 81.0999 20.1037C80.6779 19.3038 79.9853 18.659 79.1338 18.3477C78.2967 18.0417 77.2459 18.0355 76.0444 18.6118C75.866 18.6974 75.6609 18.7953 75.4312 18.9046C75.4016 18.2732 75.459 17.6217 75.6104 16.9601ZM52.1013 54.3543C51.0679 54.3138 49.9363 54.4521 48.731 54.7836C45.6064 55.6431 42.2026 57.7649 39.345 61.0151C36.4875 64.2654 34.8191 67.9129 34.3668 71.1218C33.9121 74.3474 34.6948 76.908 36.405 78.4116C38.1153 79.9152 40.7551 80.3636 43.896 79.4996C47.0206 78.6401 50.4245 76.5184 53.282 73.2682C56.1395 70.018 57.8079 66.3704 58.2602 63.1615C58.7148 59.9358 57.9321 57.3751 56.2219 55.8715C55.1837 54.9588 53.803 54.435 52.1757 54.3574L52.1602 54.3811C52.1585 54.3838 52.1572 54.386 52.1563 54.3874L52.1553 54.3889L52.155 54.3893L52.1013 54.3543ZM43.7265 46.0706C41.6856 51.5311 35.2547 57.0516 26.6326 60.0624C19.3979 62.5887 12.2707 62.7718 7.21255 60.9912C14.3751 66.7474 23.7836 66.6946 31.3029 63.1939C35.9652 61.0232 39.8434 57.5465 41.967 53.3754C43.1143 51.122 43.7538 48.6587 43.7265 46.0706ZM33.8852 34.9169C29.3813 34.3371 23.6536 35.1273 17.825 37.1579C12.1024 39.4449 7.56306 42.4211 4.77141 45.5543C1.97223 48.696 1.11139 51.7499 2.05364 54.4483C2.99364 57.1402 5.83544 59.2143 10.2782 60.0732C14.6732 60.9228 20.3014 60.4894 26.0774 58.4725C31.8533 56.4556 36.5279 53.2913 39.4387 49.8906C42.3812 46.4528 43.3141 43.0605 42.3742 40.3686C41.3332 37.3876 38.4167 35.5002 33.8852 34.9169ZM63.0474 34.6056C62.0184 35.0876 60.9867 35.5703 59.9648 36.0477C55.6922 38.044 51.5819 39.9555 48.54 41.3678C47.019 42.0739 45.765 42.6554 44.8913 43.0603L44.8321 43.0876C45.5736 46.9851 44.8978 50.7126 43.2178 54.0123C42.7729 54.886 42.258 55.7286 41.6816 56.5362C44.8127 54.1533 48.2215 52.8071 51.2628 52.6754L52.0047 51.5393C52.8003 50.3205 53.9276 48.5935 55.2539 46.5607C57.4963 43.1239 60.3074 38.8127 63.0474 34.6056Z" fill="black"/>
<path d="M81.9794 9.19672C84.0895 9.01909 86.1967 9.56988 87.9501 10.7572C89.7033 11.9446 90.9969 13.6968 91.6151 15.7221C92.2334 17.7473 92.1391 19.9233 91.3479 21.8874C90.5566 23.8516 89.1162 25.4854 87.2667 26.5166C85.4172 27.5476 82.8263 27.9401 80.7396 27.5805L81.722 25.9666C83.4293 26.2608 84.9335 25.8892 86.4467 25.0455C87.9599 24.2019 89.1383 22.8652 89.7857 21.2582C90.4331 19.6511 90.5103 17.8708 90.0044 16.2138C89.4986 14.5568 88.4403 13.123 87.0057 12.1516C85.5712 11.1801 83.8471 10.7296 82.1207 10.8749C80.3943 11.0202 78.7698 11.7527 77.5178 12.9503C76.3895 14.0297 75.6252 15.428 75.323 16.9515L75.3089 17.0242C75.304 17.0507 75.2992 17.0772 75.2945 17.1038C75.2737 17.2207 75.2557 17.3383 75.2404 17.4565C75.1731 17.9783 75.156 18.5017 75.1902 19.0191C75.2295 19.6119 75.3361 20.1968 75.5118 20.7619C75.6122 21.085 75.7352 21.4016 75.8811 21.7095C75.8985 21.744 75.9161 21.7785 75.9341 21.8127L75.9313 21.8134L75.9679 21.8864C76.0544 22.0566 76.1479 22.2239 76.2487 22.388C76.6191 22.9908 75.0646 23.631 74.7751 23.1598C74.7192 23.0687 74.665 22.977 74.6128 22.8848C74.5587 22.7893 74.5067 22.6933 74.4566 22.5967C74.2744 22.2452 74.1186 21.8865 73.9887 21.5215C73.9502 21.4135 73.9139 21.3049 73.8799 21.1958C73.7364 20.7347 73.6328 20.2642 73.5678 19.786L73.5673 19.7863C73.5654 19.7715 73.5635 19.7567 73.5616 19.7419C73.5596 19.7256 73.5576 19.7093 73.5557 19.6929C73.5036 19.2771 73.4805 18.8556 73.4856 18.4294C73.4859 18.2763 73.4891 18.1194 73.4953 17.9581C73.4978 17.957 73.5003 17.9557 73.5028 17.9546C73.5169 17.718 73.5394 17.4801 73.5702 17.2411C73.8412 15.141 74.8236 13.1971 76.3537 11.7333C77.8839 10.2696 79.8694 9.37435 81.9794 9.19672Z" fill="black"/>
<path d="M75.7647 20.7006C76.8918 20.4653 77.9156 20.7588 78.2776 21.5075C78.7455 22.4754 77.9305 23.8374 76.4573 24.5496L76.3882 24.5824C74.9351 25.2552 73.4031 25.0394 72.9425 24.0866C72.5957 23.3692 72.9538 22.4353 73.7623 21.7099C73.9033 22.0818 74.0696 22.4436 74.2592 22.8068C74.192 22.8877 74.1349 22.9682 74.0881 23.0463C73.8806 23.393 73.9368 23.5642 73.9532 23.5981C73.9696 23.6321 74.069 23.7824 74.4695 23.8352C74.859 23.8865 75.4008 23.8132 75.9686 23.5387C76.5364 23.2642 76.9303 22.8851 77.132 22.548C77.3394 22.2014 77.2832 22.0303 77.2668 21.9963C77.2504 21.9624 77.1512 21.8119 76.7506 21.7591C76.5966 21.7389 76.4187 21.738 76.2248 21.7614C76.0409 21.4216 75.8869 21.0671 75.7647 20.7006Z" fill="black"/>
</g>
</g>
<defs>
<clipPath id="clip0_31_583">
<rect width="92" height="92" fill="white"/>
</clipPath>
</defs>
</svg>

</g>
<g id="Black-S" transform="matrix(1 0 0 1 2887.4 614.7705)">
<svg width="92" height="92" viewBox="0 0 92 92" fill="none" xmlns="http://www.w3.org/2000/svg">
<g id="spoons.small.fill" clip-path="url(#clip0_31_583)">
<g id="Union">
<path fill-rule="evenodd" clip-rule="evenodd" d="M75.6104 16.9601C77.0841 16.3325 78.4978 16.3221 79.7122 16.7661C80.9926 17.2342 81.9918 18.1855 82.5893 19.3179C83.1862 20.4494 83.4016 21.7993 83.064 23.0873C82.8054 24.0742 82.2312 24.9872 81.3205 25.7118C79.1496 29.2374 73.9565 37.2897 69.2565 44.5362C66.8382 48.2647 64.5478 51.7841 62.8621 54.3713C62.0192 55.6648 61.3277 56.7255 60.8466 57.4627C60.6108 57.8241 60.4253 58.1078 60.2977 58.3031C63.2398 63.6441 62.0748 70.4703 58.5529 75.4967C56.2763 78.7456 52.9758 81.3228 49.047 82.3439C45.9225 83.1559 42.4414 82.9724 38.8228 81.4107C37.4956 81.129 36.2954 80.5576 35.2931 79.6764C31.1018 75.9915 31.8339 68.1814 36.7408 61.5602C35.2515 62.6855 33.6205 63.6628 31.8951 64.4661C22.5676 68.8087 10.2776 68.1466 2.45451 58.1351C1.55466 57.2319 0.876441 56.1853 0.463737 55.0034C-1.97654 48.0149 5.44784 40.2811 17.2363 35.5798C25.1943 32.8009 33.1628 32.1951 38.4143 34.3333L39.6704 33.7491L39.7302 33.7213L39.7647 33.7053L39.7723 33.7018L39.7989 33.6893L39.8584 33.6617L39.8618 33.6601C40.7204 33.2607 41.8998 32.712 43.3098 32.0558C46.3455 30.643 50.4512 28.7316 54.7305 26.7367C61.7394 23.4693 69.2086 19.981 73.2101 18.0928C73.1914 18.761 73.2231 19.3591 73.3012 19.9117C69.1712 21.8572 62.0939 25.162 55.4419 28.263C51.1622 30.258 47.0563 32.1698 44.0204 33.5827C42.5025 34.2891 41.2519 34.871 40.3809 35.2761L40.3479 35.2914L40.3163 35.3061C42.0246 36.392 43.2903 37.884 43.9641 39.8134C44.0793 40.1433 44.1717 40.4778 44.242 40.8162C44.3083 41.0171 44.3705 41.2179 44.4291 41.4182C45.2853 41.0214 46.4477 40.4826 47.8309 39.8405C50.8721 38.4285 54.981 36.5176 59.252 34.522C67.8069 30.5249 76.9765 26.2043 79.5522 24.8587C79.7337 24.7638 79.9005 24.6625 80.0538 24.5562C80.055 24.5543 80.0563 24.5523 80.0575 24.5504L80.0595 24.5472L80.061 24.5448L80.0659 24.5479C80.8349 24.0107 81.2565 23.3408 81.4349 22.6603C81.6542 21.8235 81.5224 20.9046 81.0999 20.1037C80.6779 19.3038 79.9853 18.659 79.1338 18.3477C78.2967 18.0417 77.2459 18.0355 76.0444 18.6118C75.866 18.6974 75.6609 18.7953 75.4312 18.9046C75.4016 18.2732 75.459 17.6217 75.6104 16.9601ZM52.1013 54.3543C51.0679 54.3138 49.9363 54.4521 48.731 54.7836C45.6064 55.6431 42.2026 57.7649 39.345 61.0151C36.4875 64.2654 34.8191 67.9129 34.3668 71.1218C33.9121 74.3474 34.6948 76.908 36.405 78.4116C38.1153 79.9152 40.7551 80.3636 43.896 79.4996C47.0206 78.6401 50.4245 76.5184 53.282 73.2682C56.1395 70.018 57.8079 66.3704 58.2602 63.1615C58.7148 59.9358 57.9321 57.3751 56.2219 55.8715C55.1837 54.9588 53.803 54.435 52.1757 54.3574L52.1602 54.3811C52.1585 54.3838 52.1572 54.386 52.1563 54.3874L52.1553 54.3889L52.155 54.3893L52.1013 54.3543ZM43.7265 46.0706C41.6856 51.5311 35.2547 57.0516 26.6326 60.0624C19.3979 62.5887 12.2707 62.7718 7.21255 60.9912C14.3751 66.7474 23.7836 66.6946 31.3029 63.1939C35.9652 61.0232 39.8434 57.5465 41.967 53.3754C43.1143 51.122 43.7538 48.6587 43.7265 46.0706ZM33.8852 34.9169C29.3813 34.3371 23.6536 35.1273 17.825 37.1579C12.1024 39.4449 7.56306 42.4211 4.77141 45.5543C1.97223 48.696 1.11139 51.7499 2.05364 54.4483C2.99364 57.1402 5.83544 59.2143 10.2782 60.0732C14.6732 60.9228 20.3014 60.4894 26.0774 58.4725C31.8533 56.4556 36.5279 53.2913 39.4387 49.8906C42.3812 46.4528 43.3141 43.0605 42.3742 40.3686C41.3332 37.3876 38.4167 35.5002 33.8852 34.9169ZM63.0474 34.6056C62.0184 35.0876 60.9867 35.5703 59.9648 36.0477C55.6922 38.044 51.5819 39.9555 48.54 41.3678C47.019 42.0739 45.765 42.6554 44.8913 43.0603L44.8321 43.0876C45.5736 46.9851 44.8978 50.7126 43.2178 54.0123C42.7729 54.886 42.258 55.7286 41.6816 56.5362C44.8127 54.1533 48.2215 52.8071 51.2628 52.6754L52.0047 51.5393C52.8003 50.3205 53.9276 48.5935 55.2539 46.5607C57.4963 43.1239 60.3074 38.8127 63.0474 34.6056Z" fill="black"/>
<path d="M81.9794 9.19672C84.0895 9.01909 86.1967 9.56988 87.9501 10.7572C89.7033 11.9446 90.9969 13.6968 91.6151 15.7221C92.2334 17.7473 92.1391 19.9233 91.3479 21.8874C90.5566 23.8516 89.1162 25.4854 87.2667 26.5166C85.4172 27.5476 82.8263 27.9401 80.7396 27.5805L81.722 25.9666C83.4293 26.2608 84.9335 25.8892 86.4467 25.0455C87.9599 24.2019 89.1383 22.8652 89.7857 21.2582C90.4331 19.6511 90.5103 17.8708 90.0044 16.2138C89.4986 14.5568 88.4403 13.123 87.0057 12.1516C85.5712 11.1801 83.8471 10.7296 82.1207 10.8749C80.3943 11.0202 78.7698 11.7527 77.5178 12.9503C76.3895 14.0297 75.6252 15.428 75.323 16.9515L75.3089 17.0242C75.304 17.0507 75.2992 17.0772 75.2945 17.1038C75.2737 17.2207 75.2557 17.3383 75.2404 17.4565C75.1731 17.9783 75.156 18.5017 75.1902 19.0191C75.2295 19.6119 75.3361 20.1968 75.5118 20.7619C75.6122 21.085 75.7352 21.4016 75.8811 21.7095C75.8985 21.744 75.9161 21.7785 75.9341 21.8127L75.9313 21.8134L75.9679 21.8864C76.0544 22.0566 76.1479 22.2239 76.2487 22.388C76.6191 22.9908 75.0646 23.631 74.7751 23.1598C74.7192 23.0687 74.665 22.977 74.6128 22.8848C74.5587 22.7893 74.5067 22.6933 74.4566 22.5967C74.2744 22.2452 74.1186 21.8865 73.9887 21.5215C73.9502 21.4135 73.9139 21.3049 73.8799 21.1958C73.7364 20.7347 73.6328 20.2642 73.5678 19.786L73.5673 19.7863C73.5654 19.7715 73.5635 19.7567 73.5616 19.7419C73.5596 19.7256 73.5576 19.7093 73.5557 19.6929C73.5036 19.2771 73.4805 18.8556 73.4856 18.4294C73.4859 18.2763 73.4891 18.1194 73.4953 17.9581C73.4978 17.957 73.5003 17.9557 73.5028 17.9546C73.5169 17.718 73.5394 17.4801 73.5702 17.2411C73.8412 15.141 74.8236 13.1971 76.3537 11.7333C77.8839 10.2696 79.8694 9.37435 81.9794 9.19672Z" fill="black"/>
<path d="M75.7647 20.7006C76.8918 20.4653 77.9156 20.7588 78.2776 21.5075C78.7455 22.4754 77.9305 23.8374 76.4573 24.5496L76.3882 24.5824C74.9351 25.2552 73.4031 25.0394 72.9425 24.0866C72.5957 23.3692 72.9538 22.4353 73.7623 21.7099C73.9033 22.0818 74.0696 22.4436 74.2592 22.8068C74.192 22.8877 74.1349 22.9682 74.0881 23.0463C73.8806 23.393 73.9368 23.5642 73.9532 23.5981C73.9696 23.6321 74.069 23.7824 74.4695 23.8352C74.859 23.8865 75.4008 23.8132 75.9686 23.5387C76.5364 23.2642 76.9303 22.8851 77.132 22.548C77.3394 22.2014 77.2832 22.0303 77.2668 21.9963C77.2504 21.9624 77.1512 21.8119 76.7506 21.7591C76.5966 21.7389 76.4187 21.738 76.2248 21.7614C76.0409 21.4216 75.8869 21.0671 75.7647 20.7006Z" fill="black"/>
</g>
</g>
<defs>
<clipPath id="clip0_31_583">
<rect width="92" height="92" fill="white"/>
</clipPath>
</defs>
</svg>

</g>
</g>
</svg>