<?xml version="1.0" encoding="UTF-8"?>
<!DOCTYPE svg
PUBLIC "-//W3C//DTD SVG 1.1//EN"
     "http://www.w3.org/Graphics/SVG/1.1/DTD/svg11.dtd">
     <!--Created with SF Symbol Generator (v1.0.0)-->

<svg version="1.1" xmlns="http://www.w3.org/2000/svg" xmlns:xlink="http://www.w3.org/1999/xlink" width="3300" height="2200">
<!--glyph: "weight.lb.medium", point size: 100.0-->
<style>.SFSymbolsPreviewWireframe {fill:none;opacity:1.0;stroke:black;stroke-width:0.5}
</style>
<g id="Notes">
<rect height="2200" id="artboard" style="fill:white;opacity:1" width="3300" x="0" y="0"/>
<line style="fill:none;stroke:black;opacity:1;stroke-width:0.5;" x1="263" x2="3036" y1="292" y2="292"/>
<text style="stroke:none;fill:black;font-family:sans-serif;font-size:13;font-weight:bold;" transform="matrix(1 0 0 1 263 322)">Weight/Scale Variations</text>
<text style="stroke:none;fill:black;font-family:sans-serif;font-size:13;text-anchor:middle;" transform="matrix(1 0 0 1 559.711 322)">Ultralight</text>
<text style="stroke:none;fill:black;font-family:sans-serif;font-size:13;text-anchor:middle;" transform="matrix(1 0 0 1 856.422 322)">Thin</text>
<text style="stroke:none;fill:black;font-family:sans-serif;font-size:13;text-anchor:middle;" transform="matrix(1 0 0 1 1153.13 322)">Light</text>
<text style="stroke:none;fill:black;font-family:sans-serif;font-size:13;text-anchor:middle;" transform="matrix(1 0 0 1 1449.84 322)">Regular</text>
<text style="stroke:none;fill:black;font-family:sans-serif;font-size:13;text-anchor:middle;" transform="matrix(1 0 0 1 1746.56 322)">Medium</text>
<text style="stroke:none;fill:black;font-family:sans-serif;font-size:13;text-anchor:middle;" transform="matrix(1 0 0 1 2043.27 322)">Semibold</text>
<text style="stroke:none;fill:black;font-family:sans-serif;font-size:13;text-anchor:middle;" transform="matrix(1 0 0 1 2339.98 322)">Bold</text>
<text style="stroke:none;fill:black;font-family:sans-serif;font-size:13;text-anchor:middle;" transform="matrix(1 0 0 1 2636.69 322)">Heavy</text>
<text style="stroke:none;fill:black;font-family:sans-serif;font-size:13;text-anchor:middle;" transform="matrix(1 0 0 1 2933.4 322)">Black</text>
<line style="fill:none;stroke:black;opacity:1;stroke-width:0.5;" x1="263" x2="3036" y1="1903" y2="1903"/>
<text style="stroke:none;fill:black;font-family:sans-serif;font-size:13;font-weight:bold;" transform="matrix(1 0 0 1 263 1953)">Design Variations</text>
<text style="stroke:none;fill:black;font-family:sans-serif;font-size:13;" transform="matrix(1 0 0 1 263 1971)">Symbols are supported in up to nine weights and three scales.</text>
<text style="stroke:none;fill:black;font-family:sans-serif;font-size:13;" transform="matrix(1 0 0 1 263 1989)">For optimal layout with text and other symbols, vertically align</text>
<text style="stroke:none;fill:black;font-family:sans-serif;font-size:13;" transform="matrix(1 0 0 1 263 2007)">symbols with the adjacent text.</text>
<line style="fill:none;stroke:#00AEEF;stroke-width:0.5;opacity:1.0;" x1="776" x2="776" y1="1919" y2="1933"/>
<text style="stroke:none;fill:black;font-family:sans-serif;font-size:13;font-weight:bold;" transform="matrix(1 0 0 1 776 1953)">Margins</text>
<text style="stroke:none;fill:black;font-family:sans-serif;font-size:13;" transform="matrix(1 0 0 1 776 1971)">Leading and trailing margins on the left and right side of each symbol</text>
<text style="stroke:none;fill:black;font-family:sans-serif;font-size:13;" transform="matrix(1 0 0 1 776 1989)">can be adjusted by modifying the x-location of the margin guidelines.</text>
<text style="stroke:none;fill:black;font-family:sans-serif;font-size:13;" transform="matrix(1 0 0 1 776 2007)">Modifications are automatically applied proportionally to all</text>
<text style="stroke:none;fill:black;font-family:sans-serif;font-size:13;" transform="matrix(1 0 0 1 776 2025)">scales and weights.</text>
<text style="stroke:none;fill:black;font-family:sans-serif;font-size:13;font-weight:bold;" transform="matrix(1 0 0 1 1289 1953)">Exporting</text>
<text style="stroke:none;fill:black;font-family:sans-serif;font-size:13;" transform="matrix(1 0 0 1 1289 1971)">Symbols should be outlined when exporting to ensure the</text>
<text style="stroke:none;fill:black;font-family:sans-serif;font-size:13;" transform="matrix(1 0 0 1 1289 1989)">design is preserved when submitting to Xcode.</text>
<text id="template-version" style="stroke:none;fill:black;font-family:sans-serif;font-size:13;text-anchor:end;" transform="matrix(1 0 0 1 3036 1933)">Template v.5.0</text>
<text style="stroke:none;fill:black;font-family:sans-serif;font-size:13;text-anchor:end;" transform="matrix(1 0 0 1 3036 1951)">Requires Xcode 15 or greater</text>
<text id="descriptive-name" style="stroke:none;fill:black;font-family:sans-serif;font-size:13;text-anchor:end;" transform="matrix(1 0 0 1 3036 1969)">Generated from weight.lb</text>
<text style="stroke:none;fill:black;font-family:sans-serif;font-size:13;text-anchor:end;" transform="matrix(1 0 0 1 3036 1987)">Typeset at 100.0 points</text>
<text style="stroke:none;fill:black;font-family:sans-serif;font-size:13;" transform="matrix(1 0 0 1 263 726)">Small</text>
<text style="stroke:none;fill:black;font-family:sans-serif;font-size:13;" transform="matrix(1 0 0 1 263 1156)">Medium</text>
<text style="stroke:none;fill:black;font-family:sans-serif;font-size:13;" transform="matrix(1 0 0 1 263 1586)">Large</text>
</g>
<g id="Guides">
<g id="H-reference" style="fill:#27AAE1;stroke:none;" transform="matrix(1 0 0 1 339 696)">
 <path d="M0.993654 0L3.63775 0L29.3281-67.1323L30.0303-67.1323L30.0303-70.459L28.1226-70.459ZM11.6885-24.4799L46.9815-24.4799L46.2315-26.7285L12.4385-26.7285ZM55.1196 0L57.7637 0L30.6382-70.459L29.4326-70.459L29.4326-67.1323Z"/>
</g>
<line id="Baseline-S" style="fill:none;stroke:#27AAE1;opacity:1;stroke-width:0.5;" x1="263" x2="3036" y1="696" y2="696"/>
<line id="Capline-S" style="fill:none;stroke:#27AAE1;opacity:1;stroke-width:0.5;" x1="263" x2="3036" y1="625.541" y2="625.541"/>
<g id="H-reference" style="fill:#27AAE1;stroke:none;" transform="matrix(1 0 0 1 339 1126)">
 <path d="M0.993654 0L3.63775 0L29.3281-67.1323L30.0303-67.1323L30.0303-70.459L28.1226-70.459ZM11.6885-24.4799L46.9815-24.4799L46.2315-26.7285L12.4385-26.7285ZM55.1196 0L57.7637 0L30.6382-70.459L29.4326-70.459L29.4326-67.1323Z"/>
</g>
<line id="Baseline-M" style="fill:none;stroke:#27AAE1;opacity:1;stroke-width:0.5;" x1="263" x2="3036" y1="1126" y2="1126"/>
<line id="Capline-M" style="fill:none;stroke:#27AAE1;opacity:1;stroke-width:0.5;" x1="263" x2="3036" y1="1055.54" y2="1055.54"/>
<g id="H-reference" style="fill:#27AAE1;stroke:none;" transform="matrix(1 0 0 1 339 1556)">
 <path d="M0.993654 0L3.63775 0L29.3281-67.1323L30.0303-67.1323L30.0303-70.459L28.1226-70.459ZM11.6885-24.4799L46.9815-24.4799L46.2315-26.7285L12.4385-26.7285ZM55.1196 0L57.7637 0L30.6382-70.459L29.4326-70.459L29.4326-67.1323Z"/>
</g>
<line id="Baseline-L" style="fill:none;stroke:#27AAE1;opacity:1;stroke-width:0.5;" x1="263" x2="3036" y1="1556" y2="1556"/>
<line id="Capline-L" style="fill:none;stroke:#27AAE1;opacity:1;stroke-width:0.5;" x1="263" x2="3036" y1="1485.54" y2="1485.54"/>
<line id="left-margin-Ultralight-S" style="fill:none;stroke:#00AEEF;stroke-width:0.5;opacity:1.0;" x1="513.711" x2="513.711" y1="600.785" y2="720.121"/>
<line id="right-margin-Ultralight-S" style="fill:none;stroke:#00AEEF;stroke-width:0.5;opacity:1.0;" x1="605.711" x2="605.711" y1="600.785" y2="720.121"/>
<line id="left-margin-Regular-S" style="fill:none;stroke:#00AEEF;stroke-width:0.5;opacity:1.0;" x1="1403.84" x2="1403.84" y1="600.785" y2="720.121"/>
<line id="right-margin-Regular-S" style="fill:none;stroke:#00AEEF;stroke-width:0.5;opacity:1.0;" x1="1495.84" x2="1495.84" y1="600.785" y2="720.121"/>
<line id="left-margin-Black-S" style="fill:none;stroke:#00AEEF;stroke-width:0.5;opacity:1.0;" x1="2887.4" x2="2887.4" y1="600.785" y2="720.121"/>
<line id="right-margin-Black-S" style="fill:none;stroke:#00AEEF;stroke-width:0.5;opacity:1.0;" x1="2979.4" x2="2979.4" y1="600.785" y2="720.121"/>
</g>
<g id="Symbols">
<g id="Ultralight-S" transform="matrix(1 0 0 1 513.711 614.7705)">
<svg width="92" height="92" viewBox="0 0 92 92" fill="none" xmlns="http://www.w3.org/2000/svg">
<g id="weight.lb">
<path id="Union" d="M46.0435 18.5977C50.0929 18.5977 53.4893 21.9939 53.4893 26.076C53.4893 29.3075 51.3264 32.1022 48.3948 33.0994V35.5791H57.8326C61.784 35.5791 64.6904 37.8651 65.6375 41.7186L71.2218 64.5783C72.5934 70.0972 70.2095 73.3629 64.8865 73.3629H27.2006C21.8775 73.3629 19.4936 70.0972 20.8652 64.5783L26.4495 41.7186C27.3965 37.8651 30.2704 35.5791 34.2545 35.5791H43.6922V33.1007C40.7505 32.1045 38.5651 29.3088 38.5651 26.076C38.5651 21.9939 41.9941 18.5977 46.0435 18.5977ZM38.7241 45.549C37.8274 45.549 37.1887 46.1263 37.1887 47.1581V62.1561C37.1887 63.1879 37.8274 63.7652 38.7241 63.7652C39.6208 63.7652 40.2472 63.1879 40.2472 62.1561V47.1581C40.2472 46.1264 39.6208 45.549 38.7241 45.549ZM44.4727 45.549C43.576 45.549 42.9373 46.1263 42.9373 47.1581V62.2298C42.9373 63.2247 43.5392 63.7652 44.4236 63.7652C45.308 63.7652 45.9344 63.2124 45.9344 62.2298V61.2962H45.9958C46.7697 62.8071 48.2314 63.7283 50.1353 63.7283C53.4395 63.7283 55.5154 61.1734 55.5154 57.0094C55.5154 52.8453 53.4272 50.2781 50.1476 50.2781C48.2928 50.2781 46.8188 51.2116 46.0695 52.7348H45.9958V47.1581C45.9958 46.1264 45.3694 45.549 44.4727 45.549ZM49.2018 52.7962C51.1548 52.7962 52.3832 54.4299 52.3832 57.0094C52.3832 59.6011 51.1548 61.2225 49.2018 61.2225C47.3102 61.2225 45.9836 59.5643 45.9836 57.0094C45.9836 54.479 47.3102 52.7962 49.2018 52.7962ZM46.0435 22.6471C44.1821 22.6471 42.6472 24.2146 42.6472 26.076C42.6472 27.9048 44.1821 29.4396 46.0435 29.4396C47.9049 29.4396 49.4398 27.9048 49.4398 26.076C49.4398 24.2146 47.9049 22.6471 46.0435 22.6471Z" fill="black"/>
</g>
</svg>

</g>
<g id="Regular-S" transform="matrix(1 0 0 1 1403.84 614.7705)">
<svg width="92" height="92" viewBox="0 0 92 92" fill="none" xmlns="http://www.w3.org/2000/svg">
<g id="weight.lb">
<path id="Union" d="M46.0435 18.5977C50.0929 18.5977 53.4893 21.9939 53.4893 26.076C53.4893 29.3075 51.3264 32.1022 48.3948 33.0994V35.5791H57.8326C61.784 35.5791 64.6904 37.8651 65.6375 41.7186L71.2218 64.5783C72.5934 70.0972 70.2095 73.3629 64.8865 73.3629H27.2006C21.8775 73.3629 19.4936 70.0972 20.8652 64.5783L26.4495 41.7186C27.3965 37.8651 30.2704 35.5791 34.2545 35.5791H43.6922V33.1007C40.7505 32.1045 38.5651 29.3088 38.5651 26.076C38.5651 21.9939 41.9941 18.5977 46.0435 18.5977ZM38.7241 45.549C37.8274 45.549 37.1887 46.1263 37.1887 47.1581V62.1561C37.1887 63.1879 37.8274 63.7652 38.7241 63.7652C39.6208 63.7652 40.2472 63.1879 40.2472 62.1561V47.1581C40.2472 46.1264 39.6208 45.549 38.7241 45.549ZM44.4727 45.549C43.576 45.549 42.9373 46.1263 42.9373 47.1581V62.2298C42.9373 63.2247 43.5392 63.7652 44.4236 63.7652C45.308 63.7652 45.9344 63.2124 45.9344 62.2298V61.2962H45.9958C46.7697 62.8071 48.2314 63.7283 50.1353 63.7283C53.4395 63.7283 55.5154 61.1734 55.5154 57.0094C55.5154 52.8453 53.4272 50.2781 50.1476 50.2781C48.2928 50.2781 46.8188 51.2116 46.0695 52.7348H45.9958V47.1581C45.9958 46.1264 45.3694 45.549 44.4727 45.549ZM49.2018 52.7962C51.1548 52.7962 52.3832 54.4299 52.3832 57.0094C52.3832 59.6011 51.1548 61.2225 49.2018 61.2225C47.3102 61.2225 45.9836 59.5643 45.9836 57.0094C45.9836 54.479 47.3102 52.7962 49.2018 52.7962ZM46.0435 22.6471C44.1821 22.6471 42.6472 24.2146 42.6472 26.076C42.6472 27.9048 44.1821 29.4396 46.0435 29.4396C47.9049 29.4396 49.4398 27.9048 49.4398 26.076C49.4398 24.2146 47.9049 22.6471 46.0435 22.6471Z" fill="black"/>
</g>
</svg>

</g>
<g id="Black-S" transform="matrix(1 0 0 1 2887.4 614.7705)">
<svg width="92" height="92" viewBox="0 0 92 92" fill="none" xmlns="http://www.w3.org/2000/svg">
<g id="weight.lb">
<path id="Union" d="M46.0435 18.5977C50.0929 18.5977 53.4893 21.9939 53.4893 26.076C53.4893 29.3075 51.3264 32.1022 48.3948 33.0994V35.5791H57.8326C61.784 35.5791 64.6904 37.8651 65.6375 41.7186L71.2218 64.5783C72.5934 70.0972 70.2095 73.3629 64.8865 73.3629H27.2006C21.8775 73.3629 19.4936 70.0972 20.8652 64.5783L26.4495 41.7186C27.3965 37.8651 30.2704 35.5791 34.2545 35.5791H43.6922V33.1007C40.7505 32.1045 38.5651 29.3088 38.5651 26.076C38.5651 21.9939 41.9941 18.5977 46.0435 18.5977ZM38.7241 45.549C37.8274 45.549 37.1887 46.1263 37.1887 47.1581V62.1561C37.1887 63.1879 37.8274 63.7652 38.7241 63.7652C39.6208 63.7652 40.2472 63.1879 40.2472 62.1561V47.1581C40.2472 46.1264 39.6208 45.549 38.7241 45.549ZM44.4727 45.549C43.576 45.549 42.9373 46.1263 42.9373 47.1581V62.2298C42.9373 63.2247 43.5392 63.7652 44.4236 63.7652C45.308 63.7652 45.9344 63.2124 45.9344 62.2298V61.2962H45.9958C46.7697 62.8071 48.2314 63.7283 50.1353 63.7283C53.4395 63.7283 55.5154 61.1734 55.5154 57.0094C55.5154 52.8453 53.4272 50.2781 50.1476 50.2781C48.2928 50.2781 46.8188 51.2116 46.0695 52.7348H45.9958V47.1581C45.9958 46.1264 45.3694 45.549 44.4727 45.549ZM49.2018 52.7962C51.1548 52.7962 52.3832 54.4299 52.3832 57.0094C52.3832 59.6011 51.1548 61.2225 49.2018 61.2225C47.3102 61.2225 45.9836 59.5643 45.9836 57.0094C45.9836 54.479 47.3102 52.7962 49.2018 52.7962ZM46.0435 22.6471C44.1821 22.6471 42.6472 24.2146 42.6472 26.076C42.6472 27.9048 44.1821 29.4396 46.0435 29.4396C47.9049 29.4396 49.4398 27.9048 49.4398 26.076C49.4398 24.2146 47.9049 22.6471 46.0435 22.6471Z" fill="black"/>
</g>
</svg>

</g>
</g>
</svg>