<?xml version="1.0" encoding="UTF-8"?>
<!DOCTYPE svg
PUBLIC "-//W3C//DTD SVG 1.1//EN"
     "http://www.w3.org/Graphics/SVG/1.1/DTD/svg11.dtd">
     <!--Created with SF Symbol Generator (v1.0.0)-->

<svg version="1.1" xmlns="http://www.w3.org/2000/svg" xmlns:xlink="http://www.w3.org/1999/xlink" width="3300" height="2200">
<!--glyph: "count.circle.fill.medium", point size: 100.0-->
<style>.SFSymbolsPreviewWireframe {fill:none;opacity:1.0;stroke:black;stroke-width:0.5}
</style>
<g id="Notes">
<rect height="2200" id="artboard" style="fill:white;opacity:1" width="3300" x="0" y="0"/>
<line style="fill:none;stroke:black;opacity:1;stroke-width:0.5;" x1="263" x2="3036" y1="292" y2="292"/>
<text style="stroke:none;fill:black;font-family:sans-serif;font-size:13;font-weight:bold;" transform="matrix(1 0 0 1 263 322)">Weight/Scale Variations</text>
<text style="stroke:none;fill:black;font-family:sans-serif;font-size:13;text-anchor:middle;" transform="matrix(1 0 0 1 559.711 322)">Ultralight</text>
<text style="stroke:none;fill:black;font-family:sans-serif;font-size:13;text-anchor:middle;" transform="matrix(1 0 0 1 856.422 322)">Thin</text>
<text style="stroke:none;fill:black;font-family:sans-serif;font-size:13;text-anchor:middle;" transform="matrix(1 0 0 1 1153.13 322)">Light</text>
<text style="stroke:none;fill:black;font-family:sans-serif;font-size:13;text-anchor:middle;" transform="matrix(1 0 0 1 1449.84 322)">Regular</text>
<text style="stroke:none;fill:black;font-family:sans-serif;font-size:13;text-anchor:middle;" transform="matrix(1 0 0 1 1746.56 322)">Medium</text>
<text style="stroke:none;fill:black;font-family:sans-serif;font-size:13;text-anchor:middle;" transform="matrix(1 0 0 1 2043.27 322)">Semibold</text>
<text style="stroke:none;fill:black;font-family:sans-serif;font-size:13;text-anchor:middle;" transform="matrix(1 0 0 1 2339.98 322)">Bold</text>
<text style="stroke:none;fill:black;font-family:sans-serif;font-size:13;text-anchor:middle;" transform="matrix(1 0 0 1 2636.69 322)">Heavy</text>
<text style="stroke:none;fill:black;font-family:sans-serif;font-size:13;text-anchor:middle;" transform="matrix(1 0 0 1 2933.4 322)">Black</text>
<line style="fill:none;stroke:black;opacity:1;stroke-width:0.5;" x1="263" x2="3036" y1="1903" y2="1903"/>
<text style="stroke:none;fill:black;font-family:sans-serif;font-size:13;font-weight:bold;" transform="matrix(1 0 0 1 263 1953)">Design Variations</text>
<text style="stroke:none;fill:black;font-family:sans-serif;font-size:13;" transform="matrix(1 0 0 1 263 1971)">Symbols are supported in up to nine weights and three scales.</text>
<text style="stroke:none;fill:black;font-family:sans-serif;font-size:13;" transform="matrix(1 0 0 1 263 1989)">For optimal layout with text and other symbols, vertically align</text>
<text style="stroke:none;fill:black;font-family:sans-serif;font-size:13;" transform="matrix(1 0 0 1 263 2007)">symbols with the adjacent text.</text>
<line style="fill:none;stroke:#00AEEF;stroke-width:0.5;opacity:1.0;" x1="776" x2="776" y1="1919" y2="1933"/>
<text style="stroke:none;fill:black;font-family:sans-serif;font-size:13;font-weight:bold;" transform="matrix(1 0 0 1 776 1953)">Margins</text>
<text style="stroke:none;fill:black;font-family:sans-serif;font-size:13;" transform="matrix(1 0 0 1 776 1971)">Leading and trailing margins on the left and right side of each symbol</text>
<text style="stroke:none;fill:black;font-family:sans-serif;font-size:13;" transform="matrix(1 0 0 1 776 1989)">can be adjusted by modifying the x-location of the margin guidelines.</text>
<text style="stroke:none;fill:black;font-family:sans-serif;font-size:13;" transform="matrix(1 0 0 1 776 2007)">Modifications are automatically applied proportionally to all</text>
<text style="stroke:none;fill:black;font-family:sans-serif;font-size:13;" transform="matrix(1 0 0 1 776 2025)">scales and weights.</text>
<text style="stroke:none;fill:black;font-family:sans-serif;font-size:13;font-weight:bold;" transform="matrix(1 0 0 1 1289 1953)">Exporting</text>
<text style="stroke:none;fill:black;font-family:sans-serif;font-size:13;" transform="matrix(1 0 0 1 1289 1971)">Symbols should be outlined when exporting to ensure the</text>
<text style="stroke:none;fill:black;font-family:sans-serif;font-size:13;" transform="matrix(1 0 0 1 1289 1989)">design is preserved when submitting to Xcode.</text>
<text id="template-version" style="stroke:none;fill:black;font-family:sans-serif;font-size:13;text-anchor:end;" transform="matrix(1 0 0 1 3036 1933)">Template v.5.0</text>
<text style="stroke:none;fill:black;font-family:sans-serif;font-size:13;text-anchor:end;" transform="matrix(1 0 0 1 3036 1951)">Requires Xcode 15 or greater</text>
<text id="descriptive-name" style="stroke:none;fill:black;font-family:sans-serif;font-size:13;text-anchor:end;" transform="matrix(1 0 0 1 3036 1969)">Generated from count.circle.fill</text>
<text style="stroke:none;fill:black;font-family:sans-serif;font-size:13;text-anchor:end;" transform="matrix(1 0 0 1 3036 1987)">Typeset at 100.0 points</text>
<text style="stroke:none;fill:black;font-family:sans-serif;font-size:13;" transform="matrix(1 0 0 1 263 726)">Small</text>
<text style="stroke:none;fill:black;font-family:sans-serif;font-size:13;" transform="matrix(1 0 0 1 263 1156)">Medium</text>
<text style="stroke:none;fill:black;font-family:sans-serif;font-size:13;" transform="matrix(1 0 0 1 263 1586)">Large</text>
</g>
<g id="Guides">
<g id="H-reference" style="fill:#27AAE1;stroke:none;" transform="matrix(1 0 0 1 339 696)">
 <path d="M0.993654 0L3.63775 0L29.3281-67.1323L30.0303-67.1323L30.0303-70.459L28.1226-70.459ZM11.6885-24.4799L46.9815-24.4799L46.2315-26.7285L12.4385-26.7285ZM55.1196 0L57.7637 0L30.6382-70.459L29.4326-70.459L29.4326-67.1323Z"/>
</g>
<line id="Baseline-S" style="fill:none;stroke:#27AAE1;opacity:1;stroke-width:0.5;" x1="263" x2="3036" y1="696" y2="696"/>
<line id="Capline-S" style="fill:none;stroke:#27AAE1;opacity:1;stroke-width:0.5;" x1="263" x2="3036" y1="625.541" y2="625.541"/>
<g id="H-reference" style="fill:#27AAE1;stroke:none;" transform="matrix(1 0 0 1 339 1126)">
 <path d="M0.993654 0L3.63775 0L29.3281-67.1323L30.0303-67.1323L30.0303-70.459L28.1226-70.459ZM11.6885-24.4799L46.9815-24.4799L46.2315-26.7285L12.4385-26.7285ZM55.1196 0L57.7637 0L30.6382-70.459L29.4326-70.459L29.4326-67.1323Z"/>
</g>
<line id="Baseline-M" style="fill:none;stroke:#27AAE1;opacity:1;stroke-width:0.5;" x1="263" x2="3036" y1="1126" y2="1126"/>
<line id="Capline-M" style="fill:none;stroke:#27AAE1;opacity:1;stroke-width:0.5;" x1="263" x2="3036" y1="1055.54" y2="1055.54"/>
<g id="H-reference" style="fill:#27AAE1;stroke:none;" transform="matrix(1 0 0 1 339 1556)">
 <path d="M0.993654 0L3.63775 0L29.3281-67.1323L30.0303-67.1323L30.0303-70.459L28.1226-70.459ZM11.6885-24.4799L46.9815-24.4799L46.2315-26.7285L12.4385-26.7285ZM55.1196 0L57.7637 0L30.6382-70.459L29.4326-70.459L29.4326-67.1323Z"/>
</g>
<line id="Baseline-L" style="fill:none;stroke:#27AAE1;opacity:1;stroke-width:0.5;" x1="263" x2="3036" y1="1556" y2="1556"/>
<line id="Capline-L" style="fill:none;stroke:#27AAE1;opacity:1;stroke-width:0.5;" x1="263" x2="3036" y1="1485.54" y2="1485.54"/>
<line id="left-margin-Ultralight-S" style="fill:none;stroke:#00AEEF;stroke-width:0.5;opacity:1.0;" x1="513.711" x2="513.711" y1="600.785" y2="720.121"/>
<line id="right-margin-Ultralight-S" style="fill:none;stroke:#00AEEF;stroke-width:0.5;opacity:1.0;" x1="605.711" x2="605.711" y1="600.785" y2="720.121"/>
<line id="left-margin-Regular-S" style="fill:none;stroke:#00AEEF;stroke-width:0.5;opacity:1.0;" x1="1403.84" x2="1403.84" y1="600.785" y2="720.121"/>
<line id="right-margin-Regular-S" style="fill:none;stroke:#00AEEF;stroke-width:0.5;opacity:1.0;" x1="1495.84" x2="1495.84" y1="600.785" y2="720.121"/>
<line id="left-margin-Black-S" style="fill:none;stroke:#00AEEF;stroke-width:0.5;opacity:1.0;" x1="2887.4" x2="2887.4" y1="600.785" y2="720.121"/>
<line id="right-margin-Black-S" style="fill:none;stroke:#00AEEF;stroke-width:0.5;opacity:1.0;" x1="2979.4" x2="2979.4" y1="600.785" y2="720.121"/>
</g>
<g id="Symbols">
<g id="Ultralight-S" transform="matrix(1 0 0 1 513.711 614.7705)">
<svg width="92" height="92" viewBox="0 0 92 92" fill="none" xmlns="http://www.w3.org/2000/svg">
<g id="count.circle.fill" clip-path="url(#clip0_28_217)">
<g id="Union">
<path d="M51.5582 40.9179L49.47 51.0209H40.0426L42.1 40.9179H51.5582Z" fill="black"/>
<path fill-rule="evenodd" clip-rule="evenodd" d="M46 0C71.4051 0 92 20.5949 92 46C92 71.4051 71.4051 92 46 92C20.5949 92 0 71.4051 0 46C0 20.5949 20.5949 0 46 0ZM57.4235 23.4448C55.6731 23.4448 54.629 24.3968 54.2605 26.27L52.3566 35.5132H43.5126L45.2016 27.0377C45.263 26.7306 45.3244 26.3007 45.3244 25.9936C45.3244 24.3968 44.2803 23.4448 42.6221 23.4448C40.8717 23.4448 39.8276 24.3968 39.4591 26.2393L37.5245 35.5132H32.3962C30.4002 35.5132 29.0797 36.8029 29.0797 38.7376C29.0797 40.2423 30.1238 41.3171 31.7513 41.3171H36.3883L34.5151 50.6524H29.6018C27.575 50.6524 26.2853 51.9421 26.2853 53.8768C26.2853 55.3815 27.3293 56.4563 28.9569 56.4563H33.3175L31.5364 65.3924C31.4443 65.6995 31.4136 66.1294 31.4136 66.4365C31.4136 68.0333 32.4576 68.9853 34.1159 68.9853C35.8663 68.9853 36.9103 68.0947 37.2788 66.2215L39.2442 56.4563H48.1496L46.3378 65.3924C46.2457 65.6995 46.215 66.1294 46.215 66.4365C46.215 68.0333 47.259 68.9853 48.9173 68.9853C50.6677 68.9853 51.7117 68.0333 52.0802 66.1601L54.0763 56.4563H59.3581C61.3542 56.4563 62.6439 55.1358 62.6439 53.2012C62.6439 51.6658 61.6305 50.6217 60.003 50.6217H55.2125L57.1164 41.2864H62.214C64.21 41.2864 65.4998 39.9966 65.4998 38.062C65.4998 36.5266 64.4864 35.5132 62.8589 35.5132H58.2833L60.003 27.0377C60.0951 26.7306 60.1258 26.3007 60.1258 25.9936C60.1258 24.3968 59.0817 23.4448 57.4235 23.4448Z" fill="black"/>
</g>
</g>
<defs>
<clipPath id="clip0_28_217">
<rect width="92" height="92" fill="white"/>
</clipPath>
</defs>
</svg>

</g>
<g id="Regular-S" transform="matrix(1 0 0 1 1403.84 614.7705)">
<svg width="92" height="92" viewBox="0 0 92 92" fill="none" xmlns="http://www.w3.org/2000/svg">
<g id="count.circle.fill" clip-path="url(#clip0_28_217)">
<g id="Union">
<path d="M51.5582 40.9179L49.47 51.0209H40.0426L42.1 40.9179H51.5582Z" fill="black"/>
<path fill-rule="evenodd" clip-rule="evenodd" d="M46 0C71.4051 0 92 20.5949 92 46C92 71.4051 71.4051 92 46 92C20.5949 92 0 71.4051 0 46C0 20.5949 20.5949 0 46 0ZM57.4235 23.4448C55.6731 23.4448 54.629 24.3968 54.2605 26.27L52.3566 35.5132H43.5126L45.2016 27.0377C45.263 26.7306 45.3244 26.3007 45.3244 25.9936C45.3244 24.3968 44.2803 23.4448 42.6221 23.4448C40.8717 23.4448 39.8276 24.3968 39.4591 26.2393L37.5245 35.5132H32.3962C30.4002 35.5132 29.0797 36.8029 29.0797 38.7376C29.0797 40.2423 30.1238 41.3171 31.7513 41.3171H36.3883L34.5151 50.6524H29.6018C27.575 50.6524 26.2853 51.9421 26.2853 53.8768C26.2853 55.3815 27.3293 56.4563 28.9569 56.4563H33.3175L31.5364 65.3924C31.4443 65.6995 31.4136 66.1294 31.4136 66.4365C31.4136 68.0333 32.4576 68.9853 34.1159 68.9853C35.8663 68.9853 36.9103 68.0947 37.2788 66.2215L39.2442 56.4563H48.1496L46.3378 65.3924C46.2457 65.6995 46.215 66.1294 46.215 66.4365C46.215 68.0333 47.259 68.9853 48.9173 68.9853C50.6677 68.9853 51.7117 68.0333 52.0802 66.1601L54.0763 56.4563H59.3581C61.3542 56.4563 62.6439 55.1358 62.6439 53.2012C62.6439 51.6658 61.6305 50.6217 60.003 50.6217H55.2125L57.1164 41.2864H62.214C64.21 41.2864 65.4998 39.9966 65.4998 38.062C65.4998 36.5266 64.4864 35.5132 62.8589 35.5132H58.2833L60.003 27.0377C60.0951 26.7306 60.1258 26.3007 60.1258 25.9936C60.1258 24.3968 59.0817 23.4448 57.4235 23.4448Z" fill="black"/>
</g>
</g>
<defs>
<clipPath id="clip0_28_217">
<rect width="92" height="92" fill="white"/>
</clipPath>
</defs>
</svg>

</g>
<g id="Black-S" transform="matrix(1 0 0 1 2887.4 614.7705)">
<svg width="92" height="92" viewBox="0 0 92 92" fill="none" xmlns="http://www.w3.org/2000/svg">
<g id="count.circle.fill" clip-path="url(#clip0_28_217)">
<g id="Union">
<path d="M51.5582 40.9179L49.47 51.0209H40.0426L42.1 40.9179H51.5582Z" fill="black"/>
<path fill-rule="evenodd" clip-rule="evenodd" d="M46 0C71.4051 0 92 20.5949 92 46C92 71.4051 71.4051 92 46 92C20.5949 92 0 71.4051 0 46C0 20.5949 20.5949 0 46 0ZM57.4235 23.4448C55.6731 23.4448 54.629 24.3968 54.2605 26.27L52.3566 35.5132H43.5126L45.2016 27.0377C45.263 26.7306 45.3244 26.3007 45.3244 25.9936C45.3244 24.3968 44.2803 23.4448 42.6221 23.4448C40.8717 23.4448 39.8276 24.3968 39.4591 26.2393L37.5245 35.5132H32.3962C30.4002 35.5132 29.0797 36.8029 29.0797 38.7376C29.0797 40.2423 30.1238 41.3171 31.7513 41.3171H36.3883L34.5151 50.6524H29.6018C27.575 50.6524 26.2853 51.9421 26.2853 53.8768C26.2853 55.3815 27.3293 56.4563 28.9569 56.4563H33.3175L31.5364 65.3924C31.4443 65.6995 31.4136 66.1294 31.4136 66.4365C31.4136 68.0333 32.4576 68.9853 34.1159 68.9853C35.8663 68.9853 36.9103 68.0947 37.2788 66.2215L39.2442 56.4563H48.1496L46.3378 65.3924C46.2457 65.6995 46.215 66.1294 46.215 66.4365C46.215 68.0333 47.259 68.9853 48.9173 68.9853C50.6677 68.9853 51.7117 68.0333 52.0802 66.1601L54.0763 56.4563H59.3581C61.3542 56.4563 62.6439 55.1358 62.6439 53.2012C62.6439 51.6658 61.6305 50.6217 60.003 50.6217H55.2125L57.1164 41.2864H62.214C64.21 41.2864 65.4998 39.9966 65.4998 38.062C65.4998 36.5266 64.4864 35.5132 62.8589 35.5132H58.2833L60.003 27.0377C60.0951 26.7306 60.1258 26.3007 60.1258 25.9936C60.1258 24.3968 59.0817 23.4448 57.4235 23.4448Z" fill="black"/>
</g>
</g>
<defs>
<clipPath id="clip0_28_217">
<rect width="92" height="92" fill="white"/>
</clipPath>
</defs>
</svg>

</g>
</g>
</svg>