<?xml version="1.0" encoding="UTF-8"?>
<!--Generator: Apple Native CoreSVG 341-->
<!DOCTYPE svg
PUBLIC "-//W3C//DTD SVG 1.1//EN"
       "http://www.w3.org/Graphics/SVG/1.1/DTD/svg11.dtd">
<svg version="1.1" xmlns="http://www.w3.org/2000/svg" xmlns:xlink="http://www.w3.org/1999/xlink" viewBox="0 0 3300 2200">
 <!--glyph: "", point size: 100.0, font version: "21.0d6e2", template writer version: "138.0.0"-->
 <style>.defaults {-sfsymbols-variable-value-mode:color;-sfsymbols-draw-reverses-motion-groups:true}

.monochrome-0 {-sfsymbols-motion-group:0;-sfsymbols-layer-tags:6b38803f45f77700}

.multicolor-0:tintColor {-sfsymbols-motion-group:0;-sfsymbols-layer-tags:6b38803f45f77700}

.hierarchical-0:primary {-sfsymbols-motion-group:0;-sfsymbols-layer-tags:6b38803f45f77700}

.SFSymbolsPreviewWireframe {fill:none;opacity:1.0;stroke:black;stroke-width:0.5}
</style>
 <g id="Notes">
  <rect height="2200" id="artboard" style="fill:white;opacity:1" width="3300" x="0" y="0"/>
  <line style="fill:none;stroke:black;opacity:1;stroke-width:0.5;" x1="263" x2="3036" y1="292" y2="292"/>
  <text style="stroke:none;fill:black;font-family:sans-serif;font-size:13;font-weight:bold;" transform="matrix(1 0 0 1 263 322)">Weight/Scale Variations</text>
  <text style="stroke:none;fill:black;font-family:sans-serif;font-size:13;text-anchor:middle;" transform="matrix(1 0 0 1 559.711 322)">Ultralight</text>
  <text style="stroke:none;fill:black;font-family:sans-serif;font-size:13;text-anchor:middle;" transform="matrix(1 0 0 1 856.422 322)">Thin</text>
  <text style="stroke:none;fill:black;font-family:sans-serif;font-size:13;text-anchor:middle;" transform="matrix(1 0 0 1 1153.13 322)">Light</text>
  <text style="stroke:none;fill:black;font-family:sans-serif;font-size:13;text-anchor:middle;" transform="matrix(1 0 0 1 1449.84 322)">Regular</text>
  <text style="stroke:none;fill:black;font-family:sans-serif;font-size:13;text-anchor:middle;" transform="matrix(1 0 0 1 1746.56 322)">Medium</text>
  <text style="stroke:none;fill:black;font-family:sans-serif;font-size:13;text-anchor:middle;" transform="matrix(1 0 0 1 2043.27 322)">Semibold</text>
  <text style="stroke:none;fill:black;font-family:sans-serif;font-size:13;text-anchor:middle;" transform="matrix(1 0 0 1 2339.98 322)">Bold</text>
  <text style="stroke:none;fill:black;font-family:sans-serif;font-size:13;text-anchor:middle;" transform="matrix(1 0 0 1 2636.69 322)">Heavy</text>
  <text style="stroke:none;fill:black;font-family:sans-serif;font-size:13;text-anchor:middle;" transform="matrix(1 0 0 1 2933.4 322)">Black</text>
  <line style="fill:none;stroke:black;opacity:1;stroke-width:0.5;" x1="263" x2="3036" y1="1903" y2="1903"/>
  <g transform="matrix(0.2 0 0 0.2 263 1933)">
   <path d="m46.2402 4.15039c21.7773 0 39.4531-17.627 39.4531-39.4043s-17.6758-39.4043-39.4531-39.4043c-21.7285 0-39.4043 17.627-39.4043 39.4043s17.6758 39.4043 39.4043 39.4043Zm0-7.42188c-17.6758 0-31.9336-14.3066-31.9336-31.9824s14.2578-31.9824 31.9336-31.9824 31.9824 14.3066 31.9824 31.9824-14.3066 31.9824-31.9824 31.9824Zm3.61328-17.7734v-28.4668c0-2.24609-1.46484-3.75977-3.71094-3.75977-2.14844 0-3.61328 1.51367-3.61328 3.75977v28.4668c0 2.19727 1.46484 3.71094 3.61328 3.71094 2.24609 0 3.71094-1.51367 3.71094-3.71094Zm-17.8223-10.5957h28.418c2.19727 0 3.71094-1.46484 3.71094-3.61328 0-2.19727-1.51367-3.71094-3.71094-3.71094h-28.418c-2.24609 0-3.75977 1.51367-3.75977 3.71094 0 2.14844 1.51367 3.61328 3.75977 3.61328Z"/>
  </g>
  <g transform="matrix(0.2 0 0 0.2 281.506 1933)">
   <path d="m58.5449 14.5508c27.4902 0 49.8047-22.3145 49.8047-49.8047s-22.3145-49.8047-49.8047-49.8047-49.8047 22.3145-49.8047 49.8047 22.3145 49.8047 49.8047 49.8047Zm0-8.30078c-22.9492 0-41.5039-18.5547-41.5039-41.5039s18.5547-41.5039 41.5039-41.5039 41.5039 18.5547 41.5039 41.5039-18.5547 41.5039-41.5039 41.5039Zm4.05273-23.0957v-36.9141c0-2.49023-1.70898-4.19922-4.15039-4.19922-2.39258 0-4.05273 1.70898-4.05273 4.19922v36.9141c0 2.44141 1.66016 4.15039 4.05273 4.15039 2.44141 0 4.15039-1.66016 4.15039-4.15039Zm-22.5586-14.4043h36.9629c2.44141 0 4.15039-1.61133 4.15039-4.00391 0-2.44141-1.70898-4.15039-4.15039-4.15039h-36.9629c-2.49023 0-4.15039 1.70898-4.15039 4.15039 0 2.39258 1.66016 4.00391 4.15039 4.00391Z"/>
  </g>
  <g transform="matrix(0.2 0 0 0.2 304.924 1933)">
   <path d="m74.8535 28.3203c35.1074 0 63.623-28.4668 63.623-63.5742s-28.5156-63.623-63.623-63.623-63.5742 28.5156-63.5742 63.623 28.4668 63.5742 63.5742 63.5742Zm0-9.08203c-30.127 0-54.4922-24.3652-54.4922-54.4922s24.3652-54.4922 54.4922-54.4922 54.4922 24.3652 54.4922 54.4922-24.3652 54.4922-54.4922 54.4922Zm4.44336-30.3223v-48.4863c0-2.73438-1.85547-4.63867-4.54102-4.63867-2.58789 0-4.44336 1.9043-4.44336 4.63867v48.4863c0 2.68555 1.85547 4.58984 4.44336 4.58984 2.68555 0 4.54102-1.85547 4.54102-4.58984Zm-28.7109-19.7754h48.4863c2.68555 0 4.58984-1.80664 4.58984-4.39453 0-2.73438-1.85547-4.58984-4.58984-4.58984h-48.4863c-2.73438 0-4.58984 1.85547-4.58984 4.58984 0 2.58789 1.85547 4.39453 4.58984 4.39453Z"/>
  </g>
  <text style="stroke:none;fill:black;font-family:sans-serif;font-size:13;font-weight:bold;" transform="matrix(1 0 0 1 263 1953)">Design Variations</text>
  <text style="stroke:none;fill:black;font-family:sans-serif;font-size:13;" transform="matrix(1 0 0 1 263 1971)">Symbols are supported in up to nine weights and three scales.</text>
  <text style="stroke:none;fill:black;font-family:sans-serif;font-size:13;" transform="matrix(1 0 0 1 263 1989)">For optimal layout with text and other symbols, vertically align</text>
  <text style="stroke:none;fill:black;font-family:sans-serif;font-size:13;" transform="matrix(1 0 0 1 263 2007)">symbols with the adjacent text.</text>
  <line style="fill:none;stroke:#00AEEF;stroke-width:0.5;opacity:1.0;" x1="776" x2="776" y1="1919" y2="1933"/>
  <g transform="matrix(0.2 0 0 0.2 776 1933)">
   <path d="m16.5527 0.78125c2.58789 0 3.85742-0.976562 4.78516-3.71094l20.5566-57.5195h0.244141l20.6055 57.5195c0.927734 2.73438 2.19727 3.71094 4.73633 3.71094 2.58789 0 4.24805-1.5625 4.24805-4.00391 0-0.830078-0.146484-1.61133-0.537109-2.63672l-22.9004-60.9863c-1.12305-2.97852-3.125-4.49219-6.25-4.49219-3.02734 0-5.07812 1.46484-6.15234 4.44336l-22.9004 61.084c-0.390625 1.02539-0.537109 1.80664-0.537109 2.63672 0 2.44141 1.5625 3.95508 4.10156 3.95508Zm10.2051-20.9473h30.6641c2.00195 0 3.66211-1.66016 3.66211-3.66211 0-2.05078-1.66016-3.66211-3.66211-3.66211h-30.6641c-2.00195 0-3.66211 1.61133-3.66211 3.66211 0 2.00195 1.66016 3.66211 3.66211 3.66211Z"/>
  </g>
  <line style="fill:none;stroke:#00AEEF;stroke-width:0.5;opacity:1.0;" x1="792.836" x2="792.836" y1="1919" y2="1933"/>
  <text style="stroke:none;fill:black;font-family:sans-serif;font-size:13;font-weight:bold;" transform="matrix(1 0 0 1 776 1953)">Margins</text>
  <text style="stroke:none;fill:black;font-family:sans-serif;font-size:13;" transform="matrix(1 0 0 1 776 1971)">Leading and trailing margins on the left and right side of each symbol</text>
  <text style="stroke:none;fill:black;font-family:sans-serif;font-size:13;" transform="matrix(1 0 0 1 776 1989)">can be adjusted by modifying the x-location of the margin guidelines.</text>
  <text style="stroke:none;fill:black;font-family:sans-serif;font-size:13;" transform="matrix(1 0 0 1 776 2007)">Modifications are automatically applied proportionally to all</text>
  <text style="stroke:none;fill:black;font-family:sans-serif;font-size:13;" transform="matrix(1 0 0 1 776 2025)">scales and weights.</text>
  <g transform="matrix(0.2 0 0 0.2 1289 1933)">
   <path d="m14.209 13.1348 7.86133 7.86133c4.29688 4.39453 9.32617 4.10156 13.8672-1.02539l60.6934-68.2129-4.88281-4.88281-60.2539 67.6758c-1.80664 1.95312-3.4668 2.44141-5.81055 0.0976562l-5.17578-5.12695c-2.29492-2.29492-1.80664-3.95508 0.195312-5.81055l67.4805-62.1582-4.88281-4.83398-68.0664 62.5977c-4.98047 4.58984-5.32227 9.47266-1.02539 13.8184Zm44.873-97.4609c-2.05078 2.00195-2.24609 4.88281-1.07422 6.78711 1.12305 1.80664 3.4668 3.02734 6.5918 2.24609 5.85938-1.66016 12.5977-2.39258 18.8965 0.927734l-2.68555 7.12891c-1.61133 4.00391-0.732422 6.88477 1.70898 9.42383l10.2539 10.3027c2.34375 2.39258 4.54102 2.44141 7.08008 1.95312l4.44336-0.732422 2.58789 2.53906-0.195312 2.24609c-0.0976562 2.29492 0.537109 4.29688 2.7832 6.49414l3.36914 3.32031c2.29492 2.29492 5.51758 2.49023 7.8125 0.195312l12.9883-13.0371c2.29492-2.34375 2.14844-5.37109-0.195312-7.66602l-3.41797-3.41797c-2.19727-2.19727-4.05273-3.02734-6.34766-2.88086l-2.34375 0.244141-2.44141-2.44141 1.02539-4.6875c0.634766-2.73438-0.244141-4.98047-2.88086-7.61719l-11.2793-11.1816c-12.9395-12.8418-35.5957-11.0352-46.6797-0.146484Zm7.08008 2.05078c8.78906-6.39648 25.9766-5.66406 33.6914 1.95312l12.3047 12.207c1.02539 1.02539 1.2207 1.80664 0.927734 3.32031l-1.46484 6.64062 6.73828 6.68945 4.39453-0.244141c1.12305-0.0488281 1.51367 0.0488281 2.34375 0.878906l2.53906 2.49023-10.8398 10.8398-2.49023-2.49023c-0.830078-0.878906-0.976562-1.2207-0.927734-2.39258l0.292969-4.3457-6.68945-6.73828-6.83594 1.17188c-1.41602 0.292969-2.05078 0.195312-3.17383-0.878906l-8.93555-8.88672c-1.07422-1.02539-1.17188-1.70898-0.488281-3.36914l4.58984-11.4746c-6.10352-6.34766-17.041-7.51953-25.5859-4.58984-0.683594 0.244141-0.927734-0.390625-0.390625-0.78125Z"/>
  </g>
  <text style="stroke:none;fill:black;font-family:sans-serif;font-size:13;font-weight:bold;" transform="matrix(1 0 0 1 1289 1953)">Exporting</text>
  <text style="stroke:none;fill:black;font-family:sans-serif;font-size:13;" transform="matrix(1 0 0 1 1289 1971)">Symbols should be outlined when exporting to ensure the</text>
  <text style="stroke:none;fill:black;font-family:sans-serif;font-size:13;" transform="matrix(1 0 0 1 1289 1989)">design is preserved when submitting to Xcode.</text>
  <text id="template-version" style="stroke:none;fill:black;font-family:sans-serif;font-size:13;text-anchor:end;" transform="matrix(1 0 0 1 3036 1933)">Template v.7.0</text>
  <text style="stroke:none;fill:black;font-family:sans-serif;font-size:13;text-anchor:end;" transform="matrix(1 0 0 1 3036 1951)">Requires Xcode 17 or greater</text>
  <text id="descriptive-name" style="stroke:none;fill:black;font-family:sans-serif;font-size:13;text-anchor:end;" transform="matrix(1 0 0 1 3036 1969)">Generated from measure.spoon</text>
  <text style="stroke:none;fill:black;font-family:sans-serif;font-size:13;text-anchor:end;" transform="matrix(1 0 0 1 3036 1987)">Typeset at 100.0 points</text>
  <text style="stroke:none;fill:black;font-family:sans-serif;font-size:13;" transform="matrix(1 0 0 1 263 726)">Small</text>
  <text style="stroke:none;fill:black;font-family:sans-serif;font-size:13;" transform="matrix(1 0 0 1 263 1156)">Medium</text>
  <text style="stroke:none;fill:black;font-family:sans-serif;font-size:13;" transform="matrix(1 0 0 1 263 1586)">Large</text>
 </g>
 <g id="Guides">
  <g id="H-reference" style="fill:#27AAE1;stroke:none;" transform="matrix(1 0 0 1 339 696)">
   <path d="M0.993654 0L3.63775 0L29.3281-67.1323L30.0303-67.1323L30.0303-70.459L28.1226-70.459ZM11.6885-24.4799L46.9815-24.4799L46.2315-26.7285L12.4385-26.7285ZM55.1196 0L57.7637 0L30.6382-70.459L29.4326-70.459L29.4326-67.1323Z"/>
  </g>
  <line id="Baseline-S" style="fill:none;stroke:#27AAE1;opacity:1;stroke-width:0.5;" x1="263" x2="3036" y1="696" y2="696"/>
  <line id="Capline-S" style="fill:none;stroke:#27AAE1;opacity:1;stroke-width:0.5;" x1="263" x2="3036" y1="625.541" y2="625.541"/>
  <g id="H-reference" style="fill:#27AAE1;stroke:none;" transform="matrix(1 0 0 1 339 1126)">
   <path d="M0.993654 0L3.63775 0L29.3281-67.1323L30.0303-67.1323L30.0303-70.459L28.1226-70.459ZM11.6885-24.4799L46.9815-24.4799L46.2315-26.7285L12.4385-26.7285ZM55.1196 0L57.7637 0L30.6382-70.459L29.4326-70.459L29.4326-67.1323Z"/>
  </g>
  <line id="Baseline-M" style="fill:none;stroke:#27AAE1;opacity:1;stroke-width:0.5;" x1="263" x2="3036" y1="1126" y2="1126"/>
  <line id="Capline-M" style="fill:none;stroke:#27AAE1;opacity:1;stroke-width:0.5;" x1="263" x2="3036" y1="1055.54" y2="1055.54"/>
  <g id="H-reference" style="fill:#27AAE1;stroke:none;" transform="matrix(1 0 0 1 339 1556)">
   <path d="M0.993654 0L3.63775 0L29.3281-67.1323L30.0303-67.1323L30.0303-70.459L28.1226-70.459ZM11.6885-24.4799L46.9815-24.4799L46.2315-26.7285L12.4385-26.7285ZM55.1196 0L57.7637 0L30.6382-70.459L29.4326-70.459L29.4326-67.1323Z"/>
  </g>
  <line id="Baseline-L" style="fill:none;stroke:#27AAE1;opacity:1;stroke-width:0.5;" x1="263" x2="3036" y1="1556" y2="1556"/>
  <line id="Capline-L" style="fill:none;stroke:#27AAE1;opacity:1;stroke-width:0.5;" x1="263" x2="3036" y1="1485.54" y2="1485.54"/>
  <line id="right-margin-Black-S" style="fill:none;stroke:#00AEEF;stroke-width:0.5;opacity:1.0;" x1="2979.4" x2="2979.4" y1="600.785" y2="720.121"/>
  <line id="left-margin-Black-S" style="fill:none;stroke:#00AEEF;stroke-width:0.5;opacity:1.0;" x1="2887.4" x2="2887.4" y1="600.785" y2="720.121"/>
  <line id="right-margin-Regular-S" style="fill:none;stroke:#00AEEF;stroke-width:0.5;opacity:1.0;" x1="1495.84" x2="1495.84" y1="600.785" y2="720.121"/>
  <line id="left-margin-Regular-S" style="fill:none;stroke:#00AEEF;stroke-width:0.5;opacity:1.0;" x1="1403.84" x2="1403.84" y1="600.785" y2="720.121"/>
  <line id="right-margin-Ultralight-S" style="fill:none;stroke:#00AEEF;stroke-width:0.5;opacity:1.0;" x1="605.711" x2="605.711" y1="600.785" y2="720.121"/>
  <line id="left-margin-Ultralight-S" style="fill:none;stroke:#00AEEF;stroke-width:0.5;opacity:1.0;" x1="513.711" x2="513.711" y1="600.785" y2="720.121"/>
 </g>
 <g id="Symbols">
  <g id="Black-S" transform="matrix(1 0 0 1 2887.4 696)">
   <path class="monochrome-0 multicolor-0:tintColor hierarchical-0:primary SFSymbolsPreviewWireframe" d="M67.2909-56.1412C68.3922-56.6468 69.4507-56.974 70.4752-56.9717C71.5043-56.9693 72.4318-56.6347 73.2721-55.9537L73.3532-55.8867L73.3881-55.8575L73.4199-55.8251C74.1916-55.0388 74.6534-54.1899 74.7941-53.2957C74.9348-52.4019 74.7393-51.56 74.3666-50.8142C73.6418-49.3637 72.1949-48.1666 70.829-47.3124L70.826-47.3104L70.8227-47.3085L47.5182-32.9816C47.0657-32.7034 46.4731-32.8445 46.1947-33.2968C45.9163-33.749 46.0574-34.3411 46.51-34.6193L69.8082-48.9424C71.0723-49.733 72.1578-50.6979 72.6452-51.6733C72.8786-52.1404 72.9593-52.5776 72.8933-52.9969C72.8285-53.4083 72.6075-53.8961 72.0758-54.4473C71.555-54.8746 71.0443-55.0476 70.471-55.0489C69.8465-55.0503 69.0823-54.8475 68.0941-54.3939C66.0853-53.4716 63.5602-51.7201 59.9689-49.4226L59.9683-49.4223L42.3739-38.183C41.9262-37.897 41.3314-38.0277 41.0452-38.4751C40.759-38.9225 40.89-39.5171 41.3376-39.803L58.9319-51.0424C62.4-53.2611 65.1209-55.1449 67.2909-56.1412ZM45.1155-34.6148C44.1668-36.5963 42.03-38.0158 38.9691-38.4753C35.9206-38.9331 32.159-38.3854 28.4602-36.6169C24.7615-34.8485 21.9745-32.2652 20.4184-29.6059C18.856-26.9359 18.6213-24.3825 19.57-22.401C20.5187-20.4195 22.6555-19 25.7164-18.5404C28.7649-18.0827 32.5265-18.6304 36.2253-20.3988L37.0225-18.7337L36.8355-18.6453C28.9147-14.9413 20.4681-16.2483 17.9037-21.6043C15.3191-27.0025 19.6885-34.4694 27.663-38.2821L27.85-38.3705C35.7708-42.0745 44.2175-40.7674 46.7818-35.4115L46.8411-35.2846C49.2979-29.8969 44.9347-22.5166 37.0225-18.7337L36.2253-20.3988C39.924-22.1673 42.711-24.7506 44.2671-27.4099C45.8296-30.0799 46.0642-32.6333 45.1155-34.6148ZM47.5986-33.3738C50.4261-24.818 45.6439-17.8372 38.9832-14.9502C32.3271-12.0651 23.6056-13.1669 18.37-20.7852L19.8843-21.834C24.538-15.0624 32.2605-14.0481 38.2537-16.6458C44.2422-19.2415 48.3143-25.3424 45.8522-32.7924L47.5986-33.3738Z"/>
  </g>
  <g id="Regular-S" transform="matrix(1 0 0 1 1403.84 696)">
   <path class="monochrome-0 multicolor-0:tintColor hierarchical-0:primary SFSymbolsPreviewWireframe" d="M67.2909-56.1412C68.3922-56.6468 69.4507-56.974 70.4752-56.9717C71.5043-56.9693 72.4318-56.6347 73.2721-55.9537L73.3532-55.8867L73.3881-55.8575L73.4199-55.8251C74.1916-55.0388 74.6534-54.1899 74.7941-53.2957C74.9348-52.4019 74.7393-51.56 74.3666-50.8142C73.6418-49.3637 72.1949-48.1666 70.829-47.3124L70.826-47.3104L70.8227-47.3085L47.5182-32.9816C47.0657-32.7034 46.4731-32.8445 46.1947-33.2968C45.9163-33.749 46.0574-34.3411 46.51-34.6193L69.8082-48.9424C71.0723-49.733 72.1578-50.6979 72.6452-51.6733C72.8786-52.1404 72.9593-52.5776 72.8933-52.9969C72.8285-53.4083 72.6075-53.8961 72.0758-54.4473C71.555-54.8746 71.0443-55.0476 70.471-55.0489C69.8465-55.0503 69.0823-54.8475 68.0941-54.3939C66.0853-53.4716 63.5602-51.7201 59.9689-49.4226L59.9683-49.4223L42.3739-38.183C41.9262-37.897 41.3314-38.0277 41.0452-38.4751C40.759-38.9225 40.89-39.5171 41.3376-39.803L58.9319-51.0424C62.4-53.2611 65.1209-55.1449 67.2909-56.1412ZM45.1155-34.6148C44.1668-36.5963 42.03-38.0158 38.9691-38.4753C35.9206-38.9331 32.159-38.3854 28.4602-36.6169C24.7615-34.8485 21.9745-32.2652 20.4184-29.6059C18.856-26.9359 18.6213-24.3825 19.57-22.401C20.5187-20.4195 22.6555-19 25.7164-18.5404C28.7649-18.0827 32.5265-18.6304 36.2253-20.3988L37.0225-18.7337L36.8355-18.6453C28.9147-14.9413 20.4681-16.2483 17.9037-21.6043C15.3191-27.0025 19.6885-34.4694 27.663-38.2821L27.85-38.3705C35.7708-42.0745 44.2175-40.7674 46.7818-35.4115L46.8411-35.2846C49.2979-29.8969 44.9347-22.5166 37.0225-18.7337L36.2253-20.3988C39.924-22.1673 42.711-24.7506 44.2671-27.4099C45.8296-30.0799 46.0642-32.6333 45.1155-34.6148ZM47.5986-33.3738C50.4261-24.818 45.6439-17.8372 38.9832-14.9502C32.3271-12.0651 23.6056-13.1669 18.37-20.7852L19.8843-21.834C24.538-15.0624 32.2605-14.0481 38.2537-16.6458C44.2422-19.2415 48.3143-25.3424 45.8522-32.7924L47.5986-33.3738Z"/>
  </g>
  <g id="Ultralight-S" transform="matrix(1 0 0 1 513.711 696)">
   <path class="monochrome-0 multicolor-0:tintColor hierarchical-0:primary SFSymbolsPreviewWireframe" d="M67.2909-56.1412C68.3922-56.6468 69.4507-56.974 70.4752-56.9717C71.5043-56.9693 72.4318-56.6347 73.2721-55.9537L73.3532-55.8867L73.3881-55.8575L73.4199-55.8251C74.1916-55.0388 74.6534-54.1899 74.7941-53.2957C74.9348-52.4019 74.7393-51.56 74.3666-50.8142C73.6418-49.3637 72.1949-48.1666 70.829-47.3124L70.826-47.3104L70.8227-47.3085L47.5182-32.9816C47.0657-32.7034 46.4731-32.8445 46.1947-33.2968C45.9163-33.749 46.0574-34.3411 46.51-34.6193L69.8082-48.9424C71.0723-49.733 72.1578-50.6979 72.6452-51.6733C72.8786-52.1404 72.9593-52.5776 72.8933-52.9969C72.8285-53.4083 72.6075-53.8961 72.0758-54.4473C71.555-54.8746 71.0443-55.0476 70.471-55.0489C69.8465-55.0503 69.0823-54.8475 68.0941-54.3939C66.0853-53.4716 63.5602-51.7201 59.9689-49.4226L59.9683-49.4223L42.3739-38.183C41.9262-37.897 41.3314-38.0277 41.0452-38.4751C40.759-38.9225 40.89-39.5171 41.3376-39.803L58.9319-51.0424C62.4-53.2611 65.1209-55.1449 67.2909-56.1412ZM45.1155-34.6148C44.1668-36.5963 42.03-38.0158 38.9691-38.4753C35.9206-38.9331 32.159-38.3854 28.4602-36.6169C24.7615-34.8485 21.9745-32.2652 20.4184-29.6059C18.856-26.9359 18.6213-24.3825 19.57-22.401C20.5187-20.4195 22.6555-19 25.7164-18.5404C28.7649-18.0827 32.5265-18.6304 36.2253-20.3988L37.0225-18.7337L36.8355-18.6453C28.9147-14.9413 20.4681-16.2483 17.9037-21.6043C15.3191-27.0025 19.6885-34.4694 27.663-38.2821L27.85-38.3705C35.7708-42.0745 44.2175-40.7674 46.7818-35.4115L46.8411-35.2846C49.2979-29.8969 44.9347-22.5166 37.0225-18.7337L36.2253-20.3988C39.924-22.1673 42.711-24.7506 44.2671-27.4099C45.8296-30.0799 46.0642-32.6333 45.1155-34.6148ZM47.5986-33.3738C50.4261-24.818 45.6439-17.8372 38.9832-14.9502C32.3271-12.0651 23.6056-13.1669 18.37-20.7852L19.8843-21.834C24.538-15.0624 32.2605-14.0481 38.2537-16.6458C44.2422-19.2415 48.3143-25.3424 45.8522-32.7924L47.5986-33.3738Z"/>
  </g>
 </g>
</svg>
