<?xml version="1.0" encoding="UTF-8"?>
<!DOCTYPE svg
PUBLIC "-//W3C//DTD SVG 1.1//EN"
     "http://www.w3.org/Graphics/SVG/1.1/DTD/svg11.dtd">
     <!--Created with SF Symbol Generator (v1.0.0)-->

<svg version="1.1" xmlns="http://www.w3.org/2000/svg" xmlns:xlink="http://www.w3.org/1999/xlink" width="3300" height="2200">
<!--glyph: "weight.kb.medium", point size: 100.0-->
<style>.SFSymbolsPreviewWireframe {fill:none;opacity:1.0;stroke:black;stroke-width:0.5}
</style>
<g id="Notes">
<rect height="2200" id="artboard" style="fill:white;opacity:1" width="3300" x="0" y="0"/>
<line style="fill:none;stroke:black;opacity:1;stroke-width:0.5;" x1="263" x2="3036" y1="292" y2="292"/>
<text style="stroke:none;fill:black;font-family:sans-serif;font-size:13;font-weight:bold;" transform="matrix(1 0 0 1 263 322)">Weight/Scale Variations</text>
<text style="stroke:none;fill:black;font-family:sans-serif;font-size:13;text-anchor:middle;" transform="matrix(1 0 0 1 559.711 322)">Ultralight</text>
<text style="stroke:none;fill:black;font-family:sans-serif;font-size:13;text-anchor:middle;" transform="matrix(1 0 0 1 856.422 322)">Thin</text>
<text style="stroke:none;fill:black;font-family:sans-serif;font-size:13;text-anchor:middle;" transform="matrix(1 0 0 1 1153.13 322)">Light</text>
<text style="stroke:none;fill:black;font-family:sans-serif;font-size:13;text-anchor:middle;" transform="matrix(1 0 0 1 1449.84 322)">Regular</text>
<text style="stroke:none;fill:black;font-family:sans-serif;font-size:13;text-anchor:middle;" transform="matrix(1 0 0 1 1746.56 322)">Medium</text>
<text style="stroke:none;fill:black;font-family:sans-serif;font-size:13;text-anchor:middle;" transform="matrix(1 0 0 1 2043.27 322)">Semibold</text>
<text style="stroke:none;fill:black;font-family:sans-serif;font-size:13;text-anchor:middle;" transform="matrix(1 0 0 1 2339.98 322)">Bold</text>
<text style="stroke:none;fill:black;font-family:sans-serif;font-size:13;text-anchor:middle;" transform="matrix(1 0 0 1 2636.69 322)">Heavy</text>
<text style="stroke:none;fill:black;font-family:sans-serif;font-size:13;text-anchor:middle;" transform="matrix(1 0 0 1 2933.4 322)">Black</text>
<line style="fill:none;stroke:black;opacity:1;stroke-width:0.5;" x1="263" x2="3036" y1="1903" y2="1903"/>
<text style="stroke:none;fill:black;font-family:sans-serif;font-size:13;font-weight:bold;" transform="matrix(1 0 0 1 263 1953)">Design Variations</text>
<text style="stroke:none;fill:black;font-family:sans-serif;font-size:13;" transform="matrix(1 0 0 1 263 1971)">Symbols are supported in up to nine weights and three scales.</text>
<text style="stroke:none;fill:black;font-family:sans-serif;font-size:13;" transform="matrix(1 0 0 1 263 1989)">For optimal layout with text and other symbols, vertically align</text>
<text style="stroke:none;fill:black;font-family:sans-serif;font-size:13;" transform="matrix(1 0 0 1 263 2007)">symbols with the adjacent text.</text>
<line style="fill:none;stroke:#00AEEF;stroke-width:0.5;opacity:1.0;" x1="776" x2="776" y1="1919" y2="1933"/>
<text style="stroke:none;fill:black;font-family:sans-serif;font-size:13;font-weight:bold;" transform="matrix(1 0 0 1 776 1953)">Margins</text>
<text style="stroke:none;fill:black;font-family:sans-serif;font-size:13;" transform="matrix(1 0 0 1 776 1971)">Leading and trailing margins on the left and right side of each symbol</text>
<text style="stroke:none;fill:black;font-family:sans-serif;font-size:13;" transform="matrix(1 0 0 1 776 1989)">can be adjusted by modifying the x-location of the margin guidelines.</text>
<text style="stroke:none;fill:black;font-family:sans-serif;font-size:13;" transform="matrix(1 0 0 1 776 2007)">Modifications are automatically applied proportionally to all</text>
<text style="stroke:none;fill:black;font-family:sans-serif;font-size:13;" transform="matrix(1 0 0 1 776 2025)">scales and weights.</text>
<text style="stroke:none;fill:black;font-family:sans-serif;font-size:13;font-weight:bold;" transform="matrix(1 0 0 1 1289 1953)">Exporting</text>
<text style="stroke:none;fill:black;font-family:sans-serif;font-size:13;" transform="matrix(1 0 0 1 1289 1971)">Symbols should be outlined when exporting to ensure the</text>
<text style="stroke:none;fill:black;font-family:sans-serif;font-size:13;" transform="matrix(1 0 0 1 1289 1989)">design is preserved when submitting to Xcode.</text>
<text id="template-version" style="stroke:none;fill:black;font-family:sans-serif;font-size:13;text-anchor:end;" transform="matrix(1 0 0 1 3036 1933)">Template v.5.0</text>
<text style="stroke:none;fill:black;font-family:sans-serif;font-size:13;text-anchor:end;" transform="matrix(1 0 0 1 3036 1951)">Requires Xcode 15 or greater</text>
<text id="descriptive-name" style="stroke:none;fill:black;font-family:sans-serif;font-size:13;text-anchor:end;" transform="matrix(1 0 0 1 3036 1969)">Generated from weight.kb</text>
<text style="stroke:none;fill:black;font-family:sans-serif;font-size:13;text-anchor:end;" transform="matrix(1 0 0 1 3036 1987)">Typeset at 100.0 points</text>
<text style="stroke:none;fill:black;font-family:sans-serif;font-size:13;" transform="matrix(1 0 0 1 263 726)">Small</text>
<text style="stroke:none;fill:black;font-family:sans-serif;font-size:13;" transform="matrix(1 0 0 1 263 1156)">Medium</text>
<text style="stroke:none;fill:black;font-family:sans-serif;font-size:13;" transform="matrix(1 0 0 1 263 1586)">Large</text>
</g>
<g id="Guides">
<g id="H-reference" style="fill:#27AAE1;stroke:none;" transform="matrix(1 0 0 1 339 696)">
 <path d="M0.993654 0L3.63775 0L29.3281-67.1323L30.0303-67.1323L30.0303-70.459L28.1226-70.459ZM11.6885-24.4799L46.9815-24.4799L46.2315-26.7285L12.4385-26.7285ZM55.1196 0L57.7637 0L30.6382-70.459L29.4326-70.459L29.4326-67.1323Z"/>
</g>
<line id="Baseline-S" style="fill:none;stroke:#27AAE1;opacity:1;stroke-width:0.5;" x1="263" x2="3036" y1="696" y2="696"/>
<line id="Capline-S" style="fill:none;stroke:#27AAE1;opacity:1;stroke-width:0.5;" x1="263" x2="3036" y1="625.541" y2="625.541"/>
<g id="H-reference" style="fill:#27AAE1;stroke:none;" transform="matrix(1 0 0 1 339 1126)">
 <path d="M0.993654 0L3.63775 0L29.3281-67.1323L30.0303-67.1323L30.0303-70.459L28.1226-70.459ZM11.6885-24.4799L46.9815-24.4799L46.2315-26.7285L12.4385-26.7285ZM55.1196 0L57.7637 0L30.6382-70.459L29.4326-70.459L29.4326-67.1323Z"/>
</g>
<line id="Baseline-M" style="fill:none;stroke:#27AAE1;opacity:1;stroke-width:0.5;" x1="263" x2="3036" y1="1126" y2="1126"/>
<line id="Capline-M" style="fill:none;stroke:#27AAE1;opacity:1;stroke-width:0.5;" x1="263" x2="3036" y1="1055.54" y2="1055.54"/>
<g id="H-reference" style="fill:#27AAE1;stroke:none;" transform="matrix(1 0 0 1 339 1556)">
 <path d="M0.993654 0L3.63775 0L29.3281-67.1323L30.0303-67.1323L30.0303-70.459L28.1226-70.459ZM11.6885-24.4799L46.9815-24.4799L46.2315-26.7285L12.4385-26.7285ZM55.1196 0L57.7637 0L30.6382-70.459L29.4326-70.459L29.4326-67.1323Z"/>
</g>
<line id="Baseline-L" style="fill:none;stroke:#27AAE1;opacity:1;stroke-width:0.5;" x1="263" x2="3036" y1="1556" y2="1556"/>
<line id="Capline-L" style="fill:none;stroke:#27AAE1;opacity:1;stroke-width:0.5;" x1="263" x2="3036" y1="1485.54" y2="1485.54"/>
<line id="left-margin-Ultralight-S" style="fill:none;stroke:#00AEEF;stroke-width:0.5;opacity:1.0;" x1="513.711" x2="513.711" y1="600.785" y2="720.121"/>
<line id="right-margin-Ultralight-S" style="fill:none;stroke:#00AEEF;stroke-width:0.5;opacity:1.0;" x1="605.711" x2="605.711" y1="600.785" y2="720.121"/>
<line id="left-margin-Regular-S" style="fill:none;stroke:#00AEEF;stroke-width:0.5;opacity:1.0;" x1="1403.84" x2="1403.84" y1="600.785" y2="720.121"/>
<line id="right-margin-Regular-S" style="fill:none;stroke:#00AEEF;stroke-width:0.5;opacity:1.0;" x1="1495.84" x2="1495.84" y1="600.785" y2="720.121"/>
<line id="left-margin-Black-S" style="fill:none;stroke:#00AEEF;stroke-width:0.5;opacity:1.0;" x1="2887.4" x2="2887.4" y1="600.785" y2="720.121"/>
<line id="right-margin-Black-S" style="fill:none;stroke:#00AEEF;stroke-width:0.5;opacity:1.0;" x1="2979.4" x2="2979.4" y1="600.785" y2="720.121"/>
</g>
<g id="Symbols">
<g id="Ultralight-S" transform="matrix(1 0 0 1 513.711 614.7705)">
<svg width="92" height="92" viewBox="0 0 92 92" fill="none" xmlns="http://www.w3.org/2000/svg">
<g id="weight.kb">
<g id="Union">
<path d="M56.0016 57.2849C59.2825 57.2849 61.4284 60.0499 61.4284 64.3007C61.4284 68.572 59.2825 71.234 56.0016 71.234C52.7619 71.234 50.6984 68.634 50.6984 64.3007C50.6984 60.0087 52.7619 57.2849 56.0016 57.2849Z" fill="black"/>
<path fill-rule="evenodd" clip-rule="evenodd" d="M45.9913 0C52.7939 7.37606e-06 58.4994 5.7054 58.4994 12.5629C58.4994 17.9914 54.8661 22.6863 49.9413 24.3615V28.5271H65.7957C72.4337 28.5271 77.3163 32.3673 78.9072 38.8408L88.2882 77.2426C90.5924 86.5139 86.5877 92 77.6455 92H14.3372C5.39499 92 1.39029 86.5139 3.69445 77.2426L13.0755 38.8408C14.6664 32.3673 19.4941 28.5271 26.1869 28.5271H42.0414V24.3634C37.0996 22.69 33.4284 17.9936 33.4284 12.5629C33.4284 5.7054 39.1888 0 45.9913 0ZM63.9872 53.1579C62.5221 53.1579 61.4078 54.0865 61.4078 55.7786V57.3055H61.3254C60.0666 54.8293 57.6524 53.2199 54.5365 53.2199C48.9033 53.2199 45.4366 57.4087 45.4366 64.2594C45.4366 70.9863 48.9445 75.2371 54.4334 75.2371C57.5698 75.2371 60.1491 73.6482 61.284 71.2958H61.3872V74.7831C61.3872 77.6926 59.3031 79.6529 55.8158 79.6117C53.7317 79.591 52.2048 78.7656 50.4921 77.0529C49.8524 76.4339 49.3365 76.1863 48.6143 76.1863C47.3143 76.1863 46.4683 77.0323 46.4683 78.1672C46.4683 78.7037 46.5921 79.199 46.9017 79.7148C48.3667 82.0672 51.5858 83.6767 55.7746 83.6973C62.5221 83.7386 66.5459 80.2719 66.5459 74.7625V55.7786C66.5459 54.0865 65.4729 53.1579 63.9872 53.1579ZM28.186 45.2755C26.6797 45.2755 25.6066 46.2454 25.6066 47.9787V73.1736C25.6066 74.9069 26.6797 75.8767 28.186 75.8767C29.6923 75.8767 30.7447 74.9069 30.7447 73.1736V67.953L32.6843 66.1372L39.2462 74.453C39.989 75.526 40.5874 75.8767 41.5985 75.8767C43.0223 75.8767 44.0334 74.9276 44.0334 73.5863C44.0334 72.926 43.8684 72.472 43.3319 71.7292L36.4811 63.1658L42.7128 57.2642C43.4144 56.6039 43.6414 56.1293 43.6414 55.3659C43.6414 54.1278 42.6715 53.1579 41.3922 53.1579C40.608 53.1579 40.0509 53.4468 39.3906 54.1484L30.8066 62.6293H30.7447V47.9787C30.7447 46.2454 29.6923 45.2755 28.186 45.2755ZM45.9913 6.80268C42.8643 6.80268 40.2859 9.43585 40.2859 12.5629C40.2859 15.635 42.8643 18.2135 45.9913 18.2135C49.1183 18.2134 51.6968 15.635 51.6968 12.5629C51.6968 9.43586 49.1183 6.80269 45.9913 6.80268Z" fill="black"/>
</g>
</g>
</svg>

</g>
<g id="Regular-S" transform="matrix(1 0 0 1 1403.84 614.7705)">
<svg width="92" height="92" viewBox="0 0 92 92" fill="none" xmlns="http://www.w3.org/2000/svg">
<g id="weight.kb">
<g id="Union">
<path d="M56.0016 57.2849C59.2825 57.2849 61.4284 60.0499 61.4284 64.3007C61.4284 68.572 59.2825 71.234 56.0016 71.234C52.7619 71.234 50.6984 68.634 50.6984 64.3007C50.6984 60.0087 52.7619 57.2849 56.0016 57.2849Z" fill="black"/>
<path fill-rule="evenodd" clip-rule="evenodd" d="M45.9913 0C52.7939 7.37606e-06 58.4994 5.7054 58.4994 12.5629C58.4994 17.9914 54.8661 22.6863 49.9413 24.3615V28.5271H65.7957C72.4337 28.5271 77.3163 32.3673 78.9072 38.8408L88.2882 77.2426C90.5924 86.5139 86.5877 92 77.6455 92H14.3372C5.39499 92 1.39029 86.5139 3.69445 77.2426L13.0755 38.8408C14.6664 32.3673 19.4941 28.5271 26.1869 28.5271H42.0414V24.3634C37.0996 22.69 33.4284 17.9936 33.4284 12.5629C33.4284 5.7054 39.1888 0 45.9913 0ZM63.9872 53.1579C62.5221 53.1579 61.4078 54.0865 61.4078 55.7786V57.3055H61.3254C60.0666 54.8293 57.6524 53.2199 54.5365 53.2199C48.9033 53.2199 45.4366 57.4087 45.4366 64.2594C45.4366 70.9863 48.9445 75.2371 54.4334 75.2371C57.5698 75.2371 60.1491 73.6482 61.284 71.2958H61.3872V74.7831C61.3872 77.6926 59.3031 79.6529 55.8158 79.6117C53.7317 79.591 52.2048 78.7656 50.4921 77.0529C49.8524 76.4339 49.3365 76.1863 48.6143 76.1863C47.3143 76.1863 46.4683 77.0323 46.4683 78.1672C46.4683 78.7037 46.5921 79.199 46.9017 79.7148C48.3667 82.0672 51.5858 83.6767 55.7746 83.6973C62.5221 83.7386 66.5459 80.2719 66.5459 74.7625V55.7786C66.5459 54.0865 65.4729 53.1579 63.9872 53.1579ZM28.186 45.2755C26.6797 45.2755 25.6066 46.2454 25.6066 47.9787V73.1736C25.6066 74.9069 26.6797 75.8767 28.186 75.8767C29.6923 75.8767 30.7447 74.9069 30.7447 73.1736V67.953L32.6843 66.1372L39.2462 74.453C39.989 75.526 40.5874 75.8767 41.5985 75.8767C43.0223 75.8767 44.0334 74.9276 44.0334 73.5863C44.0334 72.926 43.8684 72.472 43.3319 71.7292L36.4811 63.1658L42.7128 57.2642C43.4144 56.6039 43.6414 56.1293 43.6414 55.3659C43.6414 54.1278 42.6715 53.1579 41.3922 53.1579C40.608 53.1579 40.0509 53.4468 39.3906 54.1484L30.8066 62.6293H30.7447V47.9787C30.7447 46.2454 29.6923 45.2755 28.186 45.2755ZM45.9913 6.80268C42.8643 6.80268 40.2859 9.43585 40.2859 12.5629C40.2859 15.635 42.8643 18.2135 45.9913 18.2135C49.1183 18.2134 51.6968 15.635 51.6968 12.5629C51.6968 9.43586 49.1183 6.80269 45.9913 6.80268Z" fill="black"/>
</g>
</g>
</svg>

</g>
<g id="Black-S" transform="matrix(1 0 0 1 2887.4 614.7705)">
<svg width="92" height="92" viewBox="0 0 92 92" fill="none" xmlns="http://www.w3.org/2000/svg">
<g id="weight.kb">
<g id="Union">
<path d="M56.0016 57.2849C59.2825 57.2849 61.4284 60.0499 61.4284 64.3007C61.4284 68.572 59.2825 71.234 56.0016 71.234C52.7619 71.234 50.6984 68.634 50.6984 64.3007C50.6984 60.0087 52.7619 57.2849 56.0016 57.2849Z" fill="black"/>
<path fill-rule="evenodd" clip-rule="evenodd" d="M45.9913 0C52.7939 7.37606e-06 58.4994 5.7054 58.4994 12.5629C58.4994 17.9914 54.8661 22.6863 49.9413 24.3615V28.5271H65.7957C72.4337 28.5271 77.3163 32.3673 78.9072 38.8408L88.2882 77.2426C90.5924 86.5139 86.5877 92 77.6455 92H14.3372C5.39499 92 1.39029 86.5139 3.69445 77.2426L13.0755 38.8408C14.6664 32.3673 19.4941 28.5271 26.1869 28.5271H42.0414V24.3634C37.0996 22.69 33.4284 17.9936 33.4284 12.5629C33.4284 5.7054 39.1888 0 45.9913 0ZM63.9872 53.1579C62.5221 53.1579 61.4078 54.0865 61.4078 55.7786V57.3055H61.3254C60.0666 54.8293 57.6524 53.2199 54.5365 53.2199C48.9033 53.2199 45.4366 57.4087 45.4366 64.2594C45.4366 70.9863 48.9445 75.2371 54.4334 75.2371C57.5698 75.2371 60.1491 73.6482 61.284 71.2958H61.3872V74.7831C61.3872 77.6926 59.3031 79.6529 55.8158 79.6117C53.7317 79.591 52.2048 78.7656 50.4921 77.0529C49.8524 76.4339 49.3365 76.1863 48.6143 76.1863C47.3143 76.1863 46.4683 77.0323 46.4683 78.1672C46.4683 78.7037 46.5921 79.199 46.9017 79.7148C48.3667 82.0672 51.5858 83.6767 55.7746 83.6973C62.5221 83.7386 66.5459 80.2719 66.5459 74.7625V55.7786C66.5459 54.0865 65.4729 53.1579 63.9872 53.1579ZM28.186 45.2755C26.6797 45.2755 25.6066 46.2454 25.6066 47.9787V73.1736C25.6066 74.9069 26.6797 75.8767 28.186 75.8767C29.6923 75.8767 30.7447 74.9069 30.7447 73.1736V67.953L32.6843 66.1372L39.2462 74.453C39.989 75.526 40.5874 75.8767 41.5985 75.8767C43.0223 75.8767 44.0334 74.9276 44.0334 73.5863C44.0334 72.926 43.8684 72.472 43.3319 71.7292L36.4811 63.1658L42.7128 57.2642C43.4144 56.6039 43.6414 56.1293 43.6414 55.3659C43.6414 54.1278 42.6715 53.1579 41.3922 53.1579C40.608 53.1579 40.0509 53.4468 39.3906 54.1484L30.8066 62.6293H30.7447V47.9787C30.7447 46.2454 29.6923 45.2755 28.186 45.2755ZM45.9913 6.80268C42.8643 6.80268 40.2859 9.43585 40.2859 12.5629C40.2859 15.635 42.8643 18.2135 45.9913 18.2135C49.1183 18.2134 51.6968 15.635 51.6968 12.5629C51.6968 9.43586 49.1183 6.80269 45.9913 6.80268Z" fill="black"/>
</g>
</g>
</svg>

</g>
</g>
</svg>