<?xml version="1.0" encoding="UTF-8"?>
<!--Generator: Apple Native CoreSVG 341-->
<!DOCTYPE svg
PUBLIC "-//W3C//DTD SVG 1.1//EN"
       "http://www.w3.org/Graphics/SVG/1.1/DTD/svg11.dtd">
<svg version="1.1" xmlns="http://www.w3.org/2000/svg" xmlns:xlink="http://www.w3.org/1999/xlink" viewBox="0 0 3300 2200">
 <!--glyph: "", point size: 100.0, font version: "21.0d6e2", template writer version: "138.0.0"-->
 <style>.defaults {-sfsymbols-variable-value-mode:color;-sfsymbols-draw-reverses-motion-groups:true}

.monochrome-0 {-sfsymbols-motion-group:0;-sfsymbols-layer-tags:-3bb7c716a0a64b80}

.multicolor-0:tintColor {-sfsymbols-motion-group:0;-sfsymbols-layer-tags:-3bb7c716a0a64b80}

.hierarchical-0:primary {-sfsymbols-motion-group:0;-sfsymbols-layer-tags:-3bb7c716a0a64b80}

.SFSymbolsPreviewWireframe {fill:none;opacity:1.0;stroke:black;stroke-width:0.5}
</style>
 <g id="Notes">
  <rect height="2200" id="artboard" style="fill:white;opacity:1" width="3300" x="0" y="0"/>
  <line style="fill:none;stroke:black;opacity:1;stroke-width:0.5;" x1="263" x2="3036" y1="292" y2="292"/>
  <text style="stroke:none;fill:black;font-family:sans-serif;font-size:13;font-weight:bold;" transform="matrix(1 0 0 1 263 322)">Weight/Scale Variations</text>
  <text style="stroke:none;fill:black;font-family:sans-serif;font-size:13;text-anchor:middle;" transform="matrix(1 0 0 1 559.711 322)">Ultralight</text>
  <text style="stroke:none;fill:black;font-family:sans-serif;font-size:13;text-anchor:middle;" transform="matrix(1 0 0 1 856.422 322)">Thin</text>
  <text style="stroke:none;fill:black;font-family:sans-serif;font-size:13;text-anchor:middle;" transform="matrix(1 0 0 1 1153.13 322)">Light</text>
  <text style="stroke:none;fill:black;font-family:sans-serif;font-size:13;text-anchor:middle;" transform="matrix(1 0 0 1 1449.84 322)">Regular</text>
  <text style="stroke:none;fill:black;font-family:sans-serif;font-size:13;text-anchor:middle;" transform="matrix(1 0 0 1 1746.56 322)">Medium</text>
  <text style="stroke:none;fill:black;font-family:sans-serif;font-size:13;text-anchor:middle;" transform="matrix(1 0 0 1 2043.27 322)">Semibold</text>
  <text style="stroke:none;fill:black;font-family:sans-serif;font-size:13;text-anchor:middle;" transform="matrix(1 0 0 1 2339.98 322)">Bold</text>
  <text style="stroke:none;fill:black;font-family:sans-serif;font-size:13;text-anchor:middle;" transform="matrix(1 0 0 1 2636.69 322)">Heavy</text>
  <text style="stroke:none;fill:black;font-family:sans-serif;font-size:13;text-anchor:middle;" transform="matrix(1 0 0 1 2933.4 322)">Black</text>
  <line style="fill:none;stroke:black;opacity:1;stroke-width:0.5;" x1="263" x2="3036" y1="1903" y2="1903"/>
  <g transform="matrix(0.2 0 0 0.2 263 1933)">
   <path d="m46.2402 4.15039c21.7773 0 39.4531-17.627 39.4531-39.4043s-17.6758-39.4043-39.4531-39.4043c-21.7285 0-39.4043 17.627-39.4043 39.4043s17.6758 39.4043 39.4043 39.4043Zm0-7.42188c-17.6758 0-31.9336-14.3066-31.9336-31.9824s14.2578-31.9824 31.9336-31.9824 31.9824 14.3066 31.9824 31.9824-14.3066 31.9824-31.9824 31.9824Zm3.61328-17.7734v-28.4668c0-2.24609-1.46484-3.75977-3.71094-3.75977-2.14844 0-3.61328 1.51367-3.61328 3.75977v28.4668c0 2.19727 1.46484 3.71094 3.61328 3.71094 2.24609 0 3.71094-1.51367 3.71094-3.71094Zm-17.8223-10.5957h28.418c2.19727 0 3.71094-1.46484 3.71094-3.61328 0-2.19727-1.51367-3.71094-3.71094-3.71094h-28.418c-2.24609 0-3.75977 1.51367-3.75977 3.71094 0 2.14844 1.51367 3.61328 3.75977 3.61328Z"/>
  </g>
  <g transform="matrix(0.2 0 0 0.2 281.506 1933)">
   <path d="m58.5449 14.5508c27.4902 0 49.8047-22.3145 49.8047-49.8047s-22.3145-49.8047-49.8047-49.8047-49.8047 22.3145-49.8047 49.8047 22.3145 49.8047 49.8047 49.8047Zm0-8.30078c-22.9492 0-41.5039-18.5547-41.5039-41.5039s18.5547-41.5039 41.5039-41.5039 41.5039 18.5547 41.5039 41.5039-18.5547 41.5039-41.5039 41.5039Zm4.05273-23.0957v-36.9141c0-2.49023-1.70898-4.19922-4.15039-4.19922-2.39258 0-4.05273 1.70898-4.05273 4.19922v36.9141c0 2.44141 1.66016 4.15039 4.05273 4.15039 2.44141 0 4.15039-1.66016 4.15039-4.15039Zm-22.5586-14.4043h36.9629c2.44141 0 4.15039-1.61133 4.15039-4.00391 0-2.44141-1.70898-4.15039-4.15039-4.15039h-36.9629c-2.49023 0-4.15039 1.70898-4.15039 4.15039 0 2.39258 1.66016 4.00391 4.15039 4.00391Z"/>
  </g>
  <g transform="matrix(0.2 0 0 0.2 304.924 1933)">
   <path d="m74.8535 28.3203c35.1074 0 63.623-28.4668 63.623-63.5742s-28.5156-63.623-63.623-63.623-63.5742 28.5156-63.5742 63.623 28.4668 63.5742 63.5742 63.5742Zm0-9.08203c-30.127 0-54.4922-24.3652-54.4922-54.4922s24.3652-54.4922 54.4922-54.4922 54.4922 24.3652 54.4922 54.4922-24.3652 54.4922-54.4922 54.4922Zm4.44336-30.3223v-48.4863c0-2.73438-1.85547-4.63867-4.54102-4.63867-2.58789 0-4.44336 1.9043-4.44336 4.63867v48.4863c0 2.68555 1.85547 4.58984 4.44336 4.58984 2.68555 0 4.54102-1.85547 4.54102-4.58984Zm-28.7109-19.7754h48.4863c2.68555 0 4.58984-1.80664 4.58984-4.39453 0-2.73438-1.85547-4.58984-4.58984-4.58984h-48.4863c-2.73438 0-4.58984 1.85547-4.58984 4.58984 0 2.58789 1.85547 4.39453 4.58984 4.39453Z"/>
  </g>
  <text style="stroke:none;fill:black;font-family:sans-serif;font-size:13;font-weight:bold;" transform="matrix(1 0 0 1 263 1953)">Design Variations</text>
  <text style="stroke:none;fill:black;font-family:sans-serif;font-size:13;" transform="matrix(1 0 0 1 263 1971)">Symbols are supported in up to nine weights and three scales.</text>
  <text style="stroke:none;fill:black;font-family:sans-serif;font-size:13;" transform="matrix(1 0 0 1 263 1989)">For optimal layout with text and other symbols, vertically align</text>
  <text style="stroke:none;fill:black;font-family:sans-serif;font-size:13;" transform="matrix(1 0 0 1 263 2007)">symbols with the adjacent text.</text>
  <line style="fill:none;stroke:#00AEEF;stroke-width:0.5;opacity:1.0;" x1="776" x2="776" y1="1919" y2="1933"/>
  <g transform="matrix(0.2 0 0 0.2 776 1933)">
   <path d="m16.5527 0.78125c2.58789 0 3.85742-0.976562 4.78516-3.71094l20.5566-57.5195h0.244141l20.6055 57.5195c0.927734 2.73438 2.19727 3.71094 4.73633 3.71094 2.58789 0 4.24805-1.5625 4.24805-4.00391 0-0.830078-0.146484-1.61133-0.537109-2.63672l-22.9004-60.9863c-1.12305-2.97852-3.125-4.49219-6.25-4.49219-3.02734 0-5.07812 1.46484-6.15234 4.44336l-22.9004 61.084c-0.390625 1.02539-0.537109 1.80664-0.537109 2.63672 0 2.44141 1.5625 3.95508 4.10156 3.95508Zm10.2051-20.9473h30.6641c2.00195 0 3.66211-1.66016 3.66211-3.66211 0-2.05078-1.66016-3.66211-3.66211-3.66211h-30.6641c-2.00195 0-3.66211 1.61133-3.66211 3.66211 0 2.00195 1.66016 3.66211 3.66211 3.66211Z"/>
  </g>
  <line style="fill:none;stroke:#00AEEF;stroke-width:0.5;opacity:1.0;" x1="792.836" x2="792.836" y1="1919" y2="1933"/>
  <text style="stroke:none;fill:black;font-family:sans-serif;font-size:13;font-weight:bold;" transform="matrix(1 0 0 1 776 1953)">Margins</text>
  <text style="stroke:none;fill:black;font-family:sans-serif;font-size:13;" transform="matrix(1 0 0 1 776 1971)">Leading and trailing margins on the left and right side of each symbol</text>
  <text style="stroke:none;fill:black;font-family:sans-serif;font-size:13;" transform="matrix(1 0 0 1 776 1989)">can be adjusted by modifying the x-location of the margin guidelines.</text>
  <text style="stroke:none;fill:black;font-family:sans-serif;font-size:13;" transform="matrix(1 0 0 1 776 2007)">Modifications are automatically applied proportionally to all</text>
  <text style="stroke:none;fill:black;font-family:sans-serif;font-size:13;" transform="matrix(1 0 0 1 776 2025)">scales and weights.</text>
  <g transform="matrix(0.2 0 0 0.2 1289 1933)">
   <path d="m14.209 13.1348 7.86133 7.86133c4.29688 4.39453 9.32617 4.10156 13.8672-1.02539l60.6934-68.2129-4.88281-4.88281-60.2539 67.6758c-1.80664 1.95312-3.4668 2.44141-5.81055 0.0976562l-5.17578-5.12695c-2.29492-2.29492-1.80664-3.95508 0.195312-5.81055l67.4805-62.1582-4.88281-4.83398-68.0664 62.5977c-4.98047 4.58984-5.32227 9.47266-1.02539 13.8184Zm44.873-97.4609c-2.05078 2.00195-2.24609 4.88281-1.07422 6.78711 1.12305 1.80664 3.4668 3.02734 6.5918 2.24609 5.85938-1.66016 12.5977-2.39258 18.8965 0.927734l-2.68555 7.12891c-1.61133 4.00391-0.732422 6.88477 1.70898 9.42383l10.2539 10.3027c2.34375 2.39258 4.54102 2.44141 7.08008 1.95312l4.44336-0.732422 2.58789 2.53906-0.195312 2.24609c-0.0976562 2.29492 0.537109 4.29688 2.7832 6.49414l3.36914 3.32031c2.29492 2.29492 5.51758 2.49023 7.8125 0.195312l12.9883-13.0371c2.29492-2.34375 2.14844-5.37109-0.195312-7.66602l-3.41797-3.41797c-2.19727-2.19727-4.05273-3.02734-6.34766-2.88086l-2.34375 0.244141-2.44141-2.44141 1.02539-4.6875c0.634766-2.73438-0.244141-4.98047-2.88086-7.61719l-11.2793-11.1816c-12.9395-12.8418-35.5957-11.0352-46.6797-0.146484Zm7.08008 2.05078c8.78906-6.39648 25.9766-5.66406 33.6914 1.95312l12.3047 12.207c1.02539 1.02539 1.2207 1.80664 0.927734 3.32031l-1.46484 6.64062 6.73828 6.68945 4.39453-0.244141c1.12305-0.0488281 1.51367 0.0488281 2.34375 0.878906l2.53906 2.49023-10.8398 10.8398-2.49023-2.49023c-0.830078-0.878906-0.976562-1.2207-0.927734-2.39258l0.292969-4.3457-6.68945-6.73828-6.83594 1.17188c-1.41602 0.292969-2.05078 0.195312-3.17383-0.878906l-8.93555-8.88672c-1.07422-1.02539-1.17188-1.70898-0.488281-3.36914l4.58984-11.4746c-6.10352-6.34766-17.041-7.51953-25.5859-4.58984-0.683594 0.244141-0.927734-0.390625-0.390625-0.78125Z"/>
  </g>
  <text style="stroke:none;fill:black;font-family:sans-serif;font-size:13;font-weight:bold;" transform="matrix(1 0 0 1 1289 1953)">Exporting</text>
  <text style="stroke:none;fill:black;font-family:sans-serif;font-size:13;" transform="matrix(1 0 0 1 1289 1971)">Symbols should be outlined when exporting to ensure the</text>
  <text style="stroke:none;fill:black;font-family:sans-serif;font-size:13;" transform="matrix(1 0 0 1 1289 1989)">design is preserved when submitting to Xcode.</text>
  <text id="template-version" style="stroke:none;fill:black;font-family:sans-serif;font-size:13;text-anchor:end;" transform="matrix(1 0 0 1 3036 1933)">Template v.7.0</text>
  <text style="stroke:none;fill:black;font-family:sans-serif;font-size:13;text-anchor:end;" transform="matrix(1 0 0 1 3036 1951)">Requires Xcode 17 or greater</text>
  <text id="descriptive-name" style="stroke:none;fill:black;font-family:sans-serif;font-size:13;text-anchor:end;" transform="matrix(1 0 0 1 3036 1969)">Generated from jug.fill</text>
  <text style="stroke:none;fill:black;font-family:sans-serif;font-size:13;text-anchor:end;" transform="matrix(1 0 0 1 3036 1987)">Typeset at 100.0 points</text>
  <text style="stroke:none;fill:black;font-family:sans-serif;font-size:13;" transform="matrix(1 0 0 1 263 726)">Small</text>
  <text style="stroke:none;fill:black;font-family:sans-serif;font-size:13;" transform="matrix(1 0 0 1 263 1156)">Medium</text>
  <text style="stroke:none;fill:black;font-family:sans-serif;font-size:13;" transform="matrix(1 0 0 1 263 1586)">Large</text>
 </g>
 <g id="Guides">
  <g id="H-reference" style="fill:#27AAE1;stroke:none;" transform="matrix(1 0 0 1 339 696)">
   <path d="M0.993654 0L3.63775 0L29.3281-67.1323L30.0303-67.1323L30.0303-70.459L28.1226-70.459ZM11.6885-24.4799L46.9815-24.4799L46.2315-26.7285L12.4385-26.7285ZM55.1196 0L57.7637 0L30.6382-70.459L29.4326-70.459L29.4326-67.1323Z"/>
  </g>
  <line id="Baseline-S" style="fill:none;stroke:#27AAE1;opacity:1;stroke-width:0.5;" x1="263" x2="3036" y1="696" y2="696"/>
  <line id="Capline-S" style="fill:none;stroke:#27AAE1;opacity:1;stroke-width:0.5;" x1="263" x2="3036" y1="625.541" y2="625.541"/>
  <g id="H-reference" style="fill:#27AAE1;stroke:none;" transform="matrix(1 0 0 1 339 1126)">
   <path d="M0.993654 0L3.63775 0L29.3281-67.1323L30.0303-67.1323L30.0303-70.459L28.1226-70.459ZM11.6885-24.4799L46.9815-24.4799L46.2315-26.7285L12.4385-26.7285ZM55.1196 0L57.7637 0L30.6382-70.459L29.4326-70.459L29.4326-67.1323Z"/>
  </g>
  <line id="Baseline-M" style="fill:none;stroke:#27AAE1;opacity:1;stroke-width:0.5;" x1="263" x2="3036" y1="1126" y2="1126"/>
  <line id="Capline-M" style="fill:none;stroke:#27AAE1;opacity:1;stroke-width:0.5;" x1="263" x2="3036" y1="1055.54" y2="1055.54"/>
  <g id="H-reference" style="fill:#27AAE1;stroke:none;" transform="matrix(1 0 0 1 339 1556)">
   <path d="M0.993654 0L3.63775 0L29.3281-67.1323L30.0303-67.1323L30.0303-70.459L28.1226-70.459ZM11.6885-24.4799L46.9815-24.4799L46.2315-26.7285L12.4385-26.7285ZM55.1196 0L57.7637 0L30.6382-70.459L29.4326-70.459L29.4326-67.1323Z"/>
  </g>
  <line id="Baseline-L" style="fill:none;stroke:#27AAE1;opacity:1;stroke-width:0.5;" x1="263" x2="3036" y1="1556" y2="1556"/>
  <line id="Capline-L" style="fill:none;stroke:#27AAE1;opacity:1;stroke-width:0.5;" x1="263" x2="3036" y1="1485.54" y2="1485.54"/>
  <line id="right-margin-Black-S" style="fill:none;stroke:#00AEEF;stroke-width:0.5;opacity:1.0;" x1="2979.4" x2="2979.4" y1="600.785" y2="720.121"/>
  <line id="left-margin-Black-S" style="fill:none;stroke:#00AEEF;stroke-width:0.5;opacity:1.0;" x1="2887.4" x2="2887.4" y1="600.785" y2="720.121"/>
  <line id="right-margin-Regular-S" style="fill:none;stroke:#00AEEF;stroke-width:0.5;opacity:1.0;" x1="1495.84" x2="1495.84" y1="600.785" y2="720.121"/>
  <line id="left-margin-Regular-S" style="fill:none;stroke:#00AEEF;stroke-width:0.5;opacity:1.0;" x1="1403.84" x2="1403.84" y1="600.785" y2="720.121"/>
  <line id="right-margin-Ultralight-S" style="fill:none;stroke:#00AEEF;stroke-width:0.5;opacity:1.0;" x1="605.711" x2="605.711" y1="600.785" y2="720.121"/>
  <line id="left-margin-Ultralight-S" style="fill:none;stroke:#00AEEF;stroke-width:0.5;opacity:1.0;" x1="513.711" x2="513.711" y1="600.785" y2="720.121"/>
 </g>
 <g id="Symbols">
  <g id="Black-S" transform="matrix(1 0 0 1 2887.4 696)">
   <path class="monochrome-0 multicolor-0:tintColor hierarchical-0:primary SFSymbolsPreviewWireframe" d="M44.9803-30.9621C45.4115-30.9621 45.5418-30.9172 45.735-30.7061C45.8249-30.6116 46.7592-29.2236 47.0781-28.716C47.2173-28.5004 47.6531-27.8086 47.7744-27.6154C47.9631-27.3279 48.7178-26.0611 48.866-25.7961C48.9244-25.6838 49.0412-25.4816 49.122-25.3468C49.405-24.8707 49.5982-24.5068 50.1508-23.3927C50.7572-22.1754 50.7617-22.1664 51.0223-21.506C51.3053-20.7828 51.413-20.4055 51.5703-19.6059C51.6377-19.2465 51.6242-17.8405 51.5478-17.4182C51.422-16.704 51.3008-16.3356 50.9729-15.6438C50.6719-15.0149 50.0789-14.1928 49.6432-13.811C49.5803-13.7526 49.459-13.6447 49.3737-13.5684C49.194-13.4067 48.565-12.9485 48.4707-12.9125C48.4347-12.899 48.3134-12.8317 48.2011-12.7688C47.7968-12.5352 46.9568-12.2387 46.4267-12.1444C46.256-12.1129 46.0269-12.068 45.9236-12.0455C45.69-11.9961 44.3558-12.0051 44.0234-12.059C43.5967-12.1264 43.1654-12.2342 42.8151-12.3465C42.4512-12.4678 41.373-12.9889 41.373-13.0383C41.3729-13.0563 41.3145-13.0968 41.2382-13.1282C41.1664-13.1596 41.1035-13.1955 41.1035-13.2135C41.1035-13.2314 41.0406-13.2809 40.9598-13.3303C40.7935-13.4247 39.801-14.4037 39.8007-14.4713C39.8007-14.4937 39.7738-14.5432 39.7424-14.5746C39.4234-14.8981 38.8574-16.0301 38.6687-16.7219C38.5205-17.2745 38.4082-18.0651 38.4082-18.5862C38.4082-18.9097 38.4845-19.6239 38.5654-20.0462C38.6732-20.6032 39.0056-21.5465 39.3964-22.4045C39.603-22.858 40.3078-24.2855 40.3398-24.3136C40.3533-24.3271 40.4521-24.5068 40.5599-24.7179C40.6677-24.9291 40.7711-25.1177 40.7936-25.1447C40.8565-25.2256 41.1529-25.7737 41.1799-25.85C41.1934-25.8949 41.2203-25.9308 41.2428-25.9308C41.2652-25.9309 41.2831-25.9488 41.2832-25.9758C41.2832-25.9982 41.4045-26.2228 41.5527-26.4699C41.7008-26.7168 41.8221-26.9414 41.8222-26.964C41.8222-26.991 41.8402-27.009 41.8582-27.009C41.8762-27.009 41.9391-27.0944 41.993-27.1977C42.0469-27.3055 42.2625-27.6648 42.4691-27.9972C42.6802-28.3296 42.8823-28.6621 42.9228-28.7295C43.0216-28.9047 43.6056-29.8031 43.664-29.8705C43.6865-29.902 43.7315-29.9783 43.7629-30.0412C43.7898-30.104 43.8257-30.1534 43.8437-30.1535C43.8617-30.1535 43.9021-30.2119 43.9336-30.2883C43.965-30.3601 44.0055-30.423 44.028-30.423C44.0459-30.4231 44.0728-30.459 44.0908-30.5084C44.1267-30.6297 44.248-30.7555 44.4277-30.8678C44.558-30.9441 44.6568-30.9621 44.9803-30.9621ZM49.6386-66.5402L49.6386-66.3605C49.6386-66.1314 49.8229-65.6732 49.9801-65.5205C50.043-65.4576 50.344-65.3093 51.413-64.8332C51.5388-64.7793 51.7635-64.676 51.9207-64.6041C52.0777-64.5323 52.2123-64.474 52.2216-64.4738C52.2441-64.4738 52.6215-64.3031 53.0842-64.0875C53.2638-64.0022 53.4164-63.9348 53.4301-63.9347C53.439-63.9347 53.5963-63.8674 53.7805-63.7821C53.9602-63.7012 54.3015-63.5439 54.5351-63.4406C54.7687-63.3373 55.1236-63.1756 55.3212-63.0812C55.5189-62.9914 55.7615-62.8791 55.8603-62.8342C55.9591-62.7892 56.1927-62.686 56.3769-62.5961C56.5611-62.5108 56.8396-62.3805 56.9969-62.3131C57.1496-62.2412 57.4056-62.1199 57.5673-62.048C57.7291-61.9761 57.9941-61.8504 58.1648-61.774C58.331-61.6977 58.6365-61.5539 58.8476-61.4551C59.5035-61.1451 60.4783-60.6914 60.7254-60.5836C60.8017-60.5477 60.9365-60.4938 61.0174-60.4579C61.6058-60.1973 62.4324-59.802 62.7109-59.6402C62.9355-59.51 63.3397-59.2629 63.4072-59.209C63.4341-59.1865 63.5554-59.0967 63.6767-59.0068C64.1125-58.6834 64.6291-58.1713 64.948-57.7535C65.7342-56.7203 66.0576-55.9297 66.3046-54.4653C66.3271-54.3125 66.3675-54.07 66.3945-53.9262C66.417-53.7869 66.4574-53.5263 66.4843-53.3556C66.5113-53.1804 66.5517-52.9289 66.5742-52.7941C66.5966-52.6593 66.6371-52.3988 66.6595-52.2236C66.6865-52.044 66.7315-51.7475 66.7584-51.5723C66.7809-51.3926 66.8213-51.132 66.8437-50.9972C66.8662-50.8625 66.9066-50.5974 66.9336-50.4133C66.9605-50.2291 67.0009-49.964 67.0234-49.8293C67.0459-49.6945 67.0863-49.4295 67.1132-49.2453C67.1402-49.0611 67.1806-48.7961 67.2031-48.6613C67.2255-48.5265 67.266-48.2615 67.2929-48.0773C67.3199-47.8931 67.3603-47.6371 67.3828-47.5158C67.4052-47.39 67.4367-47.2103 67.4457-47.1115C67.4592-47.0127 67.4906-46.8015 67.5175-46.6398C67.54-46.4781 67.5849-46.2041 67.6074-46.0334C67.7332-45.1978 67.7916-44.798 67.8769-44.259C67.9039-44.0748 67.9488-43.8008 67.9668-43.6525C67.9892-43.5043 68.0297-43.2392 68.0566-43.0685C68.0836-42.8933 68.124-42.6103 68.1464-42.4396C68.1734-42.2644 68.2093-41.9949 68.2363-41.8332C68.2588-41.6715 68.2992-41.3974 68.3261-41.2267C68.3486-41.0515 68.389-40.791 68.416-40.6428C68.4429-40.4945 68.4834-40.2295 68.5058-40.0588C68.5283-39.8836 68.5687-39.614 68.5957-39.4523C68.6226-39.2906 68.663-39.0166 68.6855-38.8459C68.7709-38.2664 68.8113-37.9968 68.8652-37.6554C68.9191-37.3141 68.9595-37.0445 69.0449-36.465C69.0673-36.2898 69.1123-36.0203 69.1347-35.8586C69.1617-35.6969 69.2021-35.4363 69.2246-35.2746C69.247-35.1129 69.2875-34.8569 69.3099-34.6996C69.5929-33.0196 69.5795-33.8011 69.5615-20.6525C69.548-14.0805 69.53-8.5101 69.5166-8.2765C69.4896-7.8633 69.4357-7.4814 69.3593-7.1535C69.3369-7.0681 69.2965-6.8929 69.265-6.7717C69.2156-6.5425 69.0673-6.0798 69-5.9181C68.982-5.8687 68.9191-5.707 68.8607-5.5588C68.7574-5.2847 68.3352-4.4088 68.2858-4.3683C68.2723-4.3548 68.2094-4.256 68.151-4.1437C68.0881-4.0314 68.0117-3.9147 67.9803-3.8832C67.9488-3.8518 67.9218-3.8068 67.9218-3.7843C67.9216-3.6898 67.1851-2.814 66.691-2.3199C66.1116-1.7404 65.6309-1.3586 65.0379-0.9947C64.3057-0.5455 63.3892-0.1592 62.7109-0.0109C62.5761 0.016 62.3919 0.0609 62.3066 0.0879C62.0366 0.1687 57.2299 0.2046 46.6469 0.2091C36.0947 0.2136 36.3328 0.2182 35.4658 0.0385C35.1918-0.0199 34.8054-0.1233 34.473-0.2266C33.9025-0.4063 32.3438-1.161 31.6565-1.5967C31.5352-1.6731 31.4229-1.7135 31.4049-1.691C31.3825-1.6685 31.1488-1.3586 30.8837-0.9992C30.4255-0.3838 29.8371 0.2586 29.5361 0.4652C29.2172 0.6898 28.8712 0.8336 28.3906 0.9549C28.1255 1.0223 27.1597 1.0402 26.9306 0.9818C26.8635 0.9609 26.7064 0.9242 26.5762 0.8938L26.5488 0.8875C26.414 0.8561 26.1804 0.7751 26.0322 0.7033C25.884 0.6314 25.7492 0.5731 25.7312 0.5731C25.6997 0.573 25.2416 0.299 25.2011 0.2586C25.1877 0.2451 25.1068 0.1823 25.0214 0.1239C24.8418-0.0019 24.725-0.0963 24.442-0.3478C24.1545-0.6039 24.0916-0.6668 23.7636-1.0441C23.6019-1.2283 23.4627-1.39 23.4492-1.4035C23.4357-1.417 23.3548-1.5158 23.2695-1.6281C23.1842-1.7404 23.0989-1.8482 23.0764-1.8752C23.0584-1.8976 22.9326-2.0728 22.8024-2.257C21.8815-3.5777 21.1852-5.1051 20.8932-6.4572C20.5787-7.9037 20.5967-7.3287 20.6012-16.3625C20.6012-20.8726 20.6281-25.7512 20.6551-27.2112C20.6865-28.6667 20.7314-30.9306 20.7539-32.2424C20.8302-36.2988 20.974-40.5619 21.1132-43.091C21.1357-43.5222 21.1761-44.2994 21.2031-44.8205C21.23-45.3371 21.2705-46.0873 21.2929-46.4826C21.3154-46.8779 21.3558-47.5832 21.3828-48.0549C21.4502-49.2722 21.513-50.3055 21.6523-52.5336C21.7107-53.4186 21.7602-53.724 21.9309-54.2541C22.1959-55.0582 22.5732-55.723 23.247-56.5676C23.4582-56.8326 24.4824-57.812 25.0888-58.3241C25.1876-58.4093 25.2774-58.4856 25.291-58.4992C25.3044-58.5127 25.4258-58.6115 25.5605-58.7238C25.6951-58.836 25.8164-58.9348 25.83-58.9484C25.8435-58.9619 25.9648-59.0607 26.0996-59.173C26.2342-59.2852 26.3554-59.384 26.3691-59.3976C26.3826-59.4111 26.4814-59.492 26.5937-59.5773C26.7059-59.6626 26.8047-59.7434 26.8183-59.757C26.8318-59.775 27.2136-60.0625 27.6718-60.4039C28.13-60.7453 28.5389-61.0508 28.5838-61.0868C28.8489-61.3024 30.9377-62.6456 31.4723-62.951C31.5576-62.9959 31.6969-63.0767 31.7867-63.1261C31.8721-63.1756 31.9889-63.2475 32.0428-63.2789C32.1685-63.3598 33.9159-64.339 34.3652-64.5772C34.5494-64.676 34.7561-64.7928 34.8234-64.8422C34.8863-64.8871 34.9536-64.923 34.9672-64.923C34.9851-64.923 35.1424-65.0129 35.3221-65.1207C35.4972-65.2285 35.7083-65.3453 35.7802-65.3858C35.8566-65.4262 35.969-65.5026 36.0363-65.561C36.1981-65.7092 36.4316-66.1809 36.4316-66.374L36.4316-66.5403L49.6386-66.5402ZM57.5-35.6655C55.3886-35.6744 48.0079-35.661 41.1035-35.643C29.2401-35.6116 28.5344-35.6026 28.3322-35.5262C27.7797-35.3286 27.3035-34.8748 27.0564-34.3312C26.8813-33.9315 26.8857-34.3309 26.8857-21.8205C26.8857-10.4463 26.8902-9.8129 26.9666-9.5748C27.1373-9.0357 27.5237-8.5506 28.0133-8.2542C28.3457-8.052 28.5074-8.0026 28.9521-7.9666C29.1498-7.9532 36.4586-7.9442 45.1914-7.9442C62.1715-7.9532 61.269-7.9397 61.7855-8.1598C62.0685-8.281 62.4594-8.591 62.6481-8.856C62.8862-9.1885 62.985-9.4176 63.0524-9.7815C63.1018-10.0493 63.0703-33.6779 63.0209-33.9494C62.8906-34.6412 62.3471-35.2432 61.5789-35.5576C61.3411-35.6519 61.3094-35.6519 57.5132-35.6654L57.5-35.6655ZM56.1748-55.3322C55.1955-55.7769 55.0113-55.8264 54.7912-55.7051C54.6475-55.6287 54.4004-55.3727 54.4003-55.3008C54.4003-55.2649 54.3779-55.2155 54.3465-55.184C54.3105-55.1481 54.306-55.0717 54.3465-54.8965C54.3734-54.7662 54.4183-54.5146 54.4453-54.3439C54.4722-54.1687 54.5172-53.9666 54.5397-53.8902C54.5621-53.8139 54.58-53.706 54.58-53.6476C54.58-53.5937 54.598-53.4725 54.625-53.3827C54.6474-53.2928 54.7283-52.8885 54.8046-52.4797C54.881-52.0709 54.9619-51.6576 54.9843-51.5588C55.0023-51.4599 55.0428-51.2623 55.0697-51.1186C55.0967-50.9793 55.1416-50.7457 55.1686-50.602C55.1955-50.4627 55.2314-50.265 55.2539-50.1662C55.2763-50.0674 55.3168-49.8652 55.3437-49.717C55.3707-49.5687 55.4111-49.3666 55.4336-49.2678C55.456-49.1689 55.4964-48.9668 55.5234-48.8185C55.5503-48.6703 55.5908-48.4681 55.6132-48.3693C55.6357-48.2705 55.6717-48.0773 55.6986-47.9426C55.7795-47.4978 55.8423-47.1609 55.8828-46.9767C55.9052-46.8779 55.9457-46.6757 55.9726-46.5275C55.9996-46.3793 56.0445-46.1771 56.0625-46.0783C56.0849-45.9795 56.1254-45.7773 56.1523-45.6291C56.1837-45.4808 56.2242-45.2787 56.2467-45.1799C56.2871-44.9822 56.4219-44.3488 56.4533-44.1691C56.4668-44.1062 56.5072-43.904 56.5432-43.7199C56.5836-43.5357 56.6285-43.3021 56.651-43.2033C56.7229-42.8484 56.7722-42.6597 56.8486-42.4396C56.9474-42.1611 57.1721-41.7029 57.2575-41.6221C57.2934-41.5862 57.3202-41.5413 57.3203-41.5233C57.3203-41.4604 57.9268-40.8629 58.2008-40.6518C58.4569-40.4586 59.0363-40.1442 59.5799-39.9061C60.0111-39.7174 60.2222-39.6186 60.4648-39.5108C60.5996-39.4479 60.7927-39.358 60.8916-39.3131C61.1072-39.2187 61.242-39.2098 61.3768-39.2817C61.525-39.358 61.7182-39.5826 61.7496-39.7084C61.7811-39.8207 61.763-39.9915 61.6777-40.6203C61.6507-40.8045 61.6103-41.1099 61.5834-41.2941C61.5609-41.4783 61.5205-41.7703 61.498-41.9455C61.4711-42.1162 61.4351-42.4127 61.4082-42.5969C61.3857-42.781 61.3453-43.0865 61.3183-43.2707C61.2914-43.4549 61.2509-43.7603 61.2285-43.9445C61.1701-44.4117 61.0937-44.9867 61.0443-45.3595C61.0219-45.5302 60.9814-45.8267 60.9589-46.0109C60.9005-46.5005 60.8242-47.0666 60.7748-47.426C60.7523-47.5966 60.7119-47.8931 60.6894-48.0773C60.667-48.2615 60.6265-48.567 60.5996-48.7511C60.5457-49.1509 60.4783-49.6721 60.4199-50.1662C60.3929-50.3638 60.3525-50.6873 60.33-50.8849C60.3031-51.0826 60.2627-51.397 60.2402-51.5812C60.1099-52.6503 60.0336-52.9109 59.7282-53.3781C59.4451-53.8049 59.0228-54.0924 58.1289-54.4697C58.0435-54.5057 57.8549-54.591 57.7111-54.6539C57.5674-54.7168 57.4416-54.7707 57.4326-54.7707C57.4233-54.7708 57.2886-54.8292 57.1316-54.901C56.9744-54.9728 56.7498-55.0761 56.624-55.1301C56.5027-55.184 56.3005-55.2783 56.1748-55.3322ZM42.9228-74.88C49.2496-74.9024 49.6002-74.8987 50.0178-74.7752C50.7408-74.5693 51.2212-74.1501 51.4682-73.51C51.5042-73.4165 51.5222-72.7614 51.5311-71.4139C51.5401-69.4938 51.5356-69.445 51.4413-69.2242C51.2976-68.8836 51.1494-68.6851 50.862-68.4493C50.5881-68.2285 50.2064-68.0451 49.8472-67.9665C49.7925-67.9533 49.7519-67.9431 49.7218-67.9328L38.4998-67.9328L36.2814-67.9478C35.8189-68.0227 35.1992-68.4007 34.8893-68.8049C34.5616-69.2278 34.5705-69.1644 34.5571-71.2642C34.5481-72.6115 34.557-73.2142 34.593-73.3603C34.7412-73.9367 35.1857-74.4271 35.7605-74.6554C36.0344-74.7677 36.1961-74.8089 36.4251-74.8351C36.5284-74.85 39.4562-74.8687 42.9228-74.88Z"/>
  </g>
  <g id="Regular-S" transform="matrix(1 0 0 1 1403.84 696)">
   <path class="monochrome-0 multicolor-0:tintColor hierarchical-0:primary SFSymbolsPreviewWireframe" d="M44.9803-30.9621C45.4115-30.9621 45.5418-30.9172 45.735-30.7061C45.8249-30.6116 46.7592-29.2236 47.0781-28.716C47.2173-28.5004 47.6531-27.8086 47.7744-27.6154C47.9631-27.3279 48.7178-26.0611 48.866-25.7961C48.9244-25.6838 49.0412-25.4816 49.122-25.3468C49.405-24.8707 49.5982-24.5068 50.1508-23.3927C50.7572-22.1754 50.7617-22.1664 51.0223-21.506C51.3053-20.7828 51.413-20.4055 51.5703-19.6059C51.6377-19.2465 51.6242-17.8405 51.5478-17.4182C51.422-16.704 51.3008-16.3356 50.9729-15.6438C50.6719-15.0149 50.0789-14.1928 49.6432-13.811C49.5803-13.7526 49.459-13.6447 49.3737-13.5684C49.194-13.4067 48.565-12.9485 48.4707-12.9125C48.4347-12.899 48.3134-12.8317 48.2011-12.7688C47.7968-12.5352 46.9568-12.2387 46.4267-12.1444C46.256-12.1129 46.0269-12.068 45.9236-12.0455C45.69-11.9961 44.3558-12.0051 44.0234-12.059C43.5967-12.1264 43.1654-12.2342 42.8151-12.3465C42.4512-12.4678 41.373-12.9889 41.373-13.0383C41.3729-13.0563 41.3145-13.0968 41.2382-13.1282C41.1664-13.1596 41.1035-13.1955 41.1035-13.2135C41.1035-13.2314 41.0406-13.2809 40.9598-13.3303C40.7935-13.4247 39.801-14.4037 39.8007-14.4713C39.8007-14.4937 39.7738-14.5432 39.7424-14.5746C39.4234-14.8981 38.8574-16.0301 38.6687-16.7219C38.5205-17.2745 38.4082-18.0651 38.4082-18.5862C38.4082-18.9097 38.4845-19.6239 38.5654-20.0462C38.6732-20.6032 39.0056-21.5465 39.3964-22.4045C39.603-22.858 40.3078-24.2855 40.3398-24.3136C40.3533-24.3271 40.4521-24.5068 40.5599-24.7179C40.6677-24.9291 40.7711-25.1177 40.7936-25.1447C40.8565-25.2256 41.1529-25.7737 41.1799-25.85C41.1934-25.8949 41.2203-25.9308 41.2428-25.9308C41.2652-25.9309 41.2831-25.9488 41.2832-25.9758C41.2832-25.9982 41.4045-26.2228 41.5527-26.4699C41.7008-26.7168 41.8221-26.9414 41.8222-26.964C41.8222-26.991 41.8402-27.009 41.8582-27.009C41.8762-27.009 41.9391-27.0944 41.993-27.1977C42.0469-27.3055 42.2625-27.6648 42.4691-27.9972C42.6802-28.3296 42.8823-28.6621 42.9228-28.7295C43.0216-28.9047 43.6056-29.8031 43.664-29.8705C43.6865-29.902 43.7315-29.9783 43.7629-30.0412C43.7898-30.104 43.8257-30.1534 43.8437-30.1535C43.8617-30.1535 43.9021-30.2119 43.9336-30.2883C43.965-30.3601 44.0055-30.423 44.028-30.423C44.0459-30.4231 44.0728-30.459 44.0908-30.5084C44.1267-30.6297 44.248-30.7555 44.4277-30.8678C44.558-30.9441 44.6568-30.9621 44.9803-30.9621ZM49.6386-66.5402L49.6386-66.3605C49.6386-66.1314 49.8229-65.6732 49.9801-65.5205C50.043-65.4576 50.344-65.3093 51.413-64.8332C51.5388-64.7793 51.7635-64.676 51.9207-64.6041C52.0777-64.5323 52.2123-64.474 52.2216-64.4738C52.2441-64.4738 52.6215-64.3031 53.0842-64.0875C53.2638-64.0022 53.4164-63.9348 53.4301-63.9347C53.439-63.9347 53.5963-63.8674 53.7805-63.7821C53.9602-63.7012 54.3015-63.5439 54.5351-63.4406C54.7687-63.3373 55.1236-63.1756 55.3212-63.0812C55.5189-62.9914 55.7615-62.8791 55.8603-62.8342C55.9591-62.7892 56.1927-62.686 56.3769-62.5961C56.5611-62.5108 56.8396-62.3805 56.9969-62.3131C57.1496-62.2412 57.4056-62.1199 57.5673-62.048C57.7291-61.9761 57.9941-61.8504 58.1648-61.774C58.331-61.6977 58.6365-61.5539 58.8476-61.4551C59.5035-61.1451 60.4783-60.6914 60.7254-60.5836C60.8017-60.5477 60.9365-60.4938 61.0174-60.4579C61.6058-60.1973 62.4324-59.802 62.7109-59.6402C62.9355-59.51 63.3397-59.2629 63.4072-59.209C63.4341-59.1865 63.5554-59.0967 63.6767-59.0068C64.1125-58.6834 64.6291-58.1713 64.948-57.7535C65.7342-56.7203 66.0576-55.9297 66.3046-54.4653C66.3271-54.3125 66.3675-54.07 66.3945-53.9262C66.417-53.7869 66.4574-53.5263 66.4843-53.3556C66.5113-53.1804 66.5517-52.9289 66.5742-52.7941C66.5966-52.6593 66.6371-52.3988 66.6595-52.2236C66.6865-52.044 66.7315-51.7475 66.7584-51.5723C66.7809-51.3926 66.8213-51.132 66.8437-50.9972C66.8662-50.8625 66.9066-50.5974 66.9336-50.4133C66.9605-50.2291 67.0009-49.964 67.0234-49.8293C67.0459-49.6945 67.0863-49.4295 67.1132-49.2453C67.1402-49.0611 67.1806-48.7961 67.2031-48.6613C67.2255-48.5265 67.266-48.2615 67.2929-48.0773C67.3199-47.8931 67.3603-47.6371 67.3828-47.5158C67.4052-47.39 67.4367-47.2103 67.4457-47.1115C67.4592-47.0127 67.4906-46.8015 67.5175-46.6398C67.54-46.4781 67.5849-46.2041 67.6074-46.0334C67.7332-45.1978 67.7916-44.798 67.8769-44.259C67.9039-44.0748 67.9488-43.8008 67.9668-43.6525C67.9892-43.5043 68.0297-43.2392 68.0566-43.0685C68.0836-42.8933 68.124-42.6103 68.1464-42.4396C68.1734-42.2644 68.2093-41.9949 68.2363-41.8332C68.2588-41.6715 68.2992-41.3974 68.3261-41.2267C68.3486-41.0515 68.389-40.791 68.416-40.6428C68.4429-40.4945 68.4834-40.2295 68.5058-40.0588C68.5283-39.8836 68.5687-39.614 68.5957-39.4523C68.6226-39.2906 68.663-39.0166 68.6855-38.8459C68.7709-38.2664 68.8113-37.9968 68.8652-37.6554C68.9191-37.3141 68.9595-37.0445 69.0449-36.465C69.0673-36.2898 69.1123-36.0203 69.1347-35.8586C69.1617-35.6969 69.2021-35.4363 69.2246-35.2746C69.247-35.1129 69.2875-34.8569 69.3099-34.6996C69.5929-33.0196 69.5795-33.8011 69.5615-20.6525C69.548-14.0805 69.53-8.5101 69.5166-8.2765C69.4896-7.8633 69.4357-7.4814 69.3593-7.1535C69.3369-7.0681 69.2965-6.8929 69.265-6.7717C69.2156-6.5425 69.0673-6.0798 69-5.9181C68.982-5.8687 68.9191-5.707 68.8607-5.5588C68.7574-5.2847 68.3352-4.4088 68.2858-4.3683C68.2723-4.3548 68.2094-4.256 68.151-4.1437C68.0881-4.0314 68.0117-3.9147 67.9803-3.8832C67.9488-3.8518 67.9218-3.8068 67.9218-3.7843C67.9216-3.6898 67.1851-2.814 66.691-2.3199C66.1116-1.7404 65.6309-1.3586 65.0379-0.9947C64.3057-0.5455 63.3892-0.1592 62.7109-0.0109C62.5761 0.016 62.3919 0.0609 62.3066 0.0879C62.0366 0.1687 57.2299 0.2046 46.6469 0.2091C36.0947 0.2136 36.3328 0.2182 35.4658 0.0385C35.1918-0.0199 34.8054-0.1233 34.473-0.2266C33.9025-0.4063 32.3438-1.161 31.6565-1.5967C31.5352-1.6731 31.4229-1.7135 31.4049-1.691C31.3825-1.6685 31.1488-1.3586 30.8837-0.9992C30.4255-0.3838 29.8371 0.2586 29.5361 0.4652C29.2172 0.6898 28.8712 0.8336 28.3906 0.9549C28.1255 1.0223 27.1597 1.0402 26.9306 0.9818C26.8635 0.9609 26.7064 0.9242 26.5762 0.8938L26.5488 0.8875C26.414 0.8561 26.1804 0.7751 26.0322 0.7033C25.884 0.6314 25.7492 0.5731 25.7312 0.5731C25.6997 0.573 25.2416 0.299 25.2011 0.2586C25.1877 0.2451 25.1068 0.1823 25.0214 0.1239C24.8418-0.0019 24.725-0.0963 24.442-0.3478C24.1545-0.6039 24.0916-0.6668 23.7636-1.0441C23.6019-1.2283 23.4627-1.39 23.4492-1.4035C23.4357-1.417 23.3548-1.5158 23.2695-1.6281C23.1842-1.7404 23.0989-1.8482 23.0764-1.8752C23.0584-1.8976 22.9326-2.0728 22.8024-2.257C21.8815-3.5777 21.1852-5.1051 20.8932-6.4572C20.5787-7.9037 20.5967-7.3287 20.6012-16.3625C20.6012-20.8726 20.6281-25.7512 20.6551-27.2112C20.6865-28.6667 20.7314-30.9306 20.7539-32.2424C20.8302-36.2988 20.974-40.5619 21.1132-43.091C21.1357-43.5222 21.1761-44.2994 21.2031-44.8205C21.23-45.3371 21.2705-46.0873 21.2929-46.4826C21.3154-46.8779 21.3558-47.5832 21.3828-48.0549C21.4502-49.2722 21.513-50.3055 21.6523-52.5336C21.7107-53.4186 21.7602-53.724 21.9309-54.2541C22.1959-55.0582 22.5732-55.723 23.247-56.5676C23.4582-56.8326 24.4824-57.812 25.0888-58.3241C25.1876-58.4093 25.2774-58.4856 25.291-58.4992C25.3044-58.5127 25.4258-58.6115 25.5605-58.7238C25.6951-58.836 25.8164-58.9348 25.83-58.9484C25.8435-58.9619 25.9648-59.0607 26.0996-59.173C26.2342-59.2852 26.3554-59.384 26.3691-59.3976C26.3826-59.4111 26.4814-59.492 26.5937-59.5773C26.7059-59.6626 26.8047-59.7434 26.8183-59.757C26.8318-59.775 27.2136-60.0625 27.6718-60.4039C28.13-60.7453 28.5389-61.0508 28.5838-61.0868C28.8489-61.3024 30.9377-62.6456 31.4723-62.951C31.5576-62.9959 31.6969-63.0767 31.7867-63.1261C31.8721-63.1756 31.9889-63.2475 32.0428-63.2789C32.1685-63.3598 33.9159-64.339 34.3652-64.5772C34.5494-64.676 34.7561-64.7928 34.8234-64.8422C34.8863-64.8871 34.9536-64.923 34.9672-64.923C34.9851-64.923 35.1424-65.0129 35.3221-65.1207C35.4972-65.2285 35.7083-65.3453 35.7802-65.3858C35.8566-65.4262 35.969-65.5026 36.0363-65.561C36.1981-65.7092 36.4316-66.1809 36.4316-66.374L36.4316-66.5403L49.6386-66.5402ZM57.5-35.6655C55.3886-35.6744 48.0079-35.661 41.1035-35.643C29.2401-35.6116 28.5344-35.6026 28.3322-35.5262C27.7797-35.3286 27.3035-34.8748 27.0564-34.3312C26.8813-33.9315 26.8857-34.3309 26.8857-21.8205C26.8857-10.4463 26.8902-9.8129 26.9666-9.5748C27.1373-9.0357 27.5237-8.5506 28.0133-8.2542C28.3457-8.052 28.5074-8.0026 28.9521-7.9666C29.1498-7.9532 36.4586-7.9442 45.1914-7.9442C62.1715-7.9532 61.269-7.9397 61.7855-8.1598C62.0685-8.281 62.4594-8.591 62.6481-8.856C62.8862-9.1885 62.985-9.4176 63.0524-9.7815C63.1018-10.0493 63.0703-33.6779 63.0209-33.9494C62.8906-34.6412 62.3471-35.2432 61.5789-35.5576C61.3411-35.6519 61.3094-35.6519 57.5132-35.6654L57.5-35.6655ZM56.1748-55.3322C55.1955-55.7769 55.0113-55.8264 54.7912-55.7051C54.6475-55.6287 54.4004-55.3727 54.4003-55.3008C54.4003-55.2649 54.3779-55.2155 54.3465-55.184C54.3105-55.1481 54.306-55.0717 54.3465-54.8965C54.3734-54.7662 54.4183-54.5146 54.4453-54.3439C54.4722-54.1687 54.5172-53.9666 54.5397-53.8902C54.5621-53.8139 54.58-53.706 54.58-53.6476C54.58-53.5937 54.598-53.4725 54.625-53.3827C54.6474-53.2928 54.7283-52.8885 54.8046-52.4797C54.881-52.0709 54.9619-51.6576 54.9843-51.5588C55.0023-51.4599 55.0428-51.2623 55.0697-51.1186C55.0967-50.9793 55.1416-50.7457 55.1686-50.602C55.1955-50.4627 55.2314-50.265 55.2539-50.1662C55.2763-50.0674 55.3168-49.8652 55.3437-49.717C55.3707-49.5687 55.4111-49.3666 55.4336-49.2678C55.456-49.1689 55.4964-48.9668 55.5234-48.8185C55.5503-48.6703 55.5908-48.4681 55.6132-48.3693C55.6357-48.2705 55.6717-48.0773 55.6986-47.9426C55.7795-47.4978 55.8423-47.1609 55.8828-46.9767C55.9052-46.8779 55.9457-46.6757 55.9726-46.5275C55.9996-46.3793 56.0445-46.1771 56.0625-46.0783C56.0849-45.9795 56.1254-45.7773 56.1523-45.6291C56.1837-45.4808 56.2242-45.2787 56.2467-45.1799C56.2871-44.9822 56.4219-44.3488 56.4533-44.1691C56.4668-44.1062 56.5072-43.904 56.5432-43.7199C56.5836-43.5357 56.6285-43.3021 56.651-43.2033C56.7229-42.8484 56.7722-42.6597 56.8486-42.4396C56.9474-42.1611 57.1721-41.7029 57.2575-41.6221C57.2934-41.5862 57.3202-41.5413 57.3203-41.5233C57.3203-41.4604 57.9268-40.8629 58.2008-40.6518C58.4569-40.4586 59.0363-40.1442 59.5799-39.9061C60.0111-39.7174 60.2222-39.6186 60.4648-39.5108C60.5996-39.4479 60.7927-39.358 60.8916-39.3131C61.1072-39.2187 61.242-39.2098 61.3768-39.2817C61.525-39.358 61.7182-39.5826 61.7496-39.7084C61.7811-39.8207 61.763-39.9915 61.6777-40.6203C61.6507-40.8045 61.6103-41.1099 61.5834-41.2941C61.5609-41.4783 61.5205-41.7703 61.498-41.9455C61.4711-42.1162 61.4351-42.4127 61.4082-42.5969C61.3857-42.781 61.3453-43.0865 61.3183-43.2707C61.2914-43.4549 61.2509-43.7603 61.2285-43.9445C61.1701-44.4117 61.0937-44.9867 61.0443-45.3595C61.0219-45.5302 60.9814-45.8267 60.9589-46.0109C60.9005-46.5005 60.8242-47.0666 60.7748-47.426C60.7523-47.5966 60.7119-47.8931 60.6894-48.0773C60.667-48.2615 60.6265-48.567 60.5996-48.7511C60.5457-49.1509 60.4783-49.6721 60.4199-50.1662C60.3929-50.3638 60.3525-50.6873 60.33-50.8849C60.3031-51.0826 60.2627-51.397 60.2402-51.5812C60.1099-52.6503 60.0336-52.9109 59.7282-53.3781C59.4451-53.8049 59.0228-54.0924 58.1289-54.4697C58.0435-54.5057 57.8549-54.591 57.7111-54.6539C57.5674-54.7168 57.4416-54.7707 57.4326-54.7707C57.4233-54.7708 57.2886-54.8292 57.1316-54.901C56.9744-54.9728 56.7498-55.0761 56.624-55.1301C56.5027-55.184 56.3005-55.2783 56.1748-55.3322ZM42.9228-74.88C49.2496-74.9024 49.6002-74.8987 50.0178-74.7752C50.7408-74.5693 51.2212-74.1501 51.4682-73.51C51.5042-73.4165 51.5222-72.7614 51.5311-71.4139C51.5401-69.4938 51.5356-69.445 51.4413-69.2242C51.2976-68.8836 51.1494-68.6851 50.862-68.4493C50.5881-68.2285 50.2064-68.0451 49.8472-67.9665C49.7925-67.9533 49.7519-67.9431 49.7218-67.9328L38.4998-67.9328L36.2814-67.9478C35.8189-68.0227 35.1992-68.4007 34.8893-68.8049C34.5616-69.2278 34.5705-69.1644 34.5571-71.2642C34.5481-72.6115 34.557-73.2142 34.593-73.3603C34.7412-73.9367 35.1857-74.4271 35.7605-74.6554C36.0344-74.7677 36.1961-74.8089 36.4251-74.8351C36.5284-74.85 39.4562-74.8687 42.9228-74.88Z"/>
  </g>
  <g id="Ultralight-S" transform="matrix(1 0 0 1 513.711 696)">
   <path class="monochrome-0 multicolor-0:tintColor hierarchical-0:primary SFSymbolsPreviewWireframe" d="M44.9803-30.9621C45.4115-30.9621 45.5418-30.9172 45.735-30.7061C45.8249-30.6116 46.7592-29.2236 47.0781-28.716C47.2173-28.5004 47.6531-27.8086 47.7744-27.6154C47.9631-27.3279 48.7178-26.0611 48.866-25.7961C48.9244-25.6838 49.0412-25.4816 49.122-25.3468C49.405-24.8707 49.5982-24.5068 50.1508-23.3927C50.7572-22.1754 50.7617-22.1664 51.0223-21.506C51.3053-20.7828 51.413-20.4055 51.5703-19.6059C51.6377-19.2465 51.6242-17.8405 51.5478-17.4182C51.422-16.704 51.3008-16.3356 50.9729-15.6438C50.6719-15.0149 50.0789-14.1928 49.6432-13.811C49.5803-13.7526 49.459-13.6447 49.3737-13.5684C49.194-13.4067 48.565-12.9485 48.4707-12.9125C48.4347-12.899 48.3134-12.8317 48.2011-12.7688C47.7968-12.5352 46.9568-12.2387 46.4267-12.1444C46.256-12.1129 46.0269-12.068 45.9236-12.0455C45.69-11.9961 44.3558-12.0051 44.0234-12.059C43.5967-12.1264 43.1654-12.2342 42.8151-12.3465C42.4512-12.4678 41.373-12.9889 41.373-13.0383C41.3729-13.0563 41.3145-13.0968 41.2382-13.1282C41.1664-13.1596 41.1035-13.1955 41.1035-13.2135C41.1035-13.2314 41.0406-13.2809 40.9598-13.3303C40.7935-13.4247 39.801-14.4037 39.8007-14.4713C39.8007-14.4937 39.7738-14.5432 39.7424-14.5746C39.4234-14.8981 38.8574-16.0301 38.6687-16.7219C38.5205-17.2745 38.4082-18.0651 38.4082-18.5862C38.4082-18.9097 38.4845-19.6239 38.5654-20.0462C38.6732-20.6032 39.0056-21.5465 39.3964-22.4045C39.603-22.858 40.3078-24.2855 40.3398-24.3136C40.3533-24.3271 40.4521-24.5068 40.5599-24.7179C40.6677-24.9291 40.7711-25.1177 40.7936-25.1447C40.8565-25.2256 41.1529-25.7737 41.1799-25.85C41.1934-25.8949 41.2203-25.9308 41.2428-25.9308C41.2652-25.9309 41.2831-25.9488 41.2832-25.9758C41.2832-25.9982 41.4045-26.2228 41.5527-26.4699C41.7008-26.7168 41.8221-26.9414 41.8222-26.964C41.8222-26.991 41.8402-27.009 41.8582-27.009C41.8762-27.009 41.9391-27.0944 41.993-27.1977C42.0469-27.3055 42.2625-27.6648 42.4691-27.9972C42.6802-28.3296 42.8823-28.6621 42.9228-28.7295C43.0216-28.9047 43.6056-29.8031 43.664-29.8705C43.6865-29.902 43.7315-29.9783 43.7629-30.0412C43.7898-30.104 43.8257-30.1534 43.8437-30.1535C43.8617-30.1535 43.9021-30.2119 43.9336-30.2883C43.965-30.3601 44.0055-30.423 44.028-30.423C44.0459-30.4231 44.0728-30.459 44.0908-30.5084C44.1267-30.6297 44.248-30.7555 44.4277-30.8678C44.558-30.9441 44.6568-30.9621 44.9803-30.9621ZM49.6386-66.5402L49.6386-66.3605C49.6386-66.1314 49.8229-65.6732 49.9801-65.5205C50.043-65.4576 50.344-65.3093 51.413-64.8332C51.5388-64.7793 51.7635-64.676 51.9207-64.6041C52.0777-64.5323 52.2123-64.474 52.2216-64.4738C52.2441-64.4738 52.6215-64.3031 53.0842-64.0875C53.2638-64.0022 53.4164-63.9348 53.4301-63.9347C53.439-63.9347 53.5963-63.8674 53.7805-63.7821C53.9602-63.7012 54.3015-63.5439 54.5351-63.4406C54.7687-63.3373 55.1236-63.1756 55.3212-63.0812C55.5189-62.9914 55.7615-62.8791 55.8603-62.8342C55.9591-62.7892 56.1927-62.686 56.3769-62.5961C56.5611-62.5108 56.8396-62.3805 56.9969-62.3131C57.1496-62.2412 57.4056-62.1199 57.5673-62.048C57.7291-61.9761 57.9941-61.8504 58.1648-61.774C58.331-61.6977 58.6365-61.5539 58.8476-61.4551C59.5035-61.1451 60.4783-60.6914 60.7254-60.5836C60.8017-60.5477 60.9365-60.4938 61.0174-60.4579C61.6058-60.1973 62.4324-59.802 62.7109-59.6402C62.9355-59.51 63.3397-59.2629 63.4072-59.209C63.4341-59.1865 63.5554-59.0967 63.6767-59.0068C64.1125-58.6834 64.6291-58.1713 64.948-57.7535C65.7342-56.7203 66.0576-55.9297 66.3046-54.4653C66.3271-54.3125 66.3675-54.07 66.3945-53.9262C66.417-53.7869 66.4574-53.5263 66.4843-53.3556C66.5113-53.1804 66.5517-52.9289 66.5742-52.7941C66.5966-52.6593 66.6371-52.3988 66.6595-52.2236C66.6865-52.044 66.7315-51.7475 66.7584-51.5723C66.7809-51.3926 66.8213-51.132 66.8437-50.9972C66.8662-50.8625 66.9066-50.5974 66.9336-50.4133C66.9605-50.2291 67.0009-49.964 67.0234-49.8293C67.0459-49.6945 67.0863-49.4295 67.1132-49.2453C67.1402-49.0611 67.1806-48.7961 67.2031-48.6613C67.2255-48.5265 67.266-48.2615 67.2929-48.0773C67.3199-47.8931 67.3603-47.6371 67.3828-47.5158C67.4052-47.39 67.4367-47.2103 67.4457-47.1115C67.4592-47.0127 67.4906-46.8015 67.5175-46.6398C67.54-46.4781 67.5849-46.2041 67.6074-46.0334C67.7332-45.1978 67.7916-44.798 67.8769-44.259C67.9039-44.0748 67.9488-43.8008 67.9668-43.6525C67.9892-43.5043 68.0297-43.2392 68.0566-43.0685C68.0836-42.8933 68.124-42.6103 68.1464-42.4396C68.1734-42.2644 68.2093-41.9949 68.2363-41.8332C68.2588-41.6715 68.2992-41.3974 68.3261-41.2267C68.3486-41.0515 68.389-40.791 68.416-40.6428C68.4429-40.4945 68.4834-40.2295 68.5058-40.0588C68.5283-39.8836 68.5687-39.614 68.5957-39.4523C68.6226-39.2906 68.663-39.0166 68.6855-38.8459C68.7709-38.2664 68.8113-37.9968 68.8652-37.6554C68.9191-37.3141 68.9595-37.0445 69.0449-36.465C69.0673-36.2898 69.1123-36.0203 69.1347-35.8586C69.1617-35.6969 69.2021-35.4363 69.2246-35.2746C69.247-35.1129 69.2875-34.8569 69.3099-34.6996C69.5929-33.0196 69.5795-33.8011 69.5615-20.6525C69.548-14.0805 69.53-8.5101 69.5166-8.2765C69.4896-7.8633 69.4357-7.4814 69.3593-7.1535C69.3369-7.0681 69.2965-6.8929 69.265-6.7717C69.2156-6.5425 69.0673-6.0798 69-5.9181C68.982-5.8687 68.9191-5.707 68.8607-5.5588C68.7574-5.2847 68.3352-4.4088 68.2858-4.3683C68.2723-4.3548 68.2094-4.256 68.151-4.1437C68.0881-4.0314 68.0117-3.9147 67.9803-3.8832C67.9488-3.8518 67.9218-3.8068 67.9218-3.7843C67.9216-3.6898 67.1851-2.814 66.691-2.3199C66.1116-1.7404 65.6309-1.3586 65.0379-0.9947C64.3057-0.5455 63.3892-0.1592 62.7109-0.0109C62.5761 0.016 62.3919 0.0609 62.3066 0.0879C62.0366 0.1687 57.2299 0.2046 46.6469 0.2091C36.0947 0.2136 36.3328 0.2182 35.4658 0.0385C35.1918-0.0199 34.8054-0.1233 34.473-0.2266C33.9025-0.4063 32.3438-1.161 31.6565-1.5967C31.5352-1.6731 31.4229-1.7135 31.4049-1.691C31.3825-1.6685 31.1488-1.3586 30.8837-0.9992C30.4255-0.3838 29.8371 0.2586 29.5361 0.4652C29.2172 0.6898 28.8712 0.8336 28.3906 0.9549C28.1255 1.0223 27.1597 1.0402 26.9306 0.9818C26.8635 0.9609 26.7064 0.9242 26.5762 0.8938L26.5488 0.8875C26.414 0.8561 26.1804 0.7751 26.0322 0.7033C25.884 0.6314 25.7492 0.5731 25.7312 0.5731C25.6997 0.573 25.2416 0.299 25.2011 0.2586C25.1877 0.2451 25.1068 0.1823 25.0214 0.1239C24.8418-0.0019 24.725-0.0963 24.442-0.3478C24.1545-0.6039 24.0916-0.6668 23.7636-1.0441C23.6019-1.2283 23.4627-1.39 23.4492-1.4035C23.4357-1.417 23.3548-1.5158 23.2695-1.6281C23.1842-1.7404 23.0989-1.8482 23.0764-1.8752C23.0584-1.8976 22.9326-2.0728 22.8024-2.257C21.8815-3.5777 21.1852-5.1051 20.8932-6.4572C20.5787-7.9037 20.5967-7.3287 20.6012-16.3625C20.6012-20.8726 20.6281-25.7512 20.6551-27.2112C20.6865-28.6667 20.7314-30.9306 20.7539-32.2424C20.8302-36.2988 20.974-40.5619 21.1132-43.091C21.1357-43.5222 21.1761-44.2994 21.2031-44.8205C21.23-45.3371 21.2705-46.0873 21.2929-46.4826C21.3154-46.8779 21.3558-47.5832 21.3828-48.0549C21.4502-49.2722 21.513-50.3055 21.6523-52.5336C21.7107-53.4186 21.7602-53.724 21.9309-54.2541C22.1959-55.0582 22.5732-55.723 23.247-56.5676C23.4582-56.8326 24.4824-57.812 25.0888-58.3241C25.1876-58.4093 25.2774-58.4856 25.291-58.4992C25.3044-58.5127 25.4258-58.6115 25.5605-58.7238C25.6951-58.836 25.8164-58.9348 25.83-58.9484C25.8435-58.9619 25.9648-59.0607 26.0996-59.173C26.2342-59.2852 26.3554-59.384 26.3691-59.3976C26.3826-59.4111 26.4814-59.492 26.5937-59.5773C26.7059-59.6626 26.8047-59.7434 26.8183-59.757C26.8318-59.775 27.2136-60.0625 27.6718-60.4039C28.13-60.7453 28.5389-61.0508 28.5838-61.0868C28.8489-61.3024 30.9377-62.6456 31.4723-62.951C31.5576-62.9959 31.6969-63.0767 31.7867-63.1261C31.8721-63.1756 31.9889-63.2475 32.0428-63.2789C32.1685-63.3598 33.9159-64.339 34.3652-64.5772C34.5494-64.676 34.7561-64.7928 34.8234-64.8422C34.8863-64.8871 34.9536-64.923 34.9672-64.923C34.9851-64.923 35.1424-65.0129 35.3221-65.1207C35.4972-65.2285 35.7083-65.3453 35.7802-65.3858C35.8566-65.4262 35.969-65.5026 36.0363-65.561C36.1981-65.7092 36.4316-66.1809 36.4316-66.374L36.4316-66.5403L49.6386-66.5402ZM57.5-35.6655C55.3886-35.6744 48.0079-35.661 41.1035-35.643C29.2401-35.6116 28.5344-35.6026 28.3322-35.5262C27.7797-35.3286 27.3035-34.8748 27.0564-34.3312C26.8813-33.9315 26.8857-34.3309 26.8857-21.8205C26.8857-10.4463 26.8902-9.8129 26.9666-9.5748C27.1373-9.0357 27.5237-8.5506 28.0133-8.2542C28.3457-8.052 28.5074-8.0026 28.9521-7.9666C29.1498-7.9532 36.4586-7.9442 45.1914-7.9442C62.1715-7.9532 61.269-7.9397 61.7855-8.1598C62.0685-8.281 62.4594-8.591 62.6481-8.856C62.8862-9.1885 62.985-9.4176 63.0524-9.7815C63.1018-10.0493 63.0703-33.6779 63.0209-33.9494C62.8906-34.6412 62.3471-35.2432 61.5789-35.5576C61.3411-35.6519 61.3094-35.6519 57.5132-35.6654L57.5-35.6655ZM56.1748-55.3322C55.1955-55.7769 55.0113-55.8264 54.7912-55.7051C54.6475-55.6287 54.4004-55.3727 54.4003-55.3008C54.4003-55.2649 54.3779-55.2155 54.3465-55.184C54.3105-55.1481 54.306-55.0717 54.3465-54.8965C54.3734-54.7662 54.4183-54.5146 54.4453-54.3439C54.4722-54.1687 54.5172-53.9666 54.5397-53.8902C54.5621-53.8139 54.58-53.706 54.58-53.6476C54.58-53.5937 54.598-53.4725 54.625-53.3827C54.6474-53.2928 54.7283-52.8885 54.8046-52.4797C54.881-52.0709 54.9619-51.6576 54.9843-51.5588C55.0023-51.4599 55.0428-51.2623 55.0697-51.1186C55.0967-50.9793 55.1416-50.7457 55.1686-50.602C55.1955-50.4627 55.2314-50.265 55.2539-50.1662C55.2763-50.0674 55.3168-49.8652 55.3437-49.717C55.3707-49.5687 55.4111-49.3666 55.4336-49.2678C55.456-49.1689 55.4964-48.9668 55.5234-48.8185C55.5503-48.6703 55.5908-48.4681 55.6132-48.3693C55.6357-48.2705 55.6717-48.0773 55.6986-47.9426C55.7795-47.4978 55.8423-47.1609 55.8828-46.9767C55.9052-46.8779 55.9457-46.6757 55.9726-46.5275C55.9996-46.3793 56.0445-46.1771 56.0625-46.0783C56.0849-45.9795 56.1254-45.7773 56.1523-45.6291C56.1837-45.4808 56.2242-45.2787 56.2467-45.1799C56.2871-44.9822 56.4219-44.3488 56.4533-44.1691C56.4668-44.1062 56.5072-43.904 56.5432-43.7199C56.5836-43.5357 56.6285-43.3021 56.651-43.2033C56.7229-42.8484 56.7722-42.6597 56.8486-42.4396C56.9474-42.1611 57.1721-41.7029 57.2575-41.6221C57.2934-41.5862 57.3202-41.5413 57.3203-41.5233C57.3203-41.4604 57.9268-40.8629 58.2008-40.6518C58.4569-40.4586 59.0363-40.1442 59.5799-39.9061C60.0111-39.7174 60.2222-39.6186 60.4648-39.5108C60.5996-39.4479 60.7927-39.358 60.8916-39.3131C61.1072-39.2187 61.242-39.2098 61.3768-39.2817C61.525-39.358 61.7182-39.5826 61.7496-39.7084C61.7811-39.8207 61.763-39.9915 61.6777-40.6203C61.6507-40.8045 61.6103-41.1099 61.5834-41.2941C61.5609-41.4783 61.5205-41.7703 61.498-41.9455C61.4711-42.1162 61.4351-42.4127 61.4082-42.5969C61.3857-42.781 61.3453-43.0865 61.3183-43.2707C61.2914-43.4549 61.2509-43.7603 61.2285-43.9445C61.1701-44.4117 61.0937-44.9867 61.0443-45.3595C61.0219-45.5302 60.9814-45.8267 60.9589-46.0109C60.9005-46.5005 60.8242-47.0666 60.7748-47.426C60.7523-47.5966 60.7119-47.8931 60.6894-48.0773C60.667-48.2615 60.6265-48.567 60.5996-48.7511C60.5457-49.1509 60.4783-49.6721 60.4199-50.1662C60.3929-50.3638 60.3525-50.6873 60.33-50.8849C60.3031-51.0826 60.2627-51.397 60.2402-51.5812C60.1099-52.6503 60.0336-52.9109 59.7282-53.3781C59.4451-53.8049 59.0228-54.0924 58.1289-54.4697C58.0435-54.5057 57.8549-54.591 57.7111-54.6539C57.5674-54.7168 57.4416-54.7707 57.4326-54.7707C57.4233-54.7708 57.2886-54.8292 57.1316-54.901C56.9744-54.9728 56.7498-55.0761 56.624-55.1301C56.5027-55.184 56.3005-55.2783 56.1748-55.3322ZM42.9228-74.88C49.2496-74.9024 49.6002-74.8987 50.0178-74.7752C50.7408-74.5693 51.2212-74.1501 51.4682-73.51C51.5042-73.4165 51.5222-72.7614 51.5311-71.4139C51.5401-69.4938 51.5356-69.445 51.4413-69.2242C51.2976-68.8836 51.1494-68.6851 50.862-68.4493C50.5881-68.2285 50.2064-68.0451 49.8472-67.9665C49.7925-67.9533 49.7519-67.9431 49.7218-67.9328L38.4998-67.9328L36.2814-67.9478C35.8189-68.0227 35.1992-68.4007 34.8893-68.8049C34.5616-69.2278 34.5705-69.1644 34.5571-71.2642C34.5481-72.6115 34.557-73.2142 34.593-73.3603C34.7412-73.9367 35.1857-74.4271 35.7605-74.6554C36.0344-74.7677 36.1961-74.8089 36.4251-74.8351C36.5284-74.85 39.4562-74.8687 42.9228-74.88Z"/>
  </g>
 </g>
</svg>
