<?xml version="1.0" encoding="UTF-8"?>
<!DOCTYPE svg
PUBLIC "-//W3C//DTD SVG 1.1//EN"
     "http://www.w3.org/Graphics/SVG/1.1/DTD/svg11.dtd">
     <!--Created with SF Symbol Generator (v1.0.0)-->

<svg version="1.1" xmlns="http://www.w3.org/2000/svg" xmlns:xlink="http://www.w3.org/1999/xlink" width="3300" height="2200">
<!--glyph: "jug.fill.medium", point size: 100.0-->
<style>.SFSymbolsPreviewWireframe {fill:none;opacity:1.0;stroke:black;stroke-width:0.5}
</style>
<g id="Notes">
<rect height="2200" id="artboard" style="fill:white;opacity:1" width="3300" x="0" y="0"/>
<line style="fill:none;stroke:black;opacity:1;stroke-width:0.5;" x1="263" x2="3036" y1="292" y2="292"/>
<text style="stroke:none;fill:black;font-family:sans-serif;font-size:13;font-weight:bold;" transform="matrix(1 0 0 1 263 322)">Weight/Scale Variations</text>
<text style="stroke:none;fill:black;font-family:sans-serif;font-size:13;text-anchor:middle;" transform="matrix(1 0 0 1 559.711 322)">Ultralight</text>
<text style="stroke:none;fill:black;font-family:sans-serif;font-size:13;text-anchor:middle;" transform="matrix(1 0 0 1 856.422 322)">Thin</text>
<text style="stroke:none;fill:black;font-family:sans-serif;font-size:13;text-anchor:middle;" transform="matrix(1 0 0 1 1153.13 322)">Light</text>
<text style="stroke:none;fill:black;font-family:sans-serif;font-size:13;text-anchor:middle;" transform="matrix(1 0 0 1 1449.84 322)">Regular</text>
<text style="stroke:none;fill:black;font-family:sans-serif;font-size:13;text-anchor:middle;" transform="matrix(1 0 0 1 1746.56 322)">Medium</text>
<text style="stroke:none;fill:black;font-family:sans-serif;font-size:13;text-anchor:middle;" transform="matrix(1 0 0 1 2043.27 322)">Semibold</text>
<text style="stroke:none;fill:black;font-family:sans-serif;font-size:13;text-anchor:middle;" transform="matrix(1 0 0 1 2339.98 322)">Bold</text>
<text style="stroke:none;fill:black;font-family:sans-serif;font-size:13;text-anchor:middle;" transform="matrix(1 0 0 1 2636.69 322)">Heavy</text>
<text style="stroke:none;fill:black;font-family:sans-serif;font-size:13;text-anchor:middle;" transform="matrix(1 0 0 1 2933.4 322)">Black</text>
<line style="fill:none;stroke:black;opacity:1;stroke-width:0.5;" x1="263" x2="3036" y1="1903" y2="1903"/>
<text style="stroke:none;fill:black;font-family:sans-serif;font-size:13;font-weight:bold;" transform="matrix(1 0 0 1 263 1953)">Design Variations</text>
<text style="stroke:none;fill:black;font-family:sans-serif;font-size:13;" transform="matrix(1 0 0 1 263 1971)">Symbols are supported in up to nine weights and three scales.</text>
<text style="stroke:none;fill:black;font-family:sans-serif;font-size:13;" transform="matrix(1 0 0 1 263 1989)">For optimal layout with text and other symbols, vertically align</text>
<text style="stroke:none;fill:black;font-family:sans-serif;font-size:13;" transform="matrix(1 0 0 1 263 2007)">symbols with the adjacent text.</text>
<line style="fill:none;stroke:#00AEEF;stroke-width:0.5;opacity:1.0;" x1="776" x2="776" y1="1919" y2="1933"/>
<text style="stroke:none;fill:black;font-family:sans-serif;font-size:13;font-weight:bold;" transform="matrix(1 0 0 1 776 1953)">Margins</text>
<text style="stroke:none;fill:black;font-family:sans-serif;font-size:13;" transform="matrix(1 0 0 1 776 1971)">Leading and trailing margins on the left and right side of each symbol</text>
<text style="stroke:none;fill:black;font-family:sans-serif;font-size:13;" transform="matrix(1 0 0 1 776 1989)">can be adjusted by modifying the x-location of the margin guidelines.</text>
<text style="stroke:none;fill:black;font-family:sans-serif;font-size:13;" transform="matrix(1 0 0 1 776 2007)">Modifications are automatically applied proportionally to all</text>
<text style="stroke:none;fill:black;font-family:sans-serif;font-size:13;" transform="matrix(1 0 0 1 776 2025)">scales and weights.</text>
<text style="stroke:none;fill:black;font-family:sans-serif;font-size:13;font-weight:bold;" transform="matrix(1 0 0 1 1289 1953)">Exporting</text>
<text style="stroke:none;fill:black;font-family:sans-serif;font-size:13;" transform="matrix(1 0 0 1 1289 1971)">Symbols should be outlined when exporting to ensure the</text>
<text style="stroke:none;fill:black;font-family:sans-serif;font-size:13;" transform="matrix(1 0 0 1 1289 1989)">design is preserved when submitting to Xcode.</text>
<text id="template-version" style="stroke:none;fill:black;font-family:sans-serif;font-size:13;text-anchor:end;" transform="matrix(1 0 0 1 3036 1933)">Template v.5.0</text>
<text style="stroke:none;fill:black;font-family:sans-serif;font-size:13;text-anchor:end;" transform="matrix(1 0 0 1 3036 1951)">Requires Xcode 15 or greater</text>
<text id="descriptive-name" style="stroke:none;fill:black;font-family:sans-serif;font-size:13;text-anchor:end;" transform="matrix(1 0 0 1 3036 1969)">Generated from jug.fill</text>
<text style="stroke:none;fill:black;font-family:sans-serif;font-size:13;text-anchor:end;" transform="matrix(1 0 0 1 3036 1987)">Typeset at 100.0 points</text>
<text style="stroke:none;fill:black;font-family:sans-serif;font-size:13;" transform="matrix(1 0 0 1 263 726)">Small</text>
<text style="stroke:none;fill:black;font-family:sans-serif;font-size:13;" transform="matrix(1 0 0 1 263 1156)">Medium</text>
<text style="stroke:none;fill:black;font-family:sans-serif;font-size:13;" transform="matrix(1 0 0 1 263 1586)">Large</text>
</g>
<g id="Guides">
<g id="H-reference" style="fill:#27AAE1;stroke:none;" transform="matrix(1 0 0 1 339 696)">
 <path d="M0.993654 0L3.63775 0L29.3281-67.1323L30.0303-67.1323L30.0303-70.459L28.1226-70.459ZM11.6885-24.4799L46.9815-24.4799L46.2315-26.7285L12.4385-26.7285ZM55.1196 0L57.7637 0L30.6382-70.459L29.4326-70.459L29.4326-67.1323Z"/>
</g>
<line id="Baseline-S" style="fill:none;stroke:#27AAE1;opacity:1;stroke-width:0.5;" x1="263" x2="3036" y1="696" y2="696"/>
<line id="Capline-S" style="fill:none;stroke:#27AAE1;opacity:1;stroke-width:0.5;" x1="263" x2="3036" y1="625.541" y2="625.541"/>
<g id="H-reference" style="fill:#27AAE1;stroke:none;" transform="matrix(1 0 0 1 339 1126)">
 <path d="M0.993654 0L3.63775 0L29.3281-67.1323L30.0303-67.1323L30.0303-70.459L28.1226-70.459ZM11.6885-24.4799L46.9815-24.4799L46.2315-26.7285L12.4385-26.7285ZM55.1196 0L57.7637 0L30.6382-70.459L29.4326-70.459L29.4326-67.1323Z"/>
</g>
<line id="Baseline-M" style="fill:none;stroke:#27AAE1;opacity:1;stroke-width:0.5;" x1="263" x2="3036" y1="1126" y2="1126"/>
<line id="Capline-M" style="fill:none;stroke:#27AAE1;opacity:1;stroke-width:0.5;" x1="263" x2="3036" y1="1055.54" y2="1055.54"/>
<g id="H-reference" style="fill:#27AAE1;stroke:none;" transform="matrix(1 0 0 1 339 1556)">
 <path d="M0.993654 0L3.63775 0L29.3281-67.1323L30.0303-67.1323L30.0303-70.459L28.1226-70.459ZM11.6885-24.4799L46.9815-24.4799L46.2315-26.7285L12.4385-26.7285ZM55.1196 0L57.7637 0L30.6382-70.459L29.4326-70.459L29.4326-67.1323Z"/>
</g>
<line id="Baseline-L" style="fill:none;stroke:#27AAE1;opacity:1;stroke-width:0.5;" x1="263" x2="3036" y1="1556" y2="1556"/>
<line id="Capline-L" style="fill:none;stroke:#27AAE1;opacity:1;stroke-width:0.5;" x1="263" x2="3036" y1="1485.54" y2="1485.54"/>
<line id="left-margin-Ultralight-S" style="fill:none;stroke:#00AEEF;stroke-width:0.5;opacity:1.0;" x1="513.711" x2="513.711" y1="600.785" y2="720.121"/>
<line id="right-margin-Ultralight-S" style="fill:none;stroke:#00AEEF;stroke-width:0.5;opacity:1.0;" x1="605.711" x2="605.711" y1="600.785" y2="720.121"/>
<line id="left-margin-Regular-S" style="fill:none;stroke:#00AEEF;stroke-width:0.5;opacity:1.0;" x1="1403.84" x2="1403.84" y1="600.785" y2="720.121"/>
<line id="right-margin-Regular-S" style="fill:none;stroke:#00AEEF;stroke-width:0.5;opacity:1.0;" x1="1495.84" x2="1495.84" y1="600.785" y2="720.121"/>
<line id="left-margin-Black-S" style="fill:none;stroke:#00AEEF;stroke-width:0.5;opacity:1.0;" x1="2887.4" x2="2887.4" y1="600.785" y2="720.121"/>
<line id="right-margin-Black-S" style="fill:none;stroke:#00AEEF;stroke-width:0.5;opacity:1.0;" x1="2979.4" x2="2979.4" y1="600.785" y2="720.121"/>
</g>
<g id="Symbols">
<g id="Ultralight-S" transform="matrix(1 0 0 1 513.711 614.7705)">
<svg width="92" height="92" viewBox="0 0 92 92" fill="none" xmlns="http://www.w3.org/2000/svg">
<g id="jug.fill">
<g id="Union">
<path d="M45.9011 53.2412C46.4238 53.2412 46.5818 53.2957 46.8159 53.5516C46.925 53.6663 48.0572 55.3484 48.4438 55.9636C48.6126 56.2249 49.1406 57.0633 49.2876 57.2974C49.5163 57.6459 50.431 59.1812 50.6107 59.5025C50.6815 59.6386 50.823 59.8836 50.921 60.0469C51.2641 60.624 51.4981 61.065 52.1678 62.4153C52.9028 63.8907 52.9083 63.9017 53.2241 64.702C53.5671 65.5786 53.6977 66.0359 53.8883 67.005C53.9699 67.4406 53.9536 69.1447 53.8611 69.6565C53.7086 70.5222 53.5616 70.9687 53.1642 71.8071C52.7994 72.5693 52.0807 73.5657 51.5526 74.0285C51.4764 74.0992 51.3294 74.2299 51.2259 74.3225C51.0082 74.5185 50.246 75.0738 50.1316 75.1174C50.088 75.1337 49.941 75.2154 49.8048 75.2916C49.3148 75.5747 48.2967 75.934 47.6543 76.0484C47.4474 76.0865 47.1697 76.1409 47.0445 76.1681C46.7614 76.228 45.1444 76.2171 44.7415 76.1518C44.2243 76.0701 43.7015 75.9395 43.2769 75.8034C42.8358 75.6564 41.5292 75.0248 41.5292 74.9649C41.5292 74.9431 41.4584 74.8941 41.3658 74.856C41.2787 74.8179 41.2026 74.7743 41.2026 74.7526C41.2025 74.7308 41.1263 74.6709 41.0283 74.611C40.8269 74.4967 39.6236 73.3098 39.6236 73.2281C39.6236 73.2009 39.5909 73.141 39.5528 73.1029C39.1663 72.7109 38.4803 71.3389 38.2516 70.5004C38.0719 69.8308 37.9358 68.8725 37.9358 68.2409C37.9358 67.8489 38.0284 66.9833 38.1264 66.4715C38.2571 65.7964 38.6599 64.653 39.1336 63.6131C39.384 63.0633 40.2386 61.3324 40.2769 61.2992C40.2933 61.2828 40.4131 61.065 40.5437 60.8091C40.6744 60.5533 40.7997 60.3246 40.8269 60.2919C40.9031 60.1939 41.2624 59.5297 41.295 59.4371C41.3114 59.3827 41.3441 59.3391 41.3713 59.3391C41.3985 59.3391 41.4203 59.3174 41.4203 59.2847C41.4203 59.2575 41.5673 58.9852 41.747 58.6858C41.9266 58.3864 42.0736 58.1142 42.0736 58.0869C42.0736 58.0542 42.0955 58.0324 42.1172 58.0324C42.1391 58.0323 42.2152 57.9289 42.2805 57.8038C42.3459 57.6731 42.6072 57.2375 42.8577 56.8346C43.1135 56.4317 43.3586 56.0288 43.4076 55.9471C43.5275 55.7347 44.2352 54.646 44.3059 54.5643C44.3332 54.5262 44.3876 54.4336 44.4257 54.3574C44.4584 54.2812 44.5019 54.2213 44.5237 54.2213C44.5455 54.2212 44.5945 54.1505 44.6326 54.058C44.6707 53.9709 44.7197 53.8946 44.7469 53.8946C44.7687 53.8946 44.8014 53.851 44.8232 53.7912C44.8667 53.6442 45.0137 53.4917 45.2315 53.3556C45.3894 53.2631 45.5091 53.2412 45.9011 53.2412Z" fill="black"/>
<path fill-rule="evenodd" clip-rule="evenodd" d="M51.5471 10.3384C51.5471 10.616 51.7704 11.1714 51.9609 11.3565C52.0371 11.4327 52.4019 11.6124 53.6977 12.1896C53.8501 12.2549 54.1224 12.38 54.313 12.4672C54.5035 12.5542 54.6667 12.625 54.6777 12.6251C54.7049 12.6251 55.1623 12.832 55.7231 13.0933C55.9409 13.1968 56.126 13.2784 56.1423 13.2784C56.1534 13.2785 56.3439 13.3601 56.567 13.4635C56.7848 13.5615 57.1985 13.7521 57.4817 13.8773C57.7648 14.0025 58.1949 14.1986 58.4345 14.3129C58.674 14.4218 58.968 14.5579 59.0878 14.6124C59.2076 14.6668 59.4907 14.792 59.7139 14.9009C59.9371 15.0044 60.2747 15.1622 60.4653 15.2439C60.6504 15.331 60.9607 15.478 61.1567 15.5651C61.3527 15.6522 61.674 15.8047 61.8808 15.8973C62.0823 15.9898 62.4525 16.164 62.7084 16.2838C63.5033 16.6594 64.6848 17.2094 64.9842 17.34C65.0768 17.3836 65.2402 17.449 65.3382 17.4925C66.0514 17.8083 67.0531 18.2874 67.3907 18.4834C67.6629 18.6412 68.1529 18.9407 68.2346 19.0061C68.2672 19.0333 68.4143 19.1422 68.5613 19.2511C69.0894 19.6431 69.7155 20.2637 70.1021 20.7701C71.0549 22.0223 71.4469 22.9806 71.7464 24.7555C71.7736 24.9406 71.8226 25.2346 71.8553 25.4089C71.8825 25.5777 71.9315 25.8934 71.9641 26.1002C71.9968 26.3126 72.0458 26.6175 72.073 26.7808C72.1002 26.9442 72.1492 27.26 72.1765 27.4723C72.2091 27.6901 72.2636 28.0494 72.2962 28.2618C72.3235 28.4795 72.3724 28.7953 72.3997 28.9587C72.4269 29.122 72.4759 29.4432 72.5086 29.6664C72.5412 29.8897 72.5902 30.2109 72.6174 30.3742C72.6447 30.5376 72.6937 30.8588 72.7263 31.082C72.759 31.3052 72.808 31.6265 72.8352 31.7898C72.8624 31.9531 72.9114 32.2744 72.9441 32.4976C72.9768 32.7208 73.0258 33.0312 73.0531 33.1782C73.0803 33.3306 73.1183 33.5484 73.1292 33.6682C73.1455 33.788 73.1837 34.0439 73.2163 34.2399C73.2436 34.4359 73.298 34.768 73.3252 34.9749C73.4777 35.9875 73.5485 36.4722 73.652 37.1255C73.6846 37.3487 73.7391 37.6808 73.7608 37.8605C73.7881 38.0402 73.8371 38.3614 73.8697 38.5683C73.9024 38.7806 73.9514 39.1236 73.9786 39.3305C74.0113 39.5429 74.0548 39.8695 74.0875 40.0655C74.1147 40.2615 74.1637 40.5936 74.1964 40.8005C74.2236 41.0128 74.2726 41.3286 74.3053 41.5083C74.3379 41.6879 74.3869 42.0092 74.4141 42.2161C74.4414 42.4284 74.4904 42.7551 74.523 42.9511C74.5557 43.1471 74.6047 43.4792 74.6319 43.6861C74.7353 44.3884 74.7843 44.7151 74.8497 45.1289C74.915 45.5427 74.9641 45.8694 75.0675 46.5717C75.0947 46.7841 75.1492 47.1107 75.1764 47.3067C75.2091 47.5027 75.2581 47.8185 75.2853 48.0145C75.3125 48.2105 75.3615 48.5208 75.3887 48.7114C75.7317 50.7476 75.7154 49.8003 75.6936 65.7364C75.6773 73.7018 75.6555 80.453 75.6391 80.7361C75.6065 81.237 75.5411 81.6998 75.4486 82.0973C75.4213 82.2008 75.3724 82.413 75.3342 82.56C75.2744 82.8377 75.0947 83.3985 75.013 83.5945C74.9912 83.6545 74.915 83.8504 74.8442 84.0301C74.719 84.3622 74.2072 85.4238 74.1473 85.4728C74.131 85.4892 74.0548 85.609 73.984 85.7451C73.9078 85.8812 73.8153 86.0227 73.7772 86.0609C73.7391 86.099 73.7064 86.1534 73.7064 86.1806C73.7064 86.295 72.8134 87.3567 72.2145 87.9556C71.5122 88.6579 70.9296 89.1207 70.211 89.5617C69.3235 90.1061 68.2128 90.5744 67.3907 90.7541C67.2274 90.7867 67.0041 90.8411 66.9007 90.8738C66.5739 90.9718 60.7483 91.0154 47.9211 91.0209C35.1319 91.0263 35.4204 91.0318 34.3696 90.814C34.0375 90.7432 33.5693 90.6179 33.1664 90.4927C32.4749 90.2749 30.5857 89.3603 29.7527 88.8322C29.6057 88.7396 29.4696 88.6906 29.4478 88.7178C29.4204 88.7452 29.1374 89.1208 28.8162 89.5563C28.2609 90.3021 27.5477 91.0807 27.1829 91.3312C26.7963 91.6034 26.3771 91.7777 25.7945 91.9247C25.4733 92.0063 24.3027 92.0281 24.025 91.9573C23.9437 91.9319 23.7533 91.8875 23.5955 91.8507L23.5622 91.843C23.3989 91.8049 23.1158 91.7069 22.9361 91.6198C22.7566 91.5327 22.5933 91.4619 22.5714 91.4618C22.5333 91.4618 21.9779 91.1297 21.9289 91.0807C21.9125 91.0643 21.8145 90.9882 21.7111 90.9174C21.4933 90.765 21.3518 90.6506 21.0088 90.3457C20.6603 90.0354 20.5841 89.9592 20.1867 89.5019C19.9907 89.2786 19.8219 89.0826 19.8055 89.0662C19.7892 89.0499 19.6912 88.9302 19.5878 88.7941C19.4843 88.658 19.3808 88.5273 19.3536 88.4946C19.3318 88.4674 19.1794 88.255 19.0215 88.0318C17.9054 86.4311 17.0615 84.58 16.7076 82.9412C16.3265 81.188 16.3482 81.8849 16.3537 70.936C16.3537 65.4697 16.3864 59.5569 16.419 57.7875C16.4571 56.0234 16.5116 53.2794 16.5388 51.6896C16.6313 46.7732 16.8056 41.6063 16.9744 38.5411C17.0016 38.0184 17.0506 37.0765 17.0833 36.4449C17.116 35.8188 17.165 34.9096 17.1922 34.4304C17.2194 33.9513 17.2684 33.0965 17.3011 32.5249C17.3827 31.0494 17.4589 29.7971 17.6277 27.0966C17.6985 26.0241 17.7584 25.6539 17.9653 25.0114C18.2865 24.0369 18.7438 23.231 19.5605 22.2075C19.8164 21.8863 21.0578 20.6993 21.7928 20.0786C21.9126 19.9752 22.0214 19.8826 22.0378 19.8663C22.0541 19.8499 22.2011 19.7302 22.3644 19.5941C22.5278 19.458 22.6748 19.3382 22.6912 19.3219C22.6993 19.3137 22.7401 19.2796 22.7993 19.2306L23.2363 18.8686C23.2955 18.8196 23.3363 18.7855 23.3445 18.7774C23.3567 18.7651 23.4272 18.7069 23.5191 18.635L23.7144 18.4842C23.8062 18.4123 23.8767 18.3541 23.889 18.3418C23.9055 18.3199 24.3682 17.9715 24.9234 17.5578C25.4787 17.144 25.9742 16.7738 26.0286 16.7303C26.3499 16.4689 28.8816 14.841 29.5295 14.4707C29.6329 14.4163 29.8017 14.3183 29.9106 14.2584C30.014 14.1985 30.1556 14.1114 30.2209 14.0733C30.3736 13.9752 32.4913 12.7884 33.0357 12.4999C33.259 12.3801 33.5095 12.2385 33.5911 12.1786C33.6673 12.1242 33.7489 12.0806 33.7653 12.0806C33.7871 12.0806 33.9777 11.9717 34.1955 11.8411C34.4078 11.7104 34.6636 11.5689 34.7508 11.5199C34.8433 11.4709 34.9794 11.3783 35.0611 11.3075C35.2571 11.1279 35.5402 10.5562 35.5402 10.3221V10.1206H51.5471V10.3384ZM61.0751 47.5409C58.5161 47.53 49.5708 47.5463 41.2026 47.5681C26.8237 47.6062 25.9688 47.617 25.7237 47.7096C25.0541 47.9492 24.477 48.4991 24.1775 49.1579C23.9652 49.6424 23.9706 49.1579 23.9706 64.3209C23.9706 78.1058 23.976 78.874 24.0686 79.1626C24.2754 79.816 24.7437 80.404 25.3372 80.7633C25.74 81.0083 25.9361 81.0683 26.475 81.1118C26.7146 81.1282 35.5729 81.139 46.157 81.139C66.7374 81.1281 65.643 81.1444 66.2692 80.8776C66.6122 80.7306 67.0858 80.355 67.3145 80.0338C67.603 79.6309 67.7228 79.3532 67.8045 78.9122C67.8644 78.591 67.8263 49.9473 67.7664 49.6206C67.6085 48.7822 66.9497 48.0526 66.0187 47.6715C65.7305 47.5573 65.692 47.5571 61.0911 47.5409H61.0751ZM59.4689 23.7047C58.282 23.1657 58.0588 23.1058 57.792 23.2528C57.6178 23.3454 57.3183 23.6557 57.3183 23.7428C57.3183 23.7864 57.2911 23.8462 57.253 23.8843C57.2095 23.9279 57.204 24.0205 57.253 24.2328C57.2857 24.3907 57.3401 24.6956 57.3728 24.9025C57.4054 25.1149 57.4599 25.3598 57.4871 25.4524C57.5143 25.5449 57.5361 25.6756 57.5361 25.7464C57.5361 25.8117 57.5579 25.9587 57.5905 26.0676C57.6178 26.1765 57.7158 26.6665 57.8083 27.162C57.9009 27.6574 57.9989 28.1583 58.0262 28.2781C58.0479 28.3979 58.0969 28.6375 58.1296 28.8117C58.1623 28.9805 58.2167 29.2636 58.2494 29.4378C58.282 29.6066 58.3256 29.8461 58.3528 29.9659C58.38 30.0857 58.429 30.3307 58.4617 30.5104C58.4944 30.6901 58.5434 30.935 58.5706 31.0548C58.5978 31.1746 58.6468 31.4196 58.6795 31.5992C58.7121 31.7789 58.7611 32.024 58.7883 32.1437C58.8156 32.2635 58.8591 32.4976 58.8918 32.6609C58.9898 33.2 59.066 33.6083 59.115 33.8315C59.1422 33.9513 59.1912 34.1963 59.2239 34.376C59.2565 34.5556 59.3111 34.8007 59.3328 34.9205C59.3601 35.0403 59.4091 35.2852 59.4417 35.4649C59.4798 35.6445 59.5288 35.8895 59.556 36.0093C59.605 36.2489 59.7683 37.0166 59.8065 37.2344C59.8228 37.3106 59.8718 37.5556 59.9153 37.7788C59.9643 38.002 60.0188 38.2851 60.0461 38.4049C60.1332 38.835 60.193 39.0637 60.2856 39.3305C60.4054 39.6681 60.6776 40.2234 60.781 40.3214C60.8246 40.365 60.8573 40.4194 60.8573 40.4412C60.8574 40.5175 61.5923 41.2415 61.9244 41.4974C62.2347 41.7315 62.9371 42.1126 63.5959 42.4012C64.1185 42.6299 64.3745 42.7497 64.6685 42.8803C64.8318 42.9565 65.0659 43.0654 65.1857 43.1198C65.447 43.2342 65.6104 43.2451 65.7737 43.158C65.9534 43.0655 66.1874 42.7933 66.2255 42.6408C66.2637 42.5047 66.242 42.2978 66.1385 41.5356C66.1058 41.3123 66.0568 40.9421 66.0241 40.7189C65.9969 40.4957 65.9479 40.1418 65.9207 39.9294C65.888 39.7225 65.8444 39.3632 65.8118 39.14C65.7846 38.9167 65.7356 38.5465 65.7029 38.3233C65.6702 38.1001 65.6212 37.7298 65.594 37.5065C65.5232 36.9403 65.4307 36.2434 65.3708 35.7915C65.3436 35.5846 65.2946 35.2253 65.2674 35.0021C65.1966 34.4086 65.104 33.7226 65.0442 33.287C65.0169 33.0802 64.9679 32.7208 64.9407 32.4976C64.9135 32.2744 64.8644 31.9041 64.8317 31.6809C64.7664 31.1964 64.6848 30.5648 64.614 29.9659C64.5813 29.7263 64.5323 29.3343 64.5051 29.0947C64.4724 28.8552 64.4234 28.4741 64.3962 28.2509C64.2383 26.9551 64.1458 26.6393 63.7755 26.073C63.4325 25.5558 62.9208 25.2074 61.8373 24.75C61.7339 24.7065 61.5051 24.6031 61.3309 24.5268C61.1567 24.4506 61.0043 24.3852 60.9934 24.3852C60.9824 24.3852 60.8191 24.3145 60.6286 24.2274C60.4381 24.1403 60.1658 24.015 60.0133 23.9497C59.8663 23.8844 59.6214 23.7701 59.4689 23.7047Z" fill="black"/>
<path d="M43.4076 0.012922C51.0759 -0.0142975 51.5006 -0.00982588 52.0067 0.139879C52.8829 0.389392 53.4653 0.897524 53.7646 1.67328C53.8082 1.78673 53.83 2.58068 53.8409 4.21382C53.8518 6.54101 53.8463 6.60008 53.732 6.86772C53.5578 7.28055 53.3782 7.52106 53.0299 7.80687C52.6979 8.07452 52.2353 8.29681 51.7999 8.39208C51.7336 8.40806 51.6844 8.42035 51.648 8.43288H38.0468L35.3582 8.41472C34.7976 8.32397 34.0466 7.86583 33.671 7.3759C33.2737 6.86326 33.2847 6.94028 33.2683 4.39526C33.2574 2.76231 33.2682 2.03185 33.3118 1.85481C33.4914 1.15618 34.0302 0.561739 34.7268 0.284998C35.0588 0.148904 35.2548 0.0990762 35.5323 0.0673195C35.6575 0.0491731 39.206 0.0265319 43.4076 0.012922Z" fill="black"/>
</g>
</g>
</svg>

</g>
<g id="Regular-S" transform="matrix(1 0 0 1 1403.84 614.7705)">
<svg width="92" height="92" viewBox="0 0 92 92" fill="none" xmlns="http://www.w3.org/2000/svg">
<g id="jug.fill">
<g id="Union">
<path d="M45.9011 53.2412C46.4238 53.2412 46.5818 53.2957 46.8159 53.5516C46.925 53.6663 48.0572 55.3484 48.4438 55.9636C48.6126 56.2249 49.1406 57.0633 49.2876 57.2974C49.5163 57.6459 50.431 59.1812 50.6107 59.5025C50.6815 59.6386 50.823 59.8836 50.921 60.0469C51.2641 60.624 51.4981 61.065 52.1678 62.4153C52.9028 63.8907 52.9083 63.9017 53.2241 64.702C53.5671 65.5786 53.6977 66.0359 53.8883 67.005C53.9699 67.4406 53.9536 69.1447 53.8611 69.6565C53.7086 70.5222 53.5616 70.9687 53.1642 71.8071C52.7994 72.5693 52.0807 73.5657 51.5526 74.0285C51.4764 74.0992 51.3294 74.2299 51.2259 74.3225C51.0082 74.5185 50.246 75.0738 50.1316 75.1174C50.088 75.1337 49.941 75.2154 49.8048 75.2916C49.3148 75.5747 48.2967 75.934 47.6543 76.0484C47.4474 76.0865 47.1697 76.1409 47.0445 76.1681C46.7614 76.228 45.1444 76.2171 44.7415 76.1518C44.2243 76.0701 43.7015 75.9395 43.2769 75.8034C42.8358 75.6564 41.5292 75.0248 41.5292 74.9649C41.5292 74.9431 41.4584 74.8941 41.3658 74.856C41.2787 74.8179 41.2026 74.7743 41.2026 74.7526C41.2025 74.7308 41.1263 74.6709 41.0283 74.611C40.8269 74.4967 39.6236 73.3098 39.6236 73.2281C39.6236 73.2009 39.5909 73.141 39.5528 73.1029C39.1663 72.7109 38.4803 71.3389 38.2516 70.5004C38.0719 69.8308 37.9358 68.8725 37.9358 68.2409C37.9358 67.8489 38.0284 66.9833 38.1264 66.4715C38.2571 65.7964 38.6599 64.653 39.1336 63.6131C39.384 63.0633 40.2386 61.3324 40.2769 61.2992C40.2933 61.2828 40.4131 61.065 40.5437 60.8091C40.6744 60.5533 40.7997 60.3246 40.8269 60.2919C40.9031 60.1939 41.2624 59.5297 41.295 59.4371C41.3114 59.3827 41.3441 59.3391 41.3713 59.3391C41.3985 59.3391 41.4203 59.3174 41.4203 59.2847C41.4203 59.2575 41.5673 58.9852 41.747 58.6858C41.9266 58.3864 42.0736 58.1142 42.0736 58.0869C42.0736 58.0542 42.0955 58.0324 42.1172 58.0324C42.1391 58.0323 42.2152 57.9289 42.2805 57.8038C42.3459 57.6731 42.6072 57.2375 42.8577 56.8346C43.1135 56.4317 43.3586 56.0288 43.4076 55.9471C43.5275 55.7347 44.2352 54.646 44.3059 54.5643C44.3332 54.5262 44.3876 54.4336 44.4257 54.3574C44.4584 54.2812 44.5019 54.2213 44.5237 54.2213C44.5455 54.2212 44.5945 54.1505 44.6326 54.058C44.6707 53.9709 44.7197 53.8946 44.7469 53.8946C44.7687 53.8946 44.8014 53.851 44.8232 53.7912C44.8667 53.6442 45.0137 53.4917 45.2315 53.3556C45.3894 53.2631 45.5091 53.2412 45.9011 53.2412Z" fill="black"/>
<path fill-rule="evenodd" clip-rule="evenodd" d="M51.5471 10.3384C51.5471 10.616 51.7704 11.1714 51.9609 11.3565C52.0371 11.4327 52.4019 11.6124 53.6977 12.1896C53.8501 12.2549 54.1224 12.38 54.313 12.4672C54.5035 12.5542 54.6667 12.625 54.6777 12.6251C54.7049 12.6251 55.1623 12.832 55.7231 13.0933C55.9409 13.1968 56.126 13.2784 56.1423 13.2784C56.1534 13.2785 56.3439 13.3601 56.567 13.4635C56.7848 13.5615 57.1985 13.7521 57.4817 13.8773C57.7648 14.0025 58.1949 14.1986 58.4345 14.3129C58.674 14.4218 58.968 14.5579 59.0878 14.6124C59.2076 14.6668 59.4907 14.792 59.7139 14.9009C59.9371 15.0044 60.2747 15.1622 60.4653 15.2439C60.6504 15.331 60.9607 15.478 61.1567 15.5651C61.3527 15.6522 61.674 15.8047 61.8808 15.8973C62.0823 15.9898 62.4525 16.164 62.7084 16.2838C63.5033 16.6594 64.6848 17.2094 64.9842 17.34C65.0768 17.3836 65.2402 17.449 65.3382 17.4925C66.0514 17.8083 67.0531 18.2874 67.3907 18.4834C67.6629 18.6412 68.1529 18.9407 68.2346 19.0061C68.2672 19.0333 68.4143 19.1422 68.5613 19.2511C69.0894 19.6431 69.7155 20.2637 70.1021 20.7701C71.0549 22.0223 71.4469 22.9806 71.7464 24.7555C71.7736 24.9406 71.8226 25.2346 71.8553 25.4089C71.8825 25.5777 71.9315 25.8934 71.9641 26.1002C71.9968 26.3126 72.0458 26.6175 72.073 26.7808C72.1002 26.9442 72.1492 27.26 72.1765 27.4723C72.2091 27.6901 72.2636 28.0494 72.2962 28.2618C72.3235 28.4795 72.3724 28.7953 72.3997 28.9587C72.4269 29.122 72.4759 29.4432 72.5086 29.6664C72.5412 29.8897 72.5902 30.2109 72.6174 30.3742C72.6447 30.5376 72.6937 30.8588 72.7263 31.082C72.759 31.3052 72.808 31.6265 72.8352 31.7898C72.8624 31.9531 72.9114 32.2744 72.9441 32.4976C72.9768 32.7208 73.0258 33.0312 73.0531 33.1782C73.0803 33.3306 73.1183 33.5484 73.1292 33.6682C73.1455 33.788 73.1837 34.0439 73.2163 34.2399C73.2436 34.4359 73.298 34.768 73.3252 34.9749C73.4777 35.9875 73.5485 36.4722 73.652 37.1255C73.6846 37.3487 73.7391 37.6808 73.7608 37.8605C73.7881 38.0402 73.8371 38.3614 73.8697 38.5683C73.9024 38.7806 73.9514 39.1236 73.9786 39.3305C74.0113 39.5429 74.0548 39.8695 74.0875 40.0655C74.1147 40.2615 74.1637 40.5936 74.1964 40.8005C74.2236 41.0128 74.2726 41.3286 74.3053 41.5083C74.3379 41.6879 74.3869 42.0092 74.4141 42.2161C74.4414 42.4284 74.4904 42.7551 74.523 42.9511C74.5557 43.1471 74.6047 43.4792 74.6319 43.6861C74.7353 44.3884 74.7843 44.7151 74.8497 45.1289C74.915 45.5427 74.9641 45.8694 75.0675 46.5717C75.0947 46.7841 75.1492 47.1107 75.1764 47.3067C75.2091 47.5027 75.2581 47.8185 75.2853 48.0145C75.3125 48.2105 75.3615 48.5208 75.3887 48.7114C75.7317 50.7476 75.7154 49.8003 75.6936 65.7364C75.6773 73.7018 75.6555 80.453 75.6391 80.7361C75.6065 81.237 75.5411 81.6998 75.4486 82.0973C75.4213 82.2008 75.3724 82.413 75.3342 82.56C75.2744 82.8377 75.0947 83.3985 75.013 83.5945C74.9912 83.6545 74.915 83.8504 74.8442 84.0301C74.719 84.3622 74.2072 85.4238 74.1473 85.4728C74.131 85.4892 74.0548 85.609 73.984 85.7451C73.9078 85.8812 73.8153 86.0227 73.7772 86.0609C73.7391 86.099 73.7064 86.1534 73.7064 86.1806C73.7064 86.295 72.8134 87.3567 72.2145 87.9556C71.5122 88.6579 70.9296 89.1207 70.211 89.5617C69.3235 90.1061 68.2128 90.5744 67.3907 90.7541C67.2274 90.7867 67.0041 90.8411 66.9007 90.8738C66.5739 90.9718 60.7483 91.0154 47.9211 91.0209C35.1319 91.0263 35.4204 91.0318 34.3696 90.814C34.0375 90.7432 33.5693 90.6179 33.1664 90.4927C32.4749 90.2749 30.5857 89.3603 29.7527 88.8322C29.6057 88.7396 29.4696 88.6906 29.4478 88.7178C29.4204 88.7452 29.1374 89.1208 28.8162 89.5563C28.2609 90.3021 27.5477 91.0807 27.1829 91.3312C26.7963 91.6034 26.3771 91.7777 25.7945 91.9247C25.4733 92.0063 24.3027 92.0281 24.025 91.9573C23.9437 91.9319 23.7533 91.8875 23.5955 91.8507L23.5622 91.843C23.3989 91.8049 23.1158 91.7069 22.9361 91.6198C22.7566 91.5327 22.5933 91.4619 22.5714 91.4618C22.5333 91.4618 21.9779 91.1297 21.9289 91.0807C21.9125 91.0643 21.8145 90.9882 21.7111 90.9174C21.4933 90.765 21.3518 90.6506 21.0088 90.3457C20.6603 90.0354 20.5841 89.9592 20.1867 89.5019C19.9907 89.2786 19.8219 89.0826 19.8055 89.0662C19.7892 89.0499 19.6912 88.9302 19.5878 88.7941C19.4843 88.658 19.3808 88.5273 19.3536 88.4946C19.3318 88.4674 19.1794 88.255 19.0215 88.0318C17.9054 86.4311 17.0615 84.58 16.7076 82.9412C16.3265 81.188 16.3482 81.8849 16.3537 70.936C16.3537 65.4697 16.3864 59.5569 16.419 57.7875C16.4571 56.0234 16.5116 53.2794 16.5388 51.6896C16.6313 46.7732 16.8056 41.6063 16.9744 38.5411C17.0016 38.0184 17.0506 37.0765 17.0833 36.4449C17.116 35.8188 17.165 34.9096 17.1922 34.4304C17.2194 33.9513 17.2684 33.0965 17.3011 32.5249C17.3827 31.0494 17.4589 29.7971 17.6277 27.0966C17.6985 26.0241 17.7584 25.6539 17.9653 25.0114C18.2865 24.0369 18.7438 23.231 19.5605 22.2075C19.8164 21.8863 21.0578 20.6993 21.7928 20.0786C21.9126 19.9752 22.0214 19.8826 22.0378 19.8663C22.0541 19.8499 22.2011 19.7302 22.3644 19.5941C22.5278 19.458 22.6748 19.3382 22.6912 19.3219C22.6993 19.3137 22.7401 19.2796 22.7993 19.2306L23.2363 18.8686C23.2955 18.8196 23.3363 18.7855 23.3445 18.7774C23.3567 18.7651 23.4272 18.7069 23.5191 18.635L23.7144 18.4842C23.8062 18.4123 23.8767 18.3541 23.889 18.3418C23.9055 18.3199 24.3682 17.9715 24.9234 17.5578C25.4787 17.144 25.9742 16.7738 26.0286 16.7303C26.3499 16.4689 28.8816 14.841 29.5295 14.4707C29.6329 14.4163 29.8017 14.3183 29.9106 14.2584C30.014 14.1985 30.1556 14.1114 30.2209 14.0733C30.3736 13.9752 32.4913 12.7884 33.0357 12.4999C33.259 12.3801 33.5095 12.2385 33.5911 12.1786C33.6673 12.1242 33.7489 12.0806 33.7653 12.0806C33.7871 12.0806 33.9777 11.9717 34.1955 11.8411C34.4078 11.7104 34.6636 11.5689 34.7508 11.5199C34.8433 11.4709 34.9794 11.3783 35.0611 11.3075C35.2571 11.1279 35.5402 10.5562 35.5402 10.3221V10.1206H51.5471V10.3384ZM61.0751 47.5409C58.5161 47.53 49.5708 47.5463 41.2026 47.5681C26.8237 47.6062 25.9688 47.617 25.7237 47.7096C25.0541 47.9492 24.477 48.4991 24.1775 49.1579C23.9652 49.6424 23.9706 49.1579 23.9706 64.3209C23.9706 78.1058 23.976 78.874 24.0686 79.1626C24.2754 79.816 24.7437 80.404 25.3372 80.7633C25.74 81.0083 25.9361 81.0683 26.475 81.1118C26.7146 81.1282 35.5729 81.139 46.157 81.139C66.7374 81.1281 65.643 81.1444 66.2692 80.8776C66.6122 80.7306 67.0858 80.355 67.3145 80.0338C67.603 79.6309 67.7228 79.3532 67.8045 78.9122C67.8644 78.591 67.8263 49.9473 67.7664 49.6206C67.6085 48.7822 66.9497 48.0526 66.0187 47.6715C65.7305 47.5573 65.692 47.5571 61.0911 47.5409H61.0751ZM59.4689 23.7047C58.282 23.1657 58.0588 23.1058 57.792 23.2528C57.6178 23.3454 57.3183 23.6557 57.3183 23.7428C57.3183 23.7864 57.2911 23.8462 57.253 23.8843C57.2095 23.9279 57.204 24.0205 57.253 24.2328C57.2857 24.3907 57.3401 24.6956 57.3728 24.9025C57.4054 25.1149 57.4599 25.3598 57.4871 25.4524C57.5143 25.5449 57.5361 25.6756 57.5361 25.7464C57.5361 25.8117 57.5579 25.9587 57.5905 26.0676C57.6178 26.1765 57.7158 26.6665 57.8083 27.162C57.9009 27.6574 57.9989 28.1583 58.0262 28.2781C58.0479 28.3979 58.0969 28.6375 58.1296 28.8117C58.1623 28.9805 58.2167 29.2636 58.2494 29.4378C58.282 29.6066 58.3256 29.8461 58.3528 29.9659C58.38 30.0857 58.429 30.3307 58.4617 30.5104C58.4944 30.6901 58.5434 30.935 58.5706 31.0548C58.5978 31.1746 58.6468 31.4196 58.6795 31.5992C58.7121 31.7789 58.7611 32.024 58.7883 32.1437C58.8156 32.2635 58.8591 32.4976 58.8918 32.6609C58.9898 33.2 59.066 33.6083 59.115 33.8315C59.1422 33.9513 59.1912 34.1963 59.2239 34.376C59.2565 34.5556 59.3111 34.8007 59.3328 34.9205C59.3601 35.0403 59.4091 35.2852 59.4417 35.4649C59.4798 35.6445 59.5288 35.8895 59.556 36.0093C59.605 36.2489 59.7683 37.0166 59.8065 37.2344C59.8228 37.3106 59.8718 37.5556 59.9153 37.7788C59.9643 38.002 60.0188 38.2851 60.0461 38.4049C60.1332 38.835 60.193 39.0637 60.2856 39.3305C60.4054 39.6681 60.6776 40.2234 60.781 40.3214C60.8246 40.365 60.8573 40.4194 60.8573 40.4412C60.8574 40.5175 61.5923 41.2415 61.9244 41.4974C62.2347 41.7315 62.9371 42.1126 63.5959 42.4012C64.1185 42.6299 64.3745 42.7497 64.6685 42.8803C64.8318 42.9565 65.0659 43.0654 65.1857 43.1198C65.447 43.2342 65.6104 43.2451 65.7737 43.158C65.9534 43.0655 66.1874 42.7933 66.2255 42.6408C66.2637 42.5047 66.242 42.2978 66.1385 41.5356C66.1058 41.3123 66.0568 40.9421 66.0241 40.7189C65.9969 40.4957 65.9479 40.1418 65.9207 39.9294C65.888 39.7225 65.8444 39.3632 65.8118 39.14C65.7846 38.9167 65.7356 38.5465 65.7029 38.3233C65.6702 38.1001 65.6212 37.7298 65.594 37.5065C65.5232 36.9403 65.4307 36.2434 65.3708 35.7915C65.3436 35.5846 65.2946 35.2253 65.2674 35.0021C65.1966 34.4086 65.104 33.7226 65.0442 33.287C65.0169 33.0802 64.9679 32.7208 64.9407 32.4976C64.9135 32.2744 64.8644 31.9041 64.8317 31.6809C64.7664 31.1964 64.6848 30.5648 64.614 29.9659C64.5813 29.7263 64.5323 29.3343 64.5051 29.0947C64.4724 28.8552 64.4234 28.4741 64.3962 28.2509C64.2383 26.9551 64.1458 26.6393 63.7755 26.073C63.4325 25.5558 62.9208 25.2074 61.8373 24.75C61.7339 24.7065 61.5051 24.6031 61.3309 24.5268C61.1567 24.4506 61.0043 24.3852 60.9934 24.3852C60.9824 24.3852 60.8191 24.3145 60.6286 24.2274C60.4381 24.1403 60.1658 24.015 60.0133 23.9497C59.8663 23.8844 59.6214 23.7701 59.4689 23.7047Z" fill="black"/>
<path d="M43.4076 0.012922C51.0759 -0.0142975 51.5006 -0.00982588 52.0067 0.139879C52.8829 0.389392 53.4653 0.897524 53.7646 1.67328C53.8082 1.78673 53.83 2.58068 53.8409 4.21382C53.8518 6.54101 53.8463 6.60008 53.732 6.86772C53.5578 7.28055 53.3782 7.52106 53.0299 7.80687C52.6979 8.07452 52.2353 8.29681 51.7999 8.39208C51.7336 8.40806 51.6844 8.42035 51.648 8.43288H38.0468L35.3582 8.41472C34.7976 8.32397 34.0466 7.86583 33.671 7.3759C33.2737 6.86326 33.2847 6.94028 33.2683 4.39526C33.2574 2.76231 33.2682 2.03185 33.3118 1.85481C33.4914 1.15618 34.0302 0.561739 34.7268 0.284998C35.0588 0.148904 35.2548 0.0990762 35.5323 0.0673195C35.6575 0.0491731 39.206 0.0265319 43.4076 0.012922Z" fill="black"/>
</g>
</g>
</svg>

</g>
<g id="Black-S" transform="matrix(1 0 0 1 2887.4 614.7705)">
<svg width="92" height="92" viewBox="0 0 92 92" fill="none" xmlns="http://www.w3.org/2000/svg">
<g id="jug.fill">
<g id="Union">
<path d="M45.9011 53.2412C46.4238 53.2412 46.5818 53.2957 46.8159 53.5516C46.925 53.6663 48.0572 55.3484 48.4438 55.9636C48.6126 56.2249 49.1406 57.0633 49.2876 57.2974C49.5163 57.6459 50.431 59.1812 50.6107 59.5025C50.6815 59.6386 50.823 59.8836 50.921 60.0469C51.2641 60.624 51.4981 61.065 52.1678 62.4153C52.9028 63.8907 52.9083 63.9017 53.2241 64.702C53.5671 65.5786 53.6977 66.0359 53.8883 67.005C53.9699 67.4406 53.9536 69.1447 53.8611 69.6565C53.7086 70.5222 53.5616 70.9687 53.1642 71.8071C52.7994 72.5693 52.0807 73.5657 51.5526 74.0285C51.4764 74.0992 51.3294 74.2299 51.2259 74.3225C51.0082 74.5185 50.246 75.0738 50.1316 75.1174C50.088 75.1337 49.941 75.2154 49.8048 75.2916C49.3148 75.5747 48.2967 75.934 47.6543 76.0484C47.4474 76.0865 47.1697 76.1409 47.0445 76.1681C46.7614 76.228 45.1444 76.2171 44.7415 76.1518C44.2243 76.0701 43.7015 75.9395 43.2769 75.8034C42.8358 75.6564 41.5292 75.0248 41.5292 74.9649C41.5292 74.9431 41.4584 74.8941 41.3658 74.856C41.2787 74.8179 41.2026 74.7743 41.2026 74.7526C41.2025 74.7308 41.1263 74.6709 41.0283 74.611C40.8269 74.4967 39.6236 73.3098 39.6236 73.2281C39.6236 73.2009 39.5909 73.141 39.5528 73.1029C39.1663 72.7109 38.4803 71.3389 38.2516 70.5004C38.0719 69.8308 37.9358 68.8725 37.9358 68.2409C37.9358 67.8489 38.0284 66.9833 38.1264 66.4715C38.2571 65.7964 38.6599 64.653 39.1336 63.6131C39.384 63.0633 40.2386 61.3324 40.2769 61.2992C40.2933 61.2828 40.4131 61.065 40.5437 60.8091C40.6744 60.5533 40.7997 60.3246 40.8269 60.2919C40.9031 60.1939 41.2624 59.5297 41.295 59.4371C41.3114 59.3827 41.3441 59.3391 41.3713 59.3391C41.3985 59.3391 41.4203 59.3174 41.4203 59.2847C41.4203 59.2575 41.5673 58.9852 41.747 58.6858C41.9266 58.3864 42.0736 58.1142 42.0736 58.0869C42.0736 58.0542 42.0955 58.0324 42.1172 58.0324C42.1391 58.0323 42.2152 57.9289 42.2805 57.8038C42.3459 57.6731 42.6072 57.2375 42.8577 56.8346C43.1135 56.4317 43.3586 56.0288 43.4076 55.9471C43.5275 55.7347 44.2352 54.646 44.3059 54.5643C44.3332 54.5262 44.3876 54.4336 44.4257 54.3574C44.4584 54.2812 44.5019 54.2213 44.5237 54.2213C44.5455 54.2212 44.5945 54.1505 44.6326 54.058C44.6707 53.9709 44.7197 53.8946 44.7469 53.8946C44.7687 53.8946 44.8014 53.851 44.8232 53.7912C44.8667 53.6442 45.0137 53.4917 45.2315 53.3556C45.3894 53.2631 45.5091 53.2412 45.9011 53.2412Z" fill="black"/>
<path fill-rule="evenodd" clip-rule="evenodd" d="M51.5471 10.3384C51.5471 10.616 51.7704 11.1714 51.9609 11.3565C52.0371 11.4327 52.4019 11.6124 53.6977 12.1896C53.8501 12.2549 54.1224 12.38 54.313 12.4672C54.5035 12.5542 54.6667 12.625 54.6777 12.6251C54.7049 12.6251 55.1623 12.832 55.7231 13.0933C55.9409 13.1968 56.126 13.2784 56.1423 13.2784C56.1534 13.2785 56.3439 13.3601 56.567 13.4635C56.7848 13.5615 57.1985 13.7521 57.4817 13.8773C57.7648 14.0025 58.1949 14.1986 58.4345 14.3129C58.674 14.4218 58.968 14.5579 59.0878 14.6124C59.2076 14.6668 59.4907 14.792 59.7139 14.9009C59.9371 15.0044 60.2747 15.1622 60.4653 15.2439C60.6504 15.331 60.9607 15.478 61.1567 15.5651C61.3527 15.6522 61.674 15.8047 61.8808 15.8973C62.0823 15.9898 62.4525 16.164 62.7084 16.2838C63.5033 16.6594 64.6848 17.2094 64.9842 17.34C65.0768 17.3836 65.2402 17.449 65.3382 17.4925C66.0514 17.8083 67.0531 18.2874 67.3907 18.4834C67.6629 18.6412 68.1529 18.9407 68.2346 19.0061C68.2672 19.0333 68.4143 19.1422 68.5613 19.2511C69.0894 19.6431 69.7155 20.2637 70.1021 20.7701C71.0549 22.0223 71.4469 22.9806 71.7464 24.7555C71.7736 24.9406 71.8226 25.2346 71.8553 25.4089C71.8825 25.5777 71.9315 25.8934 71.9641 26.1002C71.9968 26.3126 72.0458 26.6175 72.073 26.7808C72.1002 26.9442 72.1492 27.26 72.1765 27.4723C72.2091 27.6901 72.2636 28.0494 72.2962 28.2618C72.3235 28.4795 72.3724 28.7953 72.3997 28.9587C72.4269 29.122 72.4759 29.4432 72.5086 29.6664C72.5412 29.8897 72.5902 30.2109 72.6174 30.3742C72.6447 30.5376 72.6937 30.8588 72.7263 31.082C72.759 31.3052 72.808 31.6265 72.8352 31.7898C72.8624 31.9531 72.9114 32.2744 72.9441 32.4976C72.9768 32.7208 73.0258 33.0312 73.0531 33.1782C73.0803 33.3306 73.1183 33.5484 73.1292 33.6682C73.1455 33.788 73.1837 34.0439 73.2163 34.2399C73.2436 34.4359 73.298 34.768 73.3252 34.9749C73.4777 35.9875 73.5485 36.4722 73.652 37.1255C73.6846 37.3487 73.7391 37.6808 73.7608 37.8605C73.7881 38.0402 73.8371 38.3614 73.8697 38.5683C73.9024 38.7806 73.9514 39.1236 73.9786 39.3305C74.0113 39.5429 74.0548 39.8695 74.0875 40.0655C74.1147 40.2615 74.1637 40.5936 74.1964 40.8005C74.2236 41.0128 74.2726 41.3286 74.3053 41.5083C74.3379 41.6879 74.3869 42.0092 74.4141 42.2161C74.4414 42.4284 74.4904 42.7551 74.523 42.9511C74.5557 43.1471 74.6047 43.4792 74.6319 43.6861C74.7353 44.3884 74.7843 44.7151 74.8497 45.1289C74.915 45.5427 74.9641 45.8694 75.0675 46.5717C75.0947 46.7841 75.1492 47.1107 75.1764 47.3067C75.2091 47.5027 75.2581 47.8185 75.2853 48.0145C75.3125 48.2105 75.3615 48.5208 75.3887 48.7114C75.7317 50.7476 75.7154 49.8003 75.6936 65.7364C75.6773 73.7018 75.6555 80.453 75.6391 80.7361C75.6065 81.237 75.5411 81.6998 75.4486 82.0973C75.4213 82.2008 75.3724 82.413 75.3342 82.56C75.2744 82.8377 75.0947 83.3985 75.013 83.5945C74.9912 83.6545 74.915 83.8504 74.8442 84.0301C74.719 84.3622 74.2072 85.4238 74.1473 85.4728C74.131 85.4892 74.0548 85.609 73.984 85.7451C73.9078 85.8812 73.8153 86.0227 73.7772 86.0609C73.7391 86.099 73.7064 86.1534 73.7064 86.1806C73.7064 86.295 72.8134 87.3567 72.2145 87.9556C71.5122 88.6579 70.9296 89.1207 70.211 89.5617C69.3235 90.1061 68.2128 90.5744 67.3907 90.7541C67.2274 90.7867 67.0041 90.8411 66.9007 90.8738C66.5739 90.9718 60.7483 91.0154 47.9211 91.0209C35.1319 91.0263 35.4204 91.0318 34.3696 90.814C34.0375 90.7432 33.5693 90.6179 33.1664 90.4927C32.4749 90.2749 30.5857 89.3603 29.7527 88.8322C29.6057 88.7396 29.4696 88.6906 29.4478 88.7178C29.4204 88.7452 29.1374 89.1208 28.8162 89.5563C28.2609 90.3021 27.5477 91.0807 27.1829 91.3312C26.7963 91.6034 26.3771 91.7777 25.7945 91.9247C25.4733 92.0063 24.3027 92.0281 24.025 91.9573C23.9437 91.9319 23.7533 91.8875 23.5955 91.8507L23.5622 91.843C23.3989 91.8049 23.1158 91.7069 22.9361 91.6198C22.7566 91.5327 22.5933 91.4619 22.5714 91.4618C22.5333 91.4618 21.9779 91.1297 21.9289 91.0807C21.9125 91.0643 21.8145 90.9882 21.7111 90.9174C21.4933 90.765 21.3518 90.6506 21.0088 90.3457C20.6603 90.0354 20.5841 89.9592 20.1867 89.5019C19.9907 89.2786 19.8219 89.0826 19.8055 89.0662C19.7892 89.0499 19.6912 88.9302 19.5878 88.7941C19.4843 88.658 19.3808 88.5273 19.3536 88.4946C19.3318 88.4674 19.1794 88.255 19.0215 88.0318C17.9054 86.4311 17.0615 84.58 16.7076 82.9412C16.3265 81.188 16.3482 81.8849 16.3537 70.936C16.3537 65.4697 16.3864 59.5569 16.419 57.7875C16.4571 56.0234 16.5116 53.2794 16.5388 51.6896C16.6313 46.7732 16.8056 41.6063 16.9744 38.5411C17.0016 38.0184 17.0506 37.0765 17.0833 36.4449C17.116 35.8188 17.165 34.9096 17.1922 34.4304C17.2194 33.9513 17.2684 33.0965 17.3011 32.5249C17.3827 31.0494 17.4589 29.7971 17.6277 27.0966C17.6985 26.0241 17.7584 25.6539 17.9653 25.0114C18.2865 24.0369 18.7438 23.231 19.5605 22.2075C19.8164 21.8863 21.0578 20.6993 21.7928 20.0786C21.9126 19.9752 22.0214 19.8826 22.0378 19.8663C22.0541 19.8499 22.2011 19.7302 22.3644 19.5941C22.5278 19.458 22.6748 19.3382 22.6912 19.3219C22.6993 19.3137 22.7401 19.2796 22.7993 19.2306L23.2363 18.8686C23.2955 18.8196 23.3363 18.7855 23.3445 18.7774C23.3567 18.7651 23.4272 18.7069 23.5191 18.635L23.7144 18.4842C23.8062 18.4123 23.8767 18.3541 23.889 18.3418C23.9055 18.3199 24.3682 17.9715 24.9234 17.5578C25.4787 17.144 25.9742 16.7738 26.0286 16.7303C26.3499 16.4689 28.8816 14.841 29.5295 14.4707C29.6329 14.4163 29.8017 14.3183 29.9106 14.2584C30.014 14.1985 30.1556 14.1114 30.2209 14.0733C30.3736 13.9752 32.4913 12.7884 33.0357 12.4999C33.259 12.3801 33.5095 12.2385 33.5911 12.1786C33.6673 12.1242 33.7489 12.0806 33.7653 12.0806C33.7871 12.0806 33.9777 11.9717 34.1955 11.8411C34.4078 11.7104 34.6636 11.5689 34.7508 11.5199C34.8433 11.4709 34.9794 11.3783 35.0611 11.3075C35.2571 11.1279 35.5402 10.5562 35.5402 10.3221V10.1206H51.5471V10.3384ZM61.0751 47.5409C58.5161 47.53 49.5708 47.5463 41.2026 47.5681C26.8237 47.6062 25.9688 47.617 25.7237 47.7096C25.0541 47.9492 24.477 48.4991 24.1775 49.1579C23.9652 49.6424 23.9706 49.1579 23.9706 64.3209C23.9706 78.1058 23.976 78.874 24.0686 79.1626C24.2754 79.816 24.7437 80.404 25.3372 80.7633C25.74 81.0083 25.9361 81.0683 26.475 81.1118C26.7146 81.1282 35.5729 81.139 46.157 81.139C66.7374 81.1281 65.643 81.1444 66.2692 80.8776C66.6122 80.7306 67.0858 80.355 67.3145 80.0338C67.603 79.6309 67.7228 79.3532 67.8045 78.9122C67.8644 78.591 67.8263 49.9473 67.7664 49.6206C67.6085 48.7822 66.9497 48.0526 66.0187 47.6715C65.7305 47.5573 65.692 47.5571 61.0911 47.5409H61.0751ZM59.4689 23.7047C58.282 23.1657 58.0588 23.1058 57.792 23.2528C57.6178 23.3454 57.3183 23.6557 57.3183 23.7428C57.3183 23.7864 57.2911 23.8462 57.253 23.8843C57.2095 23.9279 57.204 24.0205 57.253 24.2328C57.2857 24.3907 57.3401 24.6956 57.3728 24.9025C57.4054 25.1149 57.4599 25.3598 57.4871 25.4524C57.5143 25.5449 57.5361 25.6756 57.5361 25.7464C57.5361 25.8117 57.5579 25.9587 57.5905 26.0676C57.6178 26.1765 57.7158 26.6665 57.8083 27.162C57.9009 27.6574 57.9989 28.1583 58.0262 28.2781C58.0479 28.3979 58.0969 28.6375 58.1296 28.8117C58.1623 28.9805 58.2167 29.2636 58.2494 29.4378C58.282 29.6066 58.3256 29.8461 58.3528 29.9659C58.38 30.0857 58.429 30.3307 58.4617 30.5104C58.4944 30.6901 58.5434 30.935 58.5706 31.0548C58.5978 31.1746 58.6468 31.4196 58.6795 31.5992C58.7121 31.7789 58.7611 32.024 58.7883 32.1437C58.8156 32.2635 58.8591 32.4976 58.8918 32.6609C58.9898 33.2 59.066 33.6083 59.115 33.8315C59.1422 33.9513 59.1912 34.1963 59.2239 34.376C59.2565 34.5556 59.3111 34.8007 59.3328 34.9205C59.3601 35.0403 59.4091 35.2852 59.4417 35.4649C59.4798 35.6445 59.5288 35.8895 59.556 36.0093C59.605 36.2489 59.7683 37.0166 59.8065 37.2344C59.8228 37.3106 59.8718 37.5556 59.9153 37.7788C59.9643 38.002 60.0188 38.2851 60.0461 38.4049C60.1332 38.835 60.193 39.0637 60.2856 39.3305C60.4054 39.6681 60.6776 40.2234 60.781 40.3214C60.8246 40.365 60.8573 40.4194 60.8573 40.4412C60.8574 40.5175 61.5923 41.2415 61.9244 41.4974C62.2347 41.7315 62.9371 42.1126 63.5959 42.4012C64.1185 42.6299 64.3745 42.7497 64.6685 42.8803C64.8318 42.9565 65.0659 43.0654 65.1857 43.1198C65.447 43.2342 65.6104 43.2451 65.7737 43.158C65.9534 43.0655 66.1874 42.7933 66.2255 42.6408C66.2637 42.5047 66.242 42.2978 66.1385 41.5356C66.1058 41.3123 66.0568 40.9421 66.0241 40.7189C65.9969 40.4957 65.9479 40.1418 65.9207 39.9294C65.888 39.7225 65.8444 39.3632 65.8118 39.14C65.7846 38.9167 65.7356 38.5465 65.7029 38.3233C65.6702 38.1001 65.6212 37.7298 65.594 37.5065C65.5232 36.9403 65.4307 36.2434 65.3708 35.7915C65.3436 35.5846 65.2946 35.2253 65.2674 35.0021C65.1966 34.4086 65.104 33.7226 65.0442 33.287C65.0169 33.0802 64.9679 32.7208 64.9407 32.4976C64.9135 32.2744 64.8644 31.9041 64.8317 31.6809C64.7664 31.1964 64.6848 30.5648 64.614 29.9659C64.5813 29.7263 64.5323 29.3343 64.5051 29.0947C64.4724 28.8552 64.4234 28.4741 64.3962 28.2509C64.2383 26.9551 64.1458 26.6393 63.7755 26.073C63.4325 25.5558 62.9208 25.2074 61.8373 24.75C61.7339 24.7065 61.5051 24.6031 61.3309 24.5268C61.1567 24.4506 61.0043 24.3852 60.9934 24.3852C60.9824 24.3852 60.8191 24.3145 60.6286 24.2274C60.4381 24.1403 60.1658 24.015 60.0133 23.9497C59.8663 23.8844 59.6214 23.7701 59.4689 23.7047Z" fill="black"/>
<path d="M43.4076 0.012922C51.0759 -0.0142975 51.5006 -0.00982588 52.0067 0.139879C52.8829 0.389392 53.4653 0.897524 53.7646 1.67328C53.8082 1.78673 53.83 2.58068 53.8409 4.21382C53.8518 6.54101 53.8463 6.60008 53.732 6.86772C53.5578 7.28055 53.3782 7.52106 53.0299 7.80687C52.6979 8.07452 52.2353 8.29681 51.7999 8.39208C51.7336 8.40806 51.6844 8.42035 51.648 8.43288H38.0468L35.3582 8.41472C34.7976 8.32397 34.0466 7.86583 33.671 7.3759C33.2737 6.86326 33.2847 6.94028 33.2683 4.39526C33.2574 2.76231 33.2682 2.03185 33.3118 1.85481C33.4914 1.15618 34.0302 0.561739 34.7268 0.284998C35.0588 0.148904 35.2548 0.0990762 35.5323 0.0673195C35.6575 0.0491731 39.206 0.0265319 43.4076 0.012922Z" fill="black"/>
</g>
</g>
</svg>

</g>
</g>
</svg>